G04 #@! TF.GenerationSoftware,KiCad,Pcbnew,(5.1.5)-3*
G04 #@! TF.CreationDate,2020-03-05T22:20:16-05:00*
G04 #@! TF.ProjectId,input board,696e7075-7420-4626-9f61-72642e6b6963,rev?*
G04 #@! TF.SameCoordinates,Original*
G04 #@! TF.FileFunction,Copper,L1,Top*
G04 #@! TF.FilePolarity,Positive*
%FSLAX46Y46*%
G04 Gerber Fmt 4.6, Leading zero omitted, Abs format (unit mm)*
G04 Created by KiCad (PCBNEW (5.1.5)-3) date 2020-03-05 22:20:16*
%MOMM*%
%LPD*%
G04 APERTURE LIST*
%ADD10C,0.050000*%
%ADD11O,1.600000X1.600000*%
%ADD12C,1.600000*%
%ADD13O,1.700000X1.700000*%
%ADD14R,1.700000X1.700000*%
%ADD15C,1.800000*%
%ADD16R,1.800000X1.800000*%
%ADD17O,2.000000X2.000000*%
%ADD18R,2.000000X2.000000*%
%ADD19R,1.600000X1.600000*%
%ADD20R,1.200000X1.200000*%
%ADD21C,1.200000*%
%ADD22R,1.295400X0.558800*%
%ADD23C,1.500000*%
%ADD24R,1.500000X1.500000*%
%ADD25R,0.568000X1.454899*%
%ADD26C,0.800000*%
%ADD27C,0.750000*%
%ADD28C,0.250000*%
G04 APERTURE END LIST*
D10*
X62230000Y-17780000D02*
X186690000Y-17780000D01*
X62230000Y-166370000D02*
X62230000Y-17780000D01*
X186690000Y-166370000D02*
X62230000Y-166370000D01*
X186690000Y-17780000D02*
X186690000Y-166370000D01*
D11*
X97790000Y-29210000D03*
D12*
X77470000Y-29210000D03*
D11*
X88900000Y-88900000D03*
D12*
X68580000Y-88900000D03*
D11*
X88900000Y-102870000D03*
D12*
X68580000Y-102870000D03*
D11*
X88900000Y-72390000D03*
D12*
X68580000Y-72390000D03*
D11*
X88900000Y-55880000D03*
D12*
X68580000Y-55880000D03*
D11*
X88900000Y-41910000D03*
D12*
X68580000Y-41910000D03*
D13*
X64770000Y-96520000D03*
X64770000Y-93980000D03*
X64770000Y-91440000D03*
X64770000Y-88900000D03*
D14*
X64770000Y-86360000D03*
D13*
X64770000Y-113030000D03*
X64770000Y-110490000D03*
X64770000Y-107950000D03*
X64770000Y-105410000D03*
D14*
X64770000Y-102870000D03*
D13*
X64770000Y-80010000D03*
X64770000Y-77470000D03*
X64770000Y-74930000D03*
X64770000Y-72390000D03*
D14*
X64770000Y-69850000D03*
D13*
X64770000Y-63500000D03*
X64770000Y-60960000D03*
X64770000Y-58420000D03*
X64770000Y-55880000D03*
D14*
X64770000Y-53340000D03*
D13*
X64770000Y-46990000D03*
X64770000Y-44450000D03*
X64770000Y-41910000D03*
X64770000Y-39370000D03*
D14*
X64770000Y-36830000D03*
D13*
X184150000Y-129540000D03*
X184150000Y-127000000D03*
X184150000Y-124460000D03*
X184150000Y-121920000D03*
D14*
X184150000Y-119380000D03*
D13*
X137160000Y-162560000D03*
X139700000Y-162560000D03*
X142240000Y-162560000D03*
X144780000Y-162560000D03*
D14*
X147320000Y-162560000D03*
D13*
X154940000Y-20320000D03*
X152400000Y-20320000D03*
X149860000Y-20320000D03*
X147320000Y-20320000D03*
D14*
X144780000Y-20320000D03*
D13*
X184150000Y-66040000D03*
X184150000Y-63500000D03*
X184150000Y-60960000D03*
X184150000Y-58420000D03*
D14*
X184150000Y-55880000D03*
D13*
X184150000Y-97790000D03*
X184150000Y-95250000D03*
X184150000Y-92710000D03*
X184150000Y-90170000D03*
D14*
X184150000Y-87630000D03*
D15*
X77470000Y-22860000D03*
D16*
X74930000Y-22860000D03*
D17*
X161290000Y-137160000D03*
D18*
X173990000Y-137160000D03*
D17*
X161290000Y-130810000D03*
D18*
X173990000Y-130810000D03*
D17*
X161290000Y-124460000D03*
D18*
X173990000Y-124460000D03*
D17*
X161290000Y-118110000D03*
D18*
X173990000Y-118110000D03*
D17*
X161290000Y-111760000D03*
D18*
X173990000Y-111760000D03*
D17*
X129540000Y-139700000D03*
D18*
X129540000Y-152400000D03*
D17*
X135890000Y-139700000D03*
D18*
X135890000Y-152400000D03*
D17*
X142240000Y-139700000D03*
D18*
X142240000Y-152400000D03*
D17*
X148590000Y-139700000D03*
D18*
X148590000Y-152400000D03*
D17*
X154940000Y-139700000D03*
D18*
X154940000Y-152400000D03*
D17*
X162560000Y-43180000D03*
D18*
X162560000Y-30480000D03*
D17*
X156210000Y-43180000D03*
D18*
X156210000Y-30480000D03*
D17*
X149860000Y-43180000D03*
D18*
X149860000Y-30480000D03*
D17*
X143510000Y-43180000D03*
D18*
X143510000Y-30480000D03*
D17*
X137160000Y-43180000D03*
D18*
X137160000Y-30480000D03*
D17*
X161290000Y-73660000D03*
D18*
X173990000Y-73660000D03*
D17*
X161290000Y-67310000D03*
D18*
X173990000Y-67310000D03*
D17*
X161290000Y-60960000D03*
D18*
X173990000Y-60960000D03*
D17*
X161290000Y-54610000D03*
D18*
X173990000Y-54610000D03*
D17*
X161290000Y-48260000D03*
D18*
X173990000Y-48260000D03*
D17*
X161290000Y-105410000D03*
D18*
X173990000Y-105410000D03*
D17*
X161290000Y-99060000D03*
D18*
X173990000Y-99060000D03*
D17*
X161290000Y-92710000D03*
D18*
X173990000Y-92710000D03*
D17*
X161290000Y-86360000D03*
D18*
X173990000Y-86360000D03*
D17*
X161290000Y-80010000D03*
D18*
X173990000Y-80010000D03*
D13*
X125730000Y-21590000D03*
D14*
X128270000Y-21590000D03*
D13*
X100330000Y-21590000D03*
X97790000Y-21590000D03*
X95250000Y-21590000D03*
X92710000Y-21590000D03*
X90170000Y-21590000D03*
D14*
X87630000Y-21590000D03*
D19*
X132080000Y-80010000D03*
D12*
X134580000Y-80010000D03*
D20*
X124460000Y-120650000D03*
D21*
X126460000Y-120650000D03*
D14*
X134620000Y-120650000D03*
X111760000Y-21590000D03*
D13*
X114300000Y-21590000D03*
X116840000Y-21590000D03*
X119380000Y-21590000D03*
D14*
X105410000Y-64770000D03*
D13*
X105410000Y-67310000D03*
X105410000Y-69850000D03*
X105410000Y-72390000D03*
X105410000Y-74930000D03*
X105410000Y-77470000D03*
X105410000Y-80010000D03*
X105410000Y-82550000D03*
X105410000Y-85090000D03*
X105410000Y-87630000D03*
X105410000Y-90170000D03*
X105410000Y-92710000D03*
X105410000Y-95250000D03*
X105410000Y-97790000D03*
X105410000Y-100330000D03*
X105410000Y-102870000D03*
D14*
X125730000Y-74930000D03*
D13*
X125730000Y-77470000D03*
X125730000Y-80010000D03*
X125730000Y-82550000D03*
X125730000Y-85090000D03*
X125730000Y-87630000D03*
X125730000Y-90170000D03*
X125730000Y-92710000D03*
X125730000Y-95250000D03*
X125730000Y-97790000D03*
X125730000Y-100330000D03*
X125730000Y-102870000D03*
D22*
X104457500Y-115889999D03*
X104457500Y-117790001D03*
X106362500Y-116840000D03*
D12*
X97790000Y-138430000D03*
D11*
X97790000Y-118110000D03*
X91440000Y-115570000D03*
D12*
X91440000Y-135890000D03*
D23*
X102870000Y-148590000D03*
X101600000Y-151130000D03*
X100330000Y-148590000D03*
X99060000Y-151130000D03*
X97790000Y-148590000D03*
X96520000Y-151130000D03*
X95250000Y-148590000D03*
D24*
X93980000Y-151130000D03*
X110490000Y-151130000D03*
D23*
X111760000Y-148590000D03*
X113030000Y-151130000D03*
X114300000Y-148590000D03*
X115570000Y-151130000D03*
X116840000Y-148590000D03*
X118110000Y-151130000D03*
X119380000Y-148590000D03*
D25*
X120015000Y-115388652D03*
X118745000Y-115388652D03*
X117475000Y-115388652D03*
X116205000Y-115388652D03*
X116205000Y-120831348D03*
X117475000Y-120831348D03*
X118745000Y-120831348D03*
X120015000Y-120831348D03*
D26*
X114118652Y-120831348D03*
X100330000Y-63500000D03*
X107950000Y-36830000D03*
X115570000Y-101600000D03*
D27*
X111251548Y-120831348D02*
X114118652Y-120831348D01*
X106362500Y-116840000D02*
X107260200Y-116840000D01*
X107260200Y-116840000D02*
X111251548Y-120831348D01*
X105410000Y-72390000D02*
X121920000Y-88900000D01*
X121920000Y-88900000D02*
X121920000Y-102870000D01*
X134620000Y-115570000D02*
X134620000Y-120650000D01*
X121920000Y-102870000D02*
X134620000Y-115570000D01*
X114118652Y-120831348D02*
X116205000Y-120831348D01*
D28*
X124278652Y-120831348D02*
X124460000Y-120650000D01*
D27*
X120015000Y-120831348D02*
X124278652Y-120831348D01*
X100330000Y-21590000D02*
X97790000Y-21590000D01*
X87630000Y-21590000D02*
X90170000Y-21590000D01*
X92710000Y-21590000D02*
X95250000Y-21590000D01*
X97790000Y-21590000D02*
X95250000Y-21590000D01*
X92710000Y-21590000D02*
X90170000Y-21590000D01*
X100330000Y-63432081D02*
X104207919Y-67310000D01*
X104207919Y-67310000D02*
X105410000Y-67310000D01*
X100330000Y-21590000D02*
X100330000Y-63432081D01*
X97790000Y-29210000D02*
X97790000Y-21590000D01*
X64770000Y-36830000D02*
X64770000Y-39370000D01*
X64770000Y-39370000D02*
X64770000Y-41910000D01*
X64770000Y-44450000D02*
X64770000Y-41910000D01*
X64770000Y-46990000D02*
X64770000Y-44450000D01*
X64770000Y-41910000D02*
X68580000Y-41910000D01*
X64770000Y-46990000D02*
X88900000Y-46990000D01*
X88900000Y-46990000D02*
X95250000Y-53340000D01*
X104560001Y-76620001D02*
X105410000Y-77470000D01*
X95250000Y-67310000D02*
X104560001Y-76620001D01*
X95250000Y-53340000D02*
X95250000Y-67310000D01*
X64770000Y-53340000D02*
X64770000Y-55880000D01*
X64770000Y-55880000D02*
X64770000Y-58420000D01*
X64770000Y-58420000D02*
X64770000Y-60960000D01*
X64770000Y-60960000D02*
X64770000Y-63500000D01*
X64770000Y-55880000D02*
X68580000Y-55880000D01*
X64770000Y-63500000D02*
X86360000Y-63500000D01*
X102870000Y-80010000D02*
X105410000Y-80010000D01*
X86360000Y-63500000D02*
X102870000Y-80010000D01*
X64770000Y-80010000D02*
X64770000Y-77470000D01*
X64770000Y-77470000D02*
X64770000Y-74930000D01*
X64770000Y-74930000D02*
X64770000Y-72390000D01*
X64770000Y-69850000D02*
X64770000Y-72390000D01*
X64770000Y-72390000D02*
X68580000Y-72390000D01*
X67310000Y-82550000D02*
X105410000Y-82550000D01*
X64770000Y-80010000D02*
X67310000Y-82550000D01*
X118745000Y-115388652D02*
X117475000Y-115388652D01*
X117475000Y-115388652D02*
X117475000Y-108585000D01*
X117475000Y-108585000D02*
X110490000Y-101600000D01*
X110490000Y-90170000D02*
X105410000Y-85090000D01*
X110490000Y-101600000D02*
X110490000Y-90170000D01*
X64770000Y-113030000D02*
X64770000Y-110490000D01*
X64770000Y-110490000D02*
X64770000Y-107950000D01*
X64770000Y-107950000D02*
X64770000Y-105410000D01*
X64770000Y-105410000D02*
X64770000Y-102870000D01*
X64770000Y-102870000D02*
X68580000Y-102870000D01*
X116840000Y-21590000D02*
X116840000Y-27940000D01*
X116840000Y-27940000D02*
X115570000Y-29210000D01*
X115570000Y-29210000D02*
X107950000Y-36830000D01*
X107950000Y-36830000D02*
X107950000Y-36830000D01*
X64770000Y-86360000D02*
X64770000Y-88900000D01*
X64770000Y-88900000D02*
X64770000Y-91440000D01*
X64770000Y-91440000D02*
X64770000Y-93980000D01*
X64770000Y-93980000D02*
X64770000Y-96520000D01*
X64770000Y-88900000D02*
X68580000Y-88900000D01*
X99060000Y-93980000D02*
X105410000Y-87630000D01*
X64770000Y-93980000D02*
X99060000Y-93980000D01*
X120015000Y-115388652D02*
X120015000Y-106045000D01*
X120015000Y-106045000D02*
X115570000Y-101600000D01*
X115570000Y-101600000D02*
X115570000Y-101600000D01*
X116205000Y-111125000D02*
X105410000Y-100330000D01*
X116205000Y-115388652D02*
X116205000Y-111125000D01*
X137160000Y-43180000D02*
X143510000Y-43180000D01*
X143510000Y-43180000D02*
X149860000Y-43180000D01*
X149860000Y-43180000D02*
X156210000Y-43180000D01*
X156210000Y-43180000D02*
X162560000Y-43180000D01*
X137160000Y-71120000D02*
X125730000Y-82550000D01*
X137160000Y-43180000D02*
X137160000Y-71120000D01*
X161290000Y-48260000D02*
X161290000Y-54610000D01*
X161290000Y-54610000D02*
X161290000Y-60960000D01*
X161290000Y-60960000D02*
X161290000Y-67310000D01*
X161290000Y-67310000D02*
X161290000Y-73660000D01*
X149860000Y-85090000D02*
X125730000Y-85090000D01*
X161290000Y-73660000D02*
X149860000Y-85090000D01*
X161290000Y-80010000D02*
X161290000Y-86360000D01*
X161290000Y-86360000D02*
X161290000Y-92710000D01*
X161290000Y-92710000D02*
X161290000Y-99060000D01*
X161290000Y-99060000D02*
X161290000Y-105410000D01*
X161290000Y-86360000D02*
X156210000Y-86360000D01*
X154940000Y-87630000D02*
X125730000Y-87630000D01*
X156210000Y-86360000D02*
X154940000Y-87630000D01*
X161290000Y-111760000D02*
X161290000Y-118110000D01*
X161290000Y-118110000D02*
X161290000Y-124460000D01*
X161290000Y-124460000D02*
X161290000Y-129540000D01*
X161290000Y-129540000D02*
X161290000Y-130810000D01*
X161290000Y-130810000D02*
X161290000Y-137160000D01*
X142240000Y-111760000D02*
X125730000Y-95250000D01*
X161290000Y-111760000D02*
X142240000Y-111760000D01*
X129540000Y-139700000D02*
X135890000Y-139700000D01*
X135890000Y-139700000D02*
X142240000Y-139700000D01*
X142240000Y-139700000D02*
X148590000Y-139700000D01*
X148590000Y-139700000D02*
X154940000Y-139700000D01*
X148590000Y-120650000D02*
X125730000Y-97790000D01*
X148590000Y-139700000D02*
X148590000Y-120650000D01*
X104137501Y-115570000D02*
X104457500Y-115889999D01*
X91440000Y-115570000D02*
X104137501Y-115570000D01*
X104137501Y-118110000D02*
X104457500Y-117790001D01*
X97790000Y-118110000D02*
X104137501Y-118110000D01*
X98921370Y-138430000D02*
X97790000Y-138430000D01*
X100742800Y-138430000D02*
X98921370Y-138430000D01*
X117475000Y-121697800D02*
X100742800Y-138430000D01*
X117475000Y-120831348D02*
X117475000Y-121697800D01*
D28*
X92239999Y-136689999D02*
X91440000Y-135890000D01*
D27*
X101600000Y-153670000D02*
X99060000Y-151130000D01*
X115570000Y-151130000D02*
X113030000Y-153670000D01*
X118745000Y-122308797D02*
X118745000Y-120831348D01*
X107950000Y-133103797D02*
X118745000Y-122308797D01*
X107950000Y-153670000D02*
X101600000Y-153670000D01*
X113030000Y-153670000D02*
X107950000Y-153670000D01*
X107950000Y-142240000D02*
X107950000Y-133103797D01*
X107950000Y-153670000D02*
X107950000Y-142240000D01*
X91440000Y-135890000D02*
X91440000Y-138430000D01*
X95250000Y-142240000D02*
X107950000Y-142240000D01*
X91440000Y-138430000D02*
X95250000Y-142240000D01*
X182550000Y-87630000D02*
X184150000Y-87630000D01*
X173990000Y-81760000D02*
X179860000Y-87630000D01*
X179860000Y-87630000D02*
X182550000Y-87630000D01*
X173990000Y-80010000D02*
X173990000Y-81760000D01*
X182947919Y-90170000D02*
X184150000Y-90170000D01*
X179550000Y-90170000D02*
X182947919Y-90170000D01*
X175740000Y-86360000D02*
X179550000Y-90170000D01*
X173990000Y-86360000D02*
X175740000Y-86360000D01*
X173990000Y-92710000D02*
X184150000Y-92710000D01*
X175740000Y-99060000D02*
X179550000Y-95250000D01*
X173990000Y-99060000D02*
X175740000Y-99060000D01*
X179550000Y-95250000D02*
X184150000Y-95250000D01*
X179860000Y-97790000D02*
X182947919Y-97790000D01*
X173990000Y-103660000D02*
X179860000Y-97790000D01*
X182947919Y-97790000D02*
X184150000Y-97790000D01*
X173990000Y-105410000D02*
X173990000Y-103660000D01*
X182550000Y-55880000D02*
X184150000Y-55880000D01*
X179860000Y-55880000D02*
X182550000Y-55880000D01*
X173990000Y-50010000D02*
X179860000Y-55880000D01*
X173990000Y-48260000D02*
X173990000Y-50010000D01*
X179550000Y-58420000D02*
X182947919Y-58420000D01*
X175740000Y-54610000D02*
X179550000Y-58420000D01*
X182947919Y-58420000D02*
X184150000Y-58420000D01*
X173990000Y-54610000D02*
X175740000Y-54610000D01*
X173990000Y-60960000D02*
X184150000Y-60960000D01*
X175740000Y-67310000D02*
X179550000Y-63500000D01*
X173990000Y-67310000D02*
X175740000Y-67310000D01*
X179550000Y-63500000D02*
X184150000Y-63500000D01*
X182947919Y-66040000D02*
X184150000Y-66040000D01*
X179860000Y-66040000D02*
X182947919Y-66040000D01*
X173990000Y-71910000D02*
X179860000Y-66040000D01*
X173990000Y-73660000D02*
X173990000Y-71910000D01*
X138910000Y-30480000D02*
X137160000Y-30480000D01*
X144780000Y-24610000D02*
X138910000Y-30480000D01*
X144780000Y-20320000D02*
X144780000Y-24610000D01*
X147320000Y-21522081D02*
X147320000Y-20320000D01*
X147320000Y-24920000D02*
X147320000Y-21522081D01*
X143510000Y-28730000D02*
X147320000Y-24920000D01*
X143510000Y-30480000D02*
X143510000Y-28730000D01*
X149860000Y-28730000D02*
X149860000Y-20320000D01*
X149860000Y-30480000D02*
X149860000Y-28730000D01*
X152400000Y-24920000D02*
X152400000Y-20320000D01*
X156210000Y-30480000D02*
X156210000Y-28730000D01*
X156210000Y-28730000D02*
X152400000Y-24920000D01*
X154940000Y-24610000D02*
X154940000Y-21522081D01*
X160810000Y-30480000D02*
X154940000Y-24610000D01*
X154940000Y-21522081D02*
X154940000Y-20320000D01*
X162560000Y-30480000D02*
X160810000Y-30480000D01*
X147320000Y-158270000D02*
X147320000Y-160960000D01*
X147320000Y-160960000D02*
X147320000Y-162560000D01*
X153190000Y-152400000D02*
X147320000Y-158270000D01*
X154940000Y-152400000D02*
X153190000Y-152400000D01*
X148590000Y-154150000D02*
X144780000Y-157960000D01*
X144780000Y-161357919D02*
X144780000Y-162560000D01*
X144780000Y-157960000D02*
X144780000Y-161357919D01*
X148590000Y-152400000D02*
X148590000Y-154150000D01*
X142240000Y-152400000D02*
X142240000Y-162560000D01*
X139700000Y-161357919D02*
X139700000Y-162560000D01*
X139700000Y-157960000D02*
X139700000Y-161357919D01*
X135890000Y-154150000D02*
X139700000Y-157960000D01*
X135890000Y-152400000D02*
X135890000Y-154150000D01*
X131290000Y-152400000D02*
X129540000Y-152400000D01*
X137160000Y-158270000D02*
X131290000Y-152400000D01*
X137160000Y-162560000D02*
X137160000Y-158270000D01*
X182550000Y-119380000D02*
X184150000Y-119380000D01*
X179860000Y-119380000D02*
X182550000Y-119380000D01*
X173990000Y-113510000D02*
X179860000Y-119380000D01*
X173990000Y-111760000D02*
X173990000Y-113510000D01*
X182947919Y-121920000D02*
X184150000Y-121920000D01*
X179550000Y-121920000D02*
X182947919Y-121920000D01*
X175740000Y-118110000D02*
X179550000Y-121920000D01*
X173990000Y-118110000D02*
X175740000Y-118110000D01*
X173990000Y-124460000D02*
X184150000Y-124460000D01*
X175740000Y-130810000D02*
X179550000Y-127000000D01*
X173990000Y-130810000D02*
X175740000Y-130810000D01*
X179550000Y-127000000D02*
X184150000Y-127000000D01*
X182947919Y-129540000D02*
X184150000Y-129540000D01*
X179860000Y-129540000D02*
X182947919Y-129540000D01*
X173990000Y-135410000D02*
X179860000Y-129540000D01*
X173990000Y-137160000D02*
X173990000Y-135410000D01*
X77470000Y-29210000D02*
X77470000Y-22860000D01*
M02*
