G04 #@! TF.GenerationSoftware,KiCad,Pcbnew,(5.1.5)-3*
G04 #@! TF.CreationDate,2020-02-27T12:53:11-05:00*
G04 #@! TF.ProjectId,input board,696e7075-7420-4626-9f61-72642e6b6963,rev?*
G04 #@! TF.SameCoordinates,Original*
G04 #@! TF.FileFunction,Copper,L2,Bot*
G04 #@! TF.FilePolarity,Positive*
%FSLAX46Y46*%
G04 Gerber Fmt 4.6, Leading zero omitted, Abs format (unit mm)*
G04 Created by KiCad (PCBNEW (5.1.5)-3) date 2020-02-27 12:53:11*
%MOMM*%
%LPD*%
G04 APERTURE LIST*
%ADD10C,0.050000*%
%ADD11O,1.700000X1.700000*%
%ADD12R,1.700000X1.700000*%
%ADD13R,1.600000X1.600000*%
%ADD14C,1.600000*%
%ADD15R,1.200000X1.200000*%
%ADD16C,1.200000*%
%ADD17O,2.000000X2.000000*%
%ADD18R,2.000000X2.000000*%
%ADD19O,1.600000X1.600000*%
%ADD20C,1.500000*%
%ADD21R,1.500000X1.500000*%
%ADD22C,0.800000*%
%ADD23C,0.750000*%
%ADD24C,0.254000*%
G04 APERTURE END LIST*
D10*
X57150000Y-17780000D02*
X207010000Y-17780000D01*
X57150000Y-166370000D02*
X57150000Y-17780000D01*
X207010000Y-166370000D02*
X57150000Y-166370000D01*
X207010000Y-17780000D02*
X207010000Y-166370000D01*
D11*
X125730000Y-21590000D03*
D12*
X128270000Y-21590000D03*
D11*
X100330000Y-21590000D03*
X97790000Y-21590000D03*
X95250000Y-21590000D03*
X92710000Y-21590000D03*
X90170000Y-21590000D03*
D12*
X87630000Y-21590000D03*
D13*
X132080000Y-80010000D03*
D14*
X134580000Y-80010000D03*
D15*
X124460000Y-120650000D03*
D16*
X126460000Y-120650000D03*
D17*
X68580000Y-27940000D03*
D18*
X81280000Y-27940000D03*
X81280000Y-59690000D03*
D17*
X68580000Y-59690000D03*
X68580000Y-91440000D03*
D18*
X81280000Y-91440000D03*
D17*
X68580000Y-123190000D03*
D18*
X81280000Y-123190000D03*
D17*
X189230000Y-96520000D03*
D18*
X176530000Y-96520000D03*
X81280000Y-34290000D03*
D17*
X68580000Y-34290000D03*
D18*
X81280000Y-66040000D03*
D17*
X68580000Y-66040000D03*
D18*
X81280000Y-97790000D03*
D17*
X68580000Y-97790000D03*
D18*
X81280000Y-129540000D03*
D17*
X68580000Y-129540000D03*
X189230000Y-102870000D03*
D18*
X176530000Y-102870000D03*
X81280000Y-40640000D03*
D17*
X68580000Y-40640000D03*
D18*
X81280000Y-72390000D03*
D17*
X68580000Y-72390000D03*
D18*
X81280000Y-104140000D03*
D17*
X68580000Y-104140000D03*
D18*
X81280000Y-135890000D03*
D17*
X68580000Y-135890000D03*
D18*
X176530000Y-109220000D03*
D17*
X189230000Y-109220000D03*
X68580000Y-46990000D03*
D18*
X81280000Y-46990000D03*
D17*
X68580000Y-78740000D03*
D18*
X81280000Y-78740000D03*
D17*
X68580000Y-110490000D03*
D18*
X81280000Y-110490000D03*
D17*
X68580000Y-142240000D03*
D18*
X81280000Y-142240000D03*
D17*
X189230000Y-115570000D03*
D18*
X176530000Y-115570000D03*
X81280000Y-53340000D03*
D17*
X68580000Y-53340000D03*
X68580000Y-85090000D03*
D18*
X81280000Y-85090000D03*
X81280000Y-116840000D03*
D17*
X68580000Y-116840000D03*
X68580000Y-148590000D03*
D18*
X81280000Y-148590000D03*
X176530000Y-121920000D03*
D17*
X189230000Y-121920000D03*
D12*
X134620000Y-120650000D03*
D11*
X59690000Y-45720000D03*
X59690000Y-43180000D03*
X59690000Y-40640000D03*
X59690000Y-38100000D03*
D12*
X59690000Y-35560000D03*
X59690000Y-67310000D03*
D11*
X59690000Y-69850000D03*
X59690000Y-72390000D03*
X59690000Y-74930000D03*
X59690000Y-77470000D03*
X59690000Y-109220000D03*
X59690000Y-106680000D03*
X59690000Y-104140000D03*
X59690000Y-101600000D03*
D12*
X59690000Y-99060000D03*
X59690000Y-130810000D03*
D11*
X59690000Y-133350000D03*
X59690000Y-135890000D03*
X59690000Y-138430000D03*
X59690000Y-140970000D03*
D12*
X198120000Y-104140000D03*
D11*
X198120000Y-106680000D03*
X198120000Y-109220000D03*
X198120000Y-111760000D03*
X198120000Y-114300000D03*
X198120000Y-78740000D03*
X198120000Y-76200000D03*
X198120000Y-73660000D03*
X198120000Y-71120000D03*
D12*
X198120000Y-68580000D03*
X198120000Y-31750000D03*
D11*
X198120000Y-34290000D03*
X198120000Y-36830000D03*
X198120000Y-39370000D03*
X198120000Y-41910000D03*
X149860000Y-30480000D03*
X147320000Y-30480000D03*
X144780000Y-30480000D03*
X142240000Y-30480000D03*
D12*
X139700000Y-30480000D03*
X151130000Y-162560000D03*
D11*
X148590000Y-162560000D03*
X146050000Y-162560000D03*
X143510000Y-162560000D03*
X140970000Y-162560000D03*
X198120000Y-152400000D03*
X198120000Y-149860000D03*
X198120000Y-147320000D03*
X198120000Y-144780000D03*
D12*
X198120000Y-142240000D03*
X111760000Y-21590000D03*
D11*
X114300000Y-21590000D03*
X116840000Y-21590000D03*
X119380000Y-21590000D03*
D12*
X105410000Y-64770000D03*
D11*
X105410000Y-67310000D03*
X105410000Y-69850000D03*
X105410000Y-72390000D03*
X105410000Y-74930000D03*
X105410000Y-77470000D03*
X105410000Y-80010000D03*
X105410000Y-82550000D03*
X105410000Y-85090000D03*
X105410000Y-87630000D03*
X105410000Y-90170000D03*
X105410000Y-92710000D03*
X105410000Y-95250000D03*
X105410000Y-97790000D03*
X105410000Y-100330000D03*
X105410000Y-102870000D03*
D12*
X125730000Y-74930000D03*
D11*
X125730000Y-77470000D03*
X125730000Y-80010000D03*
X125730000Y-82550000D03*
X125730000Y-85090000D03*
X125730000Y-87630000D03*
X125730000Y-90170000D03*
X125730000Y-92710000D03*
X125730000Y-95250000D03*
X125730000Y-97790000D03*
X125730000Y-100330000D03*
X125730000Y-102870000D03*
D14*
X189230000Y-59690000D03*
D19*
X168910000Y-59690000D03*
X168910000Y-67310000D03*
D14*
X189230000Y-67310000D03*
X189230000Y-73660000D03*
D19*
X168910000Y-73660000D03*
X168910000Y-81280000D03*
D14*
X189230000Y-81280000D03*
X189230000Y-88900000D03*
D19*
X168910000Y-88900000D03*
X168910000Y-21590000D03*
D14*
X189230000Y-21590000D03*
X189230000Y-29210000D03*
D19*
X168910000Y-29210000D03*
X168910000Y-36830000D03*
D14*
X189230000Y-36830000D03*
X189230000Y-44450000D03*
D19*
X168910000Y-44450000D03*
X168910000Y-52070000D03*
D14*
X189230000Y-52070000D03*
X129540000Y-40640000D03*
D19*
X129540000Y-60960000D03*
X137160000Y-60960000D03*
D14*
X137160000Y-40640000D03*
X144780000Y-40640000D03*
D19*
X144780000Y-60960000D03*
X152400000Y-60960000D03*
D14*
X152400000Y-40640000D03*
X160020000Y-40640000D03*
D19*
X160020000Y-60960000D03*
X161290000Y-132080000D03*
D14*
X161290000Y-152400000D03*
X153670000Y-152400000D03*
D19*
X153670000Y-132080000D03*
X146050000Y-132080000D03*
D14*
X146050000Y-152400000D03*
X138430000Y-152400000D03*
D19*
X138430000Y-132080000D03*
X130810000Y-132080000D03*
D14*
X130810000Y-152400000D03*
D19*
X168910000Y-132080000D03*
D14*
X189230000Y-132080000D03*
X189230000Y-139700000D03*
D19*
X168910000Y-139700000D03*
X168910000Y-147320000D03*
D14*
X189230000Y-147320000D03*
X189230000Y-154940000D03*
D19*
X168910000Y-154940000D03*
D14*
X189230000Y-162560000D03*
D19*
X168910000Y-162560000D03*
D14*
X97790000Y-138430000D03*
D19*
X97790000Y-118110000D03*
X91440000Y-115570000D03*
D14*
X91440000Y-135890000D03*
D20*
X102870000Y-148590000D03*
X101600000Y-151130000D03*
X100330000Y-148590000D03*
X99060000Y-151130000D03*
X97790000Y-148590000D03*
X96520000Y-151130000D03*
X95250000Y-148590000D03*
D21*
X93980000Y-151130000D03*
X110490000Y-151130000D03*
D20*
X111760000Y-148590000D03*
X113030000Y-151130000D03*
X114300000Y-148590000D03*
X115570000Y-151130000D03*
X116840000Y-148590000D03*
X118110000Y-151130000D03*
X119380000Y-148590000D03*
D22*
X114118652Y-120831348D03*
X100330000Y-63500000D03*
X115570000Y-101600000D03*
D23*
X132080000Y-80010000D02*
X125730000Y-80010000D01*
X125730000Y-21590000D02*
X125730000Y-63500000D01*
X132080000Y-69850000D02*
X132080000Y-80010000D01*
X125730000Y-63500000D02*
X132080000Y-69850000D01*
X134620000Y-122250000D02*
X131140000Y-125730000D01*
X134620000Y-120650000D02*
X134620000Y-122250000D01*
X114118652Y-120831348D02*
X114118652Y-121738652D01*
X118110000Y-125730000D02*
X131140000Y-125730000D01*
X114118652Y-121738652D02*
X118110000Y-125730000D01*
X100330000Y-63500000D02*
X100330000Y-63500000D01*
X124460000Y-113030000D02*
X124460000Y-120650000D01*
X120650000Y-109220000D02*
X124460000Y-113030000D01*
X105410000Y-109220000D02*
X120650000Y-109220000D01*
X100330000Y-63500000D02*
X100330000Y-104140000D01*
X100330000Y-104140000D02*
X105410000Y-109220000D01*
X111760000Y-86360000D02*
X105410000Y-92710000D01*
X111760000Y-21590000D02*
X111760000Y-86360000D01*
X106259999Y-94400001D02*
X105410000Y-95250000D01*
X114300000Y-86360000D02*
X106259999Y-94400001D01*
X114300000Y-21590000D02*
X114300000Y-86360000D01*
X110409999Y-20114999D02*
X101600000Y-28924998D01*
X116840000Y-21590000D02*
X115364999Y-20114999D01*
X115364999Y-20114999D02*
X110409999Y-20114999D01*
X101600000Y-86360000D02*
X105410000Y-90170000D01*
X101600000Y-28924998D02*
X101600000Y-86360000D01*
X119380000Y-86360000D02*
X119380000Y-21590000D01*
X125730000Y-92710000D02*
X119380000Y-86360000D01*
X109220000Y-101600000D02*
X105410000Y-97790000D01*
X115570000Y-101600000D02*
X109220000Y-101600000D01*
X97790000Y-138430000D02*
X97790000Y-148590000D01*
X113550001Y-147840001D02*
X114300000Y-148590000D01*
X99165001Y-147214999D02*
X112924999Y-147214999D01*
X112924999Y-147214999D02*
X113550001Y-147840001D01*
X97790000Y-148590000D02*
X99165001Y-147214999D01*
D24*
G36*
X110021619Y-19177367D02*
G01*
X109846159Y-19271152D01*
X109692366Y-19397366D01*
X109660738Y-19435905D01*
X100920906Y-28175737D01*
X100882367Y-28207365D01*
X100756153Y-28361158D01*
X100662369Y-28536618D01*
X100662368Y-28536619D01*
X100604615Y-28727004D01*
X100585114Y-28924998D01*
X100590000Y-28974606D01*
X100590001Y-62496440D01*
X100431939Y-62465000D01*
X100228061Y-62465000D01*
X100028102Y-62504774D01*
X99839744Y-62582795D01*
X99670226Y-62696063D01*
X99526063Y-62840226D01*
X99412795Y-63009744D01*
X99334774Y-63198102D01*
X99295000Y-63398061D01*
X99295000Y-63601939D01*
X99320000Y-63727624D01*
X99320001Y-104090382D01*
X99315114Y-104140000D01*
X99334615Y-104337994D01*
X99392368Y-104528379D01*
X99392369Y-104528380D01*
X99486154Y-104703840D01*
X99612368Y-104857633D01*
X99650901Y-104889256D01*
X104660743Y-109899099D01*
X104692367Y-109937633D01*
X104846160Y-110063847D01*
X105021620Y-110157632D01*
X105212005Y-110215385D01*
X105410000Y-110234886D01*
X105459608Y-110230000D01*
X120231645Y-110230000D01*
X123450000Y-113448356D01*
X123450001Y-119565015D01*
X123408815Y-119598815D01*
X123329463Y-119695506D01*
X123270498Y-119805820D01*
X123234188Y-119925518D01*
X123221928Y-120050000D01*
X123221928Y-121250000D01*
X123234188Y-121374482D01*
X123270498Y-121494180D01*
X123329463Y-121604494D01*
X123408815Y-121701185D01*
X123505506Y-121780537D01*
X123615820Y-121839502D01*
X123735518Y-121875812D01*
X123860000Y-121888072D01*
X125060000Y-121888072D01*
X125184482Y-121875812D01*
X125304180Y-121839502D01*
X125414494Y-121780537D01*
X125511185Y-121701185D01*
X125590537Y-121604494D01*
X125614858Y-121558994D01*
X125672736Y-121616872D01*
X125789842Y-121499766D01*
X125837148Y-121723348D01*
X126058516Y-121824237D01*
X126295313Y-121880000D01*
X126538438Y-121888495D01*
X126778549Y-121849395D01*
X127006418Y-121764202D01*
X127082852Y-121723348D01*
X127130109Y-121500000D01*
X133131928Y-121500000D01*
X133144188Y-121624482D01*
X133180498Y-121744180D01*
X133239463Y-121854494D01*
X133318815Y-121951185D01*
X133415506Y-122030537D01*
X133525820Y-122089502D01*
X133645518Y-122125812D01*
X133770000Y-122138072D01*
X134334250Y-122135000D01*
X134493000Y-121976250D01*
X134493000Y-120777000D01*
X134747000Y-120777000D01*
X134747000Y-121976250D01*
X134905750Y-122135000D01*
X135470000Y-122138072D01*
X135594482Y-122125812D01*
X135714180Y-122089502D01*
X135824494Y-122030537D01*
X135921185Y-121951185D01*
X136000537Y-121854494D01*
X136059502Y-121744180D01*
X136095812Y-121624482D01*
X136108072Y-121500000D01*
X136105000Y-120935750D01*
X135946250Y-120777000D01*
X134747000Y-120777000D01*
X134493000Y-120777000D01*
X133293750Y-120777000D01*
X133135000Y-120935750D01*
X133131928Y-121500000D01*
X127130109Y-121500000D01*
X127130159Y-121499764D01*
X126460000Y-120829605D01*
X126445858Y-120843748D01*
X126266253Y-120664143D01*
X126280395Y-120650000D01*
X126639605Y-120650000D01*
X127309764Y-121320159D01*
X127533348Y-121272852D01*
X127634237Y-121051484D01*
X127690000Y-120814687D01*
X127698495Y-120571562D01*
X127659395Y-120331451D01*
X127574202Y-120103582D01*
X127533348Y-120027148D01*
X127309764Y-119979841D01*
X126639605Y-120650000D01*
X126280395Y-120650000D01*
X126266253Y-120635858D01*
X126445858Y-120456253D01*
X126460000Y-120470395D01*
X127130159Y-119800236D01*
X127130110Y-119800000D01*
X133131928Y-119800000D01*
X133135000Y-120364250D01*
X133293750Y-120523000D01*
X134493000Y-120523000D01*
X134493000Y-119323750D01*
X134747000Y-119323750D01*
X134747000Y-120523000D01*
X135946250Y-120523000D01*
X136105000Y-120364250D01*
X136108072Y-119800000D01*
X136095812Y-119675518D01*
X136059502Y-119555820D01*
X136000537Y-119445506D01*
X135921185Y-119348815D01*
X135824494Y-119269463D01*
X135714180Y-119210498D01*
X135594482Y-119174188D01*
X135470000Y-119161928D01*
X134905750Y-119165000D01*
X134747000Y-119323750D01*
X134493000Y-119323750D01*
X134334250Y-119165000D01*
X133770000Y-119161928D01*
X133645518Y-119174188D01*
X133525820Y-119210498D01*
X133415506Y-119269463D01*
X133318815Y-119348815D01*
X133239463Y-119445506D01*
X133180498Y-119555820D01*
X133144188Y-119675518D01*
X133131928Y-119800000D01*
X127130110Y-119800000D01*
X127082852Y-119576652D01*
X126861484Y-119475763D01*
X126624687Y-119420000D01*
X126381562Y-119411505D01*
X126141451Y-119450605D01*
X125913582Y-119535798D01*
X125837148Y-119576652D01*
X125789842Y-119800234D01*
X125672736Y-119683128D01*
X125614858Y-119741006D01*
X125590537Y-119695506D01*
X125511185Y-119598815D01*
X125470000Y-119565015D01*
X125470000Y-113079608D01*
X125474886Y-113030000D01*
X125455385Y-112832005D01*
X125397632Y-112641620D01*
X125303846Y-112466159D01*
X125209256Y-112350900D01*
X125177633Y-112312367D01*
X125139100Y-112280744D01*
X121399261Y-108540906D01*
X121367633Y-108502367D01*
X121213840Y-108376153D01*
X121038380Y-108282368D01*
X120847994Y-108224615D01*
X120699608Y-108210000D01*
X120650000Y-108205114D01*
X120600392Y-108210000D01*
X105828356Y-108210000D01*
X101340000Y-103721645D01*
X101340000Y-103226890D01*
X103968524Y-103226890D01*
X104013175Y-103374099D01*
X104138359Y-103636920D01*
X104312412Y-103870269D01*
X104528645Y-104065178D01*
X104778748Y-104214157D01*
X105053109Y-104311481D01*
X105283000Y-104190814D01*
X105283000Y-102997000D01*
X105537000Y-102997000D01*
X105537000Y-104190814D01*
X105766891Y-104311481D01*
X106041252Y-104214157D01*
X106291355Y-104065178D01*
X106507588Y-103870269D01*
X106681641Y-103636920D01*
X106806825Y-103374099D01*
X106851476Y-103226890D01*
X106730155Y-102997000D01*
X105537000Y-102997000D01*
X105283000Y-102997000D01*
X104089845Y-102997000D01*
X103968524Y-103226890D01*
X101340000Y-103226890D01*
X101340000Y-87528355D01*
X103925000Y-90113356D01*
X103925000Y-90316260D01*
X103982068Y-90603158D01*
X104094010Y-90873411D01*
X104256525Y-91116632D01*
X104463368Y-91323475D01*
X104637760Y-91440000D01*
X104463368Y-91556525D01*
X104256525Y-91763368D01*
X104094010Y-92006589D01*
X103982068Y-92276842D01*
X103925000Y-92563740D01*
X103925000Y-92856260D01*
X103982068Y-93143158D01*
X104094010Y-93413411D01*
X104256525Y-93656632D01*
X104463368Y-93863475D01*
X104637760Y-93980000D01*
X104463368Y-94096525D01*
X104256525Y-94303368D01*
X104094010Y-94546589D01*
X103982068Y-94816842D01*
X103925000Y-95103740D01*
X103925000Y-95396260D01*
X103982068Y-95683158D01*
X104094010Y-95953411D01*
X104256525Y-96196632D01*
X104463368Y-96403475D01*
X104637760Y-96520000D01*
X104463368Y-96636525D01*
X104256525Y-96843368D01*
X104094010Y-97086589D01*
X103982068Y-97356842D01*
X103925000Y-97643740D01*
X103925000Y-97936260D01*
X103982068Y-98223158D01*
X104094010Y-98493411D01*
X104256525Y-98736632D01*
X104463368Y-98943475D01*
X104637760Y-99060000D01*
X104463368Y-99176525D01*
X104256525Y-99383368D01*
X104094010Y-99626589D01*
X103982068Y-99896842D01*
X103925000Y-100183740D01*
X103925000Y-100476260D01*
X103982068Y-100763158D01*
X104094010Y-101033411D01*
X104256525Y-101276632D01*
X104463368Y-101483475D01*
X104645534Y-101605195D01*
X104528645Y-101674822D01*
X104312412Y-101869731D01*
X104138359Y-102103080D01*
X104013175Y-102365901D01*
X103968524Y-102513110D01*
X104089845Y-102743000D01*
X105283000Y-102743000D01*
X105283000Y-102723000D01*
X105537000Y-102723000D01*
X105537000Y-102743000D01*
X106730155Y-102743000D01*
X106851476Y-102513110D01*
X106806825Y-102365901D01*
X106681641Y-102103080D01*
X106507588Y-101869731D01*
X106291355Y-101674822D01*
X106174466Y-101605195D01*
X106356632Y-101483475D01*
X106563475Y-101276632D01*
X106725990Y-101033411D01*
X106837932Y-100763158D01*
X106857322Y-100665678D01*
X108470744Y-102279100D01*
X108502367Y-102317633D01*
X108656160Y-102443847D01*
X108793404Y-102517205D01*
X108831620Y-102537632D01*
X109022005Y-102595385D01*
X109220000Y-102614886D01*
X109269608Y-102610000D01*
X115342377Y-102610000D01*
X115468061Y-102635000D01*
X115671939Y-102635000D01*
X115871898Y-102595226D01*
X116060256Y-102517205D01*
X116229774Y-102403937D01*
X116373937Y-102259774D01*
X116487205Y-102090256D01*
X116565226Y-101901898D01*
X116605000Y-101701939D01*
X116605000Y-101498061D01*
X116565226Y-101298102D01*
X116487205Y-101109744D01*
X116373937Y-100940226D01*
X116229774Y-100796063D01*
X116060256Y-100682795D01*
X115871898Y-100604774D01*
X115671939Y-100565000D01*
X115468061Y-100565000D01*
X115342377Y-100590000D01*
X109638356Y-100590000D01*
X106895000Y-97846645D01*
X106895000Y-97643740D01*
X106837932Y-97356842D01*
X106725990Y-97086589D01*
X106563475Y-96843368D01*
X106356632Y-96636525D01*
X106182240Y-96520000D01*
X106356632Y-96403475D01*
X106563475Y-96196632D01*
X106725990Y-95953411D01*
X106837932Y-95683158D01*
X106895000Y-95396260D01*
X106895000Y-95193355D01*
X107009254Y-95079101D01*
X114979100Y-87109256D01*
X115017633Y-87077633D01*
X115143847Y-86923840D01*
X115237632Y-86748380D01*
X115295385Y-86557994D01*
X115310000Y-86409608D01*
X115310000Y-86409599D01*
X115314885Y-86360001D01*
X115310000Y-86310403D01*
X115310000Y-22680107D01*
X115453475Y-22536632D01*
X115570000Y-22362240D01*
X115686525Y-22536632D01*
X115893368Y-22743475D01*
X116136589Y-22905990D01*
X116406842Y-23017932D01*
X116693740Y-23075000D01*
X116986260Y-23075000D01*
X117273158Y-23017932D01*
X117543411Y-22905990D01*
X117786632Y-22743475D01*
X117993475Y-22536632D01*
X118110000Y-22362240D01*
X118226525Y-22536632D01*
X118370001Y-22680108D01*
X118370000Y-86310392D01*
X118365114Y-86360000D01*
X118384615Y-86557994D01*
X118384616Y-86557996D01*
X118442368Y-86748379D01*
X118536153Y-86923840D01*
X118662367Y-87077633D01*
X118700906Y-87109261D01*
X124245000Y-92653355D01*
X124245000Y-92856260D01*
X124302068Y-93143158D01*
X124414010Y-93413411D01*
X124576525Y-93656632D01*
X124783368Y-93863475D01*
X124957760Y-93980000D01*
X124783368Y-94096525D01*
X124576525Y-94303368D01*
X124414010Y-94546589D01*
X124302068Y-94816842D01*
X124245000Y-95103740D01*
X124245000Y-95396260D01*
X124302068Y-95683158D01*
X124414010Y-95953411D01*
X124576525Y-96196632D01*
X124783368Y-96403475D01*
X124957760Y-96520000D01*
X124783368Y-96636525D01*
X124576525Y-96843368D01*
X124414010Y-97086589D01*
X124302068Y-97356842D01*
X124245000Y-97643740D01*
X124245000Y-97936260D01*
X124302068Y-98223158D01*
X124414010Y-98493411D01*
X124576525Y-98736632D01*
X124783368Y-98943475D01*
X124957760Y-99060000D01*
X124783368Y-99176525D01*
X124576525Y-99383368D01*
X124414010Y-99626589D01*
X124302068Y-99896842D01*
X124245000Y-100183740D01*
X124245000Y-100476260D01*
X124302068Y-100763158D01*
X124414010Y-101033411D01*
X124576525Y-101276632D01*
X124783368Y-101483475D01*
X124957760Y-101600000D01*
X124783368Y-101716525D01*
X124576525Y-101923368D01*
X124414010Y-102166589D01*
X124302068Y-102436842D01*
X124245000Y-102723740D01*
X124245000Y-103016260D01*
X124302068Y-103303158D01*
X124414010Y-103573411D01*
X124576525Y-103816632D01*
X124783368Y-104023475D01*
X125026589Y-104185990D01*
X125296842Y-104297932D01*
X125583740Y-104355000D01*
X125876260Y-104355000D01*
X126163158Y-104297932D01*
X126433411Y-104185990D01*
X126676632Y-104023475D01*
X126883475Y-103816632D01*
X127045990Y-103573411D01*
X127157932Y-103303158D01*
X127215000Y-103016260D01*
X127215000Y-102723740D01*
X127157932Y-102436842D01*
X127045990Y-102166589D01*
X126883475Y-101923368D01*
X126676632Y-101716525D01*
X126502240Y-101600000D01*
X126676632Y-101483475D01*
X126883475Y-101276632D01*
X127045990Y-101033411D01*
X127157932Y-100763158D01*
X127215000Y-100476260D01*
X127215000Y-100183740D01*
X127157932Y-99896842D01*
X127045990Y-99626589D01*
X126883475Y-99383368D01*
X126676632Y-99176525D01*
X126502240Y-99060000D01*
X126676632Y-98943475D01*
X126883475Y-98736632D01*
X127045990Y-98493411D01*
X127157932Y-98223158D01*
X127215000Y-97936260D01*
X127215000Y-97643740D01*
X127157932Y-97356842D01*
X127045990Y-97086589D01*
X126883475Y-96843368D01*
X126676632Y-96636525D01*
X126502240Y-96520000D01*
X126676632Y-96403475D01*
X126883475Y-96196632D01*
X127045990Y-95953411D01*
X127157932Y-95683158D01*
X127215000Y-95396260D01*
X127215000Y-95103740D01*
X127157932Y-94816842D01*
X127045990Y-94546589D01*
X126883475Y-94303368D01*
X126676632Y-94096525D01*
X126502240Y-93980000D01*
X126676632Y-93863475D01*
X126883475Y-93656632D01*
X127045990Y-93413411D01*
X127157932Y-93143158D01*
X127215000Y-92856260D01*
X127215000Y-92563740D01*
X127157932Y-92276842D01*
X127045990Y-92006589D01*
X126883475Y-91763368D01*
X126676632Y-91556525D01*
X126502240Y-91440000D01*
X126676632Y-91323475D01*
X126883475Y-91116632D01*
X127045990Y-90873411D01*
X127157932Y-90603158D01*
X127215000Y-90316260D01*
X127215000Y-90023740D01*
X127157932Y-89736842D01*
X127045990Y-89466589D01*
X126883475Y-89223368D01*
X126676632Y-89016525D01*
X126502240Y-88900000D01*
X126676632Y-88783475D01*
X126883475Y-88576632D01*
X127045990Y-88333411D01*
X127157932Y-88063158D01*
X127215000Y-87776260D01*
X127215000Y-87483740D01*
X127157932Y-87196842D01*
X127045990Y-86926589D01*
X126883475Y-86683368D01*
X126676632Y-86476525D01*
X126502240Y-86360000D01*
X126676632Y-86243475D01*
X126883475Y-86036632D01*
X127045990Y-85793411D01*
X127157932Y-85523158D01*
X127215000Y-85236260D01*
X127215000Y-84943740D01*
X127157932Y-84656842D01*
X127045990Y-84386589D01*
X126883475Y-84143368D01*
X126676632Y-83936525D01*
X126502240Y-83820000D01*
X126676632Y-83703475D01*
X126883475Y-83496632D01*
X127045990Y-83253411D01*
X127157932Y-82983158D01*
X127215000Y-82696260D01*
X127215000Y-82403740D01*
X127157932Y-82116842D01*
X127045990Y-81846589D01*
X126883475Y-81603368D01*
X126676632Y-81396525D01*
X126502240Y-81280000D01*
X126676632Y-81163475D01*
X126820107Y-81020000D01*
X130680130Y-81020000D01*
X130690498Y-81054180D01*
X130749463Y-81164494D01*
X130828815Y-81261185D01*
X130925506Y-81340537D01*
X131035820Y-81399502D01*
X131155518Y-81435812D01*
X131280000Y-81448072D01*
X132880000Y-81448072D01*
X133004482Y-81435812D01*
X133124180Y-81399502D01*
X133234494Y-81340537D01*
X133331185Y-81261185D01*
X133410537Y-81164494D01*
X133469502Y-81054180D01*
X133485117Y-81002702D01*
X133766903Y-81002702D01*
X133838486Y-81246671D01*
X134093996Y-81367571D01*
X134368184Y-81436300D01*
X134650512Y-81450217D01*
X134930130Y-81408787D01*
X135196292Y-81313603D01*
X135321514Y-81246671D01*
X135393097Y-81002702D01*
X134580000Y-80189605D01*
X133766903Y-81002702D01*
X133485117Y-81002702D01*
X133505812Y-80934482D01*
X133518072Y-80810000D01*
X133518072Y-80802785D01*
X133587298Y-80823097D01*
X134400395Y-80010000D01*
X134759605Y-80010000D01*
X135572702Y-80823097D01*
X135816671Y-80751514D01*
X135937571Y-80496004D01*
X136006300Y-80221816D01*
X136020217Y-79939488D01*
X135978787Y-79659870D01*
X135883603Y-79393708D01*
X135816671Y-79268486D01*
X135572702Y-79196903D01*
X134759605Y-80010000D01*
X134400395Y-80010000D01*
X133587298Y-79196903D01*
X133518072Y-79217215D01*
X133518072Y-79210000D01*
X133505812Y-79085518D01*
X133485118Y-79017298D01*
X133766903Y-79017298D01*
X134580000Y-79830395D01*
X135393097Y-79017298D01*
X135321514Y-78773329D01*
X135066004Y-78652429D01*
X134791816Y-78583700D01*
X134509488Y-78569783D01*
X134229870Y-78611213D01*
X133963708Y-78706397D01*
X133838486Y-78773329D01*
X133766903Y-79017298D01*
X133485118Y-79017298D01*
X133469502Y-78965820D01*
X133410537Y-78855506D01*
X133331185Y-78758815D01*
X133234494Y-78679463D01*
X133124180Y-78620498D01*
X133090000Y-78610130D01*
X133090000Y-69899604D01*
X133094886Y-69849999D01*
X133080480Y-69703740D01*
X133075385Y-69652006D01*
X133017632Y-69461620D01*
X132923847Y-69286160D01*
X132797633Y-69132367D01*
X132759094Y-69100739D01*
X126740000Y-63081645D01*
X126740000Y-60818665D01*
X128105000Y-60818665D01*
X128105000Y-61101335D01*
X128160147Y-61378574D01*
X128268320Y-61639727D01*
X128425363Y-61874759D01*
X128625241Y-62074637D01*
X128860273Y-62231680D01*
X129121426Y-62339853D01*
X129398665Y-62395000D01*
X129681335Y-62395000D01*
X129958574Y-62339853D01*
X130219727Y-62231680D01*
X130454759Y-62074637D01*
X130654637Y-61874759D01*
X130811680Y-61639727D01*
X130919853Y-61378574D01*
X130975000Y-61101335D01*
X130975000Y-60818665D01*
X135725000Y-60818665D01*
X135725000Y-61101335D01*
X135780147Y-61378574D01*
X135888320Y-61639727D01*
X136045363Y-61874759D01*
X136245241Y-62074637D01*
X136480273Y-62231680D01*
X136741426Y-62339853D01*
X137018665Y-62395000D01*
X137301335Y-62395000D01*
X137578574Y-62339853D01*
X137839727Y-62231680D01*
X138074759Y-62074637D01*
X138274637Y-61874759D01*
X138431680Y-61639727D01*
X138539853Y-61378574D01*
X138595000Y-61101335D01*
X138595000Y-60818665D01*
X143345000Y-60818665D01*
X143345000Y-61101335D01*
X143400147Y-61378574D01*
X143508320Y-61639727D01*
X143665363Y-61874759D01*
X143865241Y-62074637D01*
X144100273Y-62231680D01*
X144361426Y-62339853D01*
X144638665Y-62395000D01*
X144921335Y-62395000D01*
X145198574Y-62339853D01*
X145459727Y-62231680D01*
X145694759Y-62074637D01*
X145894637Y-61874759D01*
X146051680Y-61639727D01*
X146159853Y-61378574D01*
X146215000Y-61101335D01*
X146215000Y-60818665D01*
X146159853Y-60541426D01*
X146051680Y-60280273D01*
X145894637Y-60045241D01*
X145694759Y-59845363D01*
X145459727Y-59688320D01*
X145198574Y-59580147D01*
X144921335Y-59525000D01*
X144638665Y-59525000D01*
X144361426Y-59580147D01*
X144100273Y-59688320D01*
X143865241Y-59845363D01*
X143665363Y-60045241D01*
X143508320Y-60280273D01*
X143400147Y-60541426D01*
X143345000Y-60818665D01*
X138595000Y-60818665D01*
X138539853Y-60541426D01*
X138431680Y-60280273D01*
X138274637Y-60045241D01*
X138074759Y-59845363D01*
X137839727Y-59688320D01*
X137578574Y-59580147D01*
X137301335Y-59525000D01*
X137018665Y-59525000D01*
X136741426Y-59580147D01*
X136480273Y-59688320D01*
X136245241Y-59845363D01*
X136045363Y-60045241D01*
X135888320Y-60280273D01*
X135780147Y-60541426D01*
X135725000Y-60818665D01*
X130975000Y-60818665D01*
X130919853Y-60541426D01*
X130811680Y-60280273D01*
X130654637Y-60045241D01*
X130454759Y-59845363D01*
X130219727Y-59688320D01*
X129958574Y-59580147D01*
X129681335Y-59525000D01*
X129398665Y-59525000D01*
X129121426Y-59580147D01*
X128860273Y-59688320D01*
X128625241Y-59845363D01*
X128425363Y-60045241D01*
X128268320Y-60280273D01*
X128160147Y-60541426D01*
X128105000Y-60818665D01*
X126740000Y-60818665D01*
X126740000Y-40498665D01*
X128105000Y-40498665D01*
X128105000Y-40781335D01*
X128160147Y-41058574D01*
X128268320Y-41319727D01*
X128425363Y-41554759D01*
X128625241Y-41754637D01*
X128860273Y-41911680D01*
X129121426Y-42019853D01*
X129398665Y-42075000D01*
X129681335Y-42075000D01*
X129958574Y-42019853D01*
X130219727Y-41911680D01*
X130454759Y-41754637D01*
X130654637Y-41554759D01*
X130811680Y-41319727D01*
X130919853Y-41058574D01*
X130975000Y-40781335D01*
X130975000Y-40498665D01*
X135725000Y-40498665D01*
X135725000Y-40781335D01*
X135780147Y-41058574D01*
X135888320Y-41319727D01*
X136045363Y-41554759D01*
X136245241Y-41754637D01*
X136480273Y-41911680D01*
X136741426Y-42019853D01*
X137018665Y-42075000D01*
X137301335Y-42075000D01*
X137578574Y-42019853D01*
X137839727Y-41911680D01*
X138074759Y-41754637D01*
X138274637Y-41554759D01*
X138431680Y-41319727D01*
X138539853Y-41058574D01*
X138595000Y-40781335D01*
X138595000Y-40498665D01*
X143345000Y-40498665D01*
X143345000Y-40781335D01*
X143400147Y-41058574D01*
X143508320Y-41319727D01*
X143665363Y-41554759D01*
X143865241Y-41754637D01*
X144100273Y-41911680D01*
X144361426Y-42019853D01*
X144638665Y-42075000D01*
X144921335Y-42075000D01*
X145198574Y-42019853D01*
X145459727Y-41911680D01*
X145694759Y-41754637D01*
X145894637Y-41554759D01*
X146051680Y-41319727D01*
X146159853Y-41058574D01*
X146215000Y-40781335D01*
X146215000Y-40498665D01*
X146159853Y-40221426D01*
X146051680Y-39960273D01*
X145894637Y-39725241D01*
X145694759Y-39525363D01*
X145459727Y-39368320D01*
X145198574Y-39260147D01*
X144921335Y-39205000D01*
X144638665Y-39205000D01*
X144361426Y-39260147D01*
X144100273Y-39368320D01*
X143865241Y-39525363D01*
X143665363Y-39725241D01*
X143508320Y-39960273D01*
X143400147Y-40221426D01*
X143345000Y-40498665D01*
X138595000Y-40498665D01*
X138539853Y-40221426D01*
X138431680Y-39960273D01*
X138274637Y-39725241D01*
X138074759Y-39525363D01*
X137839727Y-39368320D01*
X137578574Y-39260147D01*
X137301335Y-39205000D01*
X137018665Y-39205000D01*
X136741426Y-39260147D01*
X136480273Y-39368320D01*
X136245241Y-39525363D01*
X136045363Y-39725241D01*
X135888320Y-39960273D01*
X135780147Y-40221426D01*
X135725000Y-40498665D01*
X130975000Y-40498665D01*
X130919853Y-40221426D01*
X130811680Y-39960273D01*
X130654637Y-39725241D01*
X130454759Y-39525363D01*
X130219727Y-39368320D01*
X129958574Y-39260147D01*
X129681335Y-39205000D01*
X129398665Y-39205000D01*
X129121426Y-39260147D01*
X128860273Y-39368320D01*
X128625241Y-39525363D01*
X128425363Y-39725241D01*
X128268320Y-39960273D01*
X128160147Y-40221426D01*
X128105000Y-40498665D01*
X126740000Y-40498665D01*
X126740000Y-22680107D01*
X126808487Y-22611620D01*
X126830498Y-22684180D01*
X126889463Y-22794494D01*
X126968815Y-22891185D01*
X127065506Y-22970537D01*
X127175820Y-23029502D01*
X127295518Y-23065812D01*
X127420000Y-23078072D01*
X127984250Y-23075000D01*
X128143000Y-22916250D01*
X128143000Y-21717000D01*
X128397000Y-21717000D01*
X128397000Y-22916250D01*
X128555750Y-23075000D01*
X129120000Y-23078072D01*
X129244482Y-23065812D01*
X129364180Y-23029502D01*
X129474494Y-22970537D01*
X129571185Y-22891185D01*
X129650537Y-22794494D01*
X129709502Y-22684180D01*
X129745812Y-22564482D01*
X129758072Y-22440000D01*
X129755000Y-21875750D01*
X129596250Y-21717000D01*
X128397000Y-21717000D01*
X128143000Y-21717000D01*
X128123000Y-21717000D01*
X128123000Y-21463000D01*
X128143000Y-21463000D01*
X128143000Y-20263750D01*
X128397000Y-20263750D01*
X128397000Y-21463000D01*
X129596250Y-21463000D01*
X129755000Y-21304250D01*
X129758072Y-20740000D01*
X129745812Y-20615518D01*
X129709502Y-20495820D01*
X129650537Y-20385506D01*
X129571185Y-20288815D01*
X129474494Y-20209463D01*
X129364180Y-20150498D01*
X129244482Y-20114188D01*
X129120000Y-20101928D01*
X128555750Y-20105000D01*
X128397000Y-20263750D01*
X128143000Y-20263750D01*
X127984250Y-20105000D01*
X127420000Y-20101928D01*
X127295518Y-20114188D01*
X127175820Y-20150498D01*
X127065506Y-20209463D01*
X126968815Y-20288815D01*
X126889463Y-20385506D01*
X126830498Y-20495820D01*
X126808487Y-20568380D01*
X126676632Y-20436525D01*
X126433411Y-20274010D01*
X126163158Y-20162068D01*
X125876260Y-20105000D01*
X125583740Y-20105000D01*
X125296842Y-20162068D01*
X125026589Y-20274010D01*
X124783368Y-20436525D01*
X124576525Y-20643368D01*
X124414010Y-20886589D01*
X124302068Y-21156842D01*
X124245000Y-21443740D01*
X124245000Y-21736260D01*
X124302068Y-22023158D01*
X124414010Y-22293411D01*
X124576525Y-22536632D01*
X124720000Y-22680107D01*
X124720001Y-63450382D01*
X124715114Y-63500000D01*
X124734615Y-63697994D01*
X124792368Y-63888379D01*
X124886154Y-64063840D01*
X124964885Y-64159774D01*
X125012368Y-64217633D01*
X125050901Y-64249256D01*
X131070000Y-70268355D01*
X131070001Y-78610129D01*
X131035820Y-78620498D01*
X130925506Y-78679463D01*
X130828815Y-78758815D01*
X130749463Y-78855506D01*
X130690498Y-78965820D01*
X130680130Y-79000000D01*
X126820107Y-79000000D01*
X126676632Y-78856525D01*
X126502240Y-78740000D01*
X126676632Y-78623475D01*
X126883475Y-78416632D01*
X127045990Y-78173411D01*
X127157932Y-77903158D01*
X127215000Y-77616260D01*
X127215000Y-77323740D01*
X127157932Y-77036842D01*
X127045990Y-76766589D01*
X126883475Y-76523368D01*
X126751620Y-76391513D01*
X126824180Y-76369502D01*
X126934494Y-76310537D01*
X127031185Y-76231185D01*
X127110537Y-76134494D01*
X127169502Y-76024180D01*
X127205812Y-75904482D01*
X127218072Y-75780000D01*
X127218072Y-74080000D01*
X127205812Y-73955518D01*
X127169502Y-73835820D01*
X127110537Y-73725506D01*
X127031185Y-73628815D01*
X126934494Y-73549463D01*
X126824180Y-73490498D01*
X126704482Y-73454188D01*
X126580000Y-73441928D01*
X124880000Y-73441928D01*
X124755518Y-73454188D01*
X124635820Y-73490498D01*
X124525506Y-73549463D01*
X124428815Y-73628815D01*
X124349463Y-73725506D01*
X124290498Y-73835820D01*
X124254188Y-73955518D01*
X124241928Y-74080000D01*
X124241928Y-75780000D01*
X124254188Y-75904482D01*
X124290498Y-76024180D01*
X124349463Y-76134494D01*
X124428815Y-76231185D01*
X124525506Y-76310537D01*
X124635820Y-76369502D01*
X124708380Y-76391513D01*
X124576525Y-76523368D01*
X124414010Y-76766589D01*
X124302068Y-77036842D01*
X124245000Y-77323740D01*
X124245000Y-77616260D01*
X124302068Y-77903158D01*
X124414010Y-78173411D01*
X124576525Y-78416632D01*
X124783368Y-78623475D01*
X124957760Y-78740000D01*
X124783368Y-78856525D01*
X124576525Y-79063368D01*
X124414010Y-79306589D01*
X124302068Y-79576842D01*
X124245000Y-79863740D01*
X124245000Y-80156260D01*
X124302068Y-80443158D01*
X124414010Y-80713411D01*
X124576525Y-80956632D01*
X124783368Y-81163475D01*
X124957760Y-81280000D01*
X124783368Y-81396525D01*
X124576525Y-81603368D01*
X124414010Y-81846589D01*
X124302068Y-82116842D01*
X124245000Y-82403740D01*
X124245000Y-82696260D01*
X124302068Y-82983158D01*
X124414010Y-83253411D01*
X124576525Y-83496632D01*
X124783368Y-83703475D01*
X124957760Y-83820000D01*
X124783368Y-83936525D01*
X124576525Y-84143368D01*
X124414010Y-84386589D01*
X124302068Y-84656842D01*
X124245000Y-84943740D01*
X124245000Y-85236260D01*
X124302068Y-85523158D01*
X124414010Y-85793411D01*
X124576525Y-86036632D01*
X124783368Y-86243475D01*
X124957760Y-86360000D01*
X124783368Y-86476525D01*
X124576525Y-86683368D01*
X124414010Y-86926589D01*
X124302068Y-87196842D01*
X124245000Y-87483740D01*
X124245000Y-87776260D01*
X124302068Y-88063158D01*
X124414010Y-88333411D01*
X124576525Y-88576632D01*
X124783368Y-88783475D01*
X124957760Y-88900000D01*
X124783368Y-89016525D01*
X124576525Y-89223368D01*
X124414010Y-89466589D01*
X124302068Y-89736842D01*
X124282678Y-89834323D01*
X120390000Y-85941645D01*
X120390000Y-22680107D01*
X120533475Y-22536632D01*
X120695990Y-22293411D01*
X120807932Y-22023158D01*
X120865000Y-21736260D01*
X120865000Y-21443740D01*
X120807932Y-21156842D01*
X120695990Y-20886589D01*
X120533475Y-20643368D01*
X120326632Y-20436525D01*
X120083411Y-20274010D01*
X119813158Y-20162068D01*
X119526260Y-20105000D01*
X119233740Y-20105000D01*
X118946842Y-20162068D01*
X118676589Y-20274010D01*
X118433368Y-20436525D01*
X118226525Y-20643368D01*
X118110000Y-20817760D01*
X117993475Y-20643368D01*
X117786632Y-20436525D01*
X117543411Y-20274010D01*
X117273158Y-20162068D01*
X116986260Y-20105000D01*
X116783355Y-20105000D01*
X116114260Y-19435905D01*
X116082632Y-19397366D01*
X115928839Y-19271152D01*
X115753379Y-19177367D01*
X115752169Y-19177000D01*
X147193000Y-19177000D01*
X147193000Y-28995000D01*
X147173740Y-28995000D01*
X146886842Y-29052068D01*
X146616589Y-29164010D01*
X146373368Y-29326525D01*
X146166525Y-29533368D01*
X146050000Y-29707760D01*
X145933475Y-29533368D01*
X145726632Y-29326525D01*
X145483411Y-29164010D01*
X145213158Y-29052068D01*
X144926260Y-28995000D01*
X144633740Y-28995000D01*
X144346842Y-29052068D01*
X144076589Y-29164010D01*
X143833368Y-29326525D01*
X143626525Y-29533368D01*
X143510000Y-29707760D01*
X143393475Y-29533368D01*
X143186632Y-29326525D01*
X142943411Y-29164010D01*
X142673158Y-29052068D01*
X142386260Y-28995000D01*
X142093740Y-28995000D01*
X141806842Y-29052068D01*
X141536589Y-29164010D01*
X141293368Y-29326525D01*
X141161513Y-29458380D01*
X141139502Y-29385820D01*
X141080537Y-29275506D01*
X141001185Y-29178815D01*
X140904494Y-29099463D01*
X140794180Y-29040498D01*
X140674482Y-29004188D01*
X140550000Y-28991928D01*
X138850000Y-28991928D01*
X138725518Y-29004188D01*
X138605820Y-29040498D01*
X138495506Y-29099463D01*
X138398815Y-29178815D01*
X138319463Y-29275506D01*
X138260498Y-29385820D01*
X138224188Y-29505518D01*
X138211928Y-29630000D01*
X138211928Y-31330000D01*
X138224188Y-31454482D01*
X138260498Y-31574180D01*
X138319463Y-31684494D01*
X138398815Y-31781185D01*
X138495506Y-31860537D01*
X138605820Y-31919502D01*
X138725518Y-31955812D01*
X138850000Y-31968072D01*
X140550000Y-31968072D01*
X140674482Y-31955812D01*
X140794180Y-31919502D01*
X140904494Y-31860537D01*
X141001185Y-31781185D01*
X141080537Y-31684494D01*
X141139502Y-31574180D01*
X141161513Y-31501620D01*
X141293368Y-31633475D01*
X141536589Y-31795990D01*
X141806842Y-31907932D01*
X142093740Y-31965000D01*
X142386260Y-31965000D01*
X142673158Y-31907932D01*
X142943411Y-31795990D01*
X143186632Y-31633475D01*
X143393475Y-31426632D01*
X143510000Y-31252240D01*
X143626525Y-31426632D01*
X143833368Y-31633475D01*
X144076589Y-31795990D01*
X144346842Y-31907932D01*
X144633740Y-31965000D01*
X144926260Y-31965000D01*
X145213158Y-31907932D01*
X145483411Y-31795990D01*
X145726632Y-31633475D01*
X145933475Y-31426632D01*
X146050000Y-31252240D01*
X146166525Y-31426632D01*
X146373368Y-31633475D01*
X146616589Y-31795990D01*
X146886842Y-31907932D01*
X147173740Y-31965000D01*
X147193000Y-31965000D01*
X147193000Y-126873000D01*
X94107000Y-126873000D01*
X94107000Y-117968665D01*
X96355000Y-117968665D01*
X96355000Y-118251335D01*
X96410147Y-118528574D01*
X96518320Y-118789727D01*
X96675363Y-119024759D01*
X96875241Y-119224637D01*
X97110273Y-119381680D01*
X97371426Y-119489853D01*
X97648665Y-119545000D01*
X97931335Y-119545000D01*
X98208574Y-119489853D01*
X98469727Y-119381680D01*
X98704759Y-119224637D01*
X98904637Y-119024759D01*
X99061680Y-118789727D01*
X99169853Y-118528574D01*
X99225000Y-118251335D01*
X99225000Y-117968665D01*
X99169853Y-117691426D01*
X99061680Y-117430273D01*
X98904637Y-117195241D01*
X98704759Y-116995363D01*
X98469727Y-116838320D01*
X98208574Y-116730147D01*
X97931335Y-116675000D01*
X97648665Y-116675000D01*
X97371426Y-116730147D01*
X97110273Y-116838320D01*
X96875241Y-116995363D01*
X96675363Y-117195241D01*
X96518320Y-117430273D01*
X96410147Y-117691426D01*
X96355000Y-117968665D01*
X94107000Y-117968665D01*
X94107000Y-22547107D01*
X94303368Y-22743475D01*
X94546589Y-22905990D01*
X94816842Y-23017932D01*
X95103740Y-23075000D01*
X95396260Y-23075000D01*
X95683158Y-23017932D01*
X95953411Y-22905990D01*
X96196632Y-22743475D01*
X96403475Y-22536632D01*
X96520000Y-22362240D01*
X96636525Y-22536632D01*
X96843368Y-22743475D01*
X97086589Y-22905990D01*
X97356842Y-23017932D01*
X97643740Y-23075000D01*
X97936260Y-23075000D01*
X98223158Y-23017932D01*
X98493411Y-22905990D01*
X98736632Y-22743475D01*
X98943475Y-22536632D01*
X99060000Y-22362240D01*
X99176525Y-22536632D01*
X99383368Y-22743475D01*
X99626589Y-22905990D01*
X99896842Y-23017932D01*
X100183740Y-23075000D01*
X100476260Y-23075000D01*
X100763158Y-23017932D01*
X101033411Y-22905990D01*
X101276632Y-22743475D01*
X101483475Y-22536632D01*
X101645990Y-22293411D01*
X101757932Y-22023158D01*
X101815000Y-21736260D01*
X101815000Y-21443740D01*
X101757932Y-21156842D01*
X101645990Y-20886589D01*
X101483475Y-20643368D01*
X101276632Y-20436525D01*
X101033411Y-20274010D01*
X100763158Y-20162068D01*
X100476260Y-20105000D01*
X100183740Y-20105000D01*
X99896842Y-20162068D01*
X99626589Y-20274010D01*
X99383368Y-20436525D01*
X99176525Y-20643368D01*
X99060000Y-20817760D01*
X98943475Y-20643368D01*
X98736632Y-20436525D01*
X98493411Y-20274010D01*
X98223158Y-20162068D01*
X97936260Y-20105000D01*
X97643740Y-20105000D01*
X97356842Y-20162068D01*
X97086589Y-20274010D01*
X96843368Y-20436525D01*
X96636525Y-20643368D01*
X96520000Y-20817760D01*
X96403475Y-20643368D01*
X96196632Y-20436525D01*
X95953411Y-20274010D01*
X95683158Y-20162068D01*
X95396260Y-20105000D01*
X95103740Y-20105000D01*
X94816842Y-20162068D01*
X94546589Y-20274010D01*
X94303368Y-20436525D01*
X94107000Y-20632893D01*
X94107000Y-19177000D01*
X110022829Y-19177000D01*
X110021619Y-19177367D01*
G37*
X110021619Y-19177367D02*
X109846159Y-19271152D01*
X109692366Y-19397366D01*
X109660738Y-19435905D01*
X100920906Y-28175737D01*
X100882367Y-28207365D01*
X100756153Y-28361158D01*
X100662369Y-28536618D01*
X100662368Y-28536619D01*
X100604615Y-28727004D01*
X100585114Y-28924998D01*
X100590000Y-28974606D01*
X100590001Y-62496440D01*
X100431939Y-62465000D01*
X100228061Y-62465000D01*
X100028102Y-62504774D01*
X99839744Y-62582795D01*
X99670226Y-62696063D01*
X99526063Y-62840226D01*
X99412795Y-63009744D01*
X99334774Y-63198102D01*
X99295000Y-63398061D01*
X99295000Y-63601939D01*
X99320000Y-63727624D01*
X99320001Y-104090382D01*
X99315114Y-104140000D01*
X99334615Y-104337994D01*
X99392368Y-104528379D01*
X99392369Y-104528380D01*
X99486154Y-104703840D01*
X99612368Y-104857633D01*
X99650901Y-104889256D01*
X104660743Y-109899099D01*
X104692367Y-109937633D01*
X104846160Y-110063847D01*
X105021620Y-110157632D01*
X105212005Y-110215385D01*
X105410000Y-110234886D01*
X105459608Y-110230000D01*
X120231645Y-110230000D01*
X123450000Y-113448356D01*
X123450001Y-119565015D01*
X123408815Y-119598815D01*
X123329463Y-119695506D01*
X123270498Y-119805820D01*
X123234188Y-119925518D01*
X123221928Y-120050000D01*
X123221928Y-121250000D01*
X123234188Y-121374482D01*
X123270498Y-121494180D01*
X123329463Y-121604494D01*
X123408815Y-121701185D01*
X123505506Y-121780537D01*
X123615820Y-121839502D01*
X123735518Y-121875812D01*
X123860000Y-121888072D01*
X125060000Y-121888072D01*
X125184482Y-121875812D01*
X125304180Y-121839502D01*
X125414494Y-121780537D01*
X125511185Y-121701185D01*
X125590537Y-121604494D01*
X125614858Y-121558994D01*
X125672736Y-121616872D01*
X125789842Y-121499766D01*
X125837148Y-121723348D01*
X126058516Y-121824237D01*
X126295313Y-121880000D01*
X126538438Y-121888495D01*
X126778549Y-121849395D01*
X127006418Y-121764202D01*
X127082852Y-121723348D01*
X127130109Y-121500000D01*
X133131928Y-121500000D01*
X133144188Y-121624482D01*
X133180498Y-121744180D01*
X133239463Y-121854494D01*
X133318815Y-121951185D01*
X133415506Y-122030537D01*
X133525820Y-122089502D01*
X133645518Y-122125812D01*
X133770000Y-122138072D01*
X134334250Y-122135000D01*
X134493000Y-121976250D01*
X134493000Y-120777000D01*
X134747000Y-120777000D01*
X134747000Y-121976250D01*
X134905750Y-122135000D01*
X135470000Y-122138072D01*
X135594482Y-122125812D01*
X135714180Y-122089502D01*
X135824494Y-122030537D01*
X135921185Y-121951185D01*
X136000537Y-121854494D01*
X136059502Y-121744180D01*
X136095812Y-121624482D01*
X136108072Y-121500000D01*
X136105000Y-120935750D01*
X135946250Y-120777000D01*
X134747000Y-120777000D01*
X134493000Y-120777000D01*
X133293750Y-120777000D01*
X133135000Y-120935750D01*
X133131928Y-121500000D01*
X127130109Y-121500000D01*
X127130159Y-121499764D01*
X126460000Y-120829605D01*
X126445858Y-120843748D01*
X126266253Y-120664143D01*
X126280395Y-120650000D01*
X126639605Y-120650000D01*
X127309764Y-121320159D01*
X127533348Y-121272852D01*
X127634237Y-121051484D01*
X127690000Y-120814687D01*
X127698495Y-120571562D01*
X127659395Y-120331451D01*
X127574202Y-120103582D01*
X127533348Y-120027148D01*
X127309764Y-119979841D01*
X126639605Y-120650000D01*
X126280395Y-120650000D01*
X126266253Y-120635858D01*
X126445858Y-120456253D01*
X126460000Y-120470395D01*
X127130159Y-119800236D01*
X127130110Y-119800000D01*
X133131928Y-119800000D01*
X133135000Y-120364250D01*
X133293750Y-120523000D01*
X134493000Y-120523000D01*
X134493000Y-119323750D01*
X134747000Y-119323750D01*
X134747000Y-120523000D01*
X135946250Y-120523000D01*
X136105000Y-120364250D01*
X136108072Y-119800000D01*
X136095812Y-119675518D01*
X136059502Y-119555820D01*
X136000537Y-119445506D01*
X135921185Y-119348815D01*
X135824494Y-119269463D01*
X135714180Y-119210498D01*
X135594482Y-119174188D01*
X135470000Y-119161928D01*
X134905750Y-119165000D01*
X134747000Y-119323750D01*
X134493000Y-119323750D01*
X134334250Y-119165000D01*
X133770000Y-119161928D01*
X133645518Y-119174188D01*
X133525820Y-119210498D01*
X133415506Y-119269463D01*
X133318815Y-119348815D01*
X133239463Y-119445506D01*
X133180498Y-119555820D01*
X133144188Y-119675518D01*
X133131928Y-119800000D01*
X127130110Y-119800000D01*
X127082852Y-119576652D01*
X126861484Y-119475763D01*
X126624687Y-119420000D01*
X126381562Y-119411505D01*
X126141451Y-119450605D01*
X125913582Y-119535798D01*
X125837148Y-119576652D01*
X125789842Y-119800234D01*
X125672736Y-119683128D01*
X125614858Y-119741006D01*
X125590537Y-119695506D01*
X125511185Y-119598815D01*
X125470000Y-119565015D01*
X125470000Y-113079608D01*
X125474886Y-113030000D01*
X125455385Y-112832005D01*
X125397632Y-112641620D01*
X125303846Y-112466159D01*
X125209256Y-112350900D01*
X125177633Y-112312367D01*
X125139100Y-112280744D01*
X121399261Y-108540906D01*
X121367633Y-108502367D01*
X121213840Y-108376153D01*
X121038380Y-108282368D01*
X120847994Y-108224615D01*
X120699608Y-108210000D01*
X120650000Y-108205114D01*
X120600392Y-108210000D01*
X105828356Y-108210000D01*
X101340000Y-103721645D01*
X101340000Y-103226890D01*
X103968524Y-103226890D01*
X104013175Y-103374099D01*
X104138359Y-103636920D01*
X104312412Y-103870269D01*
X104528645Y-104065178D01*
X104778748Y-104214157D01*
X105053109Y-104311481D01*
X105283000Y-104190814D01*
X105283000Y-102997000D01*
X105537000Y-102997000D01*
X105537000Y-104190814D01*
X105766891Y-104311481D01*
X106041252Y-104214157D01*
X106291355Y-104065178D01*
X106507588Y-103870269D01*
X106681641Y-103636920D01*
X106806825Y-103374099D01*
X106851476Y-103226890D01*
X106730155Y-102997000D01*
X105537000Y-102997000D01*
X105283000Y-102997000D01*
X104089845Y-102997000D01*
X103968524Y-103226890D01*
X101340000Y-103226890D01*
X101340000Y-87528355D01*
X103925000Y-90113356D01*
X103925000Y-90316260D01*
X103982068Y-90603158D01*
X104094010Y-90873411D01*
X104256525Y-91116632D01*
X104463368Y-91323475D01*
X104637760Y-91440000D01*
X104463368Y-91556525D01*
X104256525Y-91763368D01*
X104094010Y-92006589D01*
X103982068Y-92276842D01*
X103925000Y-92563740D01*
X103925000Y-92856260D01*
X103982068Y-93143158D01*
X104094010Y-93413411D01*
X104256525Y-93656632D01*
X104463368Y-93863475D01*
X104637760Y-93980000D01*
X104463368Y-94096525D01*
X104256525Y-94303368D01*
X104094010Y-94546589D01*
X103982068Y-94816842D01*
X103925000Y-95103740D01*
X103925000Y-95396260D01*
X103982068Y-95683158D01*
X104094010Y-95953411D01*
X104256525Y-96196632D01*
X104463368Y-96403475D01*
X104637760Y-96520000D01*
X104463368Y-96636525D01*
X104256525Y-96843368D01*
X104094010Y-97086589D01*
X103982068Y-97356842D01*
X103925000Y-97643740D01*
X103925000Y-97936260D01*
X103982068Y-98223158D01*
X104094010Y-98493411D01*
X104256525Y-98736632D01*
X104463368Y-98943475D01*
X104637760Y-99060000D01*
X104463368Y-99176525D01*
X104256525Y-99383368D01*
X104094010Y-99626589D01*
X103982068Y-99896842D01*
X103925000Y-100183740D01*
X103925000Y-100476260D01*
X103982068Y-100763158D01*
X104094010Y-101033411D01*
X104256525Y-101276632D01*
X104463368Y-101483475D01*
X104645534Y-101605195D01*
X104528645Y-101674822D01*
X104312412Y-101869731D01*
X104138359Y-102103080D01*
X104013175Y-102365901D01*
X103968524Y-102513110D01*
X104089845Y-102743000D01*
X105283000Y-102743000D01*
X105283000Y-102723000D01*
X105537000Y-102723000D01*
X105537000Y-102743000D01*
X106730155Y-102743000D01*
X106851476Y-102513110D01*
X106806825Y-102365901D01*
X106681641Y-102103080D01*
X106507588Y-101869731D01*
X106291355Y-101674822D01*
X106174466Y-101605195D01*
X106356632Y-101483475D01*
X106563475Y-101276632D01*
X106725990Y-101033411D01*
X106837932Y-100763158D01*
X106857322Y-100665678D01*
X108470744Y-102279100D01*
X108502367Y-102317633D01*
X108656160Y-102443847D01*
X108793404Y-102517205D01*
X108831620Y-102537632D01*
X109022005Y-102595385D01*
X109220000Y-102614886D01*
X109269608Y-102610000D01*
X115342377Y-102610000D01*
X115468061Y-102635000D01*
X115671939Y-102635000D01*
X115871898Y-102595226D01*
X116060256Y-102517205D01*
X116229774Y-102403937D01*
X116373937Y-102259774D01*
X116487205Y-102090256D01*
X116565226Y-101901898D01*
X116605000Y-101701939D01*
X116605000Y-101498061D01*
X116565226Y-101298102D01*
X116487205Y-101109744D01*
X116373937Y-100940226D01*
X116229774Y-100796063D01*
X116060256Y-100682795D01*
X115871898Y-100604774D01*
X115671939Y-100565000D01*
X115468061Y-100565000D01*
X115342377Y-100590000D01*
X109638356Y-100590000D01*
X106895000Y-97846645D01*
X106895000Y-97643740D01*
X106837932Y-97356842D01*
X106725990Y-97086589D01*
X106563475Y-96843368D01*
X106356632Y-96636525D01*
X106182240Y-96520000D01*
X106356632Y-96403475D01*
X106563475Y-96196632D01*
X106725990Y-95953411D01*
X106837932Y-95683158D01*
X106895000Y-95396260D01*
X106895000Y-95193355D01*
X107009254Y-95079101D01*
X114979100Y-87109256D01*
X115017633Y-87077633D01*
X115143847Y-86923840D01*
X115237632Y-86748380D01*
X115295385Y-86557994D01*
X115310000Y-86409608D01*
X115310000Y-86409599D01*
X115314885Y-86360001D01*
X115310000Y-86310403D01*
X115310000Y-22680107D01*
X115453475Y-22536632D01*
X115570000Y-22362240D01*
X115686525Y-22536632D01*
X115893368Y-22743475D01*
X116136589Y-22905990D01*
X116406842Y-23017932D01*
X116693740Y-23075000D01*
X116986260Y-23075000D01*
X117273158Y-23017932D01*
X117543411Y-22905990D01*
X117786632Y-22743475D01*
X117993475Y-22536632D01*
X118110000Y-22362240D01*
X118226525Y-22536632D01*
X118370001Y-22680108D01*
X118370000Y-86310392D01*
X118365114Y-86360000D01*
X118384615Y-86557994D01*
X118384616Y-86557996D01*
X118442368Y-86748379D01*
X118536153Y-86923840D01*
X118662367Y-87077633D01*
X118700906Y-87109261D01*
X124245000Y-92653355D01*
X124245000Y-92856260D01*
X124302068Y-93143158D01*
X124414010Y-93413411D01*
X124576525Y-93656632D01*
X124783368Y-93863475D01*
X124957760Y-93980000D01*
X124783368Y-94096525D01*
X124576525Y-94303368D01*
X124414010Y-94546589D01*
X124302068Y-94816842D01*
X124245000Y-95103740D01*
X124245000Y-95396260D01*
X124302068Y-95683158D01*
X124414010Y-95953411D01*
X124576525Y-96196632D01*
X124783368Y-96403475D01*
X124957760Y-96520000D01*
X124783368Y-96636525D01*
X124576525Y-96843368D01*
X124414010Y-97086589D01*
X124302068Y-97356842D01*
X124245000Y-97643740D01*
X124245000Y-97936260D01*
X124302068Y-98223158D01*
X124414010Y-98493411D01*
X124576525Y-98736632D01*
X124783368Y-98943475D01*
X124957760Y-99060000D01*
X124783368Y-99176525D01*
X124576525Y-99383368D01*
X124414010Y-99626589D01*
X124302068Y-99896842D01*
X124245000Y-100183740D01*
X124245000Y-100476260D01*
X124302068Y-100763158D01*
X124414010Y-101033411D01*
X124576525Y-101276632D01*
X124783368Y-101483475D01*
X124957760Y-101600000D01*
X124783368Y-101716525D01*
X124576525Y-101923368D01*
X124414010Y-102166589D01*
X124302068Y-102436842D01*
X124245000Y-102723740D01*
X124245000Y-103016260D01*
X124302068Y-103303158D01*
X124414010Y-103573411D01*
X124576525Y-103816632D01*
X124783368Y-104023475D01*
X125026589Y-104185990D01*
X125296842Y-104297932D01*
X125583740Y-104355000D01*
X125876260Y-104355000D01*
X126163158Y-104297932D01*
X126433411Y-104185990D01*
X126676632Y-104023475D01*
X126883475Y-103816632D01*
X127045990Y-103573411D01*
X127157932Y-103303158D01*
X127215000Y-103016260D01*
X127215000Y-102723740D01*
X127157932Y-102436842D01*
X127045990Y-102166589D01*
X126883475Y-101923368D01*
X126676632Y-101716525D01*
X126502240Y-101600000D01*
X126676632Y-101483475D01*
X126883475Y-101276632D01*
X127045990Y-101033411D01*
X127157932Y-100763158D01*
X127215000Y-100476260D01*
X127215000Y-100183740D01*
X127157932Y-99896842D01*
X127045990Y-99626589D01*
X126883475Y-99383368D01*
X126676632Y-99176525D01*
X126502240Y-99060000D01*
X126676632Y-98943475D01*
X126883475Y-98736632D01*
X127045990Y-98493411D01*
X127157932Y-98223158D01*
X127215000Y-97936260D01*
X127215000Y-97643740D01*
X127157932Y-97356842D01*
X127045990Y-97086589D01*
X126883475Y-96843368D01*
X126676632Y-96636525D01*
X126502240Y-96520000D01*
X126676632Y-96403475D01*
X126883475Y-96196632D01*
X127045990Y-95953411D01*
X127157932Y-95683158D01*
X127215000Y-95396260D01*
X127215000Y-95103740D01*
X127157932Y-94816842D01*
X127045990Y-94546589D01*
X126883475Y-94303368D01*
X126676632Y-94096525D01*
X126502240Y-93980000D01*
X126676632Y-93863475D01*
X126883475Y-93656632D01*
X127045990Y-93413411D01*
X127157932Y-93143158D01*
X127215000Y-92856260D01*
X127215000Y-92563740D01*
X127157932Y-92276842D01*
X127045990Y-92006589D01*
X126883475Y-91763368D01*
X126676632Y-91556525D01*
X126502240Y-91440000D01*
X126676632Y-91323475D01*
X126883475Y-91116632D01*
X127045990Y-90873411D01*
X127157932Y-90603158D01*
X127215000Y-90316260D01*
X127215000Y-90023740D01*
X127157932Y-89736842D01*
X127045990Y-89466589D01*
X126883475Y-89223368D01*
X126676632Y-89016525D01*
X126502240Y-88900000D01*
X126676632Y-88783475D01*
X126883475Y-88576632D01*
X127045990Y-88333411D01*
X127157932Y-88063158D01*
X127215000Y-87776260D01*
X127215000Y-87483740D01*
X127157932Y-87196842D01*
X127045990Y-86926589D01*
X126883475Y-86683368D01*
X126676632Y-86476525D01*
X126502240Y-86360000D01*
X126676632Y-86243475D01*
X126883475Y-86036632D01*
X127045990Y-85793411D01*
X127157932Y-85523158D01*
X127215000Y-85236260D01*
X127215000Y-84943740D01*
X127157932Y-84656842D01*
X127045990Y-84386589D01*
X126883475Y-84143368D01*
X126676632Y-83936525D01*
X126502240Y-83820000D01*
X126676632Y-83703475D01*
X126883475Y-83496632D01*
X127045990Y-83253411D01*
X127157932Y-82983158D01*
X127215000Y-82696260D01*
X127215000Y-82403740D01*
X127157932Y-82116842D01*
X127045990Y-81846589D01*
X126883475Y-81603368D01*
X126676632Y-81396525D01*
X126502240Y-81280000D01*
X126676632Y-81163475D01*
X126820107Y-81020000D01*
X130680130Y-81020000D01*
X130690498Y-81054180D01*
X130749463Y-81164494D01*
X130828815Y-81261185D01*
X130925506Y-81340537D01*
X131035820Y-81399502D01*
X131155518Y-81435812D01*
X131280000Y-81448072D01*
X132880000Y-81448072D01*
X133004482Y-81435812D01*
X133124180Y-81399502D01*
X133234494Y-81340537D01*
X133331185Y-81261185D01*
X133410537Y-81164494D01*
X133469502Y-81054180D01*
X133485117Y-81002702D01*
X133766903Y-81002702D01*
X133838486Y-81246671D01*
X134093996Y-81367571D01*
X134368184Y-81436300D01*
X134650512Y-81450217D01*
X134930130Y-81408787D01*
X135196292Y-81313603D01*
X135321514Y-81246671D01*
X135393097Y-81002702D01*
X134580000Y-80189605D01*
X133766903Y-81002702D01*
X133485117Y-81002702D01*
X133505812Y-80934482D01*
X133518072Y-80810000D01*
X133518072Y-80802785D01*
X133587298Y-80823097D01*
X134400395Y-80010000D01*
X134759605Y-80010000D01*
X135572702Y-80823097D01*
X135816671Y-80751514D01*
X135937571Y-80496004D01*
X136006300Y-80221816D01*
X136020217Y-79939488D01*
X135978787Y-79659870D01*
X135883603Y-79393708D01*
X135816671Y-79268486D01*
X135572702Y-79196903D01*
X134759605Y-80010000D01*
X134400395Y-80010000D01*
X133587298Y-79196903D01*
X133518072Y-79217215D01*
X133518072Y-79210000D01*
X133505812Y-79085518D01*
X133485118Y-79017298D01*
X133766903Y-79017298D01*
X134580000Y-79830395D01*
X135393097Y-79017298D01*
X135321514Y-78773329D01*
X135066004Y-78652429D01*
X134791816Y-78583700D01*
X134509488Y-78569783D01*
X134229870Y-78611213D01*
X133963708Y-78706397D01*
X133838486Y-78773329D01*
X133766903Y-79017298D01*
X133485118Y-79017298D01*
X133469502Y-78965820D01*
X133410537Y-78855506D01*
X133331185Y-78758815D01*
X133234494Y-78679463D01*
X133124180Y-78620498D01*
X133090000Y-78610130D01*
X133090000Y-69899604D01*
X133094886Y-69849999D01*
X133080480Y-69703740D01*
X133075385Y-69652006D01*
X133017632Y-69461620D01*
X132923847Y-69286160D01*
X132797633Y-69132367D01*
X132759094Y-69100739D01*
X126740000Y-63081645D01*
X126740000Y-60818665D01*
X128105000Y-60818665D01*
X128105000Y-61101335D01*
X128160147Y-61378574D01*
X128268320Y-61639727D01*
X128425363Y-61874759D01*
X128625241Y-62074637D01*
X128860273Y-62231680D01*
X129121426Y-62339853D01*
X129398665Y-62395000D01*
X129681335Y-62395000D01*
X129958574Y-62339853D01*
X130219727Y-62231680D01*
X130454759Y-62074637D01*
X130654637Y-61874759D01*
X130811680Y-61639727D01*
X130919853Y-61378574D01*
X130975000Y-61101335D01*
X130975000Y-60818665D01*
X135725000Y-60818665D01*
X135725000Y-61101335D01*
X135780147Y-61378574D01*
X135888320Y-61639727D01*
X136045363Y-61874759D01*
X136245241Y-62074637D01*
X136480273Y-62231680D01*
X136741426Y-62339853D01*
X137018665Y-62395000D01*
X137301335Y-62395000D01*
X137578574Y-62339853D01*
X137839727Y-62231680D01*
X138074759Y-62074637D01*
X138274637Y-61874759D01*
X138431680Y-61639727D01*
X138539853Y-61378574D01*
X138595000Y-61101335D01*
X138595000Y-60818665D01*
X143345000Y-60818665D01*
X143345000Y-61101335D01*
X143400147Y-61378574D01*
X143508320Y-61639727D01*
X143665363Y-61874759D01*
X143865241Y-62074637D01*
X144100273Y-62231680D01*
X144361426Y-62339853D01*
X144638665Y-62395000D01*
X144921335Y-62395000D01*
X145198574Y-62339853D01*
X145459727Y-62231680D01*
X145694759Y-62074637D01*
X145894637Y-61874759D01*
X146051680Y-61639727D01*
X146159853Y-61378574D01*
X146215000Y-61101335D01*
X146215000Y-60818665D01*
X146159853Y-60541426D01*
X146051680Y-60280273D01*
X145894637Y-60045241D01*
X145694759Y-59845363D01*
X145459727Y-59688320D01*
X145198574Y-59580147D01*
X144921335Y-59525000D01*
X144638665Y-59525000D01*
X144361426Y-59580147D01*
X144100273Y-59688320D01*
X143865241Y-59845363D01*
X143665363Y-60045241D01*
X143508320Y-60280273D01*
X143400147Y-60541426D01*
X143345000Y-60818665D01*
X138595000Y-60818665D01*
X138539853Y-60541426D01*
X138431680Y-60280273D01*
X138274637Y-60045241D01*
X138074759Y-59845363D01*
X137839727Y-59688320D01*
X137578574Y-59580147D01*
X137301335Y-59525000D01*
X137018665Y-59525000D01*
X136741426Y-59580147D01*
X136480273Y-59688320D01*
X136245241Y-59845363D01*
X136045363Y-60045241D01*
X135888320Y-60280273D01*
X135780147Y-60541426D01*
X135725000Y-60818665D01*
X130975000Y-60818665D01*
X130919853Y-60541426D01*
X130811680Y-60280273D01*
X130654637Y-60045241D01*
X130454759Y-59845363D01*
X130219727Y-59688320D01*
X129958574Y-59580147D01*
X129681335Y-59525000D01*
X129398665Y-59525000D01*
X129121426Y-59580147D01*
X128860273Y-59688320D01*
X128625241Y-59845363D01*
X128425363Y-60045241D01*
X128268320Y-60280273D01*
X128160147Y-60541426D01*
X128105000Y-60818665D01*
X126740000Y-60818665D01*
X126740000Y-40498665D01*
X128105000Y-40498665D01*
X128105000Y-40781335D01*
X128160147Y-41058574D01*
X128268320Y-41319727D01*
X128425363Y-41554759D01*
X128625241Y-41754637D01*
X128860273Y-41911680D01*
X129121426Y-42019853D01*
X129398665Y-42075000D01*
X129681335Y-42075000D01*
X129958574Y-42019853D01*
X130219727Y-41911680D01*
X130454759Y-41754637D01*
X130654637Y-41554759D01*
X130811680Y-41319727D01*
X130919853Y-41058574D01*
X130975000Y-40781335D01*
X130975000Y-40498665D01*
X135725000Y-40498665D01*
X135725000Y-40781335D01*
X135780147Y-41058574D01*
X135888320Y-41319727D01*
X136045363Y-41554759D01*
X136245241Y-41754637D01*
X136480273Y-41911680D01*
X136741426Y-42019853D01*
X137018665Y-42075000D01*
X137301335Y-42075000D01*
X137578574Y-42019853D01*
X137839727Y-41911680D01*
X138074759Y-41754637D01*
X138274637Y-41554759D01*
X138431680Y-41319727D01*
X138539853Y-41058574D01*
X138595000Y-40781335D01*
X138595000Y-40498665D01*
X143345000Y-40498665D01*
X143345000Y-40781335D01*
X143400147Y-41058574D01*
X143508320Y-41319727D01*
X143665363Y-41554759D01*
X143865241Y-41754637D01*
X144100273Y-41911680D01*
X144361426Y-42019853D01*
X144638665Y-42075000D01*
X144921335Y-42075000D01*
X145198574Y-42019853D01*
X145459727Y-41911680D01*
X145694759Y-41754637D01*
X145894637Y-41554759D01*
X146051680Y-41319727D01*
X146159853Y-41058574D01*
X146215000Y-40781335D01*
X146215000Y-40498665D01*
X146159853Y-40221426D01*
X146051680Y-39960273D01*
X145894637Y-39725241D01*
X145694759Y-39525363D01*
X145459727Y-39368320D01*
X145198574Y-39260147D01*
X144921335Y-39205000D01*
X144638665Y-39205000D01*
X144361426Y-39260147D01*
X144100273Y-39368320D01*
X143865241Y-39525363D01*
X143665363Y-39725241D01*
X143508320Y-39960273D01*
X143400147Y-40221426D01*
X143345000Y-40498665D01*
X138595000Y-40498665D01*
X138539853Y-40221426D01*
X138431680Y-39960273D01*
X138274637Y-39725241D01*
X138074759Y-39525363D01*
X137839727Y-39368320D01*
X137578574Y-39260147D01*
X137301335Y-39205000D01*
X137018665Y-39205000D01*
X136741426Y-39260147D01*
X136480273Y-39368320D01*
X136245241Y-39525363D01*
X136045363Y-39725241D01*
X135888320Y-39960273D01*
X135780147Y-40221426D01*
X135725000Y-40498665D01*
X130975000Y-40498665D01*
X130919853Y-40221426D01*
X130811680Y-39960273D01*
X130654637Y-39725241D01*
X130454759Y-39525363D01*
X130219727Y-39368320D01*
X129958574Y-39260147D01*
X129681335Y-39205000D01*
X129398665Y-39205000D01*
X129121426Y-39260147D01*
X128860273Y-39368320D01*
X128625241Y-39525363D01*
X128425363Y-39725241D01*
X128268320Y-39960273D01*
X128160147Y-40221426D01*
X128105000Y-40498665D01*
X126740000Y-40498665D01*
X126740000Y-22680107D01*
X126808487Y-22611620D01*
X126830498Y-22684180D01*
X126889463Y-22794494D01*
X126968815Y-22891185D01*
X127065506Y-22970537D01*
X127175820Y-23029502D01*
X127295518Y-23065812D01*
X127420000Y-23078072D01*
X127984250Y-23075000D01*
X128143000Y-22916250D01*
X128143000Y-21717000D01*
X128397000Y-21717000D01*
X128397000Y-22916250D01*
X128555750Y-23075000D01*
X129120000Y-23078072D01*
X129244482Y-23065812D01*
X129364180Y-23029502D01*
X129474494Y-22970537D01*
X129571185Y-22891185D01*
X129650537Y-22794494D01*
X129709502Y-22684180D01*
X129745812Y-22564482D01*
X129758072Y-22440000D01*
X129755000Y-21875750D01*
X129596250Y-21717000D01*
X128397000Y-21717000D01*
X128143000Y-21717000D01*
X128123000Y-21717000D01*
X128123000Y-21463000D01*
X128143000Y-21463000D01*
X128143000Y-20263750D01*
X128397000Y-20263750D01*
X128397000Y-21463000D01*
X129596250Y-21463000D01*
X129755000Y-21304250D01*
X129758072Y-20740000D01*
X129745812Y-20615518D01*
X129709502Y-20495820D01*
X129650537Y-20385506D01*
X129571185Y-20288815D01*
X129474494Y-20209463D01*
X129364180Y-20150498D01*
X129244482Y-20114188D01*
X129120000Y-20101928D01*
X128555750Y-20105000D01*
X128397000Y-20263750D01*
X128143000Y-20263750D01*
X127984250Y-20105000D01*
X127420000Y-20101928D01*
X127295518Y-20114188D01*
X127175820Y-20150498D01*
X127065506Y-20209463D01*
X126968815Y-20288815D01*
X126889463Y-20385506D01*
X126830498Y-20495820D01*
X126808487Y-20568380D01*
X126676632Y-20436525D01*
X126433411Y-20274010D01*
X126163158Y-20162068D01*
X125876260Y-20105000D01*
X125583740Y-20105000D01*
X125296842Y-20162068D01*
X125026589Y-20274010D01*
X124783368Y-20436525D01*
X124576525Y-20643368D01*
X124414010Y-20886589D01*
X124302068Y-21156842D01*
X124245000Y-21443740D01*
X124245000Y-21736260D01*
X124302068Y-22023158D01*
X124414010Y-22293411D01*
X124576525Y-22536632D01*
X124720000Y-22680107D01*
X124720001Y-63450382D01*
X124715114Y-63500000D01*
X124734615Y-63697994D01*
X124792368Y-63888379D01*
X124886154Y-64063840D01*
X124964885Y-64159774D01*
X125012368Y-64217633D01*
X125050901Y-64249256D01*
X131070000Y-70268355D01*
X131070001Y-78610129D01*
X131035820Y-78620498D01*
X130925506Y-78679463D01*
X130828815Y-78758815D01*
X130749463Y-78855506D01*
X130690498Y-78965820D01*
X130680130Y-79000000D01*
X126820107Y-79000000D01*
X126676632Y-78856525D01*
X126502240Y-78740000D01*
X126676632Y-78623475D01*
X126883475Y-78416632D01*
X127045990Y-78173411D01*
X127157932Y-77903158D01*
X127215000Y-77616260D01*
X127215000Y-77323740D01*
X127157932Y-77036842D01*
X127045990Y-76766589D01*
X126883475Y-76523368D01*
X126751620Y-76391513D01*
X126824180Y-76369502D01*
X126934494Y-76310537D01*
X127031185Y-76231185D01*
X127110537Y-76134494D01*
X127169502Y-76024180D01*
X127205812Y-75904482D01*
X127218072Y-75780000D01*
X127218072Y-74080000D01*
X127205812Y-73955518D01*
X127169502Y-73835820D01*
X127110537Y-73725506D01*
X127031185Y-73628815D01*
X126934494Y-73549463D01*
X126824180Y-73490498D01*
X126704482Y-73454188D01*
X126580000Y-73441928D01*
X124880000Y-73441928D01*
X124755518Y-73454188D01*
X124635820Y-73490498D01*
X124525506Y-73549463D01*
X124428815Y-73628815D01*
X124349463Y-73725506D01*
X124290498Y-73835820D01*
X124254188Y-73955518D01*
X124241928Y-74080000D01*
X124241928Y-75780000D01*
X124254188Y-75904482D01*
X124290498Y-76024180D01*
X124349463Y-76134494D01*
X124428815Y-76231185D01*
X124525506Y-76310537D01*
X124635820Y-76369502D01*
X124708380Y-76391513D01*
X124576525Y-76523368D01*
X124414010Y-76766589D01*
X124302068Y-77036842D01*
X124245000Y-77323740D01*
X124245000Y-77616260D01*
X124302068Y-77903158D01*
X124414010Y-78173411D01*
X124576525Y-78416632D01*
X124783368Y-78623475D01*
X124957760Y-78740000D01*
X124783368Y-78856525D01*
X124576525Y-79063368D01*
X124414010Y-79306589D01*
X124302068Y-79576842D01*
X124245000Y-79863740D01*
X124245000Y-80156260D01*
X124302068Y-80443158D01*
X124414010Y-80713411D01*
X124576525Y-80956632D01*
X124783368Y-81163475D01*
X124957760Y-81280000D01*
X124783368Y-81396525D01*
X124576525Y-81603368D01*
X124414010Y-81846589D01*
X124302068Y-82116842D01*
X124245000Y-82403740D01*
X124245000Y-82696260D01*
X124302068Y-82983158D01*
X124414010Y-83253411D01*
X124576525Y-83496632D01*
X124783368Y-83703475D01*
X124957760Y-83820000D01*
X124783368Y-83936525D01*
X124576525Y-84143368D01*
X124414010Y-84386589D01*
X124302068Y-84656842D01*
X124245000Y-84943740D01*
X124245000Y-85236260D01*
X124302068Y-85523158D01*
X124414010Y-85793411D01*
X124576525Y-86036632D01*
X124783368Y-86243475D01*
X124957760Y-86360000D01*
X124783368Y-86476525D01*
X124576525Y-86683368D01*
X124414010Y-86926589D01*
X124302068Y-87196842D01*
X124245000Y-87483740D01*
X124245000Y-87776260D01*
X124302068Y-88063158D01*
X124414010Y-88333411D01*
X124576525Y-88576632D01*
X124783368Y-88783475D01*
X124957760Y-88900000D01*
X124783368Y-89016525D01*
X124576525Y-89223368D01*
X124414010Y-89466589D01*
X124302068Y-89736842D01*
X124282678Y-89834323D01*
X120390000Y-85941645D01*
X120390000Y-22680107D01*
X120533475Y-22536632D01*
X120695990Y-22293411D01*
X120807932Y-22023158D01*
X120865000Y-21736260D01*
X120865000Y-21443740D01*
X120807932Y-21156842D01*
X120695990Y-20886589D01*
X120533475Y-20643368D01*
X120326632Y-20436525D01*
X120083411Y-20274010D01*
X119813158Y-20162068D01*
X119526260Y-20105000D01*
X119233740Y-20105000D01*
X118946842Y-20162068D01*
X118676589Y-20274010D01*
X118433368Y-20436525D01*
X118226525Y-20643368D01*
X118110000Y-20817760D01*
X117993475Y-20643368D01*
X117786632Y-20436525D01*
X117543411Y-20274010D01*
X117273158Y-20162068D01*
X116986260Y-20105000D01*
X116783355Y-20105000D01*
X116114260Y-19435905D01*
X116082632Y-19397366D01*
X115928839Y-19271152D01*
X115753379Y-19177367D01*
X115752169Y-19177000D01*
X147193000Y-19177000D01*
X147193000Y-28995000D01*
X147173740Y-28995000D01*
X146886842Y-29052068D01*
X146616589Y-29164010D01*
X146373368Y-29326525D01*
X146166525Y-29533368D01*
X146050000Y-29707760D01*
X145933475Y-29533368D01*
X145726632Y-29326525D01*
X145483411Y-29164010D01*
X145213158Y-29052068D01*
X144926260Y-28995000D01*
X144633740Y-28995000D01*
X144346842Y-29052068D01*
X144076589Y-29164010D01*
X143833368Y-29326525D01*
X143626525Y-29533368D01*
X143510000Y-29707760D01*
X143393475Y-29533368D01*
X143186632Y-29326525D01*
X142943411Y-29164010D01*
X142673158Y-29052068D01*
X142386260Y-28995000D01*
X142093740Y-28995000D01*
X141806842Y-29052068D01*
X141536589Y-29164010D01*
X141293368Y-29326525D01*
X141161513Y-29458380D01*
X141139502Y-29385820D01*
X141080537Y-29275506D01*
X141001185Y-29178815D01*
X140904494Y-29099463D01*
X140794180Y-29040498D01*
X140674482Y-29004188D01*
X140550000Y-28991928D01*
X138850000Y-28991928D01*
X138725518Y-29004188D01*
X138605820Y-29040498D01*
X138495506Y-29099463D01*
X138398815Y-29178815D01*
X138319463Y-29275506D01*
X138260498Y-29385820D01*
X138224188Y-29505518D01*
X138211928Y-29630000D01*
X138211928Y-31330000D01*
X138224188Y-31454482D01*
X138260498Y-31574180D01*
X138319463Y-31684494D01*
X138398815Y-31781185D01*
X138495506Y-31860537D01*
X138605820Y-31919502D01*
X138725518Y-31955812D01*
X138850000Y-31968072D01*
X140550000Y-31968072D01*
X140674482Y-31955812D01*
X140794180Y-31919502D01*
X140904494Y-31860537D01*
X141001185Y-31781185D01*
X141080537Y-31684494D01*
X141139502Y-31574180D01*
X141161513Y-31501620D01*
X141293368Y-31633475D01*
X141536589Y-31795990D01*
X141806842Y-31907932D01*
X142093740Y-31965000D01*
X142386260Y-31965000D01*
X142673158Y-31907932D01*
X142943411Y-31795990D01*
X143186632Y-31633475D01*
X143393475Y-31426632D01*
X143510000Y-31252240D01*
X143626525Y-31426632D01*
X143833368Y-31633475D01*
X144076589Y-31795990D01*
X144346842Y-31907932D01*
X144633740Y-31965000D01*
X144926260Y-31965000D01*
X145213158Y-31907932D01*
X145483411Y-31795990D01*
X145726632Y-31633475D01*
X145933475Y-31426632D01*
X146050000Y-31252240D01*
X146166525Y-31426632D01*
X146373368Y-31633475D01*
X146616589Y-31795990D01*
X146886842Y-31907932D01*
X147173740Y-31965000D01*
X147193000Y-31965000D01*
X147193000Y-126873000D01*
X94107000Y-126873000D01*
X94107000Y-117968665D01*
X96355000Y-117968665D01*
X96355000Y-118251335D01*
X96410147Y-118528574D01*
X96518320Y-118789727D01*
X96675363Y-119024759D01*
X96875241Y-119224637D01*
X97110273Y-119381680D01*
X97371426Y-119489853D01*
X97648665Y-119545000D01*
X97931335Y-119545000D01*
X98208574Y-119489853D01*
X98469727Y-119381680D01*
X98704759Y-119224637D01*
X98904637Y-119024759D01*
X99061680Y-118789727D01*
X99169853Y-118528574D01*
X99225000Y-118251335D01*
X99225000Y-117968665D01*
X99169853Y-117691426D01*
X99061680Y-117430273D01*
X98904637Y-117195241D01*
X98704759Y-116995363D01*
X98469727Y-116838320D01*
X98208574Y-116730147D01*
X97931335Y-116675000D01*
X97648665Y-116675000D01*
X97371426Y-116730147D01*
X97110273Y-116838320D01*
X96875241Y-116995363D01*
X96675363Y-117195241D01*
X96518320Y-117430273D01*
X96410147Y-117691426D01*
X96355000Y-117968665D01*
X94107000Y-117968665D01*
X94107000Y-22547107D01*
X94303368Y-22743475D01*
X94546589Y-22905990D01*
X94816842Y-23017932D01*
X95103740Y-23075000D01*
X95396260Y-23075000D01*
X95683158Y-23017932D01*
X95953411Y-22905990D01*
X96196632Y-22743475D01*
X96403475Y-22536632D01*
X96520000Y-22362240D01*
X96636525Y-22536632D01*
X96843368Y-22743475D01*
X97086589Y-22905990D01*
X97356842Y-23017932D01*
X97643740Y-23075000D01*
X97936260Y-23075000D01*
X98223158Y-23017932D01*
X98493411Y-22905990D01*
X98736632Y-22743475D01*
X98943475Y-22536632D01*
X99060000Y-22362240D01*
X99176525Y-22536632D01*
X99383368Y-22743475D01*
X99626589Y-22905990D01*
X99896842Y-23017932D01*
X100183740Y-23075000D01*
X100476260Y-23075000D01*
X100763158Y-23017932D01*
X101033411Y-22905990D01*
X101276632Y-22743475D01*
X101483475Y-22536632D01*
X101645990Y-22293411D01*
X101757932Y-22023158D01*
X101815000Y-21736260D01*
X101815000Y-21443740D01*
X101757932Y-21156842D01*
X101645990Y-20886589D01*
X101483475Y-20643368D01*
X101276632Y-20436525D01*
X101033411Y-20274010D01*
X100763158Y-20162068D01*
X100476260Y-20105000D01*
X100183740Y-20105000D01*
X99896842Y-20162068D01*
X99626589Y-20274010D01*
X99383368Y-20436525D01*
X99176525Y-20643368D01*
X99060000Y-20817760D01*
X98943475Y-20643368D01*
X98736632Y-20436525D01*
X98493411Y-20274010D01*
X98223158Y-20162068D01*
X97936260Y-20105000D01*
X97643740Y-20105000D01*
X97356842Y-20162068D01*
X97086589Y-20274010D01*
X96843368Y-20436525D01*
X96636525Y-20643368D01*
X96520000Y-20817760D01*
X96403475Y-20643368D01*
X96196632Y-20436525D01*
X95953411Y-20274010D01*
X95683158Y-20162068D01*
X95396260Y-20105000D01*
X95103740Y-20105000D01*
X94816842Y-20162068D01*
X94546589Y-20274010D01*
X94303368Y-20436525D01*
X94107000Y-20632893D01*
X94107000Y-19177000D01*
X110022829Y-19177000D01*
X110021619Y-19177367D01*
G36*
X110271928Y-22440000D02*
G01*
X110284188Y-22564482D01*
X110320498Y-22684180D01*
X110379463Y-22794494D01*
X110458815Y-22891185D01*
X110555506Y-22970537D01*
X110665820Y-23029502D01*
X110750000Y-23055038D01*
X110750001Y-85941644D01*
X106857322Y-89834323D01*
X106837932Y-89736842D01*
X106725990Y-89466589D01*
X106563475Y-89223368D01*
X106356632Y-89016525D01*
X106182240Y-88900000D01*
X106356632Y-88783475D01*
X106563475Y-88576632D01*
X106725990Y-88333411D01*
X106837932Y-88063158D01*
X106895000Y-87776260D01*
X106895000Y-87483740D01*
X106837932Y-87196842D01*
X106725990Y-86926589D01*
X106563475Y-86683368D01*
X106356632Y-86476525D01*
X106182240Y-86360000D01*
X106356632Y-86243475D01*
X106563475Y-86036632D01*
X106725990Y-85793411D01*
X106837932Y-85523158D01*
X106895000Y-85236260D01*
X106895000Y-84943740D01*
X106837932Y-84656842D01*
X106725990Y-84386589D01*
X106563475Y-84143368D01*
X106356632Y-83936525D01*
X106182240Y-83820000D01*
X106356632Y-83703475D01*
X106563475Y-83496632D01*
X106725990Y-83253411D01*
X106837932Y-82983158D01*
X106895000Y-82696260D01*
X106895000Y-82403740D01*
X106837932Y-82116842D01*
X106725990Y-81846589D01*
X106563475Y-81603368D01*
X106356632Y-81396525D01*
X106182240Y-81280000D01*
X106356632Y-81163475D01*
X106563475Y-80956632D01*
X106725990Y-80713411D01*
X106837932Y-80443158D01*
X106895000Y-80156260D01*
X106895000Y-79863740D01*
X106837932Y-79576842D01*
X106725990Y-79306589D01*
X106563475Y-79063368D01*
X106356632Y-78856525D01*
X106182240Y-78740000D01*
X106356632Y-78623475D01*
X106563475Y-78416632D01*
X106725990Y-78173411D01*
X106837932Y-77903158D01*
X106895000Y-77616260D01*
X106895000Y-77323740D01*
X106837932Y-77036842D01*
X106725990Y-76766589D01*
X106563475Y-76523368D01*
X106356632Y-76316525D01*
X106182240Y-76200000D01*
X106356632Y-76083475D01*
X106563475Y-75876632D01*
X106725990Y-75633411D01*
X106837932Y-75363158D01*
X106895000Y-75076260D01*
X106895000Y-74783740D01*
X106837932Y-74496842D01*
X106725990Y-74226589D01*
X106563475Y-73983368D01*
X106356632Y-73776525D01*
X106174466Y-73654805D01*
X106291355Y-73585178D01*
X106507588Y-73390269D01*
X106681641Y-73156920D01*
X106806825Y-72894099D01*
X106851476Y-72746890D01*
X106730155Y-72517000D01*
X105537000Y-72517000D01*
X105537000Y-72537000D01*
X105283000Y-72537000D01*
X105283000Y-72517000D01*
X104089845Y-72517000D01*
X103968524Y-72746890D01*
X104013175Y-72894099D01*
X104138359Y-73156920D01*
X104312412Y-73390269D01*
X104528645Y-73585178D01*
X104645534Y-73654805D01*
X104463368Y-73776525D01*
X104256525Y-73983368D01*
X104094010Y-74226589D01*
X103982068Y-74496842D01*
X103925000Y-74783740D01*
X103925000Y-75076260D01*
X103982068Y-75363158D01*
X104094010Y-75633411D01*
X104256525Y-75876632D01*
X104463368Y-76083475D01*
X104637760Y-76200000D01*
X104463368Y-76316525D01*
X104256525Y-76523368D01*
X104094010Y-76766589D01*
X103982068Y-77036842D01*
X103925000Y-77323740D01*
X103925000Y-77616260D01*
X103982068Y-77903158D01*
X104094010Y-78173411D01*
X104256525Y-78416632D01*
X104463368Y-78623475D01*
X104637760Y-78740000D01*
X104463368Y-78856525D01*
X104256525Y-79063368D01*
X104094010Y-79306589D01*
X103982068Y-79576842D01*
X103925000Y-79863740D01*
X103925000Y-80156260D01*
X103982068Y-80443158D01*
X104094010Y-80713411D01*
X104256525Y-80956632D01*
X104463368Y-81163475D01*
X104637760Y-81280000D01*
X104463368Y-81396525D01*
X104256525Y-81603368D01*
X104094010Y-81846589D01*
X103982068Y-82116842D01*
X103925000Y-82403740D01*
X103925000Y-82696260D01*
X103982068Y-82983158D01*
X104094010Y-83253411D01*
X104256525Y-83496632D01*
X104463368Y-83703475D01*
X104637760Y-83820000D01*
X104463368Y-83936525D01*
X104256525Y-84143368D01*
X104094010Y-84386589D01*
X103982068Y-84656842D01*
X103925000Y-84943740D01*
X103925000Y-85236260D01*
X103982068Y-85523158D01*
X104094010Y-85793411D01*
X104256525Y-86036632D01*
X104463368Y-86243475D01*
X104637760Y-86360000D01*
X104463368Y-86476525D01*
X104256525Y-86683368D01*
X104094010Y-86926589D01*
X103982068Y-87196842D01*
X103962678Y-87294322D01*
X102610000Y-85941645D01*
X102610000Y-63920000D01*
X103921928Y-63920000D01*
X103921928Y-65620000D01*
X103934188Y-65744482D01*
X103970498Y-65864180D01*
X104029463Y-65974494D01*
X104108815Y-66071185D01*
X104205506Y-66150537D01*
X104315820Y-66209502D01*
X104388380Y-66231513D01*
X104256525Y-66363368D01*
X104094010Y-66606589D01*
X103982068Y-66876842D01*
X103925000Y-67163740D01*
X103925000Y-67456260D01*
X103982068Y-67743158D01*
X104094010Y-68013411D01*
X104256525Y-68256632D01*
X104463368Y-68463475D01*
X104637760Y-68580000D01*
X104463368Y-68696525D01*
X104256525Y-68903368D01*
X104094010Y-69146589D01*
X103982068Y-69416842D01*
X103925000Y-69703740D01*
X103925000Y-69996260D01*
X103982068Y-70283158D01*
X104094010Y-70553411D01*
X104256525Y-70796632D01*
X104463368Y-71003475D01*
X104645534Y-71125195D01*
X104528645Y-71194822D01*
X104312412Y-71389731D01*
X104138359Y-71623080D01*
X104013175Y-71885901D01*
X103968524Y-72033110D01*
X104089845Y-72263000D01*
X105283000Y-72263000D01*
X105283000Y-72243000D01*
X105537000Y-72243000D01*
X105537000Y-72263000D01*
X106730155Y-72263000D01*
X106851476Y-72033110D01*
X106806825Y-71885901D01*
X106681641Y-71623080D01*
X106507588Y-71389731D01*
X106291355Y-71194822D01*
X106174466Y-71125195D01*
X106356632Y-71003475D01*
X106563475Y-70796632D01*
X106725990Y-70553411D01*
X106837932Y-70283158D01*
X106895000Y-69996260D01*
X106895000Y-69703740D01*
X106837932Y-69416842D01*
X106725990Y-69146589D01*
X106563475Y-68903368D01*
X106356632Y-68696525D01*
X106182240Y-68580000D01*
X106356632Y-68463475D01*
X106563475Y-68256632D01*
X106725990Y-68013411D01*
X106837932Y-67743158D01*
X106895000Y-67456260D01*
X106895000Y-67163740D01*
X106837932Y-66876842D01*
X106725990Y-66606589D01*
X106563475Y-66363368D01*
X106431620Y-66231513D01*
X106504180Y-66209502D01*
X106614494Y-66150537D01*
X106711185Y-66071185D01*
X106790537Y-65974494D01*
X106849502Y-65864180D01*
X106885812Y-65744482D01*
X106898072Y-65620000D01*
X106898072Y-63920000D01*
X106885812Y-63795518D01*
X106849502Y-63675820D01*
X106790537Y-63565506D01*
X106711185Y-63468815D01*
X106614494Y-63389463D01*
X106504180Y-63330498D01*
X106384482Y-63294188D01*
X106260000Y-63281928D01*
X104560000Y-63281928D01*
X104435518Y-63294188D01*
X104315820Y-63330498D01*
X104205506Y-63389463D01*
X104108815Y-63468815D01*
X104029463Y-63565506D01*
X103970498Y-63675820D01*
X103934188Y-63795518D01*
X103921928Y-63920000D01*
X102610000Y-63920000D01*
X102610000Y-29343353D01*
X110271928Y-21681425D01*
X110271928Y-22440000D01*
G37*
X110271928Y-22440000D02*
X110284188Y-22564482D01*
X110320498Y-22684180D01*
X110379463Y-22794494D01*
X110458815Y-22891185D01*
X110555506Y-22970537D01*
X110665820Y-23029502D01*
X110750000Y-23055038D01*
X110750001Y-85941644D01*
X106857322Y-89834323D01*
X106837932Y-89736842D01*
X106725990Y-89466589D01*
X106563475Y-89223368D01*
X106356632Y-89016525D01*
X106182240Y-88900000D01*
X106356632Y-88783475D01*
X106563475Y-88576632D01*
X106725990Y-88333411D01*
X106837932Y-88063158D01*
X106895000Y-87776260D01*
X106895000Y-87483740D01*
X106837932Y-87196842D01*
X106725990Y-86926589D01*
X106563475Y-86683368D01*
X106356632Y-86476525D01*
X106182240Y-86360000D01*
X106356632Y-86243475D01*
X106563475Y-86036632D01*
X106725990Y-85793411D01*
X106837932Y-85523158D01*
X106895000Y-85236260D01*
X106895000Y-84943740D01*
X106837932Y-84656842D01*
X106725990Y-84386589D01*
X106563475Y-84143368D01*
X106356632Y-83936525D01*
X106182240Y-83820000D01*
X106356632Y-83703475D01*
X106563475Y-83496632D01*
X106725990Y-83253411D01*
X106837932Y-82983158D01*
X106895000Y-82696260D01*
X106895000Y-82403740D01*
X106837932Y-82116842D01*
X106725990Y-81846589D01*
X106563475Y-81603368D01*
X106356632Y-81396525D01*
X106182240Y-81280000D01*
X106356632Y-81163475D01*
X106563475Y-80956632D01*
X106725990Y-80713411D01*
X106837932Y-80443158D01*
X106895000Y-80156260D01*
X106895000Y-79863740D01*
X106837932Y-79576842D01*
X106725990Y-79306589D01*
X106563475Y-79063368D01*
X106356632Y-78856525D01*
X106182240Y-78740000D01*
X106356632Y-78623475D01*
X106563475Y-78416632D01*
X106725990Y-78173411D01*
X106837932Y-77903158D01*
X106895000Y-77616260D01*
X106895000Y-77323740D01*
X106837932Y-77036842D01*
X106725990Y-76766589D01*
X106563475Y-76523368D01*
X106356632Y-76316525D01*
X106182240Y-76200000D01*
X106356632Y-76083475D01*
X106563475Y-75876632D01*
X106725990Y-75633411D01*
X106837932Y-75363158D01*
X106895000Y-75076260D01*
X106895000Y-74783740D01*
X106837932Y-74496842D01*
X106725990Y-74226589D01*
X106563475Y-73983368D01*
X106356632Y-73776525D01*
X106174466Y-73654805D01*
X106291355Y-73585178D01*
X106507588Y-73390269D01*
X106681641Y-73156920D01*
X106806825Y-72894099D01*
X106851476Y-72746890D01*
X106730155Y-72517000D01*
X105537000Y-72517000D01*
X105537000Y-72537000D01*
X105283000Y-72537000D01*
X105283000Y-72517000D01*
X104089845Y-72517000D01*
X103968524Y-72746890D01*
X104013175Y-72894099D01*
X104138359Y-73156920D01*
X104312412Y-73390269D01*
X104528645Y-73585178D01*
X104645534Y-73654805D01*
X104463368Y-73776525D01*
X104256525Y-73983368D01*
X104094010Y-74226589D01*
X103982068Y-74496842D01*
X103925000Y-74783740D01*
X103925000Y-75076260D01*
X103982068Y-75363158D01*
X104094010Y-75633411D01*
X104256525Y-75876632D01*
X104463368Y-76083475D01*
X104637760Y-76200000D01*
X104463368Y-76316525D01*
X104256525Y-76523368D01*
X104094010Y-76766589D01*
X103982068Y-77036842D01*
X103925000Y-77323740D01*
X103925000Y-77616260D01*
X103982068Y-77903158D01*
X104094010Y-78173411D01*
X104256525Y-78416632D01*
X104463368Y-78623475D01*
X104637760Y-78740000D01*
X104463368Y-78856525D01*
X104256525Y-79063368D01*
X104094010Y-79306589D01*
X103982068Y-79576842D01*
X103925000Y-79863740D01*
X103925000Y-80156260D01*
X103982068Y-80443158D01*
X104094010Y-80713411D01*
X104256525Y-80956632D01*
X104463368Y-81163475D01*
X104637760Y-81280000D01*
X104463368Y-81396525D01*
X104256525Y-81603368D01*
X104094010Y-81846589D01*
X103982068Y-82116842D01*
X103925000Y-82403740D01*
X103925000Y-82696260D01*
X103982068Y-82983158D01*
X104094010Y-83253411D01*
X104256525Y-83496632D01*
X104463368Y-83703475D01*
X104637760Y-83820000D01*
X104463368Y-83936525D01*
X104256525Y-84143368D01*
X104094010Y-84386589D01*
X103982068Y-84656842D01*
X103925000Y-84943740D01*
X103925000Y-85236260D01*
X103982068Y-85523158D01*
X104094010Y-85793411D01*
X104256525Y-86036632D01*
X104463368Y-86243475D01*
X104637760Y-86360000D01*
X104463368Y-86476525D01*
X104256525Y-86683368D01*
X104094010Y-86926589D01*
X103982068Y-87196842D01*
X103962678Y-87294322D01*
X102610000Y-85941645D01*
X102610000Y-63920000D01*
X103921928Y-63920000D01*
X103921928Y-65620000D01*
X103934188Y-65744482D01*
X103970498Y-65864180D01*
X104029463Y-65974494D01*
X104108815Y-66071185D01*
X104205506Y-66150537D01*
X104315820Y-66209502D01*
X104388380Y-66231513D01*
X104256525Y-66363368D01*
X104094010Y-66606589D01*
X103982068Y-66876842D01*
X103925000Y-67163740D01*
X103925000Y-67456260D01*
X103982068Y-67743158D01*
X104094010Y-68013411D01*
X104256525Y-68256632D01*
X104463368Y-68463475D01*
X104637760Y-68580000D01*
X104463368Y-68696525D01*
X104256525Y-68903368D01*
X104094010Y-69146589D01*
X103982068Y-69416842D01*
X103925000Y-69703740D01*
X103925000Y-69996260D01*
X103982068Y-70283158D01*
X104094010Y-70553411D01*
X104256525Y-70796632D01*
X104463368Y-71003475D01*
X104645534Y-71125195D01*
X104528645Y-71194822D01*
X104312412Y-71389731D01*
X104138359Y-71623080D01*
X104013175Y-71885901D01*
X103968524Y-72033110D01*
X104089845Y-72263000D01*
X105283000Y-72263000D01*
X105283000Y-72243000D01*
X105537000Y-72243000D01*
X105537000Y-72263000D01*
X106730155Y-72263000D01*
X106851476Y-72033110D01*
X106806825Y-71885901D01*
X106681641Y-71623080D01*
X106507588Y-71389731D01*
X106291355Y-71194822D01*
X106174466Y-71125195D01*
X106356632Y-71003475D01*
X106563475Y-70796632D01*
X106725990Y-70553411D01*
X106837932Y-70283158D01*
X106895000Y-69996260D01*
X106895000Y-69703740D01*
X106837932Y-69416842D01*
X106725990Y-69146589D01*
X106563475Y-68903368D01*
X106356632Y-68696525D01*
X106182240Y-68580000D01*
X106356632Y-68463475D01*
X106563475Y-68256632D01*
X106725990Y-68013411D01*
X106837932Y-67743158D01*
X106895000Y-67456260D01*
X106895000Y-67163740D01*
X106837932Y-66876842D01*
X106725990Y-66606589D01*
X106563475Y-66363368D01*
X106431620Y-66231513D01*
X106504180Y-66209502D01*
X106614494Y-66150537D01*
X106711185Y-66071185D01*
X106790537Y-65974494D01*
X106849502Y-65864180D01*
X106885812Y-65744482D01*
X106898072Y-65620000D01*
X106898072Y-63920000D01*
X106885812Y-63795518D01*
X106849502Y-63675820D01*
X106790537Y-63565506D01*
X106711185Y-63468815D01*
X106614494Y-63389463D01*
X106504180Y-63330498D01*
X106384482Y-63294188D01*
X106260000Y-63281928D01*
X104560000Y-63281928D01*
X104435518Y-63294188D01*
X104315820Y-63330498D01*
X104205506Y-63389463D01*
X104108815Y-63468815D01*
X104029463Y-63565506D01*
X103970498Y-63675820D01*
X103934188Y-63795518D01*
X103921928Y-63920000D01*
X102610000Y-63920000D01*
X102610000Y-29343353D01*
X110271928Y-21681425D01*
X110271928Y-22440000D01*
M02*
