G04 #@! TF.GenerationSoftware,KiCad,Pcbnew,(5.1.5)-3*
G04 #@! TF.CreationDate,2020-02-27T12:53:11-05:00*
G04 #@! TF.ProjectId,input board,696e7075-7420-4626-9f61-72642e6b6963,rev?*
G04 #@! TF.SameCoordinates,Original*
G04 #@! TF.FileFunction,Legend,Top*
G04 #@! TF.FilePolarity,Positive*
%FSLAX46Y46*%
G04 Gerber Fmt 4.6, Leading zero omitted, Abs format (unit mm)*
G04 Created by KiCad (PCBNEW (5.1.5)-3) date 2020-02-27 12:53:11*
%MOMM*%
%LPD*%
G04 APERTURE LIST*
%ADD10C,0.050000*%
%ADD11C,0.150000*%
%ADD12C,0.120000*%
%ADD13C,0.152400*%
G04 APERTURE END LIST*
D10*
X57150000Y-17780000D02*
X207010000Y-17780000D01*
X57150000Y-166370000D02*
X57150000Y-17780000D01*
X207010000Y-166370000D02*
X57150000Y-166370000D01*
X207010000Y-17780000D02*
X207010000Y-166370000D01*
D11*
X71580952Y-158202380D02*
X71580952Y-158916666D01*
X71533333Y-159059523D01*
X71438095Y-159154761D01*
X71295238Y-159202380D01*
X71200000Y-159202380D01*
X72628571Y-159107142D02*
X72580952Y-159154761D01*
X72438095Y-159202380D01*
X72342857Y-159202380D01*
X72200000Y-159154761D01*
X72104761Y-159059523D01*
X72057142Y-158964285D01*
X72009523Y-158773809D01*
X72009523Y-158630952D01*
X72057142Y-158440476D01*
X72104761Y-158345238D01*
X72200000Y-158250000D01*
X72342857Y-158202380D01*
X72438095Y-158202380D01*
X72580952Y-158250000D01*
X72628571Y-158297619D01*
X73533333Y-159202380D02*
X73057142Y-159202380D01*
X73057142Y-158202380D01*
X74152380Y-158202380D02*
X74152380Y-158916666D01*
X74104761Y-159059523D01*
X74009523Y-159154761D01*
X73866666Y-159202380D01*
X73771428Y-159202380D01*
X75200000Y-159107142D02*
X75152380Y-159154761D01*
X75009523Y-159202380D01*
X74914285Y-159202380D01*
X74771428Y-159154761D01*
X74676190Y-159059523D01*
X74628571Y-158964285D01*
X74580952Y-158773809D01*
X74580952Y-158630952D01*
X74628571Y-158440476D01*
X74676190Y-158345238D01*
X74771428Y-158250000D01*
X74914285Y-158202380D01*
X75009523Y-158202380D01*
X75152380Y-158250000D01*
X75200000Y-158297619D01*
X76104761Y-159202380D02*
X75628571Y-159202380D01*
X75628571Y-158202380D01*
X76723809Y-158202380D02*
X76723809Y-158916666D01*
X76676190Y-159059523D01*
X76580952Y-159154761D01*
X76438095Y-159202380D01*
X76342857Y-159202380D01*
X77771428Y-159107142D02*
X77723809Y-159154761D01*
X77580952Y-159202380D01*
X77485714Y-159202380D01*
X77342857Y-159154761D01*
X77247619Y-159059523D01*
X77200000Y-158964285D01*
X77152380Y-158773809D01*
X77152380Y-158630952D01*
X77200000Y-158440476D01*
X77247619Y-158345238D01*
X77342857Y-158250000D01*
X77485714Y-158202380D01*
X77580952Y-158202380D01*
X77723809Y-158250000D01*
X77771428Y-158297619D01*
X78676190Y-159202380D02*
X78200000Y-159202380D01*
X78200000Y-158202380D01*
X79295238Y-158202380D02*
X79295238Y-158916666D01*
X79247619Y-159059523D01*
X79152380Y-159154761D01*
X79009523Y-159202380D01*
X78914285Y-159202380D01*
X80342857Y-159107142D02*
X80295238Y-159154761D01*
X80152380Y-159202380D01*
X80057142Y-159202380D01*
X79914285Y-159154761D01*
X79819047Y-159059523D01*
X79771428Y-158964285D01*
X79723809Y-158773809D01*
X79723809Y-158630952D01*
X79771428Y-158440476D01*
X79819047Y-158345238D01*
X79914285Y-158250000D01*
X80057142Y-158202380D01*
X80152380Y-158202380D01*
X80295238Y-158250000D01*
X80342857Y-158297619D01*
X81247619Y-159202380D02*
X80771428Y-159202380D01*
X80771428Y-158202380D01*
D12*
X129600000Y-21590000D02*
X129600000Y-22920000D01*
X129600000Y-22920000D02*
X128270000Y-22920000D01*
X127000000Y-22920000D02*
X124400000Y-22920000D01*
X124400000Y-20260000D02*
X124400000Y-22920000D01*
X127000000Y-20260000D02*
X124400000Y-20260000D01*
X127000000Y-20260000D02*
X127000000Y-22920000D01*
X86300000Y-21590000D02*
X86300000Y-20260000D01*
X86300000Y-20260000D02*
X87630000Y-20260000D01*
X88900000Y-20260000D02*
X101660000Y-20260000D01*
X101660000Y-22920000D02*
X101660000Y-20260000D01*
X88900000Y-22920000D02*
X101660000Y-22920000D01*
X88900000Y-22920000D02*
X88900000Y-20260000D01*
X135950000Y-80010000D02*
G75*
G03X135950000Y-80010000I-2620000J0D01*
G01*
X133330000Y-77430000D02*
X133330000Y-82590000D01*
X133370000Y-77430000D02*
X133370000Y-82590000D01*
X133410000Y-77431000D02*
X133410000Y-82589000D01*
X133450000Y-77432000D02*
X133450000Y-82588000D01*
X133490000Y-77434000D02*
X133490000Y-82586000D01*
X133530000Y-77437000D02*
X133530000Y-82583000D01*
X133570000Y-77441000D02*
X133570000Y-78970000D01*
X133570000Y-81050000D02*
X133570000Y-82579000D01*
X133610000Y-77445000D02*
X133610000Y-78970000D01*
X133610000Y-81050000D02*
X133610000Y-82575000D01*
X133650000Y-77449000D02*
X133650000Y-78970000D01*
X133650000Y-81050000D02*
X133650000Y-82571000D01*
X133690000Y-77454000D02*
X133690000Y-78970000D01*
X133690000Y-81050000D02*
X133690000Y-82566000D01*
X133730000Y-77460000D02*
X133730000Y-78970000D01*
X133730000Y-81050000D02*
X133730000Y-82560000D01*
X133770000Y-77467000D02*
X133770000Y-78970000D01*
X133770000Y-81050000D02*
X133770000Y-82553000D01*
X133810000Y-77474000D02*
X133810000Y-78970000D01*
X133810000Y-81050000D02*
X133810000Y-82546000D01*
X133850000Y-77482000D02*
X133850000Y-78970000D01*
X133850000Y-81050000D02*
X133850000Y-82538000D01*
X133890000Y-77490000D02*
X133890000Y-78970000D01*
X133890000Y-81050000D02*
X133890000Y-82530000D01*
X133930000Y-77499000D02*
X133930000Y-78970000D01*
X133930000Y-81050000D02*
X133930000Y-82521000D01*
X133970000Y-77509000D02*
X133970000Y-78970000D01*
X133970000Y-81050000D02*
X133970000Y-82511000D01*
X134010000Y-77519000D02*
X134010000Y-78970000D01*
X134010000Y-81050000D02*
X134010000Y-82501000D01*
X134051000Y-77530000D02*
X134051000Y-78970000D01*
X134051000Y-81050000D02*
X134051000Y-82490000D01*
X134091000Y-77542000D02*
X134091000Y-78970000D01*
X134091000Y-81050000D02*
X134091000Y-82478000D01*
X134131000Y-77555000D02*
X134131000Y-78970000D01*
X134131000Y-81050000D02*
X134131000Y-82465000D01*
X134171000Y-77568000D02*
X134171000Y-78970000D01*
X134171000Y-81050000D02*
X134171000Y-82452000D01*
X134211000Y-77582000D02*
X134211000Y-78970000D01*
X134211000Y-81050000D02*
X134211000Y-82438000D01*
X134251000Y-77596000D02*
X134251000Y-78970000D01*
X134251000Y-81050000D02*
X134251000Y-82424000D01*
X134291000Y-77612000D02*
X134291000Y-78970000D01*
X134291000Y-81050000D02*
X134291000Y-82408000D01*
X134331000Y-77628000D02*
X134331000Y-78970000D01*
X134331000Y-81050000D02*
X134331000Y-82392000D01*
X134371000Y-77645000D02*
X134371000Y-78970000D01*
X134371000Y-81050000D02*
X134371000Y-82375000D01*
X134411000Y-77662000D02*
X134411000Y-78970000D01*
X134411000Y-81050000D02*
X134411000Y-82358000D01*
X134451000Y-77681000D02*
X134451000Y-78970000D01*
X134451000Y-81050000D02*
X134451000Y-82339000D01*
X134491000Y-77700000D02*
X134491000Y-78970000D01*
X134491000Y-81050000D02*
X134491000Y-82320000D01*
X134531000Y-77720000D02*
X134531000Y-78970000D01*
X134531000Y-81050000D02*
X134531000Y-82300000D01*
X134571000Y-77742000D02*
X134571000Y-78970000D01*
X134571000Y-81050000D02*
X134571000Y-82278000D01*
X134611000Y-77763000D02*
X134611000Y-78970000D01*
X134611000Y-81050000D02*
X134611000Y-82257000D01*
X134651000Y-77786000D02*
X134651000Y-78970000D01*
X134651000Y-81050000D02*
X134651000Y-82234000D01*
X134691000Y-77810000D02*
X134691000Y-78970000D01*
X134691000Y-81050000D02*
X134691000Y-82210000D01*
X134731000Y-77835000D02*
X134731000Y-78970000D01*
X134731000Y-81050000D02*
X134731000Y-82185000D01*
X134771000Y-77861000D02*
X134771000Y-78970000D01*
X134771000Y-81050000D02*
X134771000Y-82159000D01*
X134811000Y-77888000D02*
X134811000Y-78970000D01*
X134811000Y-81050000D02*
X134811000Y-82132000D01*
X134851000Y-77915000D02*
X134851000Y-78970000D01*
X134851000Y-81050000D02*
X134851000Y-82105000D01*
X134891000Y-77945000D02*
X134891000Y-78970000D01*
X134891000Y-81050000D02*
X134891000Y-82075000D01*
X134931000Y-77975000D02*
X134931000Y-78970000D01*
X134931000Y-81050000D02*
X134931000Y-82045000D01*
X134971000Y-78006000D02*
X134971000Y-78970000D01*
X134971000Y-81050000D02*
X134971000Y-82014000D01*
X135011000Y-78039000D02*
X135011000Y-78970000D01*
X135011000Y-81050000D02*
X135011000Y-81981000D01*
X135051000Y-78073000D02*
X135051000Y-78970000D01*
X135051000Y-81050000D02*
X135051000Y-81947000D01*
X135091000Y-78109000D02*
X135091000Y-78970000D01*
X135091000Y-81050000D02*
X135091000Y-81911000D01*
X135131000Y-78146000D02*
X135131000Y-78970000D01*
X135131000Y-81050000D02*
X135131000Y-81874000D01*
X135171000Y-78184000D02*
X135171000Y-78970000D01*
X135171000Y-81050000D02*
X135171000Y-81836000D01*
X135211000Y-78225000D02*
X135211000Y-78970000D01*
X135211000Y-81050000D02*
X135211000Y-81795000D01*
X135251000Y-78267000D02*
X135251000Y-78970000D01*
X135251000Y-81050000D02*
X135251000Y-81753000D01*
X135291000Y-78311000D02*
X135291000Y-78970000D01*
X135291000Y-81050000D02*
X135291000Y-81709000D01*
X135331000Y-78357000D02*
X135331000Y-78970000D01*
X135331000Y-81050000D02*
X135331000Y-81663000D01*
X135371000Y-78405000D02*
X135371000Y-78970000D01*
X135371000Y-81050000D02*
X135371000Y-81615000D01*
X135411000Y-78456000D02*
X135411000Y-78970000D01*
X135411000Y-81050000D02*
X135411000Y-81564000D01*
X135451000Y-78510000D02*
X135451000Y-78970000D01*
X135451000Y-81050000D02*
X135451000Y-81510000D01*
X135491000Y-78567000D02*
X135491000Y-78970000D01*
X135491000Y-81050000D02*
X135491000Y-81453000D01*
X135531000Y-78627000D02*
X135531000Y-78970000D01*
X135531000Y-81050000D02*
X135531000Y-81393000D01*
X135571000Y-78691000D02*
X135571000Y-78970000D01*
X135571000Y-81050000D02*
X135571000Y-81329000D01*
X135611000Y-78759000D02*
X135611000Y-78970000D01*
X135611000Y-81050000D02*
X135611000Y-81261000D01*
X135651000Y-78832000D02*
X135651000Y-81188000D01*
X135691000Y-78912000D02*
X135691000Y-81108000D01*
X135731000Y-78999000D02*
X135731000Y-81021000D01*
X135771000Y-79095000D02*
X135771000Y-80925000D01*
X135811000Y-79205000D02*
X135811000Y-80815000D01*
X135851000Y-79333000D02*
X135851000Y-80687000D01*
X135891000Y-79492000D02*
X135891000Y-80528000D01*
X135931000Y-79726000D02*
X135931000Y-80294000D01*
X130525225Y-78535000D02*
X131025225Y-78535000D01*
X130775225Y-78285000D02*
X130775225Y-78785000D01*
X127580000Y-120650000D02*
G75*
G03X127580000Y-120650000I-2120000J0D01*
G01*
X125460000Y-118570000D02*
X125460000Y-122730000D01*
X125500000Y-118570000D02*
X125500000Y-122730000D01*
X125540000Y-118571000D02*
X125540000Y-122729000D01*
X125580000Y-118573000D02*
X125580000Y-122727000D01*
X125620000Y-118576000D02*
X125620000Y-122724000D01*
X125660000Y-118579000D02*
X125660000Y-119810000D01*
X125660000Y-121490000D02*
X125660000Y-122721000D01*
X125700000Y-118583000D02*
X125700000Y-119810000D01*
X125700000Y-121490000D02*
X125700000Y-122717000D01*
X125740000Y-118588000D02*
X125740000Y-119810000D01*
X125740000Y-121490000D02*
X125740000Y-122712000D01*
X125780000Y-118594000D02*
X125780000Y-119810000D01*
X125780000Y-121490000D02*
X125780000Y-122706000D01*
X125820000Y-118600000D02*
X125820000Y-119810000D01*
X125820000Y-121490000D02*
X125820000Y-122700000D01*
X125860000Y-118608000D02*
X125860000Y-119810000D01*
X125860000Y-121490000D02*
X125860000Y-122692000D01*
X125900000Y-118616000D02*
X125900000Y-119810000D01*
X125900000Y-121490000D02*
X125900000Y-122684000D01*
X125940000Y-118625000D02*
X125940000Y-119810000D01*
X125940000Y-121490000D02*
X125940000Y-122675000D01*
X125980000Y-118634000D02*
X125980000Y-119810000D01*
X125980000Y-121490000D02*
X125980000Y-122666000D01*
X126020000Y-118645000D02*
X126020000Y-119810000D01*
X126020000Y-121490000D02*
X126020000Y-122655000D01*
X126060000Y-118656000D02*
X126060000Y-119810000D01*
X126060000Y-121490000D02*
X126060000Y-122644000D01*
X126100000Y-118668000D02*
X126100000Y-119810000D01*
X126100000Y-121490000D02*
X126100000Y-122632000D01*
X126140000Y-118682000D02*
X126140000Y-119810000D01*
X126140000Y-121490000D02*
X126140000Y-122618000D01*
X126181000Y-118696000D02*
X126181000Y-119810000D01*
X126181000Y-121490000D02*
X126181000Y-122604000D01*
X126221000Y-118710000D02*
X126221000Y-119810000D01*
X126221000Y-121490000D02*
X126221000Y-122590000D01*
X126261000Y-118726000D02*
X126261000Y-119810000D01*
X126261000Y-121490000D02*
X126261000Y-122574000D01*
X126301000Y-118743000D02*
X126301000Y-119810000D01*
X126301000Y-121490000D02*
X126301000Y-122557000D01*
X126341000Y-118761000D02*
X126341000Y-119810000D01*
X126341000Y-121490000D02*
X126341000Y-122539000D01*
X126381000Y-118780000D02*
X126381000Y-119810000D01*
X126381000Y-121490000D02*
X126381000Y-122520000D01*
X126421000Y-118799000D02*
X126421000Y-119810000D01*
X126421000Y-121490000D02*
X126421000Y-122501000D01*
X126461000Y-118820000D02*
X126461000Y-119810000D01*
X126461000Y-121490000D02*
X126461000Y-122480000D01*
X126501000Y-118842000D02*
X126501000Y-119810000D01*
X126501000Y-121490000D02*
X126501000Y-122458000D01*
X126541000Y-118865000D02*
X126541000Y-119810000D01*
X126541000Y-121490000D02*
X126541000Y-122435000D01*
X126581000Y-118890000D02*
X126581000Y-119810000D01*
X126581000Y-121490000D02*
X126581000Y-122410000D01*
X126621000Y-118915000D02*
X126621000Y-119810000D01*
X126621000Y-121490000D02*
X126621000Y-122385000D01*
X126661000Y-118942000D02*
X126661000Y-119810000D01*
X126661000Y-121490000D02*
X126661000Y-122358000D01*
X126701000Y-118970000D02*
X126701000Y-119810000D01*
X126701000Y-121490000D02*
X126701000Y-122330000D01*
X126741000Y-119000000D02*
X126741000Y-119810000D01*
X126741000Y-121490000D02*
X126741000Y-122300000D01*
X126781000Y-119031000D02*
X126781000Y-119810000D01*
X126781000Y-121490000D02*
X126781000Y-122269000D01*
X126821000Y-119063000D02*
X126821000Y-119810000D01*
X126821000Y-121490000D02*
X126821000Y-122237000D01*
X126861000Y-119098000D02*
X126861000Y-119810000D01*
X126861000Y-121490000D02*
X126861000Y-122202000D01*
X126901000Y-119134000D02*
X126901000Y-119810000D01*
X126901000Y-121490000D02*
X126901000Y-122166000D01*
X126941000Y-119172000D02*
X126941000Y-119810000D01*
X126941000Y-121490000D02*
X126941000Y-122128000D01*
X126981000Y-119212000D02*
X126981000Y-119810000D01*
X126981000Y-121490000D02*
X126981000Y-122088000D01*
X127021000Y-119254000D02*
X127021000Y-119810000D01*
X127021000Y-121490000D02*
X127021000Y-122046000D01*
X127061000Y-119299000D02*
X127061000Y-119810000D01*
X127061000Y-121490000D02*
X127061000Y-122001000D01*
X127101000Y-119346000D02*
X127101000Y-119810000D01*
X127101000Y-121490000D02*
X127101000Y-121954000D01*
X127141000Y-119396000D02*
X127141000Y-119810000D01*
X127141000Y-121490000D02*
X127141000Y-121904000D01*
X127181000Y-119450000D02*
X127181000Y-119810000D01*
X127181000Y-121490000D02*
X127181000Y-121850000D01*
X127221000Y-119508000D02*
X127221000Y-119810000D01*
X127221000Y-121490000D02*
X127221000Y-121792000D01*
X127261000Y-119570000D02*
X127261000Y-119810000D01*
X127261000Y-121490000D02*
X127261000Y-121730000D01*
X127301000Y-119637000D02*
X127301000Y-121663000D01*
X127341000Y-119710000D02*
X127341000Y-121590000D01*
X127381000Y-119791000D02*
X127381000Y-121509000D01*
X127421000Y-119882000D02*
X127421000Y-121418000D01*
X127461000Y-119986000D02*
X127461000Y-121314000D01*
X127501000Y-120113000D02*
X127501000Y-121187000D01*
X127541000Y-120280000D02*
X127541000Y-121020000D01*
X123190199Y-119455000D02*
X123590199Y-119455000D01*
X123390199Y-119255000D02*
X123390199Y-119655000D01*
X76170000Y-29360000D02*
X76170000Y-26520000D01*
X75930000Y-29360000D02*
X75930000Y-26520000D01*
X76050000Y-29360000D02*
X76050000Y-26520000D01*
X69820000Y-27940000D02*
X73210000Y-27940000D01*
X80040000Y-27940000D02*
X76650000Y-27940000D01*
X73210000Y-29360000D02*
X76650000Y-29360000D01*
X73210000Y-26520000D02*
X73210000Y-29360000D01*
X76650000Y-26520000D02*
X73210000Y-26520000D01*
X76650000Y-29360000D02*
X76650000Y-26520000D01*
X76650000Y-61110000D02*
X76650000Y-58270000D01*
X76650000Y-58270000D02*
X73210000Y-58270000D01*
X73210000Y-58270000D02*
X73210000Y-61110000D01*
X73210000Y-61110000D02*
X76650000Y-61110000D01*
X80040000Y-59690000D02*
X76650000Y-59690000D01*
X69820000Y-59690000D02*
X73210000Y-59690000D01*
X76050000Y-61110000D02*
X76050000Y-58270000D01*
X75930000Y-61110000D02*
X75930000Y-58270000D01*
X76170000Y-61110000D02*
X76170000Y-58270000D01*
X76170000Y-92860000D02*
X76170000Y-90020000D01*
X75930000Y-92860000D02*
X75930000Y-90020000D01*
X76050000Y-92860000D02*
X76050000Y-90020000D01*
X69820000Y-91440000D02*
X73210000Y-91440000D01*
X80040000Y-91440000D02*
X76650000Y-91440000D01*
X73210000Y-92860000D02*
X76650000Y-92860000D01*
X73210000Y-90020000D02*
X73210000Y-92860000D01*
X76650000Y-90020000D02*
X73210000Y-90020000D01*
X76650000Y-92860000D02*
X76650000Y-90020000D01*
X76170000Y-124610000D02*
X76170000Y-121770000D01*
X75930000Y-124610000D02*
X75930000Y-121770000D01*
X76050000Y-124610000D02*
X76050000Y-121770000D01*
X69820000Y-123190000D02*
X73210000Y-123190000D01*
X80040000Y-123190000D02*
X76650000Y-123190000D01*
X73210000Y-124610000D02*
X76650000Y-124610000D01*
X73210000Y-121770000D02*
X73210000Y-124610000D01*
X76650000Y-121770000D02*
X73210000Y-121770000D01*
X76650000Y-124610000D02*
X76650000Y-121770000D01*
X181640000Y-95100000D02*
X181640000Y-97940000D01*
X181880000Y-95100000D02*
X181880000Y-97940000D01*
X181760000Y-95100000D02*
X181760000Y-97940000D01*
X187990000Y-96520000D02*
X184600000Y-96520000D01*
X177770000Y-96520000D02*
X181160000Y-96520000D01*
X184600000Y-95100000D02*
X181160000Y-95100000D01*
X184600000Y-97940000D02*
X184600000Y-95100000D01*
X181160000Y-97940000D02*
X184600000Y-97940000D01*
X181160000Y-95100000D02*
X181160000Y-97940000D01*
X76650000Y-35710000D02*
X76650000Y-32870000D01*
X76650000Y-32870000D02*
X73210000Y-32870000D01*
X73210000Y-32870000D02*
X73210000Y-35710000D01*
X73210000Y-35710000D02*
X76650000Y-35710000D01*
X80040000Y-34290000D02*
X76650000Y-34290000D01*
X69820000Y-34290000D02*
X73210000Y-34290000D01*
X76050000Y-35710000D02*
X76050000Y-32870000D01*
X75930000Y-35710000D02*
X75930000Y-32870000D01*
X76170000Y-35710000D02*
X76170000Y-32870000D01*
X76650000Y-67460000D02*
X76650000Y-64620000D01*
X76650000Y-64620000D02*
X73210000Y-64620000D01*
X73210000Y-64620000D02*
X73210000Y-67460000D01*
X73210000Y-67460000D02*
X76650000Y-67460000D01*
X80040000Y-66040000D02*
X76650000Y-66040000D01*
X69820000Y-66040000D02*
X73210000Y-66040000D01*
X76050000Y-67460000D02*
X76050000Y-64620000D01*
X75930000Y-67460000D02*
X75930000Y-64620000D01*
X76170000Y-67460000D02*
X76170000Y-64620000D01*
X76650000Y-99210000D02*
X76650000Y-96370000D01*
X76650000Y-96370000D02*
X73210000Y-96370000D01*
X73210000Y-96370000D02*
X73210000Y-99210000D01*
X73210000Y-99210000D02*
X76650000Y-99210000D01*
X80040000Y-97790000D02*
X76650000Y-97790000D01*
X69820000Y-97790000D02*
X73210000Y-97790000D01*
X76050000Y-99210000D02*
X76050000Y-96370000D01*
X75930000Y-99210000D02*
X75930000Y-96370000D01*
X76170000Y-99210000D02*
X76170000Y-96370000D01*
X76650000Y-130960000D02*
X76650000Y-128120000D01*
X76650000Y-128120000D02*
X73210000Y-128120000D01*
X73210000Y-128120000D02*
X73210000Y-130960000D01*
X73210000Y-130960000D02*
X76650000Y-130960000D01*
X80040000Y-129540000D02*
X76650000Y-129540000D01*
X69820000Y-129540000D02*
X73210000Y-129540000D01*
X76050000Y-130960000D02*
X76050000Y-128120000D01*
X75930000Y-130960000D02*
X75930000Y-128120000D01*
X76170000Y-130960000D02*
X76170000Y-128120000D01*
X181640000Y-101450000D02*
X181640000Y-104290000D01*
X181880000Y-101450000D02*
X181880000Y-104290000D01*
X181760000Y-101450000D02*
X181760000Y-104290000D01*
X187990000Y-102870000D02*
X184600000Y-102870000D01*
X177770000Y-102870000D02*
X181160000Y-102870000D01*
X184600000Y-101450000D02*
X181160000Y-101450000D01*
X184600000Y-104290000D02*
X184600000Y-101450000D01*
X181160000Y-104290000D02*
X184600000Y-104290000D01*
X181160000Y-101450000D02*
X181160000Y-104290000D01*
X76650000Y-42060000D02*
X76650000Y-39220000D01*
X76650000Y-39220000D02*
X73210000Y-39220000D01*
X73210000Y-39220000D02*
X73210000Y-42060000D01*
X73210000Y-42060000D02*
X76650000Y-42060000D01*
X80040000Y-40640000D02*
X76650000Y-40640000D01*
X69820000Y-40640000D02*
X73210000Y-40640000D01*
X76050000Y-42060000D02*
X76050000Y-39220000D01*
X75930000Y-42060000D02*
X75930000Y-39220000D01*
X76170000Y-42060000D02*
X76170000Y-39220000D01*
X76650000Y-73810000D02*
X76650000Y-70970000D01*
X76650000Y-70970000D02*
X73210000Y-70970000D01*
X73210000Y-70970000D02*
X73210000Y-73810000D01*
X73210000Y-73810000D02*
X76650000Y-73810000D01*
X80040000Y-72390000D02*
X76650000Y-72390000D01*
X69820000Y-72390000D02*
X73210000Y-72390000D01*
X76050000Y-73810000D02*
X76050000Y-70970000D01*
X75930000Y-73810000D02*
X75930000Y-70970000D01*
X76170000Y-73810000D02*
X76170000Y-70970000D01*
X76650000Y-105560000D02*
X76650000Y-102720000D01*
X76650000Y-102720000D02*
X73210000Y-102720000D01*
X73210000Y-102720000D02*
X73210000Y-105560000D01*
X73210000Y-105560000D02*
X76650000Y-105560000D01*
X80040000Y-104140000D02*
X76650000Y-104140000D01*
X69820000Y-104140000D02*
X73210000Y-104140000D01*
X76050000Y-105560000D02*
X76050000Y-102720000D01*
X75930000Y-105560000D02*
X75930000Y-102720000D01*
X76170000Y-105560000D02*
X76170000Y-102720000D01*
X76650000Y-137310000D02*
X76650000Y-134470000D01*
X76650000Y-134470000D02*
X73210000Y-134470000D01*
X73210000Y-134470000D02*
X73210000Y-137310000D01*
X73210000Y-137310000D02*
X76650000Y-137310000D01*
X80040000Y-135890000D02*
X76650000Y-135890000D01*
X69820000Y-135890000D02*
X73210000Y-135890000D01*
X76050000Y-137310000D02*
X76050000Y-134470000D01*
X75930000Y-137310000D02*
X75930000Y-134470000D01*
X76170000Y-137310000D02*
X76170000Y-134470000D01*
X181160000Y-107800000D02*
X181160000Y-110640000D01*
X181160000Y-110640000D02*
X184600000Y-110640000D01*
X184600000Y-110640000D02*
X184600000Y-107800000D01*
X184600000Y-107800000D02*
X181160000Y-107800000D01*
X177770000Y-109220000D02*
X181160000Y-109220000D01*
X187990000Y-109220000D02*
X184600000Y-109220000D01*
X181760000Y-107800000D02*
X181760000Y-110640000D01*
X181880000Y-107800000D02*
X181880000Y-110640000D01*
X181640000Y-107800000D02*
X181640000Y-110640000D01*
X76170000Y-48410000D02*
X76170000Y-45570000D01*
X75930000Y-48410000D02*
X75930000Y-45570000D01*
X76050000Y-48410000D02*
X76050000Y-45570000D01*
X69820000Y-46990000D02*
X73210000Y-46990000D01*
X80040000Y-46990000D02*
X76650000Y-46990000D01*
X73210000Y-48410000D02*
X76650000Y-48410000D01*
X73210000Y-45570000D02*
X73210000Y-48410000D01*
X76650000Y-45570000D02*
X73210000Y-45570000D01*
X76650000Y-48410000D02*
X76650000Y-45570000D01*
X76170000Y-80160000D02*
X76170000Y-77320000D01*
X75930000Y-80160000D02*
X75930000Y-77320000D01*
X76050000Y-80160000D02*
X76050000Y-77320000D01*
X69820000Y-78740000D02*
X73210000Y-78740000D01*
X80040000Y-78740000D02*
X76650000Y-78740000D01*
X73210000Y-80160000D02*
X76650000Y-80160000D01*
X73210000Y-77320000D02*
X73210000Y-80160000D01*
X76650000Y-77320000D02*
X73210000Y-77320000D01*
X76650000Y-80160000D02*
X76650000Y-77320000D01*
X76170000Y-111910000D02*
X76170000Y-109070000D01*
X75930000Y-111910000D02*
X75930000Y-109070000D01*
X76050000Y-111910000D02*
X76050000Y-109070000D01*
X69820000Y-110490000D02*
X73210000Y-110490000D01*
X80040000Y-110490000D02*
X76650000Y-110490000D01*
X73210000Y-111910000D02*
X76650000Y-111910000D01*
X73210000Y-109070000D02*
X73210000Y-111910000D01*
X76650000Y-109070000D02*
X73210000Y-109070000D01*
X76650000Y-111910000D02*
X76650000Y-109070000D01*
X76170000Y-143660000D02*
X76170000Y-140820000D01*
X75930000Y-143660000D02*
X75930000Y-140820000D01*
X76050000Y-143660000D02*
X76050000Y-140820000D01*
X69820000Y-142240000D02*
X73210000Y-142240000D01*
X80040000Y-142240000D02*
X76650000Y-142240000D01*
X73210000Y-143660000D02*
X76650000Y-143660000D01*
X73210000Y-140820000D02*
X73210000Y-143660000D01*
X76650000Y-140820000D02*
X73210000Y-140820000D01*
X76650000Y-143660000D02*
X76650000Y-140820000D01*
X181640000Y-114150000D02*
X181640000Y-116990000D01*
X181880000Y-114150000D02*
X181880000Y-116990000D01*
X181760000Y-114150000D02*
X181760000Y-116990000D01*
X187990000Y-115570000D02*
X184600000Y-115570000D01*
X177770000Y-115570000D02*
X181160000Y-115570000D01*
X184600000Y-114150000D02*
X181160000Y-114150000D01*
X184600000Y-116990000D02*
X184600000Y-114150000D01*
X181160000Y-116990000D02*
X184600000Y-116990000D01*
X181160000Y-114150000D02*
X181160000Y-116990000D01*
X76650000Y-54760000D02*
X76650000Y-51920000D01*
X76650000Y-51920000D02*
X73210000Y-51920000D01*
X73210000Y-51920000D02*
X73210000Y-54760000D01*
X73210000Y-54760000D02*
X76650000Y-54760000D01*
X80040000Y-53340000D02*
X76650000Y-53340000D01*
X69820000Y-53340000D02*
X73210000Y-53340000D01*
X76050000Y-54760000D02*
X76050000Y-51920000D01*
X75930000Y-54760000D02*
X75930000Y-51920000D01*
X76170000Y-54760000D02*
X76170000Y-51920000D01*
X76170000Y-86510000D02*
X76170000Y-83670000D01*
X75930000Y-86510000D02*
X75930000Y-83670000D01*
X76050000Y-86510000D02*
X76050000Y-83670000D01*
X69820000Y-85090000D02*
X73210000Y-85090000D01*
X80040000Y-85090000D02*
X76650000Y-85090000D01*
X73210000Y-86510000D02*
X76650000Y-86510000D01*
X73210000Y-83670000D02*
X73210000Y-86510000D01*
X76650000Y-83670000D02*
X73210000Y-83670000D01*
X76650000Y-86510000D02*
X76650000Y-83670000D01*
X76650000Y-118260000D02*
X76650000Y-115420000D01*
X76650000Y-115420000D02*
X73210000Y-115420000D01*
X73210000Y-115420000D02*
X73210000Y-118260000D01*
X73210000Y-118260000D02*
X76650000Y-118260000D01*
X80040000Y-116840000D02*
X76650000Y-116840000D01*
X69820000Y-116840000D02*
X73210000Y-116840000D01*
X76050000Y-118260000D02*
X76050000Y-115420000D01*
X75930000Y-118260000D02*
X75930000Y-115420000D01*
X76170000Y-118260000D02*
X76170000Y-115420000D01*
X76170000Y-150010000D02*
X76170000Y-147170000D01*
X75930000Y-150010000D02*
X75930000Y-147170000D01*
X76050000Y-150010000D02*
X76050000Y-147170000D01*
X69820000Y-148590000D02*
X73210000Y-148590000D01*
X80040000Y-148590000D02*
X76650000Y-148590000D01*
X73210000Y-150010000D02*
X76650000Y-150010000D01*
X73210000Y-147170000D02*
X73210000Y-150010000D01*
X76650000Y-147170000D02*
X73210000Y-147170000D01*
X76650000Y-150010000D02*
X76650000Y-147170000D01*
X181160000Y-120500000D02*
X181160000Y-123340000D01*
X181160000Y-123340000D02*
X184600000Y-123340000D01*
X184600000Y-123340000D02*
X184600000Y-120500000D01*
X184600000Y-120500000D02*
X181160000Y-120500000D01*
X177770000Y-121920000D02*
X181160000Y-121920000D01*
X187990000Y-121920000D02*
X184600000Y-121920000D01*
X181760000Y-120500000D02*
X181760000Y-123340000D01*
X181880000Y-120500000D02*
X181880000Y-123340000D01*
X181640000Y-120500000D02*
X181640000Y-123340000D01*
X133290000Y-121980000D02*
X135950000Y-121980000D01*
X133290000Y-121920000D02*
X133290000Y-121980000D01*
X135950000Y-121920000D02*
X135950000Y-121980000D01*
X133290000Y-121920000D02*
X135950000Y-121920000D01*
X133290000Y-120650000D02*
X133290000Y-119320000D01*
X133290000Y-119320000D02*
X134620000Y-119320000D01*
X58360000Y-34230000D02*
X59690000Y-34230000D01*
X58360000Y-35560000D02*
X58360000Y-34230000D01*
X58360000Y-36830000D02*
X61020000Y-36830000D01*
X61020000Y-36830000D02*
X61020000Y-47050000D01*
X58360000Y-36830000D02*
X58360000Y-47050000D01*
X58360000Y-47050000D02*
X61020000Y-47050000D01*
X58360000Y-78800000D02*
X61020000Y-78800000D01*
X58360000Y-68580000D02*
X58360000Y-78800000D01*
X61020000Y-68580000D02*
X61020000Y-78800000D01*
X58360000Y-68580000D02*
X61020000Y-68580000D01*
X58360000Y-67310000D02*
X58360000Y-65980000D01*
X58360000Y-65980000D02*
X59690000Y-65980000D01*
X58360000Y-97730000D02*
X59690000Y-97730000D01*
X58360000Y-99060000D02*
X58360000Y-97730000D01*
X58360000Y-100330000D02*
X61020000Y-100330000D01*
X61020000Y-100330000D02*
X61020000Y-110550000D01*
X58360000Y-100330000D02*
X58360000Y-110550000D01*
X58360000Y-110550000D02*
X61020000Y-110550000D01*
X58360000Y-142300000D02*
X61020000Y-142300000D01*
X58360000Y-132080000D02*
X58360000Y-142300000D01*
X61020000Y-132080000D02*
X61020000Y-142300000D01*
X58360000Y-132080000D02*
X61020000Y-132080000D01*
X58360000Y-130810000D02*
X58360000Y-129480000D01*
X58360000Y-129480000D02*
X59690000Y-129480000D01*
X196790000Y-115630000D02*
X199450000Y-115630000D01*
X196790000Y-105410000D02*
X196790000Y-115630000D01*
X199450000Y-105410000D02*
X199450000Y-115630000D01*
X196790000Y-105410000D02*
X199450000Y-105410000D01*
X196790000Y-104140000D02*
X196790000Y-102810000D01*
X196790000Y-102810000D02*
X198120000Y-102810000D01*
X196790000Y-67250000D02*
X198120000Y-67250000D01*
X196790000Y-68580000D02*
X196790000Y-67250000D01*
X196790000Y-69850000D02*
X199450000Y-69850000D01*
X199450000Y-69850000D02*
X199450000Y-80070000D01*
X196790000Y-69850000D02*
X196790000Y-80070000D01*
X196790000Y-80070000D02*
X199450000Y-80070000D01*
X196790000Y-43240000D02*
X199450000Y-43240000D01*
X196790000Y-33020000D02*
X196790000Y-43240000D01*
X199450000Y-33020000D02*
X199450000Y-43240000D01*
X196790000Y-33020000D02*
X199450000Y-33020000D01*
X196790000Y-31750000D02*
X196790000Y-30420000D01*
X196790000Y-30420000D02*
X198120000Y-30420000D01*
X138370000Y-31810000D02*
X138370000Y-30480000D01*
X139700000Y-31810000D02*
X138370000Y-31810000D01*
X140970000Y-31810000D02*
X140970000Y-29150000D01*
X140970000Y-29150000D02*
X151190000Y-29150000D01*
X140970000Y-31810000D02*
X151190000Y-31810000D01*
X151190000Y-31810000D02*
X151190000Y-29150000D01*
X139640000Y-161230000D02*
X139640000Y-163890000D01*
X149860000Y-161230000D02*
X139640000Y-161230000D01*
X149860000Y-163890000D02*
X139640000Y-163890000D01*
X149860000Y-161230000D02*
X149860000Y-163890000D01*
X151130000Y-161230000D02*
X152460000Y-161230000D01*
X152460000Y-161230000D02*
X152460000Y-162560000D01*
X196790000Y-140910000D02*
X198120000Y-140910000D01*
X196790000Y-142240000D02*
X196790000Y-140910000D01*
X196790000Y-143510000D02*
X199450000Y-143510000D01*
X199450000Y-143510000D02*
X199450000Y-153730000D01*
X196790000Y-143510000D02*
X196790000Y-153730000D01*
X196790000Y-153730000D02*
X199450000Y-153730000D01*
X120710000Y-22920000D02*
X120710000Y-20260000D01*
X113030000Y-22920000D02*
X120710000Y-22920000D01*
X113030000Y-20260000D02*
X120710000Y-20260000D01*
X113030000Y-22920000D02*
X113030000Y-20260000D01*
X111760000Y-22920000D02*
X110430000Y-22920000D01*
X110430000Y-22920000D02*
X110430000Y-21590000D01*
X104080000Y-104200000D02*
X106740000Y-104200000D01*
X104080000Y-66040000D02*
X104080000Y-104200000D01*
X106740000Y-66040000D02*
X106740000Y-104200000D01*
X104080000Y-66040000D02*
X106740000Y-66040000D01*
X104080000Y-64770000D02*
X104080000Y-63440000D01*
X104080000Y-63440000D02*
X105410000Y-63440000D01*
X124400000Y-104200000D02*
X127060000Y-104200000D01*
X124400000Y-76200000D02*
X124400000Y-104200000D01*
X127060000Y-76200000D02*
X127060000Y-104200000D01*
X124400000Y-76200000D02*
X127060000Y-76200000D01*
X124400000Y-74930000D02*
X124400000Y-73600000D01*
X124400000Y-73600000D02*
X125730000Y-73600000D01*
D13*
X104584500Y-116502139D02*
X104584500Y-117177861D01*
X104584500Y-118465600D02*
X106235500Y-118465600D01*
X106235500Y-118465600D02*
X106235500Y-117452140D01*
X106235500Y-115214400D02*
X104584500Y-115214400D01*
X106235500Y-116227860D02*
X106235500Y-115214400D01*
D12*
X183690000Y-61410000D02*
X183690000Y-57970000D01*
X183690000Y-57970000D02*
X174450000Y-57970000D01*
X174450000Y-57970000D02*
X174450000Y-61410000D01*
X174450000Y-61410000D02*
X183690000Y-61410000D01*
X188190000Y-59690000D02*
X183690000Y-59690000D01*
X169950000Y-59690000D02*
X174450000Y-59690000D01*
X169950000Y-67310000D02*
X174450000Y-67310000D01*
X188190000Y-67310000D02*
X183690000Y-67310000D01*
X174450000Y-69030000D02*
X183690000Y-69030000D01*
X174450000Y-65590000D02*
X174450000Y-69030000D01*
X183690000Y-65590000D02*
X174450000Y-65590000D01*
X183690000Y-69030000D02*
X183690000Y-65590000D01*
X183690000Y-75380000D02*
X183690000Y-71940000D01*
X183690000Y-71940000D02*
X174450000Y-71940000D01*
X174450000Y-71940000D02*
X174450000Y-75380000D01*
X174450000Y-75380000D02*
X183690000Y-75380000D01*
X188190000Y-73660000D02*
X183690000Y-73660000D01*
X169950000Y-73660000D02*
X174450000Y-73660000D01*
X169950000Y-81280000D02*
X174450000Y-81280000D01*
X188190000Y-81280000D02*
X183690000Y-81280000D01*
X174450000Y-83000000D02*
X183690000Y-83000000D01*
X174450000Y-79560000D02*
X174450000Y-83000000D01*
X183690000Y-79560000D02*
X174450000Y-79560000D01*
X183690000Y-83000000D02*
X183690000Y-79560000D01*
X183690000Y-90620000D02*
X183690000Y-87180000D01*
X183690000Y-87180000D02*
X174450000Y-87180000D01*
X174450000Y-87180000D02*
X174450000Y-90620000D01*
X174450000Y-90620000D02*
X183690000Y-90620000D01*
X188190000Y-88900000D02*
X183690000Y-88900000D01*
X169950000Y-88900000D02*
X174450000Y-88900000D01*
X169950000Y-21590000D02*
X174450000Y-21590000D01*
X188190000Y-21590000D02*
X183690000Y-21590000D01*
X174450000Y-23310000D02*
X183690000Y-23310000D01*
X174450000Y-19870000D02*
X174450000Y-23310000D01*
X183690000Y-19870000D02*
X174450000Y-19870000D01*
X183690000Y-23310000D02*
X183690000Y-19870000D01*
X183690000Y-30930000D02*
X183690000Y-27490000D01*
X183690000Y-27490000D02*
X174450000Y-27490000D01*
X174450000Y-27490000D02*
X174450000Y-30930000D01*
X174450000Y-30930000D02*
X183690000Y-30930000D01*
X188190000Y-29210000D02*
X183690000Y-29210000D01*
X169950000Y-29210000D02*
X174450000Y-29210000D01*
X169950000Y-36830000D02*
X174450000Y-36830000D01*
X188190000Y-36830000D02*
X183690000Y-36830000D01*
X174450000Y-38550000D02*
X183690000Y-38550000D01*
X174450000Y-35110000D02*
X174450000Y-38550000D01*
X183690000Y-35110000D02*
X174450000Y-35110000D01*
X183690000Y-38550000D02*
X183690000Y-35110000D01*
X183690000Y-46170000D02*
X183690000Y-42730000D01*
X183690000Y-42730000D02*
X174450000Y-42730000D01*
X174450000Y-42730000D02*
X174450000Y-46170000D01*
X174450000Y-46170000D02*
X183690000Y-46170000D01*
X188190000Y-44450000D02*
X183690000Y-44450000D01*
X169950000Y-44450000D02*
X174450000Y-44450000D01*
X169950000Y-52070000D02*
X174450000Y-52070000D01*
X188190000Y-52070000D02*
X183690000Y-52070000D01*
X174450000Y-53790000D02*
X183690000Y-53790000D01*
X174450000Y-50350000D02*
X174450000Y-53790000D01*
X183690000Y-50350000D02*
X174450000Y-50350000D01*
X183690000Y-53790000D02*
X183690000Y-50350000D01*
X131260000Y-46180000D02*
X127820000Y-46180000D01*
X127820000Y-46180000D02*
X127820000Y-55420000D01*
X127820000Y-55420000D02*
X131260000Y-55420000D01*
X131260000Y-55420000D02*
X131260000Y-46180000D01*
X129540000Y-41680000D02*
X129540000Y-46180000D01*
X129540000Y-59920000D02*
X129540000Y-55420000D01*
X137160000Y-59920000D02*
X137160000Y-55420000D01*
X137160000Y-41680000D02*
X137160000Y-46180000D01*
X138880000Y-55420000D02*
X138880000Y-46180000D01*
X135440000Y-55420000D02*
X138880000Y-55420000D01*
X135440000Y-46180000D02*
X135440000Y-55420000D01*
X138880000Y-46180000D02*
X135440000Y-46180000D01*
X146500000Y-46180000D02*
X143060000Y-46180000D01*
X143060000Y-46180000D02*
X143060000Y-55420000D01*
X143060000Y-55420000D02*
X146500000Y-55420000D01*
X146500000Y-55420000D02*
X146500000Y-46180000D01*
X144780000Y-41680000D02*
X144780000Y-46180000D01*
X144780000Y-59920000D02*
X144780000Y-55420000D01*
X152400000Y-59920000D02*
X152400000Y-55420000D01*
X152400000Y-41680000D02*
X152400000Y-46180000D01*
X154120000Y-55420000D02*
X154120000Y-46180000D01*
X150680000Y-55420000D02*
X154120000Y-55420000D01*
X150680000Y-46180000D02*
X150680000Y-55420000D01*
X154120000Y-46180000D02*
X150680000Y-46180000D01*
X161740000Y-46180000D02*
X158300000Y-46180000D01*
X158300000Y-46180000D02*
X158300000Y-55420000D01*
X158300000Y-55420000D02*
X161740000Y-55420000D01*
X161740000Y-55420000D02*
X161740000Y-46180000D01*
X160020000Y-41680000D02*
X160020000Y-46180000D01*
X160020000Y-59920000D02*
X160020000Y-55420000D01*
X161290000Y-133120000D02*
X161290000Y-137620000D01*
X161290000Y-151360000D02*
X161290000Y-146860000D01*
X159570000Y-137620000D02*
X159570000Y-146860000D01*
X163010000Y-137620000D02*
X159570000Y-137620000D01*
X163010000Y-146860000D02*
X163010000Y-137620000D01*
X159570000Y-146860000D02*
X163010000Y-146860000D01*
X151950000Y-146860000D02*
X155390000Y-146860000D01*
X155390000Y-146860000D02*
X155390000Y-137620000D01*
X155390000Y-137620000D02*
X151950000Y-137620000D01*
X151950000Y-137620000D02*
X151950000Y-146860000D01*
X153670000Y-151360000D02*
X153670000Y-146860000D01*
X153670000Y-133120000D02*
X153670000Y-137620000D01*
X146050000Y-133120000D02*
X146050000Y-137620000D01*
X146050000Y-151360000D02*
X146050000Y-146860000D01*
X144330000Y-137620000D02*
X144330000Y-146860000D01*
X147770000Y-137620000D02*
X144330000Y-137620000D01*
X147770000Y-146860000D02*
X147770000Y-137620000D01*
X144330000Y-146860000D02*
X147770000Y-146860000D01*
X136710000Y-146860000D02*
X140150000Y-146860000D01*
X140150000Y-146860000D02*
X140150000Y-137620000D01*
X140150000Y-137620000D02*
X136710000Y-137620000D01*
X136710000Y-137620000D02*
X136710000Y-146860000D01*
X138430000Y-151360000D02*
X138430000Y-146860000D01*
X138430000Y-133120000D02*
X138430000Y-137620000D01*
X130810000Y-133120000D02*
X130810000Y-137620000D01*
X130810000Y-151360000D02*
X130810000Y-146860000D01*
X129090000Y-137620000D02*
X129090000Y-146860000D01*
X132530000Y-137620000D02*
X129090000Y-137620000D01*
X132530000Y-146860000D02*
X132530000Y-137620000D01*
X129090000Y-146860000D02*
X132530000Y-146860000D01*
X169950000Y-132080000D02*
X174450000Y-132080000D01*
X188190000Y-132080000D02*
X183690000Y-132080000D01*
X174450000Y-133800000D02*
X183690000Y-133800000D01*
X174450000Y-130360000D02*
X174450000Y-133800000D01*
X183690000Y-130360000D02*
X174450000Y-130360000D01*
X183690000Y-133800000D02*
X183690000Y-130360000D01*
X183690000Y-141420000D02*
X183690000Y-137980000D01*
X183690000Y-137980000D02*
X174450000Y-137980000D01*
X174450000Y-137980000D02*
X174450000Y-141420000D01*
X174450000Y-141420000D02*
X183690000Y-141420000D01*
X188190000Y-139700000D02*
X183690000Y-139700000D01*
X169950000Y-139700000D02*
X174450000Y-139700000D01*
X169950000Y-147320000D02*
X174450000Y-147320000D01*
X188190000Y-147320000D02*
X183690000Y-147320000D01*
X174450000Y-149040000D02*
X183690000Y-149040000D01*
X174450000Y-145600000D02*
X174450000Y-149040000D01*
X183690000Y-145600000D02*
X174450000Y-145600000D01*
X183690000Y-149040000D02*
X183690000Y-145600000D01*
X183690000Y-156660000D02*
X183690000Y-153220000D01*
X183690000Y-153220000D02*
X174450000Y-153220000D01*
X174450000Y-153220000D02*
X174450000Y-156660000D01*
X174450000Y-156660000D02*
X183690000Y-156660000D01*
X188190000Y-154940000D02*
X183690000Y-154940000D01*
X169950000Y-154940000D02*
X174450000Y-154940000D01*
X183690000Y-164280000D02*
X183690000Y-160840000D01*
X183690000Y-160840000D02*
X174450000Y-160840000D01*
X174450000Y-160840000D02*
X174450000Y-164280000D01*
X174450000Y-164280000D02*
X183690000Y-164280000D01*
X188190000Y-162560000D02*
X183690000Y-162560000D01*
X169950000Y-162560000D02*
X174450000Y-162560000D01*
X96070000Y-132890000D02*
X99510000Y-132890000D01*
X99510000Y-132890000D02*
X99510000Y-123650000D01*
X99510000Y-123650000D02*
X96070000Y-123650000D01*
X96070000Y-123650000D02*
X96070000Y-132890000D01*
X97790000Y-137390000D02*
X97790000Y-132890000D01*
X97790000Y-119150000D02*
X97790000Y-123650000D01*
X91440000Y-116610000D02*
X91440000Y-121110000D01*
X91440000Y-134850000D02*
X91440000Y-130350000D01*
X89720000Y-121110000D02*
X89720000Y-130350000D01*
X93160000Y-121110000D02*
X89720000Y-121110000D01*
X93160000Y-130350000D02*
X93160000Y-121110000D01*
X89720000Y-130350000D02*
X93160000Y-130350000D01*
X90665000Y-147250000D02*
X90665000Y-165210000D01*
X106185000Y-147250000D02*
X90665000Y-147250000D01*
X106185000Y-147250000D02*
X106185000Y-165210000D01*
X90665000Y-165210000D02*
X106185000Y-165210000D01*
X90480000Y-151130000D02*
X89980000Y-150630000D01*
X89980000Y-150630000D02*
X89980000Y-151630000D01*
X89980000Y-151630000D02*
X90480000Y-151130000D01*
X106490000Y-151630000D02*
X106990000Y-151130000D01*
X106490000Y-150630000D02*
X106490000Y-151630000D01*
X106990000Y-151130000D02*
X106490000Y-150630000D01*
X107175000Y-165210000D02*
X122695000Y-165210000D01*
X122695000Y-147250000D02*
X122695000Y-165210000D01*
X122695000Y-147250000D02*
X107175000Y-147250000D01*
X107175000Y-147250000D02*
X107175000Y-165210000D01*
D13*
X115481100Y-115989100D02*
X115481100Y-120230900D01*
X120738900Y-120230900D02*
X120738900Y-115989100D01*
D11*
X131111428Y-23351904D02*
X131111428Y-22590000D01*
X131492380Y-22970952D02*
X130730476Y-22970952D01*
X130492380Y-21637619D02*
X130492380Y-22113809D01*
X130968571Y-22161428D01*
X130920952Y-22113809D01*
X130873333Y-22018571D01*
X130873333Y-21780476D01*
X130920952Y-21685238D01*
X130968571Y-21637619D01*
X131063809Y-21590000D01*
X131301904Y-21590000D01*
X131397142Y-21637619D01*
X131444761Y-21685238D01*
X131492380Y-21780476D01*
X131492380Y-22018571D01*
X131444761Y-22113809D01*
X131397142Y-22161428D01*
X130492380Y-21304285D02*
X131492380Y-20970952D01*
X130492380Y-20637619D01*
X131492380Y-19780476D02*
X131492380Y-20351904D01*
X131492380Y-20066190D02*
X130492380Y-20066190D01*
X130635238Y-20161428D01*
X130730476Y-20256666D01*
X130778095Y-20351904D01*
X84931428Y-23351904D02*
X84931428Y-22590000D01*
X85312380Y-22970952D02*
X84550476Y-22970952D01*
X84312380Y-22209047D02*
X84312380Y-21590000D01*
X84693333Y-21923333D01*
X84693333Y-21780476D01*
X84740952Y-21685238D01*
X84788571Y-21637619D01*
X84883809Y-21590000D01*
X85121904Y-21590000D01*
X85217142Y-21637619D01*
X85264761Y-21685238D01*
X85312380Y-21780476D01*
X85312380Y-22066190D01*
X85264761Y-22161428D01*
X85217142Y-22209047D01*
X84312380Y-21304285D02*
X85312380Y-20970952D01*
X84312380Y-20637619D01*
X84312380Y-20399523D02*
X84312380Y-19780476D01*
X84693333Y-20113809D01*
X84693333Y-19970952D01*
X84740952Y-19875714D01*
X84788571Y-19828095D01*
X84883809Y-19780476D01*
X85121904Y-19780476D01*
X85217142Y-19828095D01*
X85264761Y-19875714D01*
X85312380Y-19970952D01*
X85312380Y-20256666D01*
X85264761Y-20351904D01*
X85217142Y-20399523D01*
X200766666Y-19532380D02*
X200433333Y-19056190D01*
X200195238Y-19532380D02*
X200195238Y-18532380D01*
X200576190Y-18532380D01*
X200671428Y-18580000D01*
X200719047Y-18627619D01*
X200766666Y-18722857D01*
X200766666Y-18865714D01*
X200719047Y-18960952D01*
X200671428Y-19008571D01*
X200576190Y-19056190D01*
X200195238Y-19056190D01*
X201195238Y-19008571D02*
X201528571Y-19008571D01*
X201671428Y-19532380D02*
X201195238Y-19532380D01*
X201195238Y-18532380D01*
X201671428Y-18532380D01*
X202433333Y-19008571D02*
X202100000Y-19008571D01*
X202100000Y-19532380D02*
X202100000Y-18532380D01*
X202576190Y-18532380D01*
X203100000Y-18532380D02*
X203100000Y-18770476D01*
X202861904Y-18675238D02*
X203100000Y-18770476D01*
X203338095Y-18675238D01*
X202957142Y-18960952D02*
X203100000Y-18770476D01*
X203242857Y-18960952D01*
X203861904Y-18532380D02*
X203861904Y-18770476D01*
X203623809Y-18675238D02*
X203861904Y-18770476D01*
X204100000Y-18675238D01*
X203719047Y-18960952D02*
X203861904Y-18770476D01*
X204004761Y-18960952D01*
X200676666Y-158122380D02*
X200343333Y-157646190D01*
X200105238Y-158122380D02*
X200105238Y-157122380D01*
X200486190Y-157122380D01*
X200581428Y-157170000D01*
X200629047Y-157217619D01*
X200676666Y-157312857D01*
X200676666Y-157455714D01*
X200629047Y-157550952D01*
X200581428Y-157598571D01*
X200486190Y-157646190D01*
X200105238Y-157646190D01*
X201105238Y-157598571D02*
X201438571Y-157598571D01*
X201581428Y-158122380D02*
X201105238Y-158122380D01*
X201105238Y-157122380D01*
X201581428Y-157122380D01*
X202343333Y-157598571D02*
X202010000Y-157598571D01*
X202010000Y-158122380D02*
X202010000Y-157122380D01*
X202486190Y-157122380D01*
X203010000Y-157122380D02*
X203010000Y-157360476D01*
X202771904Y-157265238D02*
X203010000Y-157360476D01*
X203248095Y-157265238D01*
X202867142Y-157550952D02*
X203010000Y-157360476D01*
X203152857Y-157550952D01*
X203771904Y-157122380D02*
X203771904Y-157360476D01*
X203533809Y-157265238D02*
X203771904Y-157360476D01*
X204010000Y-157265238D01*
X203629047Y-157550952D02*
X203771904Y-157360476D01*
X203914761Y-157550952D01*
X60816666Y-158122380D02*
X60483333Y-157646190D01*
X60245238Y-158122380D02*
X60245238Y-157122380D01*
X60626190Y-157122380D01*
X60721428Y-157170000D01*
X60769047Y-157217619D01*
X60816666Y-157312857D01*
X60816666Y-157455714D01*
X60769047Y-157550952D01*
X60721428Y-157598571D01*
X60626190Y-157646190D01*
X60245238Y-157646190D01*
X61245238Y-157598571D02*
X61578571Y-157598571D01*
X61721428Y-158122380D02*
X61245238Y-158122380D01*
X61245238Y-157122380D01*
X61721428Y-157122380D01*
X62483333Y-157598571D02*
X62150000Y-157598571D01*
X62150000Y-158122380D02*
X62150000Y-157122380D01*
X62626190Y-157122380D01*
X63150000Y-157122380D02*
X63150000Y-157360476D01*
X62911904Y-157265238D02*
X63150000Y-157360476D01*
X63388095Y-157265238D01*
X63007142Y-157550952D02*
X63150000Y-157360476D01*
X63292857Y-157550952D01*
X63911904Y-157122380D02*
X63911904Y-157360476D01*
X63673809Y-157265238D02*
X63911904Y-157360476D01*
X64150000Y-157265238D01*
X63769047Y-157550952D02*
X63911904Y-157360476D01*
X64054761Y-157550952D01*
X60816666Y-19532380D02*
X60483333Y-19056190D01*
X60245238Y-19532380D02*
X60245238Y-18532380D01*
X60626190Y-18532380D01*
X60721428Y-18580000D01*
X60769047Y-18627619D01*
X60816666Y-18722857D01*
X60816666Y-18865714D01*
X60769047Y-18960952D01*
X60721428Y-19008571D01*
X60626190Y-19056190D01*
X60245238Y-19056190D01*
X61245238Y-19008571D02*
X61578571Y-19008571D01*
X61721428Y-19532380D02*
X61245238Y-19532380D01*
X61245238Y-18532380D01*
X61721428Y-18532380D01*
X62483333Y-19008571D02*
X62150000Y-19008571D01*
X62150000Y-19532380D02*
X62150000Y-18532380D01*
X62626190Y-18532380D01*
X63150000Y-18532380D02*
X63150000Y-18770476D01*
X62911904Y-18675238D02*
X63150000Y-18770476D01*
X63388095Y-18675238D01*
X63007142Y-18960952D02*
X63150000Y-18770476D01*
X63292857Y-18960952D01*
X63911904Y-18532380D02*
X63911904Y-18770476D01*
X63673809Y-18675238D02*
X63911904Y-18770476D01*
X64150000Y-18675238D01*
X63769047Y-18960952D02*
X63911904Y-18770476D01*
X64054761Y-18960952D01*
X133163333Y-76617142D02*
X133115714Y-76664761D01*
X132972857Y-76712380D01*
X132877619Y-76712380D01*
X132734761Y-76664761D01*
X132639523Y-76569523D01*
X132591904Y-76474285D01*
X132544285Y-76283809D01*
X132544285Y-76140952D01*
X132591904Y-75950476D01*
X132639523Y-75855238D01*
X132734761Y-75760000D01*
X132877619Y-75712380D01*
X132972857Y-75712380D01*
X133115714Y-75760000D01*
X133163333Y-75807619D01*
X134115714Y-76712380D02*
X133544285Y-76712380D01*
X133830000Y-76712380D02*
X133830000Y-75712380D01*
X133734761Y-75855238D01*
X133639523Y-75950476D01*
X133544285Y-75998095D01*
X123221904Y-117757142D02*
X123174285Y-117804761D01*
X123031428Y-117852380D01*
X122936190Y-117852380D01*
X122793333Y-117804761D01*
X122698095Y-117709523D01*
X122650476Y-117614285D01*
X122602857Y-117423809D01*
X122602857Y-117280952D01*
X122650476Y-117090476D01*
X122698095Y-116995238D01*
X122793333Y-116900000D01*
X122936190Y-116852380D01*
X123031428Y-116852380D01*
X123174285Y-116900000D01*
X123221904Y-116947619D01*
X123840952Y-116852380D02*
X123936190Y-116852380D01*
X124031428Y-116900000D01*
X124079047Y-116947619D01*
X124126666Y-117042857D01*
X124174285Y-117233333D01*
X124174285Y-117471428D01*
X124126666Y-117661904D01*
X124079047Y-117757142D01*
X124031428Y-117804761D01*
X123936190Y-117852380D01*
X123840952Y-117852380D01*
X123745714Y-117804761D01*
X123698095Y-117757142D01*
X123650476Y-117661904D01*
X123602857Y-117471428D01*
X123602857Y-117233333D01*
X123650476Y-117042857D01*
X123698095Y-116947619D01*
X123745714Y-116900000D01*
X123840952Y-116852380D01*
X124602857Y-117757142D02*
X124650476Y-117804761D01*
X124602857Y-117852380D01*
X124555238Y-117804761D01*
X124602857Y-117757142D01*
X124602857Y-117852380D01*
X125602857Y-117852380D02*
X125031428Y-117852380D01*
X125317142Y-117852380D02*
X125317142Y-116852380D01*
X125221904Y-116995238D01*
X125126666Y-117090476D01*
X125031428Y-117138095D01*
X126031428Y-117185714D02*
X126031428Y-117852380D01*
X126031428Y-117280952D02*
X126079047Y-117233333D01*
X126174285Y-117185714D01*
X126317142Y-117185714D01*
X126412380Y-117233333D01*
X126460000Y-117328571D01*
X126460000Y-117852380D01*
X127269523Y-117328571D02*
X126936190Y-117328571D01*
X126936190Y-117852380D02*
X126936190Y-116852380D01*
X127412380Y-116852380D01*
X128221904Y-117185714D02*
X128221904Y-117852380D01*
X127983809Y-116804761D02*
X127745714Y-117519047D01*
X128364761Y-117519047D01*
X74191904Y-30812380D02*
X74191904Y-29812380D01*
X74430000Y-29812380D01*
X74572857Y-29860000D01*
X74668095Y-29955238D01*
X74715714Y-30050476D01*
X74763333Y-30240952D01*
X74763333Y-30383809D01*
X74715714Y-30574285D01*
X74668095Y-30669523D01*
X74572857Y-30764761D01*
X74430000Y-30812380D01*
X74191904Y-30812380D01*
X75715714Y-30812380D02*
X75144285Y-30812380D01*
X75430000Y-30812380D02*
X75430000Y-29812380D01*
X75334761Y-29955238D01*
X75239523Y-30050476D01*
X75144285Y-30098095D01*
X81018095Y-30392380D02*
X81018095Y-29392380D01*
X81589523Y-30392380D02*
X81160952Y-29820952D01*
X81589523Y-29392380D02*
X81018095Y-29963809D01*
X74191904Y-62562380D02*
X74191904Y-61562380D01*
X74430000Y-61562380D01*
X74572857Y-61610000D01*
X74668095Y-61705238D01*
X74715714Y-61800476D01*
X74763333Y-61990952D01*
X74763333Y-62133809D01*
X74715714Y-62324285D01*
X74668095Y-62419523D01*
X74572857Y-62514761D01*
X74430000Y-62562380D01*
X74191904Y-62562380D01*
X75144285Y-61657619D02*
X75191904Y-61610000D01*
X75287142Y-61562380D01*
X75525238Y-61562380D01*
X75620476Y-61610000D01*
X75668095Y-61657619D01*
X75715714Y-61752857D01*
X75715714Y-61848095D01*
X75668095Y-61990952D01*
X75096666Y-62562380D01*
X75715714Y-62562380D01*
X81018095Y-62142380D02*
X81018095Y-61142380D01*
X81589523Y-62142380D02*
X81160952Y-61570952D01*
X81589523Y-61142380D02*
X81018095Y-61713809D01*
X74191904Y-94312380D02*
X74191904Y-93312380D01*
X74430000Y-93312380D01*
X74572857Y-93360000D01*
X74668095Y-93455238D01*
X74715714Y-93550476D01*
X74763333Y-93740952D01*
X74763333Y-93883809D01*
X74715714Y-94074285D01*
X74668095Y-94169523D01*
X74572857Y-94264761D01*
X74430000Y-94312380D01*
X74191904Y-94312380D01*
X75096666Y-93312380D02*
X75715714Y-93312380D01*
X75382380Y-93693333D01*
X75525238Y-93693333D01*
X75620476Y-93740952D01*
X75668095Y-93788571D01*
X75715714Y-93883809D01*
X75715714Y-94121904D01*
X75668095Y-94217142D01*
X75620476Y-94264761D01*
X75525238Y-94312380D01*
X75239523Y-94312380D01*
X75144285Y-94264761D01*
X75096666Y-94217142D01*
X81018095Y-93892380D02*
X81018095Y-92892380D01*
X81589523Y-93892380D02*
X81160952Y-93320952D01*
X81589523Y-92892380D02*
X81018095Y-93463809D01*
X74191904Y-126062380D02*
X74191904Y-125062380D01*
X74430000Y-125062380D01*
X74572857Y-125110000D01*
X74668095Y-125205238D01*
X74715714Y-125300476D01*
X74763333Y-125490952D01*
X74763333Y-125633809D01*
X74715714Y-125824285D01*
X74668095Y-125919523D01*
X74572857Y-126014761D01*
X74430000Y-126062380D01*
X74191904Y-126062380D01*
X75620476Y-125395714D02*
X75620476Y-126062380D01*
X75382380Y-125014761D02*
X75144285Y-125729047D01*
X75763333Y-125729047D01*
X81018095Y-125642380D02*
X81018095Y-124642380D01*
X81589523Y-125642380D02*
X81160952Y-125070952D01*
X81589523Y-124642380D02*
X81018095Y-125213809D01*
X182141904Y-94552380D02*
X182141904Y-93552380D01*
X182380000Y-93552380D01*
X182522857Y-93600000D01*
X182618095Y-93695238D01*
X182665714Y-93790476D01*
X182713333Y-93980952D01*
X182713333Y-94123809D01*
X182665714Y-94314285D01*
X182618095Y-94409523D01*
X182522857Y-94504761D01*
X182380000Y-94552380D01*
X182141904Y-94552380D01*
X183618095Y-93552380D02*
X183141904Y-93552380D01*
X183094285Y-94028571D01*
X183141904Y-93980952D01*
X183237142Y-93933333D01*
X183475238Y-93933333D01*
X183570476Y-93980952D01*
X183618095Y-94028571D01*
X183665714Y-94123809D01*
X183665714Y-94361904D01*
X183618095Y-94457142D01*
X183570476Y-94504761D01*
X183475238Y-94552380D01*
X183237142Y-94552380D01*
X183141904Y-94504761D01*
X183094285Y-94457142D01*
X176268095Y-94972380D02*
X176268095Y-93972380D01*
X176839523Y-94972380D02*
X176410952Y-94400952D01*
X176839523Y-93972380D02*
X176268095Y-94543809D01*
X74191904Y-37162380D02*
X74191904Y-36162380D01*
X74430000Y-36162380D01*
X74572857Y-36210000D01*
X74668095Y-36305238D01*
X74715714Y-36400476D01*
X74763333Y-36590952D01*
X74763333Y-36733809D01*
X74715714Y-36924285D01*
X74668095Y-37019523D01*
X74572857Y-37114761D01*
X74430000Y-37162380D01*
X74191904Y-37162380D01*
X75620476Y-36162380D02*
X75430000Y-36162380D01*
X75334761Y-36210000D01*
X75287142Y-36257619D01*
X75191904Y-36400476D01*
X75144285Y-36590952D01*
X75144285Y-36971904D01*
X75191904Y-37067142D01*
X75239523Y-37114761D01*
X75334761Y-37162380D01*
X75525238Y-37162380D01*
X75620476Y-37114761D01*
X75668095Y-37067142D01*
X75715714Y-36971904D01*
X75715714Y-36733809D01*
X75668095Y-36638571D01*
X75620476Y-36590952D01*
X75525238Y-36543333D01*
X75334761Y-36543333D01*
X75239523Y-36590952D01*
X75191904Y-36638571D01*
X75144285Y-36733809D01*
X81018095Y-36742380D02*
X81018095Y-35742380D01*
X81589523Y-36742380D02*
X81160952Y-36170952D01*
X81589523Y-35742380D02*
X81018095Y-36313809D01*
X74191904Y-68912380D02*
X74191904Y-67912380D01*
X74430000Y-67912380D01*
X74572857Y-67960000D01*
X74668095Y-68055238D01*
X74715714Y-68150476D01*
X74763333Y-68340952D01*
X74763333Y-68483809D01*
X74715714Y-68674285D01*
X74668095Y-68769523D01*
X74572857Y-68864761D01*
X74430000Y-68912380D01*
X74191904Y-68912380D01*
X75096666Y-67912380D02*
X75763333Y-67912380D01*
X75334761Y-68912380D01*
X81018095Y-68492380D02*
X81018095Y-67492380D01*
X81589523Y-68492380D02*
X81160952Y-67920952D01*
X81589523Y-67492380D02*
X81018095Y-68063809D01*
X74191904Y-100662380D02*
X74191904Y-99662380D01*
X74430000Y-99662380D01*
X74572857Y-99710000D01*
X74668095Y-99805238D01*
X74715714Y-99900476D01*
X74763333Y-100090952D01*
X74763333Y-100233809D01*
X74715714Y-100424285D01*
X74668095Y-100519523D01*
X74572857Y-100614761D01*
X74430000Y-100662380D01*
X74191904Y-100662380D01*
X75334761Y-100090952D02*
X75239523Y-100043333D01*
X75191904Y-99995714D01*
X75144285Y-99900476D01*
X75144285Y-99852857D01*
X75191904Y-99757619D01*
X75239523Y-99710000D01*
X75334761Y-99662380D01*
X75525238Y-99662380D01*
X75620476Y-99710000D01*
X75668095Y-99757619D01*
X75715714Y-99852857D01*
X75715714Y-99900476D01*
X75668095Y-99995714D01*
X75620476Y-100043333D01*
X75525238Y-100090952D01*
X75334761Y-100090952D01*
X75239523Y-100138571D01*
X75191904Y-100186190D01*
X75144285Y-100281428D01*
X75144285Y-100471904D01*
X75191904Y-100567142D01*
X75239523Y-100614761D01*
X75334761Y-100662380D01*
X75525238Y-100662380D01*
X75620476Y-100614761D01*
X75668095Y-100567142D01*
X75715714Y-100471904D01*
X75715714Y-100281428D01*
X75668095Y-100186190D01*
X75620476Y-100138571D01*
X75525238Y-100090952D01*
X81018095Y-100242380D02*
X81018095Y-99242380D01*
X81589523Y-100242380D02*
X81160952Y-99670952D01*
X81589523Y-99242380D02*
X81018095Y-99813809D01*
X74191904Y-132412380D02*
X74191904Y-131412380D01*
X74430000Y-131412380D01*
X74572857Y-131460000D01*
X74668095Y-131555238D01*
X74715714Y-131650476D01*
X74763333Y-131840952D01*
X74763333Y-131983809D01*
X74715714Y-132174285D01*
X74668095Y-132269523D01*
X74572857Y-132364761D01*
X74430000Y-132412380D01*
X74191904Y-132412380D01*
X75239523Y-132412380D02*
X75430000Y-132412380D01*
X75525238Y-132364761D01*
X75572857Y-132317142D01*
X75668095Y-132174285D01*
X75715714Y-131983809D01*
X75715714Y-131602857D01*
X75668095Y-131507619D01*
X75620476Y-131460000D01*
X75525238Y-131412380D01*
X75334761Y-131412380D01*
X75239523Y-131460000D01*
X75191904Y-131507619D01*
X75144285Y-131602857D01*
X75144285Y-131840952D01*
X75191904Y-131936190D01*
X75239523Y-131983809D01*
X75334761Y-132031428D01*
X75525238Y-132031428D01*
X75620476Y-131983809D01*
X75668095Y-131936190D01*
X75715714Y-131840952D01*
X81018095Y-131992380D02*
X81018095Y-130992380D01*
X81589523Y-131992380D02*
X81160952Y-131420952D01*
X81589523Y-130992380D02*
X81018095Y-131563809D01*
X181665714Y-100902380D02*
X181665714Y-99902380D01*
X181903809Y-99902380D01*
X182046666Y-99950000D01*
X182141904Y-100045238D01*
X182189523Y-100140476D01*
X182237142Y-100330952D01*
X182237142Y-100473809D01*
X182189523Y-100664285D01*
X182141904Y-100759523D01*
X182046666Y-100854761D01*
X181903809Y-100902380D01*
X181665714Y-100902380D01*
X183189523Y-100902380D02*
X182618095Y-100902380D01*
X182903809Y-100902380D02*
X182903809Y-99902380D01*
X182808571Y-100045238D01*
X182713333Y-100140476D01*
X182618095Y-100188095D01*
X183808571Y-99902380D02*
X183903809Y-99902380D01*
X183999047Y-99950000D01*
X184046666Y-99997619D01*
X184094285Y-100092857D01*
X184141904Y-100283333D01*
X184141904Y-100521428D01*
X184094285Y-100711904D01*
X184046666Y-100807142D01*
X183999047Y-100854761D01*
X183903809Y-100902380D01*
X183808571Y-100902380D01*
X183713333Y-100854761D01*
X183665714Y-100807142D01*
X183618095Y-100711904D01*
X183570476Y-100521428D01*
X183570476Y-100283333D01*
X183618095Y-100092857D01*
X183665714Y-99997619D01*
X183713333Y-99950000D01*
X183808571Y-99902380D01*
X176268095Y-101322380D02*
X176268095Y-100322380D01*
X176839523Y-101322380D02*
X176410952Y-100750952D01*
X176839523Y-100322380D02*
X176268095Y-100893809D01*
X73715714Y-43512380D02*
X73715714Y-42512380D01*
X73953809Y-42512380D01*
X74096666Y-42560000D01*
X74191904Y-42655238D01*
X74239523Y-42750476D01*
X74287142Y-42940952D01*
X74287142Y-43083809D01*
X74239523Y-43274285D01*
X74191904Y-43369523D01*
X74096666Y-43464761D01*
X73953809Y-43512380D01*
X73715714Y-43512380D01*
X75239523Y-43512380D02*
X74668095Y-43512380D01*
X74953809Y-43512380D02*
X74953809Y-42512380D01*
X74858571Y-42655238D01*
X74763333Y-42750476D01*
X74668095Y-42798095D01*
X76191904Y-43512380D02*
X75620476Y-43512380D01*
X75906190Y-43512380D02*
X75906190Y-42512380D01*
X75810952Y-42655238D01*
X75715714Y-42750476D01*
X75620476Y-42798095D01*
X81018095Y-43092380D02*
X81018095Y-42092380D01*
X81589523Y-43092380D02*
X81160952Y-42520952D01*
X81589523Y-42092380D02*
X81018095Y-42663809D01*
X73715714Y-75262380D02*
X73715714Y-74262380D01*
X73953809Y-74262380D01*
X74096666Y-74310000D01*
X74191904Y-74405238D01*
X74239523Y-74500476D01*
X74287142Y-74690952D01*
X74287142Y-74833809D01*
X74239523Y-75024285D01*
X74191904Y-75119523D01*
X74096666Y-75214761D01*
X73953809Y-75262380D01*
X73715714Y-75262380D01*
X75239523Y-75262380D02*
X74668095Y-75262380D01*
X74953809Y-75262380D02*
X74953809Y-74262380D01*
X74858571Y-74405238D01*
X74763333Y-74500476D01*
X74668095Y-74548095D01*
X75620476Y-74357619D02*
X75668095Y-74310000D01*
X75763333Y-74262380D01*
X76001428Y-74262380D01*
X76096666Y-74310000D01*
X76144285Y-74357619D01*
X76191904Y-74452857D01*
X76191904Y-74548095D01*
X76144285Y-74690952D01*
X75572857Y-75262380D01*
X76191904Y-75262380D01*
X81018095Y-74842380D02*
X81018095Y-73842380D01*
X81589523Y-74842380D02*
X81160952Y-74270952D01*
X81589523Y-73842380D02*
X81018095Y-74413809D01*
X73715714Y-107012380D02*
X73715714Y-106012380D01*
X73953809Y-106012380D01*
X74096666Y-106060000D01*
X74191904Y-106155238D01*
X74239523Y-106250476D01*
X74287142Y-106440952D01*
X74287142Y-106583809D01*
X74239523Y-106774285D01*
X74191904Y-106869523D01*
X74096666Y-106964761D01*
X73953809Y-107012380D01*
X73715714Y-107012380D01*
X75239523Y-107012380D02*
X74668095Y-107012380D01*
X74953809Y-107012380D02*
X74953809Y-106012380D01*
X74858571Y-106155238D01*
X74763333Y-106250476D01*
X74668095Y-106298095D01*
X75572857Y-106012380D02*
X76191904Y-106012380D01*
X75858571Y-106393333D01*
X76001428Y-106393333D01*
X76096666Y-106440952D01*
X76144285Y-106488571D01*
X76191904Y-106583809D01*
X76191904Y-106821904D01*
X76144285Y-106917142D01*
X76096666Y-106964761D01*
X76001428Y-107012380D01*
X75715714Y-107012380D01*
X75620476Y-106964761D01*
X75572857Y-106917142D01*
X81018095Y-106592380D02*
X81018095Y-105592380D01*
X81589523Y-106592380D02*
X81160952Y-106020952D01*
X81589523Y-105592380D02*
X81018095Y-106163809D01*
X73715714Y-138762380D02*
X73715714Y-137762380D01*
X73953809Y-137762380D01*
X74096666Y-137810000D01*
X74191904Y-137905238D01*
X74239523Y-138000476D01*
X74287142Y-138190952D01*
X74287142Y-138333809D01*
X74239523Y-138524285D01*
X74191904Y-138619523D01*
X74096666Y-138714761D01*
X73953809Y-138762380D01*
X73715714Y-138762380D01*
X75239523Y-138762380D02*
X74668095Y-138762380D01*
X74953809Y-138762380D02*
X74953809Y-137762380D01*
X74858571Y-137905238D01*
X74763333Y-138000476D01*
X74668095Y-138048095D01*
X76096666Y-138095714D02*
X76096666Y-138762380D01*
X75858571Y-137714761D02*
X75620476Y-138429047D01*
X76239523Y-138429047D01*
X81018095Y-138342380D02*
X81018095Y-137342380D01*
X81589523Y-138342380D02*
X81160952Y-137770952D01*
X81589523Y-137342380D02*
X81018095Y-137913809D01*
X181665714Y-107252380D02*
X181665714Y-106252380D01*
X181903809Y-106252380D01*
X182046666Y-106300000D01*
X182141904Y-106395238D01*
X182189523Y-106490476D01*
X182237142Y-106680952D01*
X182237142Y-106823809D01*
X182189523Y-107014285D01*
X182141904Y-107109523D01*
X182046666Y-107204761D01*
X181903809Y-107252380D01*
X181665714Y-107252380D01*
X183189523Y-107252380D02*
X182618095Y-107252380D01*
X182903809Y-107252380D02*
X182903809Y-106252380D01*
X182808571Y-106395238D01*
X182713333Y-106490476D01*
X182618095Y-106538095D01*
X184094285Y-106252380D02*
X183618095Y-106252380D01*
X183570476Y-106728571D01*
X183618095Y-106680952D01*
X183713333Y-106633333D01*
X183951428Y-106633333D01*
X184046666Y-106680952D01*
X184094285Y-106728571D01*
X184141904Y-106823809D01*
X184141904Y-107061904D01*
X184094285Y-107157142D01*
X184046666Y-107204761D01*
X183951428Y-107252380D01*
X183713333Y-107252380D01*
X183618095Y-107204761D01*
X183570476Y-107157142D01*
X176268095Y-107672380D02*
X176268095Y-106672380D01*
X176839523Y-107672380D02*
X176410952Y-107100952D01*
X176839523Y-106672380D02*
X176268095Y-107243809D01*
X73715714Y-49862380D02*
X73715714Y-48862380D01*
X73953809Y-48862380D01*
X74096666Y-48910000D01*
X74191904Y-49005238D01*
X74239523Y-49100476D01*
X74287142Y-49290952D01*
X74287142Y-49433809D01*
X74239523Y-49624285D01*
X74191904Y-49719523D01*
X74096666Y-49814761D01*
X73953809Y-49862380D01*
X73715714Y-49862380D01*
X75239523Y-49862380D02*
X74668095Y-49862380D01*
X74953809Y-49862380D02*
X74953809Y-48862380D01*
X74858571Y-49005238D01*
X74763333Y-49100476D01*
X74668095Y-49148095D01*
X76096666Y-48862380D02*
X75906190Y-48862380D01*
X75810952Y-48910000D01*
X75763333Y-48957619D01*
X75668095Y-49100476D01*
X75620476Y-49290952D01*
X75620476Y-49671904D01*
X75668095Y-49767142D01*
X75715714Y-49814761D01*
X75810952Y-49862380D01*
X76001428Y-49862380D01*
X76096666Y-49814761D01*
X76144285Y-49767142D01*
X76191904Y-49671904D01*
X76191904Y-49433809D01*
X76144285Y-49338571D01*
X76096666Y-49290952D01*
X76001428Y-49243333D01*
X75810952Y-49243333D01*
X75715714Y-49290952D01*
X75668095Y-49338571D01*
X75620476Y-49433809D01*
X81018095Y-49442380D02*
X81018095Y-48442380D01*
X81589523Y-49442380D02*
X81160952Y-48870952D01*
X81589523Y-48442380D02*
X81018095Y-49013809D01*
X73715714Y-81612380D02*
X73715714Y-80612380D01*
X73953809Y-80612380D01*
X74096666Y-80660000D01*
X74191904Y-80755238D01*
X74239523Y-80850476D01*
X74287142Y-81040952D01*
X74287142Y-81183809D01*
X74239523Y-81374285D01*
X74191904Y-81469523D01*
X74096666Y-81564761D01*
X73953809Y-81612380D01*
X73715714Y-81612380D01*
X75239523Y-81612380D02*
X74668095Y-81612380D01*
X74953809Y-81612380D02*
X74953809Y-80612380D01*
X74858571Y-80755238D01*
X74763333Y-80850476D01*
X74668095Y-80898095D01*
X75572857Y-80612380D02*
X76239523Y-80612380D01*
X75810952Y-81612380D01*
X81018095Y-81192380D02*
X81018095Y-80192380D01*
X81589523Y-81192380D02*
X81160952Y-80620952D01*
X81589523Y-80192380D02*
X81018095Y-80763809D01*
X73715714Y-113362380D02*
X73715714Y-112362380D01*
X73953809Y-112362380D01*
X74096666Y-112410000D01*
X74191904Y-112505238D01*
X74239523Y-112600476D01*
X74287142Y-112790952D01*
X74287142Y-112933809D01*
X74239523Y-113124285D01*
X74191904Y-113219523D01*
X74096666Y-113314761D01*
X73953809Y-113362380D01*
X73715714Y-113362380D01*
X75239523Y-113362380D02*
X74668095Y-113362380D01*
X74953809Y-113362380D02*
X74953809Y-112362380D01*
X74858571Y-112505238D01*
X74763333Y-112600476D01*
X74668095Y-112648095D01*
X75810952Y-112790952D02*
X75715714Y-112743333D01*
X75668095Y-112695714D01*
X75620476Y-112600476D01*
X75620476Y-112552857D01*
X75668095Y-112457619D01*
X75715714Y-112410000D01*
X75810952Y-112362380D01*
X76001428Y-112362380D01*
X76096666Y-112410000D01*
X76144285Y-112457619D01*
X76191904Y-112552857D01*
X76191904Y-112600476D01*
X76144285Y-112695714D01*
X76096666Y-112743333D01*
X76001428Y-112790952D01*
X75810952Y-112790952D01*
X75715714Y-112838571D01*
X75668095Y-112886190D01*
X75620476Y-112981428D01*
X75620476Y-113171904D01*
X75668095Y-113267142D01*
X75715714Y-113314761D01*
X75810952Y-113362380D01*
X76001428Y-113362380D01*
X76096666Y-113314761D01*
X76144285Y-113267142D01*
X76191904Y-113171904D01*
X76191904Y-112981428D01*
X76144285Y-112886190D01*
X76096666Y-112838571D01*
X76001428Y-112790952D01*
X81018095Y-112942380D02*
X81018095Y-111942380D01*
X81589523Y-112942380D02*
X81160952Y-112370952D01*
X81589523Y-111942380D02*
X81018095Y-112513809D01*
X73715714Y-145112380D02*
X73715714Y-144112380D01*
X73953809Y-144112380D01*
X74096666Y-144160000D01*
X74191904Y-144255238D01*
X74239523Y-144350476D01*
X74287142Y-144540952D01*
X74287142Y-144683809D01*
X74239523Y-144874285D01*
X74191904Y-144969523D01*
X74096666Y-145064761D01*
X73953809Y-145112380D01*
X73715714Y-145112380D01*
X75239523Y-145112380D02*
X74668095Y-145112380D01*
X74953809Y-145112380D02*
X74953809Y-144112380D01*
X74858571Y-144255238D01*
X74763333Y-144350476D01*
X74668095Y-144398095D01*
X75715714Y-145112380D02*
X75906190Y-145112380D01*
X76001428Y-145064761D01*
X76049047Y-145017142D01*
X76144285Y-144874285D01*
X76191904Y-144683809D01*
X76191904Y-144302857D01*
X76144285Y-144207619D01*
X76096666Y-144160000D01*
X76001428Y-144112380D01*
X75810952Y-144112380D01*
X75715714Y-144160000D01*
X75668095Y-144207619D01*
X75620476Y-144302857D01*
X75620476Y-144540952D01*
X75668095Y-144636190D01*
X75715714Y-144683809D01*
X75810952Y-144731428D01*
X76001428Y-144731428D01*
X76096666Y-144683809D01*
X76144285Y-144636190D01*
X76191904Y-144540952D01*
X81018095Y-144692380D02*
X81018095Y-143692380D01*
X81589523Y-144692380D02*
X81160952Y-144120952D01*
X81589523Y-143692380D02*
X81018095Y-144263809D01*
X181665714Y-113602380D02*
X181665714Y-112602380D01*
X181903809Y-112602380D01*
X182046666Y-112650000D01*
X182141904Y-112745238D01*
X182189523Y-112840476D01*
X182237142Y-113030952D01*
X182237142Y-113173809D01*
X182189523Y-113364285D01*
X182141904Y-113459523D01*
X182046666Y-113554761D01*
X181903809Y-113602380D01*
X181665714Y-113602380D01*
X182618095Y-112697619D02*
X182665714Y-112650000D01*
X182760952Y-112602380D01*
X182999047Y-112602380D01*
X183094285Y-112650000D01*
X183141904Y-112697619D01*
X183189523Y-112792857D01*
X183189523Y-112888095D01*
X183141904Y-113030952D01*
X182570476Y-113602380D01*
X183189523Y-113602380D01*
X183808571Y-112602380D02*
X183903809Y-112602380D01*
X183999047Y-112650000D01*
X184046666Y-112697619D01*
X184094285Y-112792857D01*
X184141904Y-112983333D01*
X184141904Y-113221428D01*
X184094285Y-113411904D01*
X184046666Y-113507142D01*
X183999047Y-113554761D01*
X183903809Y-113602380D01*
X183808571Y-113602380D01*
X183713333Y-113554761D01*
X183665714Y-113507142D01*
X183618095Y-113411904D01*
X183570476Y-113221428D01*
X183570476Y-112983333D01*
X183618095Y-112792857D01*
X183665714Y-112697619D01*
X183713333Y-112650000D01*
X183808571Y-112602380D01*
X176268095Y-114022380D02*
X176268095Y-113022380D01*
X176839523Y-114022380D02*
X176410952Y-113450952D01*
X176839523Y-113022380D02*
X176268095Y-113593809D01*
X73715714Y-56212380D02*
X73715714Y-55212380D01*
X73953809Y-55212380D01*
X74096666Y-55260000D01*
X74191904Y-55355238D01*
X74239523Y-55450476D01*
X74287142Y-55640952D01*
X74287142Y-55783809D01*
X74239523Y-55974285D01*
X74191904Y-56069523D01*
X74096666Y-56164761D01*
X73953809Y-56212380D01*
X73715714Y-56212380D01*
X74668095Y-55307619D02*
X74715714Y-55260000D01*
X74810952Y-55212380D01*
X75049047Y-55212380D01*
X75144285Y-55260000D01*
X75191904Y-55307619D01*
X75239523Y-55402857D01*
X75239523Y-55498095D01*
X75191904Y-55640952D01*
X74620476Y-56212380D01*
X75239523Y-56212380D01*
X76191904Y-56212380D02*
X75620476Y-56212380D01*
X75906190Y-56212380D02*
X75906190Y-55212380D01*
X75810952Y-55355238D01*
X75715714Y-55450476D01*
X75620476Y-55498095D01*
X81018095Y-55792380D02*
X81018095Y-54792380D01*
X81589523Y-55792380D02*
X81160952Y-55220952D01*
X81589523Y-54792380D02*
X81018095Y-55363809D01*
X73715714Y-87962380D02*
X73715714Y-86962380D01*
X73953809Y-86962380D01*
X74096666Y-87010000D01*
X74191904Y-87105238D01*
X74239523Y-87200476D01*
X74287142Y-87390952D01*
X74287142Y-87533809D01*
X74239523Y-87724285D01*
X74191904Y-87819523D01*
X74096666Y-87914761D01*
X73953809Y-87962380D01*
X73715714Y-87962380D01*
X74668095Y-87057619D02*
X74715714Y-87010000D01*
X74810952Y-86962380D01*
X75049047Y-86962380D01*
X75144285Y-87010000D01*
X75191904Y-87057619D01*
X75239523Y-87152857D01*
X75239523Y-87248095D01*
X75191904Y-87390952D01*
X74620476Y-87962380D01*
X75239523Y-87962380D01*
X75620476Y-87057619D02*
X75668095Y-87010000D01*
X75763333Y-86962380D01*
X76001428Y-86962380D01*
X76096666Y-87010000D01*
X76144285Y-87057619D01*
X76191904Y-87152857D01*
X76191904Y-87248095D01*
X76144285Y-87390952D01*
X75572857Y-87962380D01*
X76191904Y-87962380D01*
X81018095Y-87542380D02*
X81018095Y-86542380D01*
X81589523Y-87542380D02*
X81160952Y-86970952D01*
X81589523Y-86542380D02*
X81018095Y-87113809D01*
X73715714Y-119712380D02*
X73715714Y-118712380D01*
X73953809Y-118712380D01*
X74096666Y-118760000D01*
X74191904Y-118855238D01*
X74239523Y-118950476D01*
X74287142Y-119140952D01*
X74287142Y-119283809D01*
X74239523Y-119474285D01*
X74191904Y-119569523D01*
X74096666Y-119664761D01*
X73953809Y-119712380D01*
X73715714Y-119712380D01*
X74668095Y-118807619D02*
X74715714Y-118760000D01*
X74810952Y-118712380D01*
X75049047Y-118712380D01*
X75144285Y-118760000D01*
X75191904Y-118807619D01*
X75239523Y-118902857D01*
X75239523Y-118998095D01*
X75191904Y-119140952D01*
X74620476Y-119712380D01*
X75239523Y-119712380D01*
X75572857Y-118712380D02*
X76191904Y-118712380D01*
X75858571Y-119093333D01*
X76001428Y-119093333D01*
X76096666Y-119140952D01*
X76144285Y-119188571D01*
X76191904Y-119283809D01*
X76191904Y-119521904D01*
X76144285Y-119617142D01*
X76096666Y-119664761D01*
X76001428Y-119712380D01*
X75715714Y-119712380D01*
X75620476Y-119664761D01*
X75572857Y-119617142D01*
X81018095Y-119292380D02*
X81018095Y-118292380D01*
X81589523Y-119292380D02*
X81160952Y-118720952D01*
X81589523Y-118292380D02*
X81018095Y-118863809D01*
X73715714Y-151462380D02*
X73715714Y-150462380D01*
X73953809Y-150462380D01*
X74096666Y-150510000D01*
X74191904Y-150605238D01*
X74239523Y-150700476D01*
X74287142Y-150890952D01*
X74287142Y-151033809D01*
X74239523Y-151224285D01*
X74191904Y-151319523D01*
X74096666Y-151414761D01*
X73953809Y-151462380D01*
X73715714Y-151462380D01*
X74668095Y-150557619D02*
X74715714Y-150510000D01*
X74810952Y-150462380D01*
X75049047Y-150462380D01*
X75144285Y-150510000D01*
X75191904Y-150557619D01*
X75239523Y-150652857D01*
X75239523Y-150748095D01*
X75191904Y-150890952D01*
X74620476Y-151462380D01*
X75239523Y-151462380D01*
X76096666Y-150795714D02*
X76096666Y-151462380D01*
X75858571Y-150414761D02*
X75620476Y-151129047D01*
X76239523Y-151129047D01*
X81018095Y-151042380D02*
X81018095Y-150042380D01*
X81589523Y-151042380D02*
X81160952Y-150470952D01*
X81589523Y-150042380D02*
X81018095Y-150613809D01*
X181665714Y-119952380D02*
X181665714Y-118952380D01*
X181903809Y-118952380D01*
X182046666Y-119000000D01*
X182141904Y-119095238D01*
X182189523Y-119190476D01*
X182237142Y-119380952D01*
X182237142Y-119523809D01*
X182189523Y-119714285D01*
X182141904Y-119809523D01*
X182046666Y-119904761D01*
X181903809Y-119952380D01*
X181665714Y-119952380D01*
X182618095Y-119047619D02*
X182665714Y-119000000D01*
X182760952Y-118952380D01*
X182999047Y-118952380D01*
X183094285Y-119000000D01*
X183141904Y-119047619D01*
X183189523Y-119142857D01*
X183189523Y-119238095D01*
X183141904Y-119380952D01*
X182570476Y-119952380D01*
X183189523Y-119952380D01*
X184094285Y-118952380D02*
X183618095Y-118952380D01*
X183570476Y-119428571D01*
X183618095Y-119380952D01*
X183713333Y-119333333D01*
X183951428Y-119333333D01*
X184046666Y-119380952D01*
X184094285Y-119428571D01*
X184141904Y-119523809D01*
X184141904Y-119761904D01*
X184094285Y-119857142D01*
X184046666Y-119904761D01*
X183951428Y-119952380D01*
X183713333Y-119952380D01*
X183618095Y-119904761D01*
X183570476Y-119857142D01*
X176268095Y-120372380D02*
X176268095Y-119372380D01*
X176839523Y-120372380D02*
X176410952Y-119800952D01*
X176839523Y-119372380D02*
X176268095Y-119943809D01*
X133381904Y-117820000D02*
X133286666Y-117772380D01*
X133143809Y-117772380D01*
X133000952Y-117820000D01*
X132905714Y-117915238D01*
X132858095Y-118010476D01*
X132810476Y-118200952D01*
X132810476Y-118343809D01*
X132858095Y-118534285D01*
X132905714Y-118629523D01*
X133000952Y-118724761D01*
X133143809Y-118772380D01*
X133239047Y-118772380D01*
X133381904Y-118724761D01*
X133429523Y-118677142D01*
X133429523Y-118343809D01*
X133239047Y-118343809D01*
X133858095Y-118772380D02*
X133858095Y-117772380D01*
X134429523Y-118772380D01*
X134429523Y-117772380D01*
X134905714Y-118772380D02*
X134905714Y-117772380D01*
X135143809Y-117772380D01*
X135286666Y-117820000D01*
X135381904Y-117915238D01*
X135429523Y-118010476D01*
X135477142Y-118200952D01*
X135477142Y-118343809D01*
X135429523Y-118534285D01*
X135381904Y-118629523D01*
X135286666Y-118724761D01*
X135143809Y-118772380D01*
X134905714Y-118772380D01*
X136429523Y-118772380D02*
X135858095Y-118772380D01*
X136143809Y-118772380D02*
X136143809Y-117772380D01*
X136048571Y-117915238D01*
X135953333Y-118010476D01*
X135858095Y-118058095D01*
X59356666Y-32682380D02*
X59356666Y-33396666D01*
X59309047Y-33539523D01*
X59213809Y-33634761D01*
X59070952Y-33682380D01*
X58975714Y-33682380D01*
X60356666Y-33682380D02*
X59785238Y-33682380D01*
X60070952Y-33682380D02*
X60070952Y-32682380D01*
X59975714Y-32825238D01*
X59880476Y-32920476D01*
X59785238Y-32968095D01*
X59356666Y-64432380D02*
X59356666Y-65146666D01*
X59309047Y-65289523D01*
X59213809Y-65384761D01*
X59070952Y-65432380D01*
X58975714Y-65432380D01*
X59785238Y-64527619D02*
X59832857Y-64480000D01*
X59928095Y-64432380D01*
X60166190Y-64432380D01*
X60261428Y-64480000D01*
X60309047Y-64527619D01*
X60356666Y-64622857D01*
X60356666Y-64718095D01*
X60309047Y-64860952D01*
X59737619Y-65432380D01*
X60356666Y-65432380D01*
X59356666Y-96182380D02*
X59356666Y-96896666D01*
X59309047Y-97039523D01*
X59213809Y-97134761D01*
X59070952Y-97182380D01*
X58975714Y-97182380D01*
X59737619Y-96182380D02*
X60356666Y-96182380D01*
X60023333Y-96563333D01*
X60166190Y-96563333D01*
X60261428Y-96610952D01*
X60309047Y-96658571D01*
X60356666Y-96753809D01*
X60356666Y-96991904D01*
X60309047Y-97087142D01*
X60261428Y-97134761D01*
X60166190Y-97182380D01*
X59880476Y-97182380D01*
X59785238Y-97134761D01*
X59737619Y-97087142D01*
X59356666Y-127932380D02*
X59356666Y-128646666D01*
X59309047Y-128789523D01*
X59213809Y-128884761D01*
X59070952Y-128932380D01*
X58975714Y-128932380D01*
X60261428Y-128265714D02*
X60261428Y-128932380D01*
X60023333Y-127884761D02*
X59785238Y-128599047D01*
X60404285Y-128599047D01*
X197786666Y-101262380D02*
X197786666Y-101976666D01*
X197739047Y-102119523D01*
X197643809Y-102214761D01*
X197500952Y-102262380D01*
X197405714Y-102262380D01*
X198739047Y-101262380D02*
X198262857Y-101262380D01*
X198215238Y-101738571D01*
X198262857Y-101690952D01*
X198358095Y-101643333D01*
X198596190Y-101643333D01*
X198691428Y-101690952D01*
X198739047Y-101738571D01*
X198786666Y-101833809D01*
X198786666Y-102071904D01*
X198739047Y-102167142D01*
X198691428Y-102214761D01*
X198596190Y-102262380D01*
X198358095Y-102262380D01*
X198262857Y-102214761D01*
X198215238Y-102167142D01*
X197786666Y-65702380D02*
X197786666Y-66416666D01*
X197739047Y-66559523D01*
X197643809Y-66654761D01*
X197500952Y-66702380D01*
X197405714Y-66702380D01*
X198691428Y-65702380D02*
X198500952Y-65702380D01*
X198405714Y-65750000D01*
X198358095Y-65797619D01*
X198262857Y-65940476D01*
X198215238Y-66130952D01*
X198215238Y-66511904D01*
X198262857Y-66607142D01*
X198310476Y-66654761D01*
X198405714Y-66702380D01*
X198596190Y-66702380D01*
X198691428Y-66654761D01*
X198739047Y-66607142D01*
X198786666Y-66511904D01*
X198786666Y-66273809D01*
X198739047Y-66178571D01*
X198691428Y-66130952D01*
X198596190Y-66083333D01*
X198405714Y-66083333D01*
X198310476Y-66130952D01*
X198262857Y-66178571D01*
X198215238Y-66273809D01*
X197786666Y-28872380D02*
X197786666Y-29586666D01*
X197739047Y-29729523D01*
X197643809Y-29824761D01*
X197500952Y-29872380D01*
X197405714Y-29872380D01*
X198167619Y-28872380D02*
X198834285Y-28872380D01*
X198405714Y-29872380D01*
X136822380Y-30813333D02*
X137536666Y-30813333D01*
X137679523Y-30860952D01*
X137774761Y-30956190D01*
X137822380Y-31099047D01*
X137822380Y-31194285D01*
X137250952Y-30194285D02*
X137203333Y-30289523D01*
X137155714Y-30337142D01*
X137060476Y-30384761D01*
X137012857Y-30384761D01*
X136917619Y-30337142D01*
X136870000Y-30289523D01*
X136822380Y-30194285D01*
X136822380Y-30003809D01*
X136870000Y-29908571D01*
X136917619Y-29860952D01*
X137012857Y-29813333D01*
X137060476Y-29813333D01*
X137155714Y-29860952D01*
X137203333Y-29908571D01*
X137250952Y-30003809D01*
X137250952Y-30194285D01*
X137298571Y-30289523D01*
X137346190Y-30337142D01*
X137441428Y-30384761D01*
X137631904Y-30384761D01*
X137727142Y-30337142D01*
X137774761Y-30289523D01*
X137822380Y-30194285D01*
X137822380Y-30003809D01*
X137774761Y-29908571D01*
X137727142Y-29860952D01*
X137631904Y-29813333D01*
X137441428Y-29813333D01*
X137346190Y-29860952D01*
X137298571Y-29908571D01*
X137250952Y-30003809D01*
X152912380Y-162893333D02*
X153626666Y-162893333D01*
X153769523Y-162940952D01*
X153864761Y-163036190D01*
X153912380Y-163179047D01*
X153912380Y-163274285D01*
X153912380Y-162369523D02*
X153912380Y-162179047D01*
X153864761Y-162083809D01*
X153817142Y-162036190D01*
X153674285Y-161940952D01*
X153483809Y-161893333D01*
X153102857Y-161893333D01*
X153007619Y-161940952D01*
X152960000Y-161988571D01*
X152912380Y-162083809D01*
X152912380Y-162274285D01*
X152960000Y-162369523D01*
X153007619Y-162417142D01*
X153102857Y-162464761D01*
X153340952Y-162464761D01*
X153436190Y-162417142D01*
X153483809Y-162369523D01*
X153531428Y-162274285D01*
X153531428Y-162083809D01*
X153483809Y-161988571D01*
X153436190Y-161940952D01*
X153340952Y-161893333D01*
X197310476Y-139362380D02*
X197310476Y-140076666D01*
X197262857Y-140219523D01*
X197167619Y-140314761D01*
X197024761Y-140362380D01*
X196929523Y-140362380D01*
X198310476Y-140362380D02*
X197739047Y-140362380D01*
X198024761Y-140362380D02*
X198024761Y-139362380D01*
X197929523Y-139505238D01*
X197834285Y-139600476D01*
X197739047Y-139648095D01*
X198929523Y-139362380D02*
X199024761Y-139362380D01*
X199120000Y-139410000D01*
X199167619Y-139457619D01*
X199215238Y-139552857D01*
X199262857Y-139743333D01*
X199262857Y-139981428D01*
X199215238Y-140171904D01*
X199167619Y-140267142D01*
X199120000Y-140314761D01*
X199024761Y-140362380D01*
X198929523Y-140362380D01*
X198834285Y-140314761D01*
X198786666Y-140267142D01*
X198739047Y-140171904D01*
X198691428Y-139981428D01*
X198691428Y-139743333D01*
X198739047Y-139552857D01*
X198786666Y-139457619D01*
X198834285Y-139410000D01*
X198929523Y-139362380D01*
X108882380Y-22399523D02*
X109596666Y-22399523D01*
X109739523Y-22447142D01*
X109834761Y-22542380D01*
X109882380Y-22685238D01*
X109882380Y-22780476D01*
X109882380Y-21399523D02*
X109882380Y-21970952D01*
X109882380Y-21685238D02*
X108882380Y-21685238D01*
X109025238Y-21780476D01*
X109120476Y-21875714D01*
X109168095Y-21970952D01*
X109882380Y-20447142D02*
X109882380Y-21018571D01*
X109882380Y-20732857D02*
X108882380Y-20732857D01*
X109025238Y-20828095D01*
X109120476Y-20923333D01*
X109168095Y-21018571D01*
X104600476Y-61892380D02*
X104600476Y-62606666D01*
X104552857Y-62749523D01*
X104457619Y-62844761D01*
X104314761Y-62892380D01*
X104219523Y-62892380D01*
X105600476Y-62892380D02*
X105029047Y-62892380D01*
X105314761Y-62892380D02*
X105314761Y-61892380D01*
X105219523Y-62035238D01*
X105124285Y-62130476D01*
X105029047Y-62178095D01*
X105981428Y-61987619D02*
X106029047Y-61940000D01*
X106124285Y-61892380D01*
X106362380Y-61892380D01*
X106457619Y-61940000D01*
X106505238Y-61987619D01*
X106552857Y-62082857D01*
X106552857Y-62178095D01*
X106505238Y-62320952D01*
X105933809Y-62892380D01*
X106552857Y-62892380D01*
X124920476Y-72052380D02*
X124920476Y-72766666D01*
X124872857Y-72909523D01*
X124777619Y-73004761D01*
X124634761Y-73052380D01*
X124539523Y-73052380D01*
X125920476Y-73052380D02*
X125349047Y-73052380D01*
X125634761Y-73052380D02*
X125634761Y-72052380D01*
X125539523Y-72195238D01*
X125444285Y-72290476D01*
X125349047Y-72338095D01*
X126253809Y-72052380D02*
X126872857Y-72052380D01*
X126539523Y-72433333D01*
X126682380Y-72433333D01*
X126777619Y-72480952D01*
X126825238Y-72528571D01*
X126872857Y-72623809D01*
X126872857Y-72861904D01*
X126825238Y-72957142D01*
X126777619Y-73004761D01*
X126682380Y-73052380D01*
X126396666Y-73052380D01*
X126301428Y-73004761D01*
X126253809Y-72957142D01*
X105862380Y-119292380D02*
X104862380Y-119292380D01*
X104862380Y-118911428D01*
X104910000Y-118816190D01*
X104957619Y-118768571D01*
X105052857Y-118720952D01*
X105195714Y-118720952D01*
X105290952Y-118768571D01*
X105338571Y-118816190D01*
X105386190Y-118911428D01*
X105386190Y-119292380D01*
X105862380Y-118292380D02*
X105195714Y-118292380D01*
X105386190Y-118292380D02*
X105290952Y-118244761D01*
X105243333Y-118197142D01*
X105195714Y-118101904D01*
X105195714Y-118006666D01*
X105195714Y-117816190D02*
X105195714Y-117435238D01*
X104862380Y-117673333D02*
X105719523Y-117673333D01*
X105814761Y-117625714D01*
X105862380Y-117530476D01*
X105862380Y-117435238D01*
X105957619Y-117340000D02*
X105957619Y-116578095D01*
X105862380Y-116340000D02*
X104862380Y-116340000D01*
X105767142Y-115292380D02*
X105814761Y-115340000D01*
X105862380Y-115482857D01*
X105862380Y-115578095D01*
X105814761Y-115720952D01*
X105719523Y-115816190D01*
X105624285Y-115863809D01*
X105433809Y-115911428D01*
X105290952Y-115911428D01*
X105100476Y-115863809D01*
X105005238Y-115816190D01*
X104910000Y-115720952D01*
X104862380Y-115578095D01*
X104862380Y-115482857D01*
X104910000Y-115340000D01*
X104957619Y-115292380D01*
X105862380Y-114340000D02*
X105862380Y-114911428D01*
X105862380Y-114625714D02*
X104862380Y-114625714D01*
X105005238Y-114720952D01*
X105100476Y-114816190D01*
X105148095Y-114911428D01*
X105767142Y-122459047D02*
X105814761Y-122506666D01*
X105862380Y-122649523D01*
X105862380Y-122744761D01*
X105814761Y-122887619D01*
X105719523Y-122982857D01*
X105624285Y-123030476D01*
X105433809Y-123078095D01*
X105290952Y-123078095D01*
X105100476Y-123030476D01*
X105005238Y-122982857D01*
X104910000Y-122887619D01*
X104862380Y-122744761D01*
X104862380Y-122649523D01*
X104910000Y-122506666D01*
X104957619Y-122459047D01*
X105862380Y-122030476D02*
X104862380Y-122030476D01*
X104862380Y-121792380D01*
X104910000Y-121649523D01*
X105005238Y-121554285D01*
X105100476Y-121506666D01*
X105290952Y-121459047D01*
X105433809Y-121459047D01*
X105624285Y-121506666D01*
X105719523Y-121554285D01*
X105814761Y-121649523D01*
X105862380Y-121792380D01*
X105862380Y-122030476D01*
X105814761Y-121078095D02*
X105862380Y-120935238D01*
X105862380Y-120697142D01*
X105814761Y-120601904D01*
X105767142Y-120554285D01*
X105671904Y-120506666D01*
X105576666Y-120506666D01*
X105481428Y-120554285D01*
X105433809Y-120601904D01*
X105386190Y-120697142D01*
X105338571Y-120887619D01*
X105290952Y-120982857D01*
X105243333Y-121030476D01*
X105148095Y-121078095D01*
X105052857Y-121078095D01*
X104957619Y-121030476D01*
X104910000Y-120982857D01*
X104862380Y-120887619D01*
X104862380Y-120649523D01*
X104910000Y-120506666D01*
X104862380Y-119887619D02*
X104862380Y-119697142D01*
X104910000Y-119601904D01*
X105005238Y-119506666D01*
X105195714Y-119459047D01*
X105529047Y-119459047D01*
X105719523Y-119506666D01*
X105814761Y-119601904D01*
X105862380Y-119697142D01*
X105862380Y-119887619D01*
X105814761Y-119982857D01*
X105719523Y-120078095D01*
X105529047Y-120125714D01*
X105195714Y-120125714D01*
X105005238Y-120078095D01*
X104910000Y-119982857D01*
X104862380Y-119887619D01*
X104862380Y-119173333D02*
X104862380Y-118601904D01*
X105862380Y-118887619D02*
X104862380Y-118887619D01*
X104957619Y-118316190D02*
X104910000Y-118268571D01*
X104862380Y-118173333D01*
X104862380Y-117935238D01*
X104910000Y-117840000D01*
X104957619Y-117792380D01*
X105052857Y-117744761D01*
X105148095Y-117744761D01*
X105290952Y-117792380D01*
X105862380Y-118363809D01*
X105862380Y-117744761D01*
X104862380Y-117411428D02*
X104862380Y-116792380D01*
X105243333Y-117125714D01*
X105243333Y-116982857D01*
X105290952Y-116887619D01*
X105338571Y-116840000D01*
X105433809Y-116792380D01*
X105671904Y-116792380D01*
X105767142Y-116840000D01*
X105814761Y-116887619D01*
X105862380Y-116982857D01*
X105862380Y-117268571D01*
X105814761Y-117363809D01*
X105767142Y-117411428D01*
X105481428Y-116363809D02*
X105481428Y-115601904D01*
X105814761Y-115173333D02*
X105862380Y-115030476D01*
X105862380Y-114792380D01*
X105814761Y-114697142D01*
X105767142Y-114649523D01*
X105671904Y-114601904D01*
X105576666Y-114601904D01*
X105481428Y-114649523D01*
X105433809Y-114697142D01*
X105386190Y-114792380D01*
X105338571Y-114982857D01*
X105290952Y-115078095D01*
X105243333Y-115125714D01*
X105148095Y-115173333D01*
X105052857Y-115173333D01*
X104957619Y-115125714D01*
X104910000Y-115078095D01*
X104862380Y-114982857D01*
X104862380Y-114744761D01*
X104910000Y-114601904D01*
X105862380Y-114173333D02*
X104862380Y-114173333D01*
X105576666Y-113840000D01*
X104862380Y-113506666D01*
X105862380Y-113506666D01*
X104862380Y-113125714D02*
X104862380Y-112459047D01*
X105862380Y-112887619D01*
X105862380Y-111554285D02*
X105862380Y-112125714D01*
X105862380Y-111840000D02*
X104862380Y-111840000D01*
X105005238Y-111935238D01*
X105100476Y-112030476D01*
X105148095Y-112125714D01*
X104957619Y-111173333D02*
X104910000Y-111125714D01*
X104862380Y-111030476D01*
X104862380Y-110792380D01*
X104910000Y-110697142D01*
X104957619Y-110649523D01*
X105052857Y-110601904D01*
X105148095Y-110601904D01*
X105290952Y-110649523D01*
X105862380Y-111220952D01*
X105862380Y-110601904D01*
X104862380Y-116840000D02*
X105100476Y-116840000D01*
X105005238Y-117078095D02*
X105100476Y-116840000D01*
X105005238Y-116601904D01*
X105290952Y-116982857D02*
X105100476Y-116840000D01*
X105290952Y-116697142D01*
X178903333Y-62862380D02*
X178570000Y-62386190D01*
X178331904Y-62862380D02*
X178331904Y-61862380D01*
X178712857Y-61862380D01*
X178808095Y-61910000D01*
X178855714Y-61957619D01*
X178903333Y-62052857D01*
X178903333Y-62195714D01*
X178855714Y-62290952D01*
X178808095Y-62338571D01*
X178712857Y-62386190D01*
X178331904Y-62386190D01*
X179855714Y-62862380D02*
X179284285Y-62862380D01*
X179570000Y-62862380D02*
X179570000Y-61862380D01*
X179474761Y-62005238D01*
X179379523Y-62100476D01*
X179284285Y-62148095D01*
X178903333Y-70482380D02*
X178570000Y-70006190D01*
X178331904Y-70482380D02*
X178331904Y-69482380D01*
X178712857Y-69482380D01*
X178808095Y-69530000D01*
X178855714Y-69577619D01*
X178903333Y-69672857D01*
X178903333Y-69815714D01*
X178855714Y-69910952D01*
X178808095Y-69958571D01*
X178712857Y-70006190D01*
X178331904Y-70006190D01*
X179284285Y-69577619D02*
X179331904Y-69530000D01*
X179427142Y-69482380D01*
X179665238Y-69482380D01*
X179760476Y-69530000D01*
X179808095Y-69577619D01*
X179855714Y-69672857D01*
X179855714Y-69768095D01*
X179808095Y-69910952D01*
X179236666Y-70482380D01*
X179855714Y-70482380D01*
X178903333Y-76832380D02*
X178570000Y-76356190D01*
X178331904Y-76832380D02*
X178331904Y-75832380D01*
X178712857Y-75832380D01*
X178808095Y-75880000D01*
X178855714Y-75927619D01*
X178903333Y-76022857D01*
X178903333Y-76165714D01*
X178855714Y-76260952D01*
X178808095Y-76308571D01*
X178712857Y-76356190D01*
X178331904Y-76356190D01*
X179236666Y-75832380D02*
X179855714Y-75832380D01*
X179522380Y-76213333D01*
X179665238Y-76213333D01*
X179760476Y-76260952D01*
X179808095Y-76308571D01*
X179855714Y-76403809D01*
X179855714Y-76641904D01*
X179808095Y-76737142D01*
X179760476Y-76784761D01*
X179665238Y-76832380D01*
X179379523Y-76832380D01*
X179284285Y-76784761D01*
X179236666Y-76737142D01*
X178903333Y-84452380D02*
X178570000Y-83976190D01*
X178331904Y-84452380D02*
X178331904Y-83452380D01*
X178712857Y-83452380D01*
X178808095Y-83500000D01*
X178855714Y-83547619D01*
X178903333Y-83642857D01*
X178903333Y-83785714D01*
X178855714Y-83880952D01*
X178808095Y-83928571D01*
X178712857Y-83976190D01*
X178331904Y-83976190D01*
X179760476Y-83785714D02*
X179760476Y-84452380D01*
X179522380Y-83404761D02*
X179284285Y-84119047D01*
X179903333Y-84119047D01*
X178903333Y-92072380D02*
X178570000Y-91596190D01*
X178331904Y-92072380D02*
X178331904Y-91072380D01*
X178712857Y-91072380D01*
X178808095Y-91120000D01*
X178855714Y-91167619D01*
X178903333Y-91262857D01*
X178903333Y-91405714D01*
X178855714Y-91500952D01*
X178808095Y-91548571D01*
X178712857Y-91596190D01*
X178331904Y-91596190D01*
X179808095Y-91072380D02*
X179331904Y-91072380D01*
X179284285Y-91548571D01*
X179331904Y-91500952D01*
X179427142Y-91453333D01*
X179665238Y-91453333D01*
X179760476Y-91500952D01*
X179808095Y-91548571D01*
X179855714Y-91643809D01*
X179855714Y-91881904D01*
X179808095Y-91977142D01*
X179760476Y-92024761D01*
X179665238Y-92072380D01*
X179427142Y-92072380D01*
X179331904Y-92024761D01*
X179284285Y-91977142D01*
X178903333Y-24762380D02*
X178570000Y-24286190D01*
X178331904Y-24762380D02*
X178331904Y-23762380D01*
X178712857Y-23762380D01*
X178808095Y-23810000D01*
X178855714Y-23857619D01*
X178903333Y-23952857D01*
X178903333Y-24095714D01*
X178855714Y-24190952D01*
X178808095Y-24238571D01*
X178712857Y-24286190D01*
X178331904Y-24286190D01*
X179760476Y-23762380D02*
X179570000Y-23762380D01*
X179474761Y-23810000D01*
X179427142Y-23857619D01*
X179331904Y-24000476D01*
X179284285Y-24190952D01*
X179284285Y-24571904D01*
X179331904Y-24667142D01*
X179379523Y-24714761D01*
X179474761Y-24762380D01*
X179665238Y-24762380D01*
X179760476Y-24714761D01*
X179808095Y-24667142D01*
X179855714Y-24571904D01*
X179855714Y-24333809D01*
X179808095Y-24238571D01*
X179760476Y-24190952D01*
X179665238Y-24143333D01*
X179474761Y-24143333D01*
X179379523Y-24190952D01*
X179331904Y-24238571D01*
X179284285Y-24333809D01*
X178903333Y-32382380D02*
X178570000Y-31906190D01*
X178331904Y-32382380D02*
X178331904Y-31382380D01*
X178712857Y-31382380D01*
X178808095Y-31430000D01*
X178855714Y-31477619D01*
X178903333Y-31572857D01*
X178903333Y-31715714D01*
X178855714Y-31810952D01*
X178808095Y-31858571D01*
X178712857Y-31906190D01*
X178331904Y-31906190D01*
X179236666Y-31382380D02*
X179903333Y-31382380D01*
X179474761Y-32382380D01*
X178903333Y-40002380D02*
X178570000Y-39526190D01*
X178331904Y-40002380D02*
X178331904Y-39002380D01*
X178712857Y-39002380D01*
X178808095Y-39050000D01*
X178855714Y-39097619D01*
X178903333Y-39192857D01*
X178903333Y-39335714D01*
X178855714Y-39430952D01*
X178808095Y-39478571D01*
X178712857Y-39526190D01*
X178331904Y-39526190D01*
X179474761Y-39430952D02*
X179379523Y-39383333D01*
X179331904Y-39335714D01*
X179284285Y-39240476D01*
X179284285Y-39192857D01*
X179331904Y-39097619D01*
X179379523Y-39050000D01*
X179474761Y-39002380D01*
X179665238Y-39002380D01*
X179760476Y-39050000D01*
X179808095Y-39097619D01*
X179855714Y-39192857D01*
X179855714Y-39240476D01*
X179808095Y-39335714D01*
X179760476Y-39383333D01*
X179665238Y-39430952D01*
X179474761Y-39430952D01*
X179379523Y-39478571D01*
X179331904Y-39526190D01*
X179284285Y-39621428D01*
X179284285Y-39811904D01*
X179331904Y-39907142D01*
X179379523Y-39954761D01*
X179474761Y-40002380D01*
X179665238Y-40002380D01*
X179760476Y-39954761D01*
X179808095Y-39907142D01*
X179855714Y-39811904D01*
X179855714Y-39621428D01*
X179808095Y-39526190D01*
X179760476Y-39478571D01*
X179665238Y-39430952D01*
X178903333Y-47622380D02*
X178570000Y-47146190D01*
X178331904Y-47622380D02*
X178331904Y-46622380D01*
X178712857Y-46622380D01*
X178808095Y-46670000D01*
X178855714Y-46717619D01*
X178903333Y-46812857D01*
X178903333Y-46955714D01*
X178855714Y-47050952D01*
X178808095Y-47098571D01*
X178712857Y-47146190D01*
X178331904Y-47146190D01*
X179379523Y-47622380D02*
X179570000Y-47622380D01*
X179665238Y-47574761D01*
X179712857Y-47527142D01*
X179808095Y-47384285D01*
X179855714Y-47193809D01*
X179855714Y-46812857D01*
X179808095Y-46717619D01*
X179760476Y-46670000D01*
X179665238Y-46622380D01*
X179474761Y-46622380D01*
X179379523Y-46670000D01*
X179331904Y-46717619D01*
X179284285Y-46812857D01*
X179284285Y-47050952D01*
X179331904Y-47146190D01*
X179379523Y-47193809D01*
X179474761Y-47241428D01*
X179665238Y-47241428D01*
X179760476Y-47193809D01*
X179808095Y-47146190D01*
X179855714Y-47050952D01*
X178427142Y-55242380D02*
X178093809Y-54766190D01*
X177855714Y-55242380D02*
X177855714Y-54242380D01*
X178236666Y-54242380D01*
X178331904Y-54290000D01*
X178379523Y-54337619D01*
X178427142Y-54432857D01*
X178427142Y-54575714D01*
X178379523Y-54670952D01*
X178331904Y-54718571D01*
X178236666Y-54766190D01*
X177855714Y-54766190D01*
X179379523Y-55242380D02*
X178808095Y-55242380D01*
X179093809Y-55242380D02*
X179093809Y-54242380D01*
X178998571Y-54385238D01*
X178903333Y-54480476D01*
X178808095Y-54528095D01*
X179998571Y-54242380D02*
X180093809Y-54242380D01*
X180189047Y-54290000D01*
X180236666Y-54337619D01*
X180284285Y-54432857D01*
X180331904Y-54623333D01*
X180331904Y-54861428D01*
X180284285Y-55051904D01*
X180236666Y-55147142D01*
X180189047Y-55194761D01*
X180093809Y-55242380D01*
X179998571Y-55242380D01*
X179903333Y-55194761D01*
X179855714Y-55147142D01*
X179808095Y-55051904D01*
X179760476Y-54861428D01*
X179760476Y-54623333D01*
X179808095Y-54432857D01*
X179855714Y-54337619D01*
X179903333Y-54290000D01*
X179998571Y-54242380D01*
X132712380Y-51442857D02*
X132236190Y-51776190D01*
X132712380Y-52014285D02*
X131712380Y-52014285D01*
X131712380Y-51633333D01*
X131760000Y-51538095D01*
X131807619Y-51490476D01*
X131902857Y-51442857D01*
X132045714Y-51442857D01*
X132140952Y-51490476D01*
X132188571Y-51538095D01*
X132236190Y-51633333D01*
X132236190Y-52014285D01*
X132712380Y-50490476D02*
X132712380Y-51061904D01*
X132712380Y-50776190D02*
X131712380Y-50776190D01*
X131855238Y-50871428D01*
X131950476Y-50966666D01*
X131998095Y-51061904D01*
X132712380Y-49538095D02*
X132712380Y-50109523D01*
X132712380Y-49823809D02*
X131712380Y-49823809D01*
X131855238Y-49919047D01*
X131950476Y-50014285D01*
X131998095Y-50109523D01*
X140332380Y-51442857D02*
X139856190Y-51776190D01*
X140332380Y-52014285D02*
X139332380Y-52014285D01*
X139332380Y-51633333D01*
X139380000Y-51538095D01*
X139427619Y-51490476D01*
X139522857Y-51442857D01*
X139665714Y-51442857D01*
X139760952Y-51490476D01*
X139808571Y-51538095D01*
X139856190Y-51633333D01*
X139856190Y-52014285D01*
X140332380Y-50490476D02*
X140332380Y-51061904D01*
X140332380Y-50776190D02*
X139332380Y-50776190D01*
X139475238Y-50871428D01*
X139570476Y-50966666D01*
X139618095Y-51061904D01*
X139427619Y-50109523D02*
X139380000Y-50061904D01*
X139332380Y-49966666D01*
X139332380Y-49728571D01*
X139380000Y-49633333D01*
X139427619Y-49585714D01*
X139522857Y-49538095D01*
X139618095Y-49538095D01*
X139760952Y-49585714D01*
X140332380Y-50157142D01*
X140332380Y-49538095D01*
X147952380Y-51442857D02*
X147476190Y-51776190D01*
X147952380Y-52014285D02*
X146952380Y-52014285D01*
X146952380Y-51633333D01*
X147000000Y-51538095D01*
X147047619Y-51490476D01*
X147142857Y-51442857D01*
X147285714Y-51442857D01*
X147380952Y-51490476D01*
X147428571Y-51538095D01*
X147476190Y-51633333D01*
X147476190Y-52014285D01*
X147952380Y-50490476D02*
X147952380Y-51061904D01*
X147952380Y-50776190D02*
X146952380Y-50776190D01*
X147095238Y-50871428D01*
X147190476Y-50966666D01*
X147238095Y-51061904D01*
X146952380Y-50157142D02*
X146952380Y-49538095D01*
X147333333Y-49871428D01*
X147333333Y-49728571D01*
X147380952Y-49633333D01*
X147428571Y-49585714D01*
X147523809Y-49538095D01*
X147761904Y-49538095D01*
X147857142Y-49585714D01*
X147904761Y-49633333D01*
X147952380Y-49728571D01*
X147952380Y-50014285D01*
X147904761Y-50109523D01*
X147857142Y-50157142D01*
X155572380Y-51442857D02*
X155096190Y-51776190D01*
X155572380Y-52014285D02*
X154572380Y-52014285D01*
X154572380Y-51633333D01*
X154620000Y-51538095D01*
X154667619Y-51490476D01*
X154762857Y-51442857D01*
X154905714Y-51442857D01*
X155000952Y-51490476D01*
X155048571Y-51538095D01*
X155096190Y-51633333D01*
X155096190Y-52014285D01*
X155572380Y-50490476D02*
X155572380Y-51061904D01*
X155572380Y-50776190D02*
X154572380Y-50776190D01*
X154715238Y-50871428D01*
X154810476Y-50966666D01*
X154858095Y-51061904D01*
X154905714Y-49633333D02*
X155572380Y-49633333D01*
X154524761Y-49871428D02*
X155239047Y-50109523D01*
X155239047Y-49490476D01*
X163192380Y-51442857D02*
X162716190Y-51776190D01*
X163192380Y-52014285D02*
X162192380Y-52014285D01*
X162192380Y-51633333D01*
X162240000Y-51538095D01*
X162287619Y-51490476D01*
X162382857Y-51442857D01*
X162525714Y-51442857D01*
X162620952Y-51490476D01*
X162668571Y-51538095D01*
X162716190Y-51633333D01*
X162716190Y-52014285D01*
X163192380Y-50490476D02*
X163192380Y-51061904D01*
X163192380Y-50776190D02*
X162192380Y-50776190D01*
X162335238Y-50871428D01*
X162430476Y-50966666D01*
X162478095Y-51061904D01*
X162192380Y-49585714D02*
X162192380Y-50061904D01*
X162668571Y-50109523D01*
X162620952Y-50061904D01*
X162573333Y-49966666D01*
X162573333Y-49728571D01*
X162620952Y-49633333D01*
X162668571Y-49585714D01*
X162763809Y-49538095D01*
X163001904Y-49538095D01*
X163097142Y-49585714D01*
X163144761Y-49633333D01*
X163192380Y-49728571D01*
X163192380Y-49966666D01*
X163144761Y-50061904D01*
X163097142Y-50109523D01*
X159022380Y-142882857D02*
X158546190Y-143216190D01*
X159022380Y-143454285D02*
X158022380Y-143454285D01*
X158022380Y-143073333D01*
X158070000Y-142978095D01*
X158117619Y-142930476D01*
X158212857Y-142882857D01*
X158355714Y-142882857D01*
X158450952Y-142930476D01*
X158498571Y-142978095D01*
X158546190Y-143073333D01*
X158546190Y-143454285D01*
X159022380Y-141930476D02*
X159022380Y-142501904D01*
X159022380Y-142216190D02*
X158022380Y-142216190D01*
X158165238Y-142311428D01*
X158260476Y-142406666D01*
X158308095Y-142501904D01*
X158022380Y-141073333D02*
X158022380Y-141263809D01*
X158070000Y-141359047D01*
X158117619Y-141406666D01*
X158260476Y-141501904D01*
X158450952Y-141549523D01*
X158831904Y-141549523D01*
X158927142Y-141501904D01*
X158974761Y-141454285D01*
X159022380Y-141359047D01*
X159022380Y-141168571D01*
X158974761Y-141073333D01*
X158927142Y-141025714D01*
X158831904Y-140978095D01*
X158593809Y-140978095D01*
X158498571Y-141025714D01*
X158450952Y-141073333D01*
X158403333Y-141168571D01*
X158403333Y-141359047D01*
X158450952Y-141454285D01*
X158498571Y-141501904D01*
X158593809Y-141549523D01*
X151402380Y-142882857D02*
X150926190Y-143216190D01*
X151402380Y-143454285D02*
X150402380Y-143454285D01*
X150402380Y-143073333D01*
X150450000Y-142978095D01*
X150497619Y-142930476D01*
X150592857Y-142882857D01*
X150735714Y-142882857D01*
X150830952Y-142930476D01*
X150878571Y-142978095D01*
X150926190Y-143073333D01*
X150926190Y-143454285D01*
X151402380Y-141930476D02*
X151402380Y-142501904D01*
X151402380Y-142216190D02*
X150402380Y-142216190D01*
X150545238Y-142311428D01*
X150640476Y-142406666D01*
X150688095Y-142501904D01*
X150402380Y-141597142D02*
X150402380Y-140930476D01*
X151402380Y-141359047D01*
X143782380Y-142882857D02*
X143306190Y-143216190D01*
X143782380Y-143454285D02*
X142782380Y-143454285D01*
X142782380Y-143073333D01*
X142830000Y-142978095D01*
X142877619Y-142930476D01*
X142972857Y-142882857D01*
X143115714Y-142882857D01*
X143210952Y-142930476D01*
X143258571Y-142978095D01*
X143306190Y-143073333D01*
X143306190Y-143454285D01*
X143782380Y-141930476D02*
X143782380Y-142501904D01*
X143782380Y-142216190D02*
X142782380Y-142216190D01*
X142925238Y-142311428D01*
X143020476Y-142406666D01*
X143068095Y-142501904D01*
X143210952Y-141359047D02*
X143163333Y-141454285D01*
X143115714Y-141501904D01*
X143020476Y-141549523D01*
X142972857Y-141549523D01*
X142877619Y-141501904D01*
X142830000Y-141454285D01*
X142782380Y-141359047D01*
X142782380Y-141168571D01*
X142830000Y-141073333D01*
X142877619Y-141025714D01*
X142972857Y-140978095D01*
X143020476Y-140978095D01*
X143115714Y-141025714D01*
X143163333Y-141073333D01*
X143210952Y-141168571D01*
X143210952Y-141359047D01*
X143258571Y-141454285D01*
X143306190Y-141501904D01*
X143401428Y-141549523D01*
X143591904Y-141549523D01*
X143687142Y-141501904D01*
X143734761Y-141454285D01*
X143782380Y-141359047D01*
X143782380Y-141168571D01*
X143734761Y-141073333D01*
X143687142Y-141025714D01*
X143591904Y-140978095D01*
X143401428Y-140978095D01*
X143306190Y-141025714D01*
X143258571Y-141073333D01*
X143210952Y-141168571D01*
X136162380Y-142882857D02*
X135686190Y-143216190D01*
X136162380Y-143454285D02*
X135162380Y-143454285D01*
X135162380Y-143073333D01*
X135210000Y-142978095D01*
X135257619Y-142930476D01*
X135352857Y-142882857D01*
X135495714Y-142882857D01*
X135590952Y-142930476D01*
X135638571Y-142978095D01*
X135686190Y-143073333D01*
X135686190Y-143454285D01*
X136162380Y-141930476D02*
X136162380Y-142501904D01*
X136162380Y-142216190D02*
X135162380Y-142216190D01*
X135305238Y-142311428D01*
X135400476Y-142406666D01*
X135448095Y-142501904D01*
X136162380Y-141454285D02*
X136162380Y-141263809D01*
X136114761Y-141168571D01*
X136067142Y-141120952D01*
X135924285Y-141025714D01*
X135733809Y-140978095D01*
X135352857Y-140978095D01*
X135257619Y-141025714D01*
X135210000Y-141073333D01*
X135162380Y-141168571D01*
X135162380Y-141359047D01*
X135210000Y-141454285D01*
X135257619Y-141501904D01*
X135352857Y-141549523D01*
X135590952Y-141549523D01*
X135686190Y-141501904D01*
X135733809Y-141454285D01*
X135781428Y-141359047D01*
X135781428Y-141168571D01*
X135733809Y-141073333D01*
X135686190Y-141025714D01*
X135590952Y-140978095D01*
X128542380Y-142882857D02*
X128066190Y-143216190D01*
X128542380Y-143454285D02*
X127542380Y-143454285D01*
X127542380Y-143073333D01*
X127590000Y-142978095D01*
X127637619Y-142930476D01*
X127732857Y-142882857D01*
X127875714Y-142882857D01*
X127970952Y-142930476D01*
X128018571Y-142978095D01*
X128066190Y-143073333D01*
X128066190Y-143454285D01*
X127637619Y-142501904D02*
X127590000Y-142454285D01*
X127542380Y-142359047D01*
X127542380Y-142120952D01*
X127590000Y-142025714D01*
X127637619Y-141978095D01*
X127732857Y-141930476D01*
X127828095Y-141930476D01*
X127970952Y-141978095D01*
X128542380Y-142549523D01*
X128542380Y-141930476D01*
X127542380Y-141311428D02*
X127542380Y-141216190D01*
X127590000Y-141120952D01*
X127637619Y-141073333D01*
X127732857Y-141025714D01*
X127923333Y-140978095D01*
X128161428Y-140978095D01*
X128351904Y-141025714D01*
X128447142Y-141073333D01*
X128494761Y-141120952D01*
X128542380Y-141216190D01*
X128542380Y-141311428D01*
X128494761Y-141406666D01*
X128447142Y-141454285D01*
X128351904Y-141501904D01*
X128161428Y-141549523D01*
X127923333Y-141549523D01*
X127732857Y-141501904D01*
X127637619Y-141454285D01*
X127590000Y-141406666D01*
X127542380Y-141311428D01*
X178427142Y-135252380D02*
X178093809Y-134776190D01*
X177855714Y-135252380D02*
X177855714Y-134252380D01*
X178236666Y-134252380D01*
X178331904Y-134300000D01*
X178379523Y-134347619D01*
X178427142Y-134442857D01*
X178427142Y-134585714D01*
X178379523Y-134680952D01*
X178331904Y-134728571D01*
X178236666Y-134776190D01*
X177855714Y-134776190D01*
X178808095Y-134347619D02*
X178855714Y-134300000D01*
X178950952Y-134252380D01*
X179189047Y-134252380D01*
X179284285Y-134300000D01*
X179331904Y-134347619D01*
X179379523Y-134442857D01*
X179379523Y-134538095D01*
X179331904Y-134680952D01*
X178760476Y-135252380D01*
X179379523Y-135252380D01*
X180331904Y-135252380D02*
X179760476Y-135252380D01*
X180046190Y-135252380D02*
X180046190Y-134252380D01*
X179950952Y-134395238D01*
X179855714Y-134490476D01*
X179760476Y-134538095D01*
X178427142Y-142872380D02*
X178093809Y-142396190D01*
X177855714Y-142872380D02*
X177855714Y-141872380D01*
X178236666Y-141872380D01*
X178331904Y-141920000D01*
X178379523Y-141967619D01*
X178427142Y-142062857D01*
X178427142Y-142205714D01*
X178379523Y-142300952D01*
X178331904Y-142348571D01*
X178236666Y-142396190D01*
X177855714Y-142396190D01*
X178808095Y-141967619D02*
X178855714Y-141920000D01*
X178950952Y-141872380D01*
X179189047Y-141872380D01*
X179284285Y-141920000D01*
X179331904Y-141967619D01*
X179379523Y-142062857D01*
X179379523Y-142158095D01*
X179331904Y-142300952D01*
X178760476Y-142872380D01*
X179379523Y-142872380D01*
X179760476Y-141967619D02*
X179808095Y-141920000D01*
X179903333Y-141872380D01*
X180141428Y-141872380D01*
X180236666Y-141920000D01*
X180284285Y-141967619D01*
X180331904Y-142062857D01*
X180331904Y-142158095D01*
X180284285Y-142300952D01*
X179712857Y-142872380D01*
X180331904Y-142872380D01*
X178427142Y-150492380D02*
X178093809Y-150016190D01*
X177855714Y-150492380D02*
X177855714Y-149492380D01*
X178236666Y-149492380D01*
X178331904Y-149540000D01*
X178379523Y-149587619D01*
X178427142Y-149682857D01*
X178427142Y-149825714D01*
X178379523Y-149920952D01*
X178331904Y-149968571D01*
X178236666Y-150016190D01*
X177855714Y-150016190D01*
X178808095Y-149587619D02*
X178855714Y-149540000D01*
X178950952Y-149492380D01*
X179189047Y-149492380D01*
X179284285Y-149540000D01*
X179331904Y-149587619D01*
X179379523Y-149682857D01*
X179379523Y-149778095D01*
X179331904Y-149920952D01*
X178760476Y-150492380D01*
X179379523Y-150492380D01*
X179712857Y-149492380D02*
X180331904Y-149492380D01*
X179998571Y-149873333D01*
X180141428Y-149873333D01*
X180236666Y-149920952D01*
X180284285Y-149968571D01*
X180331904Y-150063809D01*
X180331904Y-150301904D01*
X180284285Y-150397142D01*
X180236666Y-150444761D01*
X180141428Y-150492380D01*
X179855714Y-150492380D01*
X179760476Y-150444761D01*
X179712857Y-150397142D01*
X178427142Y-158112380D02*
X178093809Y-157636190D01*
X177855714Y-158112380D02*
X177855714Y-157112380D01*
X178236666Y-157112380D01*
X178331904Y-157160000D01*
X178379523Y-157207619D01*
X178427142Y-157302857D01*
X178427142Y-157445714D01*
X178379523Y-157540952D01*
X178331904Y-157588571D01*
X178236666Y-157636190D01*
X177855714Y-157636190D01*
X178808095Y-157207619D02*
X178855714Y-157160000D01*
X178950952Y-157112380D01*
X179189047Y-157112380D01*
X179284285Y-157160000D01*
X179331904Y-157207619D01*
X179379523Y-157302857D01*
X179379523Y-157398095D01*
X179331904Y-157540952D01*
X178760476Y-158112380D01*
X179379523Y-158112380D01*
X180236666Y-157445714D02*
X180236666Y-158112380D01*
X179998571Y-157064761D02*
X179760476Y-157779047D01*
X180379523Y-157779047D01*
X178427142Y-165732380D02*
X178093809Y-165256190D01*
X177855714Y-165732380D02*
X177855714Y-164732380D01*
X178236666Y-164732380D01*
X178331904Y-164780000D01*
X178379523Y-164827619D01*
X178427142Y-164922857D01*
X178427142Y-165065714D01*
X178379523Y-165160952D01*
X178331904Y-165208571D01*
X178236666Y-165256190D01*
X177855714Y-165256190D01*
X178808095Y-164827619D02*
X178855714Y-164780000D01*
X178950952Y-164732380D01*
X179189047Y-164732380D01*
X179284285Y-164780000D01*
X179331904Y-164827619D01*
X179379523Y-164922857D01*
X179379523Y-165018095D01*
X179331904Y-165160952D01*
X178760476Y-165732380D01*
X179379523Y-165732380D01*
X180284285Y-164732380D02*
X179808095Y-164732380D01*
X179760476Y-165208571D01*
X179808095Y-165160952D01*
X179903333Y-165113333D01*
X180141428Y-165113333D01*
X180236666Y-165160952D01*
X180284285Y-165208571D01*
X180331904Y-165303809D01*
X180331904Y-165541904D01*
X180284285Y-165637142D01*
X180236666Y-165684761D01*
X180141428Y-165732380D01*
X179903333Y-165732380D01*
X179808095Y-165684761D01*
X179760476Y-165637142D01*
X95522380Y-128912857D02*
X95046190Y-129246190D01*
X95522380Y-129484285D02*
X94522380Y-129484285D01*
X94522380Y-129103333D01*
X94570000Y-129008095D01*
X94617619Y-128960476D01*
X94712857Y-128912857D01*
X94855714Y-128912857D01*
X94950952Y-128960476D01*
X94998571Y-129008095D01*
X95046190Y-129103333D01*
X95046190Y-129484285D01*
X94617619Y-128531904D02*
X94570000Y-128484285D01*
X94522380Y-128389047D01*
X94522380Y-128150952D01*
X94570000Y-128055714D01*
X94617619Y-128008095D01*
X94712857Y-127960476D01*
X94808095Y-127960476D01*
X94950952Y-128008095D01*
X95522380Y-128579523D01*
X95522380Y-127960476D01*
X94522380Y-127103333D02*
X94522380Y-127293809D01*
X94570000Y-127389047D01*
X94617619Y-127436666D01*
X94760476Y-127531904D01*
X94950952Y-127579523D01*
X95331904Y-127579523D01*
X95427142Y-127531904D01*
X95474761Y-127484285D01*
X95522380Y-127389047D01*
X95522380Y-127198571D01*
X95474761Y-127103333D01*
X95427142Y-127055714D01*
X95331904Y-127008095D01*
X95093809Y-127008095D01*
X94998571Y-127055714D01*
X94950952Y-127103333D01*
X94903333Y-127198571D01*
X94903333Y-127389047D01*
X94950952Y-127484285D01*
X94998571Y-127531904D01*
X95093809Y-127579523D01*
X89172380Y-126372857D02*
X88696190Y-126706190D01*
X89172380Y-126944285D02*
X88172380Y-126944285D01*
X88172380Y-126563333D01*
X88220000Y-126468095D01*
X88267619Y-126420476D01*
X88362857Y-126372857D01*
X88505714Y-126372857D01*
X88600952Y-126420476D01*
X88648571Y-126468095D01*
X88696190Y-126563333D01*
X88696190Y-126944285D01*
X88267619Y-125991904D02*
X88220000Y-125944285D01*
X88172380Y-125849047D01*
X88172380Y-125610952D01*
X88220000Y-125515714D01*
X88267619Y-125468095D01*
X88362857Y-125420476D01*
X88458095Y-125420476D01*
X88600952Y-125468095D01*
X89172380Y-126039523D01*
X89172380Y-125420476D01*
X88172380Y-125087142D02*
X88172380Y-124420476D01*
X89172380Y-124849047D01*
X97877380Y-146582380D02*
X97544047Y-146106190D01*
X97305952Y-146582380D02*
X97305952Y-145582380D01*
X97686904Y-145582380D01*
X97782142Y-145630000D01*
X97829761Y-145677619D01*
X97877380Y-145772857D01*
X97877380Y-145915714D01*
X97829761Y-146010952D01*
X97782142Y-146058571D01*
X97686904Y-146106190D01*
X97305952Y-146106190D01*
X98591666Y-145582380D02*
X98591666Y-146296666D01*
X98544047Y-146439523D01*
X98448809Y-146534761D01*
X98305952Y-146582380D01*
X98210714Y-146582380D01*
X99258333Y-145582380D02*
X99353571Y-145582380D01*
X99448809Y-145630000D01*
X99496428Y-145677619D01*
X99544047Y-145772857D01*
X99591666Y-145963333D01*
X99591666Y-146201428D01*
X99544047Y-146391904D01*
X99496428Y-146487142D01*
X99448809Y-146534761D01*
X99353571Y-146582380D01*
X99258333Y-146582380D01*
X99163095Y-146534761D01*
X99115476Y-146487142D01*
X99067857Y-146391904D01*
X99020238Y-146201428D01*
X99020238Y-145963333D01*
X99067857Y-145772857D01*
X99115476Y-145677619D01*
X99163095Y-145630000D01*
X99258333Y-145582380D01*
X114387380Y-146582380D02*
X114054047Y-146106190D01*
X113815952Y-146582380D02*
X113815952Y-145582380D01*
X114196904Y-145582380D01*
X114292142Y-145630000D01*
X114339761Y-145677619D01*
X114387380Y-145772857D01*
X114387380Y-145915714D01*
X114339761Y-146010952D01*
X114292142Y-146058571D01*
X114196904Y-146106190D01*
X113815952Y-146106190D01*
X115101666Y-145582380D02*
X115101666Y-146296666D01*
X115054047Y-146439523D01*
X114958809Y-146534761D01*
X114815952Y-146582380D01*
X114720714Y-146582380D01*
X116101666Y-146582380D02*
X115530238Y-146582380D01*
X115815952Y-146582380D02*
X115815952Y-145582380D01*
X115720714Y-145725238D01*
X115625476Y-145820476D01*
X115530238Y-145868095D01*
X118562380Y-120324285D02*
X118086190Y-120657619D01*
X118562380Y-120895714D02*
X117562380Y-120895714D01*
X117562380Y-120514761D01*
X117610000Y-120419523D01*
X117657619Y-120371904D01*
X117752857Y-120324285D01*
X117895714Y-120324285D01*
X117990952Y-120371904D01*
X118038571Y-120419523D01*
X118086190Y-120514761D01*
X118086190Y-120895714D01*
X118514761Y-119943333D02*
X118562380Y-119800476D01*
X118562380Y-119562380D01*
X118514761Y-119467142D01*
X118467142Y-119419523D01*
X118371904Y-119371904D01*
X118276666Y-119371904D01*
X118181428Y-119419523D01*
X118133809Y-119467142D01*
X118086190Y-119562380D01*
X118038571Y-119752857D01*
X117990952Y-119848095D01*
X117943333Y-119895714D01*
X117848095Y-119943333D01*
X117752857Y-119943333D01*
X117657619Y-119895714D01*
X117610000Y-119848095D01*
X117562380Y-119752857D01*
X117562380Y-119514761D01*
X117610000Y-119371904D01*
X118181428Y-118943333D02*
X118181428Y-118181428D01*
X117895714Y-117276666D02*
X118562380Y-117276666D01*
X117514761Y-117514761D02*
X118229047Y-117752857D01*
X118229047Y-117133809D01*
X117990952Y-116610000D02*
X117943333Y-116705238D01*
X117895714Y-116752857D01*
X117800476Y-116800476D01*
X117752857Y-116800476D01*
X117657619Y-116752857D01*
X117610000Y-116705238D01*
X117562380Y-116610000D01*
X117562380Y-116419523D01*
X117610000Y-116324285D01*
X117657619Y-116276666D01*
X117752857Y-116229047D01*
X117800476Y-116229047D01*
X117895714Y-116276666D01*
X117943333Y-116324285D01*
X117990952Y-116419523D01*
X117990952Y-116610000D01*
X118038571Y-116705238D01*
X118086190Y-116752857D01*
X118181428Y-116800476D01*
X118371904Y-116800476D01*
X118467142Y-116752857D01*
X118514761Y-116705238D01*
X118562380Y-116610000D01*
X118562380Y-116419523D01*
X118514761Y-116324285D01*
X118467142Y-116276666D01*
X118371904Y-116229047D01*
X118181428Y-116229047D01*
X118086190Y-116276666D01*
X118038571Y-116324285D01*
X117990952Y-116419523D01*
X117562380Y-115324285D02*
X117562380Y-115800476D01*
X118038571Y-115848095D01*
X117990952Y-115800476D01*
X117943333Y-115705238D01*
X117943333Y-115467142D01*
X117990952Y-115371904D01*
X118038571Y-115324285D01*
X118133809Y-115276666D01*
X118371904Y-115276666D01*
X118467142Y-115324285D01*
X118514761Y-115371904D01*
X118562380Y-115467142D01*
X118562380Y-115705238D01*
X118514761Y-115800476D01*
X118467142Y-115848095D01*
X118514761Y-123276666D02*
X118562380Y-123133809D01*
X118562380Y-122895714D01*
X118514761Y-122800476D01*
X118467142Y-122752857D01*
X118371904Y-122705238D01*
X118276666Y-122705238D01*
X118181428Y-122752857D01*
X118133809Y-122800476D01*
X118086190Y-122895714D01*
X118038571Y-123086190D01*
X117990952Y-123181428D01*
X117943333Y-123229047D01*
X117848095Y-123276666D01*
X117752857Y-123276666D01*
X117657619Y-123229047D01*
X117610000Y-123181428D01*
X117562380Y-123086190D01*
X117562380Y-122848095D01*
X117610000Y-122705238D01*
X118562380Y-122276666D02*
X117562380Y-122276666D01*
X118562380Y-121705238D01*
X117562380Y-121705238D01*
X117562380Y-120800476D02*
X117562380Y-120990952D01*
X117610000Y-121086190D01*
X117657619Y-121133809D01*
X117800476Y-121229047D01*
X117990952Y-121276666D01*
X118371904Y-121276666D01*
X118467142Y-121229047D01*
X118514761Y-121181428D01*
X118562380Y-121086190D01*
X118562380Y-120895714D01*
X118514761Y-120800476D01*
X118467142Y-120752857D01*
X118371904Y-120705238D01*
X118133809Y-120705238D01*
X118038571Y-120752857D01*
X117990952Y-120800476D01*
X117943333Y-120895714D01*
X117943333Y-121086190D01*
X117990952Y-121181428D01*
X118038571Y-121229047D01*
X118133809Y-121276666D01*
X117562380Y-119800476D02*
X117562380Y-120276666D01*
X118038571Y-120324285D01*
X117990952Y-120276666D01*
X117943333Y-120181428D01*
X117943333Y-119943333D01*
X117990952Y-119848095D01*
X118038571Y-119800476D01*
X118133809Y-119752857D01*
X118371904Y-119752857D01*
X118467142Y-119800476D01*
X118514761Y-119848095D01*
X118562380Y-119943333D01*
X118562380Y-120181428D01*
X118514761Y-120276666D01*
X118467142Y-120324285D01*
X118562380Y-119324285D02*
X117562380Y-119324285D01*
X118038571Y-119324285D02*
X118038571Y-118752857D01*
X118562380Y-118752857D02*
X117562380Y-118752857D01*
X117562380Y-118419523D02*
X118562380Y-118086190D01*
X117562380Y-117752857D01*
X118562380Y-117419523D02*
X117562380Y-117419523D01*
X117562380Y-117181428D01*
X117610000Y-117038571D01*
X117705238Y-116943333D01*
X117800476Y-116895714D01*
X117990952Y-116848095D01*
X118133809Y-116848095D01*
X118324285Y-116895714D01*
X118419523Y-116943333D01*
X118514761Y-117038571D01*
X118562380Y-117181428D01*
X118562380Y-117419523D01*
X117562380Y-116514761D02*
X117562380Y-115848095D01*
X118562380Y-116276666D01*
X117657619Y-115514761D02*
X117610000Y-115467142D01*
X117562380Y-115371904D01*
X117562380Y-115133809D01*
X117610000Y-115038571D01*
X117657619Y-114990952D01*
X117752857Y-114943333D01*
X117848095Y-114943333D01*
X117990952Y-114990952D01*
X118562380Y-115562380D01*
X118562380Y-114943333D01*
X118562380Y-114514761D02*
X117562380Y-114514761D01*
X117562380Y-114276666D01*
X117610000Y-114133809D01*
X117705238Y-114038571D01*
X117800476Y-113990952D01*
X117990952Y-113943333D01*
X118133809Y-113943333D01*
X118324285Y-113990952D01*
X118419523Y-114038571D01*
X118514761Y-114133809D01*
X118562380Y-114276666D01*
X118562380Y-114514761D01*
X118562380Y-112943333D02*
X118086190Y-113276666D01*
X118562380Y-113514761D02*
X117562380Y-113514761D01*
X117562380Y-113133809D01*
X117610000Y-113038571D01*
X117657619Y-112990952D01*
X117752857Y-112943333D01*
X117895714Y-112943333D01*
X117990952Y-112990952D01*
X118038571Y-113038571D01*
X118086190Y-113133809D01*
X118086190Y-113514761D01*
X121178380Y-115134650D02*
X121416476Y-115134650D01*
X121321238Y-115372745D02*
X121416476Y-115134650D01*
X121321238Y-114896554D01*
X121606952Y-115277507D02*
X121416476Y-115134650D01*
X121606952Y-114991792D01*
X121178380Y-115134650D02*
X121416476Y-115134650D01*
X121321238Y-115372745D02*
X121416476Y-115134650D01*
X121321238Y-114896554D01*
X121606952Y-115277507D02*
X121416476Y-115134650D01*
X121606952Y-114991792D01*
M02*
