G04 #@! TF.GenerationSoftware,KiCad,Pcbnew,(5.1.5)-3*
G04 #@! TF.CreationDate,2020-03-05T22:20:16-05:00*
G04 #@! TF.ProjectId,input board,696e7075-7420-4626-9f61-72642e6b6963,rev?*
G04 #@! TF.SameCoordinates,Original*
G04 #@! TF.FileFunction,Copper,L2,Bot*
G04 #@! TF.FilePolarity,Positive*
%FSLAX46Y46*%
G04 Gerber Fmt 4.6, Leading zero omitted, Abs format (unit mm)*
G04 Created by KiCad (PCBNEW (5.1.5)-3) date 2020-03-05 22:20:16*
%MOMM*%
%LPD*%
G04 APERTURE LIST*
%ADD10C,0.050000*%
%ADD11O,1.600000X1.600000*%
%ADD12C,1.600000*%
%ADD13O,1.700000X1.700000*%
%ADD14R,1.700000X1.700000*%
%ADD15C,1.800000*%
%ADD16R,1.800000X1.800000*%
%ADD17O,2.000000X2.000000*%
%ADD18R,2.000000X2.000000*%
%ADD19R,1.600000X1.600000*%
%ADD20R,1.200000X1.200000*%
%ADD21C,1.200000*%
%ADD22C,1.500000*%
%ADD23R,1.500000X1.500000*%
%ADD24C,0.800000*%
%ADD25C,0.750000*%
%ADD26C,0.254000*%
G04 APERTURE END LIST*
D10*
X62230000Y-17780000D02*
X186690000Y-17780000D01*
X62230000Y-166370000D02*
X62230000Y-17780000D01*
X186690000Y-166370000D02*
X62230000Y-166370000D01*
X186690000Y-17780000D02*
X186690000Y-166370000D01*
D11*
X97790000Y-29210000D03*
D12*
X77470000Y-29210000D03*
D11*
X88900000Y-88900000D03*
D12*
X68580000Y-88900000D03*
D11*
X88900000Y-102870000D03*
D12*
X68580000Y-102870000D03*
D11*
X88900000Y-72390000D03*
D12*
X68580000Y-72390000D03*
D11*
X88900000Y-55880000D03*
D12*
X68580000Y-55880000D03*
D11*
X88900000Y-41910000D03*
D12*
X68580000Y-41910000D03*
D13*
X64770000Y-96520000D03*
X64770000Y-93980000D03*
X64770000Y-91440000D03*
X64770000Y-88900000D03*
D14*
X64770000Y-86360000D03*
D13*
X64770000Y-113030000D03*
X64770000Y-110490000D03*
X64770000Y-107950000D03*
X64770000Y-105410000D03*
D14*
X64770000Y-102870000D03*
D13*
X64770000Y-80010000D03*
X64770000Y-77470000D03*
X64770000Y-74930000D03*
X64770000Y-72390000D03*
D14*
X64770000Y-69850000D03*
D13*
X64770000Y-63500000D03*
X64770000Y-60960000D03*
X64770000Y-58420000D03*
X64770000Y-55880000D03*
D14*
X64770000Y-53340000D03*
D13*
X64770000Y-46990000D03*
X64770000Y-44450000D03*
X64770000Y-41910000D03*
X64770000Y-39370000D03*
D14*
X64770000Y-36830000D03*
D13*
X184150000Y-129540000D03*
X184150000Y-127000000D03*
X184150000Y-124460000D03*
X184150000Y-121920000D03*
D14*
X184150000Y-119380000D03*
D13*
X137160000Y-162560000D03*
X139700000Y-162560000D03*
X142240000Y-162560000D03*
X144780000Y-162560000D03*
D14*
X147320000Y-162560000D03*
D13*
X154940000Y-20320000D03*
X152400000Y-20320000D03*
X149860000Y-20320000D03*
X147320000Y-20320000D03*
D14*
X144780000Y-20320000D03*
D13*
X184150000Y-66040000D03*
X184150000Y-63500000D03*
X184150000Y-60960000D03*
X184150000Y-58420000D03*
D14*
X184150000Y-55880000D03*
D13*
X184150000Y-97790000D03*
X184150000Y-95250000D03*
X184150000Y-92710000D03*
X184150000Y-90170000D03*
D14*
X184150000Y-87630000D03*
D15*
X77470000Y-22860000D03*
D16*
X74930000Y-22860000D03*
D17*
X161290000Y-137160000D03*
D18*
X173990000Y-137160000D03*
D17*
X161290000Y-130810000D03*
D18*
X173990000Y-130810000D03*
D17*
X161290000Y-124460000D03*
D18*
X173990000Y-124460000D03*
D17*
X161290000Y-118110000D03*
D18*
X173990000Y-118110000D03*
D17*
X161290000Y-111760000D03*
D18*
X173990000Y-111760000D03*
D17*
X129540000Y-139700000D03*
D18*
X129540000Y-152400000D03*
D17*
X135890000Y-139700000D03*
D18*
X135890000Y-152400000D03*
D17*
X142240000Y-139700000D03*
D18*
X142240000Y-152400000D03*
D17*
X148590000Y-139700000D03*
D18*
X148590000Y-152400000D03*
D17*
X154940000Y-139700000D03*
D18*
X154940000Y-152400000D03*
D17*
X162560000Y-43180000D03*
D18*
X162560000Y-30480000D03*
D17*
X156210000Y-43180000D03*
D18*
X156210000Y-30480000D03*
D17*
X149860000Y-43180000D03*
D18*
X149860000Y-30480000D03*
D17*
X143510000Y-43180000D03*
D18*
X143510000Y-30480000D03*
D17*
X137160000Y-43180000D03*
D18*
X137160000Y-30480000D03*
D17*
X161290000Y-73660000D03*
D18*
X173990000Y-73660000D03*
D17*
X161290000Y-67310000D03*
D18*
X173990000Y-67310000D03*
D17*
X161290000Y-60960000D03*
D18*
X173990000Y-60960000D03*
D17*
X161290000Y-54610000D03*
D18*
X173990000Y-54610000D03*
D17*
X161290000Y-48260000D03*
D18*
X173990000Y-48260000D03*
D17*
X161290000Y-105410000D03*
D18*
X173990000Y-105410000D03*
D17*
X161290000Y-99060000D03*
D18*
X173990000Y-99060000D03*
D17*
X161290000Y-92710000D03*
D18*
X173990000Y-92710000D03*
D17*
X161290000Y-86360000D03*
D18*
X173990000Y-86360000D03*
D17*
X161290000Y-80010000D03*
D18*
X173990000Y-80010000D03*
D13*
X125730000Y-21590000D03*
D14*
X128270000Y-21590000D03*
D13*
X100330000Y-21590000D03*
X97790000Y-21590000D03*
X95250000Y-21590000D03*
X92710000Y-21590000D03*
X90170000Y-21590000D03*
D14*
X87630000Y-21590000D03*
D19*
X132080000Y-80010000D03*
D12*
X134580000Y-80010000D03*
D20*
X124460000Y-120650000D03*
D21*
X126460000Y-120650000D03*
D14*
X134620000Y-120650000D03*
X111760000Y-21590000D03*
D13*
X114300000Y-21590000D03*
X116840000Y-21590000D03*
X119380000Y-21590000D03*
D14*
X105410000Y-64770000D03*
D13*
X105410000Y-67310000D03*
X105410000Y-69850000D03*
X105410000Y-72390000D03*
X105410000Y-74930000D03*
X105410000Y-77470000D03*
X105410000Y-80010000D03*
X105410000Y-82550000D03*
X105410000Y-85090000D03*
X105410000Y-87630000D03*
X105410000Y-90170000D03*
X105410000Y-92710000D03*
X105410000Y-95250000D03*
X105410000Y-97790000D03*
X105410000Y-100330000D03*
X105410000Y-102870000D03*
D14*
X125730000Y-74930000D03*
D13*
X125730000Y-77470000D03*
X125730000Y-80010000D03*
X125730000Y-82550000D03*
X125730000Y-85090000D03*
X125730000Y-87630000D03*
X125730000Y-90170000D03*
X125730000Y-92710000D03*
X125730000Y-95250000D03*
X125730000Y-97790000D03*
X125730000Y-100330000D03*
X125730000Y-102870000D03*
D12*
X97790000Y-138430000D03*
D11*
X97790000Y-118110000D03*
X91440000Y-115570000D03*
D12*
X91440000Y-135890000D03*
D22*
X102870000Y-148590000D03*
X101600000Y-151130000D03*
X100330000Y-148590000D03*
X99060000Y-151130000D03*
X97790000Y-148590000D03*
X96520000Y-151130000D03*
X95250000Y-148590000D03*
D23*
X93980000Y-151130000D03*
X110490000Y-151130000D03*
D22*
X111760000Y-148590000D03*
X113030000Y-151130000D03*
X114300000Y-148590000D03*
X115570000Y-151130000D03*
X116840000Y-148590000D03*
X118110000Y-151130000D03*
X119380000Y-148590000D03*
D24*
X114118652Y-120831348D03*
X100330000Y-63500000D03*
X107950000Y-36830000D03*
X115570000Y-101600000D03*
D25*
X132080000Y-80010000D02*
X125730000Y-80010000D01*
X125730000Y-21590000D02*
X125730000Y-63500000D01*
X132080000Y-69850000D02*
X132080000Y-80010000D01*
X125730000Y-63500000D02*
X132080000Y-69850000D01*
X134620000Y-122250000D02*
X131140000Y-125730000D01*
X134620000Y-120650000D02*
X134620000Y-122250000D01*
X114118652Y-120831348D02*
X114118652Y-121738652D01*
X118110000Y-125730000D02*
X131140000Y-125730000D01*
X114118652Y-121738652D02*
X118110000Y-125730000D01*
X130691472Y-125730000D02*
X131140000Y-125730000D01*
X126460000Y-121498528D02*
X130691472Y-125730000D01*
X126460000Y-120650000D02*
X126460000Y-121498528D01*
X100330000Y-63500000D02*
X100330000Y-63500000D01*
X124460000Y-113030000D02*
X124460000Y-120650000D01*
X120650000Y-109220000D02*
X124460000Y-113030000D01*
X105410000Y-109220000D02*
X120650000Y-109220000D01*
X100330000Y-104140000D02*
X105410000Y-109220000D01*
X100330000Y-63500000D02*
X100330000Y-87630000D01*
X88900000Y-41910000D02*
X88900000Y-55880000D01*
X88900000Y-55880000D02*
X92710000Y-55880000D01*
X92710000Y-55880000D02*
X100330000Y-63500000D01*
X91440000Y-72390000D02*
X100330000Y-63500000D01*
X88900000Y-72390000D02*
X91440000Y-72390000D01*
X88900000Y-88900000D02*
X100330000Y-88900000D01*
X100330000Y-87630000D02*
X100330000Y-88900000D01*
X88900000Y-102870000D02*
X100330000Y-102870000D01*
X100330000Y-88900000D02*
X100330000Y-102870000D01*
X100330000Y-102870000D02*
X100330000Y-104140000D01*
X143510000Y-107950000D02*
X125730000Y-90170000D01*
X133350000Y-133350000D02*
X143510000Y-123190000D01*
X96520000Y-107950000D02*
X101600000Y-113030000D01*
X143510000Y-123190000D02*
X143510000Y-107950000D01*
X64770000Y-107950000D02*
X96520000Y-107950000D01*
X101600000Y-113030000D02*
X101600000Y-123190000D01*
X101600000Y-123190000D02*
X111760000Y-133350000D01*
X111760000Y-133350000D02*
X133350000Y-133350000D01*
X111760000Y-86360000D02*
X105410000Y-92710000D01*
X111760000Y-21590000D02*
X111760000Y-86360000D01*
X106259999Y-94400001D02*
X105410000Y-95250000D01*
X114300000Y-86360000D02*
X106259999Y-94400001D01*
X114300000Y-21590000D02*
X114300000Y-86360000D01*
X101600000Y-86360000D02*
X105410000Y-90170000D01*
X101600000Y-86360000D02*
X101600000Y-43180000D01*
X101600000Y-43180000D02*
X107950000Y-36830000D01*
X119380000Y-86360000D02*
X119380000Y-21590000D01*
X125730000Y-92710000D02*
X119380000Y-86360000D01*
X109220000Y-101600000D02*
X105410000Y-97790000D01*
X115570000Y-101600000D02*
X109220000Y-101600000D01*
X97790000Y-138430000D02*
X97790000Y-148590000D01*
X113550001Y-147840001D02*
X114300000Y-148590000D01*
X99165001Y-147214999D02*
X112924999Y-147214999D01*
X112924999Y-147214999D02*
X113550001Y-147840001D01*
X97790000Y-148590000D02*
X99165001Y-147214999D01*
D26*
G36*
X140843000Y-103854645D02*
G01*
X127215000Y-90226645D01*
X127215000Y-90023740D01*
X127157932Y-89736842D01*
X127045990Y-89466589D01*
X126883475Y-89223368D01*
X126676632Y-89016525D01*
X126502240Y-88900000D01*
X126676632Y-88783475D01*
X126883475Y-88576632D01*
X127045990Y-88333411D01*
X127157932Y-88063158D01*
X127215000Y-87776260D01*
X127215000Y-87483740D01*
X127157932Y-87196842D01*
X127045990Y-86926589D01*
X126883475Y-86683368D01*
X126676632Y-86476525D01*
X126502240Y-86360000D01*
X126676632Y-86243475D01*
X126883475Y-86036632D01*
X127045990Y-85793411D01*
X127157932Y-85523158D01*
X127215000Y-85236260D01*
X127215000Y-84943740D01*
X127157932Y-84656842D01*
X127045990Y-84386589D01*
X126883475Y-84143368D01*
X126676632Y-83936525D01*
X126502240Y-83820000D01*
X126676632Y-83703475D01*
X126883475Y-83496632D01*
X127045990Y-83253411D01*
X127157932Y-82983158D01*
X127215000Y-82696260D01*
X127215000Y-82403740D01*
X127157932Y-82116842D01*
X127045990Y-81846589D01*
X126883475Y-81603368D01*
X126676632Y-81396525D01*
X126502240Y-81280000D01*
X126676632Y-81163475D01*
X126820107Y-81020000D01*
X130680130Y-81020000D01*
X130690498Y-81054180D01*
X130749463Y-81164494D01*
X130828815Y-81261185D01*
X130925506Y-81340537D01*
X131035820Y-81399502D01*
X131155518Y-81435812D01*
X131280000Y-81448072D01*
X132880000Y-81448072D01*
X133004482Y-81435812D01*
X133124180Y-81399502D01*
X133234494Y-81340537D01*
X133331185Y-81261185D01*
X133410537Y-81164494D01*
X133469502Y-81054180D01*
X133485117Y-81002702D01*
X133766903Y-81002702D01*
X133838486Y-81246671D01*
X134093996Y-81367571D01*
X134368184Y-81436300D01*
X134650512Y-81450217D01*
X134930130Y-81408787D01*
X135196292Y-81313603D01*
X135321514Y-81246671D01*
X135393097Y-81002702D01*
X134580000Y-80189605D01*
X133766903Y-81002702D01*
X133485117Y-81002702D01*
X133505812Y-80934482D01*
X133518072Y-80810000D01*
X133518072Y-80802785D01*
X133587298Y-80823097D01*
X134400395Y-80010000D01*
X134759605Y-80010000D01*
X135572702Y-80823097D01*
X135816671Y-80751514D01*
X135937571Y-80496004D01*
X136006300Y-80221816D01*
X136020217Y-79939488D01*
X135978787Y-79659870D01*
X135883603Y-79393708D01*
X135816671Y-79268486D01*
X135572702Y-79196903D01*
X134759605Y-80010000D01*
X134400395Y-80010000D01*
X133587298Y-79196903D01*
X133518072Y-79217215D01*
X133518072Y-79210000D01*
X133505812Y-79085518D01*
X133485118Y-79017298D01*
X133766903Y-79017298D01*
X134580000Y-79830395D01*
X135393097Y-79017298D01*
X135321514Y-78773329D01*
X135066004Y-78652429D01*
X134791816Y-78583700D01*
X134509488Y-78569783D01*
X134229870Y-78611213D01*
X133963708Y-78706397D01*
X133838486Y-78773329D01*
X133766903Y-79017298D01*
X133485118Y-79017298D01*
X133469502Y-78965820D01*
X133410537Y-78855506D01*
X133331185Y-78758815D01*
X133234494Y-78679463D01*
X133124180Y-78620498D01*
X133090000Y-78610130D01*
X133090000Y-69899604D01*
X133094886Y-69849999D01*
X133080480Y-69703740D01*
X133075385Y-69652006D01*
X133017632Y-69461620D01*
X132923847Y-69286160D01*
X132797633Y-69132367D01*
X132759094Y-69100739D01*
X126740000Y-63081645D01*
X126740000Y-43018967D01*
X135525000Y-43018967D01*
X135525000Y-43341033D01*
X135587832Y-43656912D01*
X135711082Y-43954463D01*
X135890013Y-44222252D01*
X136117748Y-44449987D01*
X136385537Y-44628918D01*
X136683088Y-44752168D01*
X136998967Y-44815000D01*
X137321033Y-44815000D01*
X137636912Y-44752168D01*
X137934463Y-44628918D01*
X138202252Y-44449987D01*
X138429987Y-44222252D01*
X138608918Y-43954463D01*
X138732168Y-43656912D01*
X138795000Y-43341033D01*
X138795000Y-43018967D01*
X138732168Y-42703088D01*
X138608918Y-42405537D01*
X138429987Y-42137748D01*
X138202252Y-41910013D01*
X137934463Y-41731082D01*
X137636912Y-41607832D01*
X137321033Y-41545000D01*
X136998967Y-41545000D01*
X136683088Y-41607832D01*
X136385537Y-41731082D01*
X136117748Y-41910013D01*
X135890013Y-42137748D01*
X135711082Y-42405537D01*
X135587832Y-42703088D01*
X135525000Y-43018967D01*
X126740000Y-43018967D01*
X126740000Y-29480000D01*
X135521928Y-29480000D01*
X135521928Y-31480000D01*
X135534188Y-31604482D01*
X135570498Y-31724180D01*
X135629463Y-31834494D01*
X135708815Y-31931185D01*
X135805506Y-32010537D01*
X135915820Y-32069502D01*
X136035518Y-32105812D01*
X136160000Y-32118072D01*
X138160000Y-32118072D01*
X138284482Y-32105812D01*
X138404180Y-32069502D01*
X138514494Y-32010537D01*
X138611185Y-31931185D01*
X138690537Y-31834494D01*
X138749502Y-31724180D01*
X138785812Y-31604482D01*
X138798072Y-31480000D01*
X138798072Y-29480000D01*
X138785812Y-29355518D01*
X138749502Y-29235820D01*
X138690537Y-29125506D01*
X138611185Y-29028815D01*
X138514494Y-28949463D01*
X138404180Y-28890498D01*
X138284482Y-28854188D01*
X138160000Y-28841928D01*
X136160000Y-28841928D01*
X136035518Y-28854188D01*
X135915820Y-28890498D01*
X135805506Y-28949463D01*
X135708815Y-29028815D01*
X135629463Y-29125506D01*
X135570498Y-29235820D01*
X135534188Y-29355518D01*
X135521928Y-29480000D01*
X126740000Y-29480000D01*
X126740000Y-22680107D01*
X126808487Y-22611620D01*
X126830498Y-22684180D01*
X126889463Y-22794494D01*
X126968815Y-22891185D01*
X127065506Y-22970537D01*
X127175820Y-23029502D01*
X127295518Y-23065812D01*
X127420000Y-23078072D01*
X127984250Y-23075000D01*
X128143000Y-22916250D01*
X128143000Y-21717000D01*
X128397000Y-21717000D01*
X128397000Y-22916250D01*
X128555750Y-23075000D01*
X129120000Y-23078072D01*
X129244482Y-23065812D01*
X129364180Y-23029502D01*
X129474494Y-22970537D01*
X129571185Y-22891185D01*
X129650537Y-22794494D01*
X129709502Y-22684180D01*
X129745812Y-22564482D01*
X129758072Y-22440000D01*
X129755000Y-21875750D01*
X129596250Y-21717000D01*
X128397000Y-21717000D01*
X128143000Y-21717000D01*
X128123000Y-21717000D01*
X128123000Y-21463000D01*
X128143000Y-21463000D01*
X128143000Y-20263750D01*
X128397000Y-20263750D01*
X128397000Y-21463000D01*
X129596250Y-21463000D01*
X129755000Y-21304250D01*
X129758072Y-20740000D01*
X129745812Y-20615518D01*
X129709502Y-20495820D01*
X129650537Y-20385506D01*
X129571185Y-20288815D01*
X129474494Y-20209463D01*
X129364180Y-20150498D01*
X129244482Y-20114188D01*
X129120000Y-20101928D01*
X128555750Y-20105000D01*
X128397000Y-20263750D01*
X128143000Y-20263750D01*
X127984250Y-20105000D01*
X127420000Y-20101928D01*
X127295518Y-20114188D01*
X127175820Y-20150498D01*
X127065506Y-20209463D01*
X126968815Y-20288815D01*
X126889463Y-20385506D01*
X126830498Y-20495820D01*
X126808487Y-20568380D01*
X126676632Y-20436525D01*
X126433411Y-20274010D01*
X126163158Y-20162068D01*
X125876260Y-20105000D01*
X125583740Y-20105000D01*
X125296842Y-20162068D01*
X125026589Y-20274010D01*
X124783368Y-20436525D01*
X124576525Y-20643368D01*
X124414010Y-20886589D01*
X124302068Y-21156842D01*
X124245000Y-21443740D01*
X124245000Y-21736260D01*
X124302068Y-22023158D01*
X124414010Y-22293411D01*
X124576525Y-22536632D01*
X124720000Y-22680107D01*
X124720001Y-63450382D01*
X124715114Y-63500000D01*
X124734615Y-63697994D01*
X124792368Y-63888379D01*
X124886154Y-64063840D01*
X124964885Y-64159774D01*
X125012368Y-64217633D01*
X125050900Y-64249255D01*
X131070000Y-70268355D01*
X131070001Y-78610129D01*
X131035820Y-78620498D01*
X130925506Y-78679463D01*
X130828815Y-78758815D01*
X130749463Y-78855506D01*
X130690498Y-78965820D01*
X130680130Y-79000000D01*
X126820107Y-79000000D01*
X126676632Y-78856525D01*
X126502240Y-78740000D01*
X126676632Y-78623475D01*
X126883475Y-78416632D01*
X127045990Y-78173411D01*
X127157932Y-77903158D01*
X127215000Y-77616260D01*
X127215000Y-77323740D01*
X127157932Y-77036842D01*
X127045990Y-76766589D01*
X126883475Y-76523368D01*
X126751620Y-76391513D01*
X126824180Y-76369502D01*
X126934494Y-76310537D01*
X127031185Y-76231185D01*
X127110537Y-76134494D01*
X127169502Y-76024180D01*
X127205812Y-75904482D01*
X127218072Y-75780000D01*
X127218072Y-74080000D01*
X127205812Y-73955518D01*
X127169502Y-73835820D01*
X127110537Y-73725506D01*
X127031185Y-73628815D01*
X126934494Y-73549463D01*
X126824180Y-73490498D01*
X126704482Y-73454188D01*
X126580000Y-73441928D01*
X124880000Y-73441928D01*
X124755518Y-73454188D01*
X124635820Y-73490498D01*
X124525506Y-73549463D01*
X124428815Y-73628815D01*
X124349463Y-73725506D01*
X124290498Y-73835820D01*
X124254188Y-73955518D01*
X124241928Y-74080000D01*
X124241928Y-75780000D01*
X124254188Y-75904482D01*
X124290498Y-76024180D01*
X124349463Y-76134494D01*
X124428815Y-76231185D01*
X124525506Y-76310537D01*
X124635820Y-76369502D01*
X124708380Y-76391513D01*
X124576525Y-76523368D01*
X124414010Y-76766589D01*
X124302068Y-77036842D01*
X124245000Y-77323740D01*
X124245000Y-77616260D01*
X124302068Y-77903158D01*
X124414010Y-78173411D01*
X124576525Y-78416632D01*
X124783368Y-78623475D01*
X124957760Y-78740000D01*
X124783368Y-78856525D01*
X124576525Y-79063368D01*
X124414010Y-79306589D01*
X124302068Y-79576842D01*
X124245000Y-79863740D01*
X124245000Y-80156260D01*
X124302068Y-80443158D01*
X124414010Y-80713411D01*
X124576525Y-80956632D01*
X124783368Y-81163475D01*
X124957760Y-81280000D01*
X124783368Y-81396525D01*
X124576525Y-81603368D01*
X124414010Y-81846589D01*
X124302068Y-82116842D01*
X124245000Y-82403740D01*
X124245000Y-82696260D01*
X124302068Y-82983158D01*
X124414010Y-83253411D01*
X124576525Y-83496632D01*
X124783368Y-83703475D01*
X124957760Y-83820000D01*
X124783368Y-83936525D01*
X124576525Y-84143368D01*
X124414010Y-84386589D01*
X124302068Y-84656842D01*
X124245000Y-84943740D01*
X124245000Y-85236260D01*
X124302068Y-85523158D01*
X124414010Y-85793411D01*
X124576525Y-86036632D01*
X124783368Y-86243475D01*
X124957760Y-86360000D01*
X124783368Y-86476525D01*
X124576525Y-86683368D01*
X124414010Y-86926589D01*
X124302068Y-87196842D01*
X124245000Y-87483740D01*
X124245000Y-87776260D01*
X124302068Y-88063158D01*
X124414010Y-88333411D01*
X124576525Y-88576632D01*
X124783368Y-88783475D01*
X124957760Y-88900000D01*
X124783368Y-89016525D01*
X124576525Y-89223368D01*
X124414010Y-89466589D01*
X124302068Y-89736842D01*
X124282678Y-89834323D01*
X120390000Y-85941645D01*
X120390000Y-22680107D01*
X120533475Y-22536632D01*
X120695990Y-22293411D01*
X120807932Y-22023158D01*
X120865000Y-21736260D01*
X120865000Y-21443740D01*
X120807932Y-21156842D01*
X120695990Y-20886589D01*
X120533475Y-20643368D01*
X120326632Y-20436525D01*
X120083411Y-20274010D01*
X119813158Y-20162068D01*
X119526260Y-20105000D01*
X119233740Y-20105000D01*
X118946842Y-20162068D01*
X118676589Y-20274010D01*
X118433368Y-20436525D01*
X118226525Y-20643368D01*
X118110000Y-20817760D01*
X117993475Y-20643368D01*
X117786632Y-20436525D01*
X117543411Y-20274010D01*
X117273158Y-20162068D01*
X116986260Y-20105000D01*
X116693740Y-20105000D01*
X116406842Y-20162068D01*
X116136589Y-20274010D01*
X115893368Y-20436525D01*
X115686525Y-20643368D01*
X115570000Y-20817760D01*
X115453475Y-20643368D01*
X115246632Y-20436525D01*
X115003411Y-20274010D01*
X114733158Y-20162068D01*
X114446260Y-20105000D01*
X114153740Y-20105000D01*
X113866842Y-20162068D01*
X113596589Y-20274010D01*
X113353368Y-20436525D01*
X113221513Y-20568380D01*
X113199502Y-20495820D01*
X113140537Y-20385506D01*
X113061185Y-20288815D01*
X112964494Y-20209463D01*
X112854180Y-20150498D01*
X112734482Y-20114188D01*
X112610000Y-20101928D01*
X110910000Y-20101928D01*
X110785518Y-20114188D01*
X110665820Y-20150498D01*
X110555506Y-20209463D01*
X110458815Y-20288815D01*
X110379463Y-20385506D01*
X110320498Y-20495820D01*
X110284188Y-20615518D01*
X110271928Y-20740000D01*
X110271928Y-22440000D01*
X110284188Y-22564482D01*
X110320498Y-22684180D01*
X110379463Y-22794494D01*
X110458815Y-22891185D01*
X110555506Y-22970537D01*
X110665820Y-23029502D01*
X110750000Y-23055038D01*
X110750001Y-85941644D01*
X106857322Y-89834323D01*
X106837932Y-89736842D01*
X106725990Y-89466589D01*
X106563475Y-89223368D01*
X106356632Y-89016525D01*
X106182240Y-88900000D01*
X106356632Y-88783475D01*
X106563475Y-88576632D01*
X106725990Y-88333411D01*
X106837932Y-88063158D01*
X106895000Y-87776260D01*
X106895000Y-87483740D01*
X106837932Y-87196842D01*
X106725990Y-86926589D01*
X106563475Y-86683368D01*
X106356632Y-86476525D01*
X106182240Y-86360000D01*
X106356632Y-86243475D01*
X106563475Y-86036632D01*
X106725990Y-85793411D01*
X106837932Y-85523158D01*
X106895000Y-85236260D01*
X106895000Y-84943740D01*
X106837932Y-84656842D01*
X106725990Y-84386589D01*
X106563475Y-84143368D01*
X106356632Y-83936525D01*
X106182240Y-83820000D01*
X106356632Y-83703475D01*
X106563475Y-83496632D01*
X106725990Y-83253411D01*
X106837932Y-82983158D01*
X106895000Y-82696260D01*
X106895000Y-82403740D01*
X106837932Y-82116842D01*
X106725990Y-81846589D01*
X106563475Y-81603368D01*
X106356632Y-81396525D01*
X106182240Y-81280000D01*
X106356632Y-81163475D01*
X106563475Y-80956632D01*
X106725990Y-80713411D01*
X106837932Y-80443158D01*
X106895000Y-80156260D01*
X106895000Y-79863740D01*
X106837932Y-79576842D01*
X106725990Y-79306589D01*
X106563475Y-79063368D01*
X106356632Y-78856525D01*
X106182240Y-78740000D01*
X106356632Y-78623475D01*
X106563475Y-78416632D01*
X106725990Y-78173411D01*
X106837932Y-77903158D01*
X106895000Y-77616260D01*
X106895000Y-77323740D01*
X106837932Y-77036842D01*
X106725990Y-76766589D01*
X106563475Y-76523368D01*
X106356632Y-76316525D01*
X106182240Y-76200000D01*
X106356632Y-76083475D01*
X106563475Y-75876632D01*
X106725990Y-75633411D01*
X106837932Y-75363158D01*
X106895000Y-75076260D01*
X106895000Y-74783740D01*
X106837932Y-74496842D01*
X106725990Y-74226589D01*
X106563475Y-73983368D01*
X106356632Y-73776525D01*
X106174466Y-73654805D01*
X106291355Y-73585178D01*
X106507588Y-73390269D01*
X106681641Y-73156920D01*
X106806825Y-72894099D01*
X106851476Y-72746890D01*
X106730155Y-72517000D01*
X105537000Y-72517000D01*
X105537000Y-72537000D01*
X105283000Y-72537000D01*
X105283000Y-72517000D01*
X104089845Y-72517000D01*
X103968524Y-72746890D01*
X104013175Y-72894099D01*
X104138359Y-73156920D01*
X104312412Y-73390269D01*
X104528645Y-73585178D01*
X104645534Y-73654805D01*
X104463368Y-73776525D01*
X104256525Y-73983368D01*
X104094010Y-74226589D01*
X103982068Y-74496842D01*
X103925000Y-74783740D01*
X103925000Y-75076260D01*
X103982068Y-75363158D01*
X104094010Y-75633411D01*
X104256525Y-75876632D01*
X104463368Y-76083475D01*
X104637760Y-76200000D01*
X104463368Y-76316525D01*
X104256525Y-76523368D01*
X104094010Y-76766589D01*
X103982068Y-77036842D01*
X103925000Y-77323740D01*
X103925000Y-77616260D01*
X103982068Y-77903158D01*
X104094010Y-78173411D01*
X104256525Y-78416632D01*
X104463368Y-78623475D01*
X104637760Y-78740000D01*
X104463368Y-78856525D01*
X104256525Y-79063368D01*
X104094010Y-79306589D01*
X103982068Y-79576842D01*
X103925000Y-79863740D01*
X103925000Y-80156260D01*
X103982068Y-80443158D01*
X104094010Y-80713411D01*
X104256525Y-80956632D01*
X104463368Y-81163475D01*
X104637760Y-81280000D01*
X104463368Y-81396525D01*
X104256525Y-81603368D01*
X104094010Y-81846589D01*
X103982068Y-82116842D01*
X103925000Y-82403740D01*
X103925000Y-82696260D01*
X103982068Y-82983158D01*
X104094010Y-83253411D01*
X104256525Y-83496632D01*
X104463368Y-83703475D01*
X104637760Y-83820000D01*
X104463368Y-83936525D01*
X104256525Y-84143368D01*
X104094010Y-84386589D01*
X103982068Y-84656842D01*
X103925000Y-84943740D01*
X103925000Y-85236260D01*
X103982068Y-85523158D01*
X104094010Y-85793411D01*
X104256525Y-86036632D01*
X104463368Y-86243475D01*
X104637760Y-86360000D01*
X104463368Y-86476525D01*
X104256525Y-86683368D01*
X104094010Y-86926589D01*
X103982068Y-87196842D01*
X103962678Y-87294322D01*
X102610000Y-85941645D01*
X102610000Y-63920000D01*
X103921928Y-63920000D01*
X103921928Y-65620000D01*
X103934188Y-65744482D01*
X103970498Y-65864180D01*
X104029463Y-65974494D01*
X104108815Y-66071185D01*
X104205506Y-66150537D01*
X104315820Y-66209502D01*
X104388380Y-66231513D01*
X104256525Y-66363368D01*
X104094010Y-66606589D01*
X103982068Y-66876842D01*
X103925000Y-67163740D01*
X103925000Y-67456260D01*
X103982068Y-67743158D01*
X104094010Y-68013411D01*
X104256525Y-68256632D01*
X104463368Y-68463475D01*
X104637760Y-68580000D01*
X104463368Y-68696525D01*
X104256525Y-68903368D01*
X104094010Y-69146589D01*
X103982068Y-69416842D01*
X103925000Y-69703740D01*
X103925000Y-69996260D01*
X103982068Y-70283158D01*
X104094010Y-70553411D01*
X104256525Y-70796632D01*
X104463368Y-71003475D01*
X104645534Y-71125195D01*
X104528645Y-71194822D01*
X104312412Y-71389731D01*
X104138359Y-71623080D01*
X104013175Y-71885901D01*
X103968524Y-72033110D01*
X104089845Y-72263000D01*
X105283000Y-72263000D01*
X105283000Y-72243000D01*
X105537000Y-72243000D01*
X105537000Y-72263000D01*
X106730155Y-72263000D01*
X106851476Y-72033110D01*
X106806825Y-71885901D01*
X106681641Y-71623080D01*
X106507588Y-71389731D01*
X106291355Y-71194822D01*
X106174466Y-71125195D01*
X106356632Y-71003475D01*
X106563475Y-70796632D01*
X106725990Y-70553411D01*
X106837932Y-70283158D01*
X106895000Y-69996260D01*
X106895000Y-69703740D01*
X106837932Y-69416842D01*
X106725990Y-69146589D01*
X106563475Y-68903368D01*
X106356632Y-68696525D01*
X106182240Y-68580000D01*
X106356632Y-68463475D01*
X106563475Y-68256632D01*
X106725990Y-68013411D01*
X106837932Y-67743158D01*
X106895000Y-67456260D01*
X106895000Y-67163740D01*
X106837932Y-66876842D01*
X106725990Y-66606589D01*
X106563475Y-66363368D01*
X106431620Y-66231513D01*
X106504180Y-66209502D01*
X106614494Y-66150537D01*
X106711185Y-66071185D01*
X106790537Y-65974494D01*
X106849502Y-65864180D01*
X106885812Y-65744482D01*
X106898072Y-65620000D01*
X106898072Y-63920000D01*
X106885812Y-63795518D01*
X106849502Y-63675820D01*
X106790537Y-63565506D01*
X106711185Y-63468815D01*
X106614494Y-63389463D01*
X106504180Y-63330498D01*
X106384482Y-63294188D01*
X106260000Y-63281928D01*
X104560000Y-63281928D01*
X104435518Y-63294188D01*
X104315820Y-63330498D01*
X104205506Y-63389463D01*
X104108815Y-63468815D01*
X104029463Y-63565506D01*
X103970498Y-63675820D01*
X103934188Y-63795518D01*
X103921928Y-63920000D01*
X102610000Y-63920000D01*
X102610000Y-43598355D01*
X108503223Y-37705132D01*
X108609774Y-37633937D01*
X108753937Y-37489774D01*
X108867205Y-37320256D01*
X108945226Y-37131898D01*
X108985000Y-36931939D01*
X108985000Y-36728061D01*
X108945226Y-36528102D01*
X108867205Y-36339744D01*
X108753937Y-36170226D01*
X108609774Y-36026063D01*
X108440256Y-35912795D01*
X108251898Y-35834774D01*
X108051939Y-35795000D01*
X107848061Y-35795000D01*
X107648102Y-35834774D01*
X107459744Y-35912795D01*
X107290226Y-36026063D01*
X107146063Y-36170226D01*
X107074868Y-36276777D01*
X100920901Y-42430744D01*
X100882368Y-42462367D01*
X100850745Y-42500900D01*
X100850744Y-42500901D01*
X100756154Y-42616160D01*
X100662368Y-42791621D01*
X100604615Y-42982006D01*
X100585114Y-43180000D01*
X100590001Y-43229618D01*
X100590001Y-62331646D01*
X93459261Y-55200906D01*
X93427633Y-55162367D01*
X93273840Y-55036153D01*
X93098380Y-54942368D01*
X92907994Y-54884615D01*
X92759608Y-54870000D01*
X92710000Y-54865114D01*
X92660392Y-54870000D01*
X89919396Y-54870000D01*
X89910000Y-54860604D01*
X89910000Y-42929396D01*
X90014637Y-42824759D01*
X90171680Y-42589727D01*
X90279853Y-42328574D01*
X90335000Y-42051335D01*
X90335000Y-41768665D01*
X90279853Y-41491426D01*
X90171680Y-41230273D01*
X90014637Y-40995241D01*
X89814759Y-40795363D01*
X89579727Y-40638320D01*
X89318574Y-40530147D01*
X89041335Y-40475000D01*
X88758665Y-40475000D01*
X88481426Y-40530147D01*
X88220273Y-40638320D01*
X87985241Y-40795363D01*
X87785363Y-40995241D01*
X87628320Y-41230273D01*
X87520147Y-41491426D01*
X87465000Y-41768665D01*
X87465000Y-42051335D01*
X87520147Y-42328574D01*
X87628320Y-42589727D01*
X87785363Y-42824759D01*
X87890000Y-42929396D01*
X87890001Y-54860603D01*
X87785363Y-54965241D01*
X87628320Y-55200273D01*
X87520147Y-55461426D01*
X87465000Y-55738665D01*
X87465000Y-56021335D01*
X87520147Y-56298574D01*
X87628320Y-56559727D01*
X87785363Y-56794759D01*
X87985241Y-56994637D01*
X88220273Y-57151680D01*
X88481426Y-57259853D01*
X88758665Y-57315000D01*
X89041335Y-57315000D01*
X89318574Y-57259853D01*
X89579727Y-57151680D01*
X89814759Y-56994637D01*
X89919396Y-56890000D01*
X92291645Y-56890000D01*
X98901645Y-63500000D01*
X91021645Y-71380000D01*
X89919396Y-71380000D01*
X89814759Y-71275363D01*
X89579727Y-71118320D01*
X89318574Y-71010147D01*
X89041335Y-70955000D01*
X88758665Y-70955000D01*
X88481426Y-71010147D01*
X88220273Y-71118320D01*
X87985241Y-71275363D01*
X87785363Y-71475241D01*
X87628320Y-71710273D01*
X87520147Y-71971426D01*
X87465000Y-72248665D01*
X87465000Y-72531335D01*
X87520147Y-72808574D01*
X87628320Y-73069727D01*
X87785363Y-73304759D01*
X87985241Y-73504637D01*
X88220273Y-73661680D01*
X88481426Y-73769853D01*
X88758665Y-73825000D01*
X89041335Y-73825000D01*
X89318574Y-73769853D01*
X89579727Y-73661680D01*
X89814759Y-73504637D01*
X89919396Y-73400000D01*
X91390392Y-73400000D01*
X91440000Y-73404886D01*
X91637994Y-73385385D01*
X91828380Y-73327632D01*
X92003840Y-73233847D01*
X92157633Y-73107633D01*
X92189261Y-73069094D01*
X99320000Y-65938356D01*
X99320001Y-87580383D01*
X99320000Y-87580393D01*
X99320000Y-87890000D01*
X89919396Y-87890000D01*
X89814759Y-87785363D01*
X89579727Y-87628320D01*
X89318574Y-87520147D01*
X89041335Y-87465000D01*
X88758665Y-87465000D01*
X88481426Y-87520147D01*
X88220273Y-87628320D01*
X87985241Y-87785363D01*
X87785363Y-87985241D01*
X87628320Y-88220273D01*
X87520147Y-88481426D01*
X87465000Y-88758665D01*
X87465000Y-89041335D01*
X87520147Y-89318574D01*
X87628320Y-89579727D01*
X87785363Y-89814759D01*
X87985241Y-90014637D01*
X88220273Y-90171680D01*
X88481426Y-90279853D01*
X88758665Y-90335000D01*
X89041335Y-90335000D01*
X89318574Y-90279853D01*
X89579727Y-90171680D01*
X89814759Y-90014637D01*
X89919396Y-89910000D01*
X99320000Y-89910000D01*
X99320001Y-101860000D01*
X89919396Y-101860000D01*
X89814759Y-101755363D01*
X89579727Y-101598320D01*
X89318574Y-101490147D01*
X89041335Y-101435000D01*
X88758665Y-101435000D01*
X88481426Y-101490147D01*
X88220273Y-101598320D01*
X87985241Y-101755363D01*
X87785363Y-101955241D01*
X87628320Y-102190273D01*
X87520147Y-102451426D01*
X87465000Y-102728665D01*
X87465000Y-103011335D01*
X87520147Y-103288574D01*
X87628320Y-103549727D01*
X87785363Y-103784759D01*
X87985241Y-103984637D01*
X88220273Y-104141680D01*
X88481426Y-104249853D01*
X88758665Y-104305000D01*
X89041335Y-104305000D01*
X89318574Y-104249853D01*
X89579727Y-104141680D01*
X89814759Y-103984637D01*
X89919396Y-103880000D01*
X99320001Y-103880000D01*
X99320001Y-104090383D01*
X99315114Y-104140000D01*
X99334615Y-104337994D01*
X99392368Y-104528379D01*
X99392369Y-104528380D01*
X99486154Y-104703840D01*
X99612368Y-104857633D01*
X99650901Y-104889256D01*
X104660743Y-109899099D01*
X104692367Y-109937633D01*
X104846160Y-110063847D01*
X105021620Y-110157632D01*
X105212005Y-110215385D01*
X105410000Y-110234886D01*
X105459608Y-110230000D01*
X120231645Y-110230000D01*
X123450000Y-113448356D01*
X123450001Y-119565015D01*
X123408815Y-119598815D01*
X123329463Y-119695506D01*
X123270498Y-119805820D01*
X123234188Y-119925518D01*
X123221928Y-120050000D01*
X123221928Y-121250000D01*
X123234188Y-121374482D01*
X123270498Y-121494180D01*
X123329463Y-121604494D01*
X123408815Y-121701185D01*
X123505506Y-121780537D01*
X123615820Y-121839502D01*
X123735518Y-121875812D01*
X123860000Y-121888072D01*
X125060000Y-121888072D01*
X125184482Y-121875812D01*
X125304180Y-121839502D01*
X125414494Y-121780537D01*
X125511185Y-121701185D01*
X125590537Y-121604494D01*
X125614858Y-121558994D01*
X125672736Y-121616872D01*
X125789842Y-121499766D01*
X125837148Y-121723348D01*
X126058516Y-121824237D01*
X126295313Y-121880000D01*
X126538438Y-121888495D01*
X126778549Y-121849395D01*
X127006418Y-121764202D01*
X127082852Y-121723348D01*
X127130109Y-121500000D01*
X133131928Y-121500000D01*
X133144188Y-121624482D01*
X133180498Y-121744180D01*
X133239463Y-121854494D01*
X133318815Y-121951185D01*
X133415506Y-122030537D01*
X133525820Y-122089502D01*
X133645518Y-122125812D01*
X133770000Y-122138072D01*
X134334250Y-122135000D01*
X134493000Y-121976250D01*
X134493000Y-120777000D01*
X134747000Y-120777000D01*
X134747000Y-121976250D01*
X134905750Y-122135000D01*
X135470000Y-122138072D01*
X135594482Y-122125812D01*
X135714180Y-122089502D01*
X135824494Y-122030537D01*
X135921185Y-121951185D01*
X136000537Y-121854494D01*
X136059502Y-121744180D01*
X136095812Y-121624482D01*
X136108072Y-121500000D01*
X136105000Y-120935750D01*
X135946250Y-120777000D01*
X134747000Y-120777000D01*
X134493000Y-120777000D01*
X133293750Y-120777000D01*
X133135000Y-120935750D01*
X133131928Y-121500000D01*
X127130109Y-121500000D01*
X127130159Y-121499764D01*
X126460000Y-120829605D01*
X126445858Y-120843748D01*
X126266253Y-120664143D01*
X126280395Y-120650000D01*
X126639605Y-120650000D01*
X127309764Y-121320159D01*
X127533348Y-121272852D01*
X127634237Y-121051484D01*
X127690000Y-120814687D01*
X127698495Y-120571562D01*
X127659395Y-120331451D01*
X127574202Y-120103582D01*
X127533348Y-120027148D01*
X127309764Y-119979841D01*
X126639605Y-120650000D01*
X126280395Y-120650000D01*
X126266253Y-120635858D01*
X126445858Y-120456253D01*
X126460000Y-120470395D01*
X127130159Y-119800236D01*
X127130110Y-119800000D01*
X133131928Y-119800000D01*
X133135000Y-120364250D01*
X133293750Y-120523000D01*
X134493000Y-120523000D01*
X134493000Y-119323750D01*
X134747000Y-119323750D01*
X134747000Y-120523000D01*
X135946250Y-120523000D01*
X136105000Y-120364250D01*
X136108072Y-119800000D01*
X136095812Y-119675518D01*
X136059502Y-119555820D01*
X136000537Y-119445506D01*
X135921185Y-119348815D01*
X135824494Y-119269463D01*
X135714180Y-119210498D01*
X135594482Y-119174188D01*
X135470000Y-119161928D01*
X134905750Y-119165000D01*
X134747000Y-119323750D01*
X134493000Y-119323750D01*
X134334250Y-119165000D01*
X133770000Y-119161928D01*
X133645518Y-119174188D01*
X133525820Y-119210498D01*
X133415506Y-119269463D01*
X133318815Y-119348815D01*
X133239463Y-119445506D01*
X133180498Y-119555820D01*
X133144188Y-119675518D01*
X133131928Y-119800000D01*
X127130110Y-119800000D01*
X127082852Y-119576652D01*
X126861484Y-119475763D01*
X126624687Y-119420000D01*
X126381562Y-119411505D01*
X126141451Y-119450605D01*
X125913582Y-119535798D01*
X125837148Y-119576652D01*
X125789842Y-119800234D01*
X125672736Y-119683128D01*
X125614858Y-119741006D01*
X125590537Y-119695506D01*
X125511185Y-119598815D01*
X125470000Y-119565015D01*
X125470000Y-113079608D01*
X125474886Y-113030000D01*
X125455385Y-112832005D01*
X125397632Y-112641620D01*
X125303846Y-112466159D01*
X125209256Y-112350900D01*
X125177633Y-112312367D01*
X125139100Y-112280744D01*
X121399261Y-108540906D01*
X121367633Y-108502367D01*
X121213840Y-108376153D01*
X121038380Y-108282368D01*
X120847994Y-108224615D01*
X120699608Y-108210000D01*
X120650000Y-108205114D01*
X120600392Y-108210000D01*
X105828356Y-108210000D01*
X101340000Y-103721645D01*
X101340000Y-103226890D01*
X103968524Y-103226890D01*
X104013175Y-103374099D01*
X104138359Y-103636920D01*
X104312412Y-103870269D01*
X104528645Y-104065178D01*
X104778748Y-104214157D01*
X105053109Y-104311481D01*
X105283000Y-104190814D01*
X105283000Y-102997000D01*
X105537000Y-102997000D01*
X105537000Y-104190814D01*
X105766891Y-104311481D01*
X106041252Y-104214157D01*
X106291355Y-104065178D01*
X106507588Y-103870269D01*
X106681641Y-103636920D01*
X106806825Y-103374099D01*
X106851476Y-103226890D01*
X106730155Y-102997000D01*
X105537000Y-102997000D01*
X105283000Y-102997000D01*
X104089845Y-102997000D01*
X103968524Y-103226890D01*
X101340000Y-103226890D01*
X101340000Y-102919608D01*
X101344886Y-102870000D01*
X101340000Y-102820392D01*
X101340000Y-88949608D01*
X101344886Y-88900000D01*
X101340000Y-88850392D01*
X101340000Y-87528355D01*
X103925000Y-90113356D01*
X103925000Y-90316260D01*
X103982068Y-90603158D01*
X104094010Y-90873411D01*
X104256525Y-91116632D01*
X104463368Y-91323475D01*
X104637760Y-91440000D01*
X104463368Y-91556525D01*
X104256525Y-91763368D01*
X104094010Y-92006589D01*
X103982068Y-92276842D01*
X103925000Y-92563740D01*
X103925000Y-92856260D01*
X103982068Y-93143158D01*
X104094010Y-93413411D01*
X104256525Y-93656632D01*
X104463368Y-93863475D01*
X104637760Y-93980000D01*
X104463368Y-94096525D01*
X104256525Y-94303368D01*
X104094010Y-94546589D01*
X103982068Y-94816842D01*
X103925000Y-95103740D01*
X103925000Y-95396260D01*
X103982068Y-95683158D01*
X104094010Y-95953411D01*
X104256525Y-96196632D01*
X104463368Y-96403475D01*
X104637760Y-96520000D01*
X104463368Y-96636525D01*
X104256525Y-96843368D01*
X104094010Y-97086589D01*
X103982068Y-97356842D01*
X103925000Y-97643740D01*
X103925000Y-97936260D01*
X103982068Y-98223158D01*
X104094010Y-98493411D01*
X104256525Y-98736632D01*
X104463368Y-98943475D01*
X104637760Y-99060000D01*
X104463368Y-99176525D01*
X104256525Y-99383368D01*
X104094010Y-99626589D01*
X103982068Y-99896842D01*
X103925000Y-100183740D01*
X103925000Y-100476260D01*
X103982068Y-100763158D01*
X104094010Y-101033411D01*
X104256525Y-101276632D01*
X104463368Y-101483475D01*
X104645534Y-101605195D01*
X104528645Y-101674822D01*
X104312412Y-101869731D01*
X104138359Y-102103080D01*
X104013175Y-102365901D01*
X103968524Y-102513110D01*
X104089845Y-102743000D01*
X105283000Y-102743000D01*
X105283000Y-102723000D01*
X105537000Y-102723000D01*
X105537000Y-102743000D01*
X106730155Y-102743000D01*
X106851476Y-102513110D01*
X106806825Y-102365901D01*
X106681641Y-102103080D01*
X106507588Y-101869731D01*
X106291355Y-101674822D01*
X106174466Y-101605195D01*
X106356632Y-101483475D01*
X106563475Y-101276632D01*
X106725990Y-101033411D01*
X106837932Y-100763158D01*
X106857322Y-100665678D01*
X108470744Y-102279100D01*
X108502367Y-102317633D01*
X108656160Y-102443847D01*
X108793404Y-102517205D01*
X108831620Y-102537632D01*
X109022005Y-102595385D01*
X109220000Y-102614886D01*
X109269608Y-102610000D01*
X115342377Y-102610000D01*
X115468061Y-102635000D01*
X115671939Y-102635000D01*
X115871898Y-102595226D01*
X116060256Y-102517205D01*
X116229774Y-102403937D01*
X116373937Y-102259774D01*
X116487205Y-102090256D01*
X116565226Y-101901898D01*
X116605000Y-101701939D01*
X116605000Y-101498061D01*
X116565226Y-101298102D01*
X116487205Y-101109744D01*
X116373937Y-100940226D01*
X116229774Y-100796063D01*
X116060256Y-100682795D01*
X115871898Y-100604774D01*
X115671939Y-100565000D01*
X115468061Y-100565000D01*
X115342377Y-100590000D01*
X109638356Y-100590000D01*
X106895000Y-97846645D01*
X106895000Y-97643740D01*
X106837932Y-97356842D01*
X106725990Y-97086589D01*
X106563475Y-96843368D01*
X106356632Y-96636525D01*
X106182240Y-96520000D01*
X106356632Y-96403475D01*
X106563475Y-96196632D01*
X106725990Y-95953411D01*
X106837932Y-95683158D01*
X106895000Y-95396260D01*
X106895000Y-95193355D01*
X107009254Y-95079101D01*
X114979100Y-87109256D01*
X115017633Y-87077633D01*
X115143847Y-86923840D01*
X115237632Y-86748380D01*
X115295385Y-86557994D01*
X115310000Y-86409608D01*
X115310000Y-86409599D01*
X115314885Y-86360001D01*
X115310000Y-86310403D01*
X115310000Y-22680107D01*
X115453475Y-22536632D01*
X115570000Y-22362240D01*
X115686525Y-22536632D01*
X115893368Y-22743475D01*
X116136589Y-22905990D01*
X116406842Y-23017932D01*
X116693740Y-23075000D01*
X116986260Y-23075000D01*
X117273158Y-23017932D01*
X117543411Y-22905990D01*
X117786632Y-22743475D01*
X117993475Y-22536632D01*
X118110000Y-22362240D01*
X118226525Y-22536632D01*
X118370001Y-22680108D01*
X118370000Y-86310392D01*
X118365114Y-86360000D01*
X118384615Y-86557994D01*
X118384616Y-86557996D01*
X118442368Y-86748379D01*
X118536153Y-86923840D01*
X118662367Y-87077633D01*
X118700906Y-87109261D01*
X124245000Y-92653355D01*
X124245000Y-92856260D01*
X124302068Y-93143158D01*
X124414010Y-93413411D01*
X124576525Y-93656632D01*
X124783368Y-93863475D01*
X124957760Y-93980000D01*
X124783368Y-94096525D01*
X124576525Y-94303368D01*
X124414010Y-94546589D01*
X124302068Y-94816842D01*
X124245000Y-95103740D01*
X124245000Y-95396260D01*
X124302068Y-95683158D01*
X124414010Y-95953411D01*
X124576525Y-96196632D01*
X124783368Y-96403475D01*
X124957760Y-96520000D01*
X124783368Y-96636525D01*
X124576525Y-96843368D01*
X124414010Y-97086589D01*
X124302068Y-97356842D01*
X124245000Y-97643740D01*
X124245000Y-97936260D01*
X124302068Y-98223158D01*
X124414010Y-98493411D01*
X124576525Y-98736632D01*
X124783368Y-98943475D01*
X124957760Y-99060000D01*
X124783368Y-99176525D01*
X124576525Y-99383368D01*
X124414010Y-99626589D01*
X124302068Y-99896842D01*
X124245000Y-100183740D01*
X124245000Y-100476260D01*
X124302068Y-100763158D01*
X124414010Y-101033411D01*
X124576525Y-101276632D01*
X124783368Y-101483475D01*
X124957760Y-101600000D01*
X124783368Y-101716525D01*
X124576525Y-101923368D01*
X124414010Y-102166589D01*
X124302068Y-102436842D01*
X124245000Y-102723740D01*
X124245000Y-103016260D01*
X124302068Y-103303158D01*
X124414010Y-103573411D01*
X124576525Y-103816632D01*
X124783368Y-104023475D01*
X125026589Y-104185990D01*
X125296842Y-104297932D01*
X125583740Y-104355000D01*
X125876260Y-104355000D01*
X126163158Y-104297932D01*
X126433411Y-104185990D01*
X126676632Y-104023475D01*
X126883475Y-103816632D01*
X127045990Y-103573411D01*
X127157932Y-103303158D01*
X127215000Y-103016260D01*
X127215000Y-102723740D01*
X127157932Y-102436842D01*
X127045990Y-102166589D01*
X126883475Y-101923368D01*
X126676632Y-101716525D01*
X126502240Y-101600000D01*
X126676632Y-101483475D01*
X126883475Y-101276632D01*
X127045990Y-101033411D01*
X127157932Y-100763158D01*
X127215000Y-100476260D01*
X127215000Y-100183740D01*
X127157932Y-99896842D01*
X127045990Y-99626589D01*
X126883475Y-99383368D01*
X126676632Y-99176525D01*
X126502240Y-99060000D01*
X126676632Y-98943475D01*
X126883475Y-98736632D01*
X127045990Y-98493411D01*
X127157932Y-98223158D01*
X127215000Y-97936260D01*
X127215000Y-97643740D01*
X127157932Y-97356842D01*
X127045990Y-97086589D01*
X126883475Y-96843368D01*
X126676632Y-96636525D01*
X126502240Y-96520000D01*
X126676632Y-96403475D01*
X126883475Y-96196632D01*
X127045990Y-95953411D01*
X127157932Y-95683158D01*
X127215000Y-95396260D01*
X127215000Y-95103740D01*
X127157932Y-94816842D01*
X127045990Y-94546589D01*
X126883475Y-94303368D01*
X126676632Y-94096525D01*
X126502240Y-93980000D01*
X126676632Y-93863475D01*
X126883475Y-93656632D01*
X127045990Y-93413411D01*
X127157932Y-93143158D01*
X127177322Y-93045677D01*
X140843000Y-106711355D01*
X140843000Y-121867394D01*
X132027394Y-130683000D01*
X113077718Y-130683000D01*
X102997000Y-121862372D01*
X102997000Y-111760000D01*
X102994560Y-111735224D01*
X102987333Y-111711399D01*
X102969170Y-111680664D01*
X97889170Y-105330664D01*
X97871787Y-105312841D01*
X97851261Y-105298752D01*
X97828380Y-105288938D01*
X97804025Y-105283777D01*
X97790000Y-105283000D01*
X72517000Y-105283000D01*
X72517000Y-29068665D01*
X76035000Y-29068665D01*
X76035000Y-29351335D01*
X76090147Y-29628574D01*
X76198320Y-29889727D01*
X76355363Y-30124759D01*
X76555241Y-30324637D01*
X76790273Y-30481680D01*
X77051426Y-30589853D01*
X77328665Y-30645000D01*
X77611335Y-30645000D01*
X77888574Y-30589853D01*
X78149727Y-30481680D01*
X78384759Y-30324637D01*
X78584637Y-30124759D01*
X78741680Y-29889727D01*
X78849853Y-29628574D01*
X78905000Y-29351335D01*
X78905000Y-29068665D01*
X96355000Y-29068665D01*
X96355000Y-29351335D01*
X96410147Y-29628574D01*
X96518320Y-29889727D01*
X96675363Y-30124759D01*
X96875241Y-30324637D01*
X97110273Y-30481680D01*
X97371426Y-30589853D01*
X97648665Y-30645000D01*
X97931335Y-30645000D01*
X98208574Y-30589853D01*
X98469727Y-30481680D01*
X98704759Y-30324637D01*
X98904637Y-30124759D01*
X99061680Y-29889727D01*
X99169853Y-29628574D01*
X99225000Y-29351335D01*
X99225000Y-29068665D01*
X99169853Y-28791426D01*
X99061680Y-28530273D01*
X98904637Y-28295241D01*
X98704759Y-28095363D01*
X98469727Y-27938320D01*
X98208574Y-27830147D01*
X97931335Y-27775000D01*
X97648665Y-27775000D01*
X97371426Y-27830147D01*
X97110273Y-27938320D01*
X96875241Y-28095363D01*
X96675363Y-28295241D01*
X96518320Y-28530273D01*
X96410147Y-28791426D01*
X96355000Y-29068665D01*
X78905000Y-29068665D01*
X78849853Y-28791426D01*
X78741680Y-28530273D01*
X78584637Y-28295241D01*
X78384759Y-28095363D01*
X78149727Y-27938320D01*
X77888574Y-27830147D01*
X77611335Y-27775000D01*
X77328665Y-27775000D01*
X77051426Y-27830147D01*
X76790273Y-27938320D01*
X76555241Y-28095363D01*
X76355363Y-28295241D01*
X76198320Y-28530273D01*
X76090147Y-28791426D01*
X76035000Y-29068665D01*
X72517000Y-29068665D01*
X72517000Y-23760000D01*
X73391928Y-23760000D01*
X73404188Y-23884482D01*
X73440498Y-24004180D01*
X73499463Y-24114494D01*
X73578815Y-24211185D01*
X73675506Y-24290537D01*
X73785820Y-24349502D01*
X73905518Y-24385812D01*
X74030000Y-24398072D01*
X74644250Y-24395000D01*
X74803000Y-24236250D01*
X74803000Y-22987000D01*
X73553750Y-22987000D01*
X73395000Y-23145750D01*
X73391928Y-23760000D01*
X72517000Y-23760000D01*
X72517000Y-21960000D01*
X73391928Y-21960000D01*
X73395000Y-22574250D01*
X73553750Y-22733000D01*
X74803000Y-22733000D01*
X74803000Y-21483750D01*
X75057000Y-21483750D01*
X75057000Y-22733000D01*
X75077000Y-22733000D01*
X75077000Y-22987000D01*
X75057000Y-22987000D01*
X75057000Y-24236250D01*
X75215750Y-24395000D01*
X75830000Y-24398072D01*
X75954482Y-24385812D01*
X76074180Y-24349502D01*
X76184494Y-24290537D01*
X76281185Y-24211185D01*
X76360537Y-24114494D01*
X76419502Y-24004180D01*
X76425056Y-23985873D01*
X76491495Y-24052312D01*
X76742905Y-24220299D01*
X77022257Y-24336011D01*
X77318816Y-24395000D01*
X77621184Y-24395000D01*
X77917743Y-24336011D01*
X78197095Y-24220299D01*
X78448505Y-24052312D01*
X78662312Y-23838505D01*
X78830299Y-23587095D01*
X78946011Y-23307743D01*
X79005000Y-23011184D01*
X79005000Y-22708816D01*
X78946011Y-22412257D01*
X78830299Y-22132905D01*
X78662312Y-21881495D01*
X78448505Y-21667688D01*
X78197095Y-21499701D01*
X77917743Y-21383989D01*
X77621184Y-21325000D01*
X77318816Y-21325000D01*
X77022257Y-21383989D01*
X76742905Y-21499701D01*
X76491495Y-21667688D01*
X76425056Y-21734127D01*
X76419502Y-21715820D01*
X76360537Y-21605506D01*
X76281185Y-21508815D01*
X76184494Y-21429463D01*
X76074180Y-21370498D01*
X75954482Y-21334188D01*
X75830000Y-21321928D01*
X75215750Y-21325000D01*
X75057000Y-21483750D01*
X74803000Y-21483750D01*
X74644250Y-21325000D01*
X74030000Y-21321928D01*
X73905518Y-21334188D01*
X73785820Y-21370498D01*
X73675506Y-21429463D01*
X73578815Y-21508815D01*
X73499463Y-21605506D01*
X73440498Y-21715820D01*
X73404188Y-21835518D01*
X73391928Y-21960000D01*
X72517000Y-21960000D01*
X72517000Y-20740000D01*
X86141928Y-20740000D01*
X86141928Y-22440000D01*
X86154188Y-22564482D01*
X86190498Y-22684180D01*
X86249463Y-22794494D01*
X86328815Y-22891185D01*
X86425506Y-22970537D01*
X86535820Y-23029502D01*
X86655518Y-23065812D01*
X86780000Y-23078072D01*
X88480000Y-23078072D01*
X88604482Y-23065812D01*
X88724180Y-23029502D01*
X88834494Y-22970537D01*
X88931185Y-22891185D01*
X89010537Y-22794494D01*
X89069502Y-22684180D01*
X89091513Y-22611620D01*
X89223368Y-22743475D01*
X89466589Y-22905990D01*
X89736842Y-23017932D01*
X90023740Y-23075000D01*
X90316260Y-23075000D01*
X90603158Y-23017932D01*
X90873411Y-22905990D01*
X91116632Y-22743475D01*
X91323475Y-22536632D01*
X91440000Y-22362240D01*
X91556525Y-22536632D01*
X91763368Y-22743475D01*
X92006589Y-22905990D01*
X92276842Y-23017932D01*
X92563740Y-23075000D01*
X92856260Y-23075000D01*
X93143158Y-23017932D01*
X93413411Y-22905990D01*
X93656632Y-22743475D01*
X93863475Y-22536632D01*
X93980000Y-22362240D01*
X94096525Y-22536632D01*
X94303368Y-22743475D01*
X94546589Y-22905990D01*
X94816842Y-23017932D01*
X95103740Y-23075000D01*
X95396260Y-23075000D01*
X95683158Y-23017932D01*
X95953411Y-22905990D01*
X96196632Y-22743475D01*
X96403475Y-22536632D01*
X96520000Y-22362240D01*
X96636525Y-22536632D01*
X96843368Y-22743475D01*
X97086589Y-22905990D01*
X97356842Y-23017932D01*
X97643740Y-23075000D01*
X97936260Y-23075000D01*
X98223158Y-23017932D01*
X98493411Y-22905990D01*
X98736632Y-22743475D01*
X98943475Y-22536632D01*
X99060000Y-22362240D01*
X99176525Y-22536632D01*
X99383368Y-22743475D01*
X99626589Y-22905990D01*
X99896842Y-23017932D01*
X100183740Y-23075000D01*
X100476260Y-23075000D01*
X100763158Y-23017932D01*
X101033411Y-22905990D01*
X101276632Y-22743475D01*
X101483475Y-22536632D01*
X101645990Y-22293411D01*
X101757932Y-22023158D01*
X101815000Y-21736260D01*
X101815000Y-21443740D01*
X101757932Y-21156842D01*
X101645990Y-20886589D01*
X101483475Y-20643368D01*
X101276632Y-20436525D01*
X101033411Y-20274010D01*
X100763158Y-20162068D01*
X100476260Y-20105000D01*
X100183740Y-20105000D01*
X99896842Y-20162068D01*
X99626589Y-20274010D01*
X99383368Y-20436525D01*
X99176525Y-20643368D01*
X99060000Y-20817760D01*
X98943475Y-20643368D01*
X98736632Y-20436525D01*
X98493411Y-20274010D01*
X98223158Y-20162068D01*
X97936260Y-20105000D01*
X97643740Y-20105000D01*
X97356842Y-20162068D01*
X97086589Y-20274010D01*
X96843368Y-20436525D01*
X96636525Y-20643368D01*
X96520000Y-20817760D01*
X96403475Y-20643368D01*
X96196632Y-20436525D01*
X95953411Y-20274010D01*
X95683158Y-20162068D01*
X95396260Y-20105000D01*
X95103740Y-20105000D01*
X94816842Y-20162068D01*
X94546589Y-20274010D01*
X94303368Y-20436525D01*
X94096525Y-20643368D01*
X93980000Y-20817760D01*
X93863475Y-20643368D01*
X93656632Y-20436525D01*
X93413411Y-20274010D01*
X93143158Y-20162068D01*
X92856260Y-20105000D01*
X92563740Y-20105000D01*
X92276842Y-20162068D01*
X92006589Y-20274010D01*
X91763368Y-20436525D01*
X91556525Y-20643368D01*
X91440000Y-20817760D01*
X91323475Y-20643368D01*
X91116632Y-20436525D01*
X90873411Y-20274010D01*
X90603158Y-20162068D01*
X90316260Y-20105000D01*
X90023740Y-20105000D01*
X89736842Y-20162068D01*
X89466589Y-20274010D01*
X89223368Y-20436525D01*
X89091513Y-20568380D01*
X89069502Y-20495820D01*
X89010537Y-20385506D01*
X88931185Y-20288815D01*
X88834494Y-20209463D01*
X88724180Y-20150498D01*
X88604482Y-20114188D01*
X88480000Y-20101928D01*
X86780000Y-20101928D01*
X86655518Y-20114188D01*
X86535820Y-20150498D01*
X86425506Y-20209463D01*
X86328815Y-20288815D01*
X86249463Y-20385506D01*
X86190498Y-20495820D01*
X86154188Y-20615518D01*
X86141928Y-20740000D01*
X72517000Y-20740000D01*
X72517000Y-19177000D01*
X140843000Y-19177000D01*
X140843000Y-103854645D01*
G37*
X140843000Y-103854645D02*
X127215000Y-90226645D01*
X127215000Y-90023740D01*
X127157932Y-89736842D01*
X127045990Y-89466589D01*
X126883475Y-89223368D01*
X126676632Y-89016525D01*
X126502240Y-88900000D01*
X126676632Y-88783475D01*
X126883475Y-88576632D01*
X127045990Y-88333411D01*
X127157932Y-88063158D01*
X127215000Y-87776260D01*
X127215000Y-87483740D01*
X127157932Y-87196842D01*
X127045990Y-86926589D01*
X126883475Y-86683368D01*
X126676632Y-86476525D01*
X126502240Y-86360000D01*
X126676632Y-86243475D01*
X126883475Y-86036632D01*
X127045990Y-85793411D01*
X127157932Y-85523158D01*
X127215000Y-85236260D01*
X127215000Y-84943740D01*
X127157932Y-84656842D01*
X127045990Y-84386589D01*
X126883475Y-84143368D01*
X126676632Y-83936525D01*
X126502240Y-83820000D01*
X126676632Y-83703475D01*
X126883475Y-83496632D01*
X127045990Y-83253411D01*
X127157932Y-82983158D01*
X127215000Y-82696260D01*
X127215000Y-82403740D01*
X127157932Y-82116842D01*
X127045990Y-81846589D01*
X126883475Y-81603368D01*
X126676632Y-81396525D01*
X126502240Y-81280000D01*
X126676632Y-81163475D01*
X126820107Y-81020000D01*
X130680130Y-81020000D01*
X130690498Y-81054180D01*
X130749463Y-81164494D01*
X130828815Y-81261185D01*
X130925506Y-81340537D01*
X131035820Y-81399502D01*
X131155518Y-81435812D01*
X131280000Y-81448072D01*
X132880000Y-81448072D01*
X133004482Y-81435812D01*
X133124180Y-81399502D01*
X133234494Y-81340537D01*
X133331185Y-81261185D01*
X133410537Y-81164494D01*
X133469502Y-81054180D01*
X133485117Y-81002702D01*
X133766903Y-81002702D01*
X133838486Y-81246671D01*
X134093996Y-81367571D01*
X134368184Y-81436300D01*
X134650512Y-81450217D01*
X134930130Y-81408787D01*
X135196292Y-81313603D01*
X135321514Y-81246671D01*
X135393097Y-81002702D01*
X134580000Y-80189605D01*
X133766903Y-81002702D01*
X133485117Y-81002702D01*
X133505812Y-80934482D01*
X133518072Y-80810000D01*
X133518072Y-80802785D01*
X133587298Y-80823097D01*
X134400395Y-80010000D01*
X134759605Y-80010000D01*
X135572702Y-80823097D01*
X135816671Y-80751514D01*
X135937571Y-80496004D01*
X136006300Y-80221816D01*
X136020217Y-79939488D01*
X135978787Y-79659870D01*
X135883603Y-79393708D01*
X135816671Y-79268486D01*
X135572702Y-79196903D01*
X134759605Y-80010000D01*
X134400395Y-80010000D01*
X133587298Y-79196903D01*
X133518072Y-79217215D01*
X133518072Y-79210000D01*
X133505812Y-79085518D01*
X133485118Y-79017298D01*
X133766903Y-79017298D01*
X134580000Y-79830395D01*
X135393097Y-79017298D01*
X135321514Y-78773329D01*
X135066004Y-78652429D01*
X134791816Y-78583700D01*
X134509488Y-78569783D01*
X134229870Y-78611213D01*
X133963708Y-78706397D01*
X133838486Y-78773329D01*
X133766903Y-79017298D01*
X133485118Y-79017298D01*
X133469502Y-78965820D01*
X133410537Y-78855506D01*
X133331185Y-78758815D01*
X133234494Y-78679463D01*
X133124180Y-78620498D01*
X133090000Y-78610130D01*
X133090000Y-69899604D01*
X133094886Y-69849999D01*
X133080480Y-69703740D01*
X133075385Y-69652006D01*
X133017632Y-69461620D01*
X132923847Y-69286160D01*
X132797633Y-69132367D01*
X132759094Y-69100739D01*
X126740000Y-63081645D01*
X126740000Y-43018967D01*
X135525000Y-43018967D01*
X135525000Y-43341033D01*
X135587832Y-43656912D01*
X135711082Y-43954463D01*
X135890013Y-44222252D01*
X136117748Y-44449987D01*
X136385537Y-44628918D01*
X136683088Y-44752168D01*
X136998967Y-44815000D01*
X137321033Y-44815000D01*
X137636912Y-44752168D01*
X137934463Y-44628918D01*
X138202252Y-44449987D01*
X138429987Y-44222252D01*
X138608918Y-43954463D01*
X138732168Y-43656912D01*
X138795000Y-43341033D01*
X138795000Y-43018967D01*
X138732168Y-42703088D01*
X138608918Y-42405537D01*
X138429987Y-42137748D01*
X138202252Y-41910013D01*
X137934463Y-41731082D01*
X137636912Y-41607832D01*
X137321033Y-41545000D01*
X136998967Y-41545000D01*
X136683088Y-41607832D01*
X136385537Y-41731082D01*
X136117748Y-41910013D01*
X135890013Y-42137748D01*
X135711082Y-42405537D01*
X135587832Y-42703088D01*
X135525000Y-43018967D01*
X126740000Y-43018967D01*
X126740000Y-29480000D01*
X135521928Y-29480000D01*
X135521928Y-31480000D01*
X135534188Y-31604482D01*
X135570498Y-31724180D01*
X135629463Y-31834494D01*
X135708815Y-31931185D01*
X135805506Y-32010537D01*
X135915820Y-32069502D01*
X136035518Y-32105812D01*
X136160000Y-32118072D01*
X138160000Y-32118072D01*
X138284482Y-32105812D01*
X138404180Y-32069502D01*
X138514494Y-32010537D01*
X138611185Y-31931185D01*
X138690537Y-31834494D01*
X138749502Y-31724180D01*
X138785812Y-31604482D01*
X138798072Y-31480000D01*
X138798072Y-29480000D01*
X138785812Y-29355518D01*
X138749502Y-29235820D01*
X138690537Y-29125506D01*
X138611185Y-29028815D01*
X138514494Y-28949463D01*
X138404180Y-28890498D01*
X138284482Y-28854188D01*
X138160000Y-28841928D01*
X136160000Y-28841928D01*
X136035518Y-28854188D01*
X135915820Y-28890498D01*
X135805506Y-28949463D01*
X135708815Y-29028815D01*
X135629463Y-29125506D01*
X135570498Y-29235820D01*
X135534188Y-29355518D01*
X135521928Y-29480000D01*
X126740000Y-29480000D01*
X126740000Y-22680107D01*
X126808487Y-22611620D01*
X126830498Y-22684180D01*
X126889463Y-22794494D01*
X126968815Y-22891185D01*
X127065506Y-22970537D01*
X127175820Y-23029502D01*
X127295518Y-23065812D01*
X127420000Y-23078072D01*
X127984250Y-23075000D01*
X128143000Y-22916250D01*
X128143000Y-21717000D01*
X128397000Y-21717000D01*
X128397000Y-22916250D01*
X128555750Y-23075000D01*
X129120000Y-23078072D01*
X129244482Y-23065812D01*
X129364180Y-23029502D01*
X129474494Y-22970537D01*
X129571185Y-22891185D01*
X129650537Y-22794494D01*
X129709502Y-22684180D01*
X129745812Y-22564482D01*
X129758072Y-22440000D01*
X129755000Y-21875750D01*
X129596250Y-21717000D01*
X128397000Y-21717000D01*
X128143000Y-21717000D01*
X128123000Y-21717000D01*
X128123000Y-21463000D01*
X128143000Y-21463000D01*
X128143000Y-20263750D01*
X128397000Y-20263750D01*
X128397000Y-21463000D01*
X129596250Y-21463000D01*
X129755000Y-21304250D01*
X129758072Y-20740000D01*
X129745812Y-20615518D01*
X129709502Y-20495820D01*
X129650537Y-20385506D01*
X129571185Y-20288815D01*
X129474494Y-20209463D01*
X129364180Y-20150498D01*
X129244482Y-20114188D01*
X129120000Y-20101928D01*
X128555750Y-20105000D01*
X128397000Y-20263750D01*
X128143000Y-20263750D01*
X127984250Y-20105000D01*
X127420000Y-20101928D01*
X127295518Y-20114188D01*
X127175820Y-20150498D01*
X127065506Y-20209463D01*
X126968815Y-20288815D01*
X126889463Y-20385506D01*
X126830498Y-20495820D01*
X126808487Y-20568380D01*
X126676632Y-20436525D01*
X126433411Y-20274010D01*
X126163158Y-20162068D01*
X125876260Y-20105000D01*
X125583740Y-20105000D01*
X125296842Y-20162068D01*
X125026589Y-20274010D01*
X124783368Y-20436525D01*
X124576525Y-20643368D01*
X124414010Y-20886589D01*
X124302068Y-21156842D01*
X124245000Y-21443740D01*
X124245000Y-21736260D01*
X124302068Y-22023158D01*
X124414010Y-22293411D01*
X124576525Y-22536632D01*
X124720000Y-22680107D01*
X124720001Y-63450382D01*
X124715114Y-63500000D01*
X124734615Y-63697994D01*
X124792368Y-63888379D01*
X124886154Y-64063840D01*
X124964885Y-64159774D01*
X125012368Y-64217633D01*
X125050900Y-64249255D01*
X131070000Y-70268355D01*
X131070001Y-78610129D01*
X131035820Y-78620498D01*
X130925506Y-78679463D01*
X130828815Y-78758815D01*
X130749463Y-78855506D01*
X130690498Y-78965820D01*
X130680130Y-79000000D01*
X126820107Y-79000000D01*
X126676632Y-78856525D01*
X126502240Y-78740000D01*
X126676632Y-78623475D01*
X126883475Y-78416632D01*
X127045990Y-78173411D01*
X127157932Y-77903158D01*
X127215000Y-77616260D01*
X127215000Y-77323740D01*
X127157932Y-77036842D01*
X127045990Y-76766589D01*
X126883475Y-76523368D01*
X126751620Y-76391513D01*
X126824180Y-76369502D01*
X126934494Y-76310537D01*
X127031185Y-76231185D01*
X127110537Y-76134494D01*
X127169502Y-76024180D01*
X127205812Y-75904482D01*
X127218072Y-75780000D01*
X127218072Y-74080000D01*
X127205812Y-73955518D01*
X127169502Y-73835820D01*
X127110537Y-73725506D01*
X127031185Y-73628815D01*
X126934494Y-73549463D01*
X126824180Y-73490498D01*
X126704482Y-73454188D01*
X126580000Y-73441928D01*
X124880000Y-73441928D01*
X124755518Y-73454188D01*
X124635820Y-73490498D01*
X124525506Y-73549463D01*
X124428815Y-73628815D01*
X124349463Y-73725506D01*
X124290498Y-73835820D01*
X124254188Y-73955518D01*
X124241928Y-74080000D01*
X124241928Y-75780000D01*
X124254188Y-75904482D01*
X124290498Y-76024180D01*
X124349463Y-76134494D01*
X124428815Y-76231185D01*
X124525506Y-76310537D01*
X124635820Y-76369502D01*
X124708380Y-76391513D01*
X124576525Y-76523368D01*
X124414010Y-76766589D01*
X124302068Y-77036842D01*
X124245000Y-77323740D01*
X124245000Y-77616260D01*
X124302068Y-77903158D01*
X124414010Y-78173411D01*
X124576525Y-78416632D01*
X124783368Y-78623475D01*
X124957760Y-78740000D01*
X124783368Y-78856525D01*
X124576525Y-79063368D01*
X124414010Y-79306589D01*
X124302068Y-79576842D01*
X124245000Y-79863740D01*
X124245000Y-80156260D01*
X124302068Y-80443158D01*
X124414010Y-80713411D01*
X124576525Y-80956632D01*
X124783368Y-81163475D01*
X124957760Y-81280000D01*
X124783368Y-81396525D01*
X124576525Y-81603368D01*
X124414010Y-81846589D01*
X124302068Y-82116842D01*
X124245000Y-82403740D01*
X124245000Y-82696260D01*
X124302068Y-82983158D01*
X124414010Y-83253411D01*
X124576525Y-83496632D01*
X124783368Y-83703475D01*
X124957760Y-83820000D01*
X124783368Y-83936525D01*
X124576525Y-84143368D01*
X124414010Y-84386589D01*
X124302068Y-84656842D01*
X124245000Y-84943740D01*
X124245000Y-85236260D01*
X124302068Y-85523158D01*
X124414010Y-85793411D01*
X124576525Y-86036632D01*
X124783368Y-86243475D01*
X124957760Y-86360000D01*
X124783368Y-86476525D01*
X124576525Y-86683368D01*
X124414010Y-86926589D01*
X124302068Y-87196842D01*
X124245000Y-87483740D01*
X124245000Y-87776260D01*
X124302068Y-88063158D01*
X124414010Y-88333411D01*
X124576525Y-88576632D01*
X124783368Y-88783475D01*
X124957760Y-88900000D01*
X124783368Y-89016525D01*
X124576525Y-89223368D01*
X124414010Y-89466589D01*
X124302068Y-89736842D01*
X124282678Y-89834323D01*
X120390000Y-85941645D01*
X120390000Y-22680107D01*
X120533475Y-22536632D01*
X120695990Y-22293411D01*
X120807932Y-22023158D01*
X120865000Y-21736260D01*
X120865000Y-21443740D01*
X120807932Y-21156842D01*
X120695990Y-20886589D01*
X120533475Y-20643368D01*
X120326632Y-20436525D01*
X120083411Y-20274010D01*
X119813158Y-20162068D01*
X119526260Y-20105000D01*
X119233740Y-20105000D01*
X118946842Y-20162068D01*
X118676589Y-20274010D01*
X118433368Y-20436525D01*
X118226525Y-20643368D01*
X118110000Y-20817760D01*
X117993475Y-20643368D01*
X117786632Y-20436525D01*
X117543411Y-20274010D01*
X117273158Y-20162068D01*
X116986260Y-20105000D01*
X116693740Y-20105000D01*
X116406842Y-20162068D01*
X116136589Y-20274010D01*
X115893368Y-20436525D01*
X115686525Y-20643368D01*
X115570000Y-20817760D01*
X115453475Y-20643368D01*
X115246632Y-20436525D01*
X115003411Y-20274010D01*
X114733158Y-20162068D01*
X114446260Y-20105000D01*
X114153740Y-20105000D01*
X113866842Y-20162068D01*
X113596589Y-20274010D01*
X113353368Y-20436525D01*
X113221513Y-20568380D01*
X113199502Y-20495820D01*
X113140537Y-20385506D01*
X113061185Y-20288815D01*
X112964494Y-20209463D01*
X112854180Y-20150498D01*
X112734482Y-20114188D01*
X112610000Y-20101928D01*
X110910000Y-20101928D01*
X110785518Y-20114188D01*
X110665820Y-20150498D01*
X110555506Y-20209463D01*
X110458815Y-20288815D01*
X110379463Y-20385506D01*
X110320498Y-20495820D01*
X110284188Y-20615518D01*
X110271928Y-20740000D01*
X110271928Y-22440000D01*
X110284188Y-22564482D01*
X110320498Y-22684180D01*
X110379463Y-22794494D01*
X110458815Y-22891185D01*
X110555506Y-22970537D01*
X110665820Y-23029502D01*
X110750000Y-23055038D01*
X110750001Y-85941644D01*
X106857322Y-89834323D01*
X106837932Y-89736842D01*
X106725990Y-89466589D01*
X106563475Y-89223368D01*
X106356632Y-89016525D01*
X106182240Y-88900000D01*
X106356632Y-88783475D01*
X106563475Y-88576632D01*
X106725990Y-88333411D01*
X106837932Y-88063158D01*
X106895000Y-87776260D01*
X106895000Y-87483740D01*
X106837932Y-87196842D01*
X106725990Y-86926589D01*
X106563475Y-86683368D01*
X106356632Y-86476525D01*
X106182240Y-86360000D01*
X106356632Y-86243475D01*
X106563475Y-86036632D01*
X106725990Y-85793411D01*
X106837932Y-85523158D01*
X106895000Y-85236260D01*
X106895000Y-84943740D01*
X106837932Y-84656842D01*
X106725990Y-84386589D01*
X106563475Y-84143368D01*
X106356632Y-83936525D01*
X106182240Y-83820000D01*
X106356632Y-83703475D01*
X106563475Y-83496632D01*
X106725990Y-83253411D01*
X106837932Y-82983158D01*
X106895000Y-82696260D01*
X106895000Y-82403740D01*
X106837932Y-82116842D01*
X106725990Y-81846589D01*
X106563475Y-81603368D01*
X106356632Y-81396525D01*
X106182240Y-81280000D01*
X106356632Y-81163475D01*
X106563475Y-80956632D01*
X106725990Y-80713411D01*
X106837932Y-80443158D01*
X106895000Y-80156260D01*
X106895000Y-79863740D01*
X106837932Y-79576842D01*
X106725990Y-79306589D01*
X106563475Y-79063368D01*
X106356632Y-78856525D01*
X106182240Y-78740000D01*
X106356632Y-78623475D01*
X106563475Y-78416632D01*
X106725990Y-78173411D01*
X106837932Y-77903158D01*
X106895000Y-77616260D01*
X106895000Y-77323740D01*
X106837932Y-77036842D01*
X106725990Y-76766589D01*
X106563475Y-76523368D01*
X106356632Y-76316525D01*
X106182240Y-76200000D01*
X106356632Y-76083475D01*
X106563475Y-75876632D01*
X106725990Y-75633411D01*
X106837932Y-75363158D01*
X106895000Y-75076260D01*
X106895000Y-74783740D01*
X106837932Y-74496842D01*
X106725990Y-74226589D01*
X106563475Y-73983368D01*
X106356632Y-73776525D01*
X106174466Y-73654805D01*
X106291355Y-73585178D01*
X106507588Y-73390269D01*
X106681641Y-73156920D01*
X106806825Y-72894099D01*
X106851476Y-72746890D01*
X106730155Y-72517000D01*
X105537000Y-72517000D01*
X105537000Y-72537000D01*
X105283000Y-72537000D01*
X105283000Y-72517000D01*
X104089845Y-72517000D01*
X103968524Y-72746890D01*
X104013175Y-72894099D01*
X104138359Y-73156920D01*
X104312412Y-73390269D01*
X104528645Y-73585178D01*
X104645534Y-73654805D01*
X104463368Y-73776525D01*
X104256525Y-73983368D01*
X104094010Y-74226589D01*
X103982068Y-74496842D01*
X103925000Y-74783740D01*
X103925000Y-75076260D01*
X103982068Y-75363158D01*
X104094010Y-75633411D01*
X104256525Y-75876632D01*
X104463368Y-76083475D01*
X104637760Y-76200000D01*
X104463368Y-76316525D01*
X104256525Y-76523368D01*
X104094010Y-76766589D01*
X103982068Y-77036842D01*
X103925000Y-77323740D01*
X103925000Y-77616260D01*
X103982068Y-77903158D01*
X104094010Y-78173411D01*
X104256525Y-78416632D01*
X104463368Y-78623475D01*
X104637760Y-78740000D01*
X104463368Y-78856525D01*
X104256525Y-79063368D01*
X104094010Y-79306589D01*
X103982068Y-79576842D01*
X103925000Y-79863740D01*
X103925000Y-80156260D01*
X103982068Y-80443158D01*
X104094010Y-80713411D01*
X104256525Y-80956632D01*
X104463368Y-81163475D01*
X104637760Y-81280000D01*
X104463368Y-81396525D01*
X104256525Y-81603368D01*
X104094010Y-81846589D01*
X103982068Y-82116842D01*
X103925000Y-82403740D01*
X103925000Y-82696260D01*
X103982068Y-82983158D01*
X104094010Y-83253411D01*
X104256525Y-83496632D01*
X104463368Y-83703475D01*
X104637760Y-83820000D01*
X104463368Y-83936525D01*
X104256525Y-84143368D01*
X104094010Y-84386589D01*
X103982068Y-84656842D01*
X103925000Y-84943740D01*
X103925000Y-85236260D01*
X103982068Y-85523158D01*
X104094010Y-85793411D01*
X104256525Y-86036632D01*
X104463368Y-86243475D01*
X104637760Y-86360000D01*
X104463368Y-86476525D01*
X104256525Y-86683368D01*
X104094010Y-86926589D01*
X103982068Y-87196842D01*
X103962678Y-87294322D01*
X102610000Y-85941645D01*
X102610000Y-63920000D01*
X103921928Y-63920000D01*
X103921928Y-65620000D01*
X103934188Y-65744482D01*
X103970498Y-65864180D01*
X104029463Y-65974494D01*
X104108815Y-66071185D01*
X104205506Y-66150537D01*
X104315820Y-66209502D01*
X104388380Y-66231513D01*
X104256525Y-66363368D01*
X104094010Y-66606589D01*
X103982068Y-66876842D01*
X103925000Y-67163740D01*
X103925000Y-67456260D01*
X103982068Y-67743158D01*
X104094010Y-68013411D01*
X104256525Y-68256632D01*
X104463368Y-68463475D01*
X104637760Y-68580000D01*
X104463368Y-68696525D01*
X104256525Y-68903368D01*
X104094010Y-69146589D01*
X103982068Y-69416842D01*
X103925000Y-69703740D01*
X103925000Y-69996260D01*
X103982068Y-70283158D01*
X104094010Y-70553411D01*
X104256525Y-70796632D01*
X104463368Y-71003475D01*
X104645534Y-71125195D01*
X104528645Y-71194822D01*
X104312412Y-71389731D01*
X104138359Y-71623080D01*
X104013175Y-71885901D01*
X103968524Y-72033110D01*
X104089845Y-72263000D01*
X105283000Y-72263000D01*
X105283000Y-72243000D01*
X105537000Y-72243000D01*
X105537000Y-72263000D01*
X106730155Y-72263000D01*
X106851476Y-72033110D01*
X106806825Y-71885901D01*
X106681641Y-71623080D01*
X106507588Y-71389731D01*
X106291355Y-71194822D01*
X106174466Y-71125195D01*
X106356632Y-71003475D01*
X106563475Y-70796632D01*
X106725990Y-70553411D01*
X106837932Y-70283158D01*
X106895000Y-69996260D01*
X106895000Y-69703740D01*
X106837932Y-69416842D01*
X106725990Y-69146589D01*
X106563475Y-68903368D01*
X106356632Y-68696525D01*
X106182240Y-68580000D01*
X106356632Y-68463475D01*
X106563475Y-68256632D01*
X106725990Y-68013411D01*
X106837932Y-67743158D01*
X106895000Y-67456260D01*
X106895000Y-67163740D01*
X106837932Y-66876842D01*
X106725990Y-66606589D01*
X106563475Y-66363368D01*
X106431620Y-66231513D01*
X106504180Y-66209502D01*
X106614494Y-66150537D01*
X106711185Y-66071185D01*
X106790537Y-65974494D01*
X106849502Y-65864180D01*
X106885812Y-65744482D01*
X106898072Y-65620000D01*
X106898072Y-63920000D01*
X106885812Y-63795518D01*
X106849502Y-63675820D01*
X106790537Y-63565506D01*
X106711185Y-63468815D01*
X106614494Y-63389463D01*
X106504180Y-63330498D01*
X106384482Y-63294188D01*
X106260000Y-63281928D01*
X104560000Y-63281928D01*
X104435518Y-63294188D01*
X104315820Y-63330498D01*
X104205506Y-63389463D01*
X104108815Y-63468815D01*
X104029463Y-63565506D01*
X103970498Y-63675820D01*
X103934188Y-63795518D01*
X103921928Y-63920000D01*
X102610000Y-63920000D01*
X102610000Y-43598355D01*
X108503223Y-37705132D01*
X108609774Y-37633937D01*
X108753937Y-37489774D01*
X108867205Y-37320256D01*
X108945226Y-37131898D01*
X108985000Y-36931939D01*
X108985000Y-36728061D01*
X108945226Y-36528102D01*
X108867205Y-36339744D01*
X108753937Y-36170226D01*
X108609774Y-36026063D01*
X108440256Y-35912795D01*
X108251898Y-35834774D01*
X108051939Y-35795000D01*
X107848061Y-35795000D01*
X107648102Y-35834774D01*
X107459744Y-35912795D01*
X107290226Y-36026063D01*
X107146063Y-36170226D01*
X107074868Y-36276777D01*
X100920901Y-42430744D01*
X100882368Y-42462367D01*
X100850745Y-42500900D01*
X100850744Y-42500901D01*
X100756154Y-42616160D01*
X100662368Y-42791621D01*
X100604615Y-42982006D01*
X100585114Y-43180000D01*
X100590001Y-43229618D01*
X100590001Y-62331646D01*
X93459261Y-55200906D01*
X93427633Y-55162367D01*
X93273840Y-55036153D01*
X93098380Y-54942368D01*
X92907994Y-54884615D01*
X92759608Y-54870000D01*
X92710000Y-54865114D01*
X92660392Y-54870000D01*
X89919396Y-54870000D01*
X89910000Y-54860604D01*
X89910000Y-42929396D01*
X90014637Y-42824759D01*
X90171680Y-42589727D01*
X90279853Y-42328574D01*
X90335000Y-42051335D01*
X90335000Y-41768665D01*
X90279853Y-41491426D01*
X90171680Y-41230273D01*
X90014637Y-40995241D01*
X89814759Y-40795363D01*
X89579727Y-40638320D01*
X89318574Y-40530147D01*
X89041335Y-40475000D01*
X88758665Y-40475000D01*
X88481426Y-40530147D01*
X88220273Y-40638320D01*
X87985241Y-40795363D01*
X87785363Y-40995241D01*
X87628320Y-41230273D01*
X87520147Y-41491426D01*
X87465000Y-41768665D01*
X87465000Y-42051335D01*
X87520147Y-42328574D01*
X87628320Y-42589727D01*
X87785363Y-42824759D01*
X87890000Y-42929396D01*
X87890001Y-54860603D01*
X87785363Y-54965241D01*
X87628320Y-55200273D01*
X87520147Y-55461426D01*
X87465000Y-55738665D01*
X87465000Y-56021335D01*
X87520147Y-56298574D01*
X87628320Y-56559727D01*
X87785363Y-56794759D01*
X87985241Y-56994637D01*
X88220273Y-57151680D01*
X88481426Y-57259853D01*
X88758665Y-57315000D01*
X89041335Y-57315000D01*
X89318574Y-57259853D01*
X89579727Y-57151680D01*
X89814759Y-56994637D01*
X89919396Y-56890000D01*
X92291645Y-56890000D01*
X98901645Y-63500000D01*
X91021645Y-71380000D01*
X89919396Y-71380000D01*
X89814759Y-71275363D01*
X89579727Y-71118320D01*
X89318574Y-71010147D01*
X89041335Y-70955000D01*
X88758665Y-70955000D01*
X88481426Y-71010147D01*
X88220273Y-71118320D01*
X87985241Y-71275363D01*
X87785363Y-71475241D01*
X87628320Y-71710273D01*
X87520147Y-71971426D01*
X87465000Y-72248665D01*
X87465000Y-72531335D01*
X87520147Y-72808574D01*
X87628320Y-73069727D01*
X87785363Y-73304759D01*
X87985241Y-73504637D01*
X88220273Y-73661680D01*
X88481426Y-73769853D01*
X88758665Y-73825000D01*
X89041335Y-73825000D01*
X89318574Y-73769853D01*
X89579727Y-73661680D01*
X89814759Y-73504637D01*
X89919396Y-73400000D01*
X91390392Y-73400000D01*
X91440000Y-73404886D01*
X91637994Y-73385385D01*
X91828380Y-73327632D01*
X92003840Y-73233847D01*
X92157633Y-73107633D01*
X92189261Y-73069094D01*
X99320000Y-65938356D01*
X99320001Y-87580383D01*
X99320000Y-87580393D01*
X99320000Y-87890000D01*
X89919396Y-87890000D01*
X89814759Y-87785363D01*
X89579727Y-87628320D01*
X89318574Y-87520147D01*
X89041335Y-87465000D01*
X88758665Y-87465000D01*
X88481426Y-87520147D01*
X88220273Y-87628320D01*
X87985241Y-87785363D01*
X87785363Y-87985241D01*
X87628320Y-88220273D01*
X87520147Y-88481426D01*
X87465000Y-88758665D01*
X87465000Y-89041335D01*
X87520147Y-89318574D01*
X87628320Y-89579727D01*
X87785363Y-89814759D01*
X87985241Y-90014637D01*
X88220273Y-90171680D01*
X88481426Y-90279853D01*
X88758665Y-90335000D01*
X89041335Y-90335000D01*
X89318574Y-90279853D01*
X89579727Y-90171680D01*
X89814759Y-90014637D01*
X89919396Y-89910000D01*
X99320000Y-89910000D01*
X99320001Y-101860000D01*
X89919396Y-101860000D01*
X89814759Y-101755363D01*
X89579727Y-101598320D01*
X89318574Y-101490147D01*
X89041335Y-101435000D01*
X88758665Y-101435000D01*
X88481426Y-101490147D01*
X88220273Y-101598320D01*
X87985241Y-101755363D01*
X87785363Y-101955241D01*
X87628320Y-102190273D01*
X87520147Y-102451426D01*
X87465000Y-102728665D01*
X87465000Y-103011335D01*
X87520147Y-103288574D01*
X87628320Y-103549727D01*
X87785363Y-103784759D01*
X87985241Y-103984637D01*
X88220273Y-104141680D01*
X88481426Y-104249853D01*
X88758665Y-104305000D01*
X89041335Y-104305000D01*
X89318574Y-104249853D01*
X89579727Y-104141680D01*
X89814759Y-103984637D01*
X89919396Y-103880000D01*
X99320001Y-103880000D01*
X99320001Y-104090383D01*
X99315114Y-104140000D01*
X99334615Y-104337994D01*
X99392368Y-104528379D01*
X99392369Y-104528380D01*
X99486154Y-104703840D01*
X99612368Y-104857633D01*
X99650901Y-104889256D01*
X104660743Y-109899099D01*
X104692367Y-109937633D01*
X104846160Y-110063847D01*
X105021620Y-110157632D01*
X105212005Y-110215385D01*
X105410000Y-110234886D01*
X105459608Y-110230000D01*
X120231645Y-110230000D01*
X123450000Y-113448356D01*
X123450001Y-119565015D01*
X123408815Y-119598815D01*
X123329463Y-119695506D01*
X123270498Y-119805820D01*
X123234188Y-119925518D01*
X123221928Y-120050000D01*
X123221928Y-121250000D01*
X123234188Y-121374482D01*
X123270498Y-121494180D01*
X123329463Y-121604494D01*
X123408815Y-121701185D01*
X123505506Y-121780537D01*
X123615820Y-121839502D01*
X123735518Y-121875812D01*
X123860000Y-121888072D01*
X125060000Y-121888072D01*
X125184482Y-121875812D01*
X125304180Y-121839502D01*
X125414494Y-121780537D01*
X125511185Y-121701185D01*
X125590537Y-121604494D01*
X125614858Y-121558994D01*
X125672736Y-121616872D01*
X125789842Y-121499766D01*
X125837148Y-121723348D01*
X126058516Y-121824237D01*
X126295313Y-121880000D01*
X126538438Y-121888495D01*
X126778549Y-121849395D01*
X127006418Y-121764202D01*
X127082852Y-121723348D01*
X127130109Y-121500000D01*
X133131928Y-121500000D01*
X133144188Y-121624482D01*
X133180498Y-121744180D01*
X133239463Y-121854494D01*
X133318815Y-121951185D01*
X133415506Y-122030537D01*
X133525820Y-122089502D01*
X133645518Y-122125812D01*
X133770000Y-122138072D01*
X134334250Y-122135000D01*
X134493000Y-121976250D01*
X134493000Y-120777000D01*
X134747000Y-120777000D01*
X134747000Y-121976250D01*
X134905750Y-122135000D01*
X135470000Y-122138072D01*
X135594482Y-122125812D01*
X135714180Y-122089502D01*
X135824494Y-122030537D01*
X135921185Y-121951185D01*
X136000537Y-121854494D01*
X136059502Y-121744180D01*
X136095812Y-121624482D01*
X136108072Y-121500000D01*
X136105000Y-120935750D01*
X135946250Y-120777000D01*
X134747000Y-120777000D01*
X134493000Y-120777000D01*
X133293750Y-120777000D01*
X133135000Y-120935750D01*
X133131928Y-121500000D01*
X127130109Y-121500000D01*
X127130159Y-121499764D01*
X126460000Y-120829605D01*
X126445858Y-120843748D01*
X126266253Y-120664143D01*
X126280395Y-120650000D01*
X126639605Y-120650000D01*
X127309764Y-121320159D01*
X127533348Y-121272852D01*
X127634237Y-121051484D01*
X127690000Y-120814687D01*
X127698495Y-120571562D01*
X127659395Y-120331451D01*
X127574202Y-120103582D01*
X127533348Y-120027148D01*
X127309764Y-119979841D01*
X126639605Y-120650000D01*
X126280395Y-120650000D01*
X126266253Y-120635858D01*
X126445858Y-120456253D01*
X126460000Y-120470395D01*
X127130159Y-119800236D01*
X127130110Y-119800000D01*
X133131928Y-119800000D01*
X133135000Y-120364250D01*
X133293750Y-120523000D01*
X134493000Y-120523000D01*
X134493000Y-119323750D01*
X134747000Y-119323750D01*
X134747000Y-120523000D01*
X135946250Y-120523000D01*
X136105000Y-120364250D01*
X136108072Y-119800000D01*
X136095812Y-119675518D01*
X136059502Y-119555820D01*
X136000537Y-119445506D01*
X135921185Y-119348815D01*
X135824494Y-119269463D01*
X135714180Y-119210498D01*
X135594482Y-119174188D01*
X135470000Y-119161928D01*
X134905750Y-119165000D01*
X134747000Y-119323750D01*
X134493000Y-119323750D01*
X134334250Y-119165000D01*
X133770000Y-119161928D01*
X133645518Y-119174188D01*
X133525820Y-119210498D01*
X133415506Y-119269463D01*
X133318815Y-119348815D01*
X133239463Y-119445506D01*
X133180498Y-119555820D01*
X133144188Y-119675518D01*
X133131928Y-119800000D01*
X127130110Y-119800000D01*
X127082852Y-119576652D01*
X126861484Y-119475763D01*
X126624687Y-119420000D01*
X126381562Y-119411505D01*
X126141451Y-119450605D01*
X125913582Y-119535798D01*
X125837148Y-119576652D01*
X125789842Y-119800234D01*
X125672736Y-119683128D01*
X125614858Y-119741006D01*
X125590537Y-119695506D01*
X125511185Y-119598815D01*
X125470000Y-119565015D01*
X125470000Y-113079608D01*
X125474886Y-113030000D01*
X125455385Y-112832005D01*
X125397632Y-112641620D01*
X125303846Y-112466159D01*
X125209256Y-112350900D01*
X125177633Y-112312367D01*
X125139100Y-112280744D01*
X121399261Y-108540906D01*
X121367633Y-108502367D01*
X121213840Y-108376153D01*
X121038380Y-108282368D01*
X120847994Y-108224615D01*
X120699608Y-108210000D01*
X120650000Y-108205114D01*
X120600392Y-108210000D01*
X105828356Y-108210000D01*
X101340000Y-103721645D01*
X101340000Y-103226890D01*
X103968524Y-103226890D01*
X104013175Y-103374099D01*
X104138359Y-103636920D01*
X104312412Y-103870269D01*
X104528645Y-104065178D01*
X104778748Y-104214157D01*
X105053109Y-104311481D01*
X105283000Y-104190814D01*
X105283000Y-102997000D01*
X105537000Y-102997000D01*
X105537000Y-104190814D01*
X105766891Y-104311481D01*
X106041252Y-104214157D01*
X106291355Y-104065178D01*
X106507588Y-103870269D01*
X106681641Y-103636920D01*
X106806825Y-103374099D01*
X106851476Y-103226890D01*
X106730155Y-102997000D01*
X105537000Y-102997000D01*
X105283000Y-102997000D01*
X104089845Y-102997000D01*
X103968524Y-103226890D01*
X101340000Y-103226890D01*
X101340000Y-102919608D01*
X101344886Y-102870000D01*
X101340000Y-102820392D01*
X101340000Y-88949608D01*
X101344886Y-88900000D01*
X101340000Y-88850392D01*
X101340000Y-87528355D01*
X103925000Y-90113356D01*
X103925000Y-90316260D01*
X103982068Y-90603158D01*
X104094010Y-90873411D01*
X104256525Y-91116632D01*
X104463368Y-91323475D01*
X104637760Y-91440000D01*
X104463368Y-91556525D01*
X104256525Y-91763368D01*
X104094010Y-92006589D01*
X103982068Y-92276842D01*
X103925000Y-92563740D01*
X103925000Y-92856260D01*
X103982068Y-93143158D01*
X104094010Y-93413411D01*
X104256525Y-93656632D01*
X104463368Y-93863475D01*
X104637760Y-93980000D01*
X104463368Y-94096525D01*
X104256525Y-94303368D01*
X104094010Y-94546589D01*
X103982068Y-94816842D01*
X103925000Y-95103740D01*
X103925000Y-95396260D01*
X103982068Y-95683158D01*
X104094010Y-95953411D01*
X104256525Y-96196632D01*
X104463368Y-96403475D01*
X104637760Y-96520000D01*
X104463368Y-96636525D01*
X104256525Y-96843368D01*
X104094010Y-97086589D01*
X103982068Y-97356842D01*
X103925000Y-97643740D01*
X103925000Y-97936260D01*
X103982068Y-98223158D01*
X104094010Y-98493411D01*
X104256525Y-98736632D01*
X104463368Y-98943475D01*
X104637760Y-99060000D01*
X104463368Y-99176525D01*
X104256525Y-99383368D01*
X104094010Y-99626589D01*
X103982068Y-99896842D01*
X103925000Y-100183740D01*
X103925000Y-100476260D01*
X103982068Y-100763158D01*
X104094010Y-101033411D01*
X104256525Y-101276632D01*
X104463368Y-101483475D01*
X104645534Y-101605195D01*
X104528645Y-101674822D01*
X104312412Y-101869731D01*
X104138359Y-102103080D01*
X104013175Y-102365901D01*
X103968524Y-102513110D01*
X104089845Y-102743000D01*
X105283000Y-102743000D01*
X105283000Y-102723000D01*
X105537000Y-102723000D01*
X105537000Y-102743000D01*
X106730155Y-102743000D01*
X106851476Y-102513110D01*
X106806825Y-102365901D01*
X106681641Y-102103080D01*
X106507588Y-101869731D01*
X106291355Y-101674822D01*
X106174466Y-101605195D01*
X106356632Y-101483475D01*
X106563475Y-101276632D01*
X106725990Y-101033411D01*
X106837932Y-100763158D01*
X106857322Y-100665678D01*
X108470744Y-102279100D01*
X108502367Y-102317633D01*
X108656160Y-102443847D01*
X108793404Y-102517205D01*
X108831620Y-102537632D01*
X109022005Y-102595385D01*
X109220000Y-102614886D01*
X109269608Y-102610000D01*
X115342377Y-102610000D01*
X115468061Y-102635000D01*
X115671939Y-102635000D01*
X115871898Y-102595226D01*
X116060256Y-102517205D01*
X116229774Y-102403937D01*
X116373937Y-102259774D01*
X116487205Y-102090256D01*
X116565226Y-101901898D01*
X116605000Y-101701939D01*
X116605000Y-101498061D01*
X116565226Y-101298102D01*
X116487205Y-101109744D01*
X116373937Y-100940226D01*
X116229774Y-100796063D01*
X116060256Y-100682795D01*
X115871898Y-100604774D01*
X115671939Y-100565000D01*
X115468061Y-100565000D01*
X115342377Y-100590000D01*
X109638356Y-100590000D01*
X106895000Y-97846645D01*
X106895000Y-97643740D01*
X106837932Y-97356842D01*
X106725990Y-97086589D01*
X106563475Y-96843368D01*
X106356632Y-96636525D01*
X106182240Y-96520000D01*
X106356632Y-96403475D01*
X106563475Y-96196632D01*
X106725990Y-95953411D01*
X106837932Y-95683158D01*
X106895000Y-95396260D01*
X106895000Y-95193355D01*
X107009254Y-95079101D01*
X114979100Y-87109256D01*
X115017633Y-87077633D01*
X115143847Y-86923840D01*
X115237632Y-86748380D01*
X115295385Y-86557994D01*
X115310000Y-86409608D01*
X115310000Y-86409599D01*
X115314885Y-86360001D01*
X115310000Y-86310403D01*
X115310000Y-22680107D01*
X115453475Y-22536632D01*
X115570000Y-22362240D01*
X115686525Y-22536632D01*
X115893368Y-22743475D01*
X116136589Y-22905990D01*
X116406842Y-23017932D01*
X116693740Y-23075000D01*
X116986260Y-23075000D01*
X117273158Y-23017932D01*
X117543411Y-22905990D01*
X117786632Y-22743475D01*
X117993475Y-22536632D01*
X118110000Y-22362240D01*
X118226525Y-22536632D01*
X118370001Y-22680108D01*
X118370000Y-86310392D01*
X118365114Y-86360000D01*
X118384615Y-86557994D01*
X118384616Y-86557996D01*
X118442368Y-86748379D01*
X118536153Y-86923840D01*
X118662367Y-87077633D01*
X118700906Y-87109261D01*
X124245000Y-92653355D01*
X124245000Y-92856260D01*
X124302068Y-93143158D01*
X124414010Y-93413411D01*
X124576525Y-93656632D01*
X124783368Y-93863475D01*
X124957760Y-93980000D01*
X124783368Y-94096525D01*
X124576525Y-94303368D01*
X124414010Y-94546589D01*
X124302068Y-94816842D01*
X124245000Y-95103740D01*
X124245000Y-95396260D01*
X124302068Y-95683158D01*
X124414010Y-95953411D01*
X124576525Y-96196632D01*
X124783368Y-96403475D01*
X124957760Y-96520000D01*
X124783368Y-96636525D01*
X124576525Y-96843368D01*
X124414010Y-97086589D01*
X124302068Y-97356842D01*
X124245000Y-97643740D01*
X124245000Y-97936260D01*
X124302068Y-98223158D01*
X124414010Y-98493411D01*
X124576525Y-98736632D01*
X124783368Y-98943475D01*
X124957760Y-99060000D01*
X124783368Y-99176525D01*
X124576525Y-99383368D01*
X124414010Y-99626589D01*
X124302068Y-99896842D01*
X124245000Y-100183740D01*
X124245000Y-100476260D01*
X124302068Y-100763158D01*
X124414010Y-101033411D01*
X124576525Y-101276632D01*
X124783368Y-101483475D01*
X124957760Y-101600000D01*
X124783368Y-101716525D01*
X124576525Y-101923368D01*
X124414010Y-102166589D01*
X124302068Y-102436842D01*
X124245000Y-102723740D01*
X124245000Y-103016260D01*
X124302068Y-103303158D01*
X124414010Y-103573411D01*
X124576525Y-103816632D01*
X124783368Y-104023475D01*
X125026589Y-104185990D01*
X125296842Y-104297932D01*
X125583740Y-104355000D01*
X125876260Y-104355000D01*
X126163158Y-104297932D01*
X126433411Y-104185990D01*
X126676632Y-104023475D01*
X126883475Y-103816632D01*
X127045990Y-103573411D01*
X127157932Y-103303158D01*
X127215000Y-103016260D01*
X127215000Y-102723740D01*
X127157932Y-102436842D01*
X127045990Y-102166589D01*
X126883475Y-101923368D01*
X126676632Y-101716525D01*
X126502240Y-101600000D01*
X126676632Y-101483475D01*
X126883475Y-101276632D01*
X127045990Y-101033411D01*
X127157932Y-100763158D01*
X127215000Y-100476260D01*
X127215000Y-100183740D01*
X127157932Y-99896842D01*
X127045990Y-99626589D01*
X126883475Y-99383368D01*
X126676632Y-99176525D01*
X126502240Y-99060000D01*
X126676632Y-98943475D01*
X126883475Y-98736632D01*
X127045990Y-98493411D01*
X127157932Y-98223158D01*
X127215000Y-97936260D01*
X127215000Y-97643740D01*
X127157932Y-97356842D01*
X127045990Y-97086589D01*
X126883475Y-96843368D01*
X126676632Y-96636525D01*
X126502240Y-96520000D01*
X126676632Y-96403475D01*
X126883475Y-96196632D01*
X127045990Y-95953411D01*
X127157932Y-95683158D01*
X127215000Y-95396260D01*
X127215000Y-95103740D01*
X127157932Y-94816842D01*
X127045990Y-94546589D01*
X126883475Y-94303368D01*
X126676632Y-94096525D01*
X126502240Y-93980000D01*
X126676632Y-93863475D01*
X126883475Y-93656632D01*
X127045990Y-93413411D01*
X127157932Y-93143158D01*
X127177322Y-93045677D01*
X140843000Y-106711355D01*
X140843000Y-121867394D01*
X132027394Y-130683000D01*
X113077718Y-130683000D01*
X102997000Y-121862372D01*
X102997000Y-111760000D01*
X102994560Y-111735224D01*
X102987333Y-111711399D01*
X102969170Y-111680664D01*
X97889170Y-105330664D01*
X97871787Y-105312841D01*
X97851261Y-105298752D01*
X97828380Y-105288938D01*
X97804025Y-105283777D01*
X97790000Y-105283000D01*
X72517000Y-105283000D01*
X72517000Y-29068665D01*
X76035000Y-29068665D01*
X76035000Y-29351335D01*
X76090147Y-29628574D01*
X76198320Y-29889727D01*
X76355363Y-30124759D01*
X76555241Y-30324637D01*
X76790273Y-30481680D01*
X77051426Y-30589853D01*
X77328665Y-30645000D01*
X77611335Y-30645000D01*
X77888574Y-30589853D01*
X78149727Y-30481680D01*
X78384759Y-30324637D01*
X78584637Y-30124759D01*
X78741680Y-29889727D01*
X78849853Y-29628574D01*
X78905000Y-29351335D01*
X78905000Y-29068665D01*
X96355000Y-29068665D01*
X96355000Y-29351335D01*
X96410147Y-29628574D01*
X96518320Y-29889727D01*
X96675363Y-30124759D01*
X96875241Y-30324637D01*
X97110273Y-30481680D01*
X97371426Y-30589853D01*
X97648665Y-30645000D01*
X97931335Y-30645000D01*
X98208574Y-30589853D01*
X98469727Y-30481680D01*
X98704759Y-30324637D01*
X98904637Y-30124759D01*
X99061680Y-29889727D01*
X99169853Y-29628574D01*
X99225000Y-29351335D01*
X99225000Y-29068665D01*
X99169853Y-28791426D01*
X99061680Y-28530273D01*
X98904637Y-28295241D01*
X98704759Y-28095363D01*
X98469727Y-27938320D01*
X98208574Y-27830147D01*
X97931335Y-27775000D01*
X97648665Y-27775000D01*
X97371426Y-27830147D01*
X97110273Y-27938320D01*
X96875241Y-28095363D01*
X96675363Y-28295241D01*
X96518320Y-28530273D01*
X96410147Y-28791426D01*
X96355000Y-29068665D01*
X78905000Y-29068665D01*
X78849853Y-28791426D01*
X78741680Y-28530273D01*
X78584637Y-28295241D01*
X78384759Y-28095363D01*
X78149727Y-27938320D01*
X77888574Y-27830147D01*
X77611335Y-27775000D01*
X77328665Y-27775000D01*
X77051426Y-27830147D01*
X76790273Y-27938320D01*
X76555241Y-28095363D01*
X76355363Y-28295241D01*
X76198320Y-28530273D01*
X76090147Y-28791426D01*
X76035000Y-29068665D01*
X72517000Y-29068665D01*
X72517000Y-23760000D01*
X73391928Y-23760000D01*
X73404188Y-23884482D01*
X73440498Y-24004180D01*
X73499463Y-24114494D01*
X73578815Y-24211185D01*
X73675506Y-24290537D01*
X73785820Y-24349502D01*
X73905518Y-24385812D01*
X74030000Y-24398072D01*
X74644250Y-24395000D01*
X74803000Y-24236250D01*
X74803000Y-22987000D01*
X73553750Y-22987000D01*
X73395000Y-23145750D01*
X73391928Y-23760000D01*
X72517000Y-23760000D01*
X72517000Y-21960000D01*
X73391928Y-21960000D01*
X73395000Y-22574250D01*
X73553750Y-22733000D01*
X74803000Y-22733000D01*
X74803000Y-21483750D01*
X75057000Y-21483750D01*
X75057000Y-22733000D01*
X75077000Y-22733000D01*
X75077000Y-22987000D01*
X75057000Y-22987000D01*
X75057000Y-24236250D01*
X75215750Y-24395000D01*
X75830000Y-24398072D01*
X75954482Y-24385812D01*
X76074180Y-24349502D01*
X76184494Y-24290537D01*
X76281185Y-24211185D01*
X76360537Y-24114494D01*
X76419502Y-24004180D01*
X76425056Y-23985873D01*
X76491495Y-24052312D01*
X76742905Y-24220299D01*
X77022257Y-24336011D01*
X77318816Y-24395000D01*
X77621184Y-24395000D01*
X77917743Y-24336011D01*
X78197095Y-24220299D01*
X78448505Y-24052312D01*
X78662312Y-23838505D01*
X78830299Y-23587095D01*
X78946011Y-23307743D01*
X79005000Y-23011184D01*
X79005000Y-22708816D01*
X78946011Y-22412257D01*
X78830299Y-22132905D01*
X78662312Y-21881495D01*
X78448505Y-21667688D01*
X78197095Y-21499701D01*
X77917743Y-21383989D01*
X77621184Y-21325000D01*
X77318816Y-21325000D01*
X77022257Y-21383989D01*
X76742905Y-21499701D01*
X76491495Y-21667688D01*
X76425056Y-21734127D01*
X76419502Y-21715820D01*
X76360537Y-21605506D01*
X76281185Y-21508815D01*
X76184494Y-21429463D01*
X76074180Y-21370498D01*
X75954482Y-21334188D01*
X75830000Y-21321928D01*
X75215750Y-21325000D01*
X75057000Y-21483750D01*
X74803000Y-21483750D01*
X74644250Y-21325000D01*
X74030000Y-21321928D01*
X73905518Y-21334188D01*
X73785820Y-21370498D01*
X73675506Y-21429463D01*
X73578815Y-21508815D01*
X73499463Y-21605506D01*
X73440498Y-21715820D01*
X73404188Y-21835518D01*
X73391928Y-21960000D01*
X72517000Y-21960000D01*
X72517000Y-20740000D01*
X86141928Y-20740000D01*
X86141928Y-22440000D01*
X86154188Y-22564482D01*
X86190498Y-22684180D01*
X86249463Y-22794494D01*
X86328815Y-22891185D01*
X86425506Y-22970537D01*
X86535820Y-23029502D01*
X86655518Y-23065812D01*
X86780000Y-23078072D01*
X88480000Y-23078072D01*
X88604482Y-23065812D01*
X88724180Y-23029502D01*
X88834494Y-22970537D01*
X88931185Y-22891185D01*
X89010537Y-22794494D01*
X89069502Y-22684180D01*
X89091513Y-22611620D01*
X89223368Y-22743475D01*
X89466589Y-22905990D01*
X89736842Y-23017932D01*
X90023740Y-23075000D01*
X90316260Y-23075000D01*
X90603158Y-23017932D01*
X90873411Y-22905990D01*
X91116632Y-22743475D01*
X91323475Y-22536632D01*
X91440000Y-22362240D01*
X91556525Y-22536632D01*
X91763368Y-22743475D01*
X92006589Y-22905990D01*
X92276842Y-23017932D01*
X92563740Y-23075000D01*
X92856260Y-23075000D01*
X93143158Y-23017932D01*
X93413411Y-22905990D01*
X93656632Y-22743475D01*
X93863475Y-22536632D01*
X93980000Y-22362240D01*
X94096525Y-22536632D01*
X94303368Y-22743475D01*
X94546589Y-22905990D01*
X94816842Y-23017932D01*
X95103740Y-23075000D01*
X95396260Y-23075000D01*
X95683158Y-23017932D01*
X95953411Y-22905990D01*
X96196632Y-22743475D01*
X96403475Y-22536632D01*
X96520000Y-22362240D01*
X96636525Y-22536632D01*
X96843368Y-22743475D01*
X97086589Y-22905990D01*
X97356842Y-23017932D01*
X97643740Y-23075000D01*
X97936260Y-23075000D01*
X98223158Y-23017932D01*
X98493411Y-22905990D01*
X98736632Y-22743475D01*
X98943475Y-22536632D01*
X99060000Y-22362240D01*
X99176525Y-22536632D01*
X99383368Y-22743475D01*
X99626589Y-22905990D01*
X99896842Y-23017932D01*
X100183740Y-23075000D01*
X100476260Y-23075000D01*
X100763158Y-23017932D01*
X101033411Y-22905990D01*
X101276632Y-22743475D01*
X101483475Y-22536632D01*
X101645990Y-22293411D01*
X101757932Y-22023158D01*
X101815000Y-21736260D01*
X101815000Y-21443740D01*
X101757932Y-21156842D01*
X101645990Y-20886589D01*
X101483475Y-20643368D01*
X101276632Y-20436525D01*
X101033411Y-20274010D01*
X100763158Y-20162068D01*
X100476260Y-20105000D01*
X100183740Y-20105000D01*
X99896842Y-20162068D01*
X99626589Y-20274010D01*
X99383368Y-20436525D01*
X99176525Y-20643368D01*
X99060000Y-20817760D01*
X98943475Y-20643368D01*
X98736632Y-20436525D01*
X98493411Y-20274010D01*
X98223158Y-20162068D01*
X97936260Y-20105000D01*
X97643740Y-20105000D01*
X97356842Y-20162068D01*
X97086589Y-20274010D01*
X96843368Y-20436525D01*
X96636525Y-20643368D01*
X96520000Y-20817760D01*
X96403475Y-20643368D01*
X96196632Y-20436525D01*
X95953411Y-20274010D01*
X95683158Y-20162068D01*
X95396260Y-20105000D01*
X95103740Y-20105000D01*
X94816842Y-20162068D01*
X94546589Y-20274010D01*
X94303368Y-20436525D01*
X94096525Y-20643368D01*
X93980000Y-20817760D01*
X93863475Y-20643368D01*
X93656632Y-20436525D01*
X93413411Y-20274010D01*
X93143158Y-20162068D01*
X92856260Y-20105000D01*
X92563740Y-20105000D01*
X92276842Y-20162068D01*
X92006589Y-20274010D01*
X91763368Y-20436525D01*
X91556525Y-20643368D01*
X91440000Y-20817760D01*
X91323475Y-20643368D01*
X91116632Y-20436525D01*
X90873411Y-20274010D01*
X90603158Y-20162068D01*
X90316260Y-20105000D01*
X90023740Y-20105000D01*
X89736842Y-20162068D01*
X89466589Y-20274010D01*
X89223368Y-20436525D01*
X89091513Y-20568380D01*
X89069502Y-20495820D01*
X89010537Y-20385506D01*
X88931185Y-20288815D01*
X88834494Y-20209463D01*
X88724180Y-20150498D01*
X88604482Y-20114188D01*
X88480000Y-20101928D01*
X86780000Y-20101928D01*
X86655518Y-20114188D01*
X86535820Y-20150498D01*
X86425506Y-20209463D01*
X86328815Y-20288815D01*
X86249463Y-20385506D01*
X86190498Y-20495820D01*
X86154188Y-20615518D01*
X86141928Y-20740000D01*
X72517000Y-20740000D01*
X72517000Y-19177000D01*
X140843000Y-19177000D01*
X140843000Y-103854645D01*
M02*
