G04 #@! TF.GenerationSoftware,KiCad,Pcbnew,(5.1.5)-3*
G04 #@! TF.CreationDate,2020-02-24T17:19:14-05:00*
G04 #@! TF.ProjectId,input board,696e7075-7420-4626-9f61-72642e6b6963,rev?*
G04 #@! TF.SameCoordinates,Original*
G04 #@! TF.FileFunction,Copper,L1,Top*
G04 #@! TF.FilePolarity,Positive*
%FSLAX46Y46*%
G04 Gerber Fmt 4.6, Leading zero omitted, Abs format (unit mm)*
G04 Created by KiCad (PCBNEW (5.1.5)-3) date 2020-02-24 17:19:14*
%MOMM*%
%LPD*%
G04 APERTURE LIST*
%ADD10C,0.050000*%
%ADD11O,1.700000X1.700000*%
%ADD12R,1.700000X1.700000*%
%ADD13R,1.600000X1.600000*%
%ADD14C,1.600000*%
%ADD15R,1.200000X1.200000*%
%ADD16C,1.200000*%
%ADD17O,2.000000X2.000000*%
%ADD18R,2.000000X2.000000*%
%ADD19R,1.295400X0.558800*%
%ADD20O,1.600000X1.600000*%
%ADD21C,1.500000*%
%ADD22R,1.500000X1.500000*%
%ADD23R,0.568000X1.454899*%
%ADD24C,0.800000*%
%ADD25C,0.750000*%
%ADD26C,0.250000*%
G04 APERTURE END LIST*
D10*
X57150000Y-17780000D02*
X207010000Y-17780000D01*
X57150000Y-166370000D02*
X57150000Y-17780000D01*
X207010000Y-166370000D02*
X57150000Y-166370000D01*
X207010000Y-17780000D02*
X207010000Y-166370000D01*
D11*
X125730000Y-21590000D03*
D12*
X128270000Y-21590000D03*
D11*
X100330000Y-21590000D03*
X97790000Y-21590000D03*
X95250000Y-21590000D03*
X92710000Y-21590000D03*
X90170000Y-21590000D03*
D12*
X87630000Y-21590000D03*
D13*
X132080000Y-80010000D03*
D14*
X134580000Y-80010000D03*
D15*
X124460000Y-120650000D03*
D16*
X126460000Y-120650000D03*
D17*
X68580000Y-27940000D03*
D18*
X81280000Y-27940000D03*
X81280000Y-59690000D03*
D17*
X68580000Y-59690000D03*
X68580000Y-91440000D03*
D18*
X81280000Y-91440000D03*
D17*
X68580000Y-123190000D03*
D18*
X81280000Y-123190000D03*
D17*
X189230000Y-96520000D03*
D18*
X176530000Y-96520000D03*
X81280000Y-34290000D03*
D17*
X68580000Y-34290000D03*
D18*
X81280000Y-66040000D03*
D17*
X68580000Y-66040000D03*
D18*
X81280000Y-97790000D03*
D17*
X68580000Y-97790000D03*
D18*
X81280000Y-129540000D03*
D17*
X68580000Y-129540000D03*
X189230000Y-102870000D03*
D18*
X176530000Y-102870000D03*
X81280000Y-40640000D03*
D17*
X68580000Y-40640000D03*
D18*
X81280000Y-72390000D03*
D17*
X68580000Y-72390000D03*
D18*
X81280000Y-104140000D03*
D17*
X68580000Y-104140000D03*
D18*
X81280000Y-135890000D03*
D17*
X68580000Y-135890000D03*
D18*
X176530000Y-109220000D03*
D17*
X189230000Y-109220000D03*
X68580000Y-46990000D03*
D18*
X81280000Y-46990000D03*
D17*
X68580000Y-78740000D03*
D18*
X81280000Y-78740000D03*
D17*
X68580000Y-110490000D03*
D18*
X81280000Y-110490000D03*
D17*
X68580000Y-142240000D03*
D18*
X81280000Y-142240000D03*
D17*
X189230000Y-115570000D03*
D18*
X176530000Y-115570000D03*
X81280000Y-53340000D03*
D17*
X68580000Y-53340000D03*
X68580000Y-85090000D03*
D18*
X81280000Y-85090000D03*
X81280000Y-116840000D03*
D17*
X68580000Y-116840000D03*
X68580000Y-148590000D03*
D18*
X81280000Y-148590000D03*
X176530000Y-121920000D03*
D17*
X189230000Y-121920000D03*
D12*
X134620000Y-120650000D03*
D11*
X59690000Y-45720000D03*
X59690000Y-43180000D03*
X59690000Y-40640000D03*
X59690000Y-38100000D03*
D12*
X59690000Y-35560000D03*
X59690000Y-67310000D03*
D11*
X59690000Y-69850000D03*
X59690000Y-72390000D03*
X59690000Y-74930000D03*
X59690000Y-77470000D03*
X59690000Y-109220000D03*
X59690000Y-106680000D03*
X59690000Y-104140000D03*
X59690000Y-101600000D03*
D12*
X59690000Y-99060000D03*
X59690000Y-130810000D03*
D11*
X59690000Y-133350000D03*
X59690000Y-135890000D03*
X59690000Y-138430000D03*
X59690000Y-140970000D03*
D12*
X198120000Y-104140000D03*
D11*
X198120000Y-106680000D03*
X198120000Y-109220000D03*
X198120000Y-111760000D03*
X198120000Y-114300000D03*
X198120000Y-78740000D03*
X198120000Y-76200000D03*
X198120000Y-73660000D03*
X198120000Y-71120000D03*
D12*
X198120000Y-68580000D03*
X198120000Y-31750000D03*
D11*
X198120000Y-34290000D03*
X198120000Y-36830000D03*
X198120000Y-39370000D03*
X198120000Y-41910000D03*
X149860000Y-30480000D03*
X147320000Y-30480000D03*
X144780000Y-30480000D03*
X142240000Y-30480000D03*
D12*
X139700000Y-30480000D03*
X151130000Y-162560000D03*
D11*
X148590000Y-162560000D03*
X146050000Y-162560000D03*
X143510000Y-162560000D03*
X140970000Y-162560000D03*
X198120000Y-152400000D03*
X198120000Y-149860000D03*
X198120000Y-147320000D03*
X198120000Y-144780000D03*
D12*
X198120000Y-142240000D03*
X111760000Y-21590000D03*
D11*
X114300000Y-21590000D03*
X116840000Y-21590000D03*
X119380000Y-21590000D03*
D12*
X105410000Y-64770000D03*
D11*
X105410000Y-67310000D03*
X105410000Y-69850000D03*
X105410000Y-72390000D03*
X105410000Y-74930000D03*
X105410000Y-77470000D03*
X105410000Y-80010000D03*
X105410000Y-82550000D03*
X105410000Y-85090000D03*
X105410000Y-87630000D03*
X105410000Y-90170000D03*
X105410000Y-92710000D03*
X105410000Y-95250000D03*
X105410000Y-97790000D03*
X105410000Y-100330000D03*
X105410000Y-102870000D03*
D12*
X125730000Y-74930000D03*
D11*
X125730000Y-77470000D03*
X125730000Y-80010000D03*
X125730000Y-82550000D03*
X125730000Y-85090000D03*
X125730000Y-87630000D03*
X125730000Y-90170000D03*
X125730000Y-92710000D03*
X125730000Y-95250000D03*
X125730000Y-97790000D03*
X125730000Y-100330000D03*
X125730000Y-102870000D03*
D19*
X104457500Y-115889999D03*
X104457500Y-117790001D03*
X106362500Y-116840000D03*
D14*
X189230000Y-59690000D03*
D20*
X168910000Y-59690000D03*
X168910000Y-67310000D03*
D14*
X189230000Y-67310000D03*
X189230000Y-73660000D03*
D20*
X168910000Y-73660000D03*
X168910000Y-81280000D03*
D14*
X189230000Y-81280000D03*
X189230000Y-88900000D03*
D20*
X168910000Y-88900000D03*
X168910000Y-21590000D03*
D14*
X189230000Y-21590000D03*
X189230000Y-29210000D03*
D20*
X168910000Y-29210000D03*
X168910000Y-36830000D03*
D14*
X189230000Y-36830000D03*
X189230000Y-44450000D03*
D20*
X168910000Y-44450000D03*
X168910000Y-52070000D03*
D14*
X189230000Y-52070000D03*
X129540000Y-40640000D03*
D20*
X129540000Y-60960000D03*
X137160000Y-60960000D03*
D14*
X137160000Y-40640000D03*
X144780000Y-40640000D03*
D20*
X144780000Y-60960000D03*
X152400000Y-60960000D03*
D14*
X152400000Y-40640000D03*
X160020000Y-40640000D03*
D20*
X160020000Y-60960000D03*
X161290000Y-132080000D03*
D14*
X161290000Y-152400000D03*
X153670000Y-152400000D03*
D20*
X153670000Y-132080000D03*
X146050000Y-132080000D03*
D14*
X146050000Y-152400000D03*
X138430000Y-152400000D03*
D20*
X138430000Y-132080000D03*
X130810000Y-132080000D03*
D14*
X130810000Y-152400000D03*
D20*
X168910000Y-132080000D03*
D14*
X189230000Y-132080000D03*
X189230000Y-139700000D03*
D20*
X168910000Y-139700000D03*
X168910000Y-147320000D03*
D14*
X189230000Y-147320000D03*
X189230000Y-154940000D03*
D20*
X168910000Y-154940000D03*
D14*
X189230000Y-162560000D03*
D20*
X168910000Y-162560000D03*
D14*
X97790000Y-138430000D03*
D20*
X97790000Y-118110000D03*
X91440000Y-115570000D03*
D14*
X91440000Y-135890000D03*
D21*
X102870000Y-148590000D03*
X101600000Y-151130000D03*
X100330000Y-148590000D03*
X99060000Y-151130000D03*
X97790000Y-148590000D03*
X96520000Y-151130000D03*
X95250000Y-148590000D03*
D22*
X93980000Y-151130000D03*
X110490000Y-151130000D03*
D21*
X111760000Y-148590000D03*
X113030000Y-151130000D03*
X114300000Y-148590000D03*
X115570000Y-151130000D03*
X116840000Y-148590000D03*
X118110000Y-151130000D03*
X119380000Y-148590000D03*
D23*
X120015000Y-115388652D03*
X118745000Y-115388652D03*
X117475000Y-115388652D03*
X116205000Y-115388652D03*
X116205000Y-120831348D03*
X117475000Y-120831348D03*
X118745000Y-120831348D03*
X120015000Y-120831348D03*
D24*
X114118652Y-120831348D03*
X100330000Y-63500000D03*
X115570000Y-101600000D03*
D25*
X111251548Y-120831348D02*
X114118652Y-120831348D01*
X106362500Y-116840000D02*
X107260200Y-116840000D01*
X107260200Y-116840000D02*
X111251548Y-120831348D01*
X105410000Y-72390000D02*
X121920000Y-88900000D01*
X121920000Y-88900000D02*
X121920000Y-102870000D01*
X134620000Y-115570000D02*
X134620000Y-120650000D01*
X121920000Y-102870000D02*
X134620000Y-115570000D01*
X114118652Y-120831348D02*
X116205000Y-120831348D01*
D26*
X124278652Y-120831348D02*
X124460000Y-120650000D01*
D25*
X120015000Y-120831348D02*
X124278652Y-120831348D01*
X100330000Y-21590000D02*
X97790000Y-21590000D01*
X87630000Y-21590000D02*
X90170000Y-21590000D01*
X92710000Y-21590000D02*
X95250000Y-21590000D01*
X97790000Y-21590000D02*
X95250000Y-21590000D01*
X92710000Y-21590000D02*
X90170000Y-21590000D01*
X100330000Y-63432081D02*
X104207919Y-67310000D01*
X104207919Y-67310000D02*
X105410000Y-67310000D01*
X100330000Y-21590000D02*
X100330000Y-63432081D01*
X189230000Y-59690000D02*
X198120000Y-68580000D01*
X60960000Y-35560000D02*
X68580000Y-27940000D01*
X59690000Y-35560000D02*
X60960000Y-35560000D01*
X81280000Y-27940000D02*
X81280000Y-34290000D01*
X81280000Y-34290000D02*
X81280000Y-40640000D01*
X81280000Y-40640000D02*
X81280000Y-46990000D01*
X81280000Y-46990000D02*
X81280000Y-53340000D01*
D26*
X81280000Y-53340000D02*
X81280000Y-54590000D01*
D25*
X104207919Y-77470000D02*
X105410000Y-77470000D01*
X103660000Y-77470000D02*
X104207919Y-77470000D01*
X81280000Y-55090000D02*
X103660000Y-77470000D01*
X81280000Y-53340000D02*
X81280000Y-55090000D01*
X81280000Y-59690000D02*
X81280000Y-66040000D01*
X81280000Y-66040000D02*
X81280000Y-72390000D01*
X81280000Y-72390000D02*
X81280000Y-78740000D01*
X81280000Y-78740000D02*
X81280000Y-85090000D01*
X100330000Y-85090000D02*
X105410000Y-80010000D01*
X81280000Y-85090000D02*
X100330000Y-85090000D01*
X193040000Y-71120000D02*
X189230000Y-67310000D01*
X198120000Y-71120000D02*
X193040000Y-71120000D01*
X60960000Y-67310000D02*
X68580000Y-59690000D01*
X59690000Y-67310000D02*
X60960000Y-67310000D01*
X198120000Y-73660000D02*
X189230000Y-73660000D01*
X60960000Y-99060000D02*
X68580000Y-91440000D01*
X59690000Y-99060000D02*
X60960000Y-99060000D01*
X81280000Y-91440000D02*
X81280000Y-97790000D01*
X81280000Y-97790000D02*
X81280000Y-104140000D01*
X96520000Y-91440000D02*
X105410000Y-82550000D01*
X81280000Y-91440000D02*
X96520000Y-91440000D01*
X81280000Y-110490000D02*
X81280000Y-116840000D01*
X81280000Y-110490000D02*
X81280000Y-104140000D01*
X194310000Y-76200000D02*
X189230000Y-81280000D01*
X198120000Y-76200000D02*
X194310000Y-76200000D01*
X60960000Y-130810000D02*
X68580000Y-123190000D01*
X59690000Y-130810000D02*
X60960000Y-130810000D01*
X118745000Y-115388652D02*
X117475000Y-115388652D01*
X117475000Y-115388652D02*
X117475000Y-108585000D01*
X117475000Y-108585000D02*
X110490000Y-101600000D01*
X110490000Y-90170000D02*
X105410000Y-85090000D01*
X110490000Y-101600000D02*
X110490000Y-90170000D01*
X196850000Y-104140000D02*
X189230000Y-96520000D01*
X198120000Y-104140000D02*
X196850000Y-104140000D01*
X198120000Y-80010000D02*
X189230000Y-88900000D01*
X198120000Y-78740000D02*
X198120000Y-80010000D01*
X176530000Y-96520000D02*
X176530000Y-102870000D01*
X176530000Y-102870000D02*
X176530000Y-109220000D01*
X176530000Y-109220000D02*
X176530000Y-115570000D01*
X176530000Y-115570000D02*
X176530000Y-121920000D01*
D26*
X176530000Y-96520000D02*
X175280000Y-96520000D01*
D25*
X176530000Y-94770000D02*
X174470000Y-92710000D01*
X176530000Y-96520000D02*
X176530000Y-94770000D01*
X128270000Y-92710000D02*
X125730000Y-90170000D01*
X174470000Y-92710000D02*
X128270000Y-92710000D01*
X198120000Y-30480000D02*
X189230000Y-21590000D01*
X198120000Y-31750000D02*
X198120000Y-30480000D01*
X64770000Y-38100000D02*
X68580000Y-34290000D01*
X59690000Y-38100000D02*
X64770000Y-38100000D01*
X194310000Y-34290000D02*
X189230000Y-29210000D01*
X198120000Y-34290000D02*
X194310000Y-34290000D01*
X64770000Y-69850000D02*
X68580000Y-66040000D01*
X59690000Y-69850000D02*
X64770000Y-69850000D01*
X198120000Y-36830000D02*
X189230000Y-36830000D01*
X64770000Y-101600000D02*
X68580000Y-97790000D01*
X59690000Y-101600000D02*
X64770000Y-101600000D01*
X194310000Y-39370000D02*
X189230000Y-44450000D01*
X198120000Y-39370000D02*
X194310000Y-39370000D01*
X64770000Y-133350000D02*
X68580000Y-129540000D01*
X59690000Y-133350000D02*
X64770000Y-133350000D01*
X193040000Y-106680000D02*
X189230000Y-102870000D01*
X198120000Y-106680000D02*
X193040000Y-106680000D01*
X198120000Y-43180000D02*
X189230000Y-52070000D01*
X198120000Y-41910000D02*
X198120000Y-43180000D01*
X129540000Y-40640000D02*
X139700000Y-30480000D01*
X59690000Y-40640000D02*
X68580000Y-40640000D01*
X142240000Y-35560000D02*
X137160000Y-40640000D01*
X142240000Y-30480000D02*
X142240000Y-35560000D01*
X59690000Y-72390000D02*
X68580000Y-72390000D01*
X144780000Y-30480000D02*
X144780000Y-40640000D01*
X59690000Y-104140000D02*
X68580000Y-104140000D01*
X147320000Y-35560000D02*
X152400000Y-40640000D01*
X147320000Y-30480000D02*
X147320000Y-35560000D01*
X59690000Y-135890000D02*
X68580000Y-135890000D01*
X198120000Y-109220000D02*
X189230000Y-109220000D01*
X149860000Y-30480000D02*
X160020000Y-40640000D01*
X151130000Y-162560000D02*
X161290000Y-152400000D01*
X64770000Y-43180000D02*
X68580000Y-46990000D01*
X59690000Y-43180000D02*
X64770000Y-43180000D01*
X148590000Y-157480000D02*
X153670000Y-152400000D01*
X148590000Y-162560000D02*
X148590000Y-157480000D01*
X64770000Y-74930000D02*
X68580000Y-78740000D01*
X59690000Y-74930000D02*
X64770000Y-74930000D01*
X146050000Y-162560000D02*
X146050000Y-152400000D01*
X64770000Y-106680000D02*
X68580000Y-110490000D01*
X59690000Y-106680000D02*
X64770000Y-106680000D01*
X143510000Y-157480000D02*
X138430000Y-152400000D01*
X143510000Y-162560000D02*
X143510000Y-157480000D01*
X64770000Y-138430000D02*
X68580000Y-142240000D01*
X59690000Y-138430000D02*
X64770000Y-138430000D01*
X193040000Y-111760000D02*
X189230000Y-115570000D01*
X198120000Y-111760000D02*
X193040000Y-111760000D01*
X140970000Y-162560000D02*
X130810000Y-152400000D01*
X198120000Y-140970000D02*
X189230000Y-132080000D01*
X198120000Y-142240000D02*
X198120000Y-140970000D01*
X60960000Y-45720000D02*
X68580000Y-53340000D01*
X59690000Y-45720000D02*
X60960000Y-45720000D01*
X194310000Y-144780000D02*
X189230000Y-139700000D01*
X198120000Y-144780000D02*
X194310000Y-144780000D01*
X60960000Y-77470000D02*
X68580000Y-85090000D01*
X59690000Y-77470000D02*
X60960000Y-77470000D01*
X198120000Y-147320000D02*
X189230000Y-147320000D01*
X60960000Y-109220000D02*
X68580000Y-116840000D01*
X59690000Y-109220000D02*
X60960000Y-109220000D01*
X194310000Y-149860000D02*
X189230000Y-154940000D01*
X198120000Y-149860000D02*
X194310000Y-149860000D01*
X60960000Y-140970000D02*
X68580000Y-148590000D01*
X59690000Y-140970000D02*
X60960000Y-140970000D01*
X196850000Y-114300000D02*
X189230000Y-121920000D01*
X198120000Y-114300000D02*
X196850000Y-114300000D01*
X198120000Y-153670000D02*
X189230000Y-162560000D01*
X198120000Y-152400000D02*
X198120000Y-153670000D01*
X81280000Y-123190000D02*
X81280000Y-129540000D01*
X81280000Y-129540000D02*
X81280000Y-135890000D01*
X81280000Y-135890000D02*
X81280000Y-142240000D01*
X81280000Y-142240000D02*
X81280000Y-148590000D01*
X81280000Y-121440000D02*
X99060000Y-103660000D01*
X81280000Y-123190000D02*
X81280000Y-121440000D01*
X99060000Y-93980000D02*
X105410000Y-87630000D01*
X99060000Y-103660000D02*
X99060000Y-93980000D01*
X120015000Y-115388652D02*
X120015000Y-106045000D01*
X120015000Y-106045000D02*
X115570000Y-101600000D01*
X115570000Y-101600000D02*
X115570000Y-101600000D01*
X116205000Y-111125000D02*
X105410000Y-100330000D01*
X116205000Y-115388652D02*
X116205000Y-111125000D01*
X160020000Y-60960000D02*
X152400000Y-60960000D01*
X152400000Y-60960000D02*
X144780000Y-60960000D01*
X144780000Y-60960000D02*
X137160000Y-60960000D01*
X137160000Y-60960000D02*
X129540000Y-60960000D01*
X129540000Y-78740000D02*
X125730000Y-82550000D01*
X129540000Y-60960000D02*
X129540000Y-78740000D01*
X168910000Y-21590000D02*
X168910000Y-29210000D01*
X168910000Y-29210000D02*
X168910000Y-36830000D01*
X168910000Y-36830000D02*
X168910000Y-44450000D01*
X168910000Y-44450000D02*
X168910000Y-52070000D01*
X168910000Y-52070000D02*
X165100000Y-55880000D01*
X165100000Y-55880000D02*
X165100000Y-64770000D01*
X165100000Y-64770000D02*
X144780000Y-85090000D01*
X144780000Y-85090000D02*
X125730000Y-85090000D01*
X168910000Y-59690000D02*
X168910000Y-67310000D01*
X168910000Y-67310000D02*
X168910000Y-73660000D01*
X168910000Y-73660000D02*
X168910000Y-81280000D01*
X168910000Y-81280000D02*
X168910000Y-88900000D01*
X127000000Y-88900000D02*
X125730000Y-87630000D01*
X168910000Y-88900000D02*
X127000000Y-88900000D01*
X168910000Y-162560000D02*
X168910000Y-154940000D01*
X168910000Y-154940000D02*
X168910000Y-147320000D01*
X168910000Y-147320000D02*
X168910000Y-139700000D01*
X168910000Y-139700000D02*
X168910000Y-132080000D01*
X132080000Y-95250000D02*
X125730000Y-95250000D01*
X168910000Y-132080000D02*
X132080000Y-95250000D01*
X161290000Y-132080000D02*
X153670000Y-132080000D01*
X146050000Y-132080000D02*
X153670000Y-132080000D01*
X146050000Y-132080000D02*
X138430000Y-132080000D01*
X138430000Y-132080000D02*
X130810000Y-132080000D01*
X146050000Y-118110000D02*
X125730000Y-97790000D01*
X146050000Y-132080000D02*
X146050000Y-118110000D01*
X104137501Y-115570000D02*
X104457500Y-115889999D01*
X91440000Y-115570000D02*
X104137501Y-115570000D01*
X104137501Y-118110000D02*
X104457500Y-117790001D01*
X97790000Y-118110000D02*
X104137501Y-118110000D01*
X98921370Y-138430000D02*
X97790000Y-138430000D01*
X100742800Y-138430000D02*
X98921370Y-138430000D01*
X117475000Y-121697800D02*
X100742800Y-138430000D01*
X117475000Y-120831348D02*
X117475000Y-121697800D01*
D26*
X92239999Y-136689999D02*
X91440000Y-135890000D01*
D25*
X101600000Y-153670000D02*
X99060000Y-151130000D01*
X115570000Y-151130000D02*
X113030000Y-153670000D01*
X118745000Y-122308797D02*
X118745000Y-120831348D01*
X107950000Y-133103797D02*
X118745000Y-122308797D01*
X107950000Y-153670000D02*
X101600000Y-153670000D01*
X113030000Y-153670000D02*
X107950000Y-153670000D01*
X107950000Y-142240000D02*
X107950000Y-133103797D01*
X107950000Y-153670000D02*
X107950000Y-142240000D01*
X91440000Y-135890000D02*
X91440000Y-138430000D01*
X95250000Y-142240000D02*
X107950000Y-142240000D01*
X91440000Y-138430000D02*
X95250000Y-142240000D01*
M02*
