G04 #@! TF.GenerationSoftware,KiCad,Pcbnew,(5.1.5)-3*
G04 #@! TF.CreationDate,2020-03-05T22:20:16-05:00*
G04 #@! TF.ProjectId,input board,696e7075-7420-4626-9f61-72642e6b6963,rev?*
G04 #@! TF.SameCoordinates,Original*
G04 #@! TF.FileFunction,Soldermask,Bot*
G04 #@! TF.FilePolarity,Negative*
%FSLAX46Y46*%
G04 Gerber Fmt 4.6, Leading zero omitted, Abs format (unit mm)*
G04 Created by KiCad (PCBNEW (5.1.5)-3) date 2020-03-05 22:20:16*
%MOMM*%
%LPD*%
G04 APERTURE LIST*
%ADD10C,0.050000*%
%ADD11C,0.150000*%
G04 APERTURE END LIST*
D10*
X62230000Y-17780000D02*
X186690000Y-17780000D01*
X62230000Y-166370000D02*
X62230000Y-17780000D01*
X186690000Y-166370000D02*
X62230000Y-166370000D01*
X186690000Y-17780000D02*
X186690000Y-166370000D01*
D11*
G36*
X137273512Y-161663927D02*
G01*
X137422812Y-161693624D01*
X137586784Y-161761544D01*
X137734354Y-161860147D01*
X137859853Y-161985646D01*
X137958456Y-162133216D01*
X138026376Y-162297188D01*
X138061000Y-162471259D01*
X138061000Y-162648741D01*
X138026376Y-162822812D01*
X137958456Y-162986784D01*
X137859853Y-163134354D01*
X137734354Y-163259853D01*
X137586784Y-163358456D01*
X137422812Y-163426376D01*
X137273512Y-163456073D01*
X137248742Y-163461000D01*
X137071258Y-163461000D01*
X137046488Y-163456073D01*
X136897188Y-163426376D01*
X136733216Y-163358456D01*
X136585646Y-163259853D01*
X136460147Y-163134354D01*
X136361544Y-162986784D01*
X136293624Y-162822812D01*
X136259000Y-162648741D01*
X136259000Y-162471259D01*
X136293624Y-162297188D01*
X136361544Y-162133216D01*
X136460147Y-161985646D01*
X136585646Y-161860147D01*
X136733216Y-161761544D01*
X136897188Y-161693624D01*
X137046488Y-161663927D01*
X137071258Y-161659000D01*
X137248742Y-161659000D01*
X137273512Y-161663927D01*
G37*
G36*
X144893512Y-161663927D02*
G01*
X145042812Y-161693624D01*
X145206784Y-161761544D01*
X145354354Y-161860147D01*
X145479853Y-161985646D01*
X145578456Y-162133216D01*
X145646376Y-162297188D01*
X145681000Y-162471259D01*
X145681000Y-162648741D01*
X145646376Y-162822812D01*
X145578456Y-162986784D01*
X145479853Y-163134354D01*
X145354354Y-163259853D01*
X145206784Y-163358456D01*
X145042812Y-163426376D01*
X144893512Y-163456073D01*
X144868742Y-163461000D01*
X144691258Y-163461000D01*
X144666488Y-163456073D01*
X144517188Y-163426376D01*
X144353216Y-163358456D01*
X144205646Y-163259853D01*
X144080147Y-163134354D01*
X143981544Y-162986784D01*
X143913624Y-162822812D01*
X143879000Y-162648741D01*
X143879000Y-162471259D01*
X143913624Y-162297188D01*
X143981544Y-162133216D01*
X144080147Y-161985646D01*
X144205646Y-161860147D01*
X144353216Y-161761544D01*
X144517188Y-161693624D01*
X144666488Y-161663927D01*
X144691258Y-161659000D01*
X144868742Y-161659000D01*
X144893512Y-161663927D01*
G37*
G36*
X148221000Y-163461000D02*
G01*
X146419000Y-163461000D01*
X146419000Y-161659000D01*
X148221000Y-161659000D01*
X148221000Y-163461000D01*
G37*
G36*
X139813512Y-161663927D02*
G01*
X139962812Y-161693624D01*
X140126784Y-161761544D01*
X140274354Y-161860147D01*
X140399853Y-161985646D01*
X140498456Y-162133216D01*
X140566376Y-162297188D01*
X140601000Y-162471259D01*
X140601000Y-162648741D01*
X140566376Y-162822812D01*
X140498456Y-162986784D01*
X140399853Y-163134354D01*
X140274354Y-163259853D01*
X140126784Y-163358456D01*
X139962812Y-163426376D01*
X139813512Y-163456073D01*
X139788742Y-163461000D01*
X139611258Y-163461000D01*
X139586488Y-163456073D01*
X139437188Y-163426376D01*
X139273216Y-163358456D01*
X139125646Y-163259853D01*
X139000147Y-163134354D01*
X138901544Y-162986784D01*
X138833624Y-162822812D01*
X138799000Y-162648741D01*
X138799000Y-162471259D01*
X138833624Y-162297188D01*
X138901544Y-162133216D01*
X139000147Y-161985646D01*
X139125646Y-161860147D01*
X139273216Y-161761544D01*
X139437188Y-161693624D01*
X139586488Y-161663927D01*
X139611258Y-161659000D01*
X139788742Y-161659000D01*
X139813512Y-161663927D01*
G37*
G36*
X142353512Y-161663927D02*
G01*
X142502812Y-161693624D01*
X142666784Y-161761544D01*
X142814354Y-161860147D01*
X142939853Y-161985646D01*
X143038456Y-162133216D01*
X143106376Y-162297188D01*
X143141000Y-162471259D01*
X143141000Y-162648741D01*
X143106376Y-162822812D01*
X143038456Y-162986784D01*
X142939853Y-163134354D01*
X142814354Y-163259853D01*
X142666784Y-163358456D01*
X142502812Y-163426376D01*
X142353512Y-163456073D01*
X142328742Y-163461000D01*
X142151258Y-163461000D01*
X142126488Y-163456073D01*
X141977188Y-163426376D01*
X141813216Y-163358456D01*
X141665646Y-163259853D01*
X141540147Y-163134354D01*
X141441544Y-162986784D01*
X141373624Y-162822812D01*
X141339000Y-162648741D01*
X141339000Y-162471259D01*
X141373624Y-162297188D01*
X141441544Y-162133216D01*
X141540147Y-161985646D01*
X141665646Y-161860147D01*
X141813216Y-161761544D01*
X141977188Y-161693624D01*
X142126488Y-161663927D01*
X142151258Y-161659000D01*
X142328742Y-161659000D01*
X142353512Y-161663927D01*
G37*
G36*
X182008433Y-160004893D02*
G01*
X182098657Y-160022839D01*
X182204267Y-160066585D01*
X182353621Y-160128449D01*
X182353622Y-160128450D01*
X182583086Y-160281772D01*
X182778228Y-160476914D01*
X182880675Y-160630237D01*
X182931551Y-160706379D01*
X183037161Y-160961344D01*
X183091000Y-161232012D01*
X183091000Y-161507988D01*
X183037161Y-161778656D01*
X182931551Y-162033621D01*
X182931550Y-162033622D01*
X182778228Y-162263086D01*
X182583086Y-162458228D01*
X182429763Y-162560675D01*
X182353621Y-162611551D01*
X182204267Y-162673415D01*
X182098657Y-162717161D01*
X182008433Y-162735107D01*
X181827988Y-162771000D01*
X181552012Y-162771000D01*
X181371567Y-162735107D01*
X181281343Y-162717161D01*
X181175733Y-162673415D01*
X181026379Y-162611551D01*
X180950237Y-162560675D01*
X180796914Y-162458228D01*
X180601772Y-162263086D01*
X180448450Y-162033622D01*
X180448449Y-162033621D01*
X180342839Y-161778656D01*
X180289000Y-161507988D01*
X180289000Y-161232012D01*
X180342839Y-160961344D01*
X180448449Y-160706379D01*
X180499325Y-160630237D01*
X180601772Y-160476914D01*
X180796914Y-160281772D01*
X181026378Y-160128450D01*
X181026379Y-160128449D01*
X181175733Y-160066585D01*
X181281343Y-160022839D01*
X181371567Y-160004893D01*
X181552012Y-159969000D01*
X181827988Y-159969000D01*
X182008433Y-160004893D01*
G37*
G36*
X67548433Y-160004893D02*
G01*
X67638657Y-160022839D01*
X67744267Y-160066585D01*
X67893621Y-160128449D01*
X67893622Y-160128450D01*
X68123086Y-160281772D01*
X68318228Y-160476914D01*
X68420675Y-160630237D01*
X68471551Y-160706379D01*
X68577161Y-160961344D01*
X68631000Y-161232012D01*
X68631000Y-161507988D01*
X68577161Y-161778656D01*
X68471551Y-162033621D01*
X68471550Y-162033622D01*
X68318228Y-162263086D01*
X68123086Y-162458228D01*
X67969763Y-162560675D01*
X67893621Y-162611551D01*
X67744267Y-162673415D01*
X67638657Y-162717161D01*
X67548433Y-162735107D01*
X67367988Y-162771000D01*
X67092012Y-162771000D01*
X66911567Y-162735107D01*
X66821343Y-162717161D01*
X66715733Y-162673415D01*
X66566379Y-162611551D01*
X66490237Y-162560675D01*
X66336914Y-162458228D01*
X66141772Y-162263086D01*
X65988450Y-162033622D01*
X65988449Y-162033621D01*
X65882839Y-161778656D01*
X65829000Y-161507988D01*
X65829000Y-161232012D01*
X65882839Y-160961344D01*
X65988449Y-160706379D01*
X66039325Y-160630237D01*
X66141772Y-160476914D01*
X66336914Y-160281772D01*
X66566378Y-160128450D01*
X66566379Y-160128449D01*
X66715733Y-160066585D01*
X66821343Y-160022839D01*
X66911567Y-160004893D01*
X67092012Y-159969000D01*
X67367988Y-159969000D01*
X67548433Y-160004893D01*
G37*
G36*
X93085256Y-155871298D02*
G01*
X93191579Y-155892447D01*
X93492042Y-156016903D01*
X93762451Y-156197585D01*
X93992415Y-156427549D01*
X94173097Y-156697958D01*
X94297553Y-156998421D01*
X94361000Y-157317391D01*
X94361000Y-157642609D01*
X94297553Y-157961579D01*
X94173097Y-158262042D01*
X93992415Y-158532451D01*
X93762451Y-158762415D01*
X93492042Y-158943097D01*
X93191579Y-159067553D01*
X93085256Y-159088702D01*
X92872611Y-159131000D01*
X92547389Y-159131000D01*
X92334744Y-159088702D01*
X92228421Y-159067553D01*
X91927958Y-158943097D01*
X91657549Y-158762415D01*
X91427585Y-158532451D01*
X91246903Y-158262042D01*
X91122447Y-157961579D01*
X91059000Y-157642609D01*
X91059000Y-157317391D01*
X91122447Y-156998421D01*
X91246903Y-156697958D01*
X91427585Y-156427549D01*
X91657549Y-156197585D01*
X91927958Y-156016903D01*
X92228421Y-155892447D01*
X92334744Y-155871298D01*
X92547389Y-155829000D01*
X92872611Y-155829000D01*
X93085256Y-155871298D01*
G37*
G36*
X104515256Y-155871298D02*
G01*
X104621579Y-155892447D01*
X104922042Y-156016903D01*
X105192451Y-156197585D01*
X105422415Y-156427549D01*
X105603097Y-156697958D01*
X105727553Y-156998421D01*
X105791000Y-157317391D01*
X105791000Y-157642609D01*
X105727553Y-157961579D01*
X105603097Y-158262042D01*
X105422415Y-158532451D01*
X105192451Y-158762415D01*
X104922042Y-158943097D01*
X104621579Y-159067553D01*
X104515256Y-159088702D01*
X104302611Y-159131000D01*
X103977389Y-159131000D01*
X103764744Y-159088702D01*
X103658421Y-159067553D01*
X103357958Y-158943097D01*
X103087549Y-158762415D01*
X102857585Y-158532451D01*
X102676903Y-158262042D01*
X102552447Y-157961579D01*
X102489000Y-157642609D01*
X102489000Y-157317391D01*
X102552447Y-156998421D01*
X102676903Y-156697958D01*
X102857585Y-156427549D01*
X103087549Y-156197585D01*
X103357958Y-156016903D01*
X103658421Y-155892447D01*
X103764744Y-155871298D01*
X103977389Y-155829000D01*
X104302611Y-155829000D01*
X104515256Y-155871298D01*
G37*
G36*
X121025256Y-155871298D02*
G01*
X121131579Y-155892447D01*
X121432042Y-156016903D01*
X121702451Y-156197585D01*
X121932415Y-156427549D01*
X122113097Y-156697958D01*
X122237553Y-156998421D01*
X122301000Y-157317391D01*
X122301000Y-157642609D01*
X122237553Y-157961579D01*
X122113097Y-158262042D01*
X121932415Y-158532451D01*
X121702451Y-158762415D01*
X121432042Y-158943097D01*
X121131579Y-159067553D01*
X121025256Y-159088702D01*
X120812611Y-159131000D01*
X120487389Y-159131000D01*
X120274744Y-159088702D01*
X120168421Y-159067553D01*
X119867958Y-158943097D01*
X119597549Y-158762415D01*
X119367585Y-158532451D01*
X119186903Y-158262042D01*
X119062447Y-157961579D01*
X118999000Y-157642609D01*
X118999000Y-157317391D01*
X119062447Y-156998421D01*
X119186903Y-156697958D01*
X119367585Y-156427549D01*
X119597549Y-156197585D01*
X119867958Y-156016903D01*
X120168421Y-155892447D01*
X120274744Y-155871298D01*
X120487389Y-155829000D01*
X120812611Y-155829000D01*
X121025256Y-155871298D01*
G37*
G36*
X109595256Y-155871298D02*
G01*
X109701579Y-155892447D01*
X110002042Y-156016903D01*
X110272451Y-156197585D01*
X110502415Y-156427549D01*
X110683097Y-156697958D01*
X110807553Y-156998421D01*
X110871000Y-157317391D01*
X110871000Y-157642609D01*
X110807553Y-157961579D01*
X110683097Y-158262042D01*
X110502415Y-158532451D01*
X110272451Y-158762415D01*
X110002042Y-158943097D01*
X109701579Y-159067553D01*
X109595256Y-159088702D01*
X109382611Y-159131000D01*
X109057389Y-159131000D01*
X108844744Y-159088702D01*
X108738421Y-159067553D01*
X108437958Y-158943097D01*
X108167549Y-158762415D01*
X107937585Y-158532451D01*
X107756903Y-158262042D01*
X107632447Y-157961579D01*
X107569000Y-157642609D01*
X107569000Y-157317391D01*
X107632447Y-156998421D01*
X107756903Y-156697958D01*
X107937585Y-156427549D01*
X108167549Y-156197585D01*
X108437958Y-156016903D01*
X108738421Y-155892447D01*
X108844744Y-155871298D01*
X109057389Y-155829000D01*
X109382611Y-155829000D01*
X109595256Y-155871298D01*
G37*
G36*
X130591000Y-153451000D02*
G01*
X128489000Y-153451000D01*
X128489000Y-151349000D01*
X130591000Y-151349000D01*
X130591000Y-153451000D01*
G37*
G36*
X136941000Y-153451000D02*
G01*
X134839000Y-153451000D01*
X134839000Y-151349000D01*
X136941000Y-151349000D01*
X136941000Y-153451000D01*
G37*
G36*
X143291000Y-153451000D02*
G01*
X141189000Y-153451000D01*
X141189000Y-151349000D01*
X143291000Y-151349000D01*
X143291000Y-153451000D01*
G37*
G36*
X149641000Y-153451000D02*
G01*
X147539000Y-153451000D01*
X147539000Y-151349000D01*
X149641000Y-151349000D01*
X149641000Y-153451000D01*
G37*
G36*
X155991000Y-153451000D02*
G01*
X153889000Y-153451000D01*
X153889000Y-151349000D01*
X155991000Y-151349000D01*
X155991000Y-153451000D01*
G37*
G36*
X99293642Y-150359781D02*
G01*
X99439414Y-150420162D01*
X99439416Y-150420163D01*
X99570608Y-150507822D01*
X99682178Y-150619392D01*
X99769837Y-150750584D01*
X99769838Y-150750586D01*
X99830219Y-150896358D01*
X99861000Y-151051107D01*
X99861000Y-151208893D01*
X99830219Y-151363642D01*
X99769838Y-151509414D01*
X99769837Y-151509416D01*
X99682178Y-151640608D01*
X99570608Y-151752178D01*
X99439416Y-151839837D01*
X99439415Y-151839838D01*
X99439414Y-151839838D01*
X99293642Y-151900219D01*
X99138893Y-151931000D01*
X98981107Y-151931000D01*
X98826358Y-151900219D01*
X98680586Y-151839838D01*
X98680585Y-151839838D01*
X98680584Y-151839837D01*
X98549392Y-151752178D01*
X98437822Y-151640608D01*
X98350163Y-151509416D01*
X98350162Y-151509414D01*
X98289781Y-151363642D01*
X98259000Y-151208893D01*
X98259000Y-151051107D01*
X98289781Y-150896358D01*
X98350162Y-150750586D01*
X98350163Y-150750584D01*
X98437822Y-150619392D01*
X98549392Y-150507822D01*
X98680584Y-150420163D01*
X98680586Y-150420162D01*
X98826358Y-150359781D01*
X98981107Y-150329000D01*
X99138893Y-150329000D01*
X99293642Y-150359781D01*
G37*
G36*
X113263642Y-150359781D02*
G01*
X113409414Y-150420162D01*
X113409416Y-150420163D01*
X113540608Y-150507822D01*
X113652178Y-150619392D01*
X113739837Y-150750584D01*
X113739838Y-150750586D01*
X113800219Y-150896358D01*
X113831000Y-151051107D01*
X113831000Y-151208893D01*
X113800219Y-151363642D01*
X113739838Y-151509414D01*
X113739837Y-151509416D01*
X113652178Y-151640608D01*
X113540608Y-151752178D01*
X113409416Y-151839837D01*
X113409415Y-151839838D01*
X113409414Y-151839838D01*
X113263642Y-151900219D01*
X113108893Y-151931000D01*
X112951107Y-151931000D01*
X112796358Y-151900219D01*
X112650586Y-151839838D01*
X112650585Y-151839838D01*
X112650584Y-151839837D01*
X112519392Y-151752178D01*
X112407822Y-151640608D01*
X112320163Y-151509416D01*
X112320162Y-151509414D01*
X112259781Y-151363642D01*
X112229000Y-151208893D01*
X112229000Y-151051107D01*
X112259781Y-150896358D01*
X112320162Y-150750586D01*
X112320163Y-150750584D01*
X112407822Y-150619392D01*
X112519392Y-150507822D01*
X112650584Y-150420163D01*
X112650586Y-150420162D01*
X112796358Y-150359781D01*
X112951107Y-150329000D01*
X113108893Y-150329000D01*
X113263642Y-150359781D01*
G37*
G36*
X115803642Y-150359781D02*
G01*
X115949414Y-150420162D01*
X115949416Y-150420163D01*
X116080608Y-150507822D01*
X116192178Y-150619392D01*
X116279837Y-150750584D01*
X116279838Y-150750586D01*
X116340219Y-150896358D01*
X116371000Y-151051107D01*
X116371000Y-151208893D01*
X116340219Y-151363642D01*
X116279838Y-151509414D01*
X116279837Y-151509416D01*
X116192178Y-151640608D01*
X116080608Y-151752178D01*
X115949416Y-151839837D01*
X115949415Y-151839838D01*
X115949414Y-151839838D01*
X115803642Y-151900219D01*
X115648893Y-151931000D01*
X115491107Y-151931000D01*
X115336358Y-151900219D01*
X115190586Y-151839838D01*
X115190585Y-151839838D01*
X115190584Y-151839837D01*
X115059392Y-151752178D01*
X114947822Y-151640608D01*
X114860163Y-151509416D01*
X114860162Y-151509414D01*
X114799781Y-151363642D01*
X114769000Y-151208893D01*
X114769000Y-151051107D01*
X114799781Y-150896358D01*
X114860162Y-150750586D01*
X114860163Y-150750584D01*
X114947822Y-150619392D01*
X115059392Y-150507822D01*
X115190584Y-150420163D01*
X115190586Y-150420162D01*
X115336358Y-150359781D01*
X115491107Y-150329000D01*
X115648893Y-150329000D01*
X115803642Y-150359781D01*
G37*
G36*
X118343642Y-150359781D02*
G01*
X118489414Y-150420162D01*
X118489416Y-150420163D01*
X118620608Y-150507822D01*
X118732178Y-150619392D01*
X118819837Y-150750584D01*
X118819838Y-150750586D01*
X118880219Y-150896358D01*
X118911000Y-151051107D01*
X118911000Y-151208893D01*
X118880219Y-151363642D01*
X118819838Y-151509414D01*
X118819837Y-151509416D01*
X118732178Y-151640608D01*
X118620608Y-151752178D01*
X118489416Y-151839837D01*
X118489415Y-151839838D01*
X118489414Y-151839838D01*
X118343642Y-151900219D01*
X118188893Y-151931000D01*
X118031107Y-151931000D01*
X117876358Y-151900219D01*
X117730586Y-151839838D01*
X117730585Y-151839838D01*
X117730584Y-151839837D01*
X117599392Y-151752178D01*
X117487822Y-151640608D01*
X117400163Y-151509416D01*
X117400162Y-151509414D01*
X117339781Y-151363642D01*
X117309000Y-151208893D01*
X117309000Y-151051107D01*
X117339781Y-150896358D01*
X117400162Y-150750586D01*
X117400163Y-150750584D01*
X117487822Y-150619392D01*
X117599392Y-150507822D01*
X117730584Y-150420163D01*
X117730586Y-150420162D01*
X117876358Y-150359781D01*
X118031107Y-150329000D01*
X118188893Y-150329000D01*
X118343642Y-150359781D01*
G37*
G36*
X94781000Y-151931000D02*
G01*
X93179000Y-151931000D01*
X93179000Y-150329000D01*
X94781000Y-150329000D01*
X94781000Y-151931000D01*
G37*
G36*
X111291000Y-151931000D02*
G01*
X109689000Y-151931000D01*
X109689000Y-150329000D01*
X111291000Y-150329000D01*
X111291000Y-151931000D01*
G37*
G36*
X96753642Y-150359781D02*
G01*
X96899414Y-150420162D01*
X96899416Y-150420163D01*
X97030608Y-150507822D01*
X97142178Y-150619392D01*
X97229837Y-150750584D01*
X97229838Y-150750586D01*
X97290219Y-150896358D01*
X97321000Y-151051107D01*
X97321000Y-151208893D01*
X97290219Y-151363642D01*
X97229838Y-151509414D01*
X97229837Y-151509416D01*
X97142178Y-151640608D01*
X97030608Y-151752178D01*
X96899416Y-151839837D01*
X96899415Y-151839838D01*
X96899414Y-151839838D01*
X96753642Y-151900219D01*
X96598893Y-151931000D01*
X96441107Y-151931000D01*
X96286358Y-151900219D01*
X96140586Y-151839838D01*
X96140585Y-151839838D01*
X96140584Y-151839837D01*
X96009392Y-151752178D01*
X95897822Y-151640608D01*
X95810163Y-151509416D01*
X95810162Y-151509414D01*
X95749781Y-151363642D01*
X95719000Y-151208893D01*
X95719000Y-151051107D01*
X95749781Y-150896358D01*
X95810162Y-150750586D01*
X95810163Y-150750584D01*
X95897822Y-150619392D01*
X96009392Y-150507822D01*
X96140584Y-150420163D01*
X96140586Y-150420162D01*
X96286358Y-150359781D01*
X96441107Y-150329000D01*
X96598893Y-150329000D01*
X96753642Y-150359781D01*
G37*
G36*
X101833642Y-150359781D02*
G01*
X101979414Y-150420162D01*
X101979416Y-150420163D01*
X102110608Y-150507822D01*
X102222178Y-150619392D01*
X102309837Y-150750584D01*
X102309838Y-150750586D01*
X102370219Y-150896358D01*
X102401000Y-151051107D01*
X102401000Y-151208893D01*
X102370219Y-151363642D01*
X102309838Y-151509414D01*
X102309837Y-151509416D01*
X102222178Y-151640608D01*
X102110608Y-151752178D01*
X101979416Y-151839837D01*
X101979415Y-151839838D01*
X101979414Y-151839838D01*
X101833642Y-151900219D01*
X101678893Y-151931000D01*
X101521107Y-151931000D01*
X101366358Y-151900219D01*
X101220586Y-151839838D01*
X101220585Y-151839838D01*
X101220584Y-151839837D01*
X101089392Y-151752178D01*
X100977822Y-151640608D01*
X100890163Y-151509416D01*
X100890162Y-151509414D01*
X100829781Y-151363642D01*
X100799000Y-151208893D01*
X100799000Y-151051107D01*
X100829781Y-150896358D01*
X100890162Y-150750586D01*
X100890163Y-150750584D01*
X100977822Y-150619392D01*
X101089392Y-150507822D01*
X101220584Y-150420163D01*
X101220586Y-150420162D01*
X101366358Y-150359781D01*
X101521107Y-150329000D01*
X101678893Y-150329000D01*
X101833642Y-150359781D01*
G37*
G36*
X95483642Y-147819781D02*
G01*
X95629414Y-147880162D01*
X95629416Y-147880163D01*
X95760608Y-147967822D01*
X95872178Y-148079392D01*
X95959837Y-148210584D01*
X95959838Y-148210586D01*
X96020219Y-148356358D01*
X96051000Y-148511107D01*
X96051000Y-148668893D01*
X96020219Y-148823642D01*
X95959838Y-148969414D01*
X95959837Y-148969416D01*
X95872178Y-149100608D01*
X95760608Y-149212178D01*
X95629416Y-149299837D01*
X95629415Y-149299838D01*
X95629414Y-149299838D01*
X95483642Y-149360219D01*
X95328893Y-149391000D01*
X95171107Y-149391000D01*
X95016358Y-149360219D01*
X94870586Y-149299838D01*
X94870585Y-149299838D01*
X94870584Y-149299837D01*
X94739392Y-149212178D01*
X94627822Y-149100608D01*
X94540163Y-148969416D01*
X94540162Y-148969414D01*
X94479781Y-148823642D01*
X94449000Y-148668893D01*
X94449000Y-148511107D01*
X94479781Y-148356358D01*
X94540162Y-148210586D01*
X94540163Y-148210584D01*
X94627822Y-148079392D01*
X94739392Y-147967822D01*
X94870584Y-147880163D01*
X94870586Y-147880162D01*
X95016358Y-147819781D01*
X95171107Y-147789000D01*
X95328893Y-147789000D01*
X95483642Y-147819781D01*
G37*
G36*
X111993642Y-147819781D02*
G01*
X112139414Y-147880162D01*
X112139416Y-147880163D01*
X112270608Y-147967822D01*
X112382178Y-148079392D01*
X112469837Y-148210584D01*
X112469838Y-148210586D01*
X112530219Y-148356358D01*
X112561000Y-148511107D01*
X112561000Y-148668893D01*
X112530219Y-148823642D01*
X112469838Y-148969414D01*
X112469837Y-148969416D01*
X112382178Y-149100608D01*
X112270608Y-149212178D01*
X112139416Y-149299837D01*
X112139415Y-149299838D01*
X112139414Y-149299838D01*
X111993642Y-149360219D01*
X111838893Y-149391000D01*
X111681107Y-149391000D01*
X111526358Y-149360219D01*
X111380586Y-149299838D01*
X111380585Y-149299838D01*
X111380584Y-149299837D01*
X111249392Y-149212178D01*
X111137822Y-149100608D01*
X111050163Y-148969416D01*
X111050162Y-148969414D01*
X110989781Y-148823642D01*
X110959000Y-148668893D01*
X110959000Y-148511107D01*
X110989781Y-148356358D01*
X111050162Y-148210586D01*
X111050163Y-148210584D01*
X111137822Y-148079392D01*
X111249392Y-147967822D01*
X111380584Y-147880163D01*
X111380586Y-147880162D01*
X111526358Y-147819781D01*
X111681107Y-147789000D01*
X111838893Y-147789000D01*
X111993642Y-147819781D01*
G37*
G36*
X98023642Y-147819781D02*
G01*
X98169414Y-147880162D01*
X98169416Y-147880163D01*
X98300608Y-147967822D01*
X98412178Y-148079392D01*
X98499837Y-148210584D01*
X98499838Y-148210586D01*
X98560219Y-148356358D01*
X98591000Y-148511107D01*
X98591000Y-148668893D01*
X98560219Y-148823642D01*
X98499838Y-148969414D01*
X98499837Y-148969416D01*
X98412178Y-149100608D01*
X98300608Y-149212178D01*
X98169416Y-149299837D01*
X98169415Y-149299838D01*
X98169414Y-149299838D01*
X98023642Y-149360219D01*
X97868893Y-149391000D01*
X97711107Y-149391000D01*
X97556358Y-149360219D01*
X97410586Y-149299838D01*
X97410585Y-149299838D01*
X97410584Y-149299837D01*
X97279392Y-149212178D01*
X97167822Y-149100608D01*
X97080163Y-148969416D01*
X97080162Y-148969414D01*
X97019781Y-148823642D01*
X96989000Y-148668893D01*
X96989000Y-148511107D01*
X97019781Y-148356358D01*
X97080162Y-148210586D01*
X97080163Y-148210584D01*
X97167822Y-148079392D01*
X97279392Y-147967822D01*
X97410584Y-147880163D01*
X97410586Y-147880162D01*
X97556358Y-147819781D01*
X97711107Y-147789000D01*
X97868893Y-147789000D01*
X98023642Y-147819781D01*
G37*
G36*
X114533642Y-147819781D02*
G01*
X114679414Y-147880162D01*
X114679416Y-147880163D01*
X114810608Y-147967822D01*
X114922178Y-148079392D01*
X115009837Y-148210584D01*
X115009838Y-148210586D01*
X115070219Y-148356358D01*
X115101000Y-148511107D01*
X115101000Y-148668893D01*
X115070219Y-148823642D01*
X115009838Y-148969414D01*
X115009837Y-148969416D01*
X114922178Y-149100608D01*
X114810608Y-149212178D01*
X114679416Y-149299837D01*
X114679415Y-149299838D01*
X114679414Y-149299838D01*
X114533642Y-149360219D01*
X114378893Y-149391000D01*
X114221107Y-149391000D01*
X114066358Y-149360219D01*
X113920586Y-149299838D01*
X113920585Y-149299838D01*
X113920584Y-149299837D01*
X113789392Y-149212178D01*
X113677822Y-149100608D01*
X113590163Y-148969416D01*
X113590162Y-148969414D01*
X113529781Y-148823642D01*
X113499000Y-148668893D01*
X113499000Y-148511107D01*
X113529781Y-148356358D01*
X113590162Y-148210586D01*
X113590163Y-148210584D01*
X113677822Y-148079392D01*
X113789392Y-147967822D01*
X113920584Y-147880163D01*
X113920586Y-147880162D01*
X114066358Y-147819781D01*
X114221107Y-147789000D01*
X114378893Y-147789000D01*
X114533642Y-147819781D01*
G37*
G36*
X103103642Y-147819781D02*
G01*
X103249414Y-147880162D01*
X103249416Y-147880163D01*
X103380608Y-147967822D01*
X103492178Y-148079392D01*
X103579837Y-148210584D01*
X103579838Y-148210586D01*
X103640219Y-148356358D01*
X103671000Y-148511107D01*
X103671000Y-148668893D01*
X103640219Y-148823642D01*
X103579838Y-148969414D01*
X103579837Y-148969416D01*
X103492178Y-149100608D01*
X103380608Y-149212178D01*
X103249416Y-149299837D01*
X103249415Y-149299838D01*
X103249414Y-149299838D01*
X103103642Y-149360219D01*
X102948893Y-149391000D01*
X102791107Y-149391000D01*
X102636358Y-149360219D01*
X102490586Y-149299838D01*
X102490585Y-149299838D01*
X102490584Y-149299837D01*
X102359392Y-149212178D01*
X102247822Y-149100608D01*
X102160163Y-148969416D01*
X102160162Y-148969414D01*
X102099781Y-148823642D01*
X102069000Y-148668893D01*
X102069000Y-148511107D01*
X102099781Y-148356358D01*
X102160162Y-148210586D01*
X102160163Y-148210584D01*
X102247822Y-148079392D01*
X102359392Y-147967822D01*
X102490584Y-147880163D01*
X102490586Y-147880162D01*
X102636358Y-147819781D01*
X102791107Y-147789000D01*
X102948893Y-147789000D01*
X103103642Y-147819781D01*
G37*
G36*
X117073642Y-147819781D02*
G01*
X117219414Y-147880162D01*
X117219416Y-147880163D01*
X117350608Y-147967822D01*
X117462178Y-148079392D01*
X117549837Y-148210584D01*
X117549838Y-148210586D01*
X117610219Y-148356358D01*
X117641000Y-148511107D01*
X117641000Y-148668893D01*
X117610219Y-148823642D01*
X117549838Y-148969414D01*
X117549837Y-148969416D01*
X117462178Y-149100608D01*
X117350608Y-149212178D01*
X117219416Y-149299837D01*
X117219415Y-149299838D01*
X117219414Y-149299838D01*
X117073642Y-149360219D01*
X116918893Y-149391000D01*
X116761107Y-149391000D01*
X116606358Y-149360219D01*
X116460586Y-149299838D01*
X116460585Y-149299838D01*
X116460584Y-149299837D01*
X116329392Y-149212178D01*
X116217822Y-149100608D01*
X116130163Y-148969416D01*
X116130162Y-148969414D01*
X116069781Y-148823642D01*
X116039000Y-148668893D01*
X116039000Y-148511107D01*
X116069781Y-148356358D01*
X116130162Y-148210586D01*
X116130163Y-148210584D01*
X116217822Y-148079392D01*
X116329392Y-147967822D01*
X116460584Y-147880163D01*
X116460586Y-147880162D01*
X116606358Y-147819781D01*
X116761107Y-147789000D01*
X116918893Y-147789000D01*
X117073642Y-147819781D01*
G37*
G36*
X119613642Y-147819781D02*
G01*
X119759414Y-147880162D01*
X119759416Y-147880163D01*
X119890608Y-147967822D01*
X120002178Y-148079392D01*
X120089837Y-148210584D01*
X120089838Y-148210586D01*
X120150219Y-148356358D01*
X120181000Y-148511107D01*
X120181000Y-148668893D01*
X120150219Y-148823642D01*
X120089838Y-148969414D01*
X120089837Y-148969416D01*
X120002178Y-149100608D01*
X119890608Y-149212178D01*
X119759416Y-149299837D01*
X119759415Y-149299838D01*
X119759414Y-149299838D01*
X119613642Y-149360219D01*
X119458893Y-149391000D01*
X119301107Y-149391000D01*
X119146358Y-149360219D01*
X119000586Y-149299838D01*
X119000585Y-149299838D01*
X119000584Y-149299837D01*
X118869392Y-149212178D01*
X118757822Y-149100608D01*
X118670163Y-148969416D01*
X118670162Y-148969414D01*
X118609781Y-148823642D01*
X118579000Y-148668893D01*
X118579000Y-148511107D01*
X118609781Y-148356358D01*
X118670162Y-148210586D01*
X118670163Y-148210584D01*
X118757822Y-148079392D01*
X118869392Y-147967822D01*
X119000584Y-147880163D01*
X119000586Y-147880162D01*
X119146358Y-147819781D01*
X119301107Y-147789000D01*
X119458893Y-147789000D01*
X119613642Y-147819781D01*
G37*
G36*
X100563642Y-147819781D02*
G01*
X100709414Y-147880162D01*
X100709416Y-147880163D01*
X100840608Y-147967822D01*
X100952178Y-148079392D01*
X101039837Y-148210584D01*
X101039838Y-148210586D01*
X101100219Y-148356358D01*
X101131000Y-148511107D01*
X101131000Y-148668893D01*
X101100219Y-148823642D01*
X101039838Y-148969414D01*
X101039837Y-148969416D01*
X100952178Y-149100608D01*
X100840608Y-149212178D01*
X100709416Y-149299837D01*
X100709415Y-149299838D01*
X100709414Y-149299838D01*
X100563642Y-149360219D01*
X100408893Y-149391000D01*
X100251107Y-149391000D01*
X100096358Y-149360219D01*
X99950586Y-149299838D01*
X99950585Y-149299838D01*
X99950584Y-149299837D01*
X99819392Y-149212178D01*
X99707822Y-149100608D01*
X99620163Y-148969416D01*
X99620162Y-148969414D01*
X99559781Y-148823642D01*
X99529000Y-148668893D01*
X99529000Y-148511107D01*
X99559781Y-148356358D01*
X99620162Y-148210586D01*
X99620163Y-148210584D01*
X99707822Y-148079392D01*
X99819392Y-147967822D01*
X99950584Y-147880163D01*
X99950586Y-147880162D01*
X100096358Y-147819781D01*
X100251107Y-147789000D01*
X100408893Y-147789000D01*
X100563642Y-147819781D01*
G37*
G36*
X136196564Y-138689389D02*
G01*
X136387833Y-138768615D01*
X136387835Y-138768616D01*
X136559973Y-138883635D01*
X136706365Y-139030027D01*
X136809345Y-139184147D01*
X136821385Y-139202167D01*
X136900611Y-139393436D01*
X136941000Y-139596484D01*
X136941000Y-139803516D01*
X136900611Y-140006564D01*
X136821385Y-140197833D01*
X136821384Y-140197835D01*
X136706365Y-140369973D01*
X136559973Y-140516365D01*
X136387835Y-140631384D01*
X136387834Y-140631385D01*
X136387833Y-140631385D01*
X136196564Y-140710611D01*
X135993516Y-140751000D01*
X135786484Y-140751000D01*
X135583436Y-140710611D01*
X135392167Y-140631385D01*
X135392166Y-140631385D01*
X135392165Y-140631384D01*
X135220027Y-140516365D01*
X135073635Y-140369973D01*
X134958616Y-140197835D01*
X134958615Y-140197833D01*
X134879389Y-140006564D01*
X134839000Y-139803516D01*
X134839000Y-139596484D01*
X134879389Y-139393436D01*
X134958615Y-139202167D01*
X134970656Y-139184147D01*
X135073635Y-139030027D01*
X135220027Y-138883635D01*
X135392165Y-138768616D01*
X135392167Y-138768615D01*
X135583436Y-138689389D01*
X135786484Y-138649000D01*
X135993516Y-138649000D01*
X136196564Y-138689389D01*
G37*
G36*
X155246564Y-138689389D02*
G01*
X155437833Y-138768615D01*
X155437835Y-138768616D01*
X155609973Y-138883635D01*
X155756365Y-139030027D01*
X155859345Y-139184147D01*
X155871385Y-139202167D01*
X155950611Y-139393436D01*
X155991000Y-139596484D01*
X155991000Y-139803516D01*
X155950611Y-140006564D01*
X155871385Y-140197833D01*
X155871384Y-140197835D01*
X155756365Y-140369973D01*
X155609973Y-140516365D01*
X155437835Y-140631384D01*
X155437834Y-140631385D01*
X155437833Y-140631385D01*
X155246564Y-140710611D01*
X155043516Y-140751000D01*
X154836484Y-140751000D01*
X154633436Y-140710611D01*
X154442167Y-140631385D01*
X154442166Y-140631385D01*
X154442165Y-140631384D01*
X154270027Y-140516365D01*
X154123635Y-140369973D01*
X154008616Y-140197835D01*
X154008615Y-140197833D01*
X153929389Y-140006564D01*
X153889000Y-139803516D01*
X153889000Y-139596484D01*
X153929389Y-139393436D01*
X154008615Y-139202167D01*
X154020656Y-139184147D01*
X154123635Y-139030027D01*
X154270027Y-138883635D01*
X154442165Y-138768616D01*
X154442167Y-138768615D01*
X154633436Y-138689389D01*
X154836484Y-138649000D01*
X155043516Y-138649000D01*
X155246564Y-138689389D01*
G37*
G36*
X148896564Y-138689389D02*
G01*
X149087833Y-138768615D01*
X149087835Y-138768616D01*
X149259973Y-138883635D01*
X149406365Y-139030027D01*
X149509345Y-139184147D01*
X149521385Y-139202167D01*
X149600611Y-139393436D01*
X149641000Y-139596484D01*
X149641000Y-139803516D01*
X149600611Y-140006564D01*
X149521385Y-140197833D01*
X149521384Y-140197835D01*
X149406365Y-140369973D01*
X149259973Y-140516365D01*
X149087835Y-140631384D01*
X149087834Y-140631385D01*
X149087833Y-140631385D01*
X148896564Y-140710611D01*
X148693516Y-140751000D01*
X148486484Y-140751000D01*
X148283436Y-140710611D01*
X148092167Y-140631385D01*
X148092166Y-140631385D01*
X148092165Y-140631384D01*
X147920027Y-140516365D01*
X147773635Y-140369973D01*
X147658616Y-140197835D01*
X147658615Y-140197833D01*
X147579389Y-140006564D01*
X147539000Y-139803516D01*
X147539000Y-139596484D01*
X147579389Y-139393436D01*
X147658615Y-139202167D01*
X147670656Y-139184147D01*
X147773635Y-139030027D01*
X147920027Y-138883635D01*
X148092165Y-138768616D01*
X148092167Y-138768615D01*
X148283436Y-138689389D01*
X148486484Y-138649000D01*
X148693516Y-138649000D01*
X148896564Y-138689389D01*
G37*
G36*
X142546564Y-138689389D02*
G01*
X142737833Y-138768615D01*
X142737835Y-138768616D01*
X142909973Y-138883635D01*
X143056365Y-139030027D01*
X143159345Y-139184147D01*
X143171385Y-139202167D01*
X143250611Y-139393436D01*
X143291000Y-139596484D01*
X143291000Y-139803516D01*
X143250611Y-140006564D01*
X143171385Y-140197833D01*
X143171384Y-140197835D01*
X143056365Y-140369973D01*
X142909973Y-140516365D01*
X142737835Y-140631384D01*
X142737834Y-140631385D01*
X142737833Y-140631385D01*
X142546564Y-140710611D01*
X142343516Y-140751000D01*
X142136484Y-140751000D01*
X141933436Y-140710611D01*
X141742167Y-140631385D01*
X141742166Y-140631385D01*
X141742165Y-140631384D01*
X141570027Y-140516365D01*
X141423635Y-140369973D01*
X141308616Y-140197835D01*
X141308615Y-140197833D01*
X141229389Y-140006564D01*
X141189000Y-139803516D01*
X141189000Y-139596484D01*
X141229389Y-139393436D01*
X141308615Y-139202167D01*
X141320656Y-139184147D01*
X141423635Y-139030027D01*
X141570027Y-138883635D01*
X141742165Y-138768616D01*
X141742167Y-138768615D01*
X141933436Y-138689389D01*
X142136484Y-138649000D01*
X142343516Y-138649000D01*
X142546564Y-138689389D01*
G37*
G36*
X129846564Y-138689389D02*
G01*
X130037833Y-138768615D01*
X130037835Y-138768616D01*
X130209973Y-138883635D01*
X130356365Y-139030027D01*
X130459345Y-139184147D01*
X130471385Y-139202167D01*
X130550611Y-139393436D01*
X130591000Y-139596484D01*
X130591000Y-139803516D01*
X130550611Y-140006564D01*
X130471385Y-140197833D01*
X130471384Y-140197835D01*
X130356365Y-140369973D01*
X130209973Y-140516365D01*
X130037835Y-140631384D01*
X130037834Y-140631385D01*
X130037833Y-140631385D01*
X129846564Y-140710611D01*
X129643516Y-140751000D01*
X129436484Y-140751000D01*
X129233436Y-140710611D01*
X129042167Y-140631385D01*
X129042166Y-140631385D01*
X129042165Y-140631384D01*
X128870027Y-140516365D01*
X128723635Y-140369973D01*
X128608616Y-140197835D01*
X128608615Y-140197833D01*
X128529389Y-140006564D01*
X128489000Y-139803516D01*
X128489000Y-139596484D01*
X128529389Y-139393436D01*
X128608615Y-139202167D01*
X128620656Y-139184147D01*
X128723635Y-139030027D01*
X128870027Y-138883635D01*
X129042165Y-138768616D01*
X129042167Y-138768615D01*
X129233436Y-138689389D01*
X129436484Y-138649000D01*
X129643516Y-138649000D01*
X129846564Y-138689389D01*
G37*
G36*
X98038228Y-137611703D02*
G01*
X98193100Y-137675853D01*
X98332481Y-137768985D01*
X98451015Y-137887519D01*
X98544147Y-138026900D01*
X98608297Y-138181772D01*
X98641000Y-138346184D01*
X98641000Y-138513816D01*
X98608297Y-138678228D01*
X98544147Y-138833100D01*
X98451015Y-138972481D01*
X98332481Y-139091015D01*
X98193100Y-139184147D01*
X98038228Y-139248297D01*
X97873816Y-139281000D01*
X97706184Y-139281000D01*
X97541772Y-139248297D01*
X97386900Y-139184147D01*
X97247519Y-139091015D01*
X97128985Y-138972481D01*
X97035853Y-138833100D01*
X96971703Y-138678228D01*
X96939000Y-138513816D01*
X96939000Y-138346184D01*
X96971703Y-138181772D01*
X97035853Y-138026900D01*
X97128985Y-137887519D01*
X97247519Y-137768985D01*
X97386900Y-137675853D01*
X97541772Y-137611703D01*
X97706184Y-137579000D01*
X97873816Y-137579000D01*
X98038228Y-137611703D01*
G37*
G36*
X175041000Y-138211000D02*
G01*
X172939000Y-138211000D01*
X172939000Y-136109000D01*
X175041000Y-136109000D01*
X175041000Y-138211000D01*
G37*
G36*
X161596564Y-136149389D02*
G01*
X161787833Y-136228615D01*
X161787835Y-136228616D01*
X161959973Y-136343635D01*
X162106365Y-136490027D01*
X162209345Y-136644147D01*
X162221385Y-136662167D01*
X162300611Y-136853436D01*
X162341000Y-137056484D01*
X162341000Y-137263516D01*
X162300611Y-137466564D01*
X162240492Y-137611705D01*
X162221384Y-137657835D01*
X162106365Y-137829973D01*
X161959973Y-137976365D01*
X161787835Y-138091384D01*
X161787834Y-138091385D01*
X161787833Y-138091385D01*
X161596564Y-138170611D01*
X161393516Y-138211000D01*
X161186484Y-138211000D01*
X160983436Y-138170611D01*
X160792167Y-138091385D01*
X160792166Y-138091385D01*
X160792165Y-138091384D01*
X160620027Y-137976365D01*
X160473635Y-137829973D01*
X160358616Y-137657835D01*
X160339508Y-137611705D01*
X160279389Y-137466564D01*
X160239000Y-137263516D01*
X160239000Y-137056484D01*
X160279389Y-136853436D01*
X160358615Y-136662167D01*
X160370656Y-136644147D01*
X160473635Y-136490027D01*
X160620027Y-136343635D01*
X160792165Y-136228616D01*
X160792167Y-136228615D01*
X160983436Y-136149389D01*
X161186484Y-136109000D01*
X161393516Y-136109000D01*
X161596564Y-136149389D01*
G37*
G36*
X91688228Y-135071703D02*
G01*
X91843100Y-135135853D01*
X91982481Y-135228985D01*
X92101015Y-135347519D01*
X92194147Y-135486900D01*
X92258297Y-135641772D01*
X92291000Y-135806184D01*
X92291000Y-135973816D01*
X92258297Y-136138228D01*
X92194147Y-136293100D01*
X92101015Y-136432481D01*
X91982481Y-136551015D01*
X91843100Y-136644147D01*
X91688228Y-136708297D01*
X91523816Y-136741000D01*
X91356184Y-136741000D01*
X91191772Y-136708297D01*
X91036900Y-136644147D01*
X90897519Y-136551015D01*
X90778985Y-136432481D01*
X90685853Y-136293100D01*
X90621703Y-136138228D01*
X90589000Y-135973816D01*
X90589000Y-135806184D01*
X90621703Y-135641772D01*
X90685853Y-135486900D01*
X90778985Y-135347519D01*
X90897519Y-135228985D01*
X91036900Y-135135853D01*
X91191772Y-135071703D01*
X91356184Y-135039000D01*
X91523816Y-135039000D01*
X91688228Y-135071703D01*
G37*
G36*
X175041000Y-131861000D02*
G01*
X172939000Y-131861000D01*
X172939000Y-129759000D01*
X175041000Y-129759000D01*
X175041000Y-131861000D01*
G37*
G36*
X161596564Y-129799389D02*
G01*
X161787833Y-129878615D01*
X161787835Y-129878616D01*
X161959973Y-129993635D01*
X162106365Y-130140027D01*
X162173067Y-130239853D01*
X162221385Y-130312167D01*
X162300611Y-130503436D01*
X162341000Y-130706484D01*
X162341000Y-130913516D01*
X162300611Y-131116564D01*
X162221385Y-131307833D01*
X162221384Y-131307835D01*
X162106365Y-131479973D01*
X161959973Y-131626365D01*
X161787835Y-131741384D01*
X161787834Y-131741385D01*
X161787833Y-131741385D01*
X161596564Y-131820611D01*
X161393516Y-131861000D01*
X161186484Y-131861000D01*
X160983436Y-131820611D01*
X160792167Y-131741385D01*
X160792166Y-131741385D01*
X160792165Y-131741384D01*
X160620027Y-131626365D01*
X160473635Y-131479973D01*
X160358616Y-131307835D01*
X160358615Y-131307833D01*
X160279389Y-131116564D01*
X160239000Y-130913516D01*
X160239000Y-130706484D01*
X160279389Y-130503436D01*
X160358615Y-130312167D01*
X160406934Y-130239853D01*
X160473635Y-130140027D01*
X160620027Y-129993635D01*
X160792165Y-129878616D01*
X160792167Y-129878615D01*
X160983436Y-129799389D01*
X161186484Y-129759000D01*
X161393516Y-129759000D01*
X161596564Y-129799389D01*
G37*
G36*
X184263512Y-128643927D02*
G01*
X184412812Y-128673624D01*
X184576784Y-128741544D01*
X184724354Y-128840147D01*
X184849853Y-128965646D01*
X184948456Y-129113216D01*
X185016376Y-129277188D01*
X185051000Y-129451259D01*
X185051000Y-129628741D01*
X185016376Y-129802812D01*
X184948456Y-129966784D01*
X184849853Y-130114354D01*
X184724354Y-130239853D01*
X184576784Y-130338456D01*
X184412812Y-130406376D01*
X184263512Y-130436073D01*
X184238742Y-130441000D01*
X184061258Y-130441000D01*
X184036488Y-130436073D01*
X183887188Y-130406376D01*
X183723216Y-130338456D01*
X183575646Y-130239853D01*
X183450147Y-130114354D01*
X183351544Y-129966784D01*
X183283624Y-129802812D01*
X183249000Y-129628741D01*
X183249000Y-129451259D01*
X183283624Y-129277188D01*
X183351544Y-129113216D01*
X183450147Y-128965646D01*
X183575646Y-128840147D01*
X183723216Y-128741544D01*
X183887188Y-128673624D01*
X184036488Y-128643927D01*
X184061258Y-128639000D01*
X184238742Y-128639000D01*
X184263512Y-128643927D01*
G37*
G36*
X184263512Y-126103927D02*
G01*
X184412812Y-126133624D01*
X184576784Y-126201544D01*
X184724354Y-126300147D01*
X184849853Y-126425646D01*
X184948456Y-126573216D01*
X185016376Y-126737188D01*
X185051000Y-126911259D01*
X185051000Y-127088741D01*
X185016376Y-127262812D01*
X184948456Y-127426784D01*
X184849853Y-127574354D01*
X184724354Y-127699853D01*
X184576784Y-127798456D01*
X184412812Y-127866376D01*
X184263512Y-127896073D01*
X184238742Y-127901000D01*
X184061258Y-127901000D01*
X184036488Y-127896073D01*
X183887188Y-127866376D01*
X183723216Y-127798456D01*
X183575646Y-127699853D01*
X183450147Y-127574354D01*
X183351544Y-127426784D01*
X183283624Y-127262812D01*
X183249000Y-127088741D01*
X183249000Y-126911259D01*
X183283624Y-126737188D01*
X183351544Y-126573216D01*
X183450147Y-126425646D01*
X183575646Y-126300147D01*
X183723216Y-126201544D01*
X183887188Y-126133624D01*
X184036488Y-126103927D01*
X184061258Y-126099000D01*
X184238742Y-126099000D01*
X184263512Y-126103927D01*
G37*
G36*
X175041000Y-125511000D02*
G01*
X172939000Y-125511000D01*
X172939000Y-123409000D01*
X175041000Y-123409000D01*
X175041000Y-125511000D01*
G37*
G36*
X161596564Y-123449389D02*
G01*
X161787833Y-123528615D01*
X161787835Y-123528616D01*
X161959973Y-123643635D01*
X162106365Y-123790027D01*
X162170256Y-123885646D01*
X162221385Y-123962167D01*
X162300611Y-124153436D01*
X162341000Y-124356484D01*
X162341000Y-124563516D01*
X162300611Y-124766564D01*
X162250815Y-124886782D01*
X162221384Y-124957835D01*
X162106365Y-125129973D01*
X161959973Y-125276365D01*
X161787835Y-125391384D01*
X161787834Y-125391385D01*
X161787833Y-125391385D01*
X161596564Y-125470611D01*
X161393516Y-125511000D01*
X161186484Y-125511000D01*
X160983436Y-125470611D01*
X160792167Y-125391385D01*
X160792166Y-125391385D01*
X160792165Y-125391384D01*
X160620027Y-125276365D01*
X160473635Y-125129973D01*
X160358616Y-124957835D01*
X160329185Y-124886782D01*
X160279389Y-124766564D01*
X160239000Y-124563516D01*
X160239000Y-124356484D01*
X160279389Y-124153436D01*
X160358615Y-123962167D01*
X160409745Y-123885646D01*
X160473635Y-123790027D01*
X160620027Y-123643635D01*
X160792165Y-123528616D01*
X160792167Y-123528615D01*
X160983436Y-123449389D01*
X161186484Y-123409000D01*
X161393516Y-123409000D01*
X161596564Y-123449389D01*
G37*
G36*
X184263512Y-123563927D02*
G01*
X184412812Y-123593624D01*
X184576784Y-123661544D01*
X184724354Y-123760147D01*
X184849853Y-123885646D01*
X184948456Y-124033216D01*
X185016376Y-124197188D01*
X185051000Y-124371259D01*
X185051000Y-124548741D01*
X185016376Y-124722812D01*
X184948456Y-124886784D01*
X184849853Y-125034354D01*
X184724354Y-125159853D01*
X184576784Y-125258456D01*
X184412812Y-125326376D01*
X184263512Y-125356073D01*
X184238742Y-125361000D01*
X184061258Y-125361000D01*
X184036488Y-125356073D01*
X183887188Y-125326376D01*
X183723216Y-125258456D01*
X183575646Y-125159853D01*
X183450147Y-125034354D01*
X183351544Y-124886784D01*
X183283624Y-124722812D01*
X183249000Y-124548741D01*
X183249000Y-124371259D01*
X183283624Y-124197188D01*
X183351544Y-124033216D01*
X183450147Y-123885646D01*
X183575646Y-123760147D01*
X183723216Y-123661544D01*
X183887188Y-123593624D01*
X184036488Y-123563927D01*
X184061258Y-123559000D01*
X184238742Y-123559000D01*
X184263512Y-123563927D01*
G37*
G36*
X184263512Y-121023927D02*
G01*
X184412812Y-121053624D01*
X184576784Y-121121544D01*
X184724354Y-121220147D01*
X184849853Y-121345646D01*
X184948456Y-121493216D01*
X185016376Y-121657188D01*
X185051000Y-121831259D01*
X185051000Y-122008741D01*
X185016376Y-122182812D01*
X184948456Y-122346784D01*
X184849853Y-122494354D01*
X184724354Y-122619853D01*
X184576784Y-122718456D01*
X184412812Y-122786376D01*
X184263512Y-122816073D01*
X184238742Y-122821000D01*
X184061258Y-122821000D01*
X184036488Y-122816073D01*
X183887188Y-122786376D01*
X183723216Y-122718456D01*
X183575646Y-122619853D01*
X183450147Y-122494354D01*
X183351544Y-122346784D01*
X183283624Y-122182812D01*
X183249000Y-122008741D01*
X183249000Y-121831259D01*
X183283624Y-121657188D01*
X183351544Y-121493216D01*
X183450147Y-121345646D01*
X183575646Y-121220147D01*
X183723216Y-121121544D01*
X183887188Y-121053624D01*
X184036488Y-121023927D01*
X184061258Y-121019000D01*
X184238742Y-121019000D01*
X184263512Y-121023927D01*
G37*
G36*
X135521000Y-121551000D02*
G01*
X133719000Y-121551000D01*
X133719000Y-119749000D01*
X135521000Y-119749000D01*
X135521000Y-121551000D01*
G37*
G36*
X125111000Y-121301000D02*
G01*
X123809000Y-121301000D01*
X123809000Y-119999000D01*
X125111000Y-119999000D01*
X125111000Y-121301000D01*
G37*
G36*
X126649890Y-120024017D02*
G01*
X126768364Y-120073091D01*
X126874988Y-120144335D01*
X126965665Y-120235012D01*
X127036909Y-120341636D01*
X127085983Y-120460110D01*
X127111000Y-120585882D01*
X127111000Y-120714118D01*
X127085983Y-120839890D01*
X127036909Y-120958364D01*
X126965665Y-121064988D01*
X126874988Y-121155665D01*
X126768364Y-121226909D01*
X126768363Y-121226910D01*
X126768362Y-121226910D01*
X126649890Y-121275983D01*
X126524119Y-121301000D01*
X126395881Y-121301000D01*
X126270110Y-121275983D01*
X126151638Y-121226910D01*
X126151637Y-121226910D01*
X126151636Y-121226909D01*
X126045012Y-121155665D01*
X125954335Y-121064988D01*
X125883091Y-120958364D01*
X125834017Y-120839890D01*
X125809000Y-120714118D01*
X125809000Y-120585882D01*
X125834017Y-120460110D01*
X125883091Y-120341636D01*
X125954335Y-120235012D01*
X126045012Y-120144335D01*
X126151636Y-120073091D01*
X126270110Y-120024017D01*
X126395881Y-119999000D01*
X126524119Y-119999000D01*
X126649890Y-120024017D01*
G37*
G36*
X185051000Y-120281000D02*
G01*
X183249000Y-120281000D01*
X183249000Y-118479000D01*
X185051000Y-118479000D01*
X185051000Y-120281000D01*
G37*
G36*
X175041000Y-119161000D02*
G01*
X172939000Y-119161000D01*
X172939000Y-117059000D01*
X175041000Y-117059000D01*
X175041000Y-119161000D01*
G37*
G36*
X161596564Y-117099389D02*
G01*
X161787833Y-117178615D01*
X161787835Y-117178616D01*
X161908138Y-117259000D01*
X161959973Y-117293635D01*
X162106365Y-117440027D01*
X162221385Y-117612167D01*
X162300611Y-117803436D01*
X162341000Y-118006484D01*
X162341000Y-118213516D01*
X162300611Y-118416564D01*
X162221385Y-118607833D01*
X162221384Y-118607835D01*
X162106365Y-118779973D01*
X161959973Y-118926365D01*
X161787835Y-119041384D01*
X161787834Y-119041385D01*
X161787833Y-119041385D01*
X161596564Y-119120611D01*
X161393516Y-119161000D01*
X161186484Y-119161000D01*
X160983436Y-119120611D01*
X160792167Y-119041385D01*
X160792166Y-119041385D01*
X160792165Y-119041384D01*
X160620027Y-118926365D01*
X160473635Y-118779973D01*
X160358616Y-118607835D01*
X160358615Y-118607833D01*
X160279389Y-118416564D01*
X160239000Y-118213516D01*
X160239000Y-118006484D01*
X160279389Y-117803436D01*
X160358615Y-117612167D01*
X160473635Y-117440027D01*
X160620027Y-117293635D01*
X160671862Y-117259000D01*
X160792165Y-117178616D01*
X160792167Y-117178615D01*
X160983436Y-117099389D01*
X161186484Y-117059000D01*
X161393516Y-117059000D01*
X161596564Y-117099389D01*
G37*
G36*
X98038228Y-117291703D02*
G01*
X98193100Y-117355853D01*
X98332481Y-117448985D01*
X98451015Y-117567519D01*
X98544147Y-117706900D01*
X98608297Y-117861772D01*
X98641000Y-118026184D01*
X98641000Y-118193816D01*
X98608297Y-118358228D01*
X98544147Y-118513100D01*
X98451015Y-118652481D01*
X98332481Y-118771015D01*
X98193100Y-118864147D01*
X98038228Y-118928297D01*
X97873816Y-118961000D01*
X97706184Y-118961000D01*
X97541772Y-118928297D01*
X97386900Y-118864147D01*
X97247519Y-118771015D01*
X97128985Y-118652481D01*
X97035853Y-118513100D01*
X96971703Y-118358228D01*
X96939000Y-118193816D01*
X96939000Y-118026184D01*
X96971703Y-117861772D01*
X97035853Y-117706900D01*
X97128985Y-117567519D01*
X97247519Y-117448985D01*
X97386900Y-117355853D01*
X97541772Y-117291703D01*
X97706184Y-117259000D01*
X97873816Y-117259000D01*
X98038228Y-117291703D01*
G37*
G36*
X91688228Y-114751703D02*
G01*
X91843100Y-114815853D01*
X91982481Y-114908985D01*
X92101015Y-115027519D01*
X92194147Y-115166900D01*
X92258297Y-115321772D01*
X92291000Y-115486184D01*
X92291000Y-115653816D01*
X92258297Y-115818228D01*
X92194147Y-115973100D01*
X92101015Y-116112481D01*
X91982481Y-116231015D01*
X91843100Y-116324147D01*
X91688228Y-116388297D01*
X91523816Y-116421000D01*
X91356184Y-116421000D01*
X91191772Y-116388297D01*
X91036900Y-116324147D01*
X90897519Y-116231015D01*
X90778985Y-116112481D01*
X90685853Y-115973100D01*
X90621703Y-115818228D01*
X90589000Y-115653816D01*
X90589000Y-115486184D01*
X90621703Y-115321772D01*
X90685853Y-115166900D01*
X90778985Y-115027519D01*
X90897519Y-114908985D01*
X91036900Y-114815853D01*
X91191772Y-114751703D01*
X91356184Y-114719000D01*
X91523816Y-114719000D01*
X91688228Y-114751703D01*
G37*
G36*
X64883512Y-112133927D02*
G01*
X65032812Y-112163624D01*
X65196784Y-112231544D01*
X65344354Y-112330147D01*
X65469853Y-112455646D01*
X65568456Y-112603216D01*
X65636376Y-112767188D01*
X65671000Y-112941259D01*
X65671000Y-113118741D01*
X65636376Y-113292812D01*
X65568456Y-113456784D01*
X65469853Y-113604354D01*
X65344354Y-113729853D01*
X65196784Y-113828456D01*
X65032812Y-113896376D01*
X64883512Y-113926073D01*
X64858742Y-113931000D01*
X64681258Y-113931000D01*
X64656488Y-113926073D01*
X64507188Y-113896376D01*
X64343216Y-113828456D01*
X64195646Y-113729853D01*
X64070147Y-113604354D01*
X63971544Y-113456784D01*
X63903624Y-113292812D01*
X63869000Y-113118741D01*
X63869000Y-112941259D01*
X63903624Y-112767188D01*
X63971544Y-112603216D01*
X64070147Y-112455646D01*
X64195646Y-112330147D01*
X64343216Y-112231544D01*
X64507188Y-112163624D01*
X64656488Y-112133927D01*
X64681258Y-112129000D01*
X64858742Y-112129000D01*
X64883512Y-112133927D01*
G37*
G36*
X175041000Y-112811000D02*
G01*
X172939000Y-112811000D01*
X172939000Y-110709000D01*
X175041000Y-110709000D01*
X175041000Y-112811000D01*
G37*
G36*
X161596564Y-110749389D02*
G01*
X161787833Y-110828615D01*
X161787835Y-110828616D01*
X161959973Y-110943635D01*
X162106365Y-111090027D01*
X162173067Y-111189853D01*
X162221385Y-111262167D01*
X162300611Y-111453436D01*
X162341000Y-111656484D01*
X162341000Y-111863516D01*
X162300611Y-112066564D01*
X162260407Y-112163625D01*
X162221384Y-112257835D01*
X162106365Y-112429973D01*
X161959973Y-112576365D01*
X161787835Y-112691384D01*
X161787834Y-112691385D01*
X161787833Y-112691385D01*
X161596564Y-112770611D01*
X161393516Y-112811000D01*
X161186484Y-112811000D01*
X160983436Y-112770611D01*
X160792167Y-112691385D01*
X160792166Y-112691385D01*
X160792165Y-112691384D01*
X160620027Y-112576365D01*
X160473635Y-112429973D01*
X160358616Y-112257835D01*
X160319593Y-112163625D01*
X160279389Y-112066564D01*
X160239000Y-111863516D01*
X160239000Y-111656484D01*
X160279389Y-111453436D01*
X160358615Y-111262167D01*
X160406934Y-111189853D01*
X160473635Y-111090027D01*
X160620027Y-110943635D01*
X160792165Y-110828616D01*
X160792167Y-110828615D01*
X160983436Y-110749389D01*
X161186484Y-110709000D01*
X161393516Y-110709000D01*
X161596564Y-110749389D01*
G37*
G36*
X64883512Y-109593927D02*
G01*
X65032812Y-109623624D01*
X65196784Y-109691544D01*
X65344354Y-109790147D01*
X65469853Y-109915646D01*
X65568456Y-110063216D01*
X65636376Y-110227188D01*
X65671000Y-110401259D01*
X65671000Y-110578741D01*
X65636376Y-110752812D01*
X65568456Y-110916784D01*
X65469853Y-111064354D01*
X65344354Y-111189853D01*
X65196784Y-111288456D01*
X65032812Y-111356376D01*
X64883512Y-111386073D01*
X64858742Y-111391000D01*
X64681258Y-111391000D01*
X64656488Y-111386073D01*
X64507188Y-111356376D01*
X64343216Y-111288456D01*
X64195646Y-111189853D01*
X64070147Y-111064354D01*
X63971544Y-110916784D01*
X63903624Y-110752812D01*
X63869000Y-110578741D01*
X63869000Y-110401259D01*
X63903624Y-110227188D01*
X63971544Y-110063216D01*
X64070147Y-109915646D01*
X64195646Y-109790147D01*
X64343216Y-109691544D01*
X64507188Y-109623624D01*
X64656488Y-109593927D01*
X64681258Y-109589000D01*
X64858742Y-109589000D01*
X64883512Y-109593927D01*
G37*
G36*
X64883512Y-107053927D02*
G01*
X65032812Y-107083624D01*
X65196784Y-107151544D01*
X65344354Y-107250147D01*
X65469853Y-107375646D01*
X65568456Y-107523216D01*
X65636376Y-107687188D01*
X65671000Y-107861259D01*
X65671000Y-108038741D01*
X65636376Y-108212812D01*
X65568456Y-108376784D01*
X65469853Y-108524354D01*
X65344354Y-108649853D01*
X65196784Y-108748456D01*
X65032812Y-108816376D01*
X64883512Y-108846073D01*
X64858742Y-108851000D01*
X64681258Y-108851000D01*
X64656488Y-108846073D01*
X64507188Y-108816376D01*
X64343216Y-108748456D01*
X64195646Y-108649853D01*
X64070147Y-108524354D01*
X63971544Y-108376784D01*
X63903624Y-108212812D01*
X63869000Y-108038741D01*
X63869000Y-107861259D01*
X63903624Y-107687188D01*
X63971544Y-107523216D01*
X64070147Y-107375646D01*
X64195646Y-107250147D01*
X64343216Y-107151544D01*
X64507188Y-107083624D01*
X64656488Y-107053927D01*
X64681258Y-107049000D01*
X64858742Y-107049000D01*
X64883512Y-107053927D01*
G37*
G36*
X175041000Y-106461000D02*
G01*
X172939000Y-106461000D01*
X172939000Y-104359000D01*
X175041000Y-104359000D01*
X175041000Y-106461000D01*
G37*
G36*
X161596564Y-104399389D02*
G01*
X161787833Y-104478615D01*
X161787835Y-104478616D01*
X161959973Y-104593635D01*
X162106365Y-104740027D01*
X162170256Y-104835646D01*
X162221385Y-104912167D01*
X162300611Y-105103436D01*
X162341000Y-105306484D01*
X162341000Y-105513516D01*
X162300611Y-105716564D01*
X162250815Y-105836782D01*
X162221384Y-105907835D01*
X162106365Y-106079973D01*
X161959973Y-106226365D01*
X161787835Y-106341384D01*
X161787834Y-106341385D01*
X161787833Y-106341385D01*
X161596564Y-106420611D01*
X161393516Y-106461000D01*
X161186484Y-106461000D01*
X160983436Y-106420611D01*
X160792167Y-106341385D01*
X160792166Y-106341385D01*
X160792165Y-106341384D01*
X160620027Y-106226365D01*
X160473635Y-106079973D01*
X160358616Y-105907835D01*
X160329185Y-105836782D01*
X160279389Y-105716564D01*
X160239000Y-105513516D01*
X160239000Y-105306484D01*
X160279389Y-105103436D01*
X160358615Y-104912167D01*
X160409745Y-104835646D01*
X160473635Y-104740027D01*
X160620027Y-104593635D01*
X160792165Y-104478616D01*
X160792167Y-104478615D01*
X160983436Y-104399389D01*
X161186484Y-104359000D01*
X161393516Y-104359000D01*
X161596564Y-104399389D01*
G37*
G36*
X64883512Y-104513927D02*
G01*
X65032812Y-104543624D01*
X65196784Y-104611544D01*
X65344354Y-104710147D01*
X65469853Y-104835646D01*
X65568456Y-104983216D01*
X65636376Y-105147188D01*
X65671000Y-105321259D01*
X65671000Y-105498741D01*
X65636376Y-105672812D01*
X65568456Y-105836784D01*
X65469853Y-105984354D01*
X65344354Y-106109853D01*
X65196784Y-106208456D01*
X65032812Y-106276376D01*
X64883512Y-106306073D01*
X64858742Y-106311000D01*
X64681258Y-106311000D01*
X64656488Y-106306073D01*
X64507188Y-106276376D01*
X64343216Y-106208456D01*
X64195646Y-106109853D01*
X64070147Y-105984354D01*
X63971544Y-105836784D01*
X63903624Y-105672812D01*
X63869000Y-105498741D01*
X63869000Y-105321259D01*
X63903624Y-105147188D01*
X63971544Y-104983216D01*
X64070147Y-104835646D01*
X64195646Y-104710147D01*
X64343216Y-104611544D01*
X64507188Y-104543624D01*
X64656488Y-104513927D01*
X64681258Y-104509000D01*
X64858742Y-104509000D01*
X64883512Y-104513927D01*
G37*
G36*
X125843512Y-101973927D02*
G01*
X125992812Y-102003624D01*
X126156784Y-102071544D01*
X126304354Y-102170147D01*
X126429853Y-102295646D01*
X126528456Y-102443216D01*
X126596376Y-102607188D01*
X126631000Y-102781259D01*
X126631000Y-102958741D01*
X126596376Y-103132812D01*
X126528456Y-103296784D01*
X126429853Y-103444354D01*
X126304354Y-103569853D01*
X126156784Y-103668456D01*
X125992812Y-103736376D01*
X125843512Y-103766073D01*
X125818742Y-103771000D01*
X125641258Y-103771000D01*
X125616488Y-103766073D01*
X125467188Y-103736376D01*
X125303216Y-103668456D01*
X125155646Y-103569853D01*
X125030147Y-103444354D01*
X124931544Y-103296784D01*
X124863624Y-103132812D01*
X124829000Y-102958741D01*
X124829000Y-102781259D01*
X124863624Y-102607188D01*
X124931544Y-102443216D01*
X125030147Y-102295646D01*
X125155646Y-102170147D01*
X125303216Y-102071544D01*
X125467188Y-102003624D01*
X125616488Y-101973927D01*
X125641258Y-101969000D01*
X125818742Y-101969000D01*
X125843512Y-101973927D01*
G37*
G36*
X105523512Y-101973927D02*
G01*
X105672812Y-102003624D01*
X105836784Y-102071544D01*
X105984354Y-102170147D01*
X106109853Y-102295646D01*
X106208456Y-102443216D01*
X106276376Y-102607188D01*
X106311000Y-102781259D01*
X106311000Y-102958741D01*
X106276376Y-103132812D01*
X106208456Y-103296784D01*
X106109853Y-103444354D01*
X105984354Y-103569853D01*
X105836784Y-103668456D01*
X105672812Y-103736376D01*
X105523512Y-103766073D01*
X105498742Y-103771000D01*
X105321258Y-103771000D01*
X105296488Y-103766073D01*
X105147188Y-103736376D01*
X104983216Y-103668456D01*
X104835646Y-103569853D01*
X104710147Y-103444354D01*
X104611544Y-103296784D01*
X104543624Y-103132812D01*
X104509000Y-102958741D01*
X104509000Y-102781259D01*
X104543624Y-102607188D01*
X104611544Y-102443216D01*
X104710147Y-102295646D01*
X104835646Y-102170147D01*
X104983216Y-102071544D01*
X105147188Y-102003624D01*
X105296488Y-101973927D01*
X105321258Y-101969000D01*
X105498742Y-101969000D01*
X105523512Y-101973927D01*
G37*
G36*
X65671000Y-103771000D02*
G01*
X63869000Y-103771000D01*
X63869000Y-101969000D01*
X65671000Y-101969000D01*
X65671000Y-103771000D01*
G37*
G36*
X68828228Y-102051703D02*
G01*
X68983100Y-102115853D01*
X69122481Y-102208985D01*
X69241015Y-102327519D01*
X69334147Y-102466900D01*
X69398297Y-102621772D01*
X69431000Y-102786184D01*
X69431000Y-102953816D01*
X69398297Y-103118228D01*
X69334147Y-103273100D01*
X69241015Y-103412481D01*
X69122481Y-103531015D01*
X68983100Y-103624147D01*
X68828228Y-103688297D01*
X68663816Y-103721000D01*
X68496184Y-103721000D01*
X68331772Y-103688297D01*
X68176900Y-103624147D01*
X68037519Y-103531015D01*
X67918985Y-103412481D01*
X67825853Y-103273100D01*
X67761703Y-103118228D01*
X67729000Y-102953816D01*
X67729000Y-102786184D01*
X67761703Y-102621772D01*
X67825853Y-102466900D01*
X67918985Y-102327519D01*
X68037519Y-102208985D01*
X68176900Y-102115853D01*
X68331772Y-102051703D01*
X68496184Y-102019000D01*
X68663816Y-102019000D01*
X68828228Y-102051703D01*
G37*
G36*
X89148228Y-102051703D02*
G01*
X89303100Y-102115853D01*
X89442481Y-102208985D01*
X89561015Y-102327519D01*
X89654147Y-102466900D01*
X89718297Y-102621772D01*
X89751000Y-102786184D01*
X89751000Y-102953816D01*
X89718297Y-103118228D01*
X89654147Y-103273100D01*
X89561015Y-103412481D01*
X89442481Y-103531015D01*
X89303100Y-103624147D01*
X89148228Y-103688297D01*
X88983816Y-103721000D01*
X88816184Y-103721000D01*
X88651772Y-103688297D01*
X88496900Y-103624147D01*
X88357519Y-103531015D01*
X88238985Y-103412481D01*
X88145853Y-103273100D01*
X88081703Y-103118228D01*
X88049000Y-102953816D01*
X88049000Y-102786184D01*
X88081703Y-102621772D01*
X88145853Y-102466900D01*
X88238985Y-102327519D01*
X88357519Y-102208985D01*
X88496900Y-102115853D01*
X88651772Y-102051703D01*
X88816184Y-102019000D01*
X88983816Y-102019000D01*
X89148228Y-102051703D01*
G37*
G36*
X105523512Y-99433927D02*
G01*
X105672812Y-99463624D01*
X105836784Y-99531544D01*
X105984354Y-99630147D01*
X106109853Y-99755646D01*
X106208456Y-99903216D01*
X106276376Y-100067188D01*
X106311000Y-100241259D01*
X106311000Y-100418741D01*
X106276376Y-100592812D01*
X106208456Y-100756784D01*
X106109853Y-100904354D01*
X105984354Y-101029853D01*
X105836784Y-101128456D01*
X105672812Y-101196376D01*
X105523512Y-101226073D01*
X105498742Y-101231000D01*
X105321258Y-101231000D01*
X105296488Y-101226073D01*
X105147188Y-101196376D01*
X104983216Y-101128456D01*
X104835646Y-101029853D01*
X104710147Y-100904354D01*
X104611544Y-100756784D01*
X104543624Y-100592812D01*
X104509000Y-100418741D01*
X104509000Y-100241259D01*
X104543624Y-100067188D01*
X104611544Y-99903216D01*
X104710147Y-99755646D01*
X104835646Y-99630147D01*
X104983216Y-99531544D01*
X105147188Y-99463624D01*
X105296488Y-99433927D01*
X105321258Y-99429000D01*
X105498742Y-99429000D01*
X105523512Y-99433927D01*
G37*
G36*
X125843512Y-99433927D02*
G01*
X125992812Y-99463624D01*
X126156784Y-99531544D01*
X126304354Y-99630147D01*
X126429853Y-99755646D01*
X126528456Y-99903216D01*
X126596376Y-100067188D01*
X126631000Y-100241259D01*
X126631000Y-100418741D01*
X126596376Y-100592812D01*
X126528456Y-100756784D01*
X126429853Y-100904354D01*
X126304354Y-101029853D01*
X126156784Y-101128456D01*
X125992812Y-101196376D01*
X125843512Y-101226073D01*
X125818742Y-101231000D01*
X125641258Y-101231000D01*
X125616488Y-101226073D01*
X125467188Y-101196376D01*
X125303216Y-101128456D01*
X125155646Y-101029853D01*
X125030147Y-100904354D01*
X124931544Y-100756784D01*
X124863624Y-100592812D01*
X124829000Y-100418741D01*
X124829000Y-100241259D01*
X124863624Y-100067188D01*
X124931544Y-99903216D01*
X125030147Y-99755646D01*
X125155646Y-99630147D01*
X125303216Y-99531544D01*
X125467188Y-99463624D01*
X125616488Y-99433927D01*
X125641258Y-99429000D01*
X125818742Y-99429000D01*
X125843512Y-99433927D01*
G37*
G36*
X175041000Y-100111000D02*
G01*
X172939000Y-100111000D01*
X172939000Y-98009000D01*
X175041000Y-98009000D01*
X175041000Y-100111000D01*
G37*
G36*
X161596564Y-98049389D02*
G01*
X161787833Y-98128615D01*
X161787835Y-98128616D01*
X161959973Y-98243635D01*
X162106365Y-98390027D01*
X162173067Y-98489853D01*
X162221385Y-98562167D01*
X162300611Y-98753436D01*
X162341000Y-98956484D01*
X162341000Y-99163516D01*
X162300611Y-99366564D01*
X162260407Y-99463625D01*
X162221384Y-99557835D01*
X162106365Y-99729973D01*
X161959973Y-99876365D01*
X161787835Y-99991384D01*
X161787834Y-99991385D01*
X161787833Y-99991385D01*
X161596564Y-100070611D01*
X161393516Y-100111000D01*
X161186484Y-100111000D01*
X160983436Y-100070611D01*
X160792167Y-99991385D01*
X160792166Y-99991385D01*
X160792165Y-99991384D01*
X160620027Y-99876365D01*
X160473635Y-99729973D01*
X160358616Y-99557835D01*
X160319593Y-99463625D01*
X160279389Y-99366564D01*
X160239000Y-99163516D01*
X160239000Y-98956484D01*
X160279389Y-98753436D01*
X160358615Y-98562167D01*
X160406934Y-98489853D01*
X160473635Y-98390027D01*
X160620027Y-98243635D01*
X160792165Y-98128616D01*
X160792167Y-98128615D01*
X160983436Y-98049389D01*
X161186484Y-98009000D01*
X161393516Y-98009000D01*
X161596564Y-98049389D01*
G37*
G36*
X105523512Y-96893927D02*
G01*
X105672812Y-96923624D01*
X105836784Y-96991544D01*
X105984354Y-97090147D01*
X106109853Y-97215646D01*
X106208456Y-97363216D01*
X106276376Y-97527188D01*
X106311000Y-97701259D01*
X106311000Y-97878741D01*
X106276376Y-98052812D01*
X106208456Y-98216784D01*
X106109853Y-98364354D01*
X105984354Y-98489853D01*
X105836784Y-98588456D01*
X105672812Y-98656376D01*
X105523512Y-98686073D01*
X105498742Y-98691000D01*
X105321258Y-98691000D01*
X105296488Y-98686073D01*
X105147188Y-98656376D01*
X104983216Y-98588456D01*
X104835646Y-98489853D01*
X104710147Y-98364354D01*
X104611544Y-98216784D01*
X104543624Y-98052812D01*
X104509000Y-97878741D01*
X104509000Y-97701259D01*
X104543624Y-97527188D01*
X104611544Y-97363216D01*
X104710147Y-97215646D01*
X104835646Y-97090147D01*
X104983216Y-96991544D01*
X105147188Y-96923624D01*
X105296488Y-96893927D01*
X105321258Y-96889000D01*
X105498742Y-96889000D01*
X105523512Y-96893927D01*
G37*
G36*
X125843512Y-96893927D02*
G01*
X125992812Y-96923624D01*
X126156784Y-96991544D01*
X126304354Y-97090147D01*
X126429853Y-97215646D01*
X126528456Y-97363216D01*
X126596376Y-97527188D01*
X126631000Y-97701259D01*
X126631000Y-97878741D01*
X126596376Y-98052812D01*
X126528456Y-98216784D01*
X126429853Y-98364354D01*
X126304354Y-98489853D01*
X126156784Y-98588456D01*
X125992812Y-98656376D01*
X125843512Y-98686073D01*
X125818742Y-98691000D01*
X125641258Y-98691000D01*
X125616488Y-98686073D01*
X125467188Y-98656376D01*
X125303216Y-98588456D01*
X125155646Y-98489853D01*
X125030147Y-98364354D01*
X124931544Y-98216784D01*
X124863624Y-98052812D01*
X124829000Y-97878741D01*
X124829000Y-97701259D01*
X124863624Y-97527188D01*
X124931544Y-97363216D01*
X125030147Y-97215646D01*
X125155646Y-97090147D01*
X125303216Y-96991544D01*
X125467188Y-96923624D01*
X125616488Y-96893927D01*
X125641258Y-96889000D01*
X125818742Y-96889000D01*
X125843512Y-96893927D01*
G37*
G36*
X184263512Y-96893927D02*
G01*
X184412812Y-96923624D01*
X184576784Y-96991544D01*
X184724354Y-97090147D01*
X184849853Y-97215646D01*
X184948456Y-97363216D01*
X185016376Y-97527188D01*
X185051000Y-97701259D01*
X185051000Y-97878741D01*
X185016376Y-98052812D01*
X184948456Y-98216784D01*
X184849853Y-98364354D01*
X184724354Y-98489853D01*
X184576784Y-98588456D01*
X184412812Y-98656376D01*
X184263512Y-98686073D01*
X184238742Y-98691000D01*
X184061258Y-98691000D01*
X184036488Y-98686073D01*
X183887188Y-98656376D01*
X183723216Y-98588456D01*
X183575646Y-98489853D01*
X183450147Y-98364354D01*
X183351544Y-98216784D01*
X183283624Y-98052812D01*
X183249000Y-97878741D01*
X183249000Y-97701259D01*
X183283624Y-97527188D01*
X183351544Y-97363216D01*
X183450147Y-97215646D01*
X183575646Y-97090147D01*
X183723216Y-96991544D01*
X183887188Y-96923624D01*
X184036488Y-96893927D01*
X184061258Y-96889000D01*
X184238742Y-96889000D01*
X184263512Y-96893927D01*
G37*
G36*
X64883512Y-95623927D02*
G01*
X65032812Y-95653624D01*
X65196784Y-95721544D01*
X65344354Y-95820147D01*
X65469853Y-95945646D01*
X65568456Y-96093216D01*
X65636376Y-96257188D01*
X65671000Y-96431259D01*
X65671000Y-96608741D01*
X65636376Y-96782812D01*
X65568456Y-96946784D01*
X65469853Y-97094354D01*
X65344354Y-97219853D01*
X65196784Y-97318456D01*
X65032812Y-97386376D01*
X64883512Y-97416073D01*
X64858742Y-97421000D01*
X64681258Y-97421000D01*
X64656488Y-97416073D01*
X64507188Y-97386376D01*
X64343216Y-97318456D01*
X64195646Y-97219853D01*
X64070147Y-97094354D01*
X63971544Y-96946784D01*
X63903624Y-96782812D01*
X63869000Y-96608741D01*
X63869000Y-96431259D01*
X63903624Y-96257188D01*
X63971544Y-96093216D01*
X64070147Y-95945646D01*
X64195646Y-95820147D01*
X64343216Y-95721544D01*
X64507188Y-95653624D01*
X64656488Y-95623927D01*
X64681258Y-95619000D01*
X64858742Y-95619000D01*
X64883512Y-95623927D01*
G37*
G36*
X184263512Y-94353927D02*
G01*
X184412812Y-94383624D01*
X184576784Y-94451544D01*
X184724354Y-94550147D01*
X184849853Y-94675646D01*
X184948456Y-94823216D01*
X185016376Y-94987188D01*
X185051000Y-95161259D01*
X185051000Y-95338741D01*
X185016376Y-95512812D01*
X184948456Y-95676784D01*
X184849853Y-95824354D01*
X184724354Y-95949853D01*
X184576784Y-96048456D01*
X184412812Y-96116376D01*
X184263512Y-96146073D01*
X184238742Y-96151000D01*
X184061258Y-96151000D01*
X184036488Y-96146073D01*
X183887188Y-96116376D01*
X183723216Y-96048456D01*
X183575646Y-95949853D01*
X183450147Y-95824354D01*
X183351544Y-95676784D01*
X183283624Y-95512812D01*
X183249000Y-95338741D01*
X183249000Y-95161259D01*
X183283624Y-94987188D01*
X183351544Y-94823216D01*
X183450147Y-94675646D01*
X183575646Y-94550147D01*
X183723216Y-94451544D01*
X183887188Y-94383624D01*
X184036488Y-94353927D01*
X184061258Y-94349000D01*
X184238742Y-94349000D01*
X184263512Y-94353927D01*
G37*
G36*
X125843512Y-94353927D02*
G01*
X125992812Y-94383624D01*
X126156784Y-94451544D01*
X126304354Y-94550147D01*
X126429853Y-94675646D01*
X126528456Y-94823216D01*
X126596376Y-94987188D01*
X126631000Y-95161259D01*
X126631000Y-95338741D01*
X126596376Y-95512812D01*
X126528456Y-95676784D01*
X126429853Y-95824354D01*
X126304354Y-95949853D01*
X126156784Y-96048456D01*
X125992812Y-96116376D01*
X125843512Y-96146073D01*
X125818742Y-96151000D01*
X125641258Y-96151000D01*
X125616488Y-96146073D01*
X125467188Y-96116376D01*
X125303216Y-96048456D01*
X125155646Y-95949853D01*
X125030147Y-95824354D01*
X124931544Y-95676784D01*
X124863624Y-95512812D01*
X124829000Y-95338741D01*
X124829000Y-95161259D01*
X124863624Y-94987188D01*
X124931544Y-94823216D01*
X125030147Y-94675646D01*
X125155646Y-94550147D01*
X125303216Y-94451544D01*
X125467188Y-94383624D01*
X125616488Y-94353927D01*
X125641258Y-94349000D01*
X125818742Y-94349000D01*
X125843512Y-94353927D01*
G37*
G36*
X105523512Y-94353927D02*
G01*
X105672812Y-94383624D01*
X105836784Y-94451544D01*
X105984354Y-94550147D01*
X106109853Y-94675646D01*
X106208456Y-94823216D01*
X106276376Y-94987188D01*
X106311000Y-95161259D01*
X106311000Y-95338741D01*
X106276376Y-95512812D01*
X106208456Y-95676784D01*
X106109853Y-95824354D01*
X105984354Y-95949853D01*
X105836784Y-96048456D01*
X105672812Y-96116376D01*
X105523512Y-96146073D01*
X105498742Y-96151000D01*
X105321258Y-96151000D01*
X105296488Y-96146073D01*
X105147188Y-96116376D01*
X104983216Y-96048456D01*
X104835646Y-95949853D01*
X104710147Y-95824354D01*
X104611544Y-95676784D01*
X104543624Y-95512812D01*
X104509000Y-95338741D01*
X104509000Y-95161259D01*
X104543624Y-94987188D01*
X104611544Y-94823216D01*
X104710147Y-94675646D01*
X104835646Y-94550147D01*
X104983216Y-94451544D01*
X105147188Y-94383624D01*
X105296488Y-94353927D01*
X105321258Y-94349000D01*
X105498742Y-94349000D01*
X105523512Y-94353927D01*
G37*
G36*
X64883512Y-93083927D02*
G01*
X65032812Y-93113624D01*
X65196784Y-93181544D01*
X65344354Y-93280147D01*
X65469853Y-93405646D01*
X65568456Y-93553216D01*
X65636376Y-93717188D01*
X65671000Y-93891259D01*
X65671000Y-94068741D01*
X65636376Y-94242812D01*
X65568456Y-94406784D01*
X65469853Y-94554354D01*
X65344354Y-94679853D01*
X65196784Y-94778456D01*
X65032812Y-94846376D01*
X64883512Y-94876073D01*
X64858742Y-94881000D01*
X64681258Y-94881000D01*
X64656488Y-94876073D01*
X64507188Y-94846376D01*
X64343216Y-94778456D01*
X64195646Y-94679853D01*
X64070147Y-94554354D01*
X63971544Y-94406784D01*
X63903624Y-94242812D01*
X63869000Y-94068741D01*
X63869000Y-93891259D01*
X63903624Y-93717188D01*
X63971544Y-93553216D01*
X64070147Y-93405646D01*
X64195646Y-93280147D01*
X64343216Y-93181544D01*
X64507188Y-93113624D01*
X64656488Y-93083927D01*
X64681258Y-93079000D01*
X64858742Y-93079000D01*
X64883512Y-93083927D01*
G37*
G36*
X161596564Y-91699389D02*
G01*
X161787833Y-91778615D01*
X161787835Y-91778616D01*
X161959973Y-91893635D01*
X162106365Y-92040027D01*
X162173067Y-92139853D01*
X162221385Y-92212167D01*
X162300611Y-92403436D01*
X162341000Y-92606484D01*
X162341000Y-92813516D01*
X162300611Y-93016564D01*
X162260407Y-93113625D01*
X162221384Y-93207835D01*
X162106365Y-93379973D01*
X161959973Y-93526365D01*
X161787835Y-93641384D01*
X161787834Y-93641385D01*
X161787833Y-93641385D01*
X161596564Y-93720611D01*
X161393516Y-93761000D01*
X161186484Y-93761000D01*
X160983436Y-93720611D01*
X160792167Y-93641385D01*
X160792166Y-93641385D01*
X160792165Y-93641384D01*
X160620027Y-93526365D01*
X160473635Y-93379973D01*
X160358616Y-93207835D01*
X160319593Y-93113625D01*
X160279389Y-93016564D01*
X160239000Y-92813516D01*
X160239000Y-92606484D01*
X160279389Y-92403436D01*
X160358615Y-92212167D01*
X160406934Y-92139853D01*
X160473635Y-92040027D01*
X160620027Y-91893635D01*
X160792165Y-91778616D01*
X160792167Y-91778615D01*
X160983436Y-91699389D01*
X161186484Y-91659000D01*
X161393516Y-91659000D01*
X161596564Y-91699389D01*
G37*
G36*
X175041000Y-93761000D02*
G01*
X172939000Y-93761000D01*
X172939000Y-91659000D01*
X175041000Y-91659000D01*
X175041000Y-93761000D01*
G37*
G36*
X184263512Y-91813927D02*
G01*
X184412812Y-91843624D01*
X184576784Y-91911544D01*
X184724354Y-92010147D01*
X184849853Y-92135646D01*
X184948456Y-92283216D01*
X185016376Y-92447188D01*
X185051000Y-92621259D01*
X185051000Y-92798741D01*
X185016376Y-92972812D01*
X184948456Y-93136784D01*
X184849853Y-93284354D01*
X184724354Y-93409853D01*
X184576784Y-93508456D01*
X184412812Y-93576376D01*
X184263512Y-93606073D01*
X184238742Y-93611000D01*
X184061258Y-93611000D01*
X184036488Y-93606073D01*
X183887188Y-93576376D01*
X183723216Y-93508456D01*
X183575646Y-93409853D01*
X183450147Y-93284354D01*
X183351544Y-93136784D01*
X183283624Y-92972812D01*
X183249000Y-92798741D01*
X183249000Y-92621259D01*
X183283624Y-92447188D01*
X183351544Y-92283216D01*
X183450147Y-92135646D01*
X183575646Y-92010147D01*
X183723216Y-91911544D01*
X183887188Y-91843624D01*
X184036488Y-91813927D01*
X184061258Y-91809000D01*
X184238742Y-91809000D01*
X184263512Y-91813927D01*
G37*
G36*
X105523512Y-91813927D02*
G01*
X105672812Y-91843624D01*
X105836784Y-91911544D01*
X105984354Y-92010147D01*
X106109853Y-92135646D01*
X106208456Y-92283216D01*
X106276376Y-92447188D01*
X106311000Y-92621259D01*
X106311000Y-92798741D01*
X106276376Y-92972812D01*
X106208456Y-93136784D01*
X106109853Y-93284354D01*
X105984354Y-93409853D01*
X105836784Y-93508456D01*
X105672812Y-93576376D01*
X105523512Y-93606073D01*
X105498742Y-93611000D01*
X105321258Y-93611000D01*
X105296488Y-93606073D01*
X105147188Y-93576376D01*
X104983216Y-93508456D01*
X104835646Y-93409853D01*
X104710147Y-93284354D01*
X104611544Y-93136784D01*
X104543624Y-92972812D01*
X104509000Y-92798741D01*
X104509000Y-92621259D01*
X104543624Y-92447188D01*
X104611544Y-92283216D01*
X104710147Y-92135646D01*
X104835646Y-92010147D01*
X104983216Y-91911544D01*
X105147188Y-91843624D01*
X105296488Y-91813927D01*
X105321258Y-91809000D01*
X105498742Y-91809000D01*
X105523512Y-91813927D01*
G37*
G36*
X125843512Y-91813927D02*
G01*
X125992812Y-91843624D01*
X126156784Y-91911544D01*
X126304354Y-92010147D01*
X126429853Y-92135646D01*
X126528456Y-92283216D01*
X126596376Y-92447188D01*
X126631000Y-92621259D01*
X126631000Y-92798741D01*
X126596376Y-92972812D01*
X126528456Y-93136784D01*
X126429853Y-93284354D01*
X126304354Y-93409853D01*
X126156784Y-93508456D01*
X125992812Y-93576376D01*
X125843512Y-93606073D01*
X125818742Y-93611000D01*
X125641258Y-93611000D01*
X125616488Y-93606073D01*
X125467188Y-93576376D01*
X125303216Y-93508456D01*
X125155646Y-93409853D01*
X125030147Y-93284354D01*
X124931544Y-93136784D01*
X124863624Y-92972812D01*
X124829000Y-92798741D01*
X124829000Y-92621259D01*
X124863624Y-92447188D01*
X124931544Y-92283216D01*
X125030147Y-92135646D01*
X125155646Y-92010147D01*
X125303216Y-91911544D01*
X125467188Y-91843624D01*
X125616488Y-91813927D01*
X125641258Y-91809000D01*
X125818742Y-91809000D01*
X125843512Y-91813927D01*
G37*
G36*
X64883512Y-90543927D02*
G01*
X65032812Y-90573624D01*
X65196784Y-90641544D01*
X65344354Y-90740147D01*
X65469853Y-90865646D01*
X65568456Y-91013216D01*
X65636376Y-91177188D01*
X65671000Y-91351259D01*
X65671000Y-91528741D01*
X65636376Y-91702812D01*
X65568456Y-91866784D01*
X65469853Y-92014354D01*
X65344354Y-92139853D01*
X65196784Y-92238456D01*
X65032812Y-92306376D01*
X64883512Y-92336073D01*
X64858742Y-92341000D01*
X64681258Y-92341000D01*
X64656488Y-92336073D01*
X64507188Y-92306376D01*
X64343216Y-92238456D01*
X64195646Y-92139853D01*
X64070147Y-92014354D01*
X63971544Y-91866784D01*
X63903624Y-91702812D01*
X63869000Y-91528741D01*
X63869000Y-91351259D01*
X63903624Y-91177188D01*
X63971544Y-91013216D01*
X64070147Y-90865646D01*
X64195646Y-90740147D01*
X64343216Y-90641544D01*
X64507188Y-90573624D01*
X64656488Y-90543927D01*
X64681258Y-90539000D01*
X64858742Y-90539000D01*
X64883512Y-90543927D01*
G37*
G36*
X105523512Y-89273927D02*
G01*
X105672812Y-89303624D01*
X105836784Y-89371544D01*
X105984354Y-89470147D01*
X106109853Y-89595646D01*
X106208456Y-89743216D01*
X106276376Y-89907188D01*
X106311000Y-90081259D01*
X106311000Y-90258741D01*
X106276376Y-90432812D01*
X106208456Y-90596784D01*
X106109853Y-90744354D01*
X105984354Y-90869853D01*
X105836784Y-90968456D01*
X105672812Y-91036376D01*
X105523512Y-91066073D01*
X105498742Y-91071000D01*
X105321258Y-91071000D01*
X105296488Y-91066073D01*
X105147188Y-91036376D01*
X104983216Y-90968456D01*
X104835646Y-90869853D01*
X104710147Y-90744354D01*
X104611544Y-90596784D01*
X104543624Y-90432812D01*
X104509000Y-90258741D01*
X104509000Y-90081259D01*
X104543624Y-89907188D01*
X104611544Y-89743216D01*
X104710147Y-89595646D01*
X104835646Y-89470147D01*
X104983216Y-89371544D01*
X105147188Y-89303624D01*
X105296488Y-89273927D01*
X105321258Y-89269000D01*
X105498742Y-89269000D01*
X105523512Y-89273927D01*
G37*
G36*
X125843512Y-89273927D02*
G01*
X125992812Y-89303624D01*
X126156784Y-89371544D01*
X126304354Y-89470147D01*
X126429853Y-89595646D01*
X126528456Y-89743216D01*
X126596376Y-89907188D01*
X126631000Y-90081259D01*
X126631000Y-90258741D01*
X126596376Y-90432812D01*
X126528456Y-90596784D01*
X126429853Y-90744354D01*
X126304354Y-90869853D01*
X126156784Y-90968456D01*
X125992812Y-91036376D01*
X125843512Y-91066073D01*
X125818742Y-91071000D01*
X125641258Y-91071000D01*
X125616488Y-91066073D01*
X125467188Y-91036376D01*
X125303216Y-90968456D01*
X125155646Y-90869853D01*
X125030147Y-90744354D01*
X124931544Y-90596784D01*
X124863624Y-90432812D01*
X124829000Y-90258741D01*
X124829000Y-90081259D01*
X124863624Y-89907188D01*
X124931544Y-89743216D01*
X125030147Y-89595646D01*
X125155646Y-89470147D01*
X125303216Y-89371544D01*
X125467188Y-89303624D01*
X125616488Y-89273927D01*
X125641258Y-89269000D01*
X125818742Y-89269000D01*
X125843512Y-89273927D01*
G37*
G36*
X184263512Y-89273927D02*
G01*
X184412812Y-89303624D01*
X184576784Y-89371544D01*
X184724354Y-89470147D01*
X184849853Y-89595646D01*
X184948456Y-89743216D01*
X185016376Y-89907188D01*
X185051000Y-90081259D01*
X185051000Y-90258741D01*
X185016376Y-90432812D01*
X184948456Y-90596784D01*
X184849853Y-90744354D01*
X184724354Y-90869853D01*
X184576784Y-90968456D01*
X184412812Y-91036376D01*
X184263512Y-91066073D01*
X184238742Y-91071000D01*
X184061258Y-91071000D01*
X184036488Y-91066073D01*
X183887188Y-91036376D01*
X183723216Y-90968456D01*
X183575646Y-90869853D01*
X183450147Y-90744354D01*
X183351544Y-90596784D01*
X183283624Y-90432812D01*
X183249000Y-90258741D01*
X183249000Y-90081259D01*
X183283624Y-89907188D01*
X183351544Y-89743216D01*
X183450147Y-89595646D01*
X183575646Y-89470147D01*
X183723216Y-89371544D01*
X183887188Y-89303624D01*
X184036488Y-89273927D01*
X184061258Y-89269000D01*
X184238742Y-89269000D01*
X184263512Y-89273927D01*
G37*
G36*
X64883512Y-88003927D02*
G01*
X65032812Y-88033624D01*
X65196784Y-88101544D01*
X65344354Y-88200147D01*
X65469853Y-88325646D01*
X65568456Y-88473216D01*
X65636376Y-88637188D01*
X65671000Y-88811259D01*
X65671000Y-88988741D01*
X65636376Y-89162812D01*
X65568456Y-89326784D01*
X65469853Y-89474354D01*
X65344354Y-89599853D01*
X65196784Y-89698456D01*
X65032812Y-89766376D01*
X64883512Y-89796073D01*
X64858742Y-89801000D01*
X64681258Y-89801000D01*
X64656488Y-89796073D01*
X64507188Y-89766376D01*
X64343216Y-89698456D01*
X64195646Y-89599853D01*
X64070147Y-89474354D01*
X63971544Y-89326784D01*
X63903624Y-89162812D01*
X63869000Y-88988741D01*
X63869000Y-88811259D01*
X63903624Y-88637188D01*
X63971544Y-88473216D01*
X64070147Y-88325646D01*
X64195646Y-88200147D01*
X64343216Y-88101544D01*
X64507188Y-88033624D01*
X64656488Y-88003927D01*
X64681258Y-87999000D01*
X64858742Y-87999000D01*
X64883512Y-88003927D01*
G37*
G36*
X89148228Y-88081703D02*
G01*
X89303100Y-88145853D01*
X89442481Y-88238985D01*
X89561015Y-88357519D01*
X89654147Y-88496900D01*
X89718297Y-88651772D01*
X89751000Y-88816184D01*
X89751000Y-88983816D01*
X89718297Y-89148228D01*
X89654147Y-89303100D01*
X89561015Y-89442481D01*
X89442481Y-89561015D01*
X89303100Y-89654147D01*
X89148228Y-89718297D01*
X88983816Y-89751000D01*
X88816184Y-89751000D01*
X88651772Y-89718297D01*
X88496900Y-89654147D01*
X88357519Y-89561015D01*
X88238985Y-89442481D01*
X88145853Y-89303100D01*
X88081703Y-89148228D01*
X88049000Y-88983816D01*
X88049000Y-88816184D01*
X88081703Y-88651772D01*
X88145853Y-88496900D01*
X88238985Y-88357519D01*
X88357519Y-88238985D01*
X88496900Y-88145853D01*
X88651772Y-88081703D01*
X88816184Y-88049000D01*
X88983816Y-88049000D01*
X89148228Y-88081703D01*
G37*
G36*
X68828228Y-88081703D02*
G01*
X68983100Y-88145853D01*
X69122481Y-88238985D01*
X69241015Y-88357519D01*
X69334147Y-88496900D01*
X69398297Y-88651772D01*
X69431000Y-88816184D01*
X69431000Y-88983816D01*
X69398297Y-89148228D01*
X69334147Y-89303100D01*
X69241015Y-89442481D01*
X69122481Y-89561015D01*
X68983100Y-89654147D01*
X68828228Y-89718297D01*
X68663816Y-89751000D01*
X68496184Y-89751000D01*
X68331772Y-89718297D01*
X68176900Y-89654147D01*
X68037519Y-89561015D01*
X67918985Y-89442481D01*
X67825853Y-89303100D01*
X67761703Y-89148228D01*
X67729000Y-88983816D01*
X67729000Y-88816184D01*
X67761703Y-88651772D01*
X67825853Y-88496900D01*
X67918985Y-88357519D01*
X68037519Y-88238985D01*
X68176900Y-88145853D01*
X68331772Y-88081703D01*
X68496184Y-88049000D01*
X68663816Y-88049000D01*
X68828228Y-88081703D01*
G37*
G36*
X125843512Y-86733927D02*
G01*
X125992812Y-86763624D01*
X126156784Y-86831544D01*
X126304354Y-86930147D01*
X126429853Y-87055646D01*
X126528456Y-87203216D01*
X126596376Y-87367188D01*
X126631000Y-87541259D01*
X126631000Y-87718741D01*
X126596376Y-87892812D01*
X126528456Y-88056784D01*
X126429853Y-88204354D01*
X126304354Y-88329853D01*
X126156784Y-88428456D01*
X125992812Y-88496376D01*
X125843512Y-88526073D01*
X125818742Y-88531000D01*
X125641258Y-88531000D01*
X125616488Y-88526073D01*
X125467188Y-88496376D01*
X125303216Y-88428456D01*
X125155646Y-88329853D01*
X125030147Y-88204354D01*
X124931544Y-88056784D01*
X124863624Y-87892812D01*
X124829000Y-87718741D01*
X124829000Y-87541259D01*
X124863624Y-87367188D01*
X124931544Y-87203216D01*
X125030147Y-87055646D01*
X125155646Y-86930147D01*
X125303216Y-86831544D01*
X125467188Y-86763624D01*
X125616488Y-86733927D01*
X125641258Y-86729000D01*
X125818742Y-86729000D01*
X125843512Y-86733927D01*
G37*
G36*
X185051000Y-88531000D02*
G01*
X183249000Y-88531000D01*
X183249000Y-86729000D01*
X185051000Y-86729000D01*
X185051000Y-88531000D01*
G37*
G36*
X105523512Y-86733927D02*
G01*
X105672812Y-86763624D01*
X105836784Y-86831544D01*
X105984354Y-86930147D01*
X106109853Y-87055646D01*
X106208456Y-87203216D01*
X106276376Y-87367188D01*
X106311000Y-87541259D01*
X106311000Y-87718741D01*
X106276376Y-87892812D01*
X106208456Y-88056784D01*
X106109853Y-88204354D01*
X105984354Y-88329853D01*
X105836784Y-88428456D01*
X105672812Y-88496376D01*
X105523512Y-88526073D01*
X105498742Y-88531000D01*
X105321258Y-88531000D01*
X105296488Y-88526073D01*
X105147188Y-88496376D01*
X104983216Y-88428456D01*
X104835646Y-88329853D01*
X104710147Y-88204354D01*
X104611544Y-88056784D01*
X104543624Y-87892812D01*
X104509000Y-87718741D01*
X104509000Y-87541259D01*
X104543624Y-87367188D01*
X104611544Y-87203216D01*
X104710147Y-87055646D01*
X104835646Y-86930147D01*
X104983216Y-86831544D01*
X105147188Y-86763624D01*
X105296488Y-86733927D01*
X105321258Y-86729000D01*
X105498742Y-86729000D01*
X105523512Y-86733927D01*
G37*
G36*
X175041000Y-87411000D02*
G01*
X172939000Y-87411000D01*
X172939000Y-85309000D01*
X175041000Y-85309000D01*
X175041000Y-87411000D01*
G37*
G36*
X161596564Y-85349389D02*
G01*
X161787833Y-85428615D01*
X161787835Y-85428616D01*
X161959973Y-85543635D01*
X162106365Y-85690027D01*
X162173067Y-85789853D01*
X162221385Y-85862167D01*
X162300611Y-86053436D01*
X162341000Y-86256484D01*
X162341000Y-86463516D01*
X162300611Y-86666564D01*
X162260407Y-86763625D01*
X162221384Y-86857835D01*
X162106365Y-87029973D01*
X161959973Y-87176365D01*
X161787835Y-87291384D01*
X161787834Y-87291385D01*
X161787833Y-87291385D01*
X161596564Y-87370611D01*
X161393516Y-87411000D01*
X161186484Y-87411000D01*
X160983436Y-87370611D01*
X160792167Y-87291385D01*
X160792166Y-87291385D01*
X160792165Y-87291384D01*
X160620027Y-87176365D01*
X160473635Y-87029973D01*
X160358616Y-86857835D01*
X160319593Y-86763625D01*
X160279389Y-86666564D01*
X160239000Y-86463516D01*
X160239000Y-86256484D01*
X160279389Y-86053436D01*
X160358615Y-85862167D01*
X160406934Y-85789853D01*
X160473635Y-85690027D01*
X160620027Y-85543635D01*
X160792165Y-85428616D01*
X160792167Y-85428615D01*
X160983436Y-85349389D01*
X161186484Y-85309000D01*
X161393516Y-85309000D01*
X161596564Y-85349389D01*
G37*
G36*
X65671000Y-87261000D02*
G01*
X63869000Y-87261000D01*
X63869000Y-85459000D01*
X65671000Y-85459000D01*
X65671000Y-87261000D01*
G37*
G36*
X125843512Y-84193927D02*
G01*
X125992812Y-84223624D01*
X126156784Y-84291544D01*
X126304354Y-84390147D01*
X126429853Y-84515646D01*
X126528456Y-84663216D01*
X126596376Y-84827188D01*
X126631000Y-85001259D01*
X126631000Y-85178741D01*
X126596376Y-85352812D01*
X126528456Y-85516784D01*
X126429853Y-85664354D01*
X126304354Y-85789853D01*
X126156784Y-85888456D01*
X125992812Y-85956376D01*
X125843512Y-85986073D01*
X125818742Y-85991000D01*
X125641258Y-85991000D01*
X125616488Y-85986073D01*
X125467188Y-85956376D01*
X125303216Y-85888456D01*
X125155646Y-85789853D01*
X125030147Y-85664354D01*
X124931544Y-85516784D01*
X124863624Y-85352812D01*
X124829000Y-85178741D01*
X124829000Y-85001259D01*
X124863624Y-84827188D01*
X124931544Y-84663216D01*
X125030147Y-84515646D01*
X125155646Y-84390147D01*
X125303216Y-84291544D01*
X125467188Y-84223624D01*
X125616488Y-84193927D01*
X125641258Y-84189000D01*
X125818742Y-84189000D01*
X125843512Y-84193927D01*
G37*
G36*
X105523512Y-84193927D02*
G01*
X105672812Y-84223624D01*
X105836784Y-84291544D01*
X105984354Y-84390147D01*
X106109853Y-84515646D01*
X106208456Y-84663216D01*
X106276376Y-84827188D01*
X106311000Y-85001259D01*
X106311000Y-85178741D01*
X106276376Y-85352812D01*
X106208456Y-85516784D01*
X106109853Y-85664354D01*
X105984354Y-85789853D01*
X105836784Y-85888456D01*
X105672812Y-85956376D01*
X105523512Y-85986073D01*
X105498742Y-85991000D01*
X105321258Y-85991000D01*
X105296488Y-85986073D01*
X105147188Y-85956376D01*
X104983216Y-85888456D01*
X104835646Y-85789853D01*
X104710147Y-85664354D01*
X104611544Y-85516784D01*
X104543624Y-85352812D01*
X104509000Y-85178741D01*
X104509000Y-85001259D01*
X104543624Y-84827188D01*
X104611544Y-84663216D01*
X104710147Y-84515646D01*
X104835646Y-84390147D01*
X104983216Y-84291544D01*
X105147188Y-84223624D01*
X105296488Y-84193927D01*
X105321258Y-84189000D01*
X105498742Y-84189000D01*
X105523512Y-84193927D01*
G37*
G36*
X105523512Y-81653927D02*
G01*
X105672812Y-81683624D01*
X105836784Y-81751544D01*
X105984354Y-81850147D01*
X106109853Y-81975646D01*
X106208456Y-82123216D01*
X106276376Y-82287188D01*
X106311000Y-82461259D01*
X106311000Y-82638741D01*
X106276376Y-82812812D01*
X106208456Y-82976784D01*
X106109853Y-83124354D01*
X105984354Y-83249853D01*
X105836784Y-83348456D01*
X105672812Y-83416376D01*
X105523512Y-83446073D01*
X105498742Y-83451000D01*
X105321258Y-83451000D01*
X105296488Y-83446073D01*
X105147188Y-83416376D01*
X104983216Y-83348456D01*
X104835646Y-83249853D01*
X104710147Y-83124354D01*
X104611544Y-82976784D01*
X104543624Y-82812812D01*
X104509000Y-82638741D01*
X104509000Y-82461259D01*
X104543624Y-82287188D01*
X104611544Y-82123216D01*
X104710147Y-81975646D01*
X104835646Y-81850147D01*
X104983216Y-81751544D01*
X105147188Y-81683624D01*
X105296488Y-81653927D01*
X105321258Y-81649000D01*
X105498742Y-81649000D01*
X105523512Y-81653927D01*
G37*
G36*
X125843512Y-81653927D02*
G01*
X125992812Y-81683624D01*
X126156784Y-81751544D01*
X126304354Y-81850147D01*
X126429853Y-81975646D01*
X126528456Y-82123216D01*
X126596376Y-82287188D01*
X126631000Y-82461259D01*
X126631000Y-82638741D01*
X126596376Y-82812812D01*
X126528456Y-82976784D01*
X126429853Y-83124354D01*
X126304354Y-83249853D01*
X126156784Y-83348456D01*
X125992812Y-83416376D01*
X125843512Y-83446073D01*
X125818742Y-83451000D01*
X125641258Y-83451000D01*
X125616488Y-83446073D01*
X125467188Y-83416376D01*
X125303216Y-83348456D01*
X125155646Y-83249853D01*
X125030147Y-83124354D01*
X124931544Y-82976784D01*
X124863624Y-82812812D01*
X124829000Y-82638741D01*
X124829000Y-82461259D01*
X124863624Y-82287188D01*
X124931544Y-82123216D01*
X125030147Y-81975646D01*
X125155646Y-81850147D01*
X125303216Y-81751544D01*
X125467188Y-81683624D01*
X125616488Y-81653927D01*
X125641258Y-81649000D01*
X125818742Y-81649000D01*
X125843512Y-81653927D01*
G37*
G36*
X161596564Y-78999389D02*
G01*
X161787833Y-79078615D01*
X161787835Y-79078616D01*
X161959973Y-79193635D01*
X162106365Y-79340027D01*
X162170256Y-79435646D01*
X162221385Y-79512167D01*
X162300611Y-79703436D01*
X162341000Y-79906484D01*
X162341000Y-80113516D01*
X162300611Y-80316564D01*
X162250815Y-80436782D01*
X162221384Y-80507835D01*
X162106365Y-80679973D01*
X161959973Y-80826365D01*
X161787835Y-80941384D01*
X161787834Y-80941385D01*
X161787833Y-80941385D01*
X161596564Y-81020611D01*
X161393516Y-81061000D01*
X161186484Y-81061000D01*
X160983436Y-81020611D01*
X160792167Y-80941385D01*
X160792166Y-80941385D01*
X160792165Y-80941384D01*
X160620027Y-80826365D01*
X160473635Y-80679973D01*
X160358616Y-80507835D01*
X160329185Y-80436782D01*
X160279389Y-80316564D01*
X160239000Y-80113516D01*
X160239000Y-79906484D01*
X160279389Y-79703436D01*
X160358615Y-79512167D01*
X160409745Y-79435646D01*
X160473635Y-79340027D01*
X160620027Y-79193635D01*
X160792165Y-79078616D01*
X160792167Y-79078615D01*
X160983436Y-78999389D01*
X161186484Y-78959000D01*
X161393516Y-78959000D01*
X161596564Y-78999389D01*
G37*
G36*
X175041000Y-81061000D02*
G01*
X172939000Y-81061000D01*
X172939000Y-78959000D01*
X175041000Y-78959000D01*
X175041000Y-81061000D01*
G37*
G36*
X105523512Y-79113927D02*
G01*
X105672812Y-79143624D01*
X105836784Y-79211544D01*
X105984354Y-79310147D01*
X106109853Y-79435646D01*
X106208456Y-79583216D01*
X106276376Y-79747188D01*
X106311000Y-79921259D01*
X106311000Y-80098741D01*
X106276376Y-80272812D01*
X106208456Y-80436784D01*
X106109853Y-80584354D01*
X105984354Y-80709853D01*
X105836784Y-80808456D01*
X105672812Y-80876376D01*
X105523512Y-80906073D01*
X105498742Y-80911000D01*
X105321258Y-80911000D01*
X105296488Y-80906073D01*
X105147188Y-80876376D01*
X104983216Y-80808456D01*
X104835646Y-80709853D01*
X104710147Y-80584354D01*
X104611544Y-80436784D01*
X104543624Y-80272812D01*
X104509000Y-80098741D01*
X104509000Y-79921259D01*
X104543624Y-79747188D01*
X104611544Y-79583216D01*
X104710147Y-79435646D01*
X104835646Y-79310147D01*
X104983216Y-79211544D01*
X105147188Y-79143624D01*
X105296488Y-79113927D01*
X105321258Y-79109000D01*
X105498742Y-79109000D01*
X105523512Y-79113927D01*
G37*
G36*
X64883512Y-79113927D02*
G01*
X65032812Y-79143624D01*
X65196784Y-79211544D01*
X65344354Y-79310147D01*
X65469853Y-79435646D01*
X65568456Y-79583216D01*
X65636376Y-79747188D01*
X65671000Y-79921259D01*
X65671000Y-80098741D01*
X65636376Y-80272812D01*
X65568456Y-80436784D01*
X65469853Y-80584354D01*
X65344354Y-80709853D01*
X65196784Y-80808456D01*
X65032812Y-80876376D01*
X64883512Y-80906073D01*
X64858742Y-80911000D01*
X64681258Y-80911000D01*
X64656488Y-80906073D01*
X64507188Y-80876376D01*
X64343216Y-80808456D01*
X64195646Y-80709853D01*
X64070147Y-80584354D01*
X63971544Y-80436784D01*
X63903624Y-80272812D01*
X63869000Y-80098741D01*
X63869000Y-79921259D01*
X63903624Y-79747188D01*
X63971544Y-79583216D01*
X64070147Y-79435646D01*
X64195646Y-79310147D01*
X64343216Y-79211544D01*
X64507188Y-79143624D01*
X64656488Y-79113927D01*
X64681258Y-79109000D01*
X64858742Y-79109000D01*
X64883512Y-79113927D01*
G37*
G36*
X125843512Y-79113927D02*
G01*
X125992812Y-79143624D01*
X126156784Y-79211544D01*
X126304354Y-79310147D01*
X126429853Y-79435646D01*
X126528456Y-79583216D01*
X126596376Y-79747188D01*
X126631000Y-79921259D01*
X126631000Y-80098741D01*
X126596376Y-80272812D01*
X126528456Y-80436784D01*
X126429853Y-80584354D01*
X126304354Y-80709853D01*
X126156784Y-80808456D01*
X125992812Y-80876376D01*
X125843512Y-80906073D01*
X125818742Y-80911000D01*
X125641258Y-80911000D01*
X125616488Y-80906073D01*
X125467188Y-80876376D01*
X125303216Y-80808456D01*
X125155646Y-80709853D01*
X125030147Y-80584354D01*
X124931544Y-80436784D01*
X124863624Y-80272812D01*
X124829000Y-80098741D01*
X124829000Y-79921259D01*
X124863624Y-79747188D01*
X124931544Y-79583216D01*
X125030147Y-79435646D01*
X125155646Y-79310147D01*
X125303216Y-79211544D01*
X125467188Y-79143624D01*
X125616488Y-79113927D01*
X125641258Y-79109000D01*
X125818742Y-79109000D01*
X125843512Y-79113927D01*
G37*
G36*
X132931000Y-80861000D02*
G01*
X131229000Y-80861000D01*
X131229000Y-79159000D01*
X132931000Y-79159000D01*
X132931000Y-80861000D01*
G37*
G36*
X134828228Y-79191703D02*
G01*
X134983100Y-79255853D01*
X135122481Y-79348985D01*
X135241015Y-79467519D01*
X135334147Y-79606900D01*
X135398297Y-79761772D01*
X135431000Y-79926184D01*
X135431000Y-80093816D01*
X135398297Y-80258228D01*
X135334147Y-80413100D01*
X135241015Y-80552481D01*
X135122481Y-80671015D01*
X134983100Y-80764147D01*
X134828228Y-80828297D01*
X134663816Y-80861000D01*
X134496184Y-80861000D01*
X134331772Y-80828297D01*
X134176900Y-80764147D01*
X134037519Y-80671015D01*
X133918985Y-80552481D01*
X133825853Y-80413100D01*
X133761703Y-80258228D01*
X133729000Y-80093816D01*
X133729000Y-79926184D01*
X133761703Y-79761772D01*
X133825853Y-79606900D01*
X133918985Y-79467519D01*
X134037519Y-79348985D01*
X134176900Y-79255853D01*
X134331772Y-79191703D01*
X134496184Y-79159000D01*
X134663816Y-79159000D01*
X134828228Y-79191703D01*
G37*
G36*
X64883512Y-76573927D02*
G01*
X65032812Y-76603624D01*
X65196784Y-76671544D01*
X65344354Y-76770147D01*
X65469853Y-76895646D01*
X65568456Y-77043216D01*
X65636376Y-77207188D01*
X65671000Y-77381259D01*
X65671000Y-77558741D01*
X65636376Y-77732812D01*
X65568456Y-77896784D01*
X65469853Y-78044354D01*
X65344354Y-78169853D01*
X65196784Y-78268456D01*
X65032812Y-78336376D01*
X64883512Y-78366073D01*
X64858742Y-78371000D01*
X64681258Y-78371000D01*
X64656488Y-78366073D01*
X64507188Y-78336376D01*
X64343216Y-78268456D01*
X64195646Y-78169853D01*
X64070147Y-78044354D01*
X63971544Y-77896784D01*
X63903624Y-77732812D01*
X63869000Y-77558741D01*
X63869000Y-77381259D01*
X63903624Y-77207188D01*
X63971544Y-77043216D01*
X64070147Y-76895646D01*
X64195646Y-76770147D01*
X64343216Y-76671544D01*
X64507188Y-76603624D01*
X64656488Y-76573927D01*
X64681258Y-76569000D01*
X64858742Y-76569000D01*
X64883512Y-76573927D01*
G37*
G36*
X105523512Y-76573927D02*
G01*
X105672812Y-76603624D01*
X105836784Y-76671544D01*
X105984354Y-76770147D01*
X106109853Y-76895646D01*
X106208456Y-77043216D01*
X106276376Y-77207188D01*
X106311000Y-77381259D01*
X106311000Y-77558741D01*
X106276376Y-77732812D01*
X106208456Y-77896784D01*
X106109853Y-78044354D01*
X105984354Y-78169853D01*
X105836784Y-78268456D01*
X105672812Y-78336376D01*
X105523512Y-78366073D01*
X105498742Y-78371000D01*
X105321258Y-78371000D01*
X105296488Y-78366073D01*
X105147188Y-78336376D01*
X104983216Y-78268456D01*
X104835646Y-78169853D01*
X104710147Y-78044354D01*
X104611544Y-77896784D01*
X104543624Y-77732812D01*
X104509000Y-77558741D01*
X104509000Y-77381259D01*
X104543624Y-77207188D01*
X104611544Y-77043216D01*
X104710147Y-76895646D01*
X104835646Y-76770147D01*
X104983216Y-76671544D01*
X105147188Y-76603624D01*
X105296488Y-76573927D01*
X105321258Y-76569000D01*
X105498742Y-76569000D01*
X105523512Y-76573927D01*
G37*
G36*
X125843512Y-76573927D02*
G01*
X125992812Y-76603624D01*
X126156784Y-76671544D01*
X126304354Y-76770147D01*
X126429853Y-76895646D01*
X126528456Y-77043216D01*
X126596376Y-77207188D01*
X126631000Y-77381259D01*
X126631000Y-77558741D01*
X126596376Y-77732812D01*
X126528456Y-77896784D01*
X126429853Y-78044354D01*
X126304354Y-78169853D01*
X126156784Y-78268456D01*
X125992812Y-78336376D01*
X125843512Y-78366073D01*
X125818742Y-78371000D01*
X125641258Y-78371000D01*
X125616488Y-78366073D01*
X125467188Y-78336376D01*
X125303216Y-78268456D01*
X125155646Y-78169853D01*
X125030147Y-78044354D01*
X124931544Y-77896784D01*
X124863624Y-77732812D01*
X124829000Y-77558741D01*
X124829000Y-77381259D01*
X124863624Y-77207188D01*
X124931544Y-77043216D01*
X125030147Y-76895646D01*
X125155646Y-76770147D01*
X125303216Y-76671544D01*
X125467188Y-76603624D01*
X125616488Y-76573927D01*
X125641258Y-76569000D01*
X125818742Y-76569000D01*
X125843512Y-76573927D01*
G37*
G36*
X64883512Y-74033927D02*
G01*
X65032812Y-74063624D01*
X65196784Y-74131544D01*
X65344354Y-74230147D01*
X65469853Y-74355646D01*
X65568456Y-74503216D01*
X65636376Y-74667188D01*
X65671000Y-74841259D01*
X65671000Y-75018741D01*
X65636376Y-75192812D01*
X65568456Y-75356784D01*
X65469853Y-75504354D01*
X65344354Y-75629853D01*
X65196784Y-75728456D01*
X65032812Y-75796376D01*
X64883512Y-75826073D01*
X64858742Y-75831000D01*
X64681258Y-75831000D01*
X64656488Y-75826073D01*
X64507188Y-75796376D01*
X64343216Y-75728456D01*
X64195646Y-75629853D01*
X64070147Y-75504354D01*
X63971544Y-75356784D01*
X63903624Y-75192812D01*
X63869000Y-75018741D01*
X63869000Y-74841259D01*
X63903624Y-74667188D01*
X63971544Y-74503216D01*
X64070147Y-74355646D01*
X64195646Y-74230147D01*
X64343216Y-74131544D01*
X64507188Y-74063624D01*
X64656488Y-74033927D01*
X64681258Y-74029000D01*
X64858742Y-74029000D01*
X64883512Y-74033927D01*
G37*
G36*
X126631000Y-75831000D02*
G01*
X124829000Y-75831000D01*
X124829000Y-74029000D01*
X126631000Y-74029000D01*
X126631000Y-75831000D01*
G37*
G36*
X105523512Y-74033927D02*
G01*
X105672812Y-74063624D01*
X105836784Y-74131544D01*
X105984354Y-74230147D01*
X106109853Y-74355646D01*
X106208456Y-74503216D01*
X106276376Y-74667188D01*
X106311000Y-74841259D01*
X106311000Y-75018741D01*
X106276376Y-75192812D01*
X106208456Y-75356784D01*
X106109853Y-75504354D01*
X105984354Y-75629853D01*
X105836784Y-75728456D01*
X105672812Y-75796376D01*
X105523512Y-75826073D01*
X105498742Y-75831000D01*
X105321258Y-75831000D01*
X105296488Y-75826073D01*
X105147188Y-75796376D01*
X104983216Y-75728456D01*
X104835646Y-75629853D01*
X104710147Y-75504354D01*
X104611544Y-75356784D01*
X104543624Y-75192812D01*
X104509000Y-75018741D01*
X104509000Y-74841259D01*
X104543624Y-74667188D01*
X104611544Y-74503216D01*
X104710147Y-74355646D01*
X104835646Y-74230147D01*
X104983216Y-74131544D01*
X105147188Y-74063624D01*
X105296488Y-74033927D01*
X105321258Y-74029000D01*
X105498742Y-74029000D01*
X105523512Y-74033927D01*
G37*
G36*
X175041000Y-74711000D02*
G01*
X172939000Y-74711000D01*
X172939000Y-72609000D01*
X175041000Y-72609000D01*
X175041000Y-74711000D01*
G37*
G36*
X161596564Y-72649389D02*
G01*
X161787833Y-72728615D01*
X161787835Y-72728616D01*
X161959973Y-72843635D01*
X162106365Y-72990027D01*
X162209345Y-73144147D01*
X162221385Y-73162167D01*
X162300611Y-73353436D01*
X162341000Y-73556484D01*
X162341000Y-73763516D01*
X162300611Y-73966564D01*
X162260407Y-74063625D01*
X162221384Y-74157835D01*
X162106365Y-74329973D01*
X161959973Y-74476365D01*
X161787835Y-74591384D01*
X161787834Y-74591385D01*
X161787833Y-74591385D01*
X161596564Y-74670611D01*
X161393516Y-74711000D01*
X161186484Y-74711000D01*
X160983436Y-74670611D01*
X160792167Y-74591385D01*
X160792166Y-74591385D01*
X160792165Y-74591384D01*
X160620027Y-74476365D01*
X160473635Y-74329973D01*
X160358616Y-74157835D01*
X160319593Y-74063625D01*
X160279389Y-73966564D01*
X160239000Y-73763516D01*
X160239000Y-73556484D01*
X160279389Y-73353436D01*
X160358615Y-73162167D01*
X160370656Y-73144147D01*
X160473635Y-72990027D01*
X160620027Y-72843635D01*
X160792165Y-72728616D01*
X160792167Y-72728615D01*
X160983436Y-72649389D01*
X161186484Y-72609000D01*
X161393516Y-72609000D01*
X161596564Y-72649389D01*
G37*
G36*
X64883512Y-71493927D02*
G01*
X65032812Y-71523624D01*
X65196784Y-71591544D01*
X65344354Y-71690147D01*
X65469853Y-71815646D01*
X65568456Y-71963216D01*
X65636376Y-72127188D01*
X65671000Y-72301259D01*
X65671000Y-72478741D01*
X65636376Y-72652812D01*
X65568456Y-72816784D01*
X65469853Y-72964354D01*
X65344354Y-73089853D01*
X65196784Y-73188456D01*
X65032812Y-73256376D01*
X64883512Y-73286073D01*
X64858742Y-73291000D01*
X64681258Y-73291000D01*
X64656488Y-73286073D01*
X64507188Y-73256376D01*
X64343216Y-73188456D01*
X64195646Y-73089853D01*
X64070147Y-72964354D01*
X63971544Y-72816784D01*
X63903624Y-72652812D01*
X63869000Y-72478741D01*
X63869000Y-72301259D01*
X63903624Y-72127188D01*
X63971544Y-71963216D01*
X64070147Y-71815646D01*
X64195646Y-71690147D01*
X64343216Y-71591544D01*
X64507188Y-71523624D01*
X64656488Y-71493927D01*
X64681258Y-71489000D01*
X64858742Y-71489000D01*
X64883512Y-71493927D01*
G37*
G36*
X105523512Y-71493927D02*
G01*
X105672812Y-71523624D01*
X105836784Y-71591544D01*
X105984354Y-71690147D01*
X106109853Y-71815646D01*
X106208456Y-71963216D01*
X106276376Y-72127188D01*
X106311000Y-72301259D01*
X106311000Y-72478741D01*
X106276376Y-72652812D01*
X106208456Y-72816784D01*
X106109853Y-72964354D01*
X105984354Y-73089853D01*
X105836784Y-73188456D01*
X105672812Y-73256376D01*
X105523512Y-73286073D01*
X105498742Y-73291000D01*
X105321258Y-73291000D01*
X105296488Y-73286073D01*
X105147188Y-73256376D01*
X104983216Y-73188456D01*
X104835646Y-73089853D01*
X104710147Y-72964354D01*
X104611544Y-72816784D01*
X104543624Y-72652812D01*
X104509000Y-72478741D01*
X104509000Y-72301259D01*
X104543624Y-72127188D01*
X104611544Y-71963216D01*
X104710147Y-71815646D01*
X104835646Y-71690147D01*
X104983216Y-71591544D01*
X105147188Y-71523624D01*
X105296488Y-71493927D01*
X105321258Y-71489000D01*
X105498742Y-71489000D01*
X105523512Y-71493927D01*
G37*
G36*
X89148228Y-71571703D02*
G01*
X89303100Y-71635853D01*
X89442481Y-71728985D01*
X89561015Y-71847519D01*
X89654147Y-71986900D01*
X89718297Y-72141772D01*
X89751000Y-72306184D01*
X89751000Y-72473816D01*
X89718297Y-72638228D01*
X89654147Y-72793100D01*
X89561015Y-72932481D01*
X89442481Y-73051015D01*
X89303100Y-73144147D01*
X89148228Y-73208297D01*
X88983816Y-73241000D01*
X88816184Y-73241000D01*
X88651772Y-73208297D01*
X88496900Y-73144147D01*
X88357519Y-73051015D01*
X88238985Y-72932481D01*
X88145853Y-72793100D01*
X88081703Y-72638228D01*
X88049000Y-72473816D01*
X88049000Y-72306184D01*
X88081703Y-72141772D01*
X88145853Y-71986900D01*
X88238985Y-71847519D01*
X88357519Y-71728985D01*
X88496900Y-71635853D01*
X88651772Y-71571703D01*
X88816184Y-71539000D01*
X88983816Y-71539000D01*
X89148228Y-71571703D01*
G37*
G36*
X68828228Y-71571703D02*
G01*
X68983100Y-71635853D01*
X69122481Y-71728985D01*
X69241015Y-71847519D01*
X69334147Y-71986900D01*
X69398297Y-72141772D01*
X69431000Y-72306184D01*
X69431000Y-72473816D01*
X69398297Y-72638228D01*
X69334147Y-72793100D01*
X69241015Y-72932481D01*
X69122481Y-73051015D01*
X68983100Y-73144147D01*
X68828228Y-73208297D01*
X68663816Y-73241000D01*
X68496184Y-73241000D01*
X68331772Y-73208297D01*
X68176900Y-73144147D01*
X68037519Y-73051015D01*
X67918985Y-72932481D01*
X67825853Y-72793100D01*
X67761703Y-72638228D01*
X67729000Y-72473816D01*
X67729000Y-72306184D01*
X67761703Y-72141772D01*
X67825853Y-71986900D01*
X67918985Y-71847519D01*
X68037519Y-71728985D01*
X68176900Y-71635853D01*
X68331772Y-71571703D01*
X68496184Y-71539000D01*
X68663816Y-71539000D01*
X68828228Y-71571703D01*
G37*
G36*
X65671000Y-70751000D02*
G01*
X63869000Y-70751000D01*
X63869000Y-68949000D01*
X65671000Y-68949000D01*
X65671000Y-70751000D01*
G37*
G36*
X105523512Y-68953927D02*
G01*
X105672812Y-68983624D01*
X105836784Y-69051544D01*
X105984354Y-69150147D01*
X106109853Y-69275646D01*
X106208456Y-69423216D01*
X106276376Y-69587188D01*
X106311000Y-69761259D01*
X106311000Y-69938741D01*
X106276376Y-70112812D01*
X106208456Y-70276784D01*
X106109853Y-70424354D01*
X105984354Y-70549853D01*
X105836784Y-70648456D01*
X105672812Y-70716376D01*
X105523512Y-70746073D01*
X105498742Y-70751000D01*
X105321258Y-70751000D01*
X105296488Y-70746073D01*
X105147188Y-70716376D01*
X104983216Y-70648456D01*
X104835646Y-70549853D01*
X104710147Y-70424354D01*
X104611544Y-70276784D01*
X104543624Y-70112812D01*
X104509000Y-69938741D01*
X104509000Y-69761259D01*
X104543624Y-69587188D01*
X104611544Y-69423216D01*
X104710147Y-69275646D01*
X104835646Y-69150147D01*
X104983216Y-69051544D01*
X105147188Y-68983624D01*
X105296488Y-68953927D01*
X105321258Y-68949000D01*
X105498742Y-68949000D01*
X105523512Y-68953927D01*
G37*
G36*
X175041000Y-68361000D02*
G01*
X172939000Y-68361000D01*
X172939000Y-66259000D01*
X175041000Y-66259000D01*
X175041000Y-68361000D01*
G37*
G36*
X161596564Y-66299389D02*
G01*
X161787833Y-66378615D01*
X161787835Y-66378616D01*
X161959973Y-66493635D01*
X162106365Y-66640027D01*
X162173067Y-66739853D01*
X162221385Y-66812167D01*
X162300611Y-67003436D01*
X162341000Y-67206484D01*
X162341000Y-67413516D01*
X162300611Y-67616564D01*
X162250815Y-67736782D01*
X162221384Y-67807835D01*
X162106365Y-67979973D01*
X161959973Y-68126365D01*
X161787835Y-68241384D01*
X161787834Y-68241385D01*
X161787833Y-68241385D01*
X161596564Y-68320611D01*
X161393516Y-68361000D01*
X161186484Y-68361000D01*
X160983436Y-68320611D01*
X160792167Y-68241385D01*
X160792166Y-68241385D01*
X160792165Y-68241384D01*
X160620027Y-68126365D01*
X160473635Y-67979973D01*
X160358616Y-67807835D01*
X160329185Y-67736782D01*
X160279389Y-67616564D01*
X160239000Y-67413516D01*
X160239000Y-67206484D01*
X160279389Y-67003436D01*
X160358615Y-66812167D01*
X160406934Y-66739853D01*
X160473635Y-66640027D01*
X160620027Y-66493635D01*
X160792165Y-66378616D01*
X160792167Y-66378615D01*
X160983436Y-66299389D01*
X161186484Y-66259000D01*
X161393516Y-66259000D01*
X161596564Y-66299389D01*
G37*
G36*
X105523512Y-66413927D02*
G01*
X105672812Y-66443624D01*
X105836784Y-66511544D01*
X105984354Y-66610147D01*
X106109853Y-66735646D01*
X106208456Y-66883216D01*
X106276376Y-67047188D01*
X106311000Y-67221259D01*
X106311000Y-67398741D01*
X106276376Y-67572812D01*
X106208456Y-67736784D01*
X106109853Y-67884354D01*
X105984354Y-68009853D01*
X105836784Y-68108456D01*
X105672812Y-68176376D01*
X105523512Y-68206073D01*
X105498742Y-68211000D01*
X105321258Y-68211000D01*
X105296488Y-68206073D01*
X105147188Y-68176376D01*
X104983216Y-68108456D01*
X104835646Y-68009853D01*
X104710147Y-67884354D01*
X104611544Y-67736784D01*
X104543624Y-67572812D01*
X104509000Y-67398741D01*
X104509000Y-67221259D01*
X104543624Y-67047188D01*
X104611544Y-66883216D01*
X104710147Y-66735646D01*
X104835646Y-66610147D01*
X104983216Y-66511544D01*
X105147188Y-66443624D01*
X105296488Y-66413927D01*
X105321258Y-66409000D01*
X105498742Y-66409000D01*
X105523512Y-66413927D01*
G37*
G36*
X184263512Y-65143927D02*
G01*
X184412812Y-65173624D01*
X184576784Y-65241544D01*
X184724354Y-65340147D01*
X184849853Y-65465646D01*
X184948456Y-65613216D01*
X185016376Y-65777188D01*
X185051000Y-65951259D01*
X185051000Y-66128741D01*
X185016376Y-66302812D01*
X184948456Y-66466784D01*
X184849853Y-66614354D01*
X184724354Y-66739853D01*
X184576784Y-66838456D01*
X184412812Y-66906376D01*
X184263512Y-66936073D01*
X184238742Y-66941000D01*
X184061258Y-66941000D01*
X184036488Y-66936073D01*
X183887188Y-66906376D01*
X183723216Y-66838456D01*
X183575646Y-66739853D01*
X183450147Y-66614354D01*
X183351544Y-66466784D01*
X183283624Y-66302812D01*
X183249000Y-66128741D01*
X183249000Y-65951259D01*
X183283624Y-65777188D01*
X183351544Y-65613216D01*
X183450147Y-65465646D01*
X183575646Y-65340147D01*
X183723216Y-65241544D01*
X183887188Y-65173624D01*
X184036488Y-65143927D01*
X184061258Y-65139000D01*
X184238742Y-65139000D01*
X184263512Y-65143927D01*
G37*
G36*
X106311000Y-65671000D02*
G01*
X104509000Y-65671000D01*
X104509000Y-63869000D01*
X106311000Y-63869000D01*
X106311000Y-65671000D01*
G37*
G36*
X64883512Y-62603927D02*
G01*
X65032812Y-62633624D01*
X65196784Y-62701544D01*
X65344354Y-62800147D01*
X65469853Y-62925646D01*
X65568456Y-63073216D01*
X65636376Y-63237188D01*
X65671000Y-63411259D01*
X65671000Y-63588741D01*
X65636376Y-63762812D01*
X65568456Y-63926784D01*
X65469853Y-64074354D01*
X65344354Y-64199853D01*
X65196784Y-64298456D01*
X65032812Y-64366376D01*
X64883512Y-64396073D01*
X64858742Y-64401000D01*
X64681258Y-64401000D01*
X64656488Y-64396073D01*
X64507188Y-64366376D01*
X64343216Y-64298456D01*
X64195646Y-64199853D01*
X64070147Y-64074354D01*
X63971544Y-63926784D01*
X63903624Y-63762812D01*
X63869000Y-63588741D01*
X63869000Y-63411259D01*
X63903624Y-63237188D01*
X63971544Y-63073216D01*
X64070147Y-62925646D01*
X64195646Y-62800147D01*
X64343216Y-62701544D01*
X64507188Y-62633624D01*
X64656488Y-62603927D01*
X64681258Y-62599000D01*
X64858742Y-62599000D01*
X64883512Y-62603927D01*
G37*
G36*
X184263512Y-62603927D02*
G01*
X184412812Y-62633624D01*
X184576784Y-62701544D01*
X184724354Y-62800147D01*
X184849853Y-62925646D01*
X184948456Y-63073216D01*
X185016376Y-63237188D01*
X185051000Y-63411259D01*
X185051000Y-63588741D01*
X185016376Y-63762812D01*
X184948456Y-63926784D01*
X184849853Y-64074354D01*
X184724354Y-64199853D01*
X184576784Y-64298456D01*
X184412812Y-64366376D01*
X184263512Y-64396073D01*
X184238742Y-64401000D01*
X184061258Y-64401000D01*
X184036488Y-64396073D01*
X183887188Y-64366376D01*
X183723216Y-64298456D01*
X183575646Y-64199853D01*
X183450147Y-64074354D01*
X183351544Y-63926784D01*
X183283624Y-63762812D01*
X183249000Y-63588741D01*
X183249000Y-63411259D01*
X183283624Y-63237188D01*
X183351544Y-63073216D01*
X183450147Y-62925646D01*
X183575646Y-62800147D01*
X183723216Y-62701544D01*
X183887188Y-62633624D01*
X184036488Y-62603927D01*
X184061258Y-62599000D01*
X184238742Y-62599000D01*
X184263512Y-62603927D01*
G37*
G36*
X161596564Y-59949389D02*
G01*
X161787833Y-60028615D01*
X161787835Y-60028616D01*
X161959973Y-60143635D01*
X162106365Y-60290027D01*
X162170256Y-60385646D01*
X162221385Y-60462167D01*
X162300611Y-60653436D01*
X162341000Y-60856484D01*
X162341000Y-61063516D01*
X162300611Y-61266564D01*
X162250815Y-61386782D01*
X162221384Y-61457835D01*
X162106365Y-61629973D01*
X161959973Y-61776365D01*
X161787835Y-61891384D01*
X161787834Y-61891385D01*
X161787833Y-61891385D01*
X161596564Y-61970611D01*
X161393516Y-62011000D01*
X161186484Y-62011000D01*
X160983436Y-61970611D01*
X160792167Y-61891385D01*
X160792166Y-61891385D01*
X160792165Y-61891384D01*
X160620027Y-61776365D01*
X160473635Y-61629973D01*
X160358616Y-61457835D01*
X160329185Y-61386782D01*
X160279389Y-61266564D01*
X160239000Y-61063516D01*
X160239000Y-60856484D01*
X160279389Y-60653436D01*
X160358615Y-60462167D01*
X160409745Y-60385646D01*
X160473635Y-60290027D01*
X160620027Y-60143635D01*
X160792165Y-60028616D01*
X160792167Y-60028615D01*
X160983436Y-59949389D01*
X161186484Y-59909000D01*
X161393516Y-59909000D01*
X161596564Y-59949389D01*
G37*
G36*
X175041000Y-62011000D02*
G01*
X172939000Y-62011000D01*
X172939000Y-59909000D01*
X175041000Y-59909000D01*
X175041000Y-62011000D01*
G37*
G36*
X64883512Y-60063927D02*
G01*
X65032812Y-60093624D01*
X65196784Y-60161544D01*
X65344354Y-60260147D01*
X65469853Y-60385646D01*
X65568456Y-60533216D01*
X65636376Y-60697188D01*
X65671000Y-60871259D01*
X65671000Y-61048741D01*
X65636376Y-61222812D01*
X65568456Y-61386784D01*
X65469853Y-61534354D01*
X65344354Y-61659853D01*
X65196784Y-61758456D01*
X65032812Y-61826376D01*
X64883512Y-61856073D01*
X64858742Y-61861000D01*
X64681258Y-61861000D01*
X64656488Y-61856073D01*
X64507188Y-61826376D01*
X64343216Y-61758456D01*
X64195646Y-61659853D01*
X64070147Y-61534354D01*
X63971544Y-61386784D01*
X63903624Y-61222812D01*
X63869000Y-61048741D01*
X63869000Y-60871259D01*
X63903624Y-60697188D01*
X63971544Y-60533216D01*
X64070147Y-60385646D01*
X64195646Y-60260147D01*
X64343216Y-60161544D01*
X64507188Y-60093624D01*
X64656488Y-60063927D01*
X64681258Y-60059000D01*
X64858742Y-60059000D01*
X64883512Y-60063927D01*
G37*
G36*
X184263512Y-60063927D02*
G01*
X184412812Y-60093624D01*
X184576784Y-60161544D01*
X184724354Y-60260147D01*
X184849853Y-60385646D01*
X184948456Y-60533216D01*
X185016376Y-60697188D01*
X185051000Y-60871259D01*
X185051000Y-61048741D01*
X185016376Y-61222812D01*
X184948456Y-61386784D01*
X184849853Y-61534354D01*
X184724354Y-61659853D01*
X184576784Y-61758456D01*
X184412812Y-61826376D01*
X184263512Y-61856073D01*
X184238742Y-61861000D01*
X184061258Y-61861000D01*
X184036488Y-61856073D01*
X183887188Y-61826376D01*
X183723216Y-61758456D01*
X183575646Y-61659853D01*
X183450147Y-61534354D01*
X183351544Y-61386784D01*
X183283624Y-61222812D01*
X183249000Y-61048741D01*
X183249000Y-60871259D01*
X183283624Y-60697188D01*
X183351544Y-60533216D01*
X183450147Y-60385646D01*
X183575646Y-60260147D01*
X183723216Y-60161544D01*
X183887188Y-60093624D01*
X184036488Y-60063927D01*
X184061258Y-60059000D01*
X184238742Y-60059000D01*
X184263512Y-60063927D01*
G37*
G36*
X184263512Y-57523927D02*
G01*
X184412812Y-57553624D01*
X184576784Y-57621544D01*
X184724354Y-57720147D01*
X184849853Y-57845646D01*
X184948456Y-57993216D01*
X185016376Y-58157188D01*
X185051000Y-58331259D01*
X185051000Y-58508741D01*
X185016376Y-58682812D01*
X184948456Y-58846784D01*
X184849853Y-58994354D01*
X184724354Y-59119853D01*
X184576784Y-59218456D01*
X184412812Y-59286376D01*
X184263512Y-59316073D01*
X184238742Y-59321000D01*
X184061258Y-59321000D01*
X184036488Y-59316073D01*
X183887188Y-59286376D01*
X183723216Y-59218456D01*
X183575646Y-59119853D01*
X183450147Y-58994354D01*
X183351544Y-58846784D01*
X183283624Y-58682812D01*
X183249000Y-58508741D01*
X183249000Y-58331259D01*
X183283624Y-58157188D01*
X183351544Y-57993216D01*
X183450147Y-57845646D01*
X183575646Y-57720147D01*
X183723216Y-57621544D01*
X183887188Y-57553624D01*
X184036488Y-57523927D01*
X184061258Y-57519000D01*
X184238742Y-57519000D01*
X184263512Y-57523927D01*
G37*
G36*
X64883512Y-57523927D02*
G01*
X65032812Y-57553624D01*
X65196784Y-57621544D01*
X65344354Y-57720147D01*
X65469853Y-57845646D01*
X65568456Y-57993216D01*
X65636376Y-58157188D01*
X65671000Y-58331259D01*
X65671000Y-58508741D01*
X65636376Y-58682812D01*
X65568456Y-58846784D01*
X65469853Y-58994354D01*
X65344354Y-59119853D01*
X65196784Y-59218456D01*
X65032812Y-59286376D01*
X64883512Y-59316073D01*
X64858742Y-59321000D01*
X64681258Y-59321000D01*
X64656488Y-59316073D01*
X64507188Y-59286376D01*
X64343216Y-59218456D01*
X64195646Y-59119853D01*
X64070147Y-58994354D01*
X63971544Y-58846784D01*
X63903624Y-58682812D01*
X63869000Y-58508741D01*
X63869000Y-58331259D01*
X63903624Y-58157188D01*
X63971544Y-57993216D01*
X64070147Y-57845646D01*
X64195646Y-57720147D01*
X64343216Y-57621544D01*
X64507188Y-57553624D01*
X64656488Y-57523927D01*
X64681258Y-57519000D01*
X64858742Y-57519000D01*
X64883512Y-57523927D01*
G37*
G36*
X185051000Y-56781000D02*
G01*
X183249000Y-56781000D01*
X183249000Y-54979000D01*
X185051000Y-54979000D01*
X185051000Y-56781000D01*
G37*
G36*
X64883512Y-54983927D02*
G01*
X65032812Y-55013624D01*
X65196784Y-55081544D01*
X65344354Y-55180147D01*
X65469853Y-55305646D01*
X65568456Y-55453216D01*
X65636376Y-55617188D01*
X65671000Y-55791259D01*
X65671000Y-55968741D01*
X65636376Y-56142812D01*
X65568456Y-56306784D01*
X65469853Y-56454354D01*
X65344354Y-56579853D01*
X65196784Y-56678456D01*
X65032812Y-56746376D01*
X64883512Y-56776073D01*
X64858742Y-56781000D01*
X64681258Y-56781000D01*
X64656488Y-56776073D01*
X64507188Y-56746376D01*
X64343216Y-56678456D01*
X64195646Y-56579853D01*
X64070147Y-56454354D01*
X63971544Y-56306784D01*
X63903624Y-56142812D01*
X63869000Y-55968741D01*
X63869000Y-55791259D01*
X63903624Y-55617188D01*
X63971544Y-55453216D01*
X64070147Y-55305646D01*
X64195646Y-55180147D01*
X64343216Y-55081544D01*
X64507188Y-55013624D01*
X64656488Y-54983927D01*
X64681258Y-54979000D01*
X64858742Y-54979000D01*
X64883512Y-54983927D01*
G37*
G36*
X89148228Y-55061703D02*
G01*
X89303100Y-55125853D01*
X89442481Y-55218985D01*
X89561015Y-55337519D01*
X89654147Y-55476900D01*
X89718297Y-55631772D01*
X89751000Y-55796184D01*
X89751000Y-55963816D01*
X89718297Y-56128228D01*
X89654147Y-56283100D01*
X89561015Y-56422481D01*
X89442481Y-56541015D01*
X89303100Y-56634147D01*
X89148228Y-56698297D01*
X88983816Y-56731000D01*
X88816184Y-56731000D01*
X88651772Y-56698297D01*
X88496900Y-56634147D01*
X88357519Y-56541015D01*
X88238985Y-56422481D01*
X88145853Y-56283100D01*
X88081703Y-56128228D01*
X88049000Y-55963816D01*
X88049000Y-55796184D01*
X88081703Y-55631772D01*
X88145853Y-55476900D01*
X88238985Y-55337519D01*
X88357519Y-55218985D01*
X88496900Y-55125853D01*
X88651772Y-55061703D01*
X88816184Y-55029000D01*
X88983816Y-55029000D01*
X89148228Y-55061703D01*
G37*
G36*
X68828228Y-55061703D02*
G01*
X68983100Y-55125853D01*
X69122481Y-55218985D01*
X69241015Y-55337519D01*
X69334147Y-55476900D01*
X69398297Y-55631772D01*
X69431000Y-55796184D01*
X69431000Y-55963816D01*
X69398297Y-56128228D01*
X69334147Y-56283100D01*
X69241015Y-56422481D01*
X69122481Y-56541015D01*
X68983100Y-56634147D01*
X68828228Y-56698297D01*
X68663816Y-56731000D01*
X68496184Y-56731000D01*
X68331772Y-56698297D01*
X68176900Y-56634147D01*
X68037519Y-56541015D01*
X67918985Y-56422481D01*
X67825853Y-56283100D01*
X67761703Y-56128228D01*
X67729000Y-55963816D01*
X67729000Y-55796184D01*
X67761703Y-55631772D01*
X67825853Y-55476900D01*
X67918985Y-55337519D01*
X68037519Y-55218985D01*
X68176900Y-55125853D01*
X68331772Y-55061703D01*
X68496184Y-55029000D01*
X68663816Y-55029000D01*
X68828228Y-55061703D01*
G37*
G36*
X175041000Y-55661000D02*
G01*
X172939000Y-55661000D01*
X172939000Y-53559000D01*
X175041000Y-53559000D01*
X175041000Y-55661000D01*
G37*
G36*
X161596564Y-53599389D02*
G01*
X161787833Y-53678615D01*
X161787835Y-53678616D01*
X161959973Y-53793635D01*
X162106365Y-53940027D01*
X162221385Y-54112167D01*
X162300611Y-54303436D01*
X162341000Y-54506484D01*
X162341000Y-54713516D01*
X162300611Y-54916564D01*
X162240492Y-55061705D01*
X162221384Y-55107835D01*
X162106365Y-55279973D01*
X161959973Y-55426365D01*
X161787835Y-55541384D01*
X161787834Y-55541385D01*
X161787833Y-55541385D01*
X161596564Y-55620611D01*
X161393516Y-55661000D01*
X161186484Y-55661000D01*
X160983436Y-55620611D01*
X160792167Y-55541385D01*
X160792166Y-55541385D01*
X160792165Y-55541384D01*
X160620027Y-55426365D01*
X160473635Y-55279973D01*
X160358616Y-55107835D01*
X160339508Y-55061705D01*
X160279389Y-54916564D01*
X160239000Y-54713516D01*
X160239000Y-54506484D01*
X160279389Y-54303436D01*
X160358615Y-54112167D01*
X160473635Y-53940027D01*
X160620027Y-53793635D01*
X160792165Y-53678616D01*
X160792167Y-53678615D01*
X160983436Y-53599389D01*
X161186484Y-53559000D01*
X161393516Y-53559000D01*
X161596564Y-53599389D01*
G37*
G36*
X65671000Y-54241000D02*
G01*
X63869000Y-54241000D01*
X63869000Y-52439000D01*
X65671000Y-52439000D01*
X65671000Y-54241000D01*
G37*
G36*
X175041000Y-49311000D02*
G01*
X172939000Y-49311000D01*
X172939000Y-47209000D01*
X175041000Y-47209000D01*
X175041000Y-49311000D01*
G37*
G36*
X161596564Y-47249389D02*
G01*
X161787833Y-47328615D01*
X161787835Y-47328616D01*
X161959973Y-47443635D01*
X162106365Y-47590027D01*
X162173067Y-47689853D01*
X162221385Y-47762167D01*
X162300611Y-47953436D01*
X162341000Y-48156484D01*
X162341000Y-48363516D01*
X162300611Y-48566564D01*
X162221385Y-48757833D01*
X162221384Y-48757835D01*
X162106365Y-48929973D01*
X161959973Y-49076365D01*
X161787835Y-49191384D01*
X161787834Y-49191385D01*
X161787833Y-49191385D01*
X161596564Y-49270611D01*
X161393516Y-49311000D01*
X161186484Y-49311000D01*
X160983436Y-49270611D01*
X160792167Y-49191385D01*
X160792166Y-49191385D01*
X160792165Y-49191384D01*
X160620027Y-49076365D01*
X160473635Y-48929973D01*
X160358616Y-48757835D01*
X160358615Y-48757833D01*
X160279389Y-48566564D01*
X160239000Y-48363516D01*
X160239000Y-48156484D01*
X160279389Y-47953436D01*
X160358615Y-47762167D01*
X160406934Y-47689853D01*
X160473635Y-47590027D01*
X160620027Y-47443635D01*
X160792165Y-47328616D01*
X160792167Y-47328615D01*
X160983436Y-47249389D01*
X161186484Y-47209000D01*
X161393516Y-47209000D01*
X161596564Y-47249389D01*
G37*
G36*
X64883512Y-46093927D02*
G01*
X65032812Y-46123624D01*
X65196784Y-46191544D01*
X65344354Y-46290147D01*
X65469853Y-46415646D01*
X65568456Y-46563216D01*
X65636376Y-46727188D01*
X65671000Y-46901259D01*
X65671000Y-47078741D01*
X65636376Y-47252812D01*
X65568456Y-47416784D01*
X65469853Y-47564354D01*
X65344354Y-47689853D01*
X65196784Y-47788456D01*
X65032812Y-47856376D01*
X64883512Y-47886073D01*
X64858742Y-47891000D01*
X64681258Y-47891000D01*
X64656488Y-47886073D01*
X64507188Y-47856376D01*
X64343216Y-47788456D01*
X64195646Y-47689853D01*
X64070147Y-47564354D01*
X63971544Y-47416784D01*
X63903624Y-47252812D01*
X63869000Y-47078741D01*
X63869000Y-46901259D01*
X63903624Y-46727188D01*
X63971544Y-46563216D01*
X64070147Y-46415646D01*
X64195646Y-46290147D01*
X64343216Y-46191544D01*
X64507188Y-46123624D01*
X64656488Y-46093927D01*
X64681258Y-46089000D01*
X64858742Y-46089000D01*
X64883512Y-46093927D01*
G37*
G36*
X64883512Y-43553927D02*
G01*
X65032812Y-43583624D01*
X65196784Y-43651544D01*
X65344354Y-43750147D01*
X65469853Y-43875646D01*
X65568456Y-44023216D01*
X65636376Y-44187188D01*
X65671000Y-44361259D01*
X65671000Y-44538741D01*
X65636376Y-44712812D01*
X65568456Y-44876784D01*
X65469853Y-45024354D01*
X65344354Y-45149853D01*
X65196784Y-45248456D01*
X65032812Y-45316376D01*
X64883512Y-45346073D01*
X64858742Y-45351000D01*
X64681258Y-45351000D01*
X64656488Y-45346073D01*
X64507188Y-45316376D01*
X64343216Y-45248456D01*
X64195646Y-45149853D01*
X64070147Y-45024354D01*
X63971544Y-44876784D01*
X63903624Y-44712812D01*
X63869000Y-44538741D01*
X63869000Y-44361259D01*
X63903624Y-44187188D01*
X63971544Y-44023216D01*
X64070147Y-43875646D01*
X64195646Y-43750147D01*
X64343216Y-43651544D01*
X64507188Y-43583624D01*
X64656488Y-43553927D01*
X64681258Y-43549000D01*
X64858742Y-43549000D01*
X64883512Y-43553927D01*
G37*
G36*
X143816564Y-42169389D02*
G01*
X144007833Y-42248615D01*
X144007835Y-42248616D01*
X144179973Y-42363635D01*
X144326365Y-42510027D01*
X144429345Y-42664147D01*
X144441385Y-42682167D01*
X144520611Y-42873436D01*
X144561000Y-43076484D01*
X144561000Y-43283516D01*
X144520611Y-43486564D01*
X144480407Y-43583625D01*
X144441384Y-43677835D01*
X144326365Y-43849973D01*
X144179973Y-43996365D01*
X144007835Y-44111384D01*
X144007834Y-44111385D01*
X144007833Y-44111385D01*
X143816564Y-44190611D01*
X143613516Y-44231000D01*
X143406484Y-44231000D01*
X143203436Y-44190611D01*
X143012167Y-44111385D01*
X143012166Y-44111385D01*
X143012165Y-44111384D01*
X142840027Y-43996365D01*
X142693635Y-43849973D01*
X142578616Y-43677835D01*
X142539593Y-43583625D01*
X142499389Y-43486564D01*
X142459000Y-43283516D01*
X142459000Y-43076484D01*
X142499389Y-42873436D01*
X142578615Y-42682167D01*
X142590656Y-42664147D01*
X142693635Y-42510027D01*
X142840027Y-42363635D01*
X143012165Y-42248616D01*
X143012167Y-42248615D01*
X143203436Y-42169389D01*
X143406484Y-42129000D01*
X143613516Y-42129000D01*
X143816564Y-42169389D01*
G37*
G36*
X137466564Y-42169389D02*
G01*
X137657833Y-42248615D01*
X137657835Y-42248616D01*
X137829973Y-42363635D01*
X137976365Y-42510027D01*
X138079345Y-42664147D01*
X138091385Y-42682167D01*
X138170611Y-42873436D01*
X138211000Y-43076484D01*
X138211000Y-43283516D01*
X138170611Y-43486564D01*
X138130407Y-43583625D01*
X138091384Y-43677835D01*
X137976365Y-43849973D01*
X137829973Y-43996365D01*
X137657835Y-44111384D01*
X137657834Y-44111385D01*
X137657833Y-44111385D01*
X137466564Y-44190611D01*
X137263516Y-44231000D01*
X137056484Y-44231000D01*
X136853436Y-44190611D01*
X136662167Y-44111385D01*
X136662166Y-44111385D01*
X136662165Y-44111384D01*
X136490027Y-43996365D01*
X136343635Y-43849973D01*
X136228616Y-43677835D01*
X136189593Y-43583625D01*
X136149389Y-43486564D01*
X136109000Y-43283516D01*
X136109000Y-43076484D01*
X136149389Y-42873436D01*
X136228615Y-42682167D01*
X136240656Y-42664147D01*
X136343635Y-42510027D01*
X136490027Y-42363635D01*
X136662165Y-42248616D01*
X136662167Y-42248615D01*
X136853436Y-42169389D01*
X137056484Y-42129000D01*
X137263516Y-42129000D01*
X137466564Y-42169389D01*
G37*
G36*
X162866564Y-42169389D02*
G01*
X163057833Y-42248615D01*
X163057835Y-42248616D01*
X163229973Y-42363635D01*
X163376365Y-42510027D01*
X163479345Y-42664147D01*
X163491385Y-42682167D01*
X163570611Y-42873436D01*
X163611000Y-43076484D01*
X163611000Y-43283516D01*
X163570611Y-43486564D01*
X163530407Y-43583625D01*
X163491384Y-43677835D01*
X163376365Y-43849973D01*
X163229973Y-43996365D01*
X163057835Y-44111384D01*
X163057834Y-44111385D01*
X163057833Y-44111385D01*
X162866564Y-44190611D01*
X162663516Y-44231000D01*
X162456484Y-44231000D01*
X162253436Y-44190611D01*
X162062167Y-44111385D01*
X162062166Y-44111385D01*
X162062165Y-44111384D01*
X161890027Y-43996365D01*
X161743635Y-43849973D01*
X161628616Y-43677835D01*
X161589593Y-43583625D01*
X161549389Y-43486564D01*
X161509000Y-43283516D01*
X161509000Y-43076484D01*
X161549389Y-42873436D01*
X161628615Y-42682167D01*
X161640656Y-42664147D01*
X161743635Y-42510027D01*
X161890027Y-42363635D01*
X162062165Y-42248616D01*
X162062167Y-42248615D01*
X162253436Y-42169389D01*
X162456484Y-42129000D01*
X162663516Y-42129000D01*
X162866564Y-42169389D01*
G37*
G36*
X156516564Y-42169389D02*
G01*
X156707833Y-42248615D01*
X156707835Y-42248616D01*
X156879973Y-42363635D01*
X157026365Y-42510027D01*
X157129345Y-42664147D01*
X157141385Y-42682167D01*
X157220611Y-42873436D01*
X157261000Y-43076484D01*
X157261000Y-43283516D01*
X157220611Y-43486564D01*
X157180407Y-43583625D01*
X157141384Y-43677835D01*
X157026365Y-43849973D01*
X156879973Y-43996365D01*
X156707835Y-44111384D01*
X156707834Y-44111385D01*
X156707833Y-44111385D01*
X156516564Y-44190611D01*
X156313516Y-44231000D01*
X156106484Y-44231000D01*
X155903436Y-44190611D01*
X155712167Y-44111385D01*
X155712166Y-44111385D01*
X155712165Y-44111384D01*
X155540027Y-43996365D01*
X155393635Y-43849973D01*
X155278616Y-43677835D01*
X155239593Y-43583625D01*
X155199389Y-43486564D01*
X155159000Y-43283516D01*
X155159000Y-43076484D01*
X155199389Y-42873436D01*
X155278615Y-42682167D01*
X155290656Y-42664147D01*
X155393635Y-42510027D01*
X155540027Y-42363635D01*
X155712165Y-42248616D01*
X155712167Y-42248615D01*
X155903436Y-42169389D01*
X156106484Y-42129000D01*
X156313516Y-42129000D01*
X156516564Y-42169389D01*
G37*
G36*
X150166564Y-42169389D02*
G01*
X150357833Y-42248615D01*
X150357835Y-42248616D01*
X150529973Y-42363635D01*
X150676365Y-42510027D01*
X150779345Y-42664147D01*
X150791385Y-42682167D01*
X150870611Y-42873436D01*
X150911000Y-43076484D01*
X150911000Y-43283516D01*
X150870611Y-43486564D01*
X150830407Y-43583625D01*
X150791384Y-43677835D01*
X150676365Y-43849973D01*
X150529973Y-43996365D01*
X150357835Y-44111384D01*
X150357834Y-44111385D01*
X150357833Y-44111385D01*
X150166564Y-44190611D01*
X149963516Y-44231000D01*
X149756484Y-44231000D01*
X149553436Y-44190611D01*
X149362167Y-44111385D01*
X149362166Y-44111385D01*
X149362165Y-44111384D01*
X149190027Y-43996365D01*
X149043635Y-43849973D01*
X148928616Y-43677835D01*
X148889593Y-43583625D01*
X148849389Y-43486564D01*
X148809000Y-43283516D01*
X148809000Y-43076484D01*
X148849389Y-42873436D01*
X148928615Y-42682167D01*
X148940656Y-42664147D01*
X149043635Y-42510027D01*
X149190027Y-42363635D01*
X149362165Y-42248616D01*
X149362167Y-42248615D01*
X149553436Y-42169389D01*
X149756484Y-42129000D01*
X149963516Y-42129000D01*
X150166564Y-42169389D01*
G37*
G36*
X64883512Y-41013927D02*
G01*
X65032812Y-41043624D01*
X65196784Y-41111544D01*
X65344354Y-41210147D01*
X65469853Y-41335646D01*
X65568456Y-41483216D01*
X65636376Y-41647188D01*
X65671000Y-41821259D01*
X65671000Y-41998741D01*
X65636376Y-42172812D01*
X65568456Y-42336784D01*
X65469853Y-42484354D01*
X65344354Y-42609853D01*
X65196784Y-42708456D01*
X65032812Y-42776376D01*
X64883512Y-42806073D01*
X64858742Y-42811000D01*
X64681258Y-42811000D01*
X64656488Y-42806073D01*
X64507188Y-42776376D01*
X64343216Y-42708456D01*
X64195646Y-42609853D01*
X64070147Y-42484354D01*
X63971544Y-42336784D01*
X63903624Y-42172812D01*
X63869000Y-41998741D01*
X63869000Y-41821259D01*
X63903624Y-41647188D01*
X63971544Y-41483216D01*
X64070147Y-41335646D01*
X64195646Y-41210147D01*
X64343216Y-41111544D01*
X64507188Y-41043624D01*
X64656488Y-41013927D01*
X64681258Y-41009000D01*
X64858742Y-41009000D01*
X64883512Y-41013927D01*
G37*
G36*
X89148228Y-41091703D02*
G01*
X89303100Y-41155853D01*
X89442481Y-41248985D01*
X89561015Y-41367519D01*
X89654147Y-41506900D01*
X89718297Y-41661772D01*
X89751000Y-41826184D01*
X89751000Y-41993816D01*
X89718297Y-42158228D01*
X89654147Y-42313100D01*
X89561015Y-42452481D01*
X89442481Y-42571015D01*
X89303100Y-42664147D01*
X89148228Y-42728297D01*
X88983816Y-42761000D01*
X88816184Y-42761000D01*
X88651772Y-42728297D01*
X88496900Y-42664147D01*
X88357519Y-42571015D01*
X88238985Y-42452481D01*
X88145853Y-42313100D01*
X88081703Y-42158228D01*
X88049000Y-41993816D01*
X88049000Y-41826184D01*
X88081703Y-41661772D01*
X88145853Y-41506900D01*
X88238985Y-41367519D01*
X88357519Y-41248985D01*
X88496900Y-41155853D01*
X88651772Y-41091703D01*
X88816184Y-41059000D01*
X88983816Y-41059000D01*
X89148228Y-41091703D01*
G37*
G36*
X68828228Y-41091703D02*
G01*
X68983100Y-41155853D01*
X69122481Y-41248985D01*
X69241015Y-41367519D01*
X69334147Y-41506900D01*
X69398297Y-41661772D01*
X69431000Y-41826184D01*
X69431000Y-41993816D01*
X69398297Y-42158228D01*
X69334147Y-42313100D01*
X69241015Y-42452481D01*
X69122481Y-42571015D01*
X68983100Y-42664147D01*
X68828228Y-42728297D01*
X68663816Y-42761000D01*
X68496184Y-42761000D01*
X68331772Y-42728297D01*
X68176900Y-42664147D01*
X68037519Y-42571015D01*
X67918985Y-42452481D01*
X67825853Y-42313100D01*
X67761703Y-42158228D01*
X67729000Y-41993816D01*
X67729000Y-41826184D01*
X67761703Y-41661772D01*
X67825853Y-41506900D01*
X67918985Y-41367519D01*
X68037519Y-41248985D01*
X68176900Y-41155853D01*
X68331772Y-41091703D01*
X68496184Y-41059000D01*
X68663816Y-41059000D01*
X68828228Y-41091703D01*
G37*
G36*
X64883512Y-38473927D02*
G01*
X65032812Y-38503624D01*
X65196784Y-38571544D01*
X65344354Y-38670147D01*
X65469853Y-38795646D01*
X65568456Y-38943216D01*
X65636376Y-39107188D01*
X65671000Y-39281259D01*
X65671000Y-39458741D01*
X65636376Y-39632812D01*
X65568456Y-39796784D01*
X65469853Y-39944354D01*
X65344354Y-40069853D01*
X65196784Y-40168456D01*
X65032812Y-40236376D01*
X64883512Y-40266073D01*
X64858742Y-40271000D01*
X64681258Y-40271000D01*
X64656488Y-40266073D01*
X64507188Y-40236376D01*
X64343216Y-40168456D01*
X64195646Y-40069853D01*
X64070147Y-39944354D01*
X63971544Y-39796784D01*
X63903624Y-39632812D01*
X63869000Y-39458741D01*
X63869000Y-39281259D01*
X63903624Y-39107188D01*
X63971544Y-38943216D01*
X64070147Y-38795646D01*
X64195646Y-38670147D01*
X64343216Y-38571544D01*
X64507188Y-38503624D01*
X64656488Y-38473927D01*
X64681258Y-38469000D01*
X64858742Y-38469000D01*
X64883512Y-38473927D01*
G37*
G36*
X65671000Y-37731000D02*
G01*
X63869000Y-37731000D01*
X63869000Y-35929000D01*
X65671000Y-35929000D01*
X65671000Y-37731000D01*
G37*
G36*
X138211000Y-31531000D02*
G01*
X136109000Y-31531000D01*
X136109000Y-29429000D01*
X138211000Y-29429000D01*
X138211000Y-31531000D01*
G37*
G36*
X144561000Y-31531000D02*
G01*
X142459000Y-31531000D01*
X142459000Y-29429000D01*
X144561000Y-29429000D01*
X144561000Y-31531000D01*
G37*
G36*
X163611000Y-31531000D02*
G01*
X161509000Y-31531000D01*
X161509000Y-29429000D01*
X163611000Y-29429000D01*
X163611000Y-31531000D01*
G37*
G36*
X157261000Y-31531000D02*
G01*
X155159000Y-31531000D01*
X155159000Y-29429000D01*
X157261000Y-29429000D01*
X157261000Y-31531000D01*
G37*
G36*
X150911000Y-31531000D02*
G01*
X148809000Y-31531000D01*
X148809000Y-29429000D01*
X150911000Y-29429000D01*
X150911000Y-31531000D01*
G37*
G36*
X98038228Y-28391703D02*
G01*
X98193100Y-28455853D01*
X98332481Y-28548985D01*
X98451015Y-28667519D01*
X98544147Y-28806900D01*
X98608297Y-28961772D01*
X98641000Y-29126184D01*
X98641000Y-29293816D01*
X98608297Y-29458228D01*
X98544147Y-29613100D01*
X98451015Y-29752481D01*
X98332481Y-29871015D01*
X98193100Y-29964147D01*
X98038228Y-30028297D01*
X97873816Y-30061000D01*
X97706184Y-30061000D01*
X97541772Y-30028297D01*
X97386900Y-29964147D01*
X97247519Y-29871015D01*
X97128985Y-29752481D01*
X97035853Y-29613100D01*
X96971703Y-29458228D01*
X96939000Y-29293816D01*
X96939000Y-29126184D01*
X96971703Y-28961772D01*
X97035853Y-28806900D01*
X97128985Y-28667519D01*
X97247519Y-28548985D01*
X97386900Y-28455853D01*
X97541772Y-28391703D01*
X97706184Y-28359000D01*
X97873816Y-28359000D01*
X98038228Y-28391703D01*
G37*
G36*
X77718228Y-28391703D02*
G01*
X77873100Y-28455853D01*
X78012481Y-28548985D01*
X78131015Y-28667519D01*
X78224147Y-28806900D01*
X78288297Y-28961772D01*
X78321000Y-29126184D01*
X78321000Y-29293816D01*
X78288297Y-29458228D01*
X78224147Y-29613100D01*
X78131015Y-29752481D01*
X78012481Y-29871015D01*
X77873100Y-29964147D01*
X77718228Y-30028297D01*
X77553816Y-30061000D01*
X77386184Y-30061000D01*
X77221772Y-30028297D01*
X77066900Y-29964147D01*
X76927519Y-29871015D01*
X76808985Y-29752481D01*
X76715853Y-29613100D01*
X76651703Y-29458228D01*
X76619000Y-29293816D01*
X76619000Y-29126184D01*
X76651703Y-28961772D01*
X76715853Y-28806900D01*
X76808985Y-28667519D01*
X76927519Y-28548985D01*
X77066900Y-28455853D01*
X77221772Y-28391703D01*
X77386184Y-28359000D01*
X77553816Y-28359000D01*
X77718228Y-28391703D01*
G37*
G36*
X182098433Y-21414893D02*
G01*
X182188657Y-21432839D01*
X182294267Y-21476585D01*
X182443621Y-21538449D01*
X182443622Y-21538450D01*
X182673086Y-21691772D01*
X182868228Y-21886914D01*
X182955305Y-22017235D01*
X183021551Y-22116379D01*
X183023593Y-22121309D01*
X183127161Y-22371343D01*
X183144075Y-22456375D01*
X183181000Y-22642012D01*
X183181000Y-22917988D01*
X183127161Y-23188656D01*
X183021551Y-23443621D01*
X183021550Y-23443622D01*
X182868228Y-23673086D01*
X182673086Y-23868228D01*
X182519763Y-23970675D01*
X182443621Y-24021551D01*
X182294267Y-24083415D01*
X182188657Y-24127161D01*
X182098433Y-24145107D01*
X181917988Y-24181000D01*
X181642012Y-24181000D01*
X181461567Y-24145107D01*
X181371343Y-24127161D01*
X181265733Y-24083415D01*
X181116379Y-24021551D01*
X181040237Y-23970675D01*
X180886914Y-23868228D01*
X180691772Y-23673086D01*
X180538450Y-23443622D01*
X180538449Y-23443621D01*
X180432839Y-23188656D01*
X180379000Y-22917988D01*
X180379000Y-22642012D01*
X180415925Y-22456375D01*
X180432839Y-22371343D01*
X180536407Y-22121309D01*
X180538449Y-22116379D01*
X180604695Y-22017235D01*
X180691772Y-21886914D01*
X180886914Y-21691772D01*
X181116378Y-21538450D01*
X181116379Y-21538449D01*
X181265733Y-21476585D01*
X181371343Y-21432839D01*
X181461567Y-21414893D01*
X181642012Y-21379000D01*
X181917988Y-21379000D01*
X182098433Y-21414893D01*
G37*
G36*
X67548433Y-21414893D02*
G01*
X67638657Y-21432839D01*
X67744267Y-21476585D01*
X67893621Y-21538449D01*
X67893622Y-21538450D01*
X68123086Y-21691772D01*
X68318228Y-21886914D01*
X68405305Y-22017235D01*
X68471551Y-22116379D01*
X68473593Y-22121309D01*
X68577161Y-22371343D01*
X68594075Y-22456375D01*
X68631000Y-22642012D01*
X68631000Y-22917988D01*
X68577161Y-23188656D01*
X68471551Y-23443621D01*
X68471550Y-23443622D01*
X68318228Y-23673086D01*
X68123086Y-23868228D01*
X67969763Y-23970675D01*
X67893621Y-24021551D01*
X67744267Y-24083415D01*
X67638657Y-24127161D01*
X67548433Y-24145107D01*
X67367988Y-24181000D01*
X67092012Y-24181000D01*
X66911567Y-24145107D01*
X66821343Y-24127161D01*
X66715733Y-24083415D01*
X66566379Y-24021551D01*
X66490237Y-23970675D01*
X66336914Y-23868228D01*
X66141772Y-23673086D01*
X65988450Y-23443622D01*
X65988449Y-23443621D01*
X65882839Y-23188656D01*
X65829000Y-22917988D01*
X65829000Y-22642012D01*
X65865925Y-22456375D01*
X65882839Y-22371343D01*
X65986407Y-22121309D01*
X65988449Y-22116379D01*
X66054695Y-22017235D01*
X66141772Y-21886914D01*
X66336914Y-21691772D01*
X66566378Y-21538450D01*
X66566379Y-21538449D01*
X66715733Y-21476585D01*
X66821343Y-21432839D01*
X66911567Y-21414893D01*
X67092012Y-21379000D01*
X67367988Y-21379000D01*
X67548433Y-21414893D01*
G37*
G36*
X77747395Y-21945546D02*
G01*
X77920466Y-22017234D01*
X77920467Y-22017235D01*
X78076227Y-22121310D01*
X78208690Y-22253773D01*
X78208691Y-22253775D01*
X78312766Y-22409534D01*
X78384454Y-22582605D01*
X78421000Y-22766333D01*
X78421000Y-22953667D01*
X78384454Y-23137395D01*
X78312766Y-23310466D01*
X78312765Y-23310467D01*
X78208690Y-23466227D01*
X78076227Y-23598690D01*
X77997818Y-23651081D01*
X77920466Y-23702766D01*
X77747395Y-23774454D01*
X77563667Y-23811000D01*
X77376333Y-23811000D01*
X77192605Y-23774454D01*
X77019534Y-23702766D01*
X76942182Y-23651081D01*
X76863773Y-23598690D01*
X76731310Y-23466227D01*
X76627235Y-23310467D01*
X76627234Y-23310466D01*
X76555546Y-23137395D01*
X76519000Y-22953667D01*
X76519000Y-22766333D01*
X76555546Y-22582605D01*
X76627234Y-22409534D01*
X76731309Y-22253775D01*
X76731310Y-22253773D01*
X76863773Y-22121310D01*
X77019533Y-22017235D01*
X77019534Y-22017234D01*
X77192605Y-21945546D01*
X77376333Y-21909000D01*
X77563667Y-21909000D01*
X77747395Y-21945546D01*
G37*
G36*
X75881000Y-23811000D02*
G01*
X73979000Y-23811000D01*
X73979000Y-21909000D01*
X75881000Y-21909000D01*
X75881000Y-23811000D01*
G37*
G36*
X125843512Y-20693927D02*
G01*
X125992812Y-20723624D01*
X126156784Y-20791544D01*
X126304354Y-20890147D01*
X126429853Y-21015646D01*
X126528456Y-21163216D01*
X126596376Y-21327188D01*
X126631000Y-21501259D01*
X126631000Y-21678741D01*
X126596376Y-21852812D01*
X126528456Y-22016784D01*
X126429853Y-22164354D01*
X126304354Y-22289853D01*
X126156784Y-22388456D01*
X125992812Y-22456376D01*
X125843512Y-22486073D01*
X125818742Y-22491000D01*
X125641258Y-22491000D01*
X125616488Y-22486073D01*
X125467188Y-22456376D01*
X125303216Y-22388456D01*
X125155646Y-22289853D01*
X125030147Y-22164354D01*
X124931544Y-22016784D01*
X124863624Y-21852812D01*
X124829000Y-21678741D01*
X124829000Y-21501259D01*
X124863624Y-21327188D01*
X124931544Y-21163216D01*
X125030147Y-21015646D01*
X125155646Y-20890147D01*
X125303216Y-20791544D01*
X125467188Y-20723624D01*
X125616488Y-20693927D01*
X125641258Y-20689000D01*
X125818742Y-20689000D01*
X125843512Y-20693927D01*
G37*
G36*
X112661000Y-22491000D02*
G01*
X110859000Y-22491000D01*
X110859000Y-20689000D01*
X112661000Y-20689000D01*
X112661000Y-22491000D01*
G37*
G36*
X114413512Y-20693927D02*
G01*
X114562812Y-20723624D01*
X114726784Y-20791544D01*
X114874354Y-20890147D01*
X114999853Y-21015646D01*
X115098456Y-21163216D01*
X115166376Y-21327188D01*
X115201000Y-21501259D01*
X115201000Y-21678741D01*
X115166376Y-21852812D01*
X115098456Y-22016784D01*
X114999853Y-22164354D01*
X114874354Y-22289853D01*
X114726784Y-22388456D01*
X114562812Y-22456376D01*
X114413512Y-22486073D01*
X114388742Y-22491000D01*
X114211258Y-22491000D01*
X114186488Y-22486073D01*
X114037188Y-22456376D01*
X113873216Y-22388456D01*
X113725646Y-22289853D01*
X113600147Y-22164354D01*
X113501544Y-22016784D01*
X113433624Y-21852812D01*
X113399000Y-21678741D01*
X113399000Y-21501259D01*
X113433624Y-21327188D01*
X113501544Y-21163216D01*
X113600147Y-21015646D01*
X113725646Y-20890147D01*
X113873216Y-20791544D01*
X114037188Y-20723624D01*
X114186488Y-20693927D01*
X114211258Y-20689000D01*
X114388742Y-20689000D01*
X114413512Y-20693927D01*
G37*
G36*
X116953512Y-20693927D02*
G01*
X117102812Y-20723624D01*
X117266784Y-20791544D01*
X117414354Y-20890147D01*
X117539853Y-21015646D01*
X117638456Y-21163216D01*
X117706376Y-21327188D01*
X117741000Y-21501259D01*
X117741000Y-21678741D01*
X117706376Y-21852812D01*
X117638456Y-22016784D01*
X117539853Y-22164354D01*
X117414354Y-22289853D01*
X117266784Y-22388456D01*
X117102812Y-22456376D01*
X116953512Y-22486073D01*
X116928742Y-22491000D01*
X116751258Y-22491000D01*
X116726488Y-22486073D01*
X116577188Y-22456376D01*
X116413216Y-22388456D01*
X116265646Y-22289853D01*
X116140147Y-22164354D01*
X116041544Y-22016784D01*
X115973624Y-21852812D01*
X115939000Y-21678741D01*
X115939000Y-21501259D01*
X115973624Y-21327188D01*
X116041544Y-21163216D01*
X116140147Y-21015646D01*
X116265646Y-20890147D01*
X116413216Y-20791544D01*
X116577188Y-20723624D01*
X116726488Y-20693927D01*
X116751258Y-20689000D01*
X116928742Y-20689000D01*
X116953512Y-20693927D01*
G37*
G36*
X119493512Y-20693927D02*
G01*
X119642812Y-20723624D01*
X119806784Y-20791544D01*
X119954354Y-20890147D01*
X120079853Y-21015646D01*
X120178456Y-21163216D01*
X120246376Y-21327188D01*
X120281000Y-21501259D01*
X120281000Y-21678741D01*
X120246376Y-21852812D01*
X120178456Y-22016784D01*
X120079853Y-22164354D01*
X119954354Y-22289853D01*
X119806784Y-22388456D01*
X119642812Y-22456376D01*
X119493512Y-22486073D01*
X119468742Y-22491000D01*
X119291258Y-22491000D01*
X119266488Y-22486073D01*
X119117188Y-22456376D01*
X118953216Y-22388456D01*
X118805646Y-22289853D01*
X118680147Y-22164354D01*
X118581544Y-22016784D01*
X118513624Y-21852812D01*
X118479000Y-21678741D01*
X118479000Y-21501259D01*
X118513624Y-21327188D01*
X118581544Y-21163216D01*
X118680147Y-21015646D01*
X118805646Y-20890147D01*
X118953216Y-20791544D01*
X119117188Y-20723624D01*
X119266488Y-20693927D01*
X119291258Y-20689000D01*
X119468742Y-20689000D01*
X119493512Y-20693927D01*
G37*
G36*
X88531000Y-22491000D02*
G01*
X86729000Y-22491000D01*
X86729000Y-20689000D01*
X88531000Y-20689000D01*
X88531000Y-22491000D01*
G37*
G36*
X129171000Y-22491000D02*
G01*
X127369000Y-22491000D01*
X127369000Y-20689000D01*
X129171000Y-20689000D01*
X129171000Y-22491000D01*
G37*
G36*
X100443512Y-20693927D02*
G01*
X100592812Y-20723624D01*
X100756784Y-20791544D01*
X100904354Y-20890147D01*
X101029853Y-21015646D01*
X101128456Y-21163216D01*
X101196376Y-21327188D01*
X101231000Y-21501259D01*
X101231000Y-21678741D01*
X101196376Y-21852812D01*
X101128456Y-22016784D01*
X101029853Y-22164354D01*
X100904354Y-22289853D01*
X100756784Y-22388456D01*
X100592812Y-22456376D01*
X100443512Y-22486073D01*
X100418742Y-22491000D01*
X100241258Y-22491000D01*
X100216488Y-22486073D01*
X100067188Y-22456376D01*
X99903216Y-22388456D01*
X99755646Y-22289853D01*
X99630147Y-22164354D01*
X99531544Y-22016784D01*
X99463624Y-21852812D01*
X99429000Y-21678741D01*
X99429000Y-21501259D01*
X99463624Y-21327188D01*
X99531544Y-21163216D01*
X99630147Y-21015646D01*
X99755646Y-20890147D01*
X99903216Y-20791544D01*
X100067188Y-20723624D01*
X100216488Y-20693927D01*
X100241258Y-20689000D01*
X100418742Y-20689000D01*
X100443512Y-20693927D01*
G37*
G36*
X97903512Y-20693927D02*
G01*
X98052812Y-20723624D01*
X98216784Y-20791544D01*
X98364354Y-20890147D01*
X98489853Y-21015646D01*
X98588456Y-21163216D01*
X98656376Y-21327188D01*
X98691000Y-21501259D01*
X98691000Y-21678741D01*
X98656376Y-21852812D01*
X98588456Y-22016784D01*
X98489853Y-22164354D01*
X98364354Y-22289853D01*
X98216784Y-22388456D01*
X98052812Y-22456376D01*
X97903512Y-22486073D01*
X97878742Y-22491000D01*
X97701258Y-22491000D01*
X97676488Y-22486073D01*
X97527188Y-22456376D01*
X97363216Y-22388456D01*
X97215646Y-22289853D01*
X97090147Y-22164354D01*
X96991544Y-22016784D01*
X96923624Y-21852812D01*
X96889000Y-21678741D01*
X96889000Y-21501259D01*
X96923624Y-21327188D01*
X96991544Y-21163216D01*
X97090147Y-21015646D01*
X97215646Y-20890147D01*
X97363216Y-20791544D01*
X97527188Y-20723624D01*
X97676488Y-20693927D01*
X97701258Y-20689000D01*
X97878742Y-20689000D01*
X97903512Y-20693927D01*
G37*
G36*
X95363512Y-20693927D02*
G01*
X95512812Y-20723624D01*
X95676784Y-20791544D01*
X95824354Y-20890147D01*
X95949853Y-21015646D01*
X96048456Y-21163216D01*
X96116376Y-21327188D01*
X96151000Y-21501259D01*
X96151000Y-21678741D01*
X96116376Y-21852812D01*
X96048456Y-22016784D01*
X95949853Y-22164354D01*
X95824354Y-22289853D01*
X95676784Y-22388456D01*
X95512812Y-22456376D01*
X95363512Y-22486073D01*
X95338742Y-22491000D01*
X95161258Y-22491000D01*
X95136488Y-22486073D01*
X94987188Y-22456376D01*
X94823216Y-22388456D01*
X94675646Y-22289853D01*
X94550147Y-22164354D01*
X94451544Y-22016784D01*
X94383624Y-21852812D01*
X94349000Y-21678741D01*
X94349000Y-21501259D01*
X94383624Y-21327188D01*
X94451544Y-21163216D01*
X94550147Y-21015646D01*
X94675646Y-20890147D01*
X94823216Y-20791544D01*
X94987188Y-20723624D01*
X95136488Y-20693927D01*
X95161258Y-20689000D01*
X95338742Y-20689000D01*
X95363512Y-20693927D01*
G37*
G36*
X92823512Y-20693927D02*
G01*
X92972812Y-20723624D01*
X93136784Y-20791544D01*
X93284354Y-20890147D01*
X93409853Y-21015646D01*
X93508456Y-21163216D01*
X93576376Y-21327188D01*
X93611000Y-21501259D01*
X93611000Y-21678741D01*
X93576376Y-21852812D01*
X93508456Y-22016784D01*
X93409853Y-22164354D01*
X93284354Y-22289853D01*
X93136784Y-22388456D01*
X92972812Y-22456376D01*
X92823512Y-22486073D01*
X92798742Y-22491000D01*
X92621258Y-22491000D01*
X92596488Y-22486073D01*
X92447188Y-22456376D01*
X92283216Y-22388456D01*
X92135646Y-22289853D01*
X92010147Y-22164354D01*
X91911544Y-22016784D01*
X91843624Y-21852812D01*
X91809000Y-21678741D01*
X91809000Y-21501259D01*
X91843624Y-21327188D01*
X91911544Y-21163216D01*
X92010147Y-21015646D01*
X92135646Y-20890147D01*
X92283216Y-20791544D01*
X92447188Y-20723624D01*
X92596488Y-20693927D01*
X92621258Y-20689000D01*
X92798742Y-20689000D01*
X92823512Y-20693927D01*
G37*
G36*
X90283512Y-20693927D02*
G01*
X90432812Y-20723624D01*
X90596784Y-20791544D01*
X90744354Y-20890147D01*
X90869853Y-21015646D01*
X90968456Y-21163216D01*
X91036376Y-21327188D01*
X91071000Y-21501259D01*
X91071000Y-21678741D01*
X91036376Y-21852812D01*
X90968456Y-22016784D01*
X90869853Y-22164354D01*
X90744354Y-22289853D01*
X90596784Y-22388456D01*
X90432812Y-22456376D01*
X90283512Y-22486073D01*
X90258742Y-22491000D01*
X90081258Y-22491000D01*
X90056488Y-22486073D01*
X89907188Y-22456376D01*
X89743216Y-22388456D01*
X89595646Y-22289853D01*
X89470147Y-22164354D01*
X89371544Y-22016784D01*
X89303624Y-21852812D01*
X89269000Y-21678741D01*
X89269000Y-21501259D01*
X89303624Y-21327188D01*
X89371544Y-21163216D01*
X89470147Y-21015646D01*
X89595646Y-20890147D01*
X89743216Y-20791544D01*
X89907188Y-20723624D01*
X90056488Y-20693927D01*
X90081258Y-20689000D01*
X90258742Y-20689000D01*
X90283512Y-20693927D01*
G37*
G36*
X152513512Y-19423927D02*
G01*
X152662812Y-19453624D01*
X152826784Y-19521544D01*
X152974354Y-19620147D01*
X153099853Y-19745646D01*
X153198456Y-19893216D01*
X153266376Y-20057188D01*
X153301000Y-20231259D01*
X153301000Y-20408741D01*
X153266376Y-20582812D01*
X153198456Y-20746784D01*
X153099853Y-20894354D01*
X152974354Y-21019853D01*
X152826784Y-21118456D01*
X152662812Y-21186376D01*
X152513512Y-21216073D01*
X152488742Y-21221000D01*
X152311258Y-21221000D01*
X152286488Y-21216073D01*
X152137188Y-21186376D01*
X151973216Y-21118456D01*
X151825646Y-21019853D01*
X151700147Y-20894354D01*
X151601544Y-20746784D01*
X151533624Y-20582812D01*
X151499000Y-20408741D01*
X151499000Y-20231259D01*
X151533624Y-20057188D01*
X151601544Y-19893216D01*
X151700147Y-19745646D01*
X151825646Y-19620147D01*
X151973216Y-19521544D01*
X152137188Y-19453624D01*
X152286488Y-19423927D01*
X152311258Y-19419000D01*
X152488742Y-19419000D01*
X152513512Y-19423927D01*
G37*
G36*
X149973512Y-19423927D02*
G01*
X150122812Y-19453624D01*
X150286784Y-19521544D01*
X150434354Y-19620147D01*
X150559853Y-19745646D01*
X150658456Y-19893216D01*
X150726376Y-20057188D01*
X150761000Y-20231259D01*
X150761000Y-20408741D01*
X150726376Y-20582812D01*
X150658456Y-20746784D01*
X150559853Y-20894354D01*
X150434354Y-21019853D01*
X150286784Y-21118456D01*
X150122812Y-21186376D01*
X149973512Y-21216073D01*
X149948742Y-21221000D01*
X149771258Y-21221000D01*
X149746488Y-21216073D01*
X149597188Y-21186376D01*
X149433216Y-21118456D01*
X149285646Y-21019853D01*
X149160147Y-20894354D01*
X149061544Y-20746784D01*
X148993624Y-20582812D01*
X148959000Y-20408741D01*
X148959000Y-20231259D01*
X148993624Y-20057188D01*
X149061544Y-19893216D01*
X149160147Y-19745646D01*
X149285646Y-19620147D01*
X149433216Y-19521544D01*
X149597188Y-19453624D01*
X149746488Y-19423927D01*
X149771258Y-19419000D01*
X149948742Y-19419000D01*
X149973512Y-19423927D01*
G37*
G36*
X155053512Y-19423927D02*
G01*
X155202812Y-19453624D01*
X155366784Y-19521544D01*
X155514354Y-19620147D01*
X155639853Y-19745646D01*
X155738456Y-19893216D01*
X155806376Y-20057188D01*
X155841000Y-20231259D01*
X155841000Y-20408741D01*
X155806376Y-20582812D01*
X155738456Y-20746784D01*
X155639853Y-20894354D01*
X155514354Y-21019853D01*
X155366784Y-21118456D01*
X155202812Y-21186376D01*
X155053512Y-21216073D01*
X155028742Y-21221000D01*
X154851258Y-21221000D01*
X154826488Y-21216073D01*
X154677188Y-21186376D01*
X154513216Y-21118456D01*
X154365646Y-21019853D01*
X154240147Y-20894354D01*
X154141544Y-20746784D01*
X154073624Y-20582812D01*
X154039000Y-20408741D01*
X154039000Y-20231259D01*
X154073624Y-20057188D01*
X154141544Y-19893216D01*
X154240147Y-19745646D01*
X154365646Y-19620147D01*
X154513216Y-19521544D01*
X154677188Y-19453624D01*
X154826488Y-19423927D01*
X154851258Y-19419000D01*
X155028742Y-19419000D01*
X155053512Y-19423927D01*
G37*
G36*
X147433512Y-19423927D02*
G01*
X147582812Y-19453624D01*
X147746784Y-19521544D01*
X147894354Y-19620147D01*
X148019853Y-19745646D01*
X148118456Y-19893216D01*
X148186376Y-20057188D01*
X148221000Y-20231259D01*
X148221000Y-20408741D01*
X148186376Y-20582812D01*
X148118456Y-20746784D01*
X148019853Y-20894354D01*
X147894354Y-21019853D01*
X147746784Y-21118456D01*
X147582812Y-21186376D01*
X147433512Y-21216073D01*
X147408742Y-21221000D01*
X147231258Y-21221000D01*
X147206488Y-21216073D01*
X147057188Y-21186376D01*
X146893216Y-21118456D01*
X146745646Y-21019853D01*
X146620147Y-20894354D01*
X146521544Y-20746784D01*
X146453624Y-20582812D01*
X146419000Y-20408741D01*
X146419000Y-20231259D01*
X146453624Y-20057188D01*
X146521544Y-19893216D01*
X146620147Y-19745646D01*
X146745646Y-19620147D01*
X146893216Y-19521544D01*
X147057188Y-19453624D01*
X147206488Y-19423927D01*
X147231258Y-19419000D01*
X147408742Y-19419000D01*
X147433512Y-19423927D01*
G37*
G36*
X145681000Y-21221000D02*
G01*
X143879000Y-21221000D01*
X143879000Y-19419000D01*
X145681000Y-19419000D01*
X145681000Y-21221000D01*
G37*
M02*
