G04 #@! TF.GenerationSoftware,KiCad,Pcbnew,(5.1.5)-3*
G04 #@! TF.CreationDate,2020-02-24T17:19:14-05:00*
G04 #@! TF.ProjectId,input board,696e7075-7420-4626-9f61-72642e6b6963,rev?*
G04 #@! TF.SameCoordinates,Original*
G04 #@! TF.FileFunction,Soldermask,Top*
G04 #@! TF.FilePolarity,Negative*
%FSLAX46Y46*%
G04 Gerber Fmt 4.6, Leading zero omitted, Abs format (unit mm)*
G04 Created by KiCad (PCBNEW (5.1.5)-3) date 2020-02-24 17:19:14*
%MOMM*%
%LPD*%
G04 APERTURE LIST*
%ADD10C,0.050000*%
%ADD11C,0.150000*%
G04 APERTURE END LIST*
D10*
X57150000Y-17780000D02*
X207010000Y-17780000D01*
X57150000Y-166370000D02*
X57150000Y-17780000D01*
X207010000Y-166370000D02*
X57150000Y-166370000D01*
X207010000Y-17780000D02*
X207010000Y-166370000D01*
D11*
G36*
X146163512Y-161663927D02*
G01*
X146312812Y-161693624D01*
X146476784Y-161761544D01*
X146624354Y-161860147D01*
X146749853Y-161985646D01*
X146848456Y-162133216D01*
X146916376Y-162297188D01*
X146951000Y-162471259D01*
X146951000Y-162648741D01*
X146916376Y-162822812D01*
X146848456Y-162986784D01*
X146749853Y-163134354D01*
X146624354Y-163259853D01*
X146476784Y-163358456D01*
X146312812Y-163426376D01*
X146163512Y-163456073D01*
X146138742Y-163461000D01*
X145961258Y-163461000D01*
X145936488Y-163456073D01*
X145787188Y-163426376D01*
X145623216Y-163358456D01*
X145475646Y-163259853D01*
X145350147Y-163134354D01*
X145251544Y-162986784D01*
X145183624Y-162822812D01*
X145149000Y-162648741D01*
X145149000Y-162471259D01*
X145183624Y-162297188D01*
X145251544Y-162133216D01*
X145350147Y-161985646D01*
X145475646Y-161860147D01*
X145623216Y-161761544D01*
X145787188Y-161693624D01*
X145936488Y-161663927D01*
X145961258Y-161659000D01*
X146138742Y-161659000D01*
X146163512Y-161663927D01*
G37*
G36*
X148703512Y-161663927D02*
G01*
X148852812Y-161693624D01*
X149016784Y-161761544D01*
X149164354Y-161860147D01*
X149289853Y-161985646D01*
X149388456Y-162133216D01*
X149456376Y-162297188D01*
X149491000Y-162471259D01*
X149491000Y-162648741D01*
X149456376Y-162822812D01*
X149388456Y-162986784D01*
X149289853Y-163134354D01*
X149164354Y-163259853D01*
X149016784Y-163358456D01*
X148852812Y-163426376D01*
X148703512Y-163456073D01*
X148678742Y-163461000D01*
X148501258Y-163461000D01*
X148476488Y-163456073D01*
X148327188Y-163426376D01*
X148163216Y-163358456D01*
X148015646Y-163259853D01*
X147890147Y-163134354D01*
X147791544Y-162986784D01*
X147723624Y-162822812D01*
X147689000Y-162648741D01*
X147689000Y-162471259D01*
X147723624Y-162297188D01*
X147791544Y-162133216D01*
X147890147Y-161985646D01*
X148015646Y-161860147D01*
X148163216Y-161761544D01*
X148327188Y-161693624D01*
X148476488Y-161663927D01*
X148501258Y-161659000D01*
X148678742Y-161659000D01*
X148703512Y-161663927D01*
G37*
G36*
X152031000Y-163461000D02*
G01*
X150229000Y-163461000D01*
X150229000Y-161659000D01*
X152031000Y-161659000D01*
X152031000Y-163461000D01*
G37*
G36*
X143623512Y-161663927D02*
G01*
X143772812Y-161693624D01*
X143936784Y-161761544D01*
X144084354Y-161860147D01*
X144209853Y-161985646D01*
X144308456Y-162133216D01*
X144376376Y-162297188D01*
X144411000Y-162471259D01*
X144411000Y-162648741D01*
X144376376Y-162822812D01*
X144308456Y-162986784D01*
X144209853Y-163134354D01*
X144084354Y-163259853D01*
X143936784Y-163358456D01*
X143772812Y-163426376D01*
X143623512Y-163456073D01*
X143598742Y-163461000D01*
X143421258Y-163461000D01*
X143396488Y-163456073D01*
X143247188Y-163426376D01*
X143083216Y-163358456D01*
X142935646Y-163259853D01*
X142810147Y-163134354D01*
X142711544Y-162986784D01*
X142643624Y-162822812D01*
X142609000Y-162648741D01*
X142609000Y-162471259D01*
X142643624Y-162297188D01*
X142711544Y-162133216D01*
X142810147Y-161985646D01*
X142935646Y-161860147D01*
X143083216Y-161761544D01*
X143247188Y-161693624D01*
X143396488Y-161663927D01*
X143421258Y-161659000D01*
X143598742Y-161659000D01*
X143623512Y-161663927D01*
G37*
G36*
X141083512Y-161663927D02*
G01*
X141232812Y-161693624D01*
X141396784Y-161761544D01*
X141544354Y-161860147D01*
X141669853Y-161985646D01*
X141768456Y-162133216D01*
X141836376Y-162297188D01*
X141871000Y-162471259D01*
X141871000Y-162648741D01*
X141836376Y-162822812D01*
X141768456Y-162986784D01*
X141669853Y-163134354D01*
X141544354Y-163259853D01*
X141396784Y-163358456D01*
X141232812Y-163426376D01*
X141083512Y-163456073D01*
X141058742Y-163461000D01*
X140881258Y-163461000D01*
X140856488Y-163456073D01*
X140707188Y-163426376D01*
X140543216Y-163358456D01*
X140395646Y-163259853D01*
X140270147Y-163134354D01*
X140171544Y-162986784D01*
X140103624Y-162822812D01*
X140069000Y-162648741D01*
X140069000Y-162471259D01*
X140103624Y-162297188D01*
X140171544Y-162133216D01*
X140270147Y-161985646D01*
X140395646Y-161860147D01*
X140543216Y-161761544D01*
X140707188Y-161693624D01*
X140856488Y-161663927D01*
X140881258Y-161659000D01*
X141058742Y-161659000D01*
X141083512Y-161663927D01*
G37*
G36*
X169158228Y-161741703D02*
G01*
X169313100Y-161805853D01*
X169452481Y-161898985D01*
X169571015Y-162017519D01*
X169664147Y-162156900D01*
X169728297Y-162311772D01*
X169761000Y-162476184D01*
X169761000Y-162643816D01*
X169728297Y-162808228D01*
X169664147Y-162963100D01*
X169571015Y-163102481D01*
X169452481Y-163221015D01*
X169313100Y-163314147D01*
X169158228Y-163378297D01*
X168993816Y-163411000D01*
X168826184Y-163411000D01*
X168661772Y-163378297D01*
X168506900Y-163314147D01*
X168367519Y-163221015D01*
X168248985Y-163102481D01*
X168155853Y-162963100D01*
X168091703Y-162808228D01*
X168059000Y-162643816D01*
X168059000Y-162476184D01*
X168091703Y-162311772D01*
X168155853Y-162156900D01*
X168248985Y-162017519D01*
X168367519Y-161898985D01*
X168506900Y-161805853D01*
X168661772Y-161741703D01*
X168826184Y-161709000D01*
X168993816Y-161709000D01*
X169158228Y-161741703D01*
G37*
G36*
X189478228Y-161741703D02*
G01*
X189633100Y-161805853D01*
X189772481Y-161898985D01*
X189891015Y-162017519D01*
X189984147Y-162156900D01*
X190048297Y-162311772D01*
X190081000Y-162476184D01*
X190081000Y-162643816D01*
X190048297Y-162808228D01*
X189984147Y-162963100D01*
X189891015Y-163102481D01*
X189772481Y-163221015D01*
X189633100Y-163314147D01*
X189478228Y-163378297D01*
X189313816Y-163411000D01*
X189146184Y-163411000D01*
X188981772Y-163378297D01*
X188826900Y-163314147D01*
X188687519Y-163221015D01*
X188568985Y-163102481D01*
X188475853Y-162963100D01*
X188411703Y-162808228D01*
X188379000Y-162643816D01*
X188379000Y-162476184D01*
X188411703Y-162311772D01*
X188475853Y-162156900D01*
X188568985Y-162017519D01*
X188687519Y-161898985D01*
X188826900Y-161805853D01*
X188981772Y-161741703D01*
X189146184Y-161709000D01*
X189313816Y-161709000D01*
X189478228Y-161741703D01*
G37*
G36*
X203518433Y-158654893D02*
G01*
X203608657Y-158672839D01*
X203714267Y-158716585D01*
X203863621Y-158778449D01*
X203863622Y-158778450D01*
X204093086Y-158931772D01*
X204288228Y-159126914D01*
X204290958Y-159131000D01*
X204441551Y-159356379D01*
X204547161Y-159611344D01*
X204601000Y-159882012D01*
X204601000Y-160157988D01*
X204547161Y-160428656D01*
X204441551Y-160683621D01*
X204441550Y-160683622D01*
X204288228Y-160913086D01*
X204093086Y-161108228D01*
X203939763Y-161210675D01*
X203863621Y-161261551D01*
X203714267Y-161323415D01*
X203608657Y-161367161D01*
X203518433Y-161385107D01*
X203337988Y-161421000D01*
X203062012Y-161421000D01*
X202881567Y-161385107D01*
X202791343Y-161367161D01*
X202685733Y-161323415D01*
X202536379Y-161261551D01*
X202460237Y-161210675D01*
X202306914Y-161108228D01*
X202111772Y-160913086D01*
X201958450Y-160683622D01*
X201958449Y-160683621D01*
X201852839Y-160428656D01*
X201799000Y-160157988D01*
X201799000Y-159882012D01*
X201852839Y-159611344D01*
X201958449Y-159356379D01*
X202109042Y-159131000D01*
X202111772Y-159126914D01*
X202306914Y-158931772D01*
X202536378Y-158778450D01*
X202536379Y-158778449D01*
X202685733Y-158716585D01*
X202791343Y-158672839D01*
X202881567Y-158654893D01*
X203062012Y-158619000D01*
X203337988Y-158619000D01*
X203518433Y-158654893D01*
G37*
G36*
X62548433Y-158654893D02*
G01*
X62638657Y-158672839D01*
X62744267Y-158716585D01*
X62893621Y-158778449D01*
X62893622Y-158778450D01*
X63123086Y-158931772D01*
X63318228Y-159126914D01*
X63320958Y-159131000D01*
X63471551Y-159356379D01*
X63577161Y-159611344D01*
X63631000Y-159882012D01*
X63631000Y-160157988D01*
X63577161Y-160428656D01*
X63471551Y-160683621D01*
X63471550Y-160683622D01*
X63318228Y-160913086D01*
X63123086Y-161108228D01*
X62969763Y-161210675D01*
X62893621Y-161261551D01*
X62744267Y-161323415D01*
X62638657Y-161367161D01*
X62548433Y-161385107D01*
X62367988Y-161421000D01*
X62092012Y-161421000D01*
X61911567Y-161385107D01*
X61821343Y-161367161D01*
X61715733Y-161323415D01*
X61566379Y-161261551D01*
X61490237Y-161210675D01*
X61336914Y-161108228D01*
X61141772Y-160913086D01*
X60988450Y-160683622D01*
X60988449Y-160683621D01*
X60882839Y-160428656D01*
X60829000Y-160157988D01*
X60829000Y-159882012D01*
X60882839Y-159611344D01*
X60988449Y-159356379D01*
X61139042Y-159131000D01*
X61141772Y-159126914D01*
X61336914Y-158931772D01*
X61566378Y-158778450D01*
X61566379Y-158778449D01*
X61715733Y-158716585D01*
X61821343Y-158672839D01*
X61911567Y-158654893D01*
X62092012Y-158619000D01*
X62367988Y-158619000D01*
X62548433Y-158654893D01*
G37*
G36*
X109595256Y-155871298D02*
G01*
X109701579Y-155892447D01*
X110002042Y-156016903D01*
X110272451Y-156197585D01*
X110502415Y-156427549D01*
X110683097Y-156697958D01*
X110807553Y-156998421D01*
X110871000Y-157317391D01*
X110871000Y-157642609D01*
X110807553Y-157961579D01*
X110683097Y-158262042D01*
X110502415Y-158532451D01*
X110272451Y-158762415D01*
X110002042Y-158943097D01*
X109701579Y-159067553D01*
X109595256Y-159088702D01*
X109382611Y-159131000D01*
X109057389Y-159131000D01*
X108844744Y-159088702D01*
X108738421Y-159067553D01*
X108437958Y-158943097D01*
X108167549Y-158762415D01*
X107937585Y-158532451D01*
X107756903Y-158262042D01*
X107632447Y-157961579D01*
X107569000Y-157642609D01*
X107569000Y-157317391D01*
X107632447Y-156998421D01*
X107756903Y-156697958D01*
X107937585Y-156427549D01*
X108167549Y-156197585D01*
X108437958Y-156016903D01*
X108738421Y-155892447D01*
X108844744Y-155871298D01*
X109057389Y-155829000D01*
X109382611Y-155829000D01*
X109595256Y-155871298D01*
G37*
G36*
X121025256Y-155871298D02*
G01*
X121131579Y-155892447D01*
X121432042Y-156016903D01*
X121702451Y-156197585D01*
X121932415Y-156427549D01*
X122113097Y-156697958D01*
X122237553Y-156998421D01*
X122301000Y-157317391D01*
X122301000Y-157642609D01*
X122237553Y-157961579D01*
X122113097Y-158262042D01*
X121932415Y-158532451D01*
X121702451Y-158762415D01*
X121432042Y-158943097D01*
X121131579Y-159067553D01*
X121025256Y-159088702D01*
X120812611Y-159131000D01*
X120487389Y-159131000D01*
X120274744Y-159088702D01*
X120168421Y-159067553D01*
X119867958Y-158943097D01*
X119597549Y-158762415D01*
X119367585Y-158532451D01*
X119186903Y-158262042D01*
X119062447Y-157961579D01*
X118999000Y-157642609D01*
X118999000Y-157317391D01*
X119062447Y-156998421D01*
X119186903Y-156697958D01*
X119367585Y-156427549D01*
X119597549Y-156197585D01*
X119867958Y-156016903D01*
X120168421Y-155892447D01*
X120274744Y-155871298D01*
X120487389Y-155829000D01*
X120812611Y-155829000D01*
X121025256Y-155871298D01*
G37*
G36*
X104515256Y-155871298D02*
G01*
X104621579Y-155892447D01*
X104922042Y-156016903D01*
X105192451Y-156197585D01*
X105422415Y-156427549D01*
X105603097Y-156697958D01*
X105727553Y-156998421D01*
X105791000Y-157317391D01*
X105791000Y-157642609D01*
X105727553Y-157961579D01*
X105603097Y-158262042D01*
X105422415Y-158532451D01*
X105192451Y-158762415D01*
X104922042Y-158943097D01*
X104621579Y-159067553D01*
X104515256Y-159088702D01*
X104302611Y-159131000D01*
X103977389Y-159131000D01*
X103764744Y-159088702D01*
X103658421Y-159067553D01*
X103357958Y-158943097D01*
X103087549Y-158762415D01*
X102857585Y-158532451D01*
X102676903Y-158262042D01*
X102552447Y-157961579D01*
X102489000Y-157642609D01*
X102489000Y-157317391D01*
X102552447Y-156998421D01*
X102676903Y-156697958D01*
X102857585Y-156427549D01*
X103087549Y-156197585D01*
X103357958Y-156016903D01*
X103658421Y-155892447D01*
X103764744Y-155871298D01*
X103977389Y-155829000D01*
X104302611Y-155829000D01*
X104515256Y-155871298D01*
G37*
G36*
X93085256Y-155871298D02*
G01*
X93191579Y-155892447D01*
X93492042Y-156016903D01*
X93762451Y-156197585D01*
X93992415Y-156427549D01*
X94173097Y-156697958D01*
X94297553Y-156998421D01*
X94361000Y-157317391D01*
X94361000Y-157642609D01*
X94297553Y-157961579D01*
X94173097Y-158262042D01*
X93992415Y-158532451D01*
X93762451Y-158762415D01*
X93492042Y-158943097D01*
X93191579Y-159067553D01*
X93085256Y-159088702D01*
X92872611Y-159131000D01*
X92547389Y-159131000D01*
X92334744Y-159088702D01*
X92228421Y-159067553D01*
X91927958Y-158943097D01*
X91657549Y-158762415D01*
X91427585Y-158532451D01*
X91246903Y-158262042D01*
X91122447Y-157961579D01*
X91059000Y-157642609D01*
X91059000Y-157317391D01*
X91122447Y-156998421D01*
X91246903Y-156697958D01*
X91427585Y-156427549D01*
X91657549Y-156197585D01*
X91927958Y-156016903D01*
X92228421Y-155892447D01*
X92334744Y-155871298D01*
X92547389Y-155829000D01*
X92872611Y-155829000D01*
X93085256Y-155871298D01*
G37*
G36*
X169158228Y-154121703D02*
G01*
X169313100Y-154185853D01*
X169452481Y-154278985D01*
X169571015Y-154397519D01*
X169664147Y-154536900D01*
X169728297Y-154691772D01*
X169761000Y-154856184D01*
X169761000Y-155023816D01*
X169728297Y-155188228D01*
X169664147Y-155343100D01*
X169571015Y-155482481D01*
X169452481Y-155601015D01*
X169313100Y-155694147D01*
X169158228Y-155758297D01*
X168993816Y-155791000D01*
X168826184Y-155791000D01*
X168661772Y-155758297D01*
X168506900Y-155694147D01*
X168367519Y-155601015D01*
X168248985Y-155482481D01*
X168155853Y-155343100D01*
X168091703Y-155188228D01*
X168059000Y-155023816D01*
X168059000Y-154856184D01*
X168091703Y-154691772D01*
X168155853Y-154536900D01*
X168248985Y-154397519D01*
X168367519Y-154278985D01*
X168506900Y-154185853D01*
X168661772Y-154121703D01*
X168826184Y-154089000D01*
X168993816Y-154089000D01*
X169158228Y-154121703D01*
G37*
G36*
X189478228Y-154121703D02*
G01*
X189633100Y-154185853D01*
X189772481Y-154278985D01*
X189891015Y-154397519D01*
X189984147Y-154536900D01*
X190048297Y-154691772D01*
X190081000Y-154856184D01*
X190081000Y-155023816D01*
X190048297Y-155188228D01*
X189984147Y-155343100D01*
X189891015Y-155482481D01*
X189772481Y-155601015D01*
X189633100Y-155694147D01*
X189478228Y-155758297D01*
X189313816Y-155791000D01*
X189146184Y-155791000D01*
X188981772Y-155758297D01*
X188826900Y-155694147D01*
X188687519Y-155601015D01*
X188568985Y-155482481D01*
X188475853Y-155343100D01*
X188411703Y-155188228D01*
X188379000Y-155023816D01*
X188379000Y-154856184D01*
X188411703Y-154691772D01*
X188475853Y-154536900D01*
X188568985Y-154397519D01*
X188687519Y-154278985D01*
X188826900Y-154185853D01*
X188981772Y-154121703D01*
X189146184Y-154089000D01*
X189313816Y-154089000D01*
X189478228Y-154121703D01*
G37*
G36*
X198233512Y-151503927D02*
G01*
X198382812Y-151533624D01*
X198546784Y-151601544D01*
X198694354Y-151700147D01*
X198819853Y-151825646D01*
X198918456Y-151973216D01*
X198986376Y-152137188D01*
X199021000Y-152311259D01*
X199021000Y-152488741D01*
X198986376Y-152662812D01*
X198918456Y-152826784D01*
X198819853Y-152974354D01*
X198694354Y-153099853D01*
X198546784Y-153198456D01*
X198382812Y-153266376D01*
X198233512Y-153296073D01*
X198208742Y-153301000D01*
X198031258Y-153301000D01*
X198006488Y-153296073D01*
X197857188Y-153266376D01*
X197693216Y-153198456D01*
X197545646Y-153099853D01*
X197420147Y-152974354D01*
X197321544Y-152826784D01*
X197253624Y-152662812D01*
X197219000Y-152488741D01*
X197219000Y-152311259D01*
X197253624Y-152137188D01*
X197321544Y-151973216D01*
X197420147Y-151825646D01*
X197545646Y-151700147D01*
X197693216Y-151601544D01*
X197857188Y-151533624D01*
X198006488Y-151503927D01*
X198031258Y-151499000D01*
X198208742Y-151499000D01*
X198233512Y-151503927D01*
G37*
G36*
X146298228Y-151581703D02*
G01*
X146453100Y-151645853D01*
X146592481Y-151738985D01*
X146711015Y-151857519D01*
X146804147Y-151996900D01*
X146868297Y-152151772D01*
X146901000Y-152316184D01*
X146901000Y-152483816D01*
X146868297Y-152648228D01*
X146804147Y-152803100D01*
X146711015Y-152942481D01*
X146592481Y-153061015D01*
X146453100Y-153154147D01*
X146298228Y-153218297D01*
X146133816Y-153251000D01*
X145966184Y-153251000D01*
X145801772Y-153218297D01*
X145646900Y-153154147D01*
X145507519Y-153061015D01*
X145388985Y-152942481D01*
X145295853Y-152803100D01*
X145231703Y-152648228D01*
X145199000Y-152483816D01*
X145199000Y-152316184D01*
X145231703Y-152151772D01*
X145295853Y-151996900D01*
X145388985Y-151857519D01*
X145507519Y-151738985D01*
X145646900Y-151645853D01*
X145801772Y-151581703D01*
X145966184Y-151549000D01*
X146133816Y-151549000D01*
X146298228Y-151581703D01*
G37*
G36*
X131058228Y-151581703D02*
G01*
X131213100Y-151645853D01*
X131352481Y-151738985D01*
X131471015Y-151857519D01*
X131564147Y-151996900D01*
X131628297Y-152151772D01*
X131661000Y-152316184D01*
X131661000Y-152483816D01*
X131628297Y-152648228D01*
X131564147Y-152803100D01*
X131471015Y-152942481D01*
X131352481Y-153061015D01*
X131213100Y-153154147D01*
X131058228Y-153218297D01*
X130893816Y-153251000D01*
X130726184Y-153251000D01*
X130561772Y-153218297D01*
X130406900Y-153154147D01*
X130267519Y-153061015D01*
X130148985Y-152942481D01*
X130055853Y-152803100D01*
X129991703Y-152648228D01*
X129959000Y-152483816D01*
X129959000Y-152316184D01*
X129991703Y-152151772D01*
X130055853Y-151996900D01*
X130148985Y-151857519D01*
X130267519Y-151738985D01*
X130406900Y-151645853D01*
X130561772Y-151581703D01*
X130726184Y-151549000D01*
X130893816Y-151549000D01*
X131058228Y-151581703D01*
G37*
G36*
X153918228Y-151581703D02*
G01*
X154073100Y-151645853D01*
X154212481Y-151738985D01*
X154331015Y-151857519D01*
X154424147Y-151996900D01*
X154488297Y-152151772D01*
X154521000Y-152316184D01*
X154521000Y-152483816D01*
X154488297Y-152648228D01*
X154424147Y-152803100D01*
X154331015Y-152942481D01*
X154212481Y-153061015D01*
X154073100Y-153154147D01*
X153918228Y-153218297D01*
X153753816Y-153251000D01*
X153586184Y-153251000D01*
X153421772Y-153218297D01*
X153266900Y-153154147D01*
X153127519Y-153061015D01*
X153008985Y-152942481D01*
X152915853Y-152803100D01*
X152851703Y-152648228D01*
X152819000Y-152483816D01*
X152819000Y-152316184D01*
X152851703Y-152151772D01*
X152915853Y-151996900D01*
X153008985Y-151857519D01*
X153127519Y-151738985D01*
X153266900Y-151645853D01*
X153421772Y-151581703D01*
X153586184Y-151549000D01*
X153753816Y-151549000D01*
X153918228Y-151581703D01*
G37*
G36*
X161538228Y-151581703D02*
G01*
X161693100Y-151645853D01*
X161832481Y-151738985D01*
X161951015Y-151857519D01*
X162044147Y-151996900D01*
X162108297Y-152151772D01*
X162141000Y-152316184D01*
X162141000Y-152483816D01*
X162108297Y-152648228D01*
X162044147Y-152803100D01*
X161951015Y-152942481D01*
X161832481Y-153061015D01*
X161693100Y-153154147D01*
X161538228Y-153218297D01*
X161373816Y-153251000D01*
X161206184Y-153251000D01*
X161041772Y-153218297D01*
X160886900Y-153154147D01*
X160747519Y-153061015D01*
X160628985Y-152942481D01*
X160535853Y-152803100D01*
X160471703Y-152648228D01*
X160439000Y-152483816D01*
X160439000Y-152316184D01*
X160471703Y-152151772D01*
X160535853Y-151996900D01*
X160628985Y-151857519D01*
X160747519Y-151738985D01*
X160886900Y-151645853D01*
X161041772Y-151581703D01*
X161206184Y-151549000D01*
X161373816Y-151549000D01*
X161538228Y-151581703D01*
G37*
G36*
X138678228Y-151581703D02*
G01*
X138833100Y-151645853D01*
X138972481Y-151738985D01*
X139091015Y-151857519D01*
X139184147Y-151996900D01*
X139248297Y-152151772D01*
X139281000Y-152316184D01*
X139281000Y-152483816D01*
X139248297Y-152648228D01*
X139184147Y-152803100D01*
X139091015Y-152942481D01*
X138972481Y-153061015D01*
X138833100Y-153154147D01*
X138678228Y-153218297D01*
X138513816Y-153251000D01*
X138346184Y-153251000D01*
X138181772Y-153218297D01*
X138026900Y-153154147D01*
X137887519Y-153061015D01*
X137768985Y-152942481D01*
X137675853Y-152803100D01*
X137611703Y-152648228D01*
X137579000Y-152483816D01*
X137579000Y-152316184D01*
X137611703Y-152151772D01*
X137675853Y-151996900D01*
X137768985Y-151857519D01*
X137887519Y-151738985D01*
X138026900Y-151645853D01*
X138181772Y-151581703D01*
X138346184Y-151549000D01*
X138513816Y-151549000D01*
X138678228Y-151581703D01*
G37*
G36*
X101833642Y-150359781D02*
G01*
X101979414Y-150420162D01*
X101979416Y-150420163D01*
X102110608Y-150507822D01*
X102222178Y-150619392D01*
X102309837Y-150750584D01*
X102309838Y-150750586D01*
X102370219Y-150896358D01*
X102401000Y-151051107D01*
X102401000Y-151208893D01*
X102370219Y-151363642D01*
X102309838Y-151509414D01*
X102309837Y-151509416D01*
X102222178Y-151640608D01*
X102110608Y-151752178D01*
X101979416Y-151839837D01*
X101979415Y-151839838D01*
X101979414Y-151839838D01*
X101833642Y-151900219D01*
X101678893Y-151931000D01*
X101521107Y-151931000D01*
X101366358Y-151900219D01*
X101220586Y-151839838D01*
X101220585Y-151839838D01*
X101220584Y-151839837D01*
X101089392Y-151752178D01*
X100977822Y-151640608D01*
X100890163Y-151509416D01*
X100890162Y-151509414D01*
X100829781Y-151363642D01*
X100799000Y-151208893D01*
X100799000Y-151051107D01*
X100829781Y-150896358D01*
X100890162Y-150750586D01*
X100890163Y-150750584D01*
X100977822Y-150619392D01*
X101089392Y-150507822D01*
X101220584Y-150420163D01*
X101220586Y-150420162D01*
X101366358Y-150359781D01*
X101521107Y-150329000D01*
X101678893Y-150329000D01*
X101833642Y-150359781D01*
G37*
G36*
X113263642Y-150359781D02*
G01*
X113409414Y-150420162D01*
X113409416Y-150420163D01*
X113540608Y-150507822D01*
X113652178Y-150619392D01*
X113739837Y-150750584D01*
X113739838Y-150750586D01*
X113800219Y-150896358D01*
X113831000Y-151051107D01*
X113831000Y-151208893D01*
X113800219Y-151363642D01*
X113739838Y-151509414D01*
X113739837Y-151509416D01*
X113652178Y-151640608D01*
X113540608Y-151752178D01*
X113409416Y-151839837D01*
X113409415Y-151839838D01*
X113409414Y-151839838D01*
X113263642Y-151900219D01*
X113108893Y-151931000D01*
X112951107Y-151931000D01*
X112796358Y-151900219D01*
X112650586Y-151839838D01*
X112650585Y-151839838D01*
X112650584Y-151839837D01*
X112519392Y-151752178D01*
X112407822Y-151640608D01*
X112320163Y-151509416D01*
X112320162Y-151509414D01*
X112259781Y-151363642D01*
X112229000Y-151208893D01*
X112229000Y-151051107D01*
X112259781Y-150896358D01*
X112320162Y-150750586D01*
X112320163Y-150750584D01*
X112407822Y-150619392D01*
X112519392Y-150507822D01*
X112650584Y-150420163D01*
X112650586Y-150420162D01*
X112796358Y-150359781D01*
X112951107Y-150329000D01*
X113108893Y-150329000D01*
X113263642Y-150359781D01*
G37*
G36*
X111291000Y-151931000D02*
G01*
X109689000Y-151931000D01*
X109689000Y-150329000D01*
X111291000Y-150329000D01*
X111291000Y-151931000D01*
G37*
G36*
X99293642Y-150359781D02*
G01*
X99439414Y-150420162D01*
X99439416Y-150420163D01*
X99570608Y-150507822D01*
X99682178Y-150619392D01*
X99769837Y-150750584D01*
X99769838Y-150750586D01*
X99830219Y-150896358D01*
X99861000Y-151051107D01*
X99861000Y-151208893D01*
X99830219Y-151363642D01*
X99769838Y-151509414D01*
X99769837Y-151509416D01*
X99682178Y-151640608D01*
X99570608Y-151752178D01*
X99439416Y-151839837D01*
X99439415Y-151839838D01*
X99439414Y-151839838D01*
X99293642Y-151900219D01*
X99138893Y-151931000D01*
X98981107Y-151931000D01*
X98826358Y-151900219D01*
X98680586Y-151839838D01*
X98680585Y-151839838D01*
X98680584Y-151839837D01*
X98549392Y-151752178D01*
X98437822Y-151640608D01*
X98350163Y-151509416D01*
X98350162Y-151509414D01*
X98289781Y-151363642D01*
X98259000Y-151208893D01*
X98259000Y-151051107D01*
X98289781Y-150896358D01*
X98350162Y-150750586D01*
X98350163Y-150750584D01*
X98437822Y-150619392D01*
X98549392Y-150507822D01*
X98680584Y-150420163D01*
X98680586Y-150420162D01*
X98826358Y-150359781D01*
X98981107Y-150329000D01*
X99138893Y-150329000D01*
X99293642Y-150359781D01*
G37*
G36*
X96753642Y-150359781D02*
G01*
X96899414Y-150420162D01*
X96899416Y-150420163D01*
X97030608Y-150507822D01*
X97142178Y-150619392D01*
X97229837Y-150750584D01*
X97229838Y-150750586D01*
X97290219Y-150896358D01*
X97321000Y-151051107D01*
X97321000Y-151208893D01*
X97290219Y-151363642D01*
X97229838Y-151509414D01*
X97229837Y-151509416D01*
X97142178Y-151640608D01*
X97030608Y-151752178D01*
X96899416Y-151839837D01*
X96899415Y-151839838D01*
X96899414Y-151839838D01*
X96753642Y-151900219D01*
X96598893Y-151931000D01*
X96441107Y-151931000D01*
X96286358Y-151900219D01*
X96140586Y-151839838D01*
X96140585Y-151839838D01*
X96140584Y-151839837D01*
X96009392Y-151752178D01*
X95897822Y-151640608D01*
X95810163Y-151509416D01*
X95810162Y-151509414D01*
X95749781Y-151363642D01*
X95719000Y-151208893D01*
X95719000Y-151051107D01*
X95749781Y-150896358D01*
X95810162Y-150750586D01*
X95810163Y-150750584D01*
X95897822Y-150619392D01*
X96009392Y-150507822D01*
X96140584Y-150420163D01*
X96140586Y-150420162D01*
X96286358Y-150359781D01*
X96441107Y-150329000D01*
X96598893Y-150329000D01*
X96753642Y-150359781D01*
G37*
G36*
X94781000Y-151931000D02*
G01*
X93179000Y-151931000D01*
X93179000Y-150329000D01*
X94781000Y-150329000D01*
X94781000Y-151931000D01*
G37*
G36*
X115803642Y-150359781D02*
G01*
X115949414Y-150420162D01*
X115949416Y-150420163D01*
X116080608Y-150507822D01*
X116192178Y-150619392D01*
X116279837Y-150750584D01*
X116279838Y-150750586D01*
X116340219Y-150896358D01*
X116371000Y-151051107D01*
X116371000Y-151208893D01*
X116340219Y-151363642D01*
X116279838Y-151509414D01*
X116279837Y-151509416D01*
X116192178Y-151640608D01*
X116080608Y-151752178D01*
X115949416Y-151839837D01*
X115949415Y-151839838D01*
X115949414Y-151839838D01*
X115803642Y-151900219D01*
X115648893Y-151931000D01*
X115491107Y-151931000D01*
X115336358Y-151900219D01*
X115190586Y-151839838D01*
X115190585Y-151839838D01*
X115190584Y-151839837D01*
X115059392Y-151752178D01*
X114947822Y-151640608D01*
X114860163Y-151509416D01*
X114860162Y-151509414D01*
X114799781Y-151363642D01*
X114769000Y-151208893D01*
X114769000Y-151051107D01*
X114799781Y-150896358D01*
X114860162Y-150750586D01*
X114860163Y-150750584D01*
X114947822Y-150619392D01*
X115059392Y-150507822D01*
X115190584Y-150420163D01*
X115190586Y-150420162D01*
X115336358Y-150359781D01*
X115491107Y-150329000D01*
X115648893Y-150329000D01*
X115803642Y-150359781D01*
G37*
G36*
X118343642Y-150359781D02*
G01*
X118489414Y-150420162D01*
X118489416Y-150420163D01*
X118620608Y-150507822D01*
X118732178Y-150619392D01*
X118819837Y-150750584D01*
X118819838Y-150750586D01*
X118880219Y-150896358D01*
X118911000Y-151051107D01*
X118911000Y-151208893D01*
X118880219Y-151363642D01*
X118819838Y-151509414D01*
X118819837Y-151509416D01*
X118732178Y-151640608D01*
X118620608Y-151752178D01*
X118489416Y-151839837D01*
X118489415Y-151839838D01*
X118489414Y-151839838D01*
X118343642Y-151900219D01*
X118188893Y-151931000D01*
X118031107Y-151931000D01*
X117876358Y-151900219D01*
X117730586Y-151839838D01*
X117730585Y-151839838D01*
X117730584Y-151839837D01*
X117599392Y-151752178D01*
X117487822Y-151640608D01*
X117400163Y-151509416D01*
X117400162Y-151509414D01*
X117339781Y-151363642D01*
X117309000Y-151208893D01*
X117309000Y-151051107D01*
X117339781Y-150896358D01*
X117400162Y-150750586D01*
X117400163Y-150750584D01*
X117487822Y-150619392D01*
X117599392Y-150507822D01*
X117730584Y-150420163D01*
X117730586Y-150420162D01*
X117876358Y-150359781D01*
X118031107Y-150329000D01*
X118188893Y-150329000D01*
X118343642Y-150359781D01*
G37*
G36*
X198233512Y-148963927D02*
G01*
X198382812Y-148993624D01*
X198546784Y-149061544D01*
X198694354Y-149160147D01*
X198819853Y-149285646D01*
X198918456Y-149433216D01*
X198986376Y-149597188D01*
X199021000Y-149771259D01*
X199021000Y-149948741D01*
X198986376Y-150122812D01*
X198918456Y-150286784D01*
X198819853Y-150434354D01*
X198694354Y-150559853D01*
X198546784Y-150658456D01*
X198382812Y-150726376D01*
X198233512Y-150756073D01*
X198208742Y-150761000D01*
X198031258Y-150761000D01*
X198006488Y-150756073D01*
X197857188Y-150726376D01*
X197693216Y-150658456D01*
X197545646Y-150559853D01*
X197420147Y-150434354D01*
X197321544Y-150286784D01*
X197253624Y-150122812D01*
X197219000Y-149948741D01*
X197219000Y-149771259D01*
X197253624Y-149597188D01*
X197321544Y-149433216D01*
X197420147Y-149285646D01*
X197545646Y-149160147D01*
X197693216Y-149061544D01*
X197857188Y-148993624D01*
X198006488Y-148963927D01*
X198031258Y-148959000D01*
X198208742Y-148959000D01*
X198233512Y-148963927D01*
G37*
G36*
X68886564Y-147579389D02*
G01*
X69077833Y-147658615D01*
X69077835Y-147658616D01*
X69249973Y-147773635D01*
X69396365Y-147920027D01*
X69499345Y-148074147D01*
X69511385Y-148092167D01*
X69590611Y-148283436D01*
X69631000Y-148486484D01*
X69631000Y-148693516D01*
X69590611Y-148896564D01*
X69550407Y-148993625D01*
X69511384Y-149087835D01*
X69396365Y-149259973D01*
X69249973Y-149406365D01*
X69077835Y-149521384D01*
X69077834Y-149521385D01*
X69077833Y-149521385D01*
X68886564Y-149600611D01*
X68683516Y-149641000D01*
X68476484Y-149641000D01*
X68273436Y-149600611D01*
X68082167Y-149521385D01*
X68082166Y-149521385D01*
X68082165Y-149521384D01*
X67910027Y-149406365D01*
X67763635Y-149259973D01*
X67648616Y-149087835D01*
X67609593Y-148993625D01*
X67569389Y-148896564D01*
X67529000Y-148693516D01*
X67529000Y-148486484D01*
X67569389Y-148283436D01*
X67648615Y-148092167D01*
X67660656Y-148074147D01*
X67763635Y-147920027D01*
X67910027Y-147773635D01*
X68082165Y-147658616D01*
X68082167Y-147658615D01*
X68273436Y-147579389D01*
X68476484Y-147539000D01*
X68683516Y-147539000D01*
X68886564Y-147579389D01*
G37*
G36*
X82331000Y-149641000D02*
G01*
X80229000Y-149641000D01*
X80229000Y-147539000D01*
X82331000Y-147539000D01*
X82331000Y-149641000D01*
G37*
G36*
X119613642Y-147819781D02*
G01*
X119716728Y-147862481D01*
X119759416Y-147880163D01*
X119890608Y-147967822D01*
X120002178Y-148079392D01*
X120089837Y-148210584D01*
X120089838Y-148210586D01*
X120150219Y-148356358D01*
X120181000Y-148511107D01*
X120181000Y-148668893D01*
X120150219Y-148823642D01*
X120089838Y-148969414D01*
X120089837Y-148969416D01*
X120002178Y-149100608D01*
X119890608Y-149212178D01*
X119759416Y-149299837D01*
X119759415Y-149299838D01*
X119759414Y-149299838D01*
X119613642Y-149360219D01*
X119458893Y-149391000D01*
X119301107Y-149391000D01*
X119146358Y-149360219D01*
X119000586Y-149299838D01*
X119000585Y-149299838D01*
X119000584Y-149299837D01*
X118869392Y-149212178D01*
X118757822Y-149100608D01*
X118670163Y-148969416D01*
X118670162Y-148969414D01*
X118609781Y-148823642D01*
X118579000Y-148668893D01*
X118579000Y-148511107D01*
X118609781Y-148356358D01*
X118670162Y-148210586D01*
X118670163Y-148210584D01*
X118757822Y-148079392D01*
X118869392Y-147967822D01*
X119000584Y-147880163D01*
X119043272Y-147862481D01*
X119146358Y-147819781D01*
X119301107Y-147789000D01*
X119458893Y-147789000D01*
X119613642Y-147819781D01*
G37*
G36*
X98023642Y-147819781D02*
G01*
X98126728Y-147862481D01*
X98169416Y-147880163D01*
X98300608Y-147967822D01*
X98412178Y-148079392D01*
X98499837Y-148210584D01*
X98499838Y-148210586D01*
X98560219Y-148356358D01*
X98591000Y-148511107D01*
X98591000Y-148668893D01*
X98560219Y-148823642D01*
X98499838Y-148969414D01*
X98499837Y-148969416D01*
X98412178Y-149100608D01*
X98300608Y-149212178D01*
X98169416Y-149299837D01*
X98169415Y-149299838D01*
X98169414Y-149299838D01*
X98023642Y-149360219D01*
X97868893Y-149391000D01*
X97711107Y-149391000D01*
X97556358Y-149360219D01*
X97410586Y-149299838D01*
X97410585Y-149299838D01*
X97410584Y-149299837D01*
X97279392Y-149212178D01*
X97167822Y-149100608D01*
X97080163Y-148969416D01*
X97080162Y-148969414D01*
X97019781Y-148823642D01*
X96989000Y-148668893D01*
X96989000Y-148511107D01*
X97019781Y-148356358D01*
X97080162Y-148210586D01*
X97080163Y-148210584D01*
X97167822Y-148079392D01*
X97279392Y-147967822D01*
X97410584Y-147880163D01*
X97453272Y-147862481D01*
X97556358Y-147819781D01*
X97711107Y-147789000D01*
X97868893Y-147789000D01*
X98023642Y-147819781D01*
G37*
G36*
X117073642Y-147819781D02*
G01*
X117176728Y-147862481D01*
X117219416Y-147880163D01*
X117350608Y-147967822D01*
X117462178Y-148079392D01*
X117549837Y-148210584D01*
X117549838Y-148210586D01*
X117610219Y-148356358D01*
X117641000Y-148511107D01*
X117641000Y-148668893D01*
X117610219Y-148823642D01*
X117549838Y-148969414D01*
X117549837Y-148969416D01*
X117462178Y-149100608D01*
X117350608Y-149212178D01*
X117219416Y-149299837D01*
X117219415Y-149299838D01*
X117219414Y-149299838D01*
X117073642Y-149360219D01*
X116918893Y-149391000D01*
X116761107Y-149391000D01*
X116606358Y-149360219D01*
X116460586Y-149299838D01*
X116460585Y-149299838D01*
X116460584Y-149299837D01*
X116329392Y-149212178D01*
X116217822Y-149100608D01*
X116130163Y-148969416D01*
X116130162Y-148969414D01*
X116069781Y-148823642D01*
X116039000Y-148668893D01*
X116039000Y-148511107D01*
X116069781Y-148356358D01*
X116130162Y-148210586D01*
X116130163Y-148210584D01*
X116217822Y-148079392D01*
X116329392Y-147967822D01*
X116460584Y-147880163D01*
X116503272Y-147862481D01*
X116606358Y-147819781D01*
X116761107Y-147789000D01*
X116918893Y-147789000D01*
X117073642Y-147819781D01*
G37*
G36*
X114533642Y-147819781D02*
G01*
X114636728Y-147862481D01*
X114679416Y-147880163D01*
X114810608Y-147967822D01*
X114922178Y-148079392D01*
X115009837Y-148210584D01*
X115009838Y-148210586D01*
X115070219Y-148356358D01*
X115101000Y-148511107D01*
X115101000Y-148668893D01*
X115070219Y-148823642D01*
X115009838Y-148969414D01*
X115009837Y-148969416D01*
X114922178Y-149100608D01*
X114810608Y-149212178D01*
X114679416Y-149299837D01*
X114679415Y-149299838D01*
X114679414Y-149299838D01*
X114533642Y-149360219D01*
X114378893Y-149391000D01*
X114221107Y-149391000D01*
X114066358Y-149360219D01*
X113920586Y-149299838D01*
X113920585Y-149299838D01*
X113920584Y-149299837D01*
X113789392Y-149212178D01*
X113677822Y-149100608D01*
X113590163Y-148969416D01*
X113590162Y-148969414D01*
X113529781Y-148823642D01*
X113499000Y-148668893D01*
X113499000Y-148511107D01*
X113529781Y-148356358D01*
X113590162Y-148210586D01*
X113590163Y-148210584D01*
X113677822Y-148079392D01*
X113789392Y-147967822D01*
X113920584Y-147880163D01*
X113963272Y-147862481D01*
X114066358Y-147819781D01*
X114221107Y-147789000D01*
X114378893Y-147789000D01*
X114533642Y-147819781D01*
G37*
G36*
X103103642Y-147819781D02*
G01*
X103206728Y-147862481D01*
X103249416Y-147880163D01*
X103380608Y-147967822D01*
X103492178Y-148079392D01*
X103579837Y-148210584D01*
X103579838Y-148210586D01*
X103640219Y-148356358D01*
X103671000Y-148511107D01*
X103671000Y-148668893D01*
X103640219Y-148823642D01*
X103579838Y-148969414D01*
X103579837Y-148969416D01*
X103492178Y-149100608D01*
X103380608Y-149212178D01*
X103249416Y-149299837D01*
X103249415Y-149299838D01*
X103249414Y-149299838D01*
X103103642Y-149360219D01*
X102948893Y-149391000D01*
X102791107Y-149391000D01*
X102636358Y-149360219D01*
X102490586Y-149299838D01*
X102490585Y-149299838D01*
X102490584Y-149299837D01*
X102359392Y-149212178D01*
X102247822Y-149100608D01*
X102160163Y-148969416D01*
X102160162Y-148969414D01*
X102099781Y-148823642D01*
X102069000Y-148668893D01*
X102069000Y-148511107D01*
X102099781Y-148356358D01*
X102160162Y-148210586D01*
X102160163Y-148210584D01*
X102247822Y-148079392D01*
X102359392Y-147967822D01*
X102490584Y-147880163D01*
X102533272Y-147862481D01*
X102636358Y-147819781D01*
X102791107Y-147789000D01*
X102948893Y-147789000D01*
X103103642Y-147819781D01*
G37*
G36*
X100563642Y-147819781D02*
G01*
X100666728Y-147862481D01*
X100709416Y-147880163D01*
X100840608Y-147967822D01*
X100952178Y-148079392D01*
X101039837Y-148210584D01*
X101039838Y-148210586D01*
X101100219Y-148356358D01*
X101131000Y-148511107D01*
X101131000Y-148668893D01*
X101100219Y-148823642D01*
X101039838Y-148969414D01*
X101039837Y-148969416D01*
X100952178Y-149100608D01*
X100840608Y-149212178D01*
X100709416Y-149299837D01*
X100709415Y-149299838D01*
X100709414Y-149299838D01*
X100563642Y-149360219D01*
X100408893Y-149391000D01*
X100251107Y-149391000D01*
X100096358Y-149360219D01*
X99950586Y-149299838D01*
X99950585Y-149299838D01*
X99950584Y-149299837D01*
X99819392Y-149212178D01*
X99707822Y-149100608D01*
X99620163Y-148969416D01*
X99620162Y-148969414D01*
X99559781Y-148823642D01*
X99529000Y-148668893D01*
X99529000Y-148511107D01*
X99559781Y-148356358D01*
X99620162Y-148210586D01*
X99620163Y-148210584D01*
X99707822Y-148079392D01*
X99819392Y-147967822D01*
X99950584Y-147880163D01*
X99993272Y-147862481D01*
X100096358Y-147819781D01*
X100251107Y-147789000D01*
X100408893Y-147789000D01*
X100563642Y-147819781D01*
G37*
G36*
X95483642Y-147819781D02*
G01*
X95586728Y-147862481D01*
X95629416Y-147880163D01*
X95760608Y-147967822D01*
X95872178Y-148079392D01*
X95959837Y-148210584D01*
X95959838Y-148210586D01*
X96020219Y-148356358D01*
X96051000Y-148511107D01*
X96051000Y-148668893D01*
X96020219Y-148823642D01*
X95959838Y-148969414D01*
X95959837Y-148969416D01*
X95872178Y-149100608D01*
X95760608Y-149212178D01*
X95629416Y-149299837D01*
X95629415Y-149299838D01*
X95629414Y-149299838D01*
X95483642Y-149360219D01*
X95328893Y-149391000D01*
X95171107Y-149391000D01*
X95016358Y-149360219D01*
X94870586Y-149299838D01*
X94870585Y-149299838D01*
X94870584Y-149299837D01*
X94739392Y-149212178D01*
X94627822Y-149100608D01*
X94540163Y-148969416D01*
X94540162Y-148969414D01*
X94479781Y-148823642D01*
X94449000Y-148668893D01*
X94449000Y-148511107D01*
X94479781Y-148356358D01*
X94540162Y-148210586D01*
X94540163Y-148210584D01*
X94627822Y-148079392D01*
X94739392Y-147967822D01*
X94870584Y-147880163D01*
X94913272Y-147862481D01*
X95016358Y-147819781D01*
X95171107Y-147789000D01*
X95328893Y-147789000D01*
X95483642Y-147819781D01*
G37*
G36*
X111993642Y-147819781D02*
G01*
X112096728Y-147862481D01*
X112139416Y-147880163D01*
X112270608Y-147967822D01*
X112382178Y-148079392D01*
X112469837Y-148210584D01*
X112469838Y-148210586D01*
X112530219Y-148356358D01*
X112561000Y-148511107D01*
X112561000Y-148668893D01*
X112530219Y-148823642D01*
X112469838Y-148969414D01*
X112469837Y-148969416D01*
X112382178Y-149100608D01*
X112270608Y-149212178D01*
X112139416Y-149299837D01*
X112139415Y-149299838D01*
X112139414Y-149299838D01*
X111993642Y-149360219D01*
X111838893Y-149391000D01*
X111681107Y-149391000D01*
X111526358Y-149360219D01*
X111380586Y-149299838D01*
X111380585Y-149299838D01*
X111380584Y-149299837D01*
X111249392Y-149212178D01*
X111137822Y-149100608D01*
X111050163Y-148969416D01*
X111050162Y-148969414D01*
X110989781Y-148823642D01*
X110959000Y-148668893D01*
X110959000Y-148511107D01*
X110989781Y-148356358D01*
X111050162Y-148210586D01*
X111050163Y-148210584D01*
X111137822Y-148079392D01*
X111249392Y-147967822D01*
X111380584Y-147880163D01*
X111423272Y-147862481D01*
X111526358Y-147819781D01*
X111681107Y-147789000D01*
X111838893Y-147789000D01*
X111993642Y-147819781D01*
G37*
G36*
X198233512Y-146423927D02*
G01*
X198382812Y-146453624D01*
X198546784Y-146521544D01*
X198694354Y-146620147D01*
X198819853Y-146745646D01*
X198918456Y-146893216D01*
X198986376Y-147057188D01*
X199021000Y-147231259D01*
X199021000Y-147408741D01*
X198986376Y-147582812D01*
X198918456Y-147746784D01*
X198819853Y-147894354D01*
X198694354Y-148019853D01*
X198546784Y-148118456D01*
X198382812Y-148186376D01*
X198233512Y-148216073D01*
X198208742Y-148221000D01*
X198031258Y-148221000D01*
X198006488Y-148216073D01*
X197857188Y-148186376D01*
X197693216Y-148118456D01*
X197545646Y-148019853D01*
X197420147Y-147894354D01*
X197321544Y-147746784D01*
X197253624Y-147582812D01*
X197219000Y-147408741D01*
X197219000Y-147231259D01*
X197253624Y-147057188D01*
X197321544Y-146893216D01*
X197420147Y-146745646D01*
X197545646Y-146620147D01*
X197693216Y-146521544D01*
X197857188Y-146453624D01*
X198006488Y-146423927D01*
X198031258Y-146419000D01*
X198208742Y-146419000D01*
X198233512Y-146423927D01*
G37*
G36*
X189478228Y-146501703D02*
G01*
X189633100Y-146565853D01*
X189772481Y-146658985D01*
X189891015Y-146777519D01*
X189984147Y-146916900D01*
X190048297Y-147071772D01*
X190081000Y-147236184D01*
X190081000Y-147403816D01*
X190048297Y-147568228D01*
X189984147Y-147723100D01*
X189891015Y-147862481D01*
X189772481Y-147981015D01*
X189633100Y-148074147D01*
X189478228Y-148138297D01*
X189313816Y-148171000D01*
X189146184Y-148171000D01*
X188981772Y-148138297D01*
X188826900Y-148074147D01*
X188687519Y-147981015D01*
X188568985Y-147862481D01*
X188475853Y-147723100D01*
X188411703Y-147568228D01*
X188379000Y-147403816D01*
X188379000Y-147236184D01*
X188411703Y-147071772D01*
X188475853Y-146916900D01*
X188568985Y-146777519D01*
X188687519Y-146658985D01*
X188826900Y-146565853D01*
X188981772Y-146501703D01*
X189146184Y-146469000D01*
X189313816Y-146469000D01*
X189478228Y-146501703D01*
G37*
G36*
X169158228Y-146501703D02*
G01*
X169313100Y-146565853D01*
X169452481Y-146658985D01*
X169571015Y-146777519D01*
X169664147Y-146916900D01*
X169728297Y-147071772D01*
X169761000Y-147236184D01*
X169761000Y-147403816D01*
X169728297Y-147568228D01*
X169664147Y-147723100D01*
X169571015Y-147862481D01*
X169452481Y-147981015D01*
X169313100Y-148074147D01*
X169158228Y-148138297D01*
X168993816Y-148171000D01*
X168826184Y-148171000D01*
X168661772Y-148138297D01*
X168506900Y-148074147D01*
X168367519Y-147981015D01*
X168248985Y-147862481D01*
X168155853Y-147723100D01*
X168091703Y-147568228D01*
X168059000Y-147403816D01*
X168059000Y-147236184D01*
X168091703Y-147071772D01*
X168155853Y-146916900D01*
X168248985Y-146777519D01*
X168367519Y-146658985D01*
X168506900Y-146565853D01*
X168661772Y-146501703D01*
X168826184Y-146469000D01*
X168993816Y-146469000D01*
X169158228Y-146501703D01*
G37*
G36*
X198233512Y-143883927D02*
G01*
X198382812Y-143913624D01*
X198546784Y-143981544D01*
X198694354Y-144080147D01*
X198819853Y-144205646D01*
X198918456Y-144353216D01*
X198986376Y-144517188D01*
X199021000Y-144691259D01*
X199021000Y-144868741D01*
X198986376Y-145042812D01*
X198918456Y-145206784D01*
X198819853Y-145354354D01*
X198694354Y-145479853D01*
X198546784Y-145578456D01*
X198382812Y-145646376D01*
X198233512Y-145676073D01*
X198208742Y-145681000D01*
X198031258Y-145681000D01*
X198006488Y-145676073D01*
X197857188Y-145646376D01*
X197693216Y-145578456D01*
X197545646Y-145479853D01*
X197420147Y-145354354D01*
X197321544Y-145206784D01*
X197253624Y-145042812D01*
X197219000Y-144868741D01*
X197219000Y-144691259D01*
X197253624Y-144517188D01*
X197321544Y-144353216D01*
X197420147Y-144205646D01*
X197545646Y-144080147D01*
X197693216Y-143981544D01*
X197857188Y-143913624D01*
X198006488Y-143883927D01*
X198031258Y-143879000D01*
X198208742Y-143879000D01*
X198233512Y-143883927D01*
G37*
G36*
X82331000Y-143291000D02*
G01*
X80229000Y-143291000D01*
X80229000Y-141189000D01*
X82331000Y-141189000D01*
X82331000Y-143291000D01*
G37*
G36*
X68886564Y-141229389D02*
G01*
X69077833Y-141308615D01*
X69077835Y-141308616D01*
X69249973Y-141423635D01*
X69396365Y-141570027D01*
X69463067Y-141669853D01*
X69511385Y-141742167D01*
X69590611Y-141933436D01*
X69631000Y-142136484D01*
X69631000Y-142343516D01*
X69590611Y-142546564D01*
X69511385Y-142737833D01*
X69511384Y-142737835D01*
X69396365Y-142909973D01*
X69249973Y-143056365D01*
X69077835Y-143171384D01*
X69077834Y-143171385D01*
X69077833Y-143171385D01*
X68886564Y-143250611D01*
X68683516Y-143291000D01*
X68476484Y-143291000D01*
X68273436Y-143250611D01*
X68082167Y-143171385D01*
X68082166Y-143171385D01*
X68082165Y-143171384D01*
X67910027Y-143056365D01*
X67763635Y-142909973D01*
X67648616Y-142737835D01*
X67648615Y-142737833D01*
X67569389Y-142546564D01*
X67529000Y-142343516D01*
X67529000Y-142136484D01*
X67569389Y-141933436D01*
X67648615Y-141742167D01*
X67696934Y-141669853D01*
X67763635Y-141570027D01*
X67910027Y-141423635D01*
X68082165Y-141308616D01*
X68082167Y-141308615D01*
X68273436Y-141229389D01*
X68476484Y-141189000D01*
X68683516Y-141189000D01*
X68886564Y-141229389D01*
G37*
G36*
X199021000Y-143141000D02*
G01*
X197219000Y-143141000D01*
X197219000Y-141339000D01*
X199021000Y-141339000D01*
X199021000Y-143141000D01*
G37*
G36*
X59803512Y-140073927D02*
G01*
X59952812Y-140103624D01*
X60116784Y-140171544D01*
X60264354Y-140270147D01*
X60389853Y-140395646D01*
X60488456Y-140543216D01*
X60556376Y-140707188D01*
X60591000Y-140881259D01*
X60591000Y-141058741D01*
X60556376Y-141232812D01*
X60488456Y-141396784D01*
X60389853Y-141544354D01*
X60264354Y-141669853D01*
X60116784Y-141768456D01*
X59952812Y-141836376D01*
X59803512Y-141866073D01*
X59778742Y-141871000D01*
X59601258Y-141871000D01*
X59576488Y-141866073D01*
X59427188Y-141836376D01*
X59263216Y-141768456D01*
X59115646Y-141669853D01*
X58990147Y-141544354D01*
X58891544Y-141396784D01*
X58823624Y-141232812D01*
X58789000Y-141058741D01*
X58789000Y-140881259D01*
X58823624Y-140707188D01*
X58891544Y-140543216D01*
X58990147Y-140395646D01*
X59115646Y-140270147D01*
X59263216Y-140171544D01*
X59427188Y-140103624D01*
X59576488Y-140073927D01*
X59601258Y-140069000D01*
X59778742Y-140069000D01*
X59803512Y-140073927D01*
G37*
G36*
X189478228Y-138881703D02*
G01*
X189633100Y-138945853D01*
X189772481Y-139038985D01*
X189891015Y-139157519D01*
X189984147Y-139296900D01*
X190048297Y-139451772D01*
X190081000Y-139616184D01*
X190081000Y-139783816D01*
X190048297Y-139948228D01*
X189984147Y-140103100D01*
X189891015Y-140242481D01*
X189772481Y-140361015D01*
X189633100Y-140454147D01*
X189478228Y-140518297D01*
X189313816Y-140551000D01*
X189146184Y-140551000D01*
X188981772Y-140518297D01*
X188826900Y-140454147D01*
X188687519Y-140361015D01*
X188568985Y-140242481D01*
X188475853Y-140103100D01*
X188411703Y-139948228D01*
X188379000Y-139783816D01*
X188379000Y-139616184D01*
X188411703Y-139451772D01*
X188475853Y-139296900D01*
X188568985Y-139157519D01*
X188687519Y-139038985D01*
X188826900Y-138945853D01*
X188981772Y-138881703D01*
X189146184Y-138849000D01*
X189313816Y-138849000D01*
X189478228Y-138881703D01*
G37*
G36*
X169158228Y-138881703D02*
G01*
X169313100Y-138945853D01*
X169452481Y-139038985D01*
X169571015Y-139157519D01*
X169664147Y-139296900D01*
X169728297Y-139451772D01*
X169761000Y-139616184D01*
X169761000Y-139783816D01*
X169728297Y-139948228D01*
X169664147Y-140103100D01*
X169571015Y-140242481D01*
X169452481Y-140361015D01*
X169313100Y-140454147D01*
X169158228Y-140518297D01*
X168993816Y-140551000D01*
X168826184Y-140551000D01*
X168661772Y-140518297D01*
X168506900Y-140454147D01*
X168367519Y-140361015D01*
X168248985Y-140242481D01*
X168155853Y-140103100D01*
X168091703Y-139948228D01*
X168059000Y-139783816D01*
X168059000Y-139616184D01*
X168091703Y-139451772D01*
X168155853Y-139296900D01*
X168248985Y-139157519D01*
X168367519Y-139038985D01*
X168506900Y-138945853D01*
X168661772Y-138881703D01*
X168826184Y-138849000D01*
X168993816Y-138849000D01*
X169158228Y-138881703D01*
G37*
G36*
X59803512Y-137533927D02*
G01*
X59952812Y-137563624D01*
X60116784Y-137631544D01*
X60264354Y-137730147D01*
X60389853Y-137855646D01*
X60488456Y-138003216D01*
X60556376Y-138167188D01*
X60591000Y-138341259D01*
X60591000Y-138518741D01*
X60556376Y-138692812D01*
X60488456Y-138856784D01*
X60389853Y-139004354D01*
X60264354Y-139129853D01*
X60116784Y-139228456D01*
X59952812Y-139296376D01*
X59803512Y-139326073D01*
X59778742Y-139331000D01*
X59601258Y-139331000D01*
X59576488Y-139326073D01*
X59427188Y-139296376D01*
X59263216Y-139228456D01*
X59115646Y-139129853D01*
X58990147Y-139004354D01*
X58891544Y-138856784D01*
X58823624Y-138692812D01*
X58789000Y-138518741D01*
X58789000Y-138341259D01*
X58823624Y-138167188D01*
X58891544Y-138003216D01*
X58990147Y-137855646D01*
X59115646Y-137730147D01*
X59263216Y-137631544D01*
X59427188Y-137563624D01*
X59576488Y-137533927D01*
X59601258Y-137529000D01*
X59778742Y-137529000D01*
X59803512Y-137533927D01*
G37*
G36*
X98038228Y-137611703D02*
G01*
X98193100Y-137675853D01*
X98332481Y-137768985D01*
X98451015Y-137887519D01*
X98544147Y-138026900D01*
X98608297Y-138181772D01*
X98641000Y-138346184D01*
X98641000Y-138513816D01*
X98608297Y-138678228D01*
X98544147Y-138833100D01*
X98451015Y-138972481D01*
X98332481Y-139091015D01*
X98193100Y-139184147D01*
X98038228Y-139248297D01*
X97873816Y-139281000D01*
X97706184Y-139281000D01*
X97541772Y-139248297D01*
X97386900Y-139184147D01*
X97247519Y-139091015D01*
X97128985Y-138972481D01*
X97035853Y-138833100D01*
X96971703Y-138678228D01*
X96939000Y-138513816D01*
X96939000Y-138346184D01*
X96971703Y-138181772D01*
X97035853Y-138026900D01*
X97128985Y-137887519D01*
X97247519Y-137768985D01*
X97386900Y-137675853D01*
X97541772Y-137611703D01*
X97706184Y-137579000D01*
X97873816Y-137579000D01*
X98038228Y-137611703D01*
G37*
G36*
X68886564Y-134879389D02*
G01*
X69077833Y-134958615D01*
X69077835Y-134958616D01*
X69249973Y-135073635D01*
X69396365Y-135220027D01*
X69460256Y-135315646D01*
X69511385Y-135392167D01*
X69590611Y-135583436D01*
X69631000Y-135786484D01*
X69631000Y-135993516D01*
X69590611Y-136196564D01*
X69540815Y-136316782D01*
X69511384Y-136387835D01*
X69396365Y-136559973D01*
X69249973Y-136706365D01*
X69077835Y-136821384D01*
X69077834Y-136821385D01*
X69077833Y-136821385D01*
X68886564Y-136900611D01*
X68683516Y-136941000D01*
X68476484Y-136941000D01*
X68273436Y-136900611D01*
X68082167Y-136821385D01*
X68082166Y-136821385D01*
X68082165Y-136821384D01*
X67910027Y-136706365D01*
X67763635Y-136559973D01*
X67648616Y-136387835D01*
X67619185Y-136316782D01*
X67569389Y-136196564D01*
X67529000Y-135993516D01*
X67529000Y-135786484D01*
X67569389Y-135583436D01*
X67648615Y-135392167D01*
X67699745Y-135315646D01*
X67763635Y-135220027D01*
X67910027Y-135073635D01*
X68082165Y-134958616D01*
X68082167Y-134958615D01*
X68273436Y-134879389D01*
X68476484Y-134839000D01*
X68683516Y-134839000D01*
X68886564Y-134879389D01*
G37*
G36*
X82331000Y-136941000D02*
G01*
X80229000Y-136941000D01*
X80229000Y-134839000D01*
X82331000Y-134839000D01*
X82331000Y-136941000D01*
G37*
G36*
X59803512Y-134993927D02*
G01*
X59952812Y-135023624D01*
X60116784Y-135091544D01*
X60264354Y-135190147D01*
X60389853Y-135315646D01*
X60488456Y-135463216D01*
X60556376Y-135627188D01*
X60591000Y-135801259D01*
X60591000Y-135978741D01*
X60556376Y-136152812D01*
X60488456Y-136316784D01*
X60389853Y-136464354D01*
X60264354Y-136589853D01*
X60116784Y-136688456D01*
X59952812Y-136756376D01*
X59803512Y-136786073D01*
X59778742Y-136791000D01*
X59601258Y-136791000D01*
X59576488Y-136786073D01*
X59427188Y-136756376D01*
X59263216Y-136688456D01*
X59115646Y-136589853D01*
X58990147Y-136464354D01*
X58891544Y-136316784D01*
X58823624Y-136152812D01*
X58789000Y-135978741D01*
X58789000Y-135801259D01*
X58823624Y-135627188D01*
X58891544Y-135463216D01*
X58990147Y-135315646D01*
X59115646Y-135190147D01*
X59263216Y-135091544D01*
X59427188Y-135023624D01*
X59576488Y-134993927D01*
X59601258Y-134989000D01*
X59778742Y-134989000D01*
X59803512Y-134993927D01*
G37*
G36*
X91688228Y-135071703D02*
G01*
X91843100Y-135135853D01*
X91982481Y-135228985D01*
X92101015Y-135347519D01*
X92194147Y-135486900D01*
X92258297Y-135641772D01*
X92291000Y-135806184D01*
X92291000Y-135973816D01*
X92258297Y-136138228D01*
X92194147Y-136293100D01*
X92101015Y-136432481D01*
X91982481Y-136551015D01*
X91843100Y-136644147D01*
X91688228Y-136708297D01*
X91523816Y-136741000D01*
X91356184Y-136741000D01*
X91191772Y-136708297D01*
X91036900Y-136644147D01*
X90897519Y-136551015D01*
X90778985Y-136432481D01*
X90685853Y-136293100D01*
X90621703Y-136138228D01*
X90589000Y-135973816D01*
X90589000Y-135806184D01*
X90621703Y-135641772D01*
X90685853Y-135486900D01*
X90778985Y-135347519D01*
X90897519Y-135228985D01*
X91036900Y-135135853D01*
X91191772Y-135071703D01*
X91356184Y-135039000D01*
X91523816Y-135039000D01*
X91688228Y-135071703D01*
G37*
G36*
X59803512Y-132453927D02*
G01*
X59952812Y-132483624D01*
X60116784Y-132551544D01*
X60264354Y-132650147D01*
X60389853Y-132775646D01*
X60488456Y-132923216D01*
X60556376Y-133087188D01*
X60591000Y-133261259D01*
X60591000Y-133438741D01*
X60556376Y-133612812D01*
X60488456Y-133776784D01*
X60389853Y-133924354D01*
X60264354Y-134049853D01*
X60116784Y-134148456D01*
X59952812Y-134216376D01*
X59803512Y-134246073D01*
X59778742Y-134251000D01*
X59601258Y-134251000D01*
X59576488Y-134246073D01*
X59427188Y-134216376D01*
X59263216Y-134148456D01*
X59115646Y-134049853D01*
X58990147Y-133924354D01*
X58891544Y-133776784D01*
X58823624Y-133612812D01*
X58789000Y-133438741D01*
X58789000Y-133261259D01*
X58823624Y-133087188D01*
X58891544Y-132923216D01*
X58990147Y-132775646D01*
X59115646Y-132650147D01*
X59263216Y-132551544D01*
X59427188Y-132483624D01*
X59576488Y-132453927D01*
X59601258Y-132449000D01*
X59778742Y-132449000D01*
X59803512Y-132453927D01*
G37*
G36*
X161538228Y-131261703D02*
G01*
X161693100Y-131325853D01*
X161832481Y-131418985D01*
X161951015Y-131537519D01*
X162044147Y-131676900D01*
X162108297Y-131831772D01*
X162141000Y-131996184D01*
X162141000Y-132163816D01*
X162108297Y-132328228D01*
X162044147Y-132483100D01*
X161951015Y-132622481D01*
X161832481Y-132741015D01*
X161693100Y-132834147D01*
X161538228Y-132898297D01*
X161373816Y-132931000D01*
X161206184Y-132931000D01*
X161041772Y-132898297D01*
X160886900Y-132834147D01*
X160747519Y-132741015D01*
X160628985Y-132622481D01*
X160535853Y-132483100D01*
X160471703Y-132328228D01*
X160439000Y-132163816D01*
X160439000Y-131996184D01*
X160471703Y-131831772D01*
X160535853Y-131676900D01*
X160628985Y-131537519D01*
X160747519Y-131418985D01*
X160886900Y-131325853D01*
X161041772Y-131261703D01*
X161206184Y-131229000D01*
X161373816Y-131229000D01*
X161538228Y-131261703D01*
G37*
G36*
X169158228Y-131261703D02*
G01*
X169313100Y-131325853D01*
X169452481Y-131418985D01*
X169571015Y-131537519D01*
X169664147Y-131676900D01*
X169728297Y-131831772D01*
X169761000Y-131996184D01*
X169761000Y-132163816D01*
X169728297Y-132328228D01*
X169664147Y-132483100D01*
X169571015Y-132622481D01*
X169452481Y-132741015D01*
X169313100Y-132834147D01*
X169158228Y-132898297D01*
X168993816Y-132931000D01*
X168826184Y-132931000D01*
X168661772Y-132898297D01*
X168506900Y-132834147D01*
X168367519Y-132741015D01*
X168248985Y-132622481D01*
X168155853Y-132483100D01*
X168091703Y-132328228D01*
X168059000Y-132163816D01*
X168059000Y-131996184D01*
X168091703Y-131831772D01*
X168155853Y-131676900D01*
X168248985Y-131537519D01*
X168367519Y-131418985D01*
X168506900Y-131325853D01*
X168661772Y-131261703D01*
X168826184Y-131229000D01*
X168993816Y-131229000D01*
X169158228Y-131261703D01*
G37*
G36*
X153918228Y-131261703D02*
G01*
X154073100Y-131325853D01*
X154212481Y-131418985D01*
X154331015Y-131537519D01*
X154424147Y-131676900D01*
X154488297Y-131831772D01*
X154521000Y-131996184D01*
X154521000Y-132163816D01*
X154488297Y-132328228D01*
X154424147Y-132483100D01*
X154331015Y-132622481D01*
X154212481Y-132741015D01*
X154073100Y-132834147D01*
X153918228Y-132898297D01*
X153753816Y-132931000D01*
X153586184Y-132931000D01*
X153421772Y-132898297D01*
X153266900Y-132834147D01*
X153127519Y-132741015D01*
X153008985Y-132622481D01*
X152915853Y-132483100D01*
X152851703Y-132328228D01*
X152819000Y-132163816D01*
X152819000Y-131996184D01*
X152851703Y-131831772D01*
X152915853Y-131676900D01*
X153008985Y-131537519D01*
X153127519Y-131418985D01*
X153266900Y-131325853D01*
X153421772Y-131261703D01*
X153586184Y-131229000D01*
X153753816Y-131229000D01*
X153918228Y-131261703D01*
G37*
G36*
X146298228Y-131261703D02*
G01*
X146453100Y-131325853D01*
X146592481Y-131418985D01*
X146711015Y-131537519D01*
X146804147Y-131676900D01*
X146868297Y-131831772D01*
X146901000Y-131996184D01*
X146901000Y-132163816D01*
X146868297Y-132328228D01*
X146804147Y-132483100D01*
X146711015Y-132622481D01*
X146592481Y-132741015D01*
X146453100Y-132834147D01*
X146298228Y-132898297D01*
X146133816Y-132931000D01*
X145966184Y-132931000D01*
X145801772Y-132898297D01*
X145646900Y-132834147D01*
X145507519Y-132741015D01*
X145388985Y-132622481D01*
X145295853Y-132483100D01*
X145231703Y-132328228D01*
X145199000Y-132163816D01*
X145199000Y-131996184D01*
X145231703Y-131831772D01*
X145295853Y-131676900D01*
X145388985Y-131537519D01*
X145507519Y-131418985D01*
X145646900Y-131325853D01*
X145801772Y-131261703D01*
X145966184Y-131229000D01*
X146133816Y-131229000D01*
X146298228Y-131261703D01*
G37*
G36*
X131058228Y-131261703D02*
G01*
X131213100Y-131325853D01*
X131352481Y-131418985D01*
X131471015Y-131537519D01*
X131564147Y-131676900D01*
X131628297Y-131831772D01*
X131661000Y-131996184D01*
X131661000Y-132163816D01*
X131628297Y-132328228D01*
X131564147Y-132483100D01*
X131471015Y-132622481D01*
X131352481Y-132741015D01*
X131213100Y-132834147D01*
X131058228Y-132898297D01*
X130893816Y-132931000D01*
X130726184Y-132931000D01*
X130561772Y-132898297D01*
X130406900Y-132834147D01*
X130267519Y-132741015D01*
X130148985Y-132622481D01*
X130055853Y-132483100D01*
X129991703Y-132328228D01*
X129959000Y-132163816D01*
X129959000Y-131996184D01*
X129991703Y-131831772D01*
X130055853Y-131676900D01*
X130148985Y-131537519D01*
X130267519Y-131418985D01*
X130406900Y-131325853D01*
X130561772Y-131261703D01*
X130726184Y-131229000D01*
X130893816Y-131229000D01*
X131058228Y-131261703D01*
G37*
G36*
X138678228Y-131261703D02*
G01*
X138833100Y-131325853D01*
X138972481Y-131418985D01*
X139091015Y-131537519D01*
X139184147Y-131676900D01*
X139248297Y-131831772D01*
X139281000Y-131996184D01*
X139281000Y-132163816D01*
X139248297Y-132328228D01*
X139184147Y-132483100D01*
X139091015Y-132622481D01*
X138972481Y-132741015D01*
X138833100Y-132834147D01*
X138678228Y-132898297D01*
X138513816Y-132931000D01*
X138346184Y-132931000D01*
X138181772Y-132898297D01*
X138026900Y-132834147D01*
X137887519Y-132741015D01*
X137768985Y-132622481D01*
X137675853Y-132483100D01*
X137611703Y-132328228D01*
X137579000Y-132163816D01*
X137579000Y-131996184D01*
X137611703Y-131831772D01*
X137675853Y-131676900D01*
X137768985Y-131537519D01*
X137887519Y-131418985D01*
X138026900Y-131325853D01*
X138181772Y-131261703D01*
X138346184Y-131229000D01*
X138513816Y-131229000D01*
X138678228Y-131261703D01*
G37*
G36*
X189478228Y-131261703D02*
G01*
X189633100Y-131325853D01*
X189772481Y-131418985D01*
X189891015Y-131537519D01*
X189984147Y-131676900D01*
X190048297Y-131831772D01*
X190081000Y-131996184D01*
X190081000Y-132163816D01*
X190048297Y-132328228D01*
X189984147Y-132483100D01*
X189891015Y-132622481D01*
X189772481Y-132741015D01*
X189633100Y-132834147D01*
X189478228Y-132898297D01*
X189313816Y-132931000D01*
X189146184Y-132931000D01*
X188981772Y-132898297D01*
X188826900Y-132834147D01*
X188687519Y-132741015D01*
X188568985Y-132622481D01*
X188475853Y-132483100D01*
X188411703Y-132328228D01*
X188379000Y-132163816D01*
X188379000Y-131996184D01*
X188411703Y-131831772D01*
X188475853Y-131676900D01*
X188568985Y-131537519D01*
X188687519Y-131418985D01*
X188826900Y-131325853D01*
X188981772Y-131261703D01*
X189146184Y-131229000D01*
X189313816Y-131229000D01*
X189478228Y-131261703D01*
G37*
G36*
X60591000Y-131711000D02*
G01*
X58789000Y-131711000D01*
X58789000Y-129909000D01*
X60591000Y-129909000D01*
X60591000Y-131711000D01*
G37*
G36*
X82331000Y-130591000D02*
G01*
X80229000Y-130591000D01*
X80229000Y-128489000D01*
X82331000Y-128489000D01*
X82331000Y-130591000D01*
G37*
G36*
X68886564Y-128529389D02*
G01*
X69077833Y-128608615D01*
X69077835Y-128608616D01*
X69249973Y-128723635D01*
X69396365Y-128870027D01*
X69511385Y-129042167D01*
X69590611Y-129233436D01*
X69631000Y-129436484D01*
X69631000Y-129643516D01*
X69590611Y-129846564D01*
X69564749Y-129909000D01*
X69511384Y-130037835D01*
X69396365Y-130209973D01*
X69249973Y-130356365D01*
X69077835Y-130471384D01*
X69077834Y-130471385D01*
X69077833Y-130471385D01*
X68886564Y-130550611D01*
X68683516Y-130591000D01*
X68476484Y-130591000D01*
X68273436Y-130550611D01*
X68082167Y-130471385D01*
X68082166Y-130471385D01*
X68082165Y-130471384D01*
X67910027Y-130356365D01*
X67763635Y-130209973D01*
X67648616Y-130037835D01*
X67595251Y-129909000D01*
X67569389Y-129846564D01*
X67529000Y-129643516D01*
X67529000Y-129436484D01*
X67569389Y-129233436D01*
X67648615Y-129042167D01*
X67763635Y-128870027D01*
X67910027Y-128723635D01*
X68082165Y-128608616D01*
X68082167Y-128608615D01*
X68273436Y-128529389D01*
X68476484Y-128489000D01*
X68683516Y-128489000D01*
X68886564Y-128529389D01*
G37*
G36*
X68886564Y-122179389D02*
G01*
X69077833Y-122258615D01*
X69077835Y-122258616D01*
X69249973Y-122373635D01*
X69396365Y-122520027D01*
X69511385Y-122692167D01*
X69590611Y-122883436D01*
X69631000Y-123086484D01*
X69631000Y-123293516D01*
X69590611Y-123496564D01*
X69511385Y-123687833D01*
X69511384Y-123687835D01*
X69396365Y-123859973D01*
X69249973Y-124006365D01*
X69077835Y-124121384D01*
X69077834Y-124121385D01*
X69077833Y-124121385D01*
X68886564Y-124200611D01*
X68683516Y-124241000D01*
X68476484Y-124241000D01*
X68273436Y-124200611D01*
X68082167Y-124121385D01*
X68082166Y-124121385D01*
X68082165Y-124121384D01*
X67910027Y-124006365D01*
X67763635Y-123859973D01*
X67648616Y-123687835D01*
X67648615Y-123687833D01*
X67569389Y-123496564D01*
X67529000Y-123293516D01*
X67529000Y-123086484D01*
X67569389Y-122883436D01*
X67648615Y-122692167D01*
X67763635Y-122520027D01*
X67910027Y-122373635D01*
X68082165Y-122258616D01*
X68082167Y-122258615D01*
X68273436Y-122179389D01*
X68476484Y-122139000D01*
X68683516Y-122139000D01*
X68886564Y-122179389D01*
G37*
G36*
X82331000Y-124241000D02*
G01*
X80229000Y-124241000D01*
X80229000Y-122139000D01*
X82331000Y-122139000D01*
X82331000Y-124241000D01*
G37*
G36*
X177581000Y-122971000D02*
G01*
X175479000Y-122971000D01*
X175479000Y-120869000D01*
X177581000Y-120869000D01*
X177581000Y-122971000D01*
G37*
G36*
X189536564Y-120909389D02*
G01*
X189654800Y-120958364D01*
X189727835Y-120988616D01*
X189842134Y-121064988D01*
X189899973Y-121103635D01*
X190046365Y-121250027D01*
X190161385Y-121422167D01*
X190240611Y-121613436D01*
X190281000Y-121816484D01*
X190281000Y-122023516D01*
X190240611Y-122226564D01*
X190179692Y-122373635D01*
X190161384Y-122417835D01*
X190046365Y-122589973D01*
X189899973Y-122736365D01*
X189727835Y-122851384D01*
X189727834Y-122851385D01*
X189727833Y-122851385D01*
X189536564Y-122930611D01*
X189333516Y-122971000D01*
X189126484Y-122971000D01*
X188923436Y-122930611D01*
X188732167Y-122851385D01*
X188732166Y-122851385D01*
X188732165Y-122851384D01*
X188560027Y-122736365D01*
X188413635Y-122589973D01*
X188298616Y-122417835D01*
X188280308Y-122373635D01*
X188219389Y-122226564D01*
X188179000Y-122023516D01*
X188179000Y-121816484D01*
X188219389Y-121613436D01*
X188298615Y-121422167D01*
X188413635Y-121250027D01*
X188560027Y-121103635D01*
X188617866Y-121064988D01*
X188732165Y-120988616D01*
X188805200Y-120958364D01*
X188923436Y-120909389D01*
X189126484Y-120869000D01*
X189333516Y-120869000D01*
X189536564Y-120909389D01*
G37*
G36*
X119080000Y-121609797D02*
G01*
X118410000Y-121609797D01*
X118410000Y-120052899D01*
X119080000Y-120052899D01*
X119080000Y-121609797D01*
G37*
G36*
X120350000Y-121609797D02*
G01*
X119680000Y-121609797D01*
X119680000Y-120052899D01*
X120350000Y-120052899D01*
X120350000Y-121609797D01*
G37*
G36*
X116540000Y-121609797D02*
G01*
X115870000Y-121609797D01*
X115870000Y-120052899D01*
X116540000Y-120052899D01*
X116540000Y-121609797D01*
G37*
G36*
X117810000Y-121609797D02*
G01*
X117140000Y-121609797D01*
X117140000Y-120052899D01*
X117810000Y-120052899D01*
X117810000Y-121609797D01*
G37*
G36*
X135521000Y-121551000D02*
G01*
X133719000Y-121551000D01*
X133719000Y-119749000D01*
X135521000Y-119749000D01*
X135521000Y-121551000D01*
G37*
G36*
X126649890Y-120024017D02*
G01*
X126768364Y-120073091D01*
X126874988Y-120144335D01*
X126965665Y-120235012D01*
X127036909Y-120341636D01*
X127085983Y-120460110D01*
X127111000Y-120585882D01*
X127111000Y-120714118D01*
X127085983Y-120839890D01*
X127036909Y-120958364D01*
X126965665Y-121064988D01*
X126874988Y-121155665D01*
X126768364Y-121226909D01*
X126768363Y-121226910D01*
X126768362Y-121226910D01*
X126649890Y-121275983D01*
X126524119Y-121301000D01*
X126395881Y-121301000D01*
X126270110Y-121275983D01*
X126151638Y-121226910D01*
X126151637Y-121226910D01*
X126151636Y-121226909D01*
X126045012Y-121155665D01*
X125954335Y-121064988D01*
X125883091Y-120958364D01*
X125834017Y-120839890D01*
X125809000Y-120714118D01*
X125809000Y-120585882D01*
X125834017Y-120460110D01*
X125883091Y-120341636D01*
X125954335Y-120235012D01*
X126045012Y-120144335D01*
X126151636Y-120073091D01*
X126270110Y-120024017D01*
X126395881Y-119999000D01*
X126524119Y-119999000D01*
X126649890Y-120024017D01*
G37*
G36*
X125111000Y-121301000D02*
G01*
X123809000Y-121301000D01*
X123809000Y-119999000D01*
X125111000Y-119999000D01*
X125111000Y-121301000D01*
G37*
G36*
X98038228Y-117291703D02*
G01*
X98193100Y-117355853D01*
X98332481Y-117448985D01*
X98451015Y-117567519D01*
X98544147Y-117706900D01*
X98608297Y-117861772D01*
X98641000Y-118026184D01*
X98641000Y-118193816D01*
X98608297Y-118358228D01*
X98544147Y-118513100D01*
X98451015Y-118652481D01*
X98332481Y-118771015D01*
X98193100Y-118864147D01*
X98038228Y-118928297D01*
X97873816Y-118961000D01*
X97706184Y-118961000D01*
X97541772Y-118928297D01*
X97386900Y-118864147D01*
X97247519Y-118771015D01*
X97128985Y-118652481D01*
X97035853Y-118513100D01*
X96971703Y-118358228D01*
X96939000Y-118193816D01*
X96939000Y-118026184D01*
X96971703Y-117861772D01*
X97035853Y-117706900D01*
X97128985Y-117567519D01*
X97247519Y-117448985D01*
X97386900Y-117355853D01*
X97541772Y-117291703D01*
X97706184Y-117259000D01*
X97873816Y-117259000D01*
X98038228Y-117291703D01*
G37*
G36*
X105156200Y-118120401D02*
G01*
X103758800Y-118120401D01*
X103758800Y-117459601D01*
X105156200Y-117459601D01*
X105156200Y-118120401D01*
G37*
G36*
X68886564Y-115829389D02*
G01*
X69077833Y-115908615D01*
X69077835Y-115908616D01*
X69249973Y-116023635D01*
X69396365Y-116170027D01*
X69499345Y-116324147D01*
X69511385Y-116342167D01*
X69590611Y-116533436D01*
X69631000Y-116736484D01*
X69631000Y-116943516D01*
X69590611Y-117146564D01*
X69530492Y-117291705D01*
X69511384Y-117337835D01*
X69396365Y-117509973D01*
X69249973Y-117656365D01*
X69077835Y-117771384D01*
X69077834Y-117771385D01*
X69077833Y-117771385D01*
X68886564Y-117850611D01*
X68683516Y-117891000D01*
X68476484Y-117891000D01*
X68273436Y-117850611D01*
X68082167Y-117771385D01*
X68082166Y-117771385D01*
X68082165Y-117771384D01*
X67910027Y-117656365D01*
X67763635Y-117509973D01*
X67648616Y-117337835D01*
X67629508Y-117291705D01*
X67569389Y-117146564D01*
X67529000Y-116943516D01*
X67529000Y-116736484D01*
X67569389Y-116533436D01*
X67648615Y-116342167D01*
X67660656Y-116324147D01*
X67763635Y-116170027D01*
X67910027Y-116023635D01*
X68082165Y-115908616D01*
X68082167Y-115908615D01*
X68273436Y-115829389D01*
X68476484Y-115789000D01*
X68683516Y-115789000D01*
X68886564Y-115829389D01*
G37*
G36*
X82331000Y-117891000D02*
G01*
X80229000Y-117891000D01*
X80229000Y-115789000D01*
X82331000Y-115789000D01*
X82331000Y-117891000D01*
G37*
G36*
X107061200Y-117170400D02*
G01*
X105663800Y-117170400D01*
X105663800Y-116509600D01*
X107061200Y-116509600D01*
X107061200Y-117170400D01*
G37*
G36*
X189536564Y-114559389D02*
G01*
X189727833Y-114638615D01*
X189727835Y-114638616D01*
X189899973Y-114753635D01*
X190046365Y-114900027D01*
X190113067Y-114999853D01*
X190161385Y-115072167D01*
X190240611Y-115263436D01*
X190281000Y-115466484D01*
X190281000Y-115673516D01*
X190240611Y-115876564D01*
X190179692Y-116023635D01*
X190161384Y-116067835D01*
X190046365Y-116239973D01*
X189899973Y-116386365D01*
X189727835Y-116501384D01*
X189727834Y-116501385D01*
X189727833Y-116501385D01*
X189536564Y-116580611D01*
X189333516Y-116621000D01*
X189126484Y-116621000D01*
X188923436Y-116580611D01*
X188732167Y-116501385D01*
X188732166Y-116501385D01*
X188732165Y-116501384D01*
X188560027Y-116386365D01*
X188413635Y-116239973D01*
X188298616Y-116067835D01*
X188280308Y-116023635D01*
X188219389Y-115876564D01*
X188179000Y-115673516D01*
X188179000Y-115466484D01*
X188219389Y-115263436D01*
X188298615Y-115072167D01*
X188346934Y-114999853D01*
X188413635Y-114900027D01*
X188560027Y-114753635D01*
X188732165Y-114638616D01*
X188732167Y-114638615D01*
X188923436Y-114559389D01*
X189126484Y-114519000D01*
X189333516Y-114519000D01*
X189536564Y-114559389D01*
G37*
G36*
X177581000Y-116621000D02*
G01*
X175479000Y-116621000D01*
X175479000Y-114519000D01*
X177581000Y-114519000D01*
X177581000Y-116621000D01*
G37*
G36*
X91688228Y-114751703D02*
G01*
X91843100Y-114815853D01*
X91982481Y-114908985D01*
X92101015Y-115027519D01*
X92194147Y-115166900D01*
X92258297Y-115321772D01*
X92291000Y-115486184D01*
X92291000Y-115653816D01*
X92258297Y-115818228D01*
X92194147Y-115973100D01*
X92101015Y-116112481D01*
X91982481Y-116231015D01*
X91843100Y-116324147D01*
X91688228Y-116388297D01*
X91523816Y-116421000D01*
X91356184Y-116421000D01*
X91191772Y-116388297D01*
X91036900Y-116324147D01*
X90897519Y-116231015D01*
X90778985Y-116112481D01*
X90685853Y-115973100D01*
X90621703Y-115818228D01*
X90589000Y-115653816D01*
X90589000Y-115486184D01*
X90621703Y-115321772D01*
X90685853Y-115166900D01*
X90778985Y-115027519D01*
X90897519Y-114908985D01*
X91036900Y-114815853D01*
X91191772Y-114751703D01*
X91356184Y-114719000D01*
X91523816Y-114719000D01*
X91688228Y-114751703D01*
G37*
G36*
X105156200Y-116220399D02*
G01*
X103758800Y-116220399D01*
X103758800Y-115559599D01*
X105156200Y-115559599D01*
X105156200Y-116220399D01*
G37*
G36*
X117810000Y-116167101D02*
G01*
X117140000Y-116167101D01*
X117140000Y-114610203D01*
X117810000Y-114610203D01*
X117810000Y-116167101D01*
G37*
G36*
X119080000Y-116167101D02*
G01*
X118410000Y-116167101D01*
X118410000Y-114610203D01*
X119080000Y-114610203D01*
X119080000Y-116167101D01*
G37*
G36*
X116540000Y-116167101D02*
G01*
X115870000Y-116167101D01*
X115870000Y-114610203D01*
X116540000Y-114610203D01*
X116540000Y-116167101D01*
G37*
G36*
X120350000Y-116167101D02*
G01*
X119680000Y-116167101D01*
X119680000Y-114610203D01*
X120350000Y-114610203D01*
X120350000Y-116167101D01*
G37*
G36*
X198233512Y-113403927D02*
G01*
X198382812Y-113433624D01*
X198546784Y-113501544D01*
X198694354Y-113600147D01*
X198819853Y-113725646D01*
X198918456Y-113873216D01*
X198986376Y-114037188D01*
X199021000Y-114211259D01*
X199021000Y-114388741D01*
X198986376Y-114562812D01*
X198918456Y-114726784D01*
X198819853Y-114874354D01*
X198694354Y-114999853D01*
X198546784Y-115098456D01*
X198382812Y-115166376D01*
X198233512Y-115196073D01*
X198208742Y-115201000D01*
X198031258Y-115201000D01*
X198006488Y-115196073D01*
X197857188Y-115166376D01*
X197693216Y-115098456D01*
X197545646Y-114999853D01*
X197420147Y-114874354D01*
X197321544Y-114726784D01*
X197253624Y-114562812D01*
X197219000Y-114388741D01*
X197219000Y-114211259D01*
X197253624Y-114037188D01*
X197321544Y-113873216D01*
X197420147Y-113725646D01*
X197545646Y-113600147D01*
X197693216Y-113501544D01*
X197857188Y-113433624D01*
X198006488Y-113403927D01*
X198031258Y-113399000D01*
X198208742Y-113399000D01*
X198233512Y-113403927D01*
G37*
G36*
X198233512Y-110863927D02*
G01*
X198382812Y-110893624D01*
X198546784Y-110961544D01*
X198694354Y-111060147D01*
X198819853Y-111185646D01*
X198918456Y-111333216D01*
X198986376Y-111497188D01*
X199021000Y-111671259D01*
X199021000Y-111848741D01*
X198986376Y-112022812D01*
X198918456Y-112186784D01*
X198819853Y-112334354D01*
X198694354Y-112459853D01*
X198546784Y-112558456D01*
X198382812Y-112626376D01*
X198233512Y-112656073D01*
X198208742Y-112661000D01*
X198031258Y-112661000D01*
X198006488Y-112656073D01*
X197857188Y-112626376D01*
X197693216Y-112558456D01*
X197545646Y-112459853D01*
X197420147Y-112334354D01*
X197321544Y-112186784D01*
X197253624Y-112022812D01*
X197219000Y-111848741D01*
X197219000Y-111671259D01*
X197253624Y-111497188D01*
X197321544Y-111333216D01*
X197420147Y-111185646D01*
X197545646Y-111060147D01*
X197693216Y-110961544D01*
X197857188Y-110893624D01*
X198006488Y-110863927D01*
X198031258Y-110859000D01*
X198208742Y-110859000D01*
X198233512Y-110863927D01*
G37*
G36*
X68886564Y-109479389D02*
G01*
X69077833Y-109558615D01*
X69077835Y-109558616D01*
X69249973Y-109673635D01*
X69396365Y-109820027D01*
X69463067Y-109919853D01*
X69511385Y-109992167D01*
X69590611Y-110183436D01*
X69631000Y-110386484D01*
X69631000Y-110593516D01*
X69590611Y-110796564D01*
X69550407Y-110893625D01*
X69511384Y-110987835D01*
X69396365Y-111159973D01*
X69249973Y-111306365D01*
X69077835Y-111421384D01*
X69077834Y-111421385D01*
X69077833Y-111421385D01*
X68886564Y-111500611D01*
X68683516Y-111541000D01*
X68476484Y-111541000D01*
X68273436Y-111500611D01*
X68082167Y-111421385D01*
X68082166Y-111421385D01*
X68082165Y-111421384D01*
X67910027Y-111306365D01*
X67763635Y-111159973D01*
X67648616Y-110987835D01*
X67609593Y-110893625D01*
X67569389Y-110796564D01*
X67529000Y-110593516D01*
X67529000Y-110386484D01*
X67569389Y-110183436D01*
X67648615Y-109992167D01*
X67696934Y-109919853D01*
X67763635Y-109820027D01*
X67910027Y-109673635D01*
X68082165Y-109558616D01*
X68082167Y-109558615D01*
X68273436Y-109479389D01*
X68476484Y-109439000D01*
X68683516Y-109439000D01*
X68886564Y-109479389D01*
G37*
G36*
X82331000Y-111541000D02*
G01*
X80229000Y-111541000D01*
X80229000Y-109439000D01*
X82331000Y-109439000D01*
X82331000Y-111541000D01*
G37*
G36*
X189536564Y-108209389D02*
G01*
X189727833Y-108288615D01*
X189727835Y-108288616D01*
X189899973Y-108403635D01*
X190046365Y-108550027D01*
X190110256Y-108645646D01*
X190161385Y-108722167D01*
X190240611Y-108913436D01*
X190281000Y-109116484D01*
X190281000Y-109323516D01*
X190240611Y-109526564D01*
X190190815Y-109646782D01*
X190161384Y-109717835D01*
X190046365Y-109889973D01*
X189899973Y-110036365D01*
X189727835Y-110151384D01*
X189727834Y-110151385D01*
X189727833Y-110151385D01*
X189536564Y-110230611D01*
X189333516Y-110271000D01*
X189126484Y-110271000D01*
X188923436Y-110230611D01*
X188732167Y-110151385D01*
X188732166Y-110151385D01*
X188732165Y-110151384D01*
X188560027Y-110036365D01*
X188413635Y-109889973D01*
X188298616Y-109717835D01*
X188269185Y-109646782D01*
X188219389Y-109526564D01*
X188179000Y-109323516D01*
X188179000Y-109116484D01*
X188219389Y-108913436D01*
X188298615Y-108722167D01*
X188349745Y-108645646D01*
X188413635Y-108550027D01*
X188560027Y-108403635D01*
X188732165Y-108288616D01*
X188732167Y-108288615D01*
X188923436Y-108209389D01*
X189126484Y-108169000D01*
X189333516Y-108169000D01*
X189536564Y-108209389D01*
G37*
G36*
X177581000Y-110271000D02*
G01*
X175479000Y-110271000D01*
X175479000Y-108169000D01*
X177581000Y-108169000D01*
X177581000Y-110271000D01*
G37*
G36*
X59803512Y-108323927D02*
G01*
X59952812Y-108353624D01*
X60116784Y-108421544D01*
X60264354Y-108520147D01*
X60389853Y-108645646D01*
X60488456Y-108793216D01*
X60556376Y-108957188D01*
X60591000Y-109131259D01*
X60591000Y-109308741D01*
X60556376Y-109482812D01*
X60488456Y-109646784D01*
X60389853Y-109794354D01*
X60264354Y-109919853D01*
X60116784Y-110018456D01*
X59952812Y-110086376D01*
X59803512Y-110116073D01*
X59778742Y-110121000D01*
X59601258Y-110121000D01*
X59576488Y-110116073D01*
X59427188Y-110086376D01*
X59263216Y-110018456D01*
X59115646Y-109919853D01*
X58990147Y-109794354D01*
X58891544Y-109646784D01*
X58823624Y-109482812D01*
X58789000Y-109308741D01*
X58789000Y-109131259D01*
X58823624Y-108957188D01*
X58891544Y-108793216D01*
X58990147Y-108645646D01*
X59115646Y-108520147D01*
X59263216Y-108421544D01*
X59427188Y-108353624D01*
X59576488Y-108323927D01*
X59601258Y-108319000D01*
X59778742Y-108319000D01*
X59803512Y-108323927D01*
G37*
G36*
X198233512Y-108323927D02*
G01*
X198382812Y-108353624D01*
X198546784Y-108421544D01*
X198694354Y-108520147D01*
X198819853Y-108645646D01*
X198918456Y-108793216D01*
X198986376Y-108957188D01*
X199021000Y-109131259D01*
X199021000Y-109308741D01*
X198986376Y-109482812D01*
X198918456Y-109646784D01*
X198819853Y-109794354D01*
X198694354Y-109919853D01*
X198546784Y-110018456D01*
X198382812Y-110086376D01*
X198233512Y-110116073D01*
X198208742Y-110121000D01*
X198031258Y-110121000D01*
X198006488Y-110116073D01*
X197857188Y-110086376D01*
X197693216Y-110018456D01*
X197545646Y-109919853D01*
X197420147Y-109794354D01*
X197321544Y-109646784D01*
X197253624Y-109482812D01*
X197219000Y-109308741D01*
X197219000Y-109131259D01*
X197253624Y-108957188D01*
X197321544Y-108793216D01*
X197420147Y-108645646D01*
X197545646Y-108520147D01*
X197693216Y-108421544D01*
X197857188Y-108353624D01*
X198006488Y-108323927D01*
X198031258Y-108319000D01*
X198208742Y-108319000D01*
X198233512Y-108323927D01*
G37*
G36*
X198233512Y-105783927D02*
G01*
X198382812Y-105813624D01*
X198546784Y-105881544D01*
X198694354Y-105980147D01*
X198819853Y-106105646D01*
X198918456Y-106253216D01*
X198986376Y-106417188D01*
X199021000Y-106591259D01*
X199021000Y-106768741D01*
X198986376Y-106942812D01*
X198918456Y-107106784D01*
X198819853Y-107254354D01*
X198694354Y-107379853D01*
X198546784Y-107478456D01*
X198382812Y-107546376D01*
X198233512Y-107576073D01*
X198208742Y-107581000D01*
X198031258Y-107581000D01*
X198006488Y-107576073D01*
X197857188Y-107546376D01*
X197693216Y-107478456D01*
X197545646Y-107379853D01*
X197420147Y-107254354D01*
X197321544Y-107106784D01*
X197253624Y-106942812D01*
X197219000Y-106768741D01*
X197219000Y-106591259D01*
X197253624Y-106417188D01*
X197321544Y-106253216D01*
X197420147Y-106105646D01*
X197545646Y-105980147D01*
X197693216Y-105881544D01*
X197857188Y-105813624D01*
X198006488Y-105783927D01*
X198031258Y-105779000D01*
X198208742Y-105779000D01*
X198233512Y-105783927D01*
G37*
G36*
X59803512Y-105783927D02*
G01*
X59952812Y-105813624D01*
X60116784Y-105881544D01*
X60264354Y-105980147D01*
X60389853Y-106105646D01*
X60488456Y-106253216D01*
X60556376Y-106417188D01*
X60591000Y-106591259D01*
X60591000Y-106768741D01*
X60556376Y-106942812D01*
X60488456Y-107106784D01*
X60389853Y-107254354D01*
X60264354Y-107379853D01*
X60116784Y-107478456D01*
X59952812Y-107546376D01*
X59803512Y-107576073D01*
X59778742Y-107581000D01*
X59601258Y-107581000D01*
X59576488Y-107576073D01*
X59427188Y-107546376D01*
X59263216Y-107478456D01*
X59115646Y-107379853D01*
X58990147Y-107254354D01*
X58891544Y-107106784D01*
X58823624Y-106942812D01*
X58789000Y-106768741D01*
X58789000Y-106591259D01*
X58823624Y-106417188D01*
X58891544Y-106253216D01*
X58990147Y-106105646D01*
X59115646Y-105980147D01*
X59263216Y-105881544D01*
X59427188Y-105813624D01*
X59576488Y-105783927D01*
X59601258Y-105779000D01*
X59778742Y-105779000D01*
X59803512Y-105783927D01*
G37*
G36*
X82331000Y-105191000D02*
G01*
X80229000Y-105191000D01*
X80229000Y-103089000D01*
X82331000Y-103089000D01*
X82331000Y-105191000D01*
G37*
G36*
X68886564Y-103129389D02*
G01*
X69077833Y-103208615D01*
X69077835Y-103208616D01*
X69249973Y-103323635D01*
X69396365Y-103470027D01*
X69463067Y-103569853D01*
X69511385Y-103642167D01*
X69590611Y-103833436D01*
X69631000Y-104036484D01*
X69631000Y-104243516D01*
X69590611Y-104446564D01*
X69540815Y-104566782D01*
X69511384Y-104637835D01*
X69396365Y-104809973D01*
X69249973Y-104956365D01*
X69077835Y-105071384D01*
X69077834Y-105071385D01*
X69077833Y-105071385D01*
X68886564Y-105150611D01*
X68683516Y-105191000D01*
X68476484Y-105191000D01*
X68273436Y-105150611D01*
X68082167Y-105071385D01*
X68082166Y-105071385D01*
X68082165Y-105071384D01*
X67910027Y-104956365D01*
X67763635Y-104809973D01*
X67648616Y-104637835D01*
X67619185Y-104566782D01*
X67569389Y-104446564D01*
X67529000Y-104243516D01*
X67529000Y-104036484D01*
X67569389Y-103833436D01*
X67648615Y-103642167D01*
X67696934Y-103569853D01*
X67763635Y-103470027D01*
X67910027Y-103323635D01*
X68082165Y-103208616D01*
X68082167Y-103208615D01*
X68273436Y-103129389D01*
X68476484Y-103089000D01*
X68683516Y-103089000D01*
X68886564Y-103129389D01*
G37*
G36*
X59803512Y-103243927D02*
G01*
X59952812Y-103273624D01*
X60116784Y-103341544D01*
X60264354Y-103440147D01*
X60389853Y-103565646D01*
X60488456Y-103713216D01*
X60556376Y-103877188D01*
X60591000Y-104051259D01*
X60591000Y-104228741D01*
X60556376Y-104402812D01*
X60488456Y-104566784D01*
X60389853Y-104714354D01*
X60264354Y-104839853D01*
X60116784Y-104938456D01*
X59952812Y-105006376D01*
X59803512Y-105036073D01*
X59778742Y-105041000D01*
X59601258Y-105041000D01*
X59576488Y-105036073D01*
X59427188Y-105006376D01*
X59263216Y-104938456D01*
X59115646Y-104839853D01*
X58990147Y-104714354D01*
X58891544Y-104566784D01*
X58823624Y-104402812D01*
X58789000Y-104228741D01*
X58789000Y-104051259D01*
X58823624Y-103877188D01*
X58891544Y-103713216D01*
X58990147Y-103565646D01*
X59115646Y-103440147D01*
X59263216Y-103341544D01*
X59427188Y-103273624D01*
X59576488Y-103243927D01*
X59601258Y-103239000D01*
X59778742Y-103239000D01*
X59803512Y-103243927D01*
G37*
G36*
X199021000Y-105041000D02*
G01*
X197219000Y-105041000D01*
X197219000Y-103239000D01*
X199021000Y-103239000D01*
X199021000Y-105041000D01*
G37*
G36*
X177581000Y-103921000D02*
G01*
X175479000Y-103921000D01*
X175479000Y-101819000D01*
X177581000Y-101819000D01*
X177581000Y-103921000D01*
G37*
G36*
X189536564Y-101859389D02*
G01*
X189727833Y-101938615D01*
X189727835Y-101938616D01*
X189899973Y-102053635D01*
X190046365Y-102200027D01*
X190113067Y-102299853D01*
X190161385Y-102372167D01*
X190240611Y-102563436D01*
X190281000Y-102766484D01*
X190281000Y-102973516D01*
X190240611Y-103176564D01*
X190200407Y-103273625D01*
X190161384Y-103367835D01*
X190046365Y-103539973D01*
X189899973Y-103686365D01*
X189727835Y-103801384D01*
X189727834Y-103801385D01*
X189727833Y-103801385D01*
X189536564Y-103880611D01*
X189333516Y-103921000D01*
X189126484Y-103921000D01*
X188923436Y-103880611D01*
X188732167Y-103801385D01*
X188732166Y-103801385D01*
X188732165Y-103801384D01*
X188560027Y-103686365D01*
X188413635Y-103539973D01*
X188298616Y-103367835D01*
X188259593Y-103273625D01*
X188219389Y-103176564D01*
X188179000Y-102973516D01*
X188179000Y-102766484D01*
X188219389Y-102563436D01*
X188298615Y-102372167D01*
X188346934Y-102299853D01*
X188413635Y-102200027D01*
X188560027Y-102053635D01*
X188732165Y-101938616D01*
X188732167Y-101938615D01*
X188923436Y-101859389D01*
X189126484Y-101819000D01*
X189333516Y-101819000D01*
X189536564Y-101859389D01*
G37*
G36*
X105523512Y-101973927D02*
G01*
X105672812Y-102003624D01*
X105836784Y-102071544D01*
X105984354Y-102170147D01*
X106109853Y-102295646D01*
X106208456Y-102443216D01*
X106276376Y-102607188D01*
X106311000Y-102781259D01*
X106311000Y-102958741D01*
X106276376Y-103132812D01*
X106208456Y-103296784D01*
X106109853Y-103444354D01*
X105984354Y-103569853D01*
X105836784Y-103668456D01*
X105672812Y-103736376D01*
X105523512Y-103766073D01*
X105498742Y-103771000D01*
X105321258Y-103771000D01*
X105296488Y-103766073D01*
X105147188Y-103736376D01*
X104983216Y-103668456D01*
X104835646Y-103569853D01*
X104710147Y-103444354D01*
X104611544Y-103296784D01*
X104543624Y-103132812D01*
X104509000Y-102958741D01*
X104509000Y-102781259D01*
X104543624Y-102607188D01*
X104611544Y-102443216D01*
X104710147Y-102295646D01*
X104835646Y-102170147D01*
X104983216Y-102071544D01*
X105147188Y-102003624D01*
X105296488Y-101973927D01*
X105321258Y-101969000D01*
X105498742Y-101969000D01*
X105523512Y-101973927D01*
G37*
G36*
X125843512Y-101973927D02*
G01*
X125992812Y-102003624D01*
X126156784Y-102071544D01*
X126304354Y-102170147D01*
X126429853Y-102295646D01*
X126528456Y-102443216D01*
X126596376Y-102607188D01*
X126631000Y-102781259D01*
X126631000Y-102958741D01*
X126596376Y-103132812D01*
X126528456Y-103296784D01*
X126429853Y-103444354D01*
X126304354Y-103569853D01*
X126156784Y-103668456D01*
X125992812Y-103736376D01*
X125843512Y-103766073D01*
X125818742Y-103771000D01*
X125641258Y-103771000D01*
X125616488Y-103766073D01*
X125467188Y-103736376D01*
X125303216Y-103668456D01*
X125155646Y-103569853D01*
X125030147Y-103444354D01*
X124931544Y-103296784D01*
X124863624Y-103132812D01*
X124829000Y-102958741D01*
X124829000Y-102781259D01*
X124863624Y-102607188D01*
X124931544Y-102443216D01*
X125030147Y-102295646D01*
X125155646Y-102170147D01*
X125303216Y-102071544D01*
X125467188Y-102003624D01*
X125616488Y-101973927D01*
X125641258Y-101969000D01*
X125818742Y-101969000D01*
X125843512Y-101973927D01*
G37*
G36*
X59803512Y-100703927D02*
G01*
X59952812Y-100733624D01*
X60116784Y-100801544D01*
X60264354Y-100900147D01*
X60389853Y-101025646D01*
X60488456Y-101173216D01*
X60556376Y-101337188D01*
X60591000Y-101511259D01*
X60591000Y-101688741D01*
X60556376Y-101862812D01*
X60488456Y-102026784D01*
X60389853Y-102174354D01*
X60264354Y-102299853D01*
X60116784Y-102398456D01*
X59952812Y-102466376D01*
X59803512Y-102496073D01*
X59778742Y-102501000D01*
X59601258Y-102501000D01*
X59576488Y-102496073D01*
X59427188Y-102466376D01*
X59263216Y-102398456D01*
X59115646Y-102299853D01*
X58990147Y-102174354D01*
X58891544Y-102026784D01*
X58823624Y-101862812D01*
X58789000Y-101688741D01*
X58789000Y-101511259D01*
X58823624Y-101337188D01*
X58891544Y-101173216D01*
X58990147Y-101025646D01*
X59115646Y-100900147D01*
X59263216Y-100801544D01*
X59427188Y-100733624D01*
X59576488Y-100703927D01*
X59601258Y-100699000D01*
X59778742Y-100699000D01*
X59803512Y-100703927D01*
G37*
G36*
X105523512Y-99433927D02*
G01*
X105672812Y-99463624D01*
X105836784Y-99531544D01*
X105984354Y-99630147D01*
X106109853Y-99755646D01*
X106208456Y-99903216D01*
X106276376Y-100067188D01*
X106311000Y-100241259D01*
X106311000Y-100418741D01*
X106276376Y-100592812D01*
X106208456Y-100756784D01*
X106109853Y-100904354D01*
X105984354Y-101029853D01*
X105836784Y-101128456D01*
X105672812Y-101196376D01*
X105523512Y-101226073D01*
X105498742Y-101231000D01*
X105321258Y-101231000D01*
X105296488Y-101226073D01*
X105147188Y-101196376D01*
X104983216Y-101128456D01*
X104835646Y-101029853D01*
X104710147Y-100904354D01*
X104611544Y-100756784D01*
X104543624Y-100592812D01*
X104509000Y-100418741D01*
X104509000Y-100241259D01*
X104543624Y-100067188D01*
X104611544Y-99903216D01*
X104710147Y-99755646D01*
X104835646Y-99630147D01*
X104983216Y-99531544D01*
X105147188Y-99463624D01*
X105296488Y-99433927D01*
X105321258Y-99429000D01*
X105498742Y-99429000D01*
X105523512Y-99433927D01*
G37*
G36*
X125843512Y-99433927D02*
G01*
X125992812Y-99463624D01*
X126156784Y-99531544D01*
X126304354Y-99630147D01*
X126429853Y-99755646D01*
X126528456Y-99903216D01*
X126596376Y-100067188D01*
X126631000Y-100241259D01*
X126631000Y-100418741D01*
X126596376Y-100592812D01*
X126528456Y-100756784D01*
X126429853Y-100904354D01*
X126304354Y-101029853D01*
X126156784Y-101128456D01*
X125992812Y-101196376D01*
X125843512Y-101226073D01*
X125818742Y-101231000D01*
X125641258Y-101231000D01*
X125616488Y-101226073D01*
X125467188Y-101196376D01*
X125303216Y-101128456D01*
X125155646Y-101029853D01*
X125030147Y-100904354D01*
X124931544Y-100756784D01*
X124863624Y-100592812D01*
X124829000Y-100418741D01*
X124829000Y-100241259D01*
X124863624Y-100067188D01*
X124931544Y-99903216D01*
X125030147Y-99755646D01*
X125155646Y-99630147D01*
X125303216Y-99531544D01*
X125467188Y-99463624D01*
X125616488Y-99433927D01*
X125641258Y-99429000D01*
X125818742Y-99429000D01*
X125843512Y-99433927D01*
G37*
G36*
X60591000Y-99961000D02*
G01*
X58789000Y-99961000D01*
X58789000Y-98159000D01*
X60591000Y-98159000D01*
X60591000Y-99961000D01*
G37*
G36*
X82331000Y-98841000D02*
G01*
X80229000Y-98841000D01*
X80229000Y-96739000D01*
X82331000Y-96739000D01*
X82331000Y-98841000D01*
G37*
G36*
X68886564Y-96779389D02*
G01*
X69077833Y-96858615D01*
X69077835Y-96858616D01*
X69249973Y-96973635D01*
X69396365Y-97120027D01*
X69460256Y-97215646D01*
X69511385Y-97292167D01*
X69590611Y-97483436D01*
X69631000Y-97686484D01*
X69631000Y-97893516D01*
X69590611Y-98096564D01*
X69564749Y-98159000D01*
X69511384Y-98287835D01*
X69396365Y-98459973D01*
X69249973Y-98606365D01*
X69077835Y-98721384D01*
X69077834Y-98721385D01*
X69077833Y-98721385D01*
X68886564Y-98800611D01*
X68683516Y-98841000D01*
X68476484Y-98841000D01*
X68273436Y-98800611D01*
X68082167Y-98721385D01*
X68082166Y-98721385D01*
X68082165Y-98721384D01*
X67910027Y-98606365D01*
X67763635Y-98459973D01*
X67648616Y-98287835D01*
X67595251Y-98159000D01*
X67569389Y-98096564D01*
X67529000Y-97893516D01*
X67529000Y-97686484D01*
X67569389Y-97483436D01*
X67648615Y-97292167D01*
X67699745Y-97215646D01*
X67763635Y-97120027D01*
X67910027Y-96973635D01*
X68082165Y-96858616D01*
X68082167Y-96858615D01*
X68273436Y-96779389D01*
X68476484Y-96739000D01*
X68683516Y-96739000D01*
X68886564Y-96779389D01*
G37*
G36*
X125843512Y-96893927D02*
G01*
X125992812Y-96923624D01*
X126156784Y-96991544D01*
X126304354Y-97090147D01*
X126429853Y-97215646D01*
X126528456Y-97363216D01*
X126596376Y-97527188D01*
X126631000Y-97701259D01*
X126631000Y-97878741D01*
X126596376Y-98052812D01*
X126528456Y-98216784D01*
X126429853Y-98364354D01*
X126304354Y-98489853D01*
X126156784Y-98588456D01*
X125992812Y-98656376D01*
X125843512Y-98686073D01*
X125818742Y-98691000D01*
X125641258Y-98691000D01*
X125616488Y-98686073D01*
X125467188Y-98656376D01*
X125303216Y-98588456D01*
X125155646Y-98489853D01*
X125030147Y-98364354D01*
X124931544Y-98216784D01*
X124863624Y-98052812D01*
X124829000Y-97878741D01*
X124829000Y-97701259D01*
X124863624Y-97527188D01*
X124931544Y-97363216D01*
X125030147Y-97215646D01*
X125155646Y-97090147D01*
X125303216Y-96991544D01*
X125467188Y-96923624D01*
X125616488Y-96893927D01*
X125641258Y-96889000D01*
X125818742Y-96889000D01*
X125843512Y-96893927D01*
G37*
G36*
X105523512Y-96893927D02*
G01*
X105672812Y-96923624D01*
X105836784Y-96991544D01*
X105984354Y-97090147D01*
X106109853Y-97215646D01*
X106208456Y-97363216D01*
X106276376Y-97527188D01*
X106311000Y-97701259D01*
X106311000Y-97878741D01*
X106276376Y-98052812D01*
X106208456Y-98216784D01*
X106109853Y-98364354D01*
X105984354Y-98489853D01*
X105836784Y-98588456D01*
X105672812Y-98656376D01*
X105523512Y-98686073D01*
X105498742Y-98691000D01*
X105321258Y-98691000D01*
X105296488Y-98686073D01*
X105147188Y-98656376D01*
X104983216Y-98588456D01*
X104835646Y-98489853D01*
X104710147Y-98364354D01*
X104611544Y-98216784D01*
X104543624Y-98052812D01*
X104509000Y-97878741D01*
X104509000Y-97701259D01*
X104543624Y-97527188D01*
X104611544Y-97363216D01*
X104710147Y-97215646D01*
X104835646Y-97090147D01*
X104983216Y-96991544D01*
X105147188Y-96923624D01*
X105296488Y-96893927D01*
X105321258Y-96889000D01*
X105498742Y-96889000D01*
X105523512Y-96893927D01*
G37*
G36*
X177581000Y-97571000D02*
G01*
X175479000Y-97571000D01*
X175479000Y-95469000D01*
X177581000Y-95469000D01*
X177581000Y-97571000D01*
G37*
G36*
X189536564Y-95509389D02*
G01*
X189727833Y-95588615D01*
X189727835Y-95588616D01*
X189899973Y-95703635D01*
X190046365Y-95850027D01*
X190113067Y-95949853D01*
X190161385Y-96022167D01*
X190240611Y-96213436D01*
X190281000Y-96416484D01*
X190281000Y-96623516D01*
X190240611Y-96826564D01*
X190200407Y-96923625D01*
X190161384Y-97017835D01*
X190046365Y-97189973D01*
X189899973Y-97336365D01*
X189727835Y-97451384D01*
X189727834Y-97451385D01*
X189727833Y-97451385D01*
X189536564Y-97530611D01*
X189333516Y-97571000D01*
X189126484Y-97571000D01*
X188923436Y-97530611D01*
X188732167Y-97451385D01*
X188732166Y-97451385D01*
X188732165Y-97451384D01*
X188560027Y-97336365D01*
X188413635Y-97189973D01*
X188298616Y-97017835D01*
X188259593Y-96923625D01*
X188219389Y-96826564D01*
X188179000Y-96623516D01*
X188179000Y-96416484D01*
X188219389Y-96213436D01*
X188298615Y-96022167D01*
X188346934Y-95949853D01*
X188413635Y-95850027D01*
X188560027Y-95703635D01*
X188732165Y-95588616D01*
X188732167Y-95588615D01*
X188923436Y-95509389D01*
X189126484Y-95469000D01*
X189333516Y-95469000D01*
X189536564Y-95509389D01*
G37*
G36*
X105523512Y-94353927D02*
G01*
X105672812Y-94383624D01*
X105836784Y-94451544D01*
X105984354Y-94550147D01*
X106109853Y-94675646D01*
X106208456Y-94823216D01*
X106276376Y-94987188D01*
X106311000Y-95161259D01*
X106311000Y-95338741D01*
X106276376Y-95512812D01*
X106208456Y-95676784D01*
X106109853Y-95824354D01*
X105984354Y-95949853D01*
X105836784Y-96048456D01*
X105672812Y-96116376D01*
X105523512Y-96146073D01*
X105498742Y-96151000D01*
X105321258Y-96151000D01*
X105296488Y-96146073D01*
X105147188Y-96116376D01*
X104983216Y-96048456D01*
X104835646Y-95949853D01*
X104710147Y-95824354D01*
X104611544Y-95676784D01*
X104543624Y-95512812D01*
X104509000Y-95338741D01*
X104509000Y-95161259D01*
X104543624Y-94987188D01*
X104611544Y-94823216D01*
X104710147Y-94675646D01*
X104835646Y-94550147D01*
X104983216Y-94451544D01*
X105147188Y-94383624D01*
X105296488Y-94353927D01*
X105321258Y-94349000D01*
X105498742Y-94349000D01*
X105523512Y-94353927D01*
G37*
G36*
X125843512Y-94353927D02*
G01*
X125992812Y-94383624D01*
X126156784Y-94451544D01*
X126304354Y-94550147D01*
X126429853Y-94675646D01*
X126528456Y-94823216D01*
X126596376Y-94987188D01*
X126631000Y-95161259D01*
X126631000Y-95338741D01*
X126596376Y-95512812D01*
X126528456Y-95676784D01*
X126429853Y-95824354D01*
X126304354Y-95949853D01*
X126156784Y-96048456D01*
X125992812Y-96116376D01*
X125843512Y-96146073D01*
X125818742Y-96151000D01*
X125641258Y-96151000D01*
X125616488Y-96146073D01*
X125467188Y-96116376D01*
X125303216Y-96048456D01*
X125155646Y-95949853D01*
X125030147Y-95824354D01*
X124931544Y-95676784D01*
X124863624Y-95512812D01*
X124829000Y-95338741D01*
X124829000Y-95161259D01*
X124863624Y-94987188D01*
X124931544Y-94823216D01*
X125030147Y-94675646D01*
X125155646Y-94550147D01*
X125303216Y-94451544D01*
X125467188Y-94383624D01*
X125616488Y-94353927D01*
X125641258Y-94349000D01*
X125818742Y-94349000D01*
X125843512Y-94353927D01*
G37*
G36*
X105523512Y-91813927D02*
G01*
X105672812Y-91843624D01*
X105836784Y-91911544D01*
X105984354Y-92010147D01*
X106109853Y-92135646D01*
X106208456Y-92283216D01*
X106276376Y-92447188D01*
X106311000Y-92621259D01*
X106311000Y-92798741D01*
X106276376Y-92972812D01*
X106208456Y-93136784D01*
X106109853Y-93284354D01*
X105984354Y-93409853D01*
X105836784Y-93508456D01*
X105672812Y-93576376D01*
X105523512Y-93606073D01*
X105498742Y-93611000D01*
X105321258Y-93611000D01*
X105296488Y-93606073D01*
X105147188Y-93576376D01*
X104983216Y-93508456D01*
X104835646Y-93409853D01*
X104710147Y-93284354D01*
X104611544Y-93136784D01*
X104543624Y-92972812D01*
X104509000Y-92798741D01*
X104509000Y-92621259D01*
X104543624Y-92447188D01*
X104611544Y-92283216D01*
X104710147Y-92135646D01*
X104835646Y-92010147D01*
X104983216Y-91911544D01*
X105147188Y-91843624D01*
X105296488Y-91813927D01*
X105321258Y-91809000D01*
X105498742Y-91809000D01*
X105523512Y-91813927D01*
G37*
G36*
X125843512Y-91813927D02*
G01*
X125992812Y-91843624D01*
X126156784Y-91911544D01*
X126304354Y-92010147D01*
X126429853Y-92135646D01*
X126528456Y-92283216D01*
X126596376Y-92447188D01*
X126631000Y-92621259D01*
X126631000Y-92798741D01*
X126596376Y-92972812D01*
X126528456Y-93136784D01*
X126429853Y-93284354D01*
X126304354Y-93409853D01*
X126156784Y-93508456D01*
X125992812Y-93576376D01*
X125843512Y-93606073D01*
X125818742Y-93611000D01*
X125641258Y-93611000D01*
X125616488Y-93606073D01*
X125467188Y-93576376D01*
X125303216Y-93508456D01*
X125155646Y-93409853D01*
X125030147Y-93284354D01*
X124931544Y-93136784D01*
X124863624Y-92972812D01*
X124829000Y-92798741D01*
X124829000Y-92621259D01*
X124863624Y-92447188D01*
X124931544Y-92283216D01*
X125030147Y-92135646D01*
X125155646Y-92010147D01*
X125303216Y-91911544D01*
X125467188Y-91843624D01*
X125616488Y-91813927D01*
X125641258Y-91809000D01*
X125818742Y-91809000D01*
X125843512Y-91813927D01*
G37*
G36*
X68886564Y-90429389D02*
G01*
X69077833Y-90508615D01*
X69077835Y-90508616D01*
X69249973Y-90623635D01*
X69396365Y-90770027D01*
X69463067Y-90869853D01*
X69511385Y-90942167D01*
X69590611Y-91133436D01*
X69631000Y-91336484D01*
X69631000Y-91543516D01*
X69590611Y-91746564D01*
X69550407Y-91843625D01*
X69511384Y-91937835D01*
X69396365Y-92109973D01*
X69249973Y-92256365D01*
X69077835Y-92371384D01*
X69077834Y-92371385D01*
X69077833Y-92371385D01*
X68886564Y-92450611D01*
X68683516Y-92491000D01*
X68476484Y-92491000D01*
X68273436Y-92450611D01*
X68082167Y-92371385D01*
X68082166Y-92371385D01*
X68082165Y-92371384D01*
X67910027Y-92256365D01*
X67763635Y-92109973D01*
X67648616Y-91937835D01*
X67609593Y-91843625D01*
X67569389Y-91746564D01*
X67529000Y-91543516D01*
X67529000Y-91336484D01*
X67569389Y-91133436D01*
X67648615Y-90942167D01*
X67696934Y-90869853D01*
X67763635Y-90770027D01*
X67910027Y-90623635D01*
X68082165Y-90508616D01*
X68082167Y-90508615D01*
X68273436Y-90429389D01*
X68476484Y-90389000D01*
X68683516Y-90389000D01*
X68886564Y-90429389D01*
G37*
G36*
X82331000Y-92491000D02*
G01*
X80229000Y-92491000D01*
X80229000Y-90389000D01*
X82331000Y-90389000D01*
X82331000Y-92491000D01*
G37*
G36*
X105523512Y-89273927D02*
G01*
X105672812Y-89303624D01*
X105836784Y-89371544D01*
X105984354Y-89470147D01*
X106109853Y-89595646D01*
X106208456Y-89743216D01*
X106276376Y-89907188D01*
X106311000Y-90081259D01*
X106311000Y-90258741D01*
X106276376Y-90432812D01*
X106208456Y-90596784D01*
X106109853Y-90744354D01*
X105984354Y-90869853D01*
X105836784Y-90968456D01*
X105672812Y-91036376D01*
X105523512Y-91066073D01*
X105498742Y-91071000D01*
X105321258Y-91071000D01*
X105296488Y-91066073D01*
X105147188Y-91036376D01*
X104983216Y-90968456D01*
X104835646Y-90869853D01*
X104710147Y-90744354D01*
X104611544Y-90596784D01*
X104543624Y-90432812D01*
X104509000Y-90258741D01*
X104509000Y-90081259D01*
X104543624Y-89907188D01*
X104611544Y-89743216D01*
X104710147Y-89595646D01*
X104835646Y-89470147D01*
X104983216Y-89371544D01*
X105147188Y-89303624D01*
X105296488Y-89273927D01*
X105321258Y-89269000D01*
X105498742Y-89269000D01*
X105523512Y-89273927D01*
G37*
G36*
X125843512Y-89273927D02*
G01*
X125992812Y-89303624D01*
X126156784Y-89371544D01*
X126304354Y-89470147D01*
X126429853Y-89595646D01*
X126528456Y-89743216D01*
X126596376Y-89907188D01*
X126631000Y-90081259D01*
X126631000Y-90258741D01*
X126596376Y-90432812D01*
X126528456Y-90596784D01*
X126429853Y-90744354D01*
X126304354Y-90869853D01*
X126156784Y-90968456D01*
X125992812Y-91036376D01*
X125843512Y-91066073D01*
X125818742Y-91071000D01*
X125641258Y-91071000D01*
X125616488Y-91066073D01*
X125467188Y-91036376D01*
X125303216Y-90968456D01*
X125155646Y-90869853D01*
X125030147Y-90744354D01*
X124931544Y-90596784D01*
X124863624Y-90432812D01*
X124829000Y-90258741D01*
X124829000Y-90081259D01*
X124863624Y-89907188D01*
X124931544Y-89743216D01*
X125030147Y-89595646D01*
X125155646Y-89470147D01*
X125303216Y-89371544D01*
X125467188Y-89303624D01*
X125616488Y-89273927D01*
X125641258Y-89269000D01*
X125818742Y-89269000D01*
X125843512Y-89273927D01*
G37*
G36*
X169158228Y-88081703D02*
G01*
X169313100Y-88145853D01*
X169452481Y-88238985D01*
X169571015Y-88357519D01*
X169664147Y-88496900D01*
X169728297Y-88651772D01*
X169761000Y-88816184D01*
X169761000Y-88983816D01*
X169728297Y-89148228D01*
X169664147Y-89303100D01*
X169571015Y-89442481D01*
X169452481Y-89561015D01*
X169313100Y-89654147D01*
X169158228Y-89718297D01*
X168993816Y-89751000D01*
X168826184Y-89751000D01*
X168661772Y-89718297D01*
X168506900Y-89654147D01*
X168367519Y-89561015D01*
X168248985Y-89442481D01*
X168155853Y-89303100D01*
X168091703Y-89148228D01*
X168059000Y-88983816D01*
X168059000Y-88816184D01*
X168091703Y-88651772D01*
X168155853Y-88496900D01*
X168248985Y-88357519D01*
X168367519Y-88238985D01*
X168506900Y-88145853D01*
X168661772Y-88081703D01*
X168826184Y-88049000D01*
X168993816Y-88049000D01*
X169158228Y-88081703D01*
G37*
G36*
X189478228Y-88081703D02*
G01*
X189633100Y-88145853D01*
X189772481Y-88238985D01*
X189891015Y-88357519D01*
X189984147Y-88496900D01*
X190048297Y-88651772D01*
X190081000Y-88816184D01*
X190081000Y-88983816D01*
X190048297Y-89148228D01*
X189984147Y-89303100D01*
X189891015Y-89442481D01*
X189772481Y-89561015D01*
X189633100Y-89654147D01*
X189478228Y-89718297D01*
X189313816Y-89751000D01*
X189146184Y-89751000D01*
X188981772Y-89718297D01*
X188826900Y-89654147D01*
X188687519Y-89561015D01*
X188568985Y-89442481D01*
X188475853Y-89303100D01*
X188411703Y-89148228D01*
X188379000Y-88983816D01*
X188379000Y-88816184D01*
X188411703Y-88651772D01*
X188475853Y-88496900D01*
X188568985Y-88357519D01*
X188687519Y-88238985D01*
X188826900Y-88145853D01*
X188981772Y-88081703D01*
X189146184Y-88049000D01*
X189313816Y-88049000D01*
X189478228Y-88081703D01*
G37*
G36*
X125843512Y-86733927D02*
G01*
X125992812Y-86763624D01*
X126156784Y-86831544D01*
X126304354Y-86930147D01*
X126429853Y-87055646D01*
X126528456Y-87203216D01*
X126596376Y-87367188D01*
X126631000Y-87541259D01*
X126631000Y-87718741D01*
X126596376Y-87892812D01*
X126528456Y-88056784D01*
X126429853Y-88204354D01*
X126304354Y-88329853D01*
X126156784Y-88428456D01*
X125992812Y-88496376D01*
X125843512Y-88526073D01*
X125818742Y-88531000D01*
X125641258Y-88531000D01*
X125616488Y-88526073D01*
X125467188Y-88496376D01*
X125303216Y-88428456D01*
X125155646Y-88329853D01*
X125030147Y-88204354D01*
X124931544Y-88056784D01*
X124863624Y-87892812D01*
X124829000Y-87718741D01*
X124829000Y-87541259D01*
X124863624Y-87367188D01*
X124931544Y-87203216D01*
X125030147Y-87055646D01*
X125155646Y-86930147D01*
X125303216Y-86831544D01*
X125467188Y-86763624D01*
X125616488Y-86733927D01*
X125641258Y-86729000D01*
X125818742Y-86729000D01*
X125843512Y-86733927D01*
G37*
G36*
X105523512Y-86733927D02*
G01*
X105672812Y-86763624D01*
X105836784Y-86831544D01*
X105984354Y-86930147D01*
X106109853Y-87055646D01*
X106208456Y-87203216D01*
X106276376Y-87367188D01*
X106311000Y-87541259D01*
X106311000Y-87718741D01*
X106276376Y-87892812D01*
X106208456Y-88056784D01*
X106109853Y-88204354D01*
X105984354Y-88329853D01*
X105836784Y-88428456D01*
X105672812Y-88496376D01*
X105523512Y-88526073D01*
X105498742Y-88531000D01*
X105321258Y-88531000D01*
X105296488Y-88526073D01*
X105147188Y-88496376D01*
X104983216Y-88428456D01*
X104835646Y-88329853D01*
X104710147Y-88204354D01*
X104611544Y-88056784D01*
X104543624Y-87892812D01*
X104509000Y-87718741D01*
X104509000Y-87541259D01*
X104543624Y-87367188D01*
X104611544Y-87203216D01*
X104710147Y-87055646D01*
X104835646Y-86930147D01*
X104983216Y-86831544D01*
X105147188Y-86763624D01*
X105296488Y-86733927D01*
X105321258Y-86729000D01*
X105498742Y-86729000D01*
X105523512Y-86733927D01*
G37*
G36*
X82331000Y-86141000D02*
G01*
X80229000Y-86141000D01*
X80229000Y-84039000D01*
X82331000Y-84039000D01*
X82331000Y-86141000D01*
G37*
G36*
X68886564Y-84079389D02*
G01*
X69077833Y-84158615D01*
X69077835Y-84158616D01*
X69249973Y-84273635D01*
X69396365Y-84420027D01*
X69460256Y-84515646D01*
X69511385Y-84592167D01*
X69590611Y-84783436D01*
X69631000Y-84986484D01*
X69631000Y-85193516D01*
X69590611Y-85396564D01*
X69540815Y-85516782D01*
X69511384Y-85587835D01*
X69396365Y-85759973D01*
X69249973Y-85906365D01*
X69077835Y-86021384D01*
X69077834Y-86021385D01*
X69077833Y-86021385D01*
X68886564Y-86100611D01*
X68683516Y-86141000D01*
X68476484Y-86141000D01*
X68273436Y-86100611D01*
X68082167Y-86021385D01*
X68082166Y-86021385D01*
X68082165Y-86021384D01*
X67910027Y-85906365D01*
X67763635Y-85759973D01*
X67648616Y-85587835D01*
X67619185Y-85516782D01*
X67569389Y-85396564D01*
X67529000Y-85193516D01*
X67529000Y-84986484D01*
X67569389Y-84783436D01*
X67648615Y-84592167D01*
X67699745Y-84515646D01*
X67763635Y-84420027D01*
X67910027Y-84273635D01*
X68082165Y-84158616D01*
X68082167Y-84158615D01*
X68273436Y-84079389D01*
X68476484Y-84039000D01*
X68683516Y-84039000D01*
X68886564Y-84079389D01*
G37*
G36*
X125843512Y-84193927D02*
G01*
X125992812Y-84223624D01*
X126156784Y-84291544D01*
X126304354Y-84390147D01*
X126429853Y-84515646D01*
X126528456Y-84663216D01*
X126596376Y-84827188D01*
X126631000Y-85001259D01*
X126631000Y-85178741D01*
X126596376Y-85352812D01*
X126528456Y-85516784D01*
X126429853Y-85664354D01*
X126304354Y-85789853D01*
X126156784Y-85888456D01*
X125992812Y-85956376D01*
X125843512Y-85986073D01*
X125818742Y-85991000D01*
X125641258Y-85991000D01*
X125616488Y-85986073D01*
X125467188Y-85956376D01*
X125303216Y-85888456D01*
X125155646Y-85789853D01*
X125030147Y-85664354D01*
X124931544Y-85516784D01*
X124863624Y-85352812D01*
X124829000Y-85178741D01*
X124829000Y-85001259D01*
X124863624Y-84827188D01*
X124931544Y-84663216D01*
X125030147Y-84515646D01*
X125155646Y-84390147D01*
X125303216Y-84291544D01*
X125467188Y-84223624D01*
X125616488Y-84193927D01*
X125641258Y-84189000D01*
X125818742Y-84189000D01*
X125843512Y-84193927D01*
G37*
G36*
X105523512Y-84193927D02*
G01*
X105672812Y-84223624D01*
X105836784Y-84291544D01*
X105984354Y-84390147D01*
X106109853Y-84515646D01*
X106208456Y-84663216D01*
X106276376Y-84827188D01*
X106311000Y-85001259D01*
X106311000Y-85178741D01*
X106276376Y-85352812D01*
X106208456Y-85516784D01*
X106109853Y-85664354D01*
X105984354Y-85789853D01*
X105836784Y-85888456D01*
X105672812Y-85956376D01*
X105523512Y-85986073D01*
X105498742Y-85991000D01*
X105321258Y-85991000D01*
X105296488Y-85986073D01*
X105147188Y-85956376D01*
X104983216Y-85888456D01*
X104835646Y-85789853D01*
X104710147Y-85664354D01*
X104611544Y-85516784D01*
X104543624Y-85352812D01*
X104509000Y-85178741D01*
X104509000Y-85001259D01*
X104543624Y-84827188D01*
X104611544Y-84663216D01*
X104710147Y-84515646D01*
X104835646Y-84390147D01*
X104983216Y-84291544D01*
X105147188Y-84223624D01*
X105296488Y-84193927D01*
X105321258Y-84189000D01*
X105498742Y-84189000D01*
X105523512Y-84193927D01*
G37*
G36*
X105523512Y-81653927D02*
G01*
X105672812Y-81683624D01*
X105836784Y-81751544D01*
X105984354Y-81850147D01*
X106109853Y-81975646D01*
X106208456Y-82123216D01*
X106276376Y-82287188D01*
X106311000Y-82461259D01*
X106311000Y-82638741D01*
X106276376Y-82812812D01*
X106208456Y-82976784D01*
X106109853Y-83124354D01*
X105984354Y-83249853D01*
X105836784Y-83348456D01*
X105672812Y-83416376D01*
X105523512Y-83446073D01*
X105498742Y-83451000D01*
X105321258Y-83451000D01*
X105296488Y-83446073D01*
X105147188Y-83416376D01*
X104983216Y-83348456D01*
X104835646Y-83249853D01*
X104710147Y-83124354D01*
X104611544Y-82976784D01*
X104543624Y-82812812D01*
X104509000Y-82638741D01*
X104509000Y-82461259D01*
X104543624Y-82287188D01*
X104611544Y-82123216D01*
X104710147Y-81975646D01*
X104835646Y-81850147D01*
X104983216Y-81751544D01*
X105147188Y-81683624D01*
X105296488Y-81653927D01*
X105321258Y-81649000D01*
X105498742Y-81649000D01*
X105523512Y-81653927D01*
G37*
G36*
X125843512Y-81653927D02*
G01*
X125992812Y-81683624D01*
X126156784Y-81751544D01*
X126304354Y-81850147D01*
X126429853Y-81975646D01*
X126528456Y-82123216D01*
X126596376Y-82287188D01*
X126631000Y-82461259D01*
X126631000Y-82638741D01*
X126596376Y-82812812D01*
X126528456Y-82976784D01*
X126429853Y-83124354D01*
X126304354Y-83249853D01*
X126156784Y-83348456D01*
X125992812Y-83416376D01*
X125843512Y-83446073D01*
X125818742Y-83451000D01*
X125641258Y-83451000D01*
X125616488Y-83446073D01*
X125467188Y-83416376D01*
X125303216Y-83348456D01*
X125155646Y-83249853D01*
X125030147Y-83124354D01*
X124931544Y-82976784D01*
X124863624Y-82812812D01*
X124829000Y-82638741D01*
X124829000Y-82461259D01*
X124863624Y-82287188D01*
X124931544Y-82123216D01*
X125030147Y-81975646D01*
X125155646Y-81850147D01*
X125303216Y-81751544D01*
X125467188Y-81683624D01*
X125616488Y-81653927D01*
X125641258Y-81649000D01*
X125818742Y-81649000D01*
X125843512Y-81653927D01*
G37*
G36*
X189478228Y-80461703D02*
G01*
X189633100Y-80525853D01*
X189772481Y-80618985D01*
X189891015Y-80737519D01*
X189984147Y-80876900D01*
X190048297Y-81031772D01*
X190081000Y-81196184D01*
X190081000Y-81363816D01*
X190048297Y-81528228D01*
X189984147Y-81683100D01*
X189891015Y-81822481D01*
X189772481Y-81941015D01*
X189633100Y-82034147D01*
X189478228Y-82098297D01*
X189313816Y-82131000D01*
X189146184Y-82131000D01*
X188981772Y-82098297D01*
X188826900Y-82034147D01*
X188687519Y-81941015D01*
X188568985Y-81822481D01*
X188475853Y-81683100D01*
X188411703Y-81528228D01*
X188379000Y-81363816D01*
X188379000Y-81196184D01*
X188411703Y-81031772D01*
X188475853Y-80876900D01*
X188568985Y-80737519D01*
X188687519Y-80618985D01*
X188826900Y-80525853D01*
X188981772Y-80461703D01*
X189146184Y-80429000D01*
X189313816Y-80429000D01*
X189478228Y-80461703D01*
G37*
G36*
X169158228Y-80461703D02*
G01*
X169313100Y-80525853D01*
X169452481Y-80618985D01*
X169571015Y-80737519D01*
X169664147Y-80876900D01*
X169728297Y-81031772D01*
X169761000Y-81196184D01*
X169761000Y-81363816D01*
X169728297Y-81528228D01*
X169664147Y-81683100D01*
X169571015Y-81822481D01*
X169452481Y-81941015D01*
X169313100Y-82034147D01*
X169158228Y-82098297D01*
X168993816Y-82131000D01*
X168826184Y-82131000D01*
X168661772Y-82098297D01*
X168506900Y-82034147D01*
X168367519Y-81941015D01*
X168248985Y-81822481D01*
X168155853Y-81683100D01*
X168091703Y-81528228D01*
X168059000Y-81363816D01*
X168059000Y-81196184D01*
X168091703Y-81031772D01*
X168155853Y-80876900D01*
X168248985Y-80737519D01*
X168367519Y-80618985D01*
X168506900Y-80525853D01*
X168661772Y-80461703D01*
X168826184Y-80429000D01*
X168993816Y-80429000D01*
X169158228Y-80461703D01*
G37*
G36*
X105523512Y-79113927D02*
G01*
X105672812Y-79143624D01*
X105836784Y-79211544D01*
X105984354Y-79310147D01*
X106109853Y-79435646D01*
X106208456Y-79583216D01*
X106276376Y-79747188D01*
X106311000Y-79921259D01*
X106311000Y-80098741D01*
X106276376Y-80272812D01*
X106208456Y-80436784D01*
X106109853Y-80584354D01*
X105984354Y-80709853D01*
X105836784Y-80808456D01*
X105672812Y-80876376D01*
X105523512Y-80906073D01*
X105498742Y-80911000D01*
X105321258Y-80911000D01*
X105296488Y-80906073D01*
X105147188Y-80876376D01*
X104983216Y-80808456D01*
X104835646Y-80709853D01*
X104710147Y-80584354D01*
X104611544Y-80436784D01*
X104543624Y-80272812D01*
X104509000Y-80098741D01*
X104509000Y-79921259D01*
X104543624Y-79747188D01*
X104611544Y-79583216D01*
X104710147Y-79435646D01*
X104835646Y-79310147D01*
X104983216Y-79211544D01*
X105147188Y-79143624D01*
X105296488Y-79113927D01*
X105321258Y-79109000D01*
X105498742Y-79109000D01*
X105523512Y-79113927D01*
G37*
G36*
X125843512Y-79113927D02*
G01*
X125992812Y-79143624D01*
X126156784Y-79211544D01*
X126304354Y-79310147D01*
X126429853Y-79435646D01*
X126528456Y-79583216D01*
X126596376Y-79747188D01*
X126631000Y-79921259D01*
X126631000Y-80098741D01*
X126596376Y-80272812D01*
X126528456Y-80436784D01*
X126429853Y-80584354D01*
X126304354Y-80709853D01*
X126156784Y-80808456D01*
X125992812Y-80876376D01*
X125843512Y-80906073D01*
X125818742Y-80911000D01*
X125641258Y-80911000D01*
X125616488Y-80906073D01*
X125467188Y-80876376D01*
X125303216Y-80808456D01*
X125155646Y-80709853D01*
X125030147Y-80584354D01*
X124931544Y-80436784D01*
X124863624Y-80272812D01*
X124829000Y-80098741D01*
X124829000Y-79921259D01*
X124863624Y-79747188D01*
X124931544Y-79583216D01*
X125030147Y-79435646D01*
X125155646Y-79310147D01*
X125303216Y-79211544D01*
X125467188Y-79143624D01*
X125616488Y-79113927D01*
X125641258Y-79109000D01*
X125818742Y-79109000D01*
X125843512Y-79113927D01*
G37*
G36*
X134828228Y-79191703D02*
G01*
X134983100Y-79255853D01*
X135122481Y-79348985D01*
X135241015Y-79467519D01*
X135334147Y-79606900D01*
X135398297Y-79761772D01*
X135431000Y-79926184D01*
X135431000Y-80093816D01*
X135398297Y-80258228D01*
X135334147Y-80413100D01*
X135241015Y-80552481D01*
X135122481Y-80671015D01*
X134983100Y-80764147D01*
X134828228Y-80828297D01*
X134663816Y-80861000D01*
X134496184Y-80861000D01*
X134331772Y-80828297D01*
X134176900Y-80764147D01*
X134037519Y-80671015D01*
X133918985Y-80552481D01*
X133825853Y-80413100D01*
X133761703Y-80258228D01*
X133729000Y-80093816D01*
X133729000Y-79926184D01*
X133761703Y-79761772D01*
X133825853Y-79606900D01*
X133918985Y-79467519D01*
X134037519Y-79348985D01*
X134176900Y-79255853D01*
X134331772Y-79191703D01*
X134496184Y-79159000D01*
X134663816Y-79159000D01*
X134828228Y-79191703D01*
G37*
G36*
X132931000Y-80861000D02*
G01*
X131229000Y-80861000D01*
X131229000Y-79159000D01*
X132931000Y-79159000D01*
X132931000Y-80861000D01*
G37*
G36*
X68886564Y-77729389D02*
G01*
X69077833Y-77808615D01*
X69077835Y-77808616D01*
X69249973Y-77923635D01*
X69396365Y-78070027D01*
X69463067Y-78169853D01*
X69511385Y-78242167D01*
X69590611Y-78433436D01*
X69631000Y-78636484D01*
X69631000Y-78843516D01*
X69590611Y-79046564D01*
X69530492Y-79191705D01*
X69511384Y-79237835D01*
X69396365Y-79409973D01*
X69249973Y-79556365D01*
X69077835Y-79671384D01*
X69077834Y-79671385D01*
X69077833Y-79671385D01*
X68886564Y-79750611D01*
X68683516Y-79791000D01*
X68476484Y-79791000D01*
X68273436Y-79750611D01*
X68082167Y-79671385D01*
X68082166Y-79671385D01*
X68082165Y-79671384D01*
X67910027Y-79556365D01*
X67763635Y-79409973D01*
X67648616Y-79237835D01*
X67629508Y-79191705D01*
X67569389Y-79046564D01*
X67529000Y-78843516D01*
X67529000Y-78636484D01*
X67569389Y-78433436D01*
X67648615Y-78242167D01*
X67696934Y-78169853D01*
X67763635Y-78070027D01*
X67910027Y-77923635D01*
X68082165Y-77808616D01*
X68082167Y-77808615D01*
X68273436Y-77729389D01*
X68476484Y-77689000D01*
X68683516Y-77689000D01*
X68886564Y-77729389D01*
G37*
G36*
X82331000Y-79791000D02*
G01*
X80229000Y-79791000D01*
X80229000Y-77689000D01*
X82331000Y-77689000D01*
X82331000Y-79791000D01*
G37*
G36*
X198233512Y-77843927D02*
G01*
X198382812Y-77873624D01*
X198546784Y-77941544D01*
X198694354Y-78040147D01*
X198819853Y-78165646D01*
X198918456Y-78313216D01*
X198986376Y-78477188D01*
X199021000Y-78651259D01*
X199021000Y-78828741D01*
X198986376Y-79002812D01*
X198918456Y-79166784D01*
X198819853Y-79314354D01*
X198694354Y-79439853D01*
X198546784Y-79538456D01*
X198382812Y-79606376D01*
X198233512Y-79636073D01*
X198208742Y-79641000D01*
X198031258Y-79641000D01*
X198006488Y-79636073D01*
X197857188Y-79606376D01*
X197693216Y-79538456D01*
X197545646Y-79439853D01*
X197420147Y-79314354D01*
X197321544Y-79166784D01*
X197253624Y-79002812D01*
X197219000Y-78828741D01*
X197219000Y-78651259D01*
X197253624Y-78477188D01*
X197321544Y-78313216D01*
X197420147Y-78165646D01*
X197545646Y-78040147D01*
X197693216Y-77941544D01*
X197857188Y-77873624D01*
X198006488Y-77843927D01*
X198031258Y-77839000D01*
X198208742Y-77839000D01*
X198233512Y-77843927D01*
G37*
G36*
X105523512Y-76573927D02*
G01*
X105672812Y-76603624D01*
X105836784Y-76671544D01*
X105984354Y-76770147D01*
X106109853Y-76895646D01*
X106208456Y-77043216D01*
X106276376Y-77207188D01*
X106311000Y-77381259D01*
X106311000Y-77558741D01*
X106276376Y-77732812D01*
X106208456Y-77896784D01*
X106109853Y-78044354D01*
X105984354Y-78169853D01*
X105836784Y-78268456D01*
X105672812Y-78336376D01*
X105523512Y-78366073D01*
X105498742Y-78371000D01*
X105321258Y-78371000D01*
X105296488Y-78366073D01*
X105147188Y-78336376D01*
X104983216Y-78268456D01*
X104835646Y-78169853D01*
X104710147Y-78044354D01*
X104611544Y-77896784D01*
X104543624Y-77732812D01*
X104509000Y-77558741D01*
X104509000Y-77381259D01*
X104543624Y-77207188D01*
X104611544Y-77043216D01*
X104710147Y-76895646D01*
X104835646Y-76770147D01*
X104983216Y-76671544D01*
X105147188Y-76603624D01*
X105296488Y-76573927D01*
X105321258Y-76569000D01*
X105498742Y-76569000D01*
X105523512Y-76573927D01*
G37*
G36*
X59803512Y-76573927D02*
G01*
X59952812Y-76603624D01*
X60116784Y-76671544D01*
X60264354Y-76770147D01*
X60389853Y-76895646D01*
X60488456Y-77043216D01*
X60556376Y-77207188D01*
X60591000Y-77381259D01*
X60591000Y-77558741D01*
X60556376Y-77732812D01*
X60488456Y-77896784D01*
X60389853Y-78044354D01*
X60264354Y-78169853D01*
X60116784Y-78268456D01*
X59952812Y-78336376D01*
X59803512Y-78366073D01*
X59778742Y-78371000D01*
X59601258Y-78371000D01*
X59576488Y-78366073D01*
X59427188Y-78336376D01*
X59263216Y-78268456D01*
X59115646Y-78169853D01*
X58990147Y-78044354D01*
X58891544Y-77896784D01*
X58823624Y-77732812D01*
X58789000Y-77558741D01*
X58789000Y-77381259D01*
X58823624Y-77207188D01*
X58891544Y-77043216D01*
X58990147Y-76895646D01*
X59115646Y-76770147D01*
X59263216Y-76671544D01*
X59427188Y-76603624D01*
X59576488Y-76573927D01*
X59601258Y-76569000D01*
X59778742Y-76569000D01*
X59803512Y-76573927D01*
G37*
G36*
X125843512Y-76573927D02*
G01*
X125992812Y-76603624D01*
X126156784Y-76671544D01*
X126304354Y-76770147D01*
X126429853Y-76895646D01*
X126528456Y-77043216D01*
X126596376Y-77207188D01*
X126631000Y-77381259D01*
X126631000Y-77558741D01*
X126596376Y-77732812D01*
X126528456Y-77896784D01*
X126429853Y-78044354D01*
X126304354Y-78169853D01*
X126156784Y-78268456D01*
X125992812Y-78336376D01*
X125843512Y-78366073D01*
X125818742Y-78371000D01*
X125641258Y-78371000D01*
X125616488Y-78366073D01*
X125467188Y-78336376D01*
X125303216Y-78268456D01*
X125155646Y-78169853D01*
X125030147Y-78044354D01*
X124931544Y-77896784D01*
X124863624Y-77732812D01*
X124829000Y-77558741D01*
X124829000Y-77381259D01*
X124863624Y-77207188D01*
X124931544Y-77043216D01*
X125030147Y-76895646D01*
X125155646Y-76770147D01*
X125303216Y-76671544D01*
X125467188Y-76603624D01*
X125616488Y-76573927D01*
X125641258Y-76569000D01*
X125818742Y-76569000D01*
X125843512Y-76573927D01*
G37*
G36*
X198233512Y-75303927D02*
G01*
X198382812Y-75333624D01*
X198546784Y-75401544D01*
X198694354Y-75500147D01*
X198819853Y-75625646D01*
X198918456Y-75773216D01*
X198986376Y-75937188D01*
X199021000Y-76111259D01*
X199021000Y-76288741D01*
X198986376Y-76462812D01*
X198918456Y-76626784D01*
X198819853Y-76774354D01*
X198694354Y-76899853D01*
X198546784Y-76998456D01*
X198382812Y-77066376D01*
X198233512Y-77096073D01*
X198208742Y-77101000D01*
X198031258Y-77101000D01*
X198006488Y-77096073D01*
X197857188Y-77066376D01*
X197693216Y-76998456D01*
X197545646Y-76899853D01*
X197420147Y-76774354D01*
X197321544Y-76626784D01*
X197253624Y-76462812D01*
X197219000Y-76288741D01*
X197219000Y-76111259D01*
X197253624Y-75937188D01*
X197321544Y-75773216D01*
X197420147Y-75625646D01*
X197545646Y-75500147D01*
X197693216Y-75401544D01*
X197857188Y-75333624D01*
X198006488Y-75303927D01*
X198031258Y-75299000D01*
X198208742Y-75299000D01*
X198233512Y-75303927D01*
G37*
G36*
X126631000Y-75831000D02*
G01*
X124829000Y-75831000D01*
X124829000Y-74029000D01*
X126631000Y-74029000D01*
X126631000Y-75831000D01*
G37*
G36*
X105523512Y-74033927D02*
G01*
X105672812Y-74063624D01*
X105836784Y-74131544D01*
X105984354Y-74230147D01*
X106109853Y-74355646D01*
X106208456Y-74503216D01*
X106276376Y-74667188D01*
X106311000Y-74841259D01*
X106311000Y-75018741D01*
X106276376Y-75192812D01*
X106208456Y-75356784D01*
X106109853Y-75504354D01*
X105984354Y-75629853D01*
X105836784Y-75728456D01*
X105672812Y-75796376D01*
X105523512Y-75826073D01*
X105498742Y-75831000D01*
X105321258Y-75831000D01*
X105296488Y-75826073D01*
X105147188Y-75796376D01*
X104983216Y-75728456D01*
X104835646Y-75629853D01*
X104710147Y-75504354D01*
X104611544Y-75356784D01*
X104543624Y-75192812D01*
X104509000Y-75018741D01*
X104509000Y-74841259D01*
X104543624Y-74667188D01*
X104611544Y-74503216D01*
X104710147Y-74355646D01*
X104835646Y-74230147D01*
X104983216Y-74131544D01*
X105147188Y-74063624D01*
X105296488Y-74033927D01*
X105321258Y-74029000D01*
X105498742Y-74029000D01*
X105523512Y-74033927D01*
G37*
G36*
X59803512Y-74033927D02*
G01*
X59952812Y-74063624D01*
X60116784Y-74131544D01*
X60264354Y-74230147D01*
X60389853Y-74355646D01*
X60488456Y-74503216D01*
X60556376Y-74667188D01*
X60591000Y-74841259D01*
X60591000Y-75018741D01*
X60556376Y-75192812D01*
X60488456Y-75356784D01*
X60389853Y-75504354D01*
X60264354Y-75629853D01*
X60116784Y-75728456D01*
X59952812Y-75796376D01*
X59803512Y-75826073D01*
X59778742Y-75831000D01*
X59601258Y-75831000D01*
X59576488Y-75826073D01*
X59427188Y-75796376D01*
X59263216Y-75728456D01*
X59115646Y-75629853D01*
X58990147Y-75504354D01*
X58891544Y-75356784D01*
X58823624Y-75192812D01*
X58789000Y-75018741D01*
X58789000Y-74841259D01*
X58823624Y-74667188D01*
X58891544Y-74503216D01*
X58990147Y-74355646D01*
X59115646Y-74230147D01*
X59263216Y-74131544D01*
X59427188Y-74063624D01*
X59576488Y-74033927D01*
X59601258Y-74029000D01*
X59778742Y-74029000D01*
X59803512Y-74033927D01*
G37*
G36*
X198233512Y-72763927D02*
G01*
X198382812Y-72793624D01*
X198546784Y-72861544D01*
X198694354Y-72960147D01*
X198819853Y-73085646D01*
X198918456Y-73233216D01*
X198986376Y-73397188D01*
X199021000Y-73571259D01*
X199021000Y-73748741D01*
X198986376Y-73922812D01*
X198918456Y-74086784D01*
X198819853Y-74234354D01*
X198694354Y-74359853D01*
X198546784Y-74458456D01*
X198382812Y-74526376D01*
X198233512Y-74556073D01*
X198208742Y-74561000D01*
X198031258Y-74561000D01*
X198006488Y-74556073D01*
X197857188Y-74526376D01*
X197693216Y-74458456D01*
X197545646Y-74359853D01*
X197420147Y-74234354D01*
X197321544Y-74086784D01*
X197253624Y-73922812D01*
X197219000Y-73748741D01*
X197219000Y-73571259D01*
X197253624Y-73397188D01*
X197321544Y-73233216D01*
X197420147Y-73085646D01*
X197545646Y-72960147D01*
X197693216Y-72861544D01*
X197857188Y-72793624D01*
X198006488Y-72763927D01*
X198031258Y-72759000D01*
X198208742Y-72759000D01*
X198233512Y-72763927D01*
G37*
G36*
X169158228Y-72841703D02*
G01*
X169313100Y-72905853D01*
X169452481Y-72998985D01*
X169571015Y-73117519D01*
X169664147Y-73256900D01*
X169728297Y-73411772D01*
X169761000Y-73576184D01*
X169761000Y-73743816D01*
X169728297Y-73908228D01*
X169664147Y-74063100D01*
X169571015Y-74202481D01*
X169452481Y-74321015D01*
X169313100Y-74414147D01*
X169158228Y-74478297D01*
X168993816Y-74511000D01*
X168826184Y-74511000D01*
X168661772Y-74478297D01*
X168506900Y-74414147D01*
X168367519Y-74321015D01*
X168248985Y-74202481D01*
X168155853Y-74063100D01*
X168091703Y-73908228D01*
X168059000Y-73743816D01*
X168059000Y-73576184D01*
X168091703Y-73411772D01*
X168155853Y-73256900D01*
X168248985Y-73117519D01*
X168367519Y-72998985D01*
X168506900Y-72905853D01*
X168661772Y-72841703D01*
X168826184Y-72809000D01*
X168993816Y-72809000D01*
X169158228Y-72841703D01*
G37*
G36*
X189478228Y-72841703D02*
G01*
X189633100Y-72905853D01*
X189772481Y-72998985D01*
X189891015Y-73117519D01*
X189984147Y-73256900D01*
X190048297Y-73411772D01*
X190081000Y-73576184D01*
X190081000Y-73743816D01*
X190048297Y-73908228D01*
X189984147Y-74063100D01*
X189891015Y-74202481D01*
X189772481Y-74321015D01*
X189633100Y-74414147D01*
X189478228Y-74478297D01*
X189313816Y-74511000D01*
X189146184Y-74511000D01*
X188981772Y-74478297D01*
X188826900Y-74414147D01*
X188687519Y-74321015D01*
X188568985Y-74202481D01*
X188475853Y-74063100D01*
X188411703Y-73908228D01*
X188379000Y-73743816D01*
X188379000Y-73576184D01*
X188411703Y-73411772D01*
X188475853Y-73256900D01*
X188568985Y-73117519D01*
X188687519Y-72998985D01*
X188826900Y-72905853D01*
X188981772Y-72841703D01*
X189146184Y-72809000D01*
X189313816Y-72809000D01*
X189478228Y-72841703D01*
G37*
G36*
X82331000Y-73441000D02*
G01*
X80229000Y-73441000D01*
X80229000Y-71339000D01*
X82331000Y-71339000D01*
X82331000Y-73441000D01*
G37*
G36*
X68886564Y-71379389D02*
G01*
X69077833Y-71458615D01*
X69077835Y-71458616D01*
X69249973Y-71573635D01*
X69396365Y-71720027D01*
X69463067Y-71819853D01*
X69511385Y-71892167D01*
X69590611Y-72083436D01*
X69631000Y-72286484D01*
X69631000Y-72493516D01*
X69590611Y-72696564D01*
X69530492Y-72841705D01*
X69511384Y-72887835D01*
X69396365Y-73059973D01*
X69249973Y-73206365D01*
X69077835Y-73321384D01*
X69077834Y-73321385D01*
X69077833Y-73321385D01*
X68886564Y-73400611D01*
X68683516Y-73441000D01*
X68476484Y-73441000D01*
X68273436Y-73400611D01*
X68082167Y-73321385D01*
X68082166Y-73321385D01*
X68082165Y-73321384D01*
X67910027Y-73206365D01*
X67763635Y-73059973D01*
X67648616Y-72887835D01*
X67629508Y-72841705D01*
X67569389Y-72696564D01*
X67529000Y-72493516D01*
X67529000Y-72286484D01*
X67569389Y-72083436D01*
X67648615Y-71892167D01*
X67696934Y-71819853D01*
X67763635Y-71720027D01*
X67910027Y-71573635D01*
X68082165Y-71458616D01*
X68082167Y-71458615D01*
X68273436Y-71379389D01*
X68476484Y-71339000D01*
X68683516Y-71339000D01*
X68886564Y-71379389D01*
G37*
G36*
X105523512Y-71493927D02*
G01*
X105672812Y-71523624D01*
X105836784Y-71591544D01*
X105984354Y-71690147D01*
X106109853Y-71815646D01*
X106208456Y-71963216D01*
X106276376Y-72127188D01*
X106311000Y-72301259D01*
X106311000Y-72478741D01*
X106276376Y-72652812D01*
X106208456Y-72816784D01*
X106109853Y-72964354D01*
X105984354Y-73089853D01*
X105836784Y-73188456D01*
X105672812Y-73256376D01*
X105523512Y-73286073D01*
X105498742Y-73291000D01*
X105321258Y-73291000D01*
X105296488Y-73286073D01*
X105147188Y-73256376D01*
X104983216Y-73188456D01*
X104835646Y-73089853D01*
X104710147Y-72964354D01*
X104611544Y-72816784D01*
X104543624Y-72652812D01*
X104509000Y-72478741D01*
X104509000Y-72301259D01*
X104543624Y-72127188D01*
X104611544Y-71963216D01*
X104710147Y-71815646D01*
X104835646Y-71690147D01*
X104983216Y-71591544D01*
X105147188Y-71523624D01*
X105296488Y-71493927D01*
X105321258Y-71489000D01*
X105498742Y-71489000D01*
X105523512Y-71493927D01*
G37*
G36*
X59803512Y-71493927D02*
G01*
X59952812Y-71523624D01*
X60116784Y-71591544D01*
X60264354Y-71690147D01*
X60389853Y-71815646D01*
X60488456Y-71963216D01*
X60556376Y-72127188D01*
X60591000Y-72301259D01*
X60591000Y-72478741D01*
X60556376Y-72652812D01*
X60488456Y-72816784D01*
X60389853Y-72964354D01*
X60264354Y-73089853D01*
X60116784Y-73188456D01*
X59952812Y-73256376D01*
X59803512Y-73286073D01*
X59778742Y-73291000D01*
X59601258Y-73291000D01*
X59576488Y-73286073D01*
X59427188Y-73256376D01*
X59263216Y-73188456D01*
X59115646Y-73089853D01*
X58990147Y-72964354D01*
X58891544Y-72816784D01*
X58823624Y-72652812D01*
X58789000Y-72478741D01*
X58789000Y-72301259D01*
X58823624Y-72127188D01*
X58891544Y-71963216D01*
X58990147Y-71815646D01*
X59115646Y-71690147D01*
X59263216Y-71591544D01*
X59427188Y-71523624D01*
X59576488Y-71493927D01*
X59601258Y-71489000D01*
X59778742Y-71489000D01*
X59803512Y-71493927D01*
G37*
G36*
X198233512Y-70223927D02*
G01*
X198382812Y-70253624D01*
X198546784Y-70321544D01*
X198694354Y-70420147D01*
X198819853Y-70545646D01*
X198918456Y-70693216D01*
X198986376Y-70857188D01*
X199021000Y-71031259D01*
X199021000Y-71208741D01*
X198986376Y-71382812D01*
X198918456Y-71546784D01*
X198819853Y-71694354D01*
X198694354Y-71819853D01*
X198546784Y-71918456D01*
X198382812Y-71986376D01*
X198233512Y-72016073D01*
X198208742Y-72021000D01*
X198031258Y-72021000D01*
X198006488Y-72016073D01*
X197857188Y-71986376D01*
X197693216Y-71918456D01*
X197545646Y-71819853D01*
X197420147Y-71694354D01*
X197321544Y-71546784D01*
X197253624Y-71382812D01*
X197219000Y-71208741D01*
X197219000Y-71031259D01*
X197253624Y-70857188D01*
X197321544Y-70693216D01*
X197420147Y-70545646D01*
X197545646Y-70420147D01*
X197693216Y-70321544D01*
X197857188Y-70253624D01*
X198006488Y-70223927D01*
X198031258Y-70219000D01*
X198208742Y-70219000D01*
X198233512Y-70223927D01*
G37*
G36*
X59803512Y-68953927D02*
G01*
X59952812Y-68983624D01*
X60116784Y-69051544D01*
X60264354Y-69150147D01*
X60389853Y-69275646D01*
X60488456Y-69423216D01*
X60556376Y-69587188D01*
X60591000Y-69761259D01*
X60591000Y-69938741D01*
X60556376Y-70112812D01*
X60488456Y-70276784D01*
X60389853Y-70424354D01*
X60264354Y-70549853D01*
X60116784Y-70648456D01*
X59952812Y-70716376D01*
X59803512Y-70746073D01*
X59778742Y-70751000D01*
X59601258Y-70751000D01*
X59576488Y-70746073D01*
X59427188Y-70716376D01*
X59263216Y-70648456D01*
X59115646Y-70549853D01*
X58990147Y-70424354D01*
X58891544Y-70276784D01*
X58823624Y-70112812D01*
X58789000Y-69938741D01*
X58789000Y-69761259D01*
X58823624Y-69587188D01*
X58891544Y-69423216D01*
X58990147Y-69275646D01*
X59115646Y-69150147D01*
X59263216Y-69051544D01*
X59427188Y-68983624D01*
X59576488Y-68953927D01*
X59601258Y-68949000D01*
X59778742Y-68949000D01*
X59803512Y-68953927D01*
G37*
G36*
X105523512Y-68953927D02*
G01*
X105672812Y-68983624D01*
X105836784Y-69051544D01*
X105984354Y-69150147D01*
X106109853Y-69275646D01*
X106208456Y-69423216D01*
X106276376Y-69587188D01*
X106311000Y-69761259D01*
X106311000Y-69938741D01*
X106276376Y-70112812D01*
X106208456Y-70276784D01*
X106109853Y-70424354D01*
X105984354Y-70549853D01*
X105836784Y-70648456D01*
X105672812Y-70716376D01*
X105523512Y-70746073D01*
X105498742Y-70751000D01*
X105321258Y-70751000D01*
X105296488Y-70746073D01*
X105147188Y-70716376D01*
X104983216Y-70648456D01*
X104835646Y-70549853D01*
X104710147Y-70424354D01*
X104611544Y-70276784D01*
X104543624Y-70112812D01*
X104509000Y-69938741D01*
X104509000Y-69761259D01*
X104543624Y-69587188D01*
X104611544Y-69423216D01*
X104710147Y-69275646D01*
X104835646Y-69150147D01*
X104983216Y-69051544D01*
X105147188Y-68983624D01*
X105296488Y-68953927D01*
X105321258Y-68949000D01*
X105498742Y-68949000D01*
X105523512Y-68953927D01*
G37*
G36*
X199021000Y-69481000D02*
G01*
X197219000Y-69481000D01*
X197219000Y-67679000D01*
X199021000Y-67679000D01*
X199021000Y-69481000D01*
G37*
G36*
X60591000Y-68211000D02*
G01*
X58789000Y-68211000D01*
X58789000Y-66409000D01*
X60591000Y-66409000D01*
X60591000Y-68211000D01*
G37*
G36*
X105523512Y-66413927D02*
G01*
X105672812Y-66443624D01*
X105836784Y-66511544D01*
X105984354Y-66610147D01*
X106109853Y-66735646D01*
X106208456Y-66883216D01*
X106276376Y-67047188D01*
X106311000Y-67221259D01*
X106311000Y-67398741D01*
X106276376Y-67572812D01*
X106208456Y-67736784D01*
X106109853Y-67884354D01*
X105984354Y-68009853D01*
X105836784Y-68108456D01*
X105672812Y-68176376D01*
X105523512Y-68206073D01*
X105498742Y-68211000D01*
X105321258Y-68211000D01*
X105296488Y-68206073D01*
X105147188Y-68176376D01*
X104983216Y-68108456D01*
X104835646Y-68009853D01*
X104710147Y-67884354D01*
X104611544Y-67736784D01*
X104543624Y-67572812D01*
X104509000Y-67398741D01*
X104509000Y-67221259D01*
X104543624Y-67047188D01*
X104611544Y-66883216D01*
X104710147Y-66735646D01*
X104835646Y-66610147D01*
X104983216Y-66511544D01*
X105147188Y-66443624D01*
X105296488Y-66413927D01*
X105321258Y-66409000D01*
X105498742Y-66409000D01*
X105523512Y-66413927D01*
G37*
G36*
X189478228Y-66491703D02*
G01*
X189633100Y-66555853D01*
X189772481Y-66648985D01*
X189891015Y-66767519D01*
X189984147Y-66906900D01*
X190048297Y-67061772D01*
X190081000Y-67226184D01*
X190081000Y-67393816D01*
X190048297Y-67558228D01*
X189984147Y-67713100D01*
X189891015Y-67852481D01*
X189772481Y-67971015D01*
X189633100Y-68064147D01*
X189478228Y-68128297D01*
X189313816Y-68161000D01*
X189146184Y-68161000D01*
X188981772Y-68128297D01*
X188826900Y-68064147D01*
X188687519Y-67971015D01*
X188568985Y-67852481D01*
X188475853Y-67713100D01*
X188411703Y-67558228D01*
X188379000Y-67393816D01*
X188379000Y-67226184D01*
X188411703Y-67061772D01*
X188475853Y-66906900D01*
X188568985Y-66767519D01*
X188687519Y-66648985D01*
X188826900Y-66555853D01*
X188981772Y-66491703D01*
X189146184Y-66459000D01*
X189313816Y-66459000D01*
X189478228Y-66491703D01*
G37*
G36*
X169158228Y-66491703D02*
G01*
X169313100Y-66555853D01*
X169452481Y-66648985D01*
X169571015Y-66767519D01*
X169664147Y-66906900D01*
X169728297Y-67061772D01*
X169761000Y-67226184D01*
X169761000Y-67393816D01*
X169728297Y-67558228D01*
X169664147Y-67713100D01*
X169571015Y-67852481D01*
X169452481Y-67971015D01*
X169313100Y-68064147D01*
X169158228Y-68128297D01*
X168993816Y-68161000D01*
X168826184Y-68161000D01*
X168661772Y-68128297D01*
X168506900Y-68064147D01*
X168367519Y-67971015D01*
X168248985Y-67852481D01*
X168155853Y-67713100D01*
X168091703Y-67558228D01*
X168059000Y-67393816D01*
X168059000Y-67226184D01*
X168091703Y-67061772D01*
X168155853Y-66906900D01*
X168248985Y-66767519D01*
X168367519Y-66648985D01*
X168506900Y-66555853D01*
X168661772Y-66491703D01*
X168826184Y-66459000D01*
X168993816Y-66459000D01*
X169158228Y-66491703D01*
G37*
G36*
X68886564Y-65029389D02*
G01*
X69077833Y-65108615D01*
X69077835Y-65108616D01*
X69249973Y-65223635D01*
X69396365Y-65370027D01*
X69511385Y-65542167D01*
X69590611Y-65733436D01*
X69631000Y-65936484D01*
X69631000Y-66143516D01*
X69590611Y-66346564D01*
X69530492Y-66491705D01*
X69511384Y-66537835D01*
X69396365Y-66709973D01*
X69249973Y-66856365D01*
X69077835Y-66971384D01*
X69077834Y-66971385D01*
X69077833Y-66971385D01*
X68886564Y-67050611D01*
X68683516Y-67091000D01*
X68476484Y-67091000D01*
X68273436Y-67050611D01*
X68082167Y-66971385D01*
X68082166Y-66971385D01*
X68082165Y-66971384D01*
X67910027Y-66856365D01*
X67763635Y-66709973D01*
X67648616Y-66537835D01*
X67629508Y-66491705D01*
X67569389Y-66346564D01*
X67529000Y-66143516D01*
X67529000Y-65936484D01*
X67569389Y-65733436D01*
X67648615Y-65542167D01*
X67763635Y-65370027D01*
X67910027Y-65223635D01*
X68082165Y-65108616D01*
X68082167Y-65108615D01*
X68273436Y-65029389D01*
X68476484Y-64989000D01*
X68683516Y-64989000D01*
X68886564Y-65029389D01*
G37*
G36*
X82331000Y-67091000D02*
G01*
X80229000Y-67091000D01*
X80229000Y-64989000D01*
X82331000Y-64989000D01*
X82331000Y-67091000D01*
G37*
G36*
X106311000Y-65671000D02*
G01*
X104509000Y-65671000D01*
X104509000Y-63869000D01*
X106311000Y-63869000D01*
X106311000Y-65671000D01*
G37*
G36*
X137408228Y-60141703D02*
G01*
X137563100Y-60205853D01*
X137702481Y-60298985D01*
X137821015Y-60417519D01*
X137914147Y-60556900D01*
X137978297Y-60711772D01*
X138011000Y-60876184D01*
X138011000Y-61043816D01*
X137978297Y-61208228D01*
X137914147Y-61363100D01*
X137821015Y-61502481D01*
X137702481Y-61621015D01*
X137563100Y-61714147D01*
X137408228Y-61778297D01*
X137243816Y-61811000D01*
X137076184Y-61811000D01*
X136911772Y-61778297D01*
X136756900Y-61714147D01*
X136617519Y-61621015D01*
X136498985Y-61502481D01*
X136405853Y-61363100D01*
X136341703Y-61208228D01*
X136309000Y-61043816D01*
X136309000Y-60876184D01*
X136341703Y-60711772D01*
X136405853Y-60556900D01*
X136498985Y-60417519D01*
X136617519Y-60298985D01*
X136756900Y-60205853D01*
X136911772Y-60141703D01*
X137076184Y-60109000D01*
X137243816Y-60109000D01*
X137408228Y-60141703D01*
G37*
G36*
X160268228Y-60141703D02*
G01*
X160423100Y-60205853D01*
X160562481Y-60298985D01*
X160681015Y-60417519D01*
X160774147Y-60556900D01*
X160838297Y-60711772D01*
X160871000Y-60876184D01*
X160871000Y-61043816D01*
X160838297Y-61208228D01*
X160774147Y-61363100D01*
X160681015Y-61502481D01*
X160562481Y-61621015D01*
X160423100Y-61714147D01*
X160268228Y-61778297D01*
X160103816Y-61811000D01*
X159936184Y-61811000D01*
X159771772Y-61778297D01*
X159616900Y-61714147D01*
X159477519Y-61621015D01*
X159358985Y-61502481D01*
X159265853Y-61363100D01*
X159201703Y-61208228D01*
X159169000Y-61043816D01*
X159169000Y-60876184D01*
X159201703Y-60711772D01*
X159265853Y-60556900D01*
X159358985Y-60417519D01*
X159477519Y-60298985D01*
X159616900Y-60205853D01*
X159771772Y-60141703D01*
X159936184Y-60109000D01*
X160103816Y-60109000D01*
X160268228Y-60141703D01*
G37*
G36*
X152648228Y-60141703D02*
G01*
X152803100Y-60205853D01*
X152942481Y-60298985D01*
X153061015Y-60417519D01*
X153154147Y-60556900D01*
X153218297Y-60711772D01*
X153251000Y-60876184D01*
X153251000Y-61043816D01*
X153218297Y-61208228D01*
X153154147Y-61363100D01*
X153061015Y-61502481D01*
X152942481Y-61621015D01*
X152803100Y-61714147D01*
X152648228Y-61778297D01*
X152483816Y-61811000D01*
X152316184Y-61811000D01*
X152151772Y-61778297D01*
X151996900Y-61714147D01*
X151857519Y-61621015D01*
X151738985Y-61502481D01*
X151645853Y-61363100D01*
X151581703Y-61208228D01*
X151549000Y-61043816D01*
X151549000Y-60876184D01*
X151581703Y-60711772D01*
X151645853Y-60556900D01*
X151738985Y-60417519D01*
X151857519Y-60298985D01*
X151996900Y-60205853D01*
X152151772Y-60141703D01*
X152316184Y-60109000D01*
X152483816Y-60109000D01*
X152648228Y-60141703D01*
G37*
G36*
X129788228Y-60141703D02*
G01*
X129943100Y-60205853D01*
X130082481Y-60298985D01*
X130201015Y-60417519D01*
X130294147Y-60556900D01*
X130358297Y-60711772D01*
X130391000Y-60876184D01*
X130391000Y-61043816D01*
X130358297Y-61208228D01*
X130294147Y-61363100D01*
X130201015Y-61502481D01*
X130082481Y-61621015D01*
X129943100Y-61714147D01*
X129788228Y-61778297D01*
X129623816Y-61811000D01*
X129456184Y-61811000D01*
X129291772Y-61778297D01*
X129136900Y-61714147D01*
X128997519Y-61621015D01*
X128878985Y-61502481D01*
X128785853Y-61363100D01*
X128721703Y-61208228D01*
X128689000Y-61043816D01*
X128689000Y-60876184D01*
X128721703Y-60711772D01*
X128785853Y-60556900D01*
X128878985Y-60417519D01*
X128997519Y-60298985D01*
X129136900Y-60205853D01*
X129291772Y-60141703D01*
X129456184Y-60109000D01*
X129623816Y-60109000D01*
X129788228Y-60141703D01*
G37*
G36*
X145028228Y-60141703D02*
G01*
X145183100Y-60205853D01*
X145322481Y-60298985D01*
X145441015Y-60417519D01*
X145534147Y-60556900D01*
X145598297Y-60711772D01*
X145631000Y-60876184D01*
X145631000Y-61043816D01*
X145598297Y-61208228D01*
X145534147Y-61363100D01*
X145441015Y-61502481D01*
X145322481Y-61621015D01*
X145183100Y-61714147D01*
X145028228Y-61778297D01*
X144863816Y-61811000D01*
X144696184Y-61811000D01*
X144531772Y-61778297D01*
X144376900Y-61714147D01*
X144237519Y-61621015D01*
X144118985Y-61502481D01*
X144025853Y-61363100D01*
X143961703Y-61208228D01*
X143929000Y-61043816D01*
X143929000Y-60876184D01*
X143961703Y-60711772D01*
X144025853Y-60556900D01*
X144118985Y-60417519D01*
X144237519Y-60298985D01*
X144376900Y-60205853D01*
X144531772Y-60141703D01*
X144696184Y-60109000D01*
X144863816Y-60109000D01*
X145028228Y-60141703D01*
G37*
G36*
X68886564Y-58679389D02*
G01*
X69077833Y-58758615D01*
X69077835Y-58758616D01*
X69198138Y-58839000D01*
X69249973Y-58873635D01*
X69396365Y-59020027D01*
X69511385Y-59192167D01*
X69590611Y-59383436D01*
X69631000Y-59586484D01*
X69631000Y-59793516D01*
X69590611Y-59996564D01*
X69530492Y-60141705D01*
X69511384Y-60187835D01*
X69396365Y-60359973D01*
X69249973Y-60506365D01*
X69077835Y-60621384D01*
X69077834Y-60621385D01*
X69077833Y-60621385D01*
X68886564Y-60700611D01*
X68683516Y-60741000D01*
X68476484Y-60741000D01*
X68273436Y-60700611D01*
X68082167Y-60621385D01*
X68082166Y-60621385D01*
X68082165Y-60621384D01*
X67910027Y-60506365D01*
X67763635Y-60359973D01*
X67648616Y-60187835D01*
X67629508Y-60141705D01*
X67569389Y-59996564D01*
X67529000Y-59793516D01*
X67529000Y-59586484D01*
X67569389Y-59383436D01*
X67648615Y-59192167D01*
X67763635Y-59020027D01*
X67910027Y-58873635D01*
X67961862Y-58839000D01*
X68082165Y-58758616D01*
X68082167Y-58758615D01*
X68273436Y-58679389D01*
X68476484Y-58639000D01*
X68683516Y-58639000D01*
X68886564Y-58679389D01*
G37*
G36*
X82331000Y-60741000D02*
G01*
X80229000Y-60741000D01*
X80229000Y-58639000D01*
X82331000Y-58639000D01*
X82331000Y-60741000D01*
G37*
G36*
X169158228Y-58871703D02*
G01*
X169313100Y-58935853D01*
X169452481Y-59028985D01*
X169571015Y-59147519D01*
X169664147Y-59286900D01*
X169728297Y-59441772D01*
X169761000Y-59606184D01*
X169761000Y-59773816D01*
X169728297Y-59938228D01*
X169664147Y-60093100D01*
X169571015Y-60232481D01*
X169452481Y-60351015D01*
X169313100Y-60444147D01*
X169158228Y-60508297D01*
X168993816Y-60541000D01*
X168826184Y-60541000D01*
X168661772Y-60508297D01*
X168506900Y-60444147D01*
X168367519Y-60351015D01*
X168248985Y-60232481D01*
X168155853Y-60093100D01*
X168091703Y-59938228D01*
X168059000Y-59773816D01*
X168059000Y-59606184D01*
X168091703Y-59441772D01*
X168155853Y-59286900D01*
X168248985Y-59147519D01*
X168367519Y-59028985D01*
X168506900Y-58935853D01*
X168661772Y-58871703D01*
X168826184Y-58839000D01*
X168993816Y-58839000D01*
X169158228Y-58871703D01*
G37*
G36*
X189478228Y-58871703D02*
G01*
X189633100Y-58935853D01*
X189772481Y-59028985D01*
X189891015Y-59147519D01*
X189984147Y-59286900D01*
X190048297Y-59441772D01*
X190081000Y-59606184D01*
X190081000Y-59773816D01*
X190048297Y-59938228D01*
X189984147Y-60093100D01*
X189891015Y-60232481D01*
X189772481Y-60351015D01*
X189633100Y-60444147D01*
X189478228Y-60508297D01*
X189313816Y-60541000D01*
X189146184Y-60541000D01*
X188981772Y-60508297D01*
X188826900Y-60444147D01*
X188687519Y-60351015D01*
X188568985Y-60232481D01*
X188475853Y-60093100D01*
X188411703Y-59938228D01*
X188379000Y-59773816D01*
X188379000Y-59606184D01*
X188411703Y-59441772D01*
X188475853Y-59286900D01*
X188568985Y-59147519D01*
X188687519Y-59028985D01*
X188826900Y-58935853D01*
X188981772Y-58871703D01*
X189146184Y-58839000D01*
X189313816Y-58839000D01*
X189478228Y-58871703D01*
G37*
G36*
X68886564Y-52329389D02*
G01*
X69077833Y-52408615D01*
X69077835Y-52408616D01*
X69249973Y-52523635D01*
X69396365Y-52670027D01*
X69499345Y-52824147D01*
X69511385Y-52842167D01*
X69590611Y-53033436D01*
X69631000Y-53236484D01*
X69631000Y-53443516D01*
X69590611Y-53646564D01*
X69511385Y-53837833D01*
X69511384Y-53837835D01*
X69396365Y-54009973D01*
X69249973Y-54156365D01*
X69077835Y-54271384D01*
X69077834Y-54271385D01*
X69077833Y-54271385D01*
X68886564Y-54350611D01*
X68683516Y-54391000D01*
X68476484Y-54391000D01*
X68273436Y-54350611D01*
X68082167Y-54271385D01*
X68082166Y-54271385D01*
X68082165Y-54271384D01*
X67910027Y-54156365D01*
X67763635Y-54009973D01*
X67648616Y-53837835D01*
X67648615Y-53837833D01*
X67569389Y-53646564D01*
X67529000Y-53443516D01*
X67529000Y-53236484D01*
X67569389Y-53033436D01*
X67648615Y-52842167D01*
X67660656Y-52824147D01*
X67763635Y-52670027D01*
X67910027Y-52523635D01*
X68082165Y-52408616D01*
X68082167Y-52408615D01*
X68273436Y-52329389D01*
X68476484Y-52289000D01*
X68683516Y-52289000D01*
X68886564Y-52329389D01*
G37*
G36*
X82331000Y-54391000D02*
G01*
X80229000Y-54391000D01*
X80229000Y-52289000D01*
X82331000Y-52289000D01*
X82331000Y-54391000D01*
G37*
G36*
X169158228Y-51251703D02*
G01*
X169313100Y-51315853D01*
X169452481Y-51408985D01*
X169571015Y-51527519D01*
X169664147Y-51666900D01*
X169728297Y-51821772D01*
X169761000Y-51986184D01*
X169761000Y-52153816D01*
X169728297Y-52318228D01*
X169664147Y-52473100D01*
X169571015Y-52612481D01*
X169452481Y-52731015D01*
X169313100Y-52824147D01*
X169158228Y-52888297D01*
X168993816Y-52921000D01*
X168826184Y-52921000D01*
X168661772Y-52888297D01*
X168506900Y-52824147D01*
X168367519Y-52731015D01*
X168248985Y-52612481D01*
X168155853Y-52473100D01*
X168091703Y-52318228D01*
X168059000Y-52153816D01*
X168059000Y-51986184D01*
X168091703Y-51821772D01*
X168155853Y-51666900D01*
X168248985Y-51527519D01*
X168367519Y-51408985D01*
X168506900Y-51315853D01*
X168661772Y-51251703D01*
X168826184Y-51219000D01*
X168993816Y-51219000D01*
X169158228Y-51251703D01*
G37*
G36*
X189478228Y-51251703D02*
G01*
X189633100Y-51315853D01*
X189772481Y-51408985D01*
X189891015Y-51527519D01*
X189984147Y-51666900D01*
X190048297Y-51821772D01*
X190081000Y-51986184D01*
X190081000Y-52153816D01*
X190048297Y-52318228D01*
X189984147Y-52473100D01*
X189891015Y-52612481D01*
X189772481Y-52731015D01*
X189633100Y-52824147D01*
X189478228Y-52888297D01*
X189313816Y-52921000D01*
X189146184Y-52921000D01*
X188981772Y-52888297D01*
X188826900Y-52824147D01*
X188687519Y-52731015D01*
X188568985Y-52612481D01*
X188475853Y-52473100D01*
X188411703Y-52318228D01*
X188379000Y-52153816D01*
X188379000Y-51986184D01*
X188411703Y-51821772D01*
X188475853Y-51666900D01*
X188568985Y-51527519D01*
X188687519Y-51408985D01*
X188826900Y-51315853D01*
X188981772Y-51251703D01*
X189146184Y-51219000D01*
X189313816Y-51219000D01*
X189478228Y-51251703D01*
G37*
G36*
X82331000Y-48041000D02*
G01*
X80229000Y-48041000D01*
X80229000Y-45939000D01*
X82331000Y-45939000D01*
X82331000Y-48041000D01*
G37*
G36*
X68886564Y-45979389D02*
G01*
X69077833Y-46058615D01*
X69077835Y-46058616D01*
X69249973Y-46173635D01*
X69396365Y-46320027D01*
X69463067Y-46419853D01*
X69511385Y-46492167D01*
X69590611Y-46683436D01*
X69631000Y-46886484D01*
X69631000Y-47093516D01*
X69590611Y-47296564D01*
X69511385Y-47487833D01*
X69511384Y-47487835D01*
X69396365Y-47659973D01*
X69249973Y-47806365D01*
X69077835Y-47921384D01*
X69077834Y-47921385D01*
X69077833Y-47921385D01*
X68886564Y-48000611D01*
X68683516Y-48041000D01*
X68476484Y-48041000D01*
X68273436Y-48000611D01*
X68082167Y-47921385D01*
X68082166Y-47921385D01*
X68082165Y-47921384D01*
X67910027Y-47806365D01*
X67763635Y-47659973D01*
X67648616Y-47487835D01*
X67648615Y-47487833D01*
X67569389Y-47296564D01*
X67529000Y-47093516D01*
X67529000Y-46886484D01*
X67569389Y-46683436D01*
X67648615Y-46492167D01*
X67696934Y-46419853D01*
X67763635Y-46320027D01*
X67910027Y-46173635D01*
X68082165Y-46058616D01*
X68082167Y-46058615D01*
X68273436Y-45979389D01*
X68476484Y-45939000D01*
X68683516Y-45939000D01*
X68886564Y-45979389D01*
G37*
G36*
X59803512Y-44823927D02*
G01*
X59952812Y-44853624D01*
X60116784Y-44921544D01*
X60264354Y-45020147D01*
X60389853Y-45145646D01*
X60488456Y-45293216D01*
X60556376Y-45457188D01*
X60591000Y-45631259D01*
X60591000Y-45808741D01*
X60556376Y-45982812D01*
X60488456Y-46146784D01*
X60389853Y-46294354D01*
X60264354Y-46419853D01*
X60116784Y-46518456D01*
X59952812Y-46586376D01*
X59803512Y-46616073D01*
X59778742Y-46621000D01*
X59601258Y-46621000D01*
X59576488Y-46616073D01*
X59427188Y-46586376D01*
X59263216Y-46518456D01*
X59115646Y-46419853D01*
X58990147Y-46294354D01*
X58891544Y-46146784D01*
X58823624Y-45982812D01*
X58789000Y-45808741D01*
X58789000Y-45631259D01*
X58823624Y-45457188D01*
X58891544Y-45293216D01*
X58990147Y-45145646D01*
X59115646Y-45020147D01*
X59263216Y-44921544D01*
X59427188Y-44853624D01*
X59576488Y-44823927D01*
X59601258Y-44819000D01*
X59778742Y-44819000D01*
X59803512Y-44823927D01*
G37*
G36*
X189478228Y-43631703D02*
G01*
X189633100Y-43695853D01*
X189772481Y-43788985D01*
X189891015Y-43907519D01*
X189984147Y-44046900D01*
X190048297Y-44201772D01*
X190081000Y-44366184D01*
X190081000Y-44533816D01*
X190048297Y-44698228D01*
X189984147Y-44853100D01*
X189891015Y-44992481D01*
X189772481Y-45111015D01*
X189633100Y-45204147D01*
X189478228Y-45268297D01*
X189313816Y-45301000D01*
X189146184Y-45301000D01*
X188981772Y-45268297D01*
X188826900Y-45204147D01*
X188687519Y-45111015D01*
X188568985Y-44992481D01*
X188475853Y-44853100D01*
X188411703Y-44698228D01*
X188379000Y-44533816D01*
X188379000Y-44366184D01*
X188411703Y-44201772D01*
X188475853Y-44046900D01*
X188568985Y-43907519D01*
X188687519Y-43788985D01*
X188826900Y-43695853D01*
X188981772Y-43631703D01*
X189146184Y-43599000D01*
X189313816Y-43599000D01*
X189478228Y-43631703D01*
G37*
G36*
X169158228Y-43631703D02*
G01*
X169313100Y-43695853D01*
X169452481Y-43788985D01*
X169571015Y-43907519D01*
X169664147Y-44046900D01*
X169728297Y-44201772D01*
X169761000Y-44366184D01*
X169761000Y-44533816D01*
X169728297Y-44698228D01*
X169664147Y-44853100D01*
X169571015Y-44992481D01*
X169452481Y-45111015D01*
X169313100Y-45204147D01*
X169158228Y-45268297D01*
X168993816Y-45301000D01*
X168826184Y-45301000D01*
X168661772Y-45268297D01*
X168506900Y-45204147D01*
X168367519Y-45111015D01*
X168248985Y-44992481D01*
X168155853Y-44853100D01*
X168091703Y-44698228D01*
X168059000Y-44533816D01*
X168059000Y-44366184D01*
X168091703Y-44201772D01*
X168155853Y-44046900D01*
X168248985Y-43907519D01*
X168367519Y-43788985D01*
X168506900Y-43695853D01*
X168661772Y-43631703D01*
X168826184Y-43599000D01*
X168993816Y-43599000D01*
X169158228Y-43631703D01*
G37*
G36*
X59803512Y-42283927D02*
G01*
X59952812Y-42313624D01*
X60116784Y-42381544D01*
X60264354Y-42480147D01*
X60389853Y-42605646D01*
X60488456Y-42753216D01*
X60556376Y-42917188D01*
X60591000Y-43091259D01*
X60591000Y-43268741D01*
X60556376Y-43442812D01*
X60488456Y-43606784D01*
X60389853Y-43754354D01*
X60264354Y-43879853D01*
X60116784Y-43978456D01*
X59952812Y-44046376D01*
X59803512Y-44076073D01*
X59778742Y-44081000D01*
X59601258Y-44081000D01*
X59576488Y-44076073D01*
X59427188Y-44046376D01*
X59263216Y-43978456D01*
X59115646Y-43879853D01*
X58990147Y-43754354D01*
X58891544Y-43606784D01*
X58823624Y-43442812D01*
X58789000Y-43268741D01*
X58789000Y-43091259D01*
X58823624Y-42917188D01*
X58891544Y-42753216D01*
X58990147Y-42605646D01*
X59115646Y-42480147D01*
X59263216Y-42381544D01*
X59427188Y-42313624D01*
X59576488Y-42283927D01*
X59601258Y-42279000D01*
X59778742Y-42279000D01*
X59803512Y-42283927D01*
G37*
G36*
X198233512Y-41013927D02*
G01*
X198382812Y-41043624D01*
X198546784Y-41111544D01*
X198694354Y-41210147D01*
X198819853Y-41335646D01*
X198918456Y-41483216D01*
X198986376Y-41647188D01*
X199021000Y-41821259D01*
X199021000Y-41998741D01*
X198986376Y-42172812D01*
X198918456Y-42336784D01*
X198819853Y-42484354D01*
X198694354Y-42609853D01*
X198546784Y-42708456D01*
X198382812Y-42776376D01*
X198233512Y-42806073D01*
X198208742Y-42811000D01*
X198031258Y-42811000D01*
X198006488Y-42806073D01*
X197857188Y-42776376D01*
X197693216Y-42708456D01*
X197545646Y-42609853D01*
X197420147Y-42484354D01*
X197321544Y-42336784D01*
X197253624Y-42172812D01*
X197219000Y-41998741D01*
X197219000Y-41821259D01*
X197253624Y-41647188D01*
X197321544Y-41483216D01*
X197420147Y-41335646D01*
X197545646Y-41210147D01*
X197693216Y-41111544D01*
X197857188Y-41043624D01*
X198006488Y-41013927D01*
X198031258Y-41009000D01*
X198208742Y-41009000D01*
X198233512Y-41013927D01*
G37*
G36*
X82331000Y-41691000D02*
G01*
X80229000Y-41691000D01*
X80229000Y-39589000D01*
X82331000Y-39589000D01*
X82331000Y-41691000D01*
G37*
G36*
X68886564Y-39629389D02*
G01*
X69077833Y-39708615D01*
X69077835Y-39708616D01*
X69249973Y-39823635D01*
X69396365Y-39970027D01*
X69463067Y-40069853D01*
X69511385Y-40142167D01*
X69590611Y-40333436D01*
X69631000Y-40536484D01*
X69631000Y-40743516D01*
X69590611Y-40946564D01*
X69550407Y-41043625D01*
X69511384Y-41137835D01*
X69396365Y-41309973D01*
X69249973Y-41456365D01*
X69077835Y-41571384D01*
X69077834Y-41571385D01*
X69077833Y-41571385D01*
X68886564Y-41650611D01*
X68683516Y-41691000D01*
X68476484Y-41691000D01*
X68273436Y-41650611D01*
X68082167Y-41571385D01*
X68082166Y-41571385D01*
X68082165Y-41571384D01*
X67910027Y-41456365D01*
X67763635Y-41309973D01*
X67648616Y-41137835D01*
X67609593Y-41043625D01*
X67569389Y-40946564D01*
X67529000Y-40743516D01*
X67529000Y-40536484D01*
X67569389Y-40333436D01*
X67648615Y-40142167D01*
X67696934Y-40069853D01*
X67763635Y-39970027D01*
X67910027Y-39823635D01*
X68082165Y-39708616D01*
X68082167Y-39708615D01*
X68273436Y-39629389D01*
X68476484Y-39589000D01*
X68683516Y-39589000D01*
X68886564Y-39629389D01*
G37*
G36*
X59803512Y-39743927D02*
G01*
X59952812Y-39773624D01*
X60116784Y-39841544D01*
X60264354Y-39940147D01*
X60389853Y-40065646D01*
X60488456Y-40213216D01*
X60556376Y-40377188D01*
X60591000Y-40551259D01*
X60591000Y-40728741D01*
X60556376Y-40902812D01*
X60488456Y-41066784D01*
X60389853Y-41214354D01*
X60264354Y-41339853D01*
X60116784Y-41438456D01*
X59952812Y-41506376D01*
X59803512Y-41536073D01*
X59778742Y-41541000D01*
X59601258Y-41541000D01*
X59576488Y-41536073D01*
X59427188Y-41506376D01*
X59263216Y-41438456D01*
X59115646Y-41339853D01*
X58990147Y-41214354D01*
X58891544Y-41066784D01*
X58823624Y-40902812D01*
X58789000Y-40728741D01*
X58789000Y-40551259D01*
X58823624Y-40377188D01*
X58891544Y-40213216D01*
X58990147Y-40065646D01*
X59115646Y-39940147D01*
X59263216Y-39841544D01*
X59427188Y-39773624D01*
X59576488Y-39743927D01*
X59601258Y-39739000D01*
X59778742Y-39739000D01*
X59803512Y-39743927D01*
G37*
G36*
X137408228Y-39821703D02*
G01*
X137563100Y-39885853D01*
X137702481Y-39978985D01*
X137821015Y-40097519D01*
X137914147Y-40236900D01*
X137978297Y-40391772D01*
X138011000Y-40556184D01*
X138011000Y-40723816D01*
X137978297Y-40888228D01*
X137914147Y-41043100D01*
X137821015Y-41182481D01*
X137702481Y-41301015D01*
X137563100Y-41394147D01*
X137408228Y-41458297D01*
X137243816Y-41491000D01*
X137076184Y-41491000D01*
X136911772Y-41458297D01*
X136756900Y-41394147D01*
X136617519Y-41301015D01*
X136498985Y-41182481D01*
X136405853Y-41043100D01*
X136341703Y-40888228D01*
X136309000Y-40723816D01*
X136309000Y-40556184D01*
X136341703Y-40391772D01*
X136405853Y-40236900D01*
X136498985Y-40097519D01*
X136617519Y-39978985D01*
X136756900Y-39885853D01*
X136911772Y-39821703D01*
X137076184Y-39789000D01*
X137243816Y-39789000D01*
X137408228Y-39821703D01*
G37*
G36*
X129788228Y-39821703D02*
G01*
X129943100Y-39885853D01*
X130082481Y-39978985D01*
X130201015Y-40097519D01*
X130294147Y-40236900D01*
X130358297Y-40391772D01*
X130391000Y-40556184D01*
X130391000Y-40723816D01*
X130358297Y-40888228D01*
X130294147Y-41043100D01*
X130201015Y-41182481D01*
X130082481Y-41301015D01*
X129943100Y-41394147D01*
X129788228Y-41458297D01*
X129623816Y-41491000D01*
X129456184Y-41491000D01*
X129291772Y-41458297D01*
X129136900Y-41394147D01*
X128997519Y-41301015D01*
X128878985Y-41182481D01*
X128785853Y-41043100D01*
X128721703Y-40888228D01*
X128689000Y-40723816D01*
X128689000Y-40556184D01*
X128721703Y-40391772D01*
X128785853Y-40236900D01*
X128878985Y-40097519D01*
X128997519Y-39978985D01*
X129136900Y-39885853D01*
X129291772Y-39821703D01*
X129456184Y-39789000D01*
X129623816Y-39789000D01*
X129788228Y-39821703D01*
G37*
G36*
X145028228Y-39821703D02*
G01*
X145183100Y-39885853D01*
X145322481Y-39978985D01*
X145441015Y-40097519D01*
X145534147Y-40236900D01*
X145598297Y-40391772D01*
X145631000Y-40556184D01*
X145631000Y-40723816D01*
X145598297Y-40888228D01*
X145534147Y-41043100D01*
X145441015Y-41182481D01*
X145322481Y-41301015D01*
X145183100Y-41394147D01*
X145028228Y-41458297D01*
X144863816Y-41491000D01*
X144696184Y-41491000D01*
X144531772Y-41458297D01*
X144376900Y-41394147D01*
X144237519Y-41301015D01*
X144118985Y-41182481D01*
X144025853Y-41043100D01*
X143961703Y-40888228D01*
X143929000Y-40723816D01*
X143929000Y-40556184D01*
X143961703Y-40391772D01*
X144025853Y-40236900D01*
X144118985Y-40097519D01*
X144237519Y-39978985D01*
X144376900Y-39885853D01*
X144531772Y-39821703D01*
X144696184Y-39789000D01*
X144863816Y-39789000D01*
X145028228Y-39821703D01*
G37*
G36*
X160268228Y-39821703D02*
G01*
X160423100Y-39885853D01*
X160562481Y-39978985D01*
X160681015Y-40097519D01*
X160774147Y-40236900D01*
X160838297Y-40391772D01*
X160871000Y-40556184D01*
X160871000Y-40723816D01*
X160838297Y-40888228D01*
X160774147Y-41043100D01*
X160681015Y-41182481D01*
X160562481Y-41301015D01*
X160423100Y-41394147D01*
X160268228Y-41458297D01*
X160103816Y-41491000D01*
X159936184Y-41491000D01*
X159771772Y-41458297D01*
X159616900Y-41394147D01*
X159477519Y-41301015D01*
X159358985Y-41182481D01*
X159265853Y-41043100D01*
X159201703Y-40888228D01*
X159169000Y-40723816D01*
X159169000Y-40556184D01*
X159201703Y-40391772D01*
X159265853Y-40236900D01*
X159358985Y-40097519D01*
X159477519Y-39978985D01*
X159616900Y-39885853D01*
X159771772Y-39821703D01*
X159936184Y-39789000D01*
X160103816Y-39789000D01*
X160268228Y-39821703D01*
G37*
G36*
X152648228Y-39821703D02*
G01*
X152803100Y-39885853D01*
X152942481Y-39978985D01*
X153061015Y-40097519D01*
X153154147Y-40236900D01*
X153218297Y-40391772D01*
X153251000Y-40556184D01*
X153251000Y-40723816D01*
X153218297Y-40888228D01*
X153154147Y-41043100D01*
X153061015Y-41182481D01*
X152942481Y-41301015D01*
X152803100Y-41394147D01*
X152648228Y-41458297D01*
X152483816Y-41491000D01*
X152316184Y-41491000D01*
X152151772Y-41458297D01*
X151996900Y-41394147D01*
X151857519Y-41301015D01*
X151738985Y-41182481D01*
X151645853Y-41043100D01*
X151581703Y-40888228D01*
X151549000Y-40723816D01*
X151549000Y-40556184D01*
X151581703Y-40391772D01*
X151645853Y-40236900D01*
X151738985Y-40097519D01*
X151857519Y-39978985D01*
X151996900Y-39885853D01*
X152151772Y-39821703D01*
X152316184Y-39789000D01*
X152483816Y-39789000D01*
X152648228Y-39821703D01*
G37*
G36*
X198233512Y-38473927D02*
G01*
X198382812Y-38503624D01*
X198546784Y-38571544D01*
X198694354Y-38670147D01*
X198819853Y-38795646D01*
X198918456Y-38943216D01*
X198986376Y-39107188D01*
X199021000Y-39281259D01*
X199021000Y-39458741D01*
X198986376Y-39632812D01*
X198918456Y-39796784D01*
X198819853Y-39944354D01*
X198694354Y-40069853D01*
X198546784Y-40168456D01*
X198382812Y-40236376D01*
X198233512Y-40266073D01*
X198208742Y-40271000D01*
X198031258Y-40271000D01*
X198006488Y-40266073D01*
X197857188Y-40236376D01*
X197693216Y-40168456D01*
X197545646Y-40069853D01*
X197420147Y-39944354D01*
X197321544Y-39796784D01*
X197253624Y-39632812D01*
X197219000Y-39458741D01*
X197219000Y-39281259D01*
X197253624Y-39107188D01*
X197321544Y-38943216D01*
X197420147Y-38795646D01*
X197545646Y-38670147D01*
X197693216Y-38571544D01*
X197857188Y-38503624D01*
X198006488Y-38473927D01*
X198031258Y-38469000D01*
X198208742Y-38469000D01*
X198233512Y-38473927D01*
G37*
G36*
X59803512Y-37203927D02*
G01*
X59952812Y-37233624D01*
X60116784Y-37301544D01*
X60264354Y-37400147D01*
X60389853Y-37525646D01*
X60488456Y-37673216D01*
X60556376Y-37837188D01*
X60591000Y-38011259D01*
X60591000Y-38188741D01*
X60556376Y-38362812D01*
X60488456Y-38526784D01*
X60389853Y-38674354D01*
X60264354Y-38799853D01*
X60116784Y-38898456D01*
X59952812Y-38966376D01*
X59803512Y-38996073D01*
X59778742Y-39001000D01*
X59601258Y-39001000D01*
X59576488Y-38996073D01*
X59427188Y-38966376D01*
X59263216Y-38898456D01*
X59115646Y-38799853D01*
X58990147Y-38674354D01*
X58891544Y-38526784D01*
X58823624Y-38362812D01*
X58789000Y-38188741D01*
X58789000Y-38011259D01*
X58823624Y-37837188D01*
X58891544Y-37673216D01*
X58990147Y-37525646D01*
X59115646Y-37400147D01*
X59263216Y-37301544D01*
X59427188Y-37233624D01*
X59576488Y-37203927D01*
X59601258Y-37199000D01*
X59778742Y-37199000D01*
X59803512Y-37203927D01*
G37*
G36*
X198233512Y-35933927D02*
G01*
X198382812Y-35963624D01*
X198546784Y-36031544D01*
X198694354Y-36130147D01*
X198819853Y-36255646D01*
X198918456Y-36403216D01*
X198986376Y-36567188D01*
X199021000Y-36741259D01*
X199021000Y-36918741D01*
X198986376Y-37092812D01*
X198918456Y-37256784D01*
X198819853Y-37404354D01*
X198694354Y-37529853D01*
X198546784Y-37628456D01*
X198382812Y-37696376D01*
X198233512Y-37726073D01*
X198208742Y-37731000D01*
X198031258Y-37731000D01*
X198006488Y-37726073D01*
X197857188Y-37696376D01*
X197693216Y-37628456D01*
X197545646Y-37529853D01*
X197420147Y-37404354D01*
X197321544Y-37256784D01*
X197253624Y-37092812D01*
X197219000Y-36918741D01*
X197219000Y-36741259D01*
X197253624Y-36567188D01*
X197321544Y-36403216D01*
X197420147Y-36255646D01*
X197545646Y-36130147D01*
X197693216Y-36031544D01*
X197857188Y-35963624D01*
X198006488Y-35933927D01*
X198031258Y-35929000D01*
X198208742Y-35929000D01*
X198233512Y-35933927D01*
G37*
G36*
X169158228Y-36011703D02*
G01*
X169313100Y-36075853D01*
X169452481Y-36168985D01*
X169571015Y-36287519D01*
X169664147Y-36426900D01*
X169728297Y-36581772D01*
X169761000Y-36746184D01*
X169761000Y-36913816D01*
X169728297Y-37078228D01*
X169664147Y-37233100D01*
X169571015Y-37372481D01*
X169452481Y-37491015D01*
X169313100Y-37584147D01*
X169158228Y-37648297D01*
X168993816Y-37681000D01*
X168826184Y-37681000D01*
X168661772Y-37648297D01*
X168506900Y-37584147D01*
X168367519Y-37491015D01*
X168248985Y-37372481D01*
X168155853Y-37233100D01*
X168091703Y-37078228D01*
X168059000Y-36913816D01*
X168059000Y-36746184D01*
X168091703Y-36581772D01*
X168155853Y-36426900D01*
X168248985Y-36287519D01*
X168367519Y-36168985D01*
X168506900Y-36075853D01*
X168661772Y-36011703D01*
X168826184Y-35979000D01*
X168993816Y-35979000D01*
X169158228Y-36011703D01*
G37*
G36*
X189478228Y-36011703D02*
G01*
X189633100Y-36075853D01*
X189772481Y-36168985D01*
X189891015Y-36287519D01*
X189984147Y-36426900D01*
X190048297Y-36581772D01*
X190081000Y-36746184D01*
X190081000Y-36913816D01*
X190048297Y-37078228D01*
X189984147Y-37233100D01*
X189891015Y-37372481D01*
X189772481Y-37491015D01*
X189633100Y-37584147D01*
X189478228Y-37648297D01*
X189313816Y-37681000D01*
X189146184Y-37681000D01*
X188981772Y-37648297D01*
X188826900Y-37584147D01*
X188687519Y-37491015D01*
X188568985Y-37372481D01*
X188475853Y-37233100D01*
X188411703Y-37078228D01*
X188379000Y-36913816D01*
X188379000Y-36746184D01*
X188411703Y-36581772D01*
X188475853Y-36426900D01*
X188568985Y-36287519D01*
X188687519Y-36168985D01*
X188826900Y-36075853D01*
X188981772Y-36011703D01*
X189146184Y-35979000D01*
X189313816Y-35979000D01*
X189478228Y-36011703D01*
G37*
G36*
X60591000Y-36461000D02*
G01*
X58789000Y-36461000D01*
X58789000Y-34659000D01*
X60591000Y-34659000D01*
X60591000Y-36461000D01*
G37*
G36*
X82331000Y-35341000D02*
G01*
X80229000Y-35341000D01*
X80229000Y-33239000D01*
X82331000Y-33239000D01*
X82331000Y-35341000D01*
G37*
G36*
X68886564Y-33279389D02*
G01*
X69077833Y-33358615D01*
X69077835Y-33358616D01*
X69249973Y-33473635D01*
X69396365Y-33620027D01*
X69460256Y-33715646D01*
X69511385Y-33792167D01*
X69590611Y-33983436D01*
X69631000Y-34186484D01*
X69631000Y-34393516D01*
X69590611Y-34596564D01*
X69564749Y-34659000D01*
X69511384Y-34787835D01*
X69396365Y-34959973D01*
X69249973Y-35106365D01*
X69077835Y-35221384D01*
X69077834Y-35221385D01*
X69077833Y-35221385D01*
X68886564Y-35300611D01*
X68683516Y-35341000D01*
X68476484Y-35341000D01*
X68273436Y-35300611D01*
X68082167Y-35221385D01*
X68082166Y-35221385D01*
X68082165Y-35221384D01*
X67910027Y-35106365D01*
X67763635Y-34959973D01*
X67648616Y-34787835D01*
X67595251Y-34659000D01*
X67569389Y-34596564D01*
X67529000Y-34393516D01*
X67529000Y-34186484D01*
X67569389Y-33983436D01*
X67648615Y-33792167D01*
X67699745Y-33715646D01*
X67763635Y-33620027D01*
X67910027Y-33473635D01*
X68082165Y-33358616D01*
X68082167Y-33358615D01*
X68273436Y-33279389D01*
X68476484Y-33239000D01*
X68683516Y-33239000D01*
X68886564Y-33279389D01*
G37*
G36*
X198233512Y-33393927D02*
G01*
X198382812Y-33423624D01*
X198546784Y-33491544D01*
X198694354Y-33590147D01*
X198819853Y-33715646D01*
X198918456Y-33863216D01*
X198986376Y-34027188D01*
X199021000Y-34201259D01*
X199021000Y-34378741D01*
X198986376Y-34552812D01*
X198918456Y-34716784D01*
X198819853Y-34864354D01*
X198694354Y-34989853D01*
X198546784Y-35088456D01*
X198382812Y-35156376D01*
X198233512Y-35186073D01*
X198208742Y-35191000D01*
X198031258Y-35191000D01*
X198006488Y-35186073D01*
X197857188Y-35156376D01*
X197693216Y-35088456D01*
X197545646Y-34989853D01*
X197420147Y-34864354D01*
X197321544Y-34716784D01*
X197253624Y-34552812D01*
X197219000Y-34378741D01*
X197219000Y-34201259D01*
X197253624Y-34027188D01*
X197321544Y-33863216D01*
X197420147Y-33715646D01*
X197545646Y-33590147D01*
X197693216Y-33491544D01*
X197857188Y-33423624D01*
X198006488Y-33393927D01*
X198031258Y-33389000D01*
X198208742Y-33389000D01*
X198233512Y-33393927D01*
G37*
G36*
X199021000Y-32651000D02*
G01*
X197219000Y-32651000D01*
X197219000Y-30849000D01*
X199021000Y-30849000D01*
X199021000Y-32651000D01*
G37*
G36*
X149973512Y-29583927D02*
G01*
X150122812Y-29613624D01*
X150286784Y-29681544D01*
X150434354Y-29780147D01*
X150559853Y-29905646D01*
X150658456Y-30053216D01*
X150726376Y-30217188D01*
X150761000Y-30391259D01*
X150761000Y-30568741D01*
X150726376Y-30742812D01*
X150658456Y-30906784D01*
X150559853Y-31054354D01*
X150434354Y-31179853D01*
X150286784Y-31278456D01*
X150122812Y-31346376D01*
X149973512Y-31376073D01*
X149948742Y-31381000D01*
X149771258Y-31381000D01*
X149746488Y-31376073D01*
X149597188Y-31346376D01*
X149433216Y-31278456D01*
X149285646Y-31179853D01*
X149160147Y-31054354D01*
X149061544Y-30906784D01*
X148993624Y-30742812D01*
X148959000Y-30568741D01*
X148959000Y-30391259D01*
X148993624Y-30217188D01*
X149061544Y-30053216D01*
X149160147Y-29905646D01*
X149285646Y-29780147D01*
X149433216Y-29681544D01*
X149597188Y-29613624D01*
X149746488Y-29583927D01*
X149771258Y-29579000D01*
X149948742Y-29579000D01*
X149973512Y-29583927D01*
G37*
G36*
X147433512Y-29583927D02*
G01*
X147582812Y-29613624D01*
X147746784Y-29681544D01*
X147894354Y-29780147D01*
X148019853Y-29905646D01*
X148118456Y-30053216D01*
X148186376Y-30217188D01*
X148221000Y-30391259D01*
X148221000Y-30568741D01*
X148186376Y-30742812D01*
X148118456Y-30906784D01*
X148019853Y-31054354D01*
X147894354Y-31179853D01*
X147746784Y-31278456D01*
X147582812Y-31346376D01*
X147433512Y-31376073D01*
X147408742Y-31381000D01*
X147231258Y-31381000D01*
X147206488Y-31376073D01*
X147057188Y-31346376D01*
X146893216Y-31278456D01*
X146745646Y-31179853D01*
X146620147Y-31054354D01*
X146521544Y-30906784D01*
X146453624Y-30742812D01*
X146419000Y-30568741D01*
X146419000Y-30391259D01*
X146453624Y-30217188D01*
X146521544Y-30053216D01*
X146620147Y-29905646D01*
X146745646Y-29780147D01*
X146893216Y-29681544D01*
X147057188Y-29613624D01*
X147206488Y-29583927D01*
X147231258Y-29579000D01*
X147408742Y-29579000D01*
X147433512Y-29583927D01*
G37*
G36*
X140601000Y-31381000D02*
G01*
X138799000Y-31381000D01*
X138799000Y-29579000D01*
X140601000Y-29579000D01*
X140601000Y-31381000D01*
G37*
G36*
X144893512Y-29583927D02*
G01*
X145042812Y-29613624D01*
X145206784Y-29681544D01*
X145354354Y-29780147D01*
X145479853Y-29905646D01*
X145578456Y-30053216D01*
X145646376Y-30217188D01*
X145681000Y-30391259D01*
X145681000Y-30568741D01*
X145646376Y-30742812D01*
X145578456Y-30906784D01*
X145479853Y-31054354D01*
X145354354Y-31179853D01*
X145206784Y-31278456D01*
X145042812Y-31346376D01*
X144893512Y-31376073D01*
X144868742Y-31381000D01*
X144691258Y-31381000D01*
X144666488Y-31376073D01*
X144517188Y-31346376D01*
X144353216Y-31278456D01*
X144205646Y-31179853D01*
X144080147Y-31054354D01*
X143981544Y-30906784D01*
X143913624Y-30742812D01*
X143879000Y-30568741D01*
X143879000Y-30391259D01*
X143913624Y-30217188D01*
X143981544Y-30053216D01*
X144080147Y-29905646D01*
X144205646Y-29780147D01*
X144353216Y-29681544D01*
X144517188Y-29613624D01*
X144666488Y-29583927D01*
X144691258Y-29579000D01*
X144868742Y-29579000D01*
X144893512Y-29583927D01*
G37*
G36*
X142353512Y-29583927D02*
G01*
X142502812Y-29613624D01*
X142666784Y-29681544D01*
X142814354Y-29780147D01*
X142939853Y-29905646D01*
X143038456Y-30053216D01*
X143106376Y-30217188D01*
X143141000Y-30391259D01*
X143141000Y-30568741D01*
X143106376Y-30742812D01*
X143038456Y-30906784D01*
X142939853Y-31054354D01*
X142814354Y-31179853D01*
X142666784Y-31278456D01*
X142502812Y-31346376D01*
X142353512Y-31376073D01*
X142328742Y-31381000D01*
X142151258Y-31381000D01*
X142126488Y-31376073D01*
X141977188Y-31346376D01*
X141813216Y-31278456D01*
X141665646Y-31179853D01*
X141540147Y-31054354D01*
X141441544Y-30906784D01*
X141373624Y-30742812D01*
X141339000Y-30568741D01*
X141339000Y-30391259D01*
X141373624Y-30217188D01*
X141441544Y-30053216D01*
X141540147Y-29905646D01*
X141665646Y-29780147D01*
X141813216Y-29681544D01*
X141977188Y-29613624D01*
X142126488Y-29583927D01*
X142151258Y-29579000D01*
X142328742Y-29579000D01*
X142353512Y-29583927D01*
G37*
G36*
X189478228Y-28391703D02*
G01*
X189633100Y-28455853D01*
X189772481Y-28548985D01*
X189891015Y-28667519D01*
X189984147Y-28806900D01*
X190048297Y-28961772D01*
X190081000Y-29126184D01*
X190081000Y-29293816D01*
X190048297Y-29458228D01*
X189984147Y-29613100D01*
X189891015Y-29752481D01*
X189772481Y-29871015D01*
X189633100Y-29964147D01*
X189478228Y-30028297D01*
X189313816Y-30061000D01*
X189146184Y-30061000D01*
X188981772Y-30028297D01*
X188826900Y-29964147D01*
X188687519Y-29871015D01*
X188568985Y-29752481D01*
X188475853Y-29613100D01*
X188411703Y-29458228D01*
X188379000Y-29293816D01*
X188379000Y-29126184D01*
X188411703Y-28961772D01*
X188475853Y-28806900D01*
X188568985Y-28667519D01*
X188687519Y-28548985D01*
X188826900Y-28455853D01*
X188981772Y-28391703D01*
X189146184Y-28359000D01*
X189313816Y-28359000D01*
X189478228Y-28391703D01*
G37*
G36*
X169158228Y-28391703D02*
G01*
X169313100Y-28455853D01*
X169452481Y-28548985D01*
X169571015Y-28667519D01*
X169664147Y-28806900D01*
X169728297Y-28961772D01*
X169761000Y-29126184D01*
X169761000Y-29293816D01*
X169728297Y-29458228D01*
X169664147Y-29613100D01*
X169571015Y-29752481D01*
X169452481Y-29871015D01*
X169313100Y-29964147D01*
X169158228Y-30028297D01*
X168993816Y-30061000D01*
X168826184Y-30061000D01*
X168661772Y-30028297D01*
X168506900Y-29964147D01*
X168367519Y-29871015D01*
X168248985Y-29752481D01*
X168155853Y-29613100D01*
X168091703Y-29458228D01*
X168059000Y-29293816D01*
X168059000Y-29126184D01*
X168091703Y-28961772D01*
X168155853Y-28806900D01*
X168248985Y-28667519D01*
X168367519Y-28548985D01*
X168506900Y-28455853D01*
X168661772Y-28391703D01*
X168826184Y-28359000D01*
X168993816Y-28359000D01*
X169158228Y-28391703D01*
G37*
G36*
X82331000Y-28991000D02*
G01*
X80229000Y-28991000D01*
X80229000Y-26889000D01*
X82331000Y-26889000D01*
X82331000Y-28991000D01*
G37*
G36*
X68886564Y-26929389D02*
G01*
X69077833Y-27008615D01*
X69077835Y-27008616D01*
X69249973Y-27123635D01*
X69396365Y-27270027D01*
X69511385Y-27442167D01*
X69590611Y-27633436D01*
X69631000Y-27836484D01*
X69631000Y-28043516D01*
X69590611Y-28246564D01*
X69530492Y-28391705D01*
X69511384Y-28437835D01*
X69396365Y-28609973D01*
X69249973Y-28756365D01*
X69077835Y-28871384D01*
X69077834Y-28871385D01*
X69077833Y-28871385D01*
X68886564Y-28950611D01*
X68683516Y-28991000D01*
X68476484Y-28991000D01*
X68273436Y-28950611D01*
X68082167Y-28871385D01*
X68082166Y-28871385D01*
X68082165Y-28871384D01*
X67910027Y-28756365D01*
X67763635Y-28609973D01*
X67648616Y-28437835D01*
X67629508Y-28391705D01*
X67569389Y-28246564D01*
X67529000Y-28043516D01*
X67529000Y-27836484D01*
X67569389Y-27633436D01*
X67648615Y-27442167D01*
X67763635Y-27270027D01*
X67910027Y-27123635D01*
X68082165Y-27008616D01*
X68082167Y-27008615D01*
X68273436Y-26929389D01*
X68476484Y-26889000D01*
X68683516Y-26889000D01*
X68886564Y-26929389D01*
G37*
G36*
X203518433Y-21494893D02*
G01*
X203608657Y-21512839D01*
X203714267Y-21556585D01*
X203863621Y-21618449D01*
X203863622Y-21618450D01*
X204093086Y-21771772D01*
X204288228Y-21966914D01*
X204390675Y-22120237D01*
X204441551Y-22196379D01*
X204464182Y-22251015D01*
X204542877Y-22441000D01*
X204547161Y-22451344D01*
X204601000Y-22722012D01*
X204601000Y-22997988D01*
X204547161Y-23268656D01*
X204441551Y-23523621D01*
X204441550Y-23523622D01*
X204288228Y-23753086D01*
X204093086Y-23948228D01*
X203939763Y-24050675D01*
X203863621Y-24101551D01*
X203714267Y-24163415D01*
X203608657Y-24207161D01*
X203518433Y-24225107D01*
X203337988Y-24261000D01*
X203062012Y-24261000D01*
X202881567Y-24225107D01*
X202791343Y-24207161D01*
X202685733Y-24163415D01*
X202536379Y-24101551D01*
X202460237Y-24050675D01*
X202306914Y-23948228D01*
X202111772Y-23753086D01*
X201958450Y-23523622D01*
X201958449Y-23523621D01*
X201852839Y-23268656D01*
X201799000Y-22997988D01*
X201799000Y-22722012D01*
X201852839Y-22451344D01*
X201857124Y-22441000D01*
X201935818Y-22251015D01*
X201958449Y-22196379D01*
X202009325Y-22120237D01*
X202111772Y-21966914D01*
X202306914Y-21771772D01*
X202536378Y-21618450D01*
X202536379Y-21618449D01*
X202685733Y-21556585D01*
X202791343Y-21512839D01*
X202881567Y-21494893D01*
X203062012Y-21459000D01*
X203337988Y-21459000D01*
X203518433Y-21494893D01*
G37*
G36*
X62548433Y-21494893D02*
G01*
X62638657Y-21512839D01*
X62744267Y-21556585D01*
X62893621Y-21618449D01*
X62893622Y-21618450D01*
X63123086Y-21771772D01*
X63318228Y-21966914D01*
X63420675Y-22120237D01*
X63471551Y-22196379D01*
X63494182Y-22251015D01*
X63572877Y-22441000D01*
X63577161Y-22451344D01*
X63631000Y-22722012D01*
X63631000Y-22997988D01*
X63577161Y-23268656D01*
X63471551Y-23523621D01*
X63471550Y-23523622D01*
X63318228Y-23753086D01*
X63123086Y-23948228D01*
X62969763Y-24050675D01*
X62893621Y-24101551D01*
X62744267Y-24163415D01*
X62638657Y-24207161D01*
X62548433Y-24225107D01*
X62367988Y-24261000D01*
X62092012Y-24261000D01*
X61911567Y-24225107D01*
X61821343Y-24207161D01*
X61715733Y-24163415D01*
X61566379Y-24101551D01*
X61490237Y-24050675D01*
X61336914Y-23948228D01*
X61141772Y-23753086D01*
X60988450Y-23523622D01*
X60988449Y-23523621D01*
X60882839Y-23268656D01*
X60829000Y-22997988D01*
X60829000Y-22722012D01*
X60882839Y-22451344D01*
X60887124Y-22441000D01*
X60965818Y-22251015D01*
X60988449Y-22196379D01*
X61039325Y-22120237D01*
X61141772Y-21966914D01*
X61336914Y-21771772D01*
X61566378Y-21618450D01*
X61566379Y-21618449D01*
X61715733Y-21556585D01*
X61821343Y-21512839D01*
X61911567Y-21494893D01*
X62092012Y-21459000D01*
X62367988Y-21459000D01*
X62548433Y-21494893D01*
G37*
G36*
X95363512Y-20693927D02*
G01*
X95512812Y-20723624D01*
X95676784Y-20791544D01*
X95824354Y-20890147D01*
X95949853Y-21015646D01*
X96048456Y-21163216D01*
X96116376Y-21327188D01*
X96151000Y-21501259D01*
X96151000Y-21678741D01*
X96116376Y-21852812D01*
X96048456Y-22016784D01*
X95949853Y-22164354D01*
X95824354Y-22289853D01*
X95676784Y-22388456D01*
X95512812Y-22456376D01*
X95363512Y-22486073D01*
X95338742Y-22491000D01*
X95161258Y-22491000D01*
X95136488Y-22486073D01*
X94987188Y-22456376D01*
X94823216Y-22388456D01*
X94675646Y-22289853D01*
X94550147Y-22164354D01*
X94451544Y-22016784D01*
X94383624Y-21852812D01*
X94349000Y-21678741D01*
X94349000Y-21501259D01*
X94383624Y-21327188D01*
X94451544Y-21163216D01*
X94550147Y-21015646D01*
X94675646Y-20890147D01*
X94823216Y-20791544D01*
X94987188Y-20723624D01*
X95136488Y-20693927D01*
X95161258Y-20689000D01*
X95338742Y-20689000D01*
X95363512Y-20693927D01*
G37*
G36*
X97903512Y-20693927D02*
G01*
X98052812Y-20723624D01*
X98216784Y-20791544D01*
X98364354Y-20890147D01*
X98489853Y-21015646D01*
X98588456Y-21163216D01*
X98656376Y-21327188D01*
X98691000Y-21501259D01*
X98691000Y-21678741D01*
X98656376Y-21852812D01*
X98588456Y-22016784D01*
X98489853Y-22164354D01*
X98364354Y-22289853D01*
X98216784Y-22388456D01*
X98052812Y-22456376D01*
X97903512Y-22486073D01*
X97878742Y-22491000D01*
X97701258Y-22491000D01*
X97676488Y-22486073D01*
X97527188Y-22456376D01*
X97363216Y-22388456D01*
X97215646Y-22289853D01*
X97090147Y-22164354D01*
X96991544Y-22016784D01*
X96923624Y-21852812D01*
X96889000Y-21678741D01*
X96889000Y-21501259D01*
X96923624Y-21327188D01*
X96991544Y-21163216D01*
X97090147Y-21015646D01*
X97215646Y-20890147D01*
X97363216Y-20791544D01*
X97527188Y-20723624D01*
X97676488Y-20693927D01*
X97701258Y-20689000D01*
X97878742Y-20689000D01*
X97903512Y-20693927D01*
G37*
G36*
X112661000Y-22491000D02*
G01*
X110859000Y-22491000D01*
X110859000Y-20689000D01*
X112661000Y-20689000D01*
X112661000Y-22491000D01*
G37*
G36*
X129171000Y-22491000D02*
G01*
X127369000Y-22491000D01*
X127369000Y-20689000D01*
X129171000Y-20689000D01*
X129171000Y-22491000D01*
G37*
G36*
X125843512Y-20693927D02*
G01*
X125992812Y-20723624D01*
X126156784Y-20791544D01*
X126304354Y-20890147D01*
X126429853Y-21015646D01*
X126528456Y-21163216D01*
X126596376Y-21327188D01*
X126631000Y-21501259D01*
X126631000Y-21678741D01*
X126596376Y-21852812D01*
X126528456Y-22016784D01*
X126429853Y-22164354D01*
X126304354Y-22289853D01*
X126156784Y-22388456D01*
X125992812Y-22456376D01*
X125843512Y-22486073D01*
X125818742Y-22491000D01*
X125641258Y-22491000D01*
X125616488Y-22486073D01*
X125467188Y-22456376D01*
X125303216Y-22388456D01*
X125155646Y-22289853D01*
X125030147Y-22164354D01*
X124931544Y-22016784D01*
X124863624Y-21852812D01*
X124829000Y-21678741D01*
X124829000Y-21501259D01*
X124863624Y-21327188D01*
X124931544Y-21163216D01*
X125030147Y-21015646D01*
X125155646Y-20890147D01*
X125303216Y-20791544D01*
X125467188Y-20723624D01*
X125616488Y-20693927D01*
X125641258Y-20689000D01*
X125818742Y-20689000D01*
X125843512Y-20693927D01*
G37*
G36*
X119493512Y-20693927D02*
G01*
X119642812Y-20723624D01*
X119806784Y-20791544D01*
X119954354Y-20890147D01*
X120079853Y-21015646D01*
X120178456Y-21163216D01*
X120246376Y-21327188D01*
X120281000Y-21501259D01*
X120281000Y-21678741D01*
X120246376Y-21852812D01*
X120178456Y-22016784D01*
X120079853Y-22164354D01*
X119954354Y-22289853D01*
X119806784Y-22388456D01*
X119642812Y-22456376D01*
X119493512Y-22486073D01*
X119468742Y-22491000D01*
X119291258Y-22491000D01*
X119266488Y-22486073D01*
X119117188Y-22456376D01*
X118953216Y-22388456D01*
X118805646Y-22289853D01*
X118680147Y-22164354D01*
X118581544Y-22016784D01*
X118513624Y-21852812D01*
X118479000Y-21678741D01*
X118479000Y-21501259D01*
X118513624Y-21327188D01*
X118581544Y-21163216D01*
X118680147Y-21015646D01*
X118805646Y-20890147D01*
X118953216Y-20791544D01*
X119117188Y-20723624D01*
X119266488Y-20693927D01*
X119291258Y-20689000D01*
X119468742Y-20689000D01*
X119493512Y-20693927D01*
G37*
G36*
X114413512Y-20693927D02*
G01*
X114562812Y-20723624D01*
X114726784Y-20791544D01*
X114874354Y-20890147D01*
X114999853Y-21015646D01*
X115098456Y-21163216D01*
X115166376Y-21327188D01*
X115201000Y-21501259D01*
X115201000Y-21678741D01*
X115166376Y-21852812D01*
X115098456Y-22016784D01*
X114999853Y-22164354D01*
X114874354Y-22289853D01*
X114726784Y-22388456D01*
X114562812Y-22456376D01*
X114413512Y-22486073D01*
X114388742Y-22491000D01*
X114211258Y-22491000D01*
X114186488Y-22486073D01*
X114037188Y-22456376D01*
X113873216Y-22388456D01*
X113725646Y-22289853D01*
X113600147Y-22164354D01*
X113501544Y-22016784D01*
X113433624Y-21852812D01*
X113399000Y-21678741D01*
X113399000Y-21501259D01*
X113433624Y-21327188D01*
X113501544Y-21163216D01*
X113600147Y-21015646D01*
X113725646Y-20890147D01*
X113873216Y-20791544D01*
X114037188Y-20723624D01*
X114186488Y-20693927D01*
X114211258Y-20689000D01*
X114388742Y-20689000D01*
X114413512Y-20693927D01*
G37*
G36*
X100443512Y-20693927D02*
G01*
X100592812Y-20723624D01*
X100756784Y-20791544D01*
X100904354Y-20890147D01*
X101029853Y-21015646D01*
X101128456Y-21163216D01*
X101196376Y-21327188D01*
X101231000Y-21501259D01*
X101231000Y-21678741D01*
X101196376Y-21852812D01*
X101128456Y-22016784D01*
X101029853Y-22164354D01*
X100904354Y-22289853D01*
X100756784Y-22388456D01*
X100592812Y-22456376D01*
X100443512Y-22486073D01*
X100418742Y-22491000D01*
X100241258Y-22491000D01*
X100216488Y-22486073D01*
X100067188Y-22456376D01*
X99903216Y-22388456D01*
X99755646Y-22289853D01*
X99630147Y-22164354D01*
X99531544Y-22016784D01*
X99463624Y-21852812D01*
X99429000Y-21678741D01*
X99429000Y-21501259D01*
X99463624Y-21327188D01*
X99531544Y-21163216D01*
X99630147Y-21015646D01*
X99755646Y-20890147D01*
X99903216Y-20791544D01*
X100067188Y-20723624D01*
X100216488Y-20693927D01*
X100241258Y-20689000D01*
X100418742Y-20689000D01*
X100443512Y-20693927D01*
G37*
G36*
X90283512Y-20693927D02*
G01*
X90432812Y-20723624D01*
X90596784Y-20791544D01*
X90744354Y-20890147D01*
X90869853Y-21015646D01*
X90968456Y-21163216D01*
X91036376Y-21327188D01*
X91071000Y-21501259D01*
X91071000Y-21678741D01*
X91036376Y-21852812D01*
X90968456Y-22016784D01*
X90869853Y-22164354D01*
X90744354Y-22289853D01*
X90596784Y-22388456D01*
X90432812Y-22456376D01*
X90283512Y-22486073D01*
X90258742Y-22491000D01*
X90081258Y-22491000D01*
X90056488Y-22486073D01*
X89907188Y-22456376D01*
X89743216Y-22388456D01*
X89595646Y-22289853D01*
X89470147Y-22164354D01*
X89371544Y-22016784D01*
X89303624Y-21852812D01*
X89269000Y-21678741D01*
X89269000Y-21501259D01*
X89303624Y-21327188D01*
X89371544Y-21163216D01*
X89470147Y-21015646D01*
X89595646Y-20890147D01*
X89743216Y-20791544D01*
X89907188Y-20723624D01*
X90056488Y-20693927D01*
X90081258Y-20689000D01*
X90258742Y-20689000D01*
X90283512Y-20693927D01*
G37*
G36*
X88531000Y-22491000D02*
G01*
X86729000Y-22491000D01*
X86729000Y-20689000D01*
X88531000Y-20689000D01*
X88531000Y-22491000D01*
G37*
G36*
X116953512Y-20693927D02*
G01*
X117102812Y-20723624D01*
X117266784Y-20791544D01*
X117414354Y-20890147D01*
X117539853Y-21015646D01*
X117638456Y-21163216D01*
X117706376Y-21327188D01*
X117741000Y-21501259D01*
X117741000Y-21678741D01*
X117706376Y-21852812D01*
X117638456Y-22016784D01*
X117539853Y-22164354D01*
X117414354Y-22289853D01*
X117266784Y-22388456D01*
X117102812Y-22456376D01*
X116953512Y-22486073D01*
X116928742Y-22491000D01*
X116751258Y-22491000D01*
X116726488Y-22486073D01*
X116577188Y-22456376D01*
X116413216Y-22388456D01*
X116265646Y-22289853D01*
X116140147Y-22164354D01*
X116041544Y-22016784D01*
X115973624Y-21852812D01*
X115939000Y-21678741D01*
X115939000Y-21501259D01*
X115973624Y-21327188D01*
X116041544Y-21163216D01*
X116140147Y-21015646D01*
X116265646Y-20890147D01*
X116413216Y-20791544D01*
X116577188Y-20723624D01*
X116726488Y-20693927D01*
X116751258Y-20689000D01*
X116928742Y-20689000D01*
X116953512Y-20693927D01*
G37*
G36*
X92823512Y-20693927D02*
G01*
X92972812Y-20723624D01*
X93136784Y-20791544D01*
X93284354Y-20890147D01*
X93409853Y-21015646D01*
X93508456Y-21163216D01*
X93576376Y-21327188D01*
X93611000Y-21501259D01*
X93611000Y-21678741D01*
X93576376Y-21852812D01*
X93508456Y-22016784D01*
X93409853Y-22164354D01*
X93284354Y-22289853D01*
X93136784Y-22388456D01*
X92972812Y-22456376D01*
X92823512Y-22486073D01*
X92798742Y-22491000D01*
X92621258Y-22491000D01*
X92596488Y-22486073D01*
X92447188Y-22456376D01*
X92283216Y-22388456D01*
X92135646Y-22289853D01*
X92010147Y-22164354D01*
X91911544Y-22016784D01*
X91843624Y-21852812D01*
X91809000Y-21678741D01*
X91809000Y-21501259D01*
X91843624Y-21327188D01*
X91911544Y-21163216D01*
X92010147Y-21015646D01*
X92135646Y-20890147D01*
X92283216Y-20791544D01*
X92447188Y-20723624D01*
X92596488Y-20693927D01*
X92621258Y-20689000D01*
X92798742Y-20689000D01*
X92823512Y-20693927D01*
G37*
G36*
X169158228Y-20771703D02*
G01*
X169313100Y-20835853D01*
X169452481Y-20928985D01*
X169571015Y-21047519D01*
X169664147Y-21186900D01*
X169728297Y-21341772D01*
X169761000Y-21506184D01*
X169761000Y-21673816D01*
X169728297Y-21838228D01*
X169664147Y-21993100D01*
X169571015Y-22132481D01*
X169452481Y-22251015D01*
X169313100Y-22344147D01*
X169158228Y-22408297D01*
X168993816Y-22441000D01*
X168826184Y-22441000D01*
X168661772Y-22408297D01*
X168506900Y-22344147D01*
X168367519Y-22251015D01*
X168248985Y-22132481D01*
X168155853Y-21993100D01*
X168091703Y-21838228D01*
X168059000Y-21673816D01*
X168059000Y-21506184D01*
X168091703Y-21341772D01*
X168155853Y-21186900D01*
X168248985Y-21047519D01*
X168367519Y-20928985D01*
X168506900Y-20835853D01*
X168661772Y-20771703D01*
X168826184Y-20739000D01*
X168993816Y-20739000D01*
X169158228Y-20771703D01*
G37*
G36*
X189478228Y-20771703D02*
G01*
X189633100Y-20835853D01*
X189772481Y-20928985D01*
X189891015Y-21047519D01*
X189984147Y-21186900D01*
X190048297Y-21341772D01*
X190081000Y-21506184D01*
X190081000Y-21673816D01*
X190048297Y-21838228D01*
X189984147Y-21993100D01*
X189891015Y-22132481D01*
X189772481Y-22251015D01*
X189633100Y-22344147D01*
X189478228Y-22408297D01*
X189313816Y-22441000D01*
X189146184Y-22441000D01*
X188981772Y-22408297D01*
X188826900Y-22344147D01*
X188687519Y-22251015D01*
X188568985Y-22132481D01*
X188475853Y-21993100D01*
X188411703Y-21838228D01*
X188379000Y-21673816D01*
X188379000Y-21506184D01*
X188411703Y-21341772D01*
X188475853Y-21186900D01*
X188568985Y-21047519D01*
X188687519Y-20928985D01*
X188826900Y-20835853D01*
X188981772Y-20771703D01*
X189146184Y-20739000D01*
X189313816Y-20739000D01*
X189478228Y-20771703D01*
G37*
M02*
