M48
; DRILL file {KiCad (5.1.5)-3} date 2/24/2020 5:19:41 PM
; FORMAT={-:-/ absolute / inch / decimal}
; #@! TF.CreationDate,2020-02-24T17:19:41-05:00
; #@! TF.GenerationSoftware,Kicad,Pcbnew,(5.1.5)-3
; #@! TF.FileFunction,Plated,1,2,PTH
FMAT,2
INCH
T1C0.0157
T2C0.0236
T3C0.0299
T4C0.0315
T5C0.0394
%
G90
G05
T1
X3.95Y-2.5
X4.4929Y-4.7571
X4.55Y-4.0
T2
X4.9Y-4.75
X4.9787Y-4.75
T3
X4.35Y-5.95
X4.4Y-5.85
X4.45Y-5.95
X4.5Y-5.85
X4.55Y-5.95
X4.6Y-5.85
X4.65Y-5.95
X4.7Y-5.85
X3.7Y-5.95
X3.75Y-5.85
X3.8Y-5.95
X3.85Y-5.85
X3.9Y-5.95
X3.95Y-5.85
X4.0Y-5.95
X4.05Y-5.85
T4
X5.2Y-3.15
X5.2984Y-3.15
X6.65Y-2.9
X7.45Y-2.9
X6.3Y-1.6
X6.3Y-2.4
X6.65Y-2.65
X7.45Y-2.65
X6.65Y-6.4
X7.45Y-6.4
X3.6Y-4.55
X3.6Y-5.35
X6.0Y-1.6
X6.0Y-2.4
X5.15Y-5.2
X5.15Y-6.0
X6.65Y-0.85
X7.45Y-0.85
X6.65Y-5.2
X7.45Y-5.2
X5.4Y-1.6
X5.4Y-2.4
X3.85Y-4.65
X3.85Y-5.45
X5.1Y-1.6
X5.1Y-2.4
X6.05Y-5.2
X6.05Y-6.0
X6.65Y-6.1
X7.45Y-6.1
X6.65Y-1.45
X7.45Y-1.45
X6.65Y-5.8
X7.45Y-5.8
X5.45Y-5.2
X5.45Y-6.0
X6.35Y-5.2
X6.35Y-6.0
X6.65Y-2.35
X7.45Y-2.35
X6.65Y-1.75
X7.45Y-1.75
X5.75Y-5.2
X5.75Y-6.0
X6.65Y-3.5
X7.45Y-3.5
X6.65Y-5.5
X7.45Y-5.5
X6.65Y-3.2
X7.45Y-3.2
X6.65Y-2.05
X7.45Y-2.05
X5.7Y-1.6
X5.7Y-2.4
X6.65Y-1.15
X7.45Y-1.15
T5
X2.7Y-3.1
X3.2Y-3.1
X5.3Y-4.75
X2.7Y-3.85
X3.2Y-3.85
X2.35Y-5.15
X2.35Y-5.25
X2.35Y-5.35
X2.35Y-5.45
X2.35Y-5.55
X7.8Y-4.1
X7.8Y-4.2
X7.8Y-4.3
X7.8Y-4.4
X7.8Y-4.5
X2.7Y-5.1
X3.2Y-5.1
X6.95Y-4.3
X7.45Y-4.3
X5.5Y-1.2
X5.6Y-1.2
X5.7Y-1.2
X5.8Y-1.2
X5.9Y-1.2
X2.7Y-4.6
X3.2Y-4.6
X2.7Y-1.85
X3.2Y-1.85
X2.7Y-1.6
X3.2Y-1.6
X2.35Y-3.9
X2.35Y-4.0
X2.35Y-4.1
X2.35Y-4.2
X2.35Y-4.3
X2.7Y-3.35
X3.2Y-3.35
X4.4Y-0.85
X4.5Y-0.85
X4.6Y-0.85
X4.7Y-0.85
X2.7Y-1.1
X3.2Y-1.1
X2.7Y-4.85
X3.2Y-4.85
X2.7Y-2.1
X3.2Y-2.1
X6.95Y-4.05
X7.45Y-4.05
X7.8Y-5.6
X7.8Y-5.7
X7.8Y-5.8
X7.8Y-5.9
X7.8Y-6.0
X2.7Y-5.35
X3.2Y-5.35
X6.95Y-4.8
X7.45Y-4.8
X2.7Y-1.35
X3.2Y-1.35
X2.7Y-2.35
X3.2Y-2.35
X2.7Y-4.35
X3.2Y-4.35
X2.35Y-1.4
X2.35Y-1.5
X2.35Y-1.6
X2.35Y-1.7
X2.35Y-1.8
X2.7Y-2.6
X3.2Y-2.6
X2.35Y-2.65
X2.35Y-2.75
X2.35Y-2.85
X2.35Y-2.95
X2.35Y-3.05
X2.7Y-4.1
X3.2Y-4.1
X7.8Y-2.7
X7.8Y-2.8
X7.8Y-2.9
X7.8Y-3.0
X7.8Y-3.1
X6.95Y-3.8
X7.45Y-3.8
X6.95Y-4.55
X7.45Y-4.55
X4.95Y-2.95
X4.95Y-3.05
X4.95Y-3.15
X4.95Y-3.25
X4.95Y-3.35
X4.95Y-3.45
X4.95Y-3.55
X4.95Y-3.65
X4.95Y-3.75
X4.95Y-3.85
X4.95Y-3.95
X4.95Y-4.05
X2.7Y-5.85
X3.2Y-5.85
X4.95Y-0.85
X5.05Y-0.85
X7.8Y-1.25
X7.8Y-1.35
X7.8Y-1.45
X7.8Y-1.55
X7.8Y-1.65
X2.7Y-3.6
X3.2Y-3.6
X2.7Y-5.6
X3.2Y-5.6
X4.15Y-2.55
X4.15Y-2.65
X4.15Y-2.75
X4.15Y-2.85
X4.15Y-2.95
X4.15Y-3.05
X4.15Y-3.15
X4.15Y-3.25
X4.15Y-3.35
X4.15Y-3.45
X4.15Y-3.55
X4.15Y-3.65
X4.15Y-3.75
X4.15Y-3.85
X4.15Y-3.95
X4.15Y-4.05
X2.7Y-2.85
X3.2Y-2.85
X5.55Y-6.4
X5.65Y-6.4
X5.75Y-6.4
X5.85Y-6.4
X5.95Y-6.4
X3.45Y-0.85
X3.55Y-0.85
X3.65Y-0.85
X3.75Y-0.85
X3.85Y-0.85
X3.95Y-0.85
T0
M30
