M48
; DRILL file {KiCad (5.1.5)-3} date 3/5/2020 10:20:28 PM
; FORMAT={-:-/ absolute / inch / decimal}
; #@! TF.CreationDate,2020-03-05T22:20:28-05:00
; #@! TF.GenerationSoftware,Kicad,Pcbnew,(5.1.5)-3
; #@! TF.FileFunction,Plated,1,2,PTH
FMAT,2
INCH
T1C0.0157
T2C0.0236
T3C0.0299
T4C0.0315
T5C0.0354
T6C0.0394
%
G90
G05
T1
X3.95Y-2.5
X4.25Y-1.45
X4.4929Y-4.7571
X4.55Y-4.0
T2
X4.9Y-4.75
X4.9787Y-4.75
T3
X3.7Y-5.95
X3.75Y-5.85
X3.8Y-5.95
X3.85Y-5.85
X3.9Y-5.95
X3.95Y-5.85
X4.0Y-5.95
X4.05Y-5.85
X4.35Y-5.95
X4.4Y-5.85
X4.45Y-5.95
X4.5Y-5.85
X4.55Y-5.95
X4.6Y-5.85
X4.65Y-5.95
X4.7Y-5.85
T4
X2.7Y-1.65
X3.5Y-1.65
X2.7Y-3.5
X3.5Y-3.5
X3.6Y-4.55
X3.6Y-5.35
X2.7Y-4.05
X3.5Y-4.05
X2.7Y-2.85
X3.5Y-2.85
X2.7Y-2.2
X3.5Y-2.2
X3.85Y-4.65
X3.85Y-5.45
X3.05Y-1.15
X3.85Y-1.15
X5.2Y-3.15
X5.2984Y-3.15
T5
X2.95Y-0.9
X3.05Y-0.9
T6
X5.3Y-4.75
X5.35Y-5.5
X5.35Y-6.0
X6.35Y-4.65
X6.85Y-4.65
X5.65Y-1.2
X5.65Y-1.7
X5.4Y-6.4
X5.5Y-6.4
X5.6Y-6.4
X5.7Y-6.4
X5.8Y-6.4
X6.35Y-3.4
X6.85Y-3.4
X4.15Y-2.55
X4.15Y-2.65
X4.15Y-2.75
X4.15Y-2.85
X4.15Y-2.95
X4.15Y-3.05
X4.15Y-3.15
X4.15Y-3.25
X4.15Y-3.35
X4.15Y-3.45
X4.15Y-3.55
X4.15Y-3.65
X4.15Y-3.75
X4.15Y-3.85
X4.15Y-3.95
X4.15Y-4.05
X5.7Y-0.8
X5.8Y-0.8
X5.9Y-0.8
X6.0Y-0.8
X6.1Y-0.8
X5.6Y-5.5
X5.6Y-6.0
X7.25Y-4.7
X7.25Y-4.8
X7.25Y-4.9
X7.25Y-5.0
X7.25Y-5.1
X6.35Y-1.9
X6.85Y-1.9
X2.55Y-1.45
X2.55Y-1.55
X2.55Y-1.65
X2.55Y-1.75
X2.55Y-1.85
X7.25Y-3.45
X7.25Y-3.55
X7.25Y-3.65
X7.25Y-3.75
X7.25Y-3.85
X6.35Y-4.4
X6.85Y-4.4
X6.1Y-5.5
X6.1Y-6.0
X6.35Y-5.15
X6.85Y-5.15
X5.4Y-1.2
X5.4Y-1.7
X6.35Y-5.4
X6.85Y-5.4
X6.35Y-3.65
X6.85Y-3.65
X6.35Y-3.15
X6.85Y-3.15
X2.55Y-4.05
X2.55Y-4.15
X2.55Y-4.25
X2.55Y-4.35
X2.55Y-4.45
X6.4Y-1.2
X6.4Y-1.7
X6.35Y-2.65
X6.85Y-2.65
X6.35Y-2.9
X6.85Y-2.9
X6.35Y-4.9
X6.85Y-4.9
X5.85Y-5.5
X5.85Y-6.0
X6.15Y-1.2
X6.15Y-1.7
X6.35Y-4.15
X6.85Y-4.15
X2.55Y-3.4
X2.55Y-3.5
X2.55Y-3.6
X2.55Y-3.7
X2.55Y-3.8
X3.45Y-0.85
X3.55Y-0.85
X3.65Y-0.85
X3.75Y-0.85
X3.85Y-0.85
X3.95Y-0.85
X4.95Y-2.95
X4.95Y-3.05
X4.95Y-3.15
X4.95Y-3.25
X4.95Y-3.35
X4.95Y-3.45
X4.95Y-3.55
X4.95Y-3.65
X4.95Y-3.75
X4.95Y-3.85
X4.95Y-3.95
X4.95Y-4.05
X2.55Y-2.1
X2.55Y-2.2
X2.55Y-2.3
X2.55Y-2.4
X2.55Y-2.5
X5.1Y-5.5
X5.1Y-6.0
X5.9Y-1.2
X5.9Y-1.7
X6.35Y-3.9
X6.85Y-3.9
X4.95Y-0.85
X5.05Y-0.85
X7.25Y-2.2
X7.25Y-2.3
X7.25Y-2.4
X7.25Y-2.5
X7.25Y-2.6
X2.55Y-2.75
X2.55Y-2.85
X2.55Y-2.95
X2.55Y-3.05
X2.55Y-3.15
X4.4Y-0.85
X4.5Y-0.85
X4.6Y-0.85
X4.7Y-0.85
X6.35Y-2.4
X6.85Y-2.4
X6.35Y-2.15
X6.85Y-2.15
T0
M30
